<svg width="26" height="24" viewBox="0 0 26 24" fill="none" xmlns="http://www.w3.org/2000/svg">
<path opacity="0.932" fill-rule="evenodd" clip-rule="evenodd" d="M17.1245 0.0083703C17.7303 -0.0158036 18.3316 0.0123842 18.9285 0.0929339C19.289 0.274526 19.4769 0.565802 19.4923 0.966758C20.1005 1.11003 20.6831 1.32614 21.2399 1.61508C21.5105 1.58195 21.783 1.53497 22.0574 1.47414C22.2481 1.47508 22.4267 1.52205 22.593 1.61508C23.0198 2.00414 23.4051 2.42696 23.7487 2.88353C23.8131 3.2392 23.7661 3.57746 23.6077 3.8983C23.8897 4.48105 24.1246 5.08241 24.3124 5.70232C24.7301 5.8003 25.0307 6.04458 25.2144 6.4352C25.252 7.01773 25.252 7.60032 25.2144 8.18285C25.0369 8.57303 24.7363 8.81736 24.3124 8.91574C24.1333 9.54703 23.8984 10.1577 23.6077 10.7479C23.8551 11.2275 23.8269 11.6879 23.5232 12.1292C23.1877 12.5214 22.8024 12.8503 22.3675 13.1157C22.0224 13.1767 21.6935 13.1297 21.3809 12.9748C20.7858 13.2488 20.175 13.4837 19.5487 13.6795C19.4503 14.1033 19.206 14.404 18.8158 14.5815C18.252 14.6191 17.6883 14.6191 17.1245 14.5815C16.6939 14.4327 16.4496 14.1321 16.3916 13.6795C15.7324 13.5189 15.1123 13.2652 14.5312 12.9184C14.1833 13.1594 13.8074 13.2064 13.4037 13.0594C13.0203 12.7323 12.6538 12.3846 12.3044 12.0164C12.0352 11.5866 12.0446 11.1638 12.3326 10.7479C11.9937 10.1541 11.7494 9.52454 11.5997 8.85936C11.2112 8.82023 10.9199 8.63233 10.7259 8.2956C10.636 7.69841 10.6172 7.09705 10.6695 6.49158C10.7429 6.27882 10.8651 6.10028 11.0359 5.95601C11.2379 5.87849 11.4258 5.78451 11.5997 5.67413C11.7974 5.05332 12.0417 4.45196 12.3326 3.87011C12.0446 3.45422 12.0352 3.03142 12.3044 2.60165C12.656 2.21229 13.0412 1.86464 13.4601 1.5587C13.8435 1.41857 14.2005 1.46555 14.5312 1.69964C15.118 1.36315 15.7381 1.10946 16.3916 0.93857C16.4591 0.486183 16.7034 0.176116 17.1245 0.0083703ZM17.4064 0.966758C17.7823 0.966758 18.1581 0.966758 18.5339 0.966758C18.5384 1.28584 18.6699 1.53953 18.9285 1.72783C19.6715 1.96285 20.3856 2.26352 21.0708 2.62984C21.4239 2.71 21.7433 2.64423 22.0292 2.43253C22.2915 2.66656 22.5452 2.91086 22.7903 3.16541C22.6982 3.39576 22.6325 3.64009 22.593 3.8983C22.7089 4.35578 22.8874 4.78802 23.1285 5.19494C23.2601 5.57079 23.3916 5.94659 23.5232 6.32245C23.728 6.57518 23.9911 6.72554 24.3124 6.77346C24.35 7.13049 24.35 7.48757 24.3124 7.8446C23.9551 7.91986 23.6732 8.10781 23.4668 8.40835C23.2965 9.087 23.0334 9.72591 22.6775 10.3251C22.6265 10.4516 22.5983 10.5832 22.593 10.7198C22.6325 10.978 22.6982 11.2223 22.7903 11.4526C22.5452 11.7072 22.2915 11.9515 22.0292 12.1855C21.7602 11.9832 21.4595 11.9175 21.1272 11.9882C20.465 12.3474 19.7697 12.6293 19.0413 12.8338C18.7363 13.0208 18.5672 13.2933 18.5339 13.6513C18.1576 13.6607 17.7817 13.6513 17.4064 13.6231C17.3426 13.3266 17.1923 13.0823 16.9554 12.8902C16.5864 12.7415 16.2106 12.61 15.8279 12.4956C15.4879 12.3256 15.1496 12.1564 14.8131 11.9882C14.6252 11.9506 14.4373 11.9506 14.2494 11.9882C14.1051 12.0799 13.9548 12.1363 13.7984 12.1573C13.5541 11.9131 13.3097 11.6687 13.0655 11.4245C13.2777 11.1076 13.3435 10.7599 13.2628 10.3815C12.8879 9.74435 12.606 9.06784 12.4171 8.35198C12.2207 8.06119 11.9482 7.91084 11.5997 7.90097C11.5903 7.52466 11.5997 7.14881 11.6279 6.77346C11.9579 6.70276 12.2209 6.53364 12.4171 6.26608C12.6063 5.54965 12.8882 4.87314 13.2628 4.23655C13.3004 4.01105 13.3004 3.78554 13.2628 3.56004C13.2181 3.44238 13.1523 3.33899 13.0655 3.24997C13.3379 2.97749 13.6105 2.70501 13.8829 2.43253C14.1593 2.63998 14.4693 2.70576 14.8131 2.62984C15.4753 2.27069 16.1706 1.98881 16.899 1.78421C17.1944 1.59174 17.3636 1.31926 17.4064 0.966758Z" fill="url(#paint0_linear_1830_2908)"/>
<path opacity="0.95" fill-rule="evenodd" clip-rule="evenodd" d="M1.01476 2.82774C4.34099 2.81835 7.66716 2.82774 10.9933 2.85593C11.2936 3.04965 11.35 3.30333 11.1624 3.617C11.0967 3.67811 11.0216 3.72508 10.9369 3.75794C7.68587 3.77672 4.43491 3.79555 1.18389 3.81432C1.11812 3.88011 1.05235 3.94584 0.986577 4.01163C0.893252 8.59442 0.874462 13.1796 0.930201 17.7673C0.933905 17.9238 0.999678 18.0459 1.12752 18.1338C8.30291 18.2274 15.4814 18.2462 22.663 18.1901C22.8363 18.1485 22.9585 18.0451 23.0295 17.8801C23.0483 16.5083 23.0671 15.1364 23.0859 13.7646C23.3403 13.4125 23.6222 13.3937 23.9315 13.7083C24.0244 15.1315 24.0432 16.5597 23.9879 17.9928C23.8603 18.6653 23.4563 19.0505 22.7758 19.1485C19.8255 19.1767 16.8752 19.1861 13.9248 19.1767C13.8729 19.9688 13.9105 20.7581 14.0376 21.5445C15.929 21.6311 17.7706 21.9787 19.5624 22.5874C19.996 22.7525 20.4 22.9686 20.7745 23.2358C20.9743 23.768 20.7957 24.0217 20.2389 23.9968C19.1225 23.4029 17.9386 23.0082 16.6872 22.8129C13.4704 22.3083 10.257 22.3271 7.04697 22.8693C5.89256 23.0662 4.80259 23.442 3.77718 23.9968C3.19944 24.0351 3.01152 23.7814 3.21342 23.2358C3.6236 22.9273 4.07461 22.6924 4.56644 22.5311C6.25196 21.9808 7.98083 21.6613 9.753 21.5727C9.81637 21.5586 9.87275 21.5304 9.92213 21.4881C10.067 20.7259 10.1233 19.9554 10.0913 19.1767C7.14089 19.1861 4.19052 19.1767 1.24027 19.1485C0.634448 19.069 0.23042 18.7401 0.0281893 18.1619C-0.00939642 13.37 -0.00939642 8.57807 0.0281893 3.78613C0.202046 3.30214 0.530903 2.98268 1.01476 2.82774ZM11.0496 19.1767C11.6886 19.1767 12.3275 19.1767 12.9664 19.1767C12.9396 19.9461 12.9584 20.7166 13.0228 21.4881C12.3275 21.4881 11.6322 21.4881 10.9369 21.4881C11.0278 20.7209 11.0654 19.9505 11.0496 19.1767Z" fill="url(#paint1_linear_1830_2908)"/>
<path opacity="0.931" fill-rule="evenodd" clip-rule="evenodd" d="M4.27003 12.2461C4.69053 12.319 4.85024 12.5634 4.74922 12.979C4.3162 13.4026 3.89338 13.8348 3.48077 14.2756C3.89338 14.7164 4.3162 15.1487 4.74922 15.5723C4.81056 16.1683 4.55687 16.3656 3.98815 16.1642C3.45258 15.6286 2.91701 15.0931 2.38144 14.5575C2.26869 14.3696 2.26869 14.1816 2.38144 13.9937C2.9358 13.4394 3.49016 12.885 4.04452 12.3307C4.13236 12.3188 4.2075 12.2906 4.27003 12.2461Z" fill="url(#paint2_linear_1830_2908)"/>
<path opacity="0.931" fill-rule="evenodd" clip-rule="evenodd" d="M9.64299 12.2461C9.7324 12.2826 9.82638 12.3108 9.92487 12.3307C10.4792 12.885 11.0336 13.4394 11.588 13.9937C11.7007 14.1816 11.7007 14.3696 11.588 14.5575C11.0524 15.0931 10.5168 15.6286 9.98125 16.1642C9.41253 16.3656 9.15884 16.1683 9.22017 15.5723C9.6532 15.1487 10.076 14.7164 10.4886 14.2756C10.076 13.8348 9.6532 13.4026 9.22017 12.979C9.11706 12.5858 9.258 12.3415 9.64299 12.2461Z" fill="url(#paint3_linear_1830_2908)"/>
<path opacity="0.93" fill-rule="evenodd" clip-rule="evenodd" d="M7.1554 12.3016C7.67163 12.2446 7.88772 12.4701 7.80372 12.9781C7.54941 14.0141 7.28636 15.0476 7.01446 16.0788C6.71246 16.3205 6.43058 16.3016 6.16883 16.0224C6.13122 15.872 6.13122 15.7217 6.16883 15.5714C6.4131 14.5942 6.65744 13.617 6.90171 12.6398C6.93548 12.4846 7.02004 12.3718 7.1554 12.3016Z" fill="url(#paint4_linear_1830_2908)"/>
<path opacity="0.93" fill-rule="evenodd" clip-rule="evenodd" d="M17.758 3C20.5051 3.14457 22.0085 4.58213 22.268 7.31274C22.1495 9.44155 21.0783 10.8321 19.0546 11.4845C16.768 11.8962 15.086 11.0788 14.009 9.0322C13.2472 6.76985 13.8392 4.95641 15.7848 3.59195C16.4109 3.26198 17.0686 3.06465 17.758 3ZM17.758 3.95839C17.1303 4.0332 16.5478 4.24929 16.0103 4.60671C14.7457 5.6531 14.3605 6.95915 14.8546 8.52482C15.7803 10.3684 17.2366 10.9979 19.2237 10.4134C21.0365 9.46534 21.6472 8.00898 21.056 6.04429C20.3902 4.67272 19.2909 3.97739 17.758 3.95839Z" fill="url(#paint5_linear_1830_2908)"/>
<defs>
<linearGradient id="paint0_linear_1830_2908" x1="10.4657" y1="-5.7033e-07" x2="28.0635" y2="7.59586" gradientUnits="userSpaceOnUse">
<stop offset="0.11" stop-color="#60D7AD"/>
<stop offset="0.76" stop-color="#213C3A"/>
</linearGradient>
<linearGradient id="paint1_linear_1830_2908" x1="-0.287725" y1="2.82422" x2="27.407" y2="16.39" gradientUnits="userSpaceOnUse">
<stop offset="0.11" stop-color="#60D7AD"/>
<stop offset="0.76" stop-color="#213C3A"/>
</linearGradient>
<linearGradient id="paint2_linear_1830_2908" x1="2.26715" y1="12.2461" x2="5.57695" y2="13.1342" gradientUnits="userSpaceOnUse">
<stop offset="0.11" stop-color="#60D7AD"/>
<stop offset="0.76" stop-color="#213C3A"/>
</linearGradient>
<linearGradient id="paint3_linear_1830_2908" x1="9.15773" y1="12.2461" x2="12.4714" y2="13.1364" gradientUnits="userSpaceOnUse">
<stop offset="0.11" stop-color="#60D7AD"/>
<stop offset="0.76" stop-color="#213C3A"/>
</linearGradient>
<linearGradient id="paint4_linear_1830_2908" x1="6.12049" y1="12.293" x2="8.44509" y2="12.7197" gradientUnits="userSpaceOnUse">
<stop offset="0.11" stop-color="#60D7AD"/>
<stop offset="0.76" stop-color="#213C3A"/>
</linearGradient>
<linearGradient id="paint5_linear_1830_2908" x1="13.5847" y1="3" x2="23.9268" y2="7.46249" gradientUnits="userSpaceOnUse">
<stop offset="0.11" stop-color="#60D7AD"/>
<stop offset="0.76" stop-color="#213C3A"/>
</linearGradient>
</defs>
</svg>
