<svg width="20" height="20" viewBox="0 0 20 20" fill="none" xmlns="http://www.w3.org/2000/svg">
<path opacity="0.935" fill-rule="evenodd" clip-rule="evenodd" d="M17.4924 11.7967C18.1736 11.7245 18.7583 11.9222 19.2466 12.3897C19.7427 13.1365 19.6521 13.8036 18.9749 14.3909C16.9069 16.0097 14.8481 17.6403 12.7981 19.2829C12.4419 19.5098 12.0548 19.6333 11.6369 19.6535C9.4184 19.1607 7.19478 18.683 4.96608 18.2205C4.72449 18.2351 4.50213 18.3092 4.29899 18.4429C4.00913 18.642 3.71265 18.8314 3.40954 19.0111C3.41864 19.4131 3.25394 19.7178 2.91541 19.9253C2.16042 20.0044 1.40275 20.0209 0.642379 19.9747C0.347454 19.9105 0.141562 19.7376 0.0247081 19.4558C-0.00823602 17.364 -0.00823602 15.2721 0.0247081 13.1803C0.112595 12.9771 0.252599 12.8207 0.444724 12.7109C0.853598 12.6564 1.26538 12.6317 1.68007 12.6367C2.09475 12.6317 2.50651 12.6564 2.91541 12.7109C3.22276 12.8713 3.40396 13.1266 3.45896 13.4768C4.17378 13.0501 4.88202 12.6136 5.58375 12.1673C5.86694 12.0349 6.16342 11.9855 6.47319 12.0191C6.77763 12.0711 7.07411 12.1535 7.36264 12.2661C9.10857 12.8921 10.8546 13.5179 12.6005 14.1439C12.7119 14.2119 12.8189 14.286 12.9217 14.3662C14.1364 13.6394 15.347 12.9065 16.5536 12.1673C16.8552 11.9985 17.1681 11.8749 17.4924 11.7967ZM17.4924 12.6862C17.857 12.6461 18.2029 12.7037 18.5301 12.8591C18.7131 13.0269 18.7707 13.2328 18.7031 13.4768C16.6568 15.0617 14.6391 16.6841 12.6499 18.344C12.3833 18.5721 12.0785 18.7286 11.7358 18.8135C9.48397 18.3104 7.22739 17.8327 4.96608 17.3805C4.3782 17.4438 3.85111 17.6579 3.38484 18.0228C3.35188 16.8205 3.35188 15.618 3.38484 14.4156C4.24548 13.8906 5.11022 13.3717 5.97906 12.8591C6.19317 12.7603 6.40732 12.7603 6.62143 12.8591C8.53962 13.5314 10.4503 14.2232 12.3534 14.9345C12.8286 15.3983 12.8122 15.8431 12.304 16.2687C12.0405 16.3675 11.7769 16.3675 11.5134 16.2687C10.4482 15.8431 9.37758 15.4314 8.3015 15.0333C7.81344 15.0115 7.65695 15.2339 7.83207 15.7004C9.00105 16.1889 10.1788 16.6584 11.3651 17.1087C12.4755 17.3897 13.192 16.9862 13.5146 15.898C13.5536 15.6367 13.5289 15.3815 13.4405 15.1321C13.4477 15.094 13.4641 15.061 13.4899 15.0333C14.8142 14.2234 16.1483 13.441 17.4924 12.6862ZM0.79062 13.4768C1.38358 13.4768 1.97655 13.4768 2.56951 13.4768C2.56951 15.371 2.56951 17.2652 2.56951 19.1594C1.97655 19.1594 1.38358 19.1594 0.79062 19.1594C0.79062 17.2652 0.79062 15.371 0.79062 13.4768Z" fill="url(#paint0_linear_1875_1180)"/>
<path opacity="0.924" fill-rule="evenodd" clip-rule="evenodd" d="M10.311 0.00263602C10.8442 -0.00439162 11.3773 0.00263602 11.9101 0.0236769C12.0255 0.0687042 12.1307 0.131827 12.2257 0.213044C12.3817 0.503997 12.543 0.791583 12.7096 1.07572C12.8828 1.12727 13.0511 1.19039 13.2146 1.26509C13.4544 1.19216 13.6928 1.11502 13.93 1.03364C14.3526 0.951157 14.5139 1.11246 14.4139 1.51758C14.3629 1.58276 14.2997 1.63183 14.2246 1.66486C13.9611 1.75736 13.6946 1.84152 13.425 1.91735C12.9919 1.9192 12.5851 1.80701 12.2047 1.5807C12.015 1.29985 11.8467 1.00527 11.6997 0.696984C11.3069 0.668915 10.9141 0.668915 10.5214 0.696984C10.3744 1.00527 10.206 1.29985 10.0164 1.5807C9.70286 1.75062 9.37324 1.86984 9.02749 1.93839C8.71054 1.8889 8.40195 1.80474 8.1017 1.6859C7.80894 1.9365 7.52838 2.20304 7.26006 2.48545C7.30316 2.74156 7.37326 2.99405 7.47047 3.24292C7.47232 3.67607 7.36014 4.08287 7.13382 4.46329C6.85297 4.65291 6.5584 4.82124 6.2501 4.96827C6.22204 5.36102 6.22204 5.75381 6.2501 6.14656C6.47827 6.27116 6.70972 6.39038 6.94445 6.50425C7.04966 6.55336 7.12679 6.6305 7.1759 6.7357C7.31233 7.02893 7.41753 7.33053 7.49151 7.64046C7.44203 7.95742 7.35786 8.266 7.23902 8.56626C7.48962 8.85902 7.75617 9.13958 8.03858 9.40789C8.29468 9.3648 8.54717 9.29469 8.79605 9.19748C9.25074 9.19979 9.67156 9.32604 10.0585 9.57622C10.2235 9.85 10.3778 10.1306 10.5214 10.4178C10.9141 10.4459 11.3069 10.4459 11.6997 10.4178C11.8243 10.1897 11.9435 9.95823 12.0574 9.7235C12.1065 9.6183 12.1836 9.54116 12.2888 9.49205C12.5866 9.34998 12.8951 9.24478 13.2146 9.17644C13.5237 9.2303 13.8253 9.31447 14.1194 9.42893C14.4121 9.17833 14.6927 8.91179 14.961 8.62938C14.9179 8.37327 14.8478 8.12078 14.7506 7.87191C14.7523 7.41806 14.8786 6.99724 15.1293 6.60946C15.4031 6.44446 15.6837 6.29018 15.971 6.14656C15.999 5.75381 15.999 5.36102 15.971 4.96827C15.6627 4.82124 15.3681 4.65291 15.0873 4.46329C14.8609 4.08287 14.7488 3.67607 14.7506 3.24292C14.8277 3.01148 14.9049 2.78003 14.9821 2.54858C14.8279 2.24656 14.9121 2.04318 15.2345 1.93839C15.6021 2.07693 15.7354 2.34347 15.6343 2.73794C15.5529 2.97512 15.4758 3.21355 15.4029 3.45333C15.4812 3.63214 15.5513 3.81452 15.6133 4.00039C15.9001 4.13678 16.1806 4.28407 16.4549 4.44225C16.5361 4.53727 16.5992 4.64248 16.6443 4.75786C16.6723 5.30493 16.6723 5.85199 16.6443 6.39905C16.6071 6.50855 16.544 6.59974 16.4549 6.67258C16.1951 6.82357 15.9285 6.96387 15.6554 7.0934C15.5702 7.25036 15.4931 7.41166 15.4239 7.57734C15.4956 7.91252 15.5728 8.24917 15.6554 8.5873C15.6609 8.76013 15.6118 8.91444 15.5081 9.05019C15.1617 9.42481 14.7899 9.76849 14.3929 10.0812C14.2386 10.1093 14.0843 10.1093 13.93 10.0812C13.6928 9.99981 13.4544 9.92267 13.2146 9.84975C13.0308 9.92272 12.8484 9.99989 12.6676 10.0812C12.5256 10.3581 12.3783 10.6316 12.2257 10.9018C12.1529 10.9909 12.0617 11.054 11.9522 11.0912C11.3911 11.1192 10.83 11.1192 10.2689 11.0912C10.1594 11.054 10.0682 10.9909 9.99537 10.9018C9.84438 10.6419 9.70408 10.3754 9.57456 10.1022C9.41759 10.0171 9.25629 9.93997 9.09062 9.87079C8.74929 9.94687 8.40565 10.024 8.05962 10.1022C7.88973 10.1189 7.74245 10.0698 7.61776 9.95495C7.24315 9.60853 6.89947 9.23678 6.58676 8.83979C6.55869 8.68547 6.55869 8.5312 6.58676 8.37689C6.66814 8.13972 6.74528 7.90128 6.81821 7.6615C6.74351 7.49801 6.68039 7.32969 6.62884 7.15652C6.3447 6.98988 6.05712 6.82858 5.76617 6.67258C5.67708 6.59974 5.61396 6.50855 5.5768 6.39905C5.53695 5.807 5.55096 5.21786 5.61888 4.63162C5.682 4.5124 5.77319 4.42121 5.89241 4.35809C6.15875 4.26349 6.40425 4.13022 6.62884 3.95831C6.66848 3.81132 6.72458 3.67106 6.79717 3.5375C6.72546 3.20232 6.64828 2.86566 6.56572 2.52754C6.5602 2.35471 6.60931 2.20039 6.713 2.06464C7.04389 1.71965 7.38757 1.39003 7.744 1.07572C7.92247 1.01441 8.10481 1.00035 8.29107 1.03364C8.52824 1.11502 8.76667 1.19216 9.00645 1.26509C9.16994 1.19039 9.33827 1.12727 9.51143 1.07572C9.67808 0.791583 9.83938 0.503997 9.99537 0.213044C10.0975 0.130901 10.2027 0.0607508 10.311 0.00263602Z" fill="url(#paint1_linear_1875_1180)"/>
<path opacity="0.915" fill-rule="evenodd" clip-rule="evenodd" d="M8.9993 3.91656C9.36571 3.89707 9.513 4.0654 9.44116 4.42154C9.06184 4.79387 8.69009 5.17261 8.326 5.55774C8.69009 5.94287 9.06184 6.32161 9.44116 6.69395C9.49452 7.11767 9.31921 7.26495 8.91514 7.1358C8.47328 6.69395 8.03143 6.25209 7.58957 5.81023C7.44931 5.6419 7.44931 5.47358 7.58957 5.30525C8.05508 4.83272 8.52496 4.36982 8.9993 3.91656Z" fill="url(#paint2_linear_1875_1180)"/>
<path opacity="0.919" fill-rule="evenodd" clip-rule="evenodd" d="M11.6165 3.91723C11.8967 3.88176 12.0651 4.00102 12.1215 4.27493C11.6576 5.2237 11.1877 6.17054 10.7117 7.11544C10.3992 7.28667 10.1958 7.20251 10.1016 6.86295C10.5635 5.85488 11.0685 4.87295 11.6165 3.91723Z" fill="url(#paint3_linear_1875_1180)"/>
<path opacity="0.914" fill-rule="evenodd" clip-rule="evenodd" d="M12.9559 3.9159C13.0987 3.89746 13.225 3.93252 13.3347 4.0211C13.7625 4.44894 14.1903 4.87675 14.6182 5.30459C14.7584 5.47292 14.7584 5.64124 14.6182 5.80957C14.1763 6.25143 13.7344 6.69329 13.2926 7.13514C12.8817 7.26972 12.7063 7.12244 12.7666 6.69329C13.1459 6.32095 13.5176 5.94221 13.8817 5.55708C13.5176 5.17195 13.1459 4.79322 12.7666 4.42088C12.6954 4.19494 12.7585 4.02661 12.9559 3.9159Z" fill="url(#paint4_linear_1875_1180)"/>
<defs>
<linearGradient id="paint0_linear_1875_1180" x1="-0.234327" y1="11.7822" x2="13.3635" y2="25.7602" gradientUnits="userSpaceOnUse">
<stop offset="0.11" stop-color="#60D7AD"/>
<stop offset="0.76" stop-color="#213C3A"/>
</linearGradient>
<linearGradient id="paint1_linear_1875_1180" x1="5.42159" y1="-4.33796e-07" x2="18.8101" y2="5.7812" gradientUnits="userSpaceOnUse">
<stop offset="0.11" stop-color="#60D7AD"/>
<stop offset="0.76" stop-color="#213C3A"/>
</linearGradient>
<linearGradient id="paint2_linear_1875_1180" x1="7.46072" y1="3.91504" x2="10.1035" y2="4.605" gradientUnits="userSpaceOnUse">
<stop offset="0.11" stop-color="#60D7AD"/>
<stop offset="0.76" stop-color="#213C3A"/>
</linearGradient>
<linearGradient id="paint3_linear_1875_1180" x1="10.0774" y1="3.91113" x2="12.7756" y2="4.62647" gradientUnits="userSpaceOnUse">
<stop offset="0.11" stop-color="#60D7AD"/>
<stop offset="0.76" stop-color="#213C3A"/>
</linearGradient>
<linearGradient id="paint4_linear_1875_1180" x1="12.7145" y1="3.91113" x2="15.3703" y2="4.60691" gradientUnits="userSpaceOnUse">
<stop offset="0.11" stop-color="#60D7AD"/>
<stop offset="0.76" stop-color="#213C3A"/>
</linearGradient>
</defs>
</svg>
