<svg width="25" height="22" viewBox="0 0 25 22" fill="none" xmlns="http://www.w3.org/2000/svg">
<path opacity="0.988" fill-rule="evenodd" clip-rule="evenodd" d="M1.73082 0.00318312C8.8255 -0.00530499 15.9201 0.00318312 23.0148 0.0286424C23.838 0.240805 24.3556 0.758473 24.5678 1.58166C24.6017 6.5038 24.6017 11.4259 24.5678 16.348C24.3556 17.1712 23.838 17.6889 23.0148 17.901C20.6725 17.918 18.3303 17.935 15.988 17.952C16.4111 18.7728 16.827 19.596 17.2355 20.4215C17.3873 21.179 17.1073 21.6967 16.3954 21.9745C13.7136 22.0085 11.032 22.0085 8.35023 21.9745C7.56985 21.6444 7.30681 21.0758 7.56099 20.2688C7.94033 19.4845 8.33923 18.7122 8.75758 17.952C6.41532 17.935 4.07307 17.918 1.73082 17.901C0.907635 17.6889 0.389966 17.1712 0.177804 16.348C0.143857 11.4259 0.143857 6.5038 0.177804 1.58166C0.399244 0.757724 0.916917 0.231563 1.73082 0.00318312ZM2.18909 0.817879C5.99102 0.817879 9.7929 0.817879 13.5948 0.817879C13.5948 5.43451 13.5948 10.0511 13.5948 14.6677C9.38555 14.6677 5.17632 14.6677 0.967041 14.6677C0.958553 10.4584 0.967041 6.24916 0.992501 2.03992C1.09495 1.33499 1.49382 0.927639 2.18909 0.817879ZM14.4095 0.817879C17.1252 0.809391 19.8409 0.817879 22.5565 0.843339C23.2609 0.936688 23.6597 1.33555 23.7531 2.03992C23.7785 6.24916 23.787 10.4584 23.7785 14.6677C20.6556 14.6677 17.5325 14.6677 14.4095 14.6677C14.4095 10.0511 14.4095 5.43451 14.4095 0.817879ZM0.967041 15.4824C8.57086 15.4824 16.1747 15.4824 23.7785 15.4824C23.856 16.3968 23.4487 16.9314 22.5565 17.0863C15.7674 17.1203 8.9782 17.1203 2.18909 17.0863C1.29691 16.9314 0.889564 16.3968 0.967041 15.4824ZM9.72503 17.9265C11.4905 17.9095 13.2557 17.9265 15.0206 17.9774C15.4834 18.8521 15.9331 19.7347 16.3699 20.6252C16.4466 20.9217 16.3363 21.1 16.0389 21.1598C13.5409 21.21 11.0459 21.193 8.5539 21.1089C8.41978 21.0282 8.3349 20.9093 8.29931 20.7525C8.78161 19.8133 9.25683 18.8713 9.72503 17.9265Z" fill="url(#paint0_linear_1829_2904)"/>
<path opacity="0.994" fill-rule="evenodd" clip-rule="evenodd" d="M2.93476 2.52537C5.85512 2.51761 8.77539 2.52537 11.6957 2.54867C11.9054 2.63411 12.053 2.78168 12.1384 2.99138C12.1695 4.42048 12.1695 5.84953 12.1384 7.27863C12.053 7.48834 11.9054 7.63592 11.6957 7.72134C8.77535 7.75242 5.85507 7.75242 2.93476 7.72134C2.72505 7.63592 2.57748 7.48834 2.49205 7.27863C2.46098 5.84953 2.46098 4.42048 2.49205 2.99138C2.58629 2.78075 2.73386 2.62541 2.93476 2.52537ZM3.21436 3.27098C3.21436 4.51368 3.21436 5.75633 3.21436 6.99903C5.94828 6.99903 8.68215 6.99903 11.4161 6.99903C11.4161 5.75633 11.4161 4.51368 11.4161 3.27098C8.68215 3.27098 5.94828 3.27098 3.21436 3.27098Z" fill="url(#paint1_linear_1829_2904)"/>
<path opacity="0.925" fill-rule="evenodd" clip-rule="evenodd" d="M17.167 5.39103C17.6488 5.34529 17.8023 5.54994 17.6275 6.00499C17.334 6.37885 17.049 6.75893 16.7724 7.1452C17.0805 7.54835 17.3802 7.95764 17.6714 8.37312C17.7275 8.87183 17.5228 9.01799 17.0574 8.81166C16.7066 8.34387 16.3557 7.87612 16.0049 7.40833C15.8786 7.22769 15.8786 7.05227 16.0049 6.88208C16.3877 6.37582 16.775 5.87883 17.167 5.39103Z" fill="url(#paint2_linear_1829_2904)"/>
<path opacity="0.934" fill-rule="evenodd" clip-rule="evenodd" d="M19.2809 5.38899C19.7317 5.32517 19.8998 5.5152 19.7852 5.95909C19.5582 6.88191 19.3242 7.80285 19.0835 8.7219C19.0616 8.80229 19.0104 8.85347 18.93 8.87539C18.4787 8.96104 18.3106 8.7783 18.4257 8.32721C18.6538 7.37089 18.9023 6.4207 19.1712 5.47669C19.2149 5.45188 19.2514 5.42264 19.2809 5.38899Z" fill="url(#paint3_linear_1829_2904)"/>
<path opacity="0.925" fill-rule="evenodd" clip-rule="evenodd" d="M20.6827 5.39225C20.8475 5.37343 21.0009 5.40266 21.1432 5.47996C21.5489 6.01691 21.9363 6.56508 22.3053 7.12449C22.2722 7.21987 22.2357 7.31486 22.1957 7.40954C21.8448 7.87733 21.494 8.34508 21.1432 8.81287C20.6777 9.01921 20.4731 8.87304 20.5292 8.37433C20.8204 7.95886 21.1201 7.54957 21.4282 7.14641C21.1201 6.74326 20.8204 6.33397 20.5292 5.9185C20.4675 5.70168 20.5186 5.52627 20.6827 5.39225Z" fill="url(#paint4_linear_1829_2904)"/>
<path opacity="0.989" fill-rule="evenodd" clip-rule="evenodd" d="M2.93476 8.49218C4.11541 8.48439 5.29596 8.49218 6.4764 8.51548C6.6861 8.6009 6.83369 8.74848 6.91911 8.95818C6.95019 10.1387 6.95019 11.3193 6.91911 12.4998C6.83369 12.7095 6.6861 12.8571 6.4764 12.9425C5.29587 12.9736 4.1153 12.9736 2.93476 12.9425C2.72505 12.8571 2.57748 12.7095 2.49205 12.4998C2.46098 11.3193 2.46098 10.1387 2.49205 8.95818C2.58629 8.74755 2.73386 8.59223 2.93476 8.49218ZM3.21436 9.23779C3.21436 10.2319 3.21436 11.2261 3.21436 12.2202C4.2085 12.2202 5.20267 12.2202 6.1968 12.2202C6.1968 11.2261 6.1968 10.2319 6.1968 9.23779C5.20267 9.23779 4.2085 9.23779 3.21436 9.23779Z" fill="url(#paint5_linear_1829_2904)"/>
<path opacity="0.989" fill-rule="evenodd" clip-rule="evenodd" d="M8.15742 8.49218C9.3381 8.48439 10.5186 8.49218 11.6991 8.51548C11.9088 8.6009 12.0564 8.74848 12.1418 8.95818C12.1729 10.1387 12.1729 11.3193 12.1418 12.4998C12.0564 12.7095 11.9088 12.8571 11.6991 12.9425C10.5185 12.9736 9.33796 12.9736 8.15742 12.9425C7.94772 12.8571 7.80014 12.7095 7.71472 12.4998C7.68364 11.3193 7.68364 10.1387 7.71472 8.95818C7.80894 8.74755 7.95653 8.59223 8.15742 8.49218ZM8.43703 9.23779C8.43703 10.2319 8.43703 11.2261 8.43703 12.2202C9.43116 12.2202 10.4253 12.2202 11.4195 12.2202C11.4195 11.2261 11.4195 10.2319 11.4195 9.23779C10.4253 9.23779 9.43116 9.23779 8.43703 9.23779Z" fill="url(#paint6_linear_1829_2904)"/>
<path opacity="0.989" fill-rule="evenodd" clip-rule="evenodd" d="M16.3145 11.0389C18.1857 11.0316 20.0568 11.0389 21.9279 11.0608C22.0601 11.1279 22.1186 11.2375 22.1033 11.3897C22.1186 11.5419 22.0601 11.6516 21.9279 11.7186C20.0567 11.7479 18.1856 11.7479 16.3145 11.7186C16.1823 11.6516 16.1238 11.5419 16.1391 11.3897C16.1295 11.2333 16.188 11.1164 16.3145 11.0389Z" fill="url(#paint7_linear_1829_2904)"/>
<defs>
<linearGradient id="paint0_linear_1829_2904" x1="-0.140438" y1="-8.58831e-07" x2="28.2643" y2="13.628" gradientUnits="userSpaceOnUse">
<stop offset="0.11" stop-color="#60D7AD"/>
<stop offset="0.76" stop-color="#213C3A"/>
</linearGradient>
<linearGradient id="paint1_linear_1829_2904" x1="2.35264" y1="2.52246" x2="10.7896" y2="9.28537" gradientUnits="userSpaceOnUse">
<stop offset="0.11" stop-color="#60D7AD"/>
<stop offset="0.76" stop-color="#213C3A"/>
</linearGradient>
<linearGradient id="paint2_linear_1829_2904" x1="15.8887" y1="5.38477" x2="18.3265" y2="5.91965" gradientUnits="userSpaceOnUse">
<stop offset="0.11" stop-color="#60D7AD"/>
<stop offset="0.76" stop-color="#213C3A"/>
</linearGradient>
<linearGradient id="paint3_linear_1829_2904" x1="18.3735" y1="5.37695" x2="20.3561" y2="5.72476" gradientUnits="userSpaceOnUse">
<stop offset="0.11" stop-color="#60D7AD"/>
<stop offset="0.76" stop-color="#213C3A"/>
</linearGradient>
<linearGradient id="paint4_linear_1829_2904" x1="20.4823" y1="5.38672" x2="22.9376" y2="5.92987" gradientUnits="userSpaceOnUse">
<stop offset="0.11" stop-color="#60D7AD"/>
<stop offset="0.76" stop-color="#213C3A"/>
</linearGradient>
<linearGradient id="paint5_linear_1829_2904" x1="2.41516" y1="8.48926" x2="7.80687" y2="10.8162" gradientUnits="userSpaceOnUse">
<stop offset="0.11" stop-color="#60D7AD"/>
<stop offset="0.76" stop-color="#213C3A"/>
</linearGradient>
<linearGradient id="paint6_linear_1829_2904" x1="7.63782" y1="8.48926" x2="13.0295" y2="10.8162" gradientUnits="userSpaceOnUse">
<stop offset="0.11" stop-color="#60D7AD"/>
<stop offset="0.76" stop-color="#213C3A"/>
</linearGradient>
<linearGradient id="paint7_linear_1829_2904" x1="16.0652" y1="11.0361" x2="16.6582" y2="13.2061" gradientUnits="userSpaceOnUse">
<stop offset="0.11" stop-color="#60D7AD"/>
<stop offset="0.76" stop-color="#213C3A"/>
</linearGradient>
</defs>
</svg>
