<svg width="20" height="19" viewBox="0 0 20 19" fill="none" xmlns="http://www.w3.org/2000/svg">
<path opacity="0.943" fill-rule="evenodd" clip-rule="evenodd" d="M19.6935 16.7273C19.6935 16.8555 19.6935 16.9838 19.6935 17.112C19.3654 17.491 19.032 17.8693 18.6935 18.2467C18.2321 18.3751 18.0333 18.202 18.0973 17.7274C18.2062 17.5928 18.3153 17.4582 18.4242 17.3235C13.0649 17.3043 7.70563 17.2979 2.3463 17.3043C2.3527 17.7532 2.3463 18.202 2.32707 18.6505C2.22413 18.9808 2.01258 19.077 1.69241 18.939C1.63284 18.8923 1.58796 18.8346 1.55779 18.7659C1.53856 18.2789 1.53215 17.7917 1.53856 17.3043C1.10245 17.3107 0.666518 17.3043 0.230784 17.2851C0.147703 17.2338 0.0707752 17.1761 0 17.112C0 16.9838 0 16.8555 0 16.7273C0.0757882 16.5994 0.19118 16.5288 0.346175 16.5158C0.743431 16.4966 1.14089 16.4902 1.53856 16.4966C1.54497 11.4193 1.53856 6.34209 1.51933 1.26485C1.35464 1.44931 1.15591 1.57752 0.923134 1.64949C0.550053 1.57007 0.441074 1.3521 0.596191 0.995601C0.961598 0.681478 1.32701 0.367358 1.69241 0.0532351C1.9005 -0.0377497 2.09282 -0.012107 2.26937 0.130163C2.62057 0.417177 2.96033 0.718476 3.28867 1.03407C3.39656 1.45168 3.23629 1.65042 2.80787 1.63026C2.64959 1.53611 2.50215 1.42713 2.36553 1.30331C2.3463 2.23918 2.33989 3.17514 2.3463 4.11118C3.42337 4.10476 5.69274 4.11118 6.76965 4.13041C6.93512 4.20484 7.01205 4.33304 7.00043 4.51505C7.01517 4.71633 6.92543 4.84453 6.73119 4.89969C5.66708 4.91892 3.41055 4.92534 2.3463 4.91892C2.3463 6.41901 2.3463 7.91911 2.3463 9.4192C3.98748 9.42562 5.62862 9.4192 7.26968 9.39997C8.75697 7.91268 10.2442 6.42544 11.7315 4.93815C10.7314 4.92535 8.8467 4.9125 7.84664 4.89969C7.56447 4.8163 7.46831 4.6304 7.55816 4.34196C7.58836 4.27327 7.6332 4.21557 7.69278 4.16887C9.02294 4.1181 11.241 4.09245 12.5777 4.09195C13.136 3.54011 13.6873 2.98237 14.2317 2.41877C13.9117 2.07955 13.5847 1.74619 13.2508 1.4187C13.1535 1.17252 13.2112 0.973788 13.4239 0.822514C14.1523 0.778345 14.8831 0.759114 15.6164 0.764818C16.3087 0.77123 17.0011 0.777638 17.6934 0.78405C17.8625 0.812117 17.9715 0.908277 18.0203 1.07253C18.046 2.49569 18.046 3.91886 18.0203 5.34202C17.9012 5.59712 17.7025 5.68047 17.4242 5.59204C17.0972 5.2651 16.7703 4.93815 16.4433 4.61121C15.8792 5.17536 15.3151 5.73947 14.7509 6.30362C14.7317 9.70126 14.7253 13.0989 14.7317 16.4966C15.95 16.5094 17.168 16.4966 18.3858 16.4581C18.2169 16.3061 18.1143 16.1202 18.078 15.9004C18.0793 15.649 18.2075 15.5144 18.4627 15.4965C18.5566 15.5171 18.6463 15.5492 18.7319 15.5927C19.0577 15.9701 19.3782 16.3483 19.6935 16.7273ZM14.5778 1.61102C15.4558 1.57266 16.3405 1.55984 17.2318 1.57256C17.2383 2.45732 17.2318 3.34199 17.2126 4.22657C17.0255 4.02656 16.8267 3.84066 16.6164 3.66884C16.438 3.60103 16.2713 3.62669 16.1164 3.74577C11.8725 7.98961 7.62867 12.2335 3.38483 16.4773C3.03889 16.4966 2.69271 16.5029 2.3463 16.4966C2.3399 16.163 2.34631 15.8296 2.36553 15.4965C6.60937 11.2527 10.8533 7.00878 15.0971 2.76494C15.2587 2.56963 15.2715 2.36449 15.1356 2.14952C14.9547 1.9622 14.7688 1.7827 14.5778 1.61102ZM13.8855 7.14983C13.9239 10.2589 13.9367 13.3745 13.9239 16.4966C12.4238 16.4966 10.9238 16.4966 9.42366 16.4966C9.41724 14.8682 9.42366 13.2399 9.44289 11.6116C10.9315 10.1294 12.4123 8.64219 13.8855 7.14983ZM2.3463 10.2269C3.70542 10.2205 5.06447 10.2269 6.42348 10.2462C5.07081 11.5988 3.71818 12.9515 2.36553 14.3041C2.3463 12.9451 2.33989 11.5861 2.3463 10.2269ZM8.57746 12.4579C8.61584 13.7975 8.62869 15.1437 8.61592 16.4966C7.2696 16.503 5.92337 16.4966 4.57721 16.4773C5.91837 15.1426 7.2518 13.8027 8.57746 12.4579Z" fill="url(#paint0_linear_2011_1148)"/>
<defs>
<linearGradient id="paint0_linear_2011_1148" x1="-0.235912" y1="-7.41718e-07" x2="23.22" y2="10.4995" gradientUnits="userSpaceOnUse">
<stop offset="0.11" stop-color="#60D7AD"/>
<stop offset="0.76" stop-color="#213C3A"/>
</linearGradient>
</defs>
</svg>
