<svg width="23" height="22" viewBox="0 0 23 22" fill="none" xmlns="http://www.w3.org/2000/svg">
<path opacity="0.948" fill-rule="evenodd" clip-rule="evenodd" d="M1.51953 0C8.10806 0 14.6966 0 21.2852 0C21.8438 0.186198 22.2162 0.558594 22.4023 1.11719C22.4023 7.70571 22.4023 14.2943 22.4023 20.8828C22.2162 21.4414 21.8438 21.8138 21.2852 22C14.6966 22 8.10806 22 1.51953 22C0.960938 21.8138 0.588542 21.4414 0.402344 20.8828C0.402344 14.2943 0.402344 7.70571 0.402344 1.11719C0.588542 0.558594 0.960938 0.186198 1.51953 0ZM1.64844 0.773438C8.15107 0.766275 14.6537 0.773438 21.1562 0.794922C21.3639 0.888022 21.5143 1.03841 21.6074 1.24609C21.6289 1.8045 21.6361 2.3631 21.6289 2.92188C14.8112 2.92188 7.9935 2.92188 1.17578 2.92188C1.16862 2.3631 1.17579 1.8045 1.19727 1.24609C1.29853 1.0375 1.44892 0.879948 1.64844 0.773438ZM1.17578 3.69531C7.9935 3.69531 14.8112 3.69531 21.6289 3.69531C21.6361 9.38154 21.6289 15.0677 21.6074 20.7539C21.5143 20.9616 21.3639 21.112 21.1562 21.2051C14.6537 21.2337 8.15103 21.2337 1.64844 21.2051C1.44076 21.112 1.29037 20.9616 1.19727 20.7539C1.17578 15.0677 1.16862 9.38154 1.17578 3.69531Z" fill="url(#paint0_linear_1829_2899)"/>
<path opacity="0.91" fill-rule="evenodd" clip-rule="evenodd" d="M2.07777 1.46201C2.34078 1.44439 2.59859 1.46587 2.85121 1.52646C2.9723 1.66989 3.00811 1.8346 2.95863 2.0206C2.88828 2.11987 2.79518 2.18432 2.67934 2.21396C2.46066 2.24944 2.24581 2.23512 2.0348 2.17099C1.85055 2.00895 1.81474 1.81559 1.92738 1.59092C1.97659 1.54209 2.02671 1.49912 2.07777 1.46201Z" fill="url(#paint1_linear_1829_2899)"/>
<path opacity="0.91" fill-rule="evenodd" clip-rule="evenodd" d="M3.81996 1.46006C4.08296 1.44244 4.34078 1.46392 4.5934 1.52451C4.71449 1.66794 4.7503 1.83265 4.70082 2.01865C4.63046 2.11792 4.53737 2.18237 4.42152 2.21201C4.20284 2.24749 3.988 2.23317 3.77699 2.16904C3.59274 2.007 3.55693 1.81364 3.66957 1.58896C3.71877 1.54013 3.7689 1.49716 3.81996 1.46006Z" fill="url(#paint2_linear_1829_2899)"/>
<path opacity="0.933" fill-rule="evenodd" clip-rule="evenodd" d="M18.1894 1.46069C19.0346 1.45353 19.8796 1.46069 20.7246 1.48218C20.9246 1.60664 20.989 1.78568 20.9179 2.01929C20.8476 2.11855 20.7545 2.18301 20.6386 2.21265C19.8509 2.24129 19.0631 2.24129 18.2753 2.21265C17.969 2.06673 17.9046 1.84473 18.082 1.54663C18.1247 1.52231 18.1605 1.49367 18.1894 1.46069Z" fill="url(#paint3_linear_1829_2899)"/>
<path opacity="0.918" fill-rule="evenodd" clip-rule="evenodd" d="M8.19445 15.2227C8.56573 15.2506 8.68432 15.4378 8.55019 15.7844C7.8824 16.4521 7.21458 17.12 6.54679 17.7878C6.09796 17.9255 5.92945 17.7694 6.04126 17.3197C6.74459 16.5975 7.46229 15.8985 8.19445 15.2227Z" fill="url(#paint4_linear_1829_2899)"/>
<path opacity="0.934" fill-rule="evenodd" clip-rule="evenodd" d="M7.0493 5.05976C8.2932 5.01037 9.1732 5.54713 9.68928 6.66997C9.87229 7.19295 9.90348 7.72346 9.7829 8.26145C10.5136 8.99844 11.2501 9.72865 11.9923 10.4521C13.1776 9.2855 14.3571 8.11219 15.531 6.93209C15.6013 6.68794 15.6887 6.45079 15.7931 6.22061C16.3131 5.80765 16.8561 5.42693 17.422 5.07849C17.5878 5.04887 17.75 5.06137 17.9088 5.11593C18.1905 5.36023 18.4589 5.61611 18.7139 5.88359C18.8234 6.10172 18.8359 6.3264 18.7514 6.55763C18.4176 7.0129 18.0931 7.47477 17.7778 7.94315C17.7076 8.02587 17.6265 8.09451 17.5344 8.14911C17.3347 8.21153 17.1349 8.27392 16.9352 8.33634C15.7551 9.51018 14.5818 10.6898 13.4152 11.8751C14.1324 12.611 14.8564 13.3412 15.5871 14.0657C16.8973 13.8377 17.8896 14.2933 18.5641 15.4325C18.8157 15.9405 18.8656 16.4647 18.7139 17.0052C18.4501 17.317 18.1318 17.3857 17.759 17.2112C17.4345 16.8867 17.11 16.5621 16.7854 16.2376C16.6356 16.1128 16.4859 16.1128 16.3361 16.2376C16.1538 16.4073 15.9853 16.5883 15.8305 16.7806C15.8023 16.8855 15.8147 16.9854 15.868 17.0801C16.245 17.4321 16.5944 17.8065 16.9165 18.2035C17.0602 18.6462 16.9167 18.9521 16.4859 19.121C15.0575 19.1776 14.14 18.5223 13.7335 17.155C13.6616 16.7402 13.6616 16.3283 13.7335 15.9193C13.1843 15.3701 12.6351 14.8209 12.0859 14.2716C11.9372 14.4579 11.7562 14.6015 11.5429 14.7023C11.3015 14.7405 11.0706 14.7093 10.8501 14.6087C10.5695 14.6768 10.4571 14.8516 10.5131 15.1329C10.6311 15.4058 10.6061 15.6679 10.4382 15.9193C9.44371 16.9388 8.42643 17.9312 7.38632 18.8963C6.54167 19.3178 5.7865 19.1992 5.12079 18.5406C4.62665 17.8208 4.60169 17.0843 5.0459 16.3312C5.99974 15.3399 6.9671 14.3601 7.94802 13.3916C8.24246 13.2247 8.54203 13.2185 8.84674 13.3729C9.20948 13.2461 9.3031 13.009 9.12759 12.6614C9.0889 12.4594 9.12635 12.2722 9.23993 12.0997C9.35286 11.993 9.45899 11.8807 9.55822 11.7627C9.02824 11.214 8.49152 10.671 7.94802 10.1338C6.4946 10.3839 5.46482 9.84091 4.85867 8.50485C4.70815 8.06935 4.69567 7.63246 4.82122 7.19422C5.10665 6.87068 5.43743 6.81451 5.81356 7.02571C6.1517 7.37636 6.50119 7.71338 6.86206 8.03677C6.96703 8.06504 7.0669 8.05257 7.16164 7.99932C7.33015 7.83081 7.49866 7.6623 7.66717 7.49379C7.7488 7.34723 7.73629 7.20991 7.62972 7.08188C7.35396 6.79362 7.0669 6.51902 6.76845 6.25806C6.4206 5.75174 6.51422 5.35233 7.0493 5.05976ZM7.31142 5.77125C7.57119 6.04978 7.83953 6.32437 8.11653 6.59508C8.42797 6.97415 8.47789 7.38606 8.26631 7.83081C8.06155 8.07306 7.84313 8.30399 7.611 8.52358C7.18661 8.79817 6.76219 8.79817 6.33781 8.52358C6.03198 8.21775 5.72618 7.91196 5.42037 7.60613C5.40959 8.04812 5.53441 8.44756 5.79483 8.80443C6.41319 9.47708 7.16212 9.67682 8.04163 9.40357C8.11529 9.40515 8.18397 9.42387 8.24759 9.45974C10.3009 11.5131 12.3543 13.5664 14.4076 15.6197C14.4444 15.6896 14.4632 15.7645 14.4637 15.8444C14.3643 16.1875 14.333 16.537 14.3701 16.8929C14.6037 17.8759 15.2216 18.3939 16.2237 18.4469C15.944 18.1298 15.6507 17.8239 15.3437 17.5295C15.1576 17.2704 15.0952 16.9833 15.1565 16.6682C15.3394 16.2478 15.6203 15.9046 15.999 15.6384C16.4269 15.3979 16.8388 15.4228 17.2348 15.7133C17.5168 16.0079 17.8101 16.2887 18.1148 16.5559C18.0177 15.4103 17.3936 14.7862 16.2425 14.6836C15.9362 14.725 15.6303 14.7562 15.325 14.7772C13.2467 12.6989 11.1684 10.6206 9.09014 8.5423C9.0664 8.33732 9.09134 8.13761 9.16503 7.94315C9.19001 7.73094 9.19001 7.51877 9.16503 7.30656C8.91833 6.32748 8.30046 5.8157 7.31142 5.77125ZM17.5718 5.77125C17.1615 6.06869 16.7496 6.36826 16.3361 6.66997C16.2735 6.90139 16.1923 7.12607 16.0927 7.34401C14.8881 8.54855 13.6836 9.75306 12.4791 10.9576C12.6226 11.1011 12.7662 11.2447 12.9097 11.3882C14.1142 10.1837 15.3188 8.97919 16.5233 7.77464C16.7701 7.68357 17.0135 7.58996 17.2535 7.49379C17.5349 7.08772 17.8158 6.68206 18.0961 6.27678C17.9506 6.07513 17.7759 5.90662 17.5718 5.77125ZM10.045 12.2495C9.96534 12.348 9.87798 12.4416 9.7829 12.5304C9.95014 12.9128 9.91895 13.281 9.68928 13.635C9.31145 14.0226 8.8683 14.1287 8.35993 13.9533C7.45496 14.8583 6.55002 15.7633 5.64505 16.6682C5.33828 17.1219 5.32579 17.5838 5.6076 18.0538C6.07868 18.5334 6.59668 18.5895 7.16164 18.2223C8.08013 17.3162 8.9851 16.3988 9.87652 15.4699C9.80589 15.1858 9.80589 14.8986 9.87652 14.6087C10.197 14.0129 10.6776 13.8257 11.3182 14.047C11.4397 13.9703 11.5208 13.8704 11.5616 13.7474C11.061 13.2405 10.5555 12.7412 10.045 12.2495Z" fill="url(#paint5_linear_1829_2899)"/>
<defs>
<linearGradient id="paint0_linear_1829_2899" x1="0.138802" y1="-8.58831e-07" x2="26.648" y2="11.4484" gradientUnits="userSpaceOnUse">
<stop offset="0.11" stop-color="#60D7AD"/>
<stop offset="0.76" stop-color="#213C3A"/>
</linearGradient>
<linearGradient id="paint1_linear_1829_2899" x1="1.8499" y1="1.45605" x2="3.00242" y2="2.17163" gradientUnits="userSpaceOnUse">
<stop offset="0.11" stop-color="#60D7AD"/>
<stop offset="0.76" stop-color="#213C3A"/>
</linearGradient>
<linearGradient id="paint2_linear_1829_2899" x1="3.59209" y1="1.4541" x2="4.74461" y2="2.16967" gradientUnits="userSpaceOnUse">
<stop offset="0.11" stop-color="#60D7AD"/>
<stop offset="0.76" stop-color="#213C3A"/>
</linearGradient>
<linearGradient id="paint3_linear_1829_2899" x1="17.9489" y1="1.45801" x2="19.0884" y2="3.33587" gradientUnits="userSpaceOnUse">
<stop offset="0.11" stop-color="#60D7AD"/>
<stop offset="0.76" stop-color="#213C3A"/>
</linearGradient>
<linearGradient id="paint4_linear_1829_2899" x1="5.97672" y1="15.2227" x2="9.1112" y2="16.5671" gradientUnits="userSpaceOnUse">
<stop offset="0.11" stop-color="#60D7AD"/>
<stop offset="0.76" stop-color="#213C3A"/>
</linearGradient>
<linearGradient id="paint5_linear_1829_2899" x1="4.56185" y1="5.05664" x2="21.5269" y2="12.3779" gradientUnits="userSpaceOnUse">
<stop offset="0.11" stop-color="#60D7AD"/>
<stop offset="0.76" stop-color="#213C3A"/>
</linearGradient>
</defs>
</svg>
