<svg width="22" height="22" viewBox="0 0 22 22" fill="none" xmlns="http://www.w3.org/2000/svg">
<path opacity="0.908" fill-rule="evenodd" clip-rule="evenodd" d="M10.2229 15.5115C10.7388 15.5043 11.2544 15.5115 11.7698 15.533C11.9572 15.6286 12.0216 15.779 11.9632 15.9841C11.9274 16.0773 11.8629 16.1417 11.7698 16.1775C11.2542 16.2062 10.7385 16.2062 10.2229 16.1775C10.0066 16.048 9.95643 15.869 10.0725 15.6404C10.1217 15.5916 10.1719 15.5486 10.2229 15.5115Z" fill="url(#paint0_linear_1830_2928)"/>
<path fill-rule="evenodd" clip-rule="evenodd" d="M20.8398 0H1.16016C0.568464 0.204946 0.181747 0.605988 0 1.20312V16.6719C0.18769 17.3249 0.617375 17.7188 1.28906 17.8535C3.63798 17.875 5.98692 17.8822 8.33594 17.875V21.3555C7.87738 21.3483 7.41903 21.3555 6.96094 21.377C6.92158 21.393 6.88574 21.4145 6.85352 21.4414C6.74468 21.6627 6.78047 21.8488 6.96094 22H15.0391C15.1567 21.9298 15.2139 21.8224 15.2109 21.6777C15.2195 21.5371 15.1622 21.4368 15.0391 21.377C14.581 21.3555 14.1226 21.3483 13.6641 21.3555C13.6711 20.9606 13.6643 20.566 13.6436 20.1716V19.8828C13.6666 19.6647 13.6755 19.3274 13.6641 18.8203C13.6604 18.6584 13.6622 18.5002 13.664 18.3428C13.6658 18.187 13.6676 18.0319 13.6641 17.875C16.0131 17.8822 18.362 17.875 20.7109 17.8535C21.3826 17.7188 21.8123 17.3249 22 16.6719V1.20312C21.8182 0.605988 21.4315 0.204946 20.8398 0ZM12.9761 17.8965C12.9763 17.8893 12.9764 17.8822 12.9766 17.875H9.02344V21.3555H12.9561V17.8965H12.9761ZM20.4531 0.666016C14.1511 0.644531 7.84897 0.637368 1.54688 0.644531C1.14109 0.687139 0.861794 0.901983 0.708984 1.28906C0.6875 5.47134 0.680337 9.65362 0.6875 13.8359H21.3125C21.3197 9.65362 21.3125 5.47134 21.291 1.28906C21.1462 0.900797 20.8669 0.693112 20.4531 0.666016ZM21.3125 14.5234H0.6875C0.680341 15.1968 0.687504 15.8699 0.708984 16.543C0.806004 16.8819 1.02801 17.0896 1.375 17.166C7.79165 17.1947 14.2083 17.1947 20.625 17.166C20.972 17.0896 21.194 16.8819 21.291 16.543C21.3125 15.8699 21.3197 15.1968 21.3125 14.5234Z" fill="url(#paint1_linear_1830_2928)"/>
<path opacity="0.915" fill-rule="evenodd" clip-rule="evenodd" d="M7.93677 5.28449C8.48362 5.25541 8.70344 5.50663 8.59623 6.03816C8.0301 6.59386 7.47527 7.15911 6.93188 7.73391C7.47527 8.30871 8.0301 8.87396 8.59623 9.42967C8.67587 10.0621 8.41422 10.2819 7.81116 10.0891C7.1517 9.42967 6.49224 8.77021 5.83278 8.11075C5.62345 7.85952 5.62345 7.6083 5.83278 7.35708C6.52754 6.65183 7.22883 5.96097 7.93677 5.28449Z" fill="url(#paint2_linear_1830_2928)"/>
<path opacity="0.919" fill-rule="evenodd" clip-rule="evenodd" d="M11.8313 5.28352C12.2495 5.23057 12.5008 5.40856 12.585 5.81737C11.8927 7.23338 11.1913 8.64651 10.481 10.0568C10.0145 10.3123 9.71093 10.1867 9.57031 9.67992C10.2597 8.17541 11.0134 6.7099 11.8313 5.28352Z" fill="url(#paint3_linear_1830_2928)"/>
<path opacity="0.914" fill-rule="evenodd" clip-rule="evenodd" d="M13.8483 5.28348C14.0614 5.25597 14.2498 5.30829 14.4135 5.44049C15.0521 6.07904 15.6906 6.71752 16.3291 7.35606C16.5384 7.60729 16.5384 7.85851 16.3291 8.10973C15.6696 8.76919 15.0102 9.42865 14.3507 10.0881C13.7374 10.289 13.4757 10.0691 13.5656 9.42865C14.1318 8.87295 14.6866 8.3077 15.23 7.7329C14.6866 7.1581 14.1318 6.59285 13.5656 6.03715C13.4594 5.69994 13.5537 5.44872 13.8483 5.28348Z" fill="url(#paint4_linear_1830_2928)"/>
<defs>
<linearGradient id="paint0_linear_1830_2928" x1="9.98809" y1="15.5088" x2="11.1057" y2="16.8881" gradientUnits="userSpaceOnUse">
<stop offset="0.11" stop-color="#60D7AD"/>
<stop offset="0.76" stop-color="#213C3A"/>
</linearGradient>
<linearGradient id="paint1_linear_1830_2928" x1="-0.263541" y1="-8.58831e-07" x2="26.2457" y2="11.4484" gradientUnits="userSpaceOnUse">
<stop offset="0.11" stop-color="#60D7AD"/>
<stop offset="0.76" stop-color="#213C3A"/>
</linearGradient>
<linearGradient id="paint2_linear_1830_2928" x1="5.64048" y1="5.28223" x2="9.58468" y2="6.31198" gradientUnits="userSpaceOnUse">
<stop offset="0.11" stop-color="#60D7AD"/>
<stop offset="0.76" stop-color="#213C3A"/>
</linearGradient>
<linearGradient id="paint3_linear_1830_2928" x1="9.5342" y1="5.27441" x2="13.5612" y2="6.34203" gradientUnits="userSpaceOnUse">
<stop offset="0.11" stop-color="#60D7AD"/>
<stop offset="0.76" stop-color="#213C3A"/>
</linearGradient>
<linearGradient id="paint4_linear_1830_2928" x1="13.4879" y1="5.27637" x2="17.4516" y2="6.3148" gradientUnits="userSpaceOnUse">
<stop offset="0.11" stop-color="#60D7AD"/>
<stop offset="0.76" stop-color="#213C3A"/>
</linearGradient>
</defs>
</svg>
