<svg width="19" height="19" viewBox="0 0 19 19" fill="none" xmlns="http://www.w3.org/2000/svg">
<path opacity="0.944" fill-rule="evenodd" clip-rule="evenodd" d="M12.5985 0.0226012C13.31 -0.085866 13.7774 0.196082 14.0008 0.868436C14.093 1.45572 13.8778 1.88606 13.3553 2.15945C13.331 3.08136 13.2939 4.00141 13.244 4.91954C13.192 4.97149 13.1401 5.0234 13.0882 5.07535C12.0198 5.09761 10.9514 5.10504 9.88291 5.09761C9.88291 5.64665 9.88291 6.19572 9.88291 6.74476C11.5598 6.7522 13.2366 6.74476 14.9134 6.7225C15.5441 6.09182 16.1747 5.46118 16.8054 4.8305C16.6035 4.15976 16.8038 3.6478 17.4064 3.29465C18.5866 3.10968 19.0837 3.60676 18.8977 4.78599C18.7643 5.12717 18.5194 5.34232 18.1632 5.43149C17.889 5.46394 17.6219 5.44912 17.3619 5.38697C16.6632 6.10055 15.9509 6.798 15.225 7.4793C13.4444 7.50156 11.6637 7.50899 9.88291 7.50156C9.88291 8.03577 9.88291 8.56998 9.88291 9.10419C12.198 9.11902 14.5129 9.10419 16.8277 9.05968C17.105 8.50913 17.5502 8.29397 18.1632 8.41417C18.8091 8.65929 19.0688 9.12672 18.9422 9.81648C18.6971 10.4624 18.2297 10.7221 17.5399 10.5955C17.1903 10.4759 16.9529 10.2458 16.8277 9.90551C14.5127 9.90551 12.1978 9.90551 9.88291 9.90551C9.88291 10.4397 9.88291 10.9739 9.88291 11.5081C11.6488 11.5007 13.4147 11.5081 15.1805 11.5304C15.2399 11.5601 15.2992 11.5897 15.3586 11.6194C16.0263 12.2872 16.6941 12.955 17.3619 13.6227C17.9796 13.4492 18.4768 13.6199 18.8532 14.1347C19.1615 14.9647 18.9018 15.5212 18.0742 15.8041C17.2741 15.8719 16.8289 15.5083 16.7386 14.7134C16.748 14.5296 16.7702 14.3516 16.8054 14.1792C16.1747 13.5485 15.5441 12.9179 14.9134 12.2872C13.2366 12.2649 11.5598 12.2575 9.88291 12.2649C9.88291 12.814 9.88291 13.3631 9.88291 13.9121C10.9366 13.9047 11.9902 13.9121 13.0437 13.9344C13.1232 13.9693 13.1899 14.0212 13.244 14.0902C13.2939 15.0083 13.331 15.9283 13.3553 16.8503C13.9476 17.1748 14.1479 17.6645 13.9563 18.3193C13.564 18.999 13.0075 19.1697 12.2869 18.8313C11.8595 18.5142 11.7037 18.0913 11.8194 17.5625C11.9391 17.2129 12.1691 16.9755 12.5095 16.8503C12.5095 16.1232 12.5095 15.396 12.5095 14.6689C11.6339 14.6689 10.7584 14.6689 9.88291 14.6689C9.89035 15.6484 9.88291 16.6278 9.86065 17.6071C9.8087 17.7184 9.7271 17.8 9.61581 17.8519C8.76997 17.8816 7.92414 17.8816 7.0783 17.8519C6.96972 17.8174 6.88808 17.7507 6.83346 17.6516C6.82602 16.8202 6.80376 15.9892 6.76668 15.1586C6.31629 15.0113 5.87855 14.8332 5.45341 14.6244C4.88394 15.1493 4.32747 15.6909 3.784 16.2493C3.62676 16.3616 3.46356 16.3765 3.2943 16.2938C2.72301 15.7225 2.15168 15.1512 1.58038 14.5799C1.49134 14.4166 1.49134 14.2534 1.58038 14.0902C2.1449 13.5331 2.70137 12.9692 3.24979 12.3985C3.00365 11.9802 2.81814 11.535 2.69332 11.063C1.8245 11.0399 0.956404 11.0028 0.0890364 10.9517C0.0611772 10.9183 0.0389184 10.8812 0.0222599 10.8404C-0.00741997 9.95003 -0.00741997 9.05968 0.0222599 8.16932C0.0389184 8.12855 0.0611772 8.09142 0.0890364 8.05803C0.956404 8.00688 1.8245 7.9698 2.69332 7.94674C2.81814 7.47467 3.00365 7.0295 3.24979 6.61121C2.70137 6.04054 2.1449 5.47663 1.58038 4.91954C1.49134 4.75629 1.49134 4.59309 1.58038 4.42984C2.15168 3.85855 2.72301 3.28721 3.2943 2.71592C3.46641 2.62154 3.62966 2.63641 3.784 2.76043C4.32747 3.31877 4.88394 3.86042 5.45341 4.38533C5.87855 4.1765 6.31629 3.99842 6.76668 3.85112C6.80376 3.02051 6.82602 2.18952 6.83346 1.35813C6.88808 1.25903 6.96972 1.19225 7.0783 1.1578C7.92414 1.12812 8.76997 1.12812 9.61581 1.1578C9.7271 1.20974 9.8087 1.29135 9.86065 1.40265C9.88291 2.38192 9.89035 3.36129 9.88291 4.34081C10.7584 4.34081 11.6339 4.34081 12.5095 4.34081C12.5095 3.6137 12.5095 2.88655 12.5095 2.15945C11.918 1.91163 11.688 1.46645 11.8194 0.823918C11.9389 0.415158 12.1986 0.148052 12.5985 0.0226012ZM12.7766 0.779401C13.1622 0.771245 13.3031 0.949316 13.1995 1.31361C12.9552 1.56437 12.7474 1.53469 12.5762 1.22458C12.5351 1.02498 12.6019 0.876592 12.7766 0.779401ZM7.568 1.89234C8.08738 1.89234 8.60673 1.89234 9.12611 1.89234C9.12611 3.12401 9.12611 4.35563 9.12611 5.5873C7.06717 5.33658 5.59066 6.1379 4.69661 7.99125C4.10751 9.69307 4.44139 11.1844 5.69826 12.4653C6.69042 13.3033 7.83301 13.6223 9.12611 13.4224C9.12611 14.6541 9.12611 15.8857 9.12611 17.1174C8.60673 17.1174 8.08738 17.1174 7.568 17.1174C7.57543 16.3011 7.568 15.4849 7.54574 14.6689C7.51493 14.6455 7.49267 14.6158 7.47896 14.5799C7.12936 14.441 6.77322 14.3149 6.41054 14.2015C6.0718 14.0358 5.73792 13.8652 5.40889 13.6895C5.3317 13.7229 5.2501 13.7451 5.16404 13.7563C4.62983 14.2905 4.09562 14.8247 3.56141 15.3589C3.53172 15.3886 3.50207 15.3886 3.47238 15.3589C3.13106 15.0176 2.78979 14.6763 2.44847 14.335C3.0211 13.7773 3.57757 13.206 4.11788 12.6211C4.14757 12.5321 4.14757 12.443 4.11788 12.354C3.75537 11.7562 3.48827 11.1181 3.31656 10.4397C3.26252 10.3708 3.19574 10.3189 3.11623 10.2839C2.3299 10.2617 1.54342 10.2542 0.756801 10.2617C0.756801 9.75713 0.756801 9.25257 0.756801 8.74805C1.54342 8.75549 2.3299 8.74805 3.11623 8.72579C3.19574 8.69085 3.26252 8.63894 3.31656 8.56998C3.48827 7.89158 3.75537 7.25351 4.11788 6.65573C4.14757 6.56669 4.14757 6.47766 4.11788 6.38862C3.57757 5.80375 3.0211 5.23245 2.44847 4.67469C2.78979 4.33338 3.13106 3.9921 3.47238 3.65079C3.50207 3.62109 3.53172 3.62109 3.56141 3.65079C4.09562 4.185 4.62983 4.71921 5.16404 5.25342C5.2501 5.26459 5.3317 5.28685 5.40889 5.3202C6.02475 4.94189 6.68508 4.66735 7.38993 4.49662C7.44188 4.44467 7.49379 4.39276 7.54574 4.34081C7.568 3.5248 7.57543 2.70862 7.568 1.89234ZM17.7625 3.98467C18.1679 4.0096 18.2866 4.20254 18.1187 4.5634C18.0031 4.68511 17.8696 4.71476 17.718 4.65243C17.4181 4.41159 17.433 4.189 17.7625 3.98467ZM8.01317 6.29958C8.38823 6.28685 8.75924 6.3165 9.12611 6.38862C9.12611 8.46612 9.12611 10.5436 9.12611 12.6211C7.46218 12.8835 6.23794 12.2751 5.45341 10.7959C4.86653 9.12881 5.28945 7.78589 6.72216 6.76702C7.1339 6.54336 7.56426 6.38755 8.01317 6.29958ZM17.7625 9.14871C18.09 9.1569 18.231 9.32015 18.1854 9.63841C17.9482 9.94162 17.7256 9.92675 17.5177 9.59389C17.4944 9.38822 17.576 9.23984 17.7625 9.14871ZM17.718 14.3573C18.1213 14.3371 18.2623 14.5151 18.1409 14.8915C17.9864 15.0789 17.8157 15.1012 17.629 14.9583C17.4461 14.7276 17.4757 14.5273 17.718 14.3573ZM12.8211 17.518C13.1097 17.532 13.2507 17.6804 13.244 17.9632C13.1589 18.1821 13.0031 18.2637 12.7766 18.208C12.4762 17.9637 12.4911 17.7338 12.8211 17.518Z" fill="url(#paint0_linear_1830_2979)"/>
<defs>
<linearGradient id="paint0_linear_1830_2979" x1="-0.227349" y1="-7.41718e-07" x2="22.6494" y2="9.86855" gradientUnits="userSpaceOnUse">
<stop offset="0.11" stop-color="#60D7AD"/>
<stop offset="0.76" stop-color="#213C3A"/>
</linearGradient>
</defs>
</svg>
