<svg width="24" height="22" viewBox="0 0 24 22" fill="none" xmlns="http://www.w3.org/2000/svg">
<path opacity="0.912" fill-rule="evenodd" clip-rule="evenodd" d="M1.55152 0.00327406C8.42989 -0.00545654 15.3082 0.00327406 22.1865 0.0294606C22.9654 0.197306 23.3932 0.677395 23.4697 1.46972C23.5046 7.82431 23.5046 14.179 23.4697 20.5335C23.3926 21.3263 22.9649 21.8064 22.1865 21.9738C15.3082 22.0087 8.42984 22.0087 1.55152 21.9738C0.772226 21.8056 0.34451 21.3255 0.268375 20.5335C0.233458 14.179 0.233458 7.82431 0.268375 1.46972C0.354367 0.676971 0.782082 0.188151 1.55152 0.00327406ZM1.55152 0.684125C8.42989 0.675394 15.3082 0.684125 22.1865 0.710311C22.5129 0.81312 22.7136 1.03134 22.7888 1.36498C22.815 2.13292 22.8238 2.90108 22.815 3.66939C15.5177 3.66939 8.22034 3.66939 0.923039 3.66939C0.914314 2.90108 0.923045 2.13292 0.949226 1.36498C0.991444 1.21071 1.06128 1.07104 1.15872 0.94599C1.28858 0.85098 1.41951 0.76369 1.55152 0.684125ZM0.923039 4.29787C8.22034 4.29787 15.5177 4.29787 22.815 4.29787C22.8238 9.74473 22.815 15.1915 22.7888 20.6383C22.7136 20.9719 22.5129 21.1901 22.1865 21.2929C15.3082 21.3279 8.42984 21.3279 1.55152 21.2929C1.22517 21.1901 1.02441 20.9719 0.949226 20.6383C0.923039 15.1915 0.914309 9.74473 0.923039 4.29787Z" fill="url(#paint0_linear_1830_2907)"/>
<path opacity="0.886" fill-rule="evenodd" clip-rule="evenodd" d="M15.0576 1.83433C17.1875 1.8256 19.3174 1.83433 21.4471 1.86052C21.6582 1.98029 21.7018 2.14614 21.578 2.35806C21.5167 2.43103 21.4382 2.47467 21.3424 2.48899C19.2824 2.52391 17.2223 2.52391 15.1623 2.48899C14.9152 2.41313 14.8367 2.24728 14.9267 1.99145C14.9814 1.94571 15.025 1.89333 15.0576 1.83433Z" fill="url(#paint1_linear_1830_2907)"/>
<path opacity="0.881" fill-rule="evenodd" clip-rule="evenodd" d="M3.91031 9.43004C4.95793 9.42129 6.0054 9.43004 7.0527 9.45623C7.23339 9.49351 7.32064 9.60695 7.31457 9.79665C7.31949 9.92297 7.26712 10.019 7.15745 10.0847C6.04017 10.1196 4.92284 10.1196 3.80557 10.0847C3.51278 9.81849 3.5477 9.60025 3.91031 9.43004Z" fill="url(#paint2_linear_1830_2907)"/>
<path opacity="0.948" fill-rule="evenodd" clip-rule="evenodd" d="M4.95424 11.0013C6.00186 10.9926 7.04932 11.0013 8.09663 11.0275C8.31681 11.2451 8.29937 11.4372 8.04426 11.6036C7.03173 11.6386 6.01914 11.6386 5.00661 11.6036C4.81912 11.4173 4.80168 11.2165 4.95424 11.0013Z" fill="url(#paint3_linear_1830_2907)"/>
<path opacity="0.947" fill-rule="evenodd" clip-rule="evenodd" d="M6.20965 12.5199C7.13508 12.5111 8.0603 12.5199 8.98542 12.5461C9.19423 12.7357 9.19423 12.9277 8.98542 13.1222C8.06015 13.1571 7.13492 13.1571 6.20965 13.1222C6.00303 12.9215 6.00303 12.7208 6.20965 12.5199Z" fill="url(#paint4_linear_1830_2907)"/>
<path opacity="0.908" fill-rule="evenodd" clip-rule="evenodd" d="M2.60807 1.49512C3.16738 1.52614 3.41537 1.81534 3.35204 2.36271C3.17108 2.80721 2.84678 2.9518 2.37915 2.7965C1.88667 2.41061 1.87395 2.00825 2.341 1.58942C2.43652 1.56311 2.52554 1.53167 2.60807 1.49512ZM2.60807 1.98549C2.55436 2.03871 2.51621 2.10158 2.49361 2.1741C2.61867 2.45421 2.75857 2.4605 2.91329 2.19296C2.87257 2.04051 2.77084 1.97136 2.60807 1.98549Z" fill="url(#paint5_linear_1830_2907)"/>
<path opacity="0.94" fill-rule="evenodd" clip-rule="evenodd" d="M8.38105 7.64977C9.30648 7.64102 10.2317 7.64977 11.1568 7.67595C11.1991 7.69208 11.2341 7.71827 11.2616 7.75451C11.8688 9.94779 12.4798 12.1387 13.0946 14.3273C14.8404 14.3623 16.5862 14.3623 18.3319 14.3273C18.794 12.8284 19.2478 11.327 19.6936 9.82325C17.2495 9.80581 14.8055 9.78832 12.3614 9.77088C12.2402 9.703 12.1878 9.59825 12.2043 9.45664C12.1966 9.35011 12.2315 9.2628 12.309 9.19477C14.9801 9.15984 17.6511 9.15984 20.3221 9.19477C20.385 9.24207 20.4287 9.30313 20.4531 9.37808C19.9742 11.2319 19.4417 13.0737 18.8557 14.9034C16.1017 14.9728 13.3434 15.0077 10.5807 15.0082C10.3592 15.2095 10.3767 15.3841 10.6331 15.5319C13.758 15.5494 16.8829 15.5669 20.0079 15.5843C20.2174 15.7763 20.2174 15.9683 20.0079 16.1604C19.5016 16.1778 18.9954 16.1953 18.4891 16.2128C18.7422 16.8064 18.6375 17.3302 18.1748 17.784C17.6531 18.0979 17.1294 18.0979 16.6036 17.784C16.141 17.3302 16.0362 16.8064 16.2894 16.2128C15.6079 16.1691 14.927 16.1779 14.2468 16.239C14.5181 16.9879 14.3086 17.5553 13.6184 17.9411C12.6232 18.1948 12.0471 17.8195 11.89 16.8151C11.8924 16.5991 11.9273 16.3896 11.9948 16.1866C11.4533 16.1953 10.9121 16.1866 10.3712 16.1604C9.69713 15.7905 9.5662 15.2754 9.97843 14.6154C10.0967 14.5143 10.2276 14.4358 10.3712 14.3797C11.0344 14.3535 11.6978 14.3448 12.3614 14.3535C11.845 12.34 11.3037 10.3324 10.7378 8.33062C9.95282 8.28699 9.16722 8.2608 8.38105 8.25206C8.17507 8.04906 8.17507 7.84826 8.38105 7.64977ZM13.0423 16.1866C12.894 16.2395 12.7631 16.3268 12.6495 16.4485C12.4851 16.7446 12.5287 17.0152 12.7804 17.2602C13.0834 17.439 13.3539 17.3954 13.5922 17.1293C13.8038 16.593 13.6205 16.2788 13.0423 16.1866ZM17.3369 16.1866C16.8171 16.3708 16.6949 16.7025 16.9702 17.1817C17.2495 17.461 17.5289 17.461 17.8082 17.1817C18.093 16.6512 17.9359 16.3195 17.3369 16.1866Z" fill="url(#paint6_linear_1830_2907)"/>
<defs>
<linearGradient id="paint0_linear_1830_2907" x1="-0.0363719" y1="-8.58831e-07" x2="27.4765" y2="12.5589" gradientUnits="userSpaceOnUse">
<stop offset="0.11" stop-color="#60D7AD"/>
<stop offset="0.76" stop-color="#213C3A"/>
</linearGradient>
<linearGradient id="paint1_linear_1830_2907" x1="14.8097" y1="1.83105" x2="15.3131" y2="3.97785" gradientUnits="userSpaceOnUse">
<stop offset="0.11" stop-color="#60D7AD"/>
<stop offset="0.76" stop-color="#213C3A"/>
</linearGradient>
<linearGradient id="paint2_linear_1830_2907" x1="3.56499" y1="9.42676" x2="4.38364" y2="11.3417" gradientUnits="userSpaceOnUse">
<stop offset="0.11" stop-color="#60D7AD"/>
<stop offset="0.76" stop-color="#213C3A"/>
</linearGradient>
<linearGradient id="paint3_linear_1830_2907" x1="4.81086" y1="10.998" x2="5.57048" y2="12.7625" gradientUnits="userSpaceOnUse">
<stop offset="0.11" stop-color="#60D7AD"/>
<stop offset="0.76" stop-color="#213C3A"/>
</linearGradient>
<linearGradient id="paint4_linear_1830_2907" x1="6.0177" y1="12.5166" x2="6.82702" y2="14.2246" gradientUnits="userSpaceOnUse">
<stop offset="0.11" stop-color="#60D7AD"/>
<stop offset="0.76" stop-color="#213C3A"/>
</linearGradient>
<linearGradient id="paint5_linear_1830_2907" x1="1.98369" y1="1.49512" x2="3.62449" y2="2.20372" gradientUnits="userSpaceOnUse">
<stop offset="0.11" stop-color="#60D7AD"/>
<stop offset="0.76" stop-color="#213C3A"/>
</linearGradient>
<linearGradient id="paint6_linear_1830_2907" x1="8.0801" y1="7.64648" x2="21.963" y2="14.7134" gradientUnits="userSpaceOnUse">
<stop offset="0.11" stop-color="#60D7AD"/>
<stop offset="0.76" stop-color="#213C3A"/>
</linearGradient>
</defs>
</svg>
