<svg width="28" height="17" viewBox="0 0 28 17" fill="none" xmlns="http://www.w3.org/2000/svg">
<path fill-rule="evenodd" clip-rule="evenodd" d="M26.7043 1.99414C26.7043 2.54642 26.2566 2.99414 25.7043 2.99414H9.29002C8.73774 2.99414 8.29002 2.54642 8.29002 1.99414C8.29002 1.44185 8.73774 0.994141 9.29002 0.994141H25.7043C26.2566 0.994141 26.7043 1.44185 26.7043 1.99414ZM26.7043 9.01571C26.7043 9.568 26.2566 10.0157 25.7043 10.0157H4.08203C3.52974 10.0157 3.08203 9.568 3.08203 9.01571C3.08203 8.46343 3.52974 8.01571 4.08203 8.01571H25.7043C26.2566 8.01571 26.7043 8.46343 26.7043 9.01571ZM26.7043 15.9443C26.7043 16.4965 26.2566 16.9443 25.7043 16.9443H9.29002C8.73774 16.9443 8.29002 16.4965 8.29002 15.9443C8.29002 15.392 8.73774 14.9443 9.29002 14.9443H25.7043C26.2566 14.9443 26.7043 15.392 26.7043 15.9443Z" fill="white"/>
</svg>
