<svg width="24" height="22" viewBox="0 0 24 22" fill="none" xmlns="http://www.w3.org/2000/svg">
<path opacity="0.994" fill-rule="evenodd" clip-rule="evenodd" d="M1.20435 0.00296358C8.25215 -0.0049391 15.3 0.00296358 22.3477 0.0266669C22.7349 0.160984 22.9956 0.42172 23.1299 0.808876C23.1615 1.36196 23.1615 1.91503 23.1299 2.46811C23.1062 2.55502 23.0509 2.61033 22.964 2.63403C22.7865 2.67805 22.6206 2.65435 22.4662 2.56292C22.4054 2.09355 22.3737 1.61948 22.3714 1.14072C22.3477 0.927393 22.2292 0.808876 22.0159 0.785173C15.1893 0.753567 8.36275 0.753567 1.5362 0.785173C1.32287 0.808876 1.20435 0.927393 1.18065 1.14072C1.16485 5.24931 1.14904 9.35785 1.13324 13.4664C1.06078 13.6094 0.942259 13.6726 0.777692 13.6561C0.613124 13.6726 0.494608 13.6094 0.422142 13.4664C0.390536 9.24725 0.390536 5.02807 0.422142 0.808876C0.565267 0.420881 0.826004 0.152247 1.20435 0.00296358Z" fill="url(#paint0_linear_1829_2906)"/>
<path opacity="0.986" fill-rule="evenodd" clip-rule="evenodd" d="M14.0048 3.03617C16.5648 3.02826 19.1247 3.03617 21.6846 3.05987C22.4511 3.25741 22.933 3.73935 23.1305 4.50577C23.1622 9.84693 23.1622 15.188 23.1305 20.5292C22.933 21.2956 22.4511 21.7776 21.6846 21.9751C19.1247 22.0067 16.5647 22.0067 14.0048 21.9751C13.2384 21.7776 12.7564 21.2956 12.5589 20.5292C12.5273 15.188 12.5273 9.84693 12.5589 4.50577C12.765 3.73869 13.247 3.24879 14.0048 3.03617ZM14.4314 3.79467C16.707 3.78676 18.9825 3.79467 21.258 3.81838C21.9138 3.90527 22.2851 4.27666 22.372 4.93243C22.4037 9.98915 22.4037 15.0458 22.372 20.1026C22.2851 20.7583 21.9138 21.1297 21.258 21.2166C18.9825 21.2482 16.707 21.2482 14.4314 21.2166C13.7757 21.1297 13.4043 20.7583 13.3174 20.1026C13.2858 15.0458 13.2858 9.98915 13.3174 4.93243C13.4136 4.27533 13.7849 3.89608 14.4314 3.79467Z" fill="url(#paint1_linear_1829_2906)"/>
<path opacity="0.984" fill-rule="evenodd" clip-rule="evenodd" d="M15.7586 4.55375C17.1493 4.54583 18.5399 4.55375 19.9304 4.57745C20.0734 4.64994 20.1366 4.76846 20.12 4.933C20.1366 5.09755 20.0734 5.21607 19.9304 5.28855C18.5398 5.32017 17.1492 5.32017 15.7586 5.28855C15.6156 5.21607 15.5524 5.09755 15.569 4.933C15.5586 4.76395 15.6219 4.63757 15.7586 4.55375Z" fill="url(#paint2_linear_1829_2906)"/>
<path opacity="0.989" fill-rule="evenodd" clip-rule="evenodd" d="M0.588065 14.4151C4.25421 14.4072 7.92031 14.4151 11.5864 14.4388C11.6298 14.4565 11.6694 14.4802 11.7049 14.5099C11.7752 14.6617 11.7911 14.8197 11.7523 14.984C11.7286 15.0709 11.6733 15.1262 11.5864 15.1499C8.10993 15.1736 4.63346 15.1815 1.15694 15.1736C1.14905 15.8058 1.15695 16.438 1.18065 17.0698C1.19988 17.2118 1.27099 17.3145 1.39398 17.378C4.78877 17.4408 8.18621 17.4724 11.5864 17.4728C11.6733 17.4965 11.7286 17.5518 11.7523 17.6387C11.7964 17.8162 11.7727 17.9821 11.6812 18.1365C11.2121 18.2052 10.7381 18.2289 10.259 18.2076C10.2669 18.9821 10.259 19.7564 10.2353 20.5305C10.1902 20.7866 10.0875 21.0157 9.92717 21.2179C10.6066 21.2337 11.2862 21.2495 11.9657 21.2653C12.0526 21.289 12.1079 21.3444 12.1316 21.4313C12.1632 21.5577 12.1632 21.6841 12.1316 21.8105C12.1079 21.8974 12.0526 21.9527 11.9657 21.9764C10.4486 22.0081 8.93163 22.0081 7.41462 21.9764C7.27164 21.904 7.20845 21.7854 7.22499 21.6209C7.20845 21.4563 7.27164 21.3378 7.41462 21.2653C7.82753 21.2558 8.23836 21.2241 8.64719 21.1705C9.15463 20.9949 9.43115 20.6393 9.47681 20.1039C9.50051 19.472 9.50843 18.8399 9.50051 18.2076C6.68494 18.2307 3.87214 18.207 1.06213 18.1365C0.746939 17.9794 0.533609 17.7344 0.422142 17.4017C0.390536 16.4694 0.390536 15.5371 0.422142 14.6047C0.454838 14.517 0.510148 14.4538 0.588065 14.4151Z" fill="url(#paint3_linear_1829_2906)"/>
<path opacity="0.949" fill-rule="evenodd" clip-rule="evenodd" d="M17.2742 19.7256C17.6538 19.7177 18.0331 19.7256 18.412 19.7493C18.4989 19.773 18.5542 19.8283 18.5779 19.9152C18.6095 20.0417 18.6095 20.1681 18.5779 20.2945C18.5542 20.3814 18.4989 20.4367 18.412 20.4604C18.0327 20.492 17.6535 20.492 17.2742 20.4604C17.1313 20.3879 17.0681 20.2694 17.0846 20.1049C17.0743 19.9358 17.1375 19.8094 17.2742 19.7256Z" fill="url(#paint4_linear_1829_2906)"/>
<defs>
<linearGradient id="paint0_linear_1829_2906" x1="0.12585" y1="-5.33203e-07" x2="21.5623" y2="15.4231" gradientUnits="userSpaceOnUse">
<stop offset="0.11" stop-color="#60D7AD"/>
<stop offset="0.76" stop-color="#213C3A"/>
</linearGradient>
<linearGradient id="paint1_linear_1829_2906" x1="12.4079" y1="3.0332" x2="26.7514" y2="6.50154" gradientUnits="userSpaceOnUse">
<stop offset="0.11" stop-color="#60D7AD"/>
<stop offset="0.76" stop-color="#213C3A"/>
</linearGradient>
<linearGradient id="paint2_linear_1829_2906" x1="15.5118" y1="4.55078" x2="16.3603" y2="6.74333" gradientUnits="userSpaceOnUse">
<stop offset="0.11" stop-color="#60D7AD"/>
<stop offset="0.76" stop-color="#213C3A"/>
</linearGradient>
<linearGradient id="paint3_linear_1829_2906" x1="0.2576" y1="14.4121" x2="11.868" y2="22.1809" gradientUnits="userSpaceOnUse">
<stop offset="0.11" stop-color="#60D7AD"/>
<stop offset="0.76" stop-color="#213C3A"/>
</linearGradient>
<linearGradient id="paint4_linear_1829_2906" x1="17.0638" y1="19.7227" x2="18.3105" y2="20.797" gradientUnits="userSpaceOnUse">
<stop offset="0.11" stop-color="#60D7AD"/>
<stop offset="0.76" stop-color="#213C3A"/>
</linearGradient>
</defs>
</svg>
