<svg width="24" height="22" viewBox="0 0 24 22" fill="none" xmlns="http://www.w3.org/2000/svg">
<path opacity="0.947" fill-rule="evenodd" clip-rule="evenodd" d="M10.1486 0.00391071C11.3142 -0.00651526 12.4795 0.00391071 13.6447 0.0351262C13.7592 0.0663417 13.832 0.139199 13.8632 0.253635C13.942 1.14384 14.4206 1.64329 15.2992 1.75198C15.6739 1.70341 15.9965 1.54733 16.2668 1.28375C16.4625 1.23443 16.6498 1.25521 16.8287 1.34618C17.611 2.10758 18.3705 2.88797 19.1074 3.68734C19.1618 4.03065 19.0578 4.32201 18.7953 4.56137C18.5664 5.19323 18.7017 5.74469 19.2011 6.21579C19.4974 6.36662 19.8095 6.4707 20.1376 6.52795C20.252 6.55916 20.3249 6.63202 20.3561 6.74645C20.3977 7.91185 20.3977 9.07719 20.3561 10.2426C20.3249 10.357 20.252 10.4299 20.1376 10.4611C19.2483 10.5388 18.7488 11.0175 18.6392 11.897C18.6878 12.2718 18.8439 12.5944 19.1074 12.8647C19.1568 13.0603 19.136 13.2476 19.045 13.4266C18.3063 14.1653 17.5675 14.9041 16.8287 15.6429C16.6498 15.7338 16.4625 15.7546 16.2668 15.7053C15.5481 15.0895 14.8509 15.1207 14.1754 15.7989C14.0323 16.1618 13.897 16.526 13.7696 16.8915C13.3189 16.9807 12.861 17.0119 12.3961 16.9851C12.3755 17.5071 12.3962 18.0273 12.4586 18.5459C12.8539 18.7332 13.1453 19.0246 13.3326 19.4199C15.3716 19.4824 17.411 19.5032 19.4508 19.4824C19.6218 18.6974 20.1005 18.2083 20.8867 18.0152C21.9398 17.8188 22.7202 18.1831 23.2279 19.1078C23.6078 20.152 23.3685 21.0156 22.5099 21.6987C21.4381 22.2202 20.512 22.0432 19.7318 21.168C19.571 20.9666 19.4774 20.7377 19.4508 20.4813C17.411 20.4605 15.3716 20.4813 13.3326 20.5437C12.8426 21.4528 12.1143 21.713 11.1475 21.3241C10.8409 21.1319 10.612 20.8718 10.4608 20.5437C8.42176 20.4813 6.38233 20.4605 4.34253 20.4813C4.17153 21.2662 3.69287 21.7553 2.90661 21.9484C1.85351 22.1448 1.07312 21.7806 0.565453 20.8559C0.185517 19.8116 0.42484 18.948 1.28341 18.265C2.35529 17.7435 3.28132 17.9204 4.06159 18.7956C4.22235 18.997 4.31599 19.226 4.34253 19.4824C6.38233 19.5032 8.42176 19.4824 10.4608 19.4199C10.6481 19.0246 10.9394 18.7332 11.3348 18.5459C11.3971 18.0273 11.4179 17.5071 11.3972 16.9851C10.9323 17.0119 10.4744 16.9807 10.0237 16.8915C9.89632 16.526 9.76103 16.1618 9.61794 15.7989C8.94244 15.1207 8.24527 15.0895 7.5265 15.7053C7.33085 15.7546 7.14355 15.7338 6.96463 15.6429C6.18237 14.8815 5.42283 14.1011 4.6859 13.3017C4.63152 12.9584 4.73553 12.667 4.99805 12.4277C5.22692 11.7958 5.09163 11.2444 4.59225 10.7733C4.30032 10.6101 3.98817 10.506 3.65579 10.4611C3.54135 10.4299 3.46849 10.357 3.43728 10.2426C3.39564 9.07719 3.39564 7.91185 3.43728 6.74645C3.46849 6.63202 3.54135 6.55916 3.65579 6.52795C4.54599 6.44922 5.04544 5.97056 5.15413 5.09203C5.10556 4.71726 4.94948 4.39468 4.6859 4.12435C4.63658 3.9287 4.65737 3.7414 4.74833 3.56248C5.50974 2.78022 6.29012 2.02068 7.08949 1.28375C7.4328 1.22937 7.72416 1.33338 7.96352 1.5959C8.59951 1.82646 9.15096 1.69117 9.61794 1.1901C9.76877 0.893802 9.87285 0.581647 9.9301 0.253635C9.97317 0.138137 10.046 0.0548544 10.1486 0.00391071ZM10.8353 1.00281C10.7757 1.29611 10.6612 1.56668 10.492 1.81441C9.63049 2.79376 8.60038 3.0227 7.40164 2.50115C6.90307 2.96845 6.41405 3.4471 5.93452 3.93706C5.98178 4.14208 6.04421 4.35017 6.12181 4.56137C6.17475 5.0233 6.15396 5.48117 6.05938 5.93485C5.75109 6.71174 5.19964 7.21119 4.40496 7.4332C4.40496 8.14073 4.40496 8.84832 4.40496 9.55585C4.69826 9.61553 4.96883 9.72997 5.21656 9.89922C6.19598 10.7599 6.42491 11.79 5.9033 12.9896C6.3706 13.4881 6.84925 13.9771 7.33921 14.4567C7.54424 14.4094 7.75232 14.347 7.96352 14.2694C8.42545 14.2164 8.88332 14.2372 9.337 14.3318C10.1139 14.6401 10.6133 15.1916 10.8353 15.9862C11.5429 15.9862 12.2505 15.9862 12.958 15.9862C13.0177 15.6929 13.1321 15.4224 13.3014 15.1746C14.162 14.1952 15.1922 13.9663 16.3917 14.4879C16.8903 14.0206 17.3793 13.5419 17.8588 13.052C17.8116 12.847 17.7491 12.6389 17.6715 12.4277C17.6186 11.9657 17.6394 11.5079 17.734 11.0542C18.0423 10.2773 18.5937 9.77785 19.3884 9.55585C19.3884 8.84832 19.3884 8.14073 19.3884 7.4332C19.0951 7.37351 18.8245 7.25908 18.5768 7.08982C17.5974 6.22834 17.3685 5.19823 17.89 3.99949C17.4227 3.50092 16.9441 3.0119 16.4541 2.53236C16.2491 2.57962 16.041 2.64206 15.8298 2.71966C15.6425 2.73008 15.4552 2.74045 15.2679 2.75087C14.0645 2.73289 13.2945 2.15022 12.958 1.00281C12.2505 1.00281 11.5429 1.00281 10.8353 1.00281ZM2.09501 19.0454C3.17288 19.0302 3.53704 19.5296 3.18755 20.5437C2.7973 20.9502 2.34985 21.023 1.84529 20.7622C1.43882 20.372 1.36599 19.9245 1.62678 19.4199C1.75876 19.2563 1.91484 19.1314 2.09501 19.0454ZM21.074 19.0454C22.1519 19.0302 22.5161 19.5296 22.1666 20.5437C21.7763 20.9502 21.3289 21.023 20.8243 20.7622C20.4178 20.372 20.345 19.9245 20.6058 19.4199C20.7378 19.2563 20.8938 19.1314 21.074 19.0454ZM11.7094 19.5448C12.2931 19.5364 12.4596 19.7965 12.2088 20.3252C11.6754 20.5326 11.4361 20.3557 11.4909 19.7945C11.5339 19.679 11.6067 19.5957 11.7094 19.5448Z" fill="url(#paint0_linear_1829_2898)"/>
<path opacity="0.946" fill-rule="evenodd" clip-rule="evenodd" d="M8.40109 6.30388C8.84348 6.20742 9.12442 6.37393 9.24391 6.80333C9.6185 7.719 9.99308 8.63462 10.3677 9.55029C10.4476 10.2603 10.1562 10.4683 9.49363 10.1746C9.44163 10.0705 9.38956 9.96652 9.33756 9.86245C8.87975 9.77922 8.42188 9.77922 7.96408 9.86245C7.83222 10.2613 7.56171 10.3966 7.15247 10.2682C7.03804 10.237 6.96518 10.1642 6.93397 10.0497C6.88789 9.81493 6.90868 9.586 6.9964 9.363C7.36742 8.51693 7.72116 7.66369 8.05772 6.80333C8.12821 6.59768 8.24264 6.43124 8.40109 6.30388ZM8.58839 8.30167C8.53482 8.46087 8.47239 8.61695 8.40109 8.7699C8.5676 8.81154 8.73404 8.81154 8.90054 8.7699C8.84441 8.63305 8.78198 8.49783 8.71325 8.3641C8.68472 8.31428 8.64308 8.29349 8.58839 8.30167Z" fill="url(#paint1_linear_1829_2898)"/>
<path opacity="0.968" fill-rule="evenodd" clip-rule="evenodd" d="M11.3943 6.30478C11.9821 6.27874 12.5647 6.30996 13.1423 6.39842C13.9312 6.93608 14.1081 7.63325 13.673 8.48986C13.2782 8.9835 12.7684 9.1708 12.1434 9.05174C12.169 9.43388 12.1378 9.80847 12.0498 10.1755C11.8465 10.2959 11.628 10.3271 11.3943 10.2691C11.2798 10.2379 11.207 10.1651 11.1758 10.0506C11.1341 8.88524 11.1341 7.7199 11.1758 6.5545C11.2188 6.439 11.2916 6.35572 11.3943 6.30478ZM12.1434 7.30367C12.1434 7.5534 12.1434 7.80312 12.1434 8.05284C12.3374 8.06215 12.5247 8.03093 12.7053 7.9592C12.8718 7.7719 12.8718 7.58461 12.7053 7.39732C12.5247 7.32559 12.3374 7.29437 12.1434 7.30367Z" fill="url(#paint2_linear_1829_2898)"/>
<path opacity="0.97" fill-rule="evenodd" clip-rule="evenodd" d="M14.8958 6.30487C15.5266 6.27684 16.1509 6.30805 16.7687 6.39852C16.9211 6.65149 16.9316 6.91164 16.7999 7.1789C16.6398 7.28372 16.4629 7.32537 16.2692 7.30376C16.2692 7.96972 16.2692 8.6356 16.2692 9.30155C16.8065 9.27084 17.0042 9.52056 16.8623 10.0507C16.8311 10.1652 16.7583 10.238 16.6438 10.2692C16.0612 10.3109 15.4784 10.3109 14.8958 10.2692C14.7075 10.1738 14.6242 10.0177 14.646 9.801C14.6564 9.39932 14.8645 9.23288 15.2703 9.30155C15.2703 8.6356 15.2703 7.96972 15.2703 7.30376C14.7331 7.33448 14.5354 7.08476 14.6773 6.55459C14.7203 6.4391 14.7931 6.35581 14.8958 6.30487Z" fill="url(#paint3_linear_1829_2898)"/>
<defs>
<linearGradient id="paint0_linear_1829_2898" x1="0.11496" y1="-8.58831e-07" x2="27.4394" y2="12.3433" gradientUnits="userSpaceOnUse">
<stop offset="0.11" stop-color="#60D7AD"/>
<stop offset="0.76" stop-color="#213C3A"/>
</linearGradient>
<linearGradient id="paint1_linear_1829_2898" x1="6.86858" y1="6.27734" x2="11.2294" y2="7.896" gradientUnits="userSpaceOnUse">
<stop offset="0.11" stop-color="#60D7AD"/>
<stop offset="0.76" stop-color="#213C3A"/>
</linearGradient>
<linearGradient id="paint2_linear_1829_2898" x1="11.1115" y1="6.2959" x2="14.7363" y2="7.37583" gradientUnits="userSpaceOnUse">
<stop offset="0.11" stop-color="#60D7AD"/>
<stop offset="0.76" stop-color="#213C3A"/>
</linearGradient>
<linearGradient id="paint3_linear_1829_2898" x1="14.6056" y1="6.29492" x2="17.6723" y2="7.0468" gradientUnits="userSpaceOnUse">
<stop offset="0.11" stop-color="#60D7AD"/>
<stop offset="0.76" stop-color="#213C3A"/>
</linearGradient>
</defs>
</svg>
