<svg width="25" height="24" viewBox="0 0 25 24" fill="none" xmlns="http://www.w3.org/2000/svg">
<path opacity="0.935" fill-rule="evenodd" clip-rule="evenodd" d="M11.5117 0C12.168 0 12.8242 0 13.4805 0C14.1032 0.0676298 14.486 0.41138 14.6289 1.03125C14.6958 1.42119 14.7583 1.81181 14.8164 2.20312C15.8386 2.49938 16.8152 2.90564 17.7461 3.42188C18.0962 3.19184 18.4399 2.94965 18.7773 2.69531C19.4078 2.36841 19.9703 2.46216 20.4648 2.97656C20.832 3.34375 21.1992 3.71094 21.5664 4.07812C21.9792 4.49497 22.0886 4.97934 21.8945 5.53125C21.6103 5.93227 21.3368 6.33848 21.0742 6.75C21.5888 7.66992 21.9872 8.63869 22.2695 9.65625C22.6646 9.73383 23.063 9.80414 23.4648 9.86719C24.0847 10.0101 24.4285 10.3929 24.4961 11.0156C24.4961 11.6719 24.4961 12.3281 24.4961 12.9844C24.4285 13.6071 24.0847 13.9899 23.4648 14.1328C23.0749 14.1997 22.6843 14.2622 22.293 14.3203C21.9967 15.3425 21.5905 16.3191 21.0742 17.25C21.3198 17.6313 21.5777 18.0063 21.8477 18.375C22.1055 18.9532 22.0118 19.4688 21.5664 19.9219C21.1836 20.3047 20.8008 20.6875 20.418 21.0703C20.0387 21.4618 19.5855 21.5868 19.0586 21.4453C18.6128 21.1555 18.1675 20.8665 17.7227 20.5781C16.8131 21.0992 15.8522 21.4977 14.8398 21.7734C14.7523 22.1669 14.682 22.5653 14.6289 22.9688C14.486 23.5886 14.1032 23.9324 13.4805 24C12.8242 24 12.168 24 11.5117 24C10.889 23.9324 10.5062 23.5886 10.3633 22.9688C10.2964 22.5788 10.2339 22.1882 10.1758 21.7969C9.15358 21.5006 8.17698 21.0944 7.24609 20.5781C6.86481 20.8237 6.48981 21.0816 6.12109 21.3516C5.54228 21.6139 5.02664 21.5202 4.57422 21.0703C4.0633 20.5908 3.58675 20.083 3.14453 19.5469C2.95131 19.1947 2.93568 18.8353 3.09766 18.4688C3.38884 18.066 3.66228 17.6519 3.91797 17.2266C3.39685 16.317 2.99842 15.3561 2.72266 14.3438C2.32926 14.256 1.93082 14.1857 1.52734 14.1328C0.929273 13.9959 0.585523 13.6287 0.496094 13.0312C0.496094 12.3594 0.496094 11.6875 0.496094 11.0156C0.534431 10.4687 0.81568 10.1015 1.33984 9.91406C1.79207 9.83086 2.24519 9.75277 2.69922 9.67969C2.99548 8.65748 3.40173 7.68089 3.91797 6.75C3.67237 6.36872 3.41455 5.99372 3.14453 5.625C2.88666 5.04684 2.98041 4.5312 3.42578 4.07812C3.8086 3.69531 4.1914 3.3125 4.57422 2.92969C4.99106 2.51686 5.47544 2.40749 6.02734 2.60156C6.42836 2.88583 6.83458 3.15927 7.24609 3.42188C8.16602 2.9073 9.13478 2.50887 10.1523 2.22656C10.2311 1.83169 10.3015 1.43325 10.3633 1.03125C10.5062 0.41138 10.889 0.0676298 11.5117 0ZM11.5586 0.84375C12.2488 0.823495 12.9363 0.846933 13.6211 0.914062C13.7142 0.975886 13.7689 1.06183 13.7852 1.17188C13.8688 1.70506 13.9626 2.23632 14.0664 2.76562C14.1032 2.84934 14.1579 2.91966 14.2305 2.97656C15.4141 3.21987 16.5078 3.67299 17.5117 4.33594C17.7062 4.42823 17.8937 4.4126 18.0742 4.28906C18.5155 3.93959 18.9764 3.61928 19.457 3.32812C19.9829 3.713 20.4672 4.1505 20.9102 4.64062C21.016 4.7618 21.1019 4.89459 21.168 5.03906C20.8673 5.51194 20.547 5.97286 20.207 6.42188C20.0745 6.60009 20.0589 6.78759 20.1602 6.98438C20.8191 7.99017 21.2722 9.08391 21.5195 10.2656C21.5764 10.3382 21.6467 10.3929 21.7305 10.4297C22.3099 10.5341 22.888 10.6434 23.4648 10.7578C23.5767 10.8463 23.6314 10.9635 23.6289 11.1094C23.6707 11.7832 23.655 12.4551 23.582 13.125C23.5202 13.2181 23.4343 13.2728 23.3242 13.2891C22.7764 13.3778 22.2296 13.4715 21.6836 13.5703C21.6289 13.625 21.5742 13.6797 21.5195 13.7344C21.2608 14.9644 20.792 16.105 20.1133 17.1562C20.0785 17.3101 20.1097 17.4508 20.207 17.5781C20.5425 17.9991 20.855 18.4366 21.1445 18.8906C21.1689 18.9745 21.1533 19.0526 21.0977 19.125C20.6093 19.7072 20.0624 20.2229 19.457 20.6719C18.9453 20.3652 18.4531 20.0293 17.9805 19.6641C17.9037 19.6359 17.8256 19.6125 17.7461 19.5938C17.1926 19.8939 16.6301 20.183 16.0586 20.4609C15.4639 20.6956 14.8545 20.8831 14.2305 21.0234C14.1579 21.0803 14.1032 21.1507 14.0664 21.2344C13.962 21.8138 13.8527 22.3919 13.7383 22.9688C13.6652 23.0751 13.5637 23.1297 13.4336 23.1328C12.7498 23.205 12.0623 23.1894 11.3711 23.0859C11.332 23.0469 11.293 23.0078 11.2539 22.9688C11.1395 22.3919 11.0302 21.8138 10.9258 21.2344C10.889 21.1507 10.8343 21.0803 10.7617 21.0234C9.57831 20.7802 8.48458 20.3271 7.48047 19.6641C7.28369 19.5628 7.09619 19.5784 6.91797 19.7109C6.47669 20.0604 6.01577 20.3807 5.53516 20.6719C5.39022 20.6051 5.25737 20.5192 5.13672 20.4141C4.80078 20.0781 4.46485 19.7422 4.12891 19.4062C3.99822 19.268 3.89666 19.1117 3.82422 18.9375C4.13542 18.4779 4.45573 18.0247 4.78516 17.5781C4.83815 17.4738 4.87721 17.3645 4.90234 17.25C4.60286 16.698 4.3138 16.1355 4.03516 15.5625C3.80039 14.9676 3.61289 14.3582 3.47266 13.7344C3.41575 13.6618 3.34544 13.6071 3.26172 13.5703C2.6823 13.4659 2.10417 13.3566 1.52734 13.2422C1.4155 13.1537 1.36081 13.0365 1.36328 12.8906C1.32058 12.2166 1.3362 11.5447 1.41016 10.875C1.47198 10.7819 1.55792 10.7272 1.66797 10.7109C2.20116 10.6273 2.73241 10.5335 3.26172 10.4297C3.34544 10.3929 3.41575 10.3382 3.47266 10.2656C3.73141 9.03563 4.20016 7.89502 4.87891 6.84375C4.91373 6.68986 4.88248 6.54923 4.78516 6.42188C4.47265 5.98439 4.16016 5.54686 3.84766 5.10938C3.8164 5.0625 3.8164 5.01562 3.84766 4.96875C4.33442 4.34133 4.89692 3.79446 5.53516 3.32812C6.04689 3.63482 6.53908 3.97076 7.01172 4.33594C7.08845 4.36412 7.16655 4.38756 7.24609 4.40625C7.79809 4.10677 8.36059 3.8177 8.93359 3.53906C9.52848 3.3043 10.1379 3.1168 10.7617 2.97656C10.8343 2.91966 10.889 2.84934 10.9258 2.76562C11.0302 2.1862 11.1395 1.60808 11.2539 1.03125C11.3379 0.9315 11.4394 0.869002 11.5586 0.84375Z" fill="url(#paint0_linear_1829_2905)"/>
<path opacity="0.934" fill-rule="evenodd" clip-rule="evenodd" d="M8.13787 9.18723C9.13452 9.0872 9.78299 9.50907 10.0832 10.4529C10.2141 11.088 9.97972 11.3067 9.38005 11.1091C9.29183 10.8987 9.22935 10.68 9.19255 10.4529C8.83565 9.97042 8.41377 9.90793 7.92693 10.2654C7.83969 10.3773 7.77721 10.5023 7.73943 10.6404C7.70816 11.5466 7.70816 12.4529 7.73943 13.3591C7.98862 13.9641 8.40266 14.1125 8.98162 13.8044C9.19227 13.6105 9.2938 13.3683 9.2863 13.0779C9.39665 12.8156 9.59197 12.7297 9.87224 12.82C9.97382 12.8591 10.0441 12.9294 10.0832 13.031C10.1608 13.7497 9.88738 14.2888 9.26287 14.6482C8.41391 14.9951 7.70296 14.8154 7.13005 14.1091C7.00537 13.9069 6.92722 13.6881 6.89568 13.4529C6.85133 12.404 6.86699 11.3571 6.94255 10.3122C7.13943 9.71856 7.53787 9.34356 8.13787 9.18723Z" fill="url(#paint1_linear_1829_2905)"/>
<path opacity="0.941" fill-rule="evenodd" clip-rule="evenodd" d="M11.1351 9.1876C11.3234 9.15947 11.4874 9.20635 11.6273 9.32822C11.9166 10.063 12.2057 10.7974 12.4945 11.5313C12.7833 10.7974 13.0724 10.063 13.3617 9.32822C13.6092 9.13139 13.8436 9.147 14.0648 9.3751C14.142 11.0754 14.1577 12.7786 14.1117 14.4845C14.0131 14.7643 13.8178 14.8658 13.5257 14.7892C13.4242 14.7501 13.3538 14.6798 13.3148 14.5782C13.2992 13.7032 13.2835 12.8282 13.2679 11.9532C13.1325 12.3335 12.984 12.7085 12.8226 13.0782C12.6038 13.2657 12.3851 13.2657 12.1664 13.0782C12.0049 12.7085 11.8565 12.3335 11.721 11.9532C11.7054 12.8282 11.6898 13.7032 11.6742 14.5782C11.5551 14.7924 11.3753 14.8627 11.1351 14.7892C11.0514 14.7524 10.9811 14.6977 10.9242 14.6251C10.847 12.9248 10.8313 11.2216 10.8773 9.51572C10.9213 9.3705 11.0072 9.26114 11.1351 9.1876Z" fill="url(#paint2_linear_1829_2905)"/>
<path opacity="0.932" fill-rule="evenodd" clip-rule="evenodd" d="M16.1513 9.18747C17.1978 9.08715 17.8463 9.54025 18.0967 10.5468C18.2051 11.0476 18.0098 11.2585 17.5107 11.1797C17.4436 11.1579 17.389 11.1188 17.3467 11.0625C17.3415 10.59 17.1305 10.2541 16.7138 10.0547C16.0186 9.99995 15.6982 10.3203 15.7529 11.0156C15.9583 11.4585 16.3099 11.6537 16.8076 11.6015C17.7414 11.8676 18.1711 12.4848 18.0967 13.4531C17.8472 14.4669 17.1988 14.9122 16.1513 14.789C15.2166 14.5117 14.8182 13.8945 14.956 12.9375C15.163 12.771 15.3818 12.7554 15.6123 12.8906C15.7005 13.101 15.763 13.3197 15.7998 13.5468C16.1567 14.0293 16.5786 14.0918 17.0654 13.7343C17.383 13.2857 17.3283 12.8873 16.9013 12.539C16.6116 12.449 16.3148 12.3865 16.0107 12.3515C15.1555 12.0089 14.7883 11.3761 14.9092 10.4531C15.0818 9.78836 15.4958 9.36648 16.1513 9.18747Z" fill="url(#paint3_linear_1829_2905)"/>
<path opacity="0.934" fill-rule="evenodd" clip-rule="evenodd" d="M11.7938 3.96986C15.2208 3.83516 17.8067 5.22578 19.5517 8.14173C20.8462 10.7431 20.8306 13.3368 19.5048 15.923C17.7458 18.7833 15.1755 20.1348 11.7938 19.9777C8.26022 19.5201 5.9243 17.6061 4.78603 14.2355C3.97521 10.8874 4.8424 8.06711 7.3876 5.77455C8.68219 4.74667 10.1509 4.14512 11.7938 3.96986ZM11.8407 4.81361C9.86564 5.05497 8.23285 5.92998 6.94228 7.43861C5.19439 9.74697 4.86627 12.247 5.95791 14.9386C7.07874 17.2616 8.91469 18.6444 11.4657 19.087C14.1169 19.386 16.3122 18.5345 18.0517 16.5324C19.9391 13.9943 20.1735 11.3068 18.7548 8.46986C17.1735 5.91714 14.8688 4.69839 11.8407 4.81361Z" fill="url(#paint4_linear_1829_2905)"/>
<defs>
<linearGradient id="paint0_linear_1829_2905" x1="0.208594" y1="-9.36907e-07" x2="29.1277" y2="12.4891" gradientUnits="userSpaceOnUse">
<stop offset="0.11" stop-color="#60D7AD"/>
<stop offset="0.76" stop-color="#213C3A"/>
</linearGradient>
<linearGradient id="paint1_linear_1829_2905" x1="6.83219" y1="9.17285" x2="11.2051" y2="10.2589" gradientUnits="userSpaceOnUse">
<stop offset="0.11" stop-color="#60D7AD"/>
<stop offset="0.76" stop-color="#213C3A"/>
</linearGradient>
<linearGradient id="paint2_linear_1829_2905" x1="10.8122" y1="9.17969" x2="15.2301" y2="10.2917" gradientUnits="userSpaceOnUse">
<stop offset="0.11" stop-color="#60D7AD"/>
<stop offset="0.76" stop-color="#213C3A"/>
</linearGradient>
<linearGradient id="paint3_linear_1829_2905" x1="14.8479" y1="9.17383" x2="19.2099" y2="10.2566" gradientUnits="userSpaceOnUse">
<stop offset="0.11" stop-color="#60D7AD"/>
<stop offset="0.76" stop-color="#213C3A"/>
</linearGradient>
<linearGradient id="paint4_linear_1829_2905" x1="4.3003" y1="3.96094" x2="23.6063" y2="12.2932" gradientUnits="userSpaceOnUse">
<stop offset="0.11" stop-color="#60D7AD"/>
<stop offset="0.76" stop-color="#213C3A"/>
</linearGradient>
</defs>
</svg>
