<svg width="25" height="20" viewBox="0 0 25 20" fill="none" xmlns="http://www.w3.org/2000/svg">
<path opacity="0.955" fill-rule="evenodd" clip-rule="evenodd" d="M24.3809 1.19052C24.3809 7.0635 24.3809 12.9365 24.3809 18.8095C24.19 19.4525 23.7615 19.8413 23.0952 19.9762C17.365 20.0079 11.6349 20.0079 5.90474 19.9762C5.54513 19.7602 5.52927 19.5221 5.85713 19.2619C11.5714 19.246 17.2857 19.2301 22.9999 19.2143C23.3998 19.1054 23.6141 18.8435 23.6428 18.4286C23.6666 13.5239 23.6745 8.61911 23.6666 3.71432C16.0158 3.71432 8.36507 3.71432 0.714284 3.71432C0.690993 8.70012 0.714803 13.6842 0.785712 18.6667C0.877302 18.9629 1.07572 19.1454 1.38095 19.2143C2.42856 19.2301 3.47618 19.246 4.5238 19.2619C4.70363 19.4026 4.75919 19.5851 4.69046 19.8095C4.63265 19.8833 4.56122 19.9388 4.47618 19.9762C3.41269 20.0079 2.3492 20.0079 1.28571 19.9762C0.619427 19.8413 0.190858 19.4525 0 18.8095C0 12.9365 0 7.0635 0 1.19052C0.161258 0.624433 0.526337 0.251415 1.09523 0.0714724C1.64802 -0.00370356 2.20357 -0.0195749 2.7619 0.0238535C3.12151 0.239796 3.13738 0.47789 2.80952 0.738137C2.33333 0.754009 1.85714 0.769885 1.38095 0.785756C0.981078 0.894665 0.766793 1.15657 0.738093 1.57147C0.714293 2.03151 0.706355 2.49183 0.714284 2.95242C8.36507 2.95242 16.0158 2.95242 23.6666 2.95242C23.6848 2.41015 23.661 1.87046 23.5952 1.33337C23.5036 1.03715 23.3052 0.854604 22.9999 0.785756C16.7142 0.769885 10.4285 0.754009 4.14284 0.738137C3.96301 0.597438 3.90746 0.4149 3.97618 0.19052C4.03399 0.116768 4.10542 0.0612105 4.19046 0.0238535C10.492 -0.00789403 16.7936 -0.00789403 23.0952 0.0238535C23.7615 0.158691 24.19 0.547581 24.3809 1.19052Z" fill="url(#paint0_linear_1829_2900)"/>
<path opacity="0.853" fill-rule="evenodd" clip-rule="evenodd" d="M19.4716 1.47559C19.8619 1.47697 20.0127 1.66744 19.924 2.04701C19.7192 2.28253 19.497 2.29841 19.2573 2.09463C19.1408 1.82036 19.2122 1.61401 19.4716 1.47559Z" fill="url(#paint1_linear_1829_2900)"/>
<path opacity="0.865" fill-rule="evenodd" clip-rule="evenodd" d="M20.9507 1.47559C21.3409 1.47697 21.4918 1.66744 21.403 2.04701C21.2791 2.22376 21.1125 2.27932 20.903 2.21368C20.5901 1.9517 20.606 1.70567 20.9507 1.47559Z" fill="url(#paint2_linear_1829_2900)"/>
<path opacity="0.861" fill-rule="evenodd" clip-rule="evenodd" d="M22.4269 1.47559C22.8172 1.47697 22.968 1.66744 22.8793 2.04701C22.7596 2.22375 22.5929 2.27931 22.3793 2.21368C22.0616 1.95032 22.0775 1.70429 22.4269 1.47559Z" fill="url(#paint3_linear_1829_2900)"/>
<path opacity="0.924" fill-rule="evenodd" clip-rule="evenodd" d="M11.2845 5.18951C11.8879 5.18155 12.4911 5.18951 13.094 5.21332C13.2246 5.26427 13.3436 5.3357 13.4512 5.4276C13.6277 5.75684 13.8102 6.08227 13.9988 6.40379C14.1947 6.46212 14.3852 6.53355 14.5702 6.61807C14.8415 6.53555 15.1113 6.44826 15.3797 6.35617C15.8579 6.26284 16.0404 6.44536 15.9273 6.90379C15.8695 6.97755 15.7981 7.03307 15.713 7.07045C15.4149 7.17512 15.1133 7.27036 14.8083 7.35617C14.3181 7.35826 13.8578 7.23131 13.4273 6.97522C13.2128 6.65741 13.0223 6.32407 12.8559 5.97522C12.4115 5.94346 11.967 5.94346 11.5226 5.97522C11.3562 6.32407 11.1657 6.65741 10.9512 6.97522C10.5963 7.1675 10.2234 7.3024 9.83211 7.37998C9.47345 7.32398 9.12426 7.22874 8.7845 7.09426C8.45321 7.37783 8.13574 7.67945 7.83212 7.99902C7.88088 8.28883 7.96021 8.57454 8.07021 8.85616C8.07231 9.3463 7.94536 9.80663 7.68926 10.2371C7.37145 10.4517 7.03812 10.6422 6.68927 10.8085C6.6575 11.253 6.6575 11.6974 6.68927 12.1419C6.94746 12.2829 7.20936 12.4178 7.47498 12.5466C7.59403 12.6022 7.68131 12.6895 7.73688 12.8085C7.89126 13.1403 8.01031 13.4816 8.09402 13.8323C8.03802 14.191 7.94279 14.5402 7.80831 14.88C8.09188 15.2112 8.3935 15.5287 8.71307 15.8323C9.00288 15.7836 9.28859 15.7042 9.57021 15.5942C10.0847 15.5969 10.5609 15.7397 10.9988 16.0228C11.1855 16.3326 11.3601 16.6501 11.5226 16.9752C11.967 17.0069 12.4115 17.0069 12.8559 16.9752C12.9969 16.717 13.1318 16.4551 13.2607 16.1895C13.3162 16.0704 13.4035 15.9831 13.5226 15.9276C13.8595 15.7668 14.2087 15.6478 14.5702 15.5704C14.9199 15.6314 15.2612 15.7266 15.594 15.8561C15.9253 15.5726 16.2428 15.271 16.5464 14.9514C16.4976 14.6616 16.4183 14.3759 16.3083 14.0942C16.3102 13.5807 16.4531 13.1045 16.7369 12.6657C17.0467 12.479 17.3641 12.3044 17.6892 12.1419C17.721 11.6974 17.721 11.253 17.6892 10.8085C17.3404 10.6422 17.007 10.4517 16.6892 10.2371C16.4331 9.80663 16.3062 9.3463 16.3083 8.85616C16.3956 8.59426 16.4829 8.33235 16.5702 8.07045C16.3958 7.72869 16.491 7.49855 16.8559 7.37998C17.2718 7.53674 17.4226 7.83836 17.3083 8.28473C17.2162 8.55312 17.1289 8.82292 17.0464 9.09426C17.135 9.29659 17.2144 9.50297 17.2845 9.7133C17.609 9.86763 17.9265 10.0343 18.2368 10.2133C18.3288 10.3208 18.4002 10.4399 18.4511 10.5704C18.4829 11.1895 18.4829 11.8085 18.4511 12.4276C18.4091 12.5515 18.3377 12.6547 18.2368 12.7371C17.9428 12.908 17.6412 13.0667 17.3321 13.2133C17.2358 13.3909 17.1485 13.5734 17.0702 13.7609C17.1513 14.1402 17.2387 14.5211 17.3321 14.9038C17.3383 15.0993 17.2828 15.274 17.1654 15.4276C16.7734 15.8515 16.3528 16.2404 15.9035 16.5942C15.7289 16.626 15.5543 16.626 15.3797 16.5942C15.1113 16.5021 14.8415 16.4149 14.5702 16.3323C14.3622 16.4149 14.1558 16.5022 13.9511 16.5942C13.7905 16.9076 13.6239 17.2171 13.4512 17.5228C13.3687 17.6236 13.2655 17.695 13.1416 17.7371C12.5067 17.7688 11.8718 17.7688 11.2369 17.7371C11.113 17.695 11.0098 17.6236 10.9273 17.5228C10.7565 17.2288 10.5977 16.9271 10.4512 16.618C10.2735 16.5217 10.091 16.4344 9.90354 16.3561C9.51731 16.4422 9.12845 16.5296 8.73688 16.618C8.54464 16.6369 8.37798 16.5813 8.23688 16.4514C7.81298 16.0594 7.42407 15.6387 7.07022 15.1895C7.03846 15.0149 7.03846 14.8403 7.07022 14.6657C7.16231 14.3973 7.2496 14.1275 7.33212 13.8561C7.2476 13.6711 7.17617 13.4807 7.11784 13.2847C6.79631 13.0961 6.47089 12.9136 6.14165 12.7371C6.04084 12.6547 5.96941 12.5515 5.92736 12.4276C5.88227 11.7576 5.89813 11.091 5.97498 10.4276C6.04641 10.2927 6.1496 10.1895 6.28451 10.1181C6.58589 10.011 6.86369 9.86021 7.11784 9.66568C7.16269 9.49935 7.22617 9.34064 7.30831 9.18949C7.22717 8.81021 7.13984 8.42926 7.04641 8.04664C7.04017 7.85107 7.09574 7.67645 7.21307 7.52283C7.5875 7.13245 7.97641 6.75945 8.37974 6.40379C8.58169 6.33441 8.78802 6.3185 8.99878 6.35617C9.26716 6.44826 9.53697 6.53555 9.8083 6.61807C9.9933 6.53355 10.1838 6.46212 10.3797 6.40379C10.5683 6.08227 10.7508 5.75684 10.9273 5.4276C11.0429 5.33465 11.1619 5.25527 11.2845 5.18951Z" fill="url(#paint4_linear_1829_2900)"/>
<path opacity="0.915" fill-rule="evenodd" clip-rule="evenodd" d="M9.81192 9.61988C10.2265 9.59783 10.3932 9.78831 10.3119 10.1913C9.88269 10.6126 9.46202 11.0412 9.05002 11.477C9.46202 11.9128 9.88269 12.3414 10.3119 12.7627C10.3723 13.2422 10.1739 13.4089 9.71669 13.2627C9.21669 12.7627 8.71669 12.2627 8.21669 11.7627C8.05798 11.5723 8.05798 11.3818 8.21669 11.1913C8.74345 10.6566 9.27516 10.1328 9.81192 9.61988Z" fill="url(#paint5_linear_1829_2900)"/>
<path opacity="0.919" fill-rule="evenodd" clip-rule="evenodd" d="M12.7651 9.61921C13.0822 9.57906 13.2726 9.71402 13.3365 10.024C12.8116 11.0976 12.2798 12.169 11.7413 13.2382C11.3875 13.432 11.1574 13.3368 11.0508 12.9525C11.5735 11.8118 12.1449 10.7007 12.7651 9.61921Z" fill="url(#paint6_linear_1829_2900)"/>
<path opacity="0.914" fill-rule="evenodd" clip-rule="evenodd" d="M14.2854 9.61867C14.4469 9.59781 14.5898 9.63748 14.7139 9.73772C15.1981 10.2219 15.6822 10.706 16.1663 11.1901C16.325 11.3806 16.325 11.571 16.1663 11.7615C15.6663 12.2615 15.1663 12.7615 14.6663 13.2615C14.2013 13.4138 14.0029 13.2471 14.0711 12.7615C14.5003 12.3402 14.921 11.9116 15.333 11.4758C14.921 11.04 14.5003 10.6114 14.0711 10.1901C13.9905 9.93443 14.062 9.74396 14.2854 9.61867Z" fill="url(#paint7_linear_1829_2900)"/>
<defs>
<linearGradient id="paint0_linear_1829_2900" x1="-0.292062" y1="-7.80756e-07" x2="27.0007" y2="14.3686" gradientUnits="userSpaceOnUse">
<stop offset="0.11" stop-color="#60D7AD"/>
<stop offset="0.76" stop-color="#213C3A"/>
</linearGradient>
<linearGradient id="paint1_linear_1829_2900" x1="19.1942" y1="1.47559" x2="20.0982" y2="1.85813" gradientUnits="userSpaceOnUse">
<stop offset="0.11" stop-color="#60D7AD"/>
<stop offset="0.76" stop-color="#213C3A"/>
</linearGradient>
<linearGradient id="paint2_linear_1829_2900" x1="20.6707" y1="1.47559" x2="21.5782" y2="1.85891" gradientUnits="userSpaceOnUse">
<stop offset="0.11" stop-color="#60D7AD"/>
<stop offset="0.76" stop-color="#213C3A"/>
</linearGradient>
<linearGradient id="paint3_linear_1829_2900" x1="22.1433" y1="1.47559" x2="23.0539" y2="1.86203" gradientUnits="userSpaceOnUse">
<stop offset="0.11" stop-color="#60D7AD"/>
<stop offset="0.76" stop-color="#213C3A"/>
</linearGradient>
<linearGradient id="paint4_linear_1829_2900" x1="5.75173" y1="5.18652" x2="20.902" y2="11.7284" gradientUnits="userSpaceOnUse">
<stop offset="0.11" stop-color="#60D7AD"/>
<stop offset="0.76" stop-color="#213C3A"/>
</linearGradient>
<linearGradient id="paint5_linear_1829_2900" x1="8.07089" y1="9.61816" x2="11.0614" y2="10.3989" gradientUnits="userSpaceOnUse">
<stop offset="0.11" stop-color="#60D7AD"/>
<stop offset="0.76" stop-color="#213C3A"/>
</linearGradient>
<linearGradient id="paint6_linear_1829_2900" x1="11.0234" y1="9.6123" x2="14.0767" y2="10.4218" gradientUnits="userSpaceOnUse">
<stop offset="0.11" stop-color="#60D7AD"/>
<stop offset="0.76" stop-color="#213C3A"/>
</linearGradient>
<linearGradient id="paint7_linear_1829_2900" x1="14.0122" y1="9.61328" x2="17.0174" y2="10.4006" gradientUnits="userSpaceOnUse">
<stop offset="0.11" stop-color="#60D7AD"/>
<stop offset="0.76" stop-color="#213C3A"/>
</linearGradient>
</defs>
</svg>
