<svg width="31" height="24" viewBox="0 0 31 24" fill="none" xmlns="http://www.w3.org/2000/svg">
<path opacity="0.935" fill-rule="evenodd" clip-rule="evenodd" d="M2.56277 0.00405428C11.2532 -0.00675686 19.9436 0.00405428 28.634 0.0364812C29.6623 0.329906 30.2136 1.01087 30.2878 2.07938C30.3311 7.78652 30.3311 13.4937 30.2878 19.2008C30.2239 20.205 29.7158 20.8644 28.7637 21.1788C28.3572 21.2604 27.9464 21.2928 27.5315 21.2761C27.5315 21.8598 27.5315 22.4435 27.5315 23.0272C28.4397 23.0163 29.3477 23.0272 30.2554 23.0596C30.5919 23.2485 30.6676 23.5188 30.4824 23.8703C30.4337 23.9109 30.3796 23.9433 30.3202 23.9676C20.5057 24.0108 10.6911 24.0108 0.876574 23.9676C0.635869 23.8046 0.560203 23.5776 0.649585 23.2866C0.728318 23.1861 0.825598 23.1105 0.941427 23.0596C1.84912 23.0272 2.75708 23.0163 3.66529 23.0272C3.66529 22.4435 3.66529 21.8598 3.66529 21.2761C2.76317 21.397 1.99573 21.1376 1.36298 20.4979C1.07273 20.1156 0.921407 19.6833 0.909001 19.2008C0.865762 13.4937 0.865762 7.78652 0.909001 2.07938C0.993953 1.01129 1.54521 0.31951 2.56277 0.00405428ZM2.69248 0.976862C11.2964 0.966051 19.9004 0.976862 28.5043 1.00929C29.0017 1.19311 29.2719 1.54981 29.315 2.07938C29.3582 7.78652 29.3582 13.4937 29.315 19.2008C29.2256 19.7875 28.8905 20.1442 28.3098 20.2709C28.0513 20.3032 27.7918 20.3141 27.5315 20.3033C27.5423 16.8444 27.5315 13.3855 27.4991 9.92669C27.4482 9.81087 27.3726 9.71359 27.2721 9.63485C25.8237 9.5916 24.3753 9.5916 22.9269 9.63485C22.8296 9.68888 22.7539 9.76456 22.6999 9.86184C22.6675 13.3423 22.6566 16.8227 22.6675 20.3033C22.1702 20.3033 21.6731 20.3033 21.1758 20.3033C21.1867 18.7467 21.1758 17.1902 21.1434 15.6338C21.111 15.515 21.0353 15.4393 20.9164 15.4068C19.4896 15.3636 18.0628 15.3636 16.6361 15.4068C16.5433 15.437 16.4676 15.4911 16.4091 15.569C16.3137 17.1429 16.2812 18.7209 16.3118 20.3033C15.8362 20.3033 15.3606 20.3033 14.885 20.3033C14.8958 17.2335 14.885 14.1637 14.8526 11.0941C14.8301 10.9418 14.7545 10.8229 14.6256 10.7374C13.1772 10.6941 11.7288 10.6941 10.2804 10.7374C10.1615 10.7698 10.0858 10.8455 10.0534 10.9644C10.021 14.0773 10.0101 17.1903 10.021 20.3033C9.52373 20.3033 9.02656 20.3033 8.52933 20.3033C8.56001 19.1514 8.52758 18.0057 8.43205 16.8661C8.38341 16.8255 8.32932 16.793 8.26991 16.7688C6.82153 16.7255 5.37311 16.7255 3.92471 16.7688C3.87066 16.8228 3.81661 16.8769 3.76257 16.9309C3.66711 18.0489 3.63468 19.173 3.66529 20.3033C3.03946 20.404 2.50982 20.2311 2.07637 19.7845C1.9629 19.6064 1.89804 19.4118 1.88181 19.2008C1.83857 13.4937 1.83857 7.78652 1.88181 2.07938C1.9324 1.54423 2.20263 1.17672 2.69248 0.976862ZM23.6403 10.5752C24.6131 10.5752 25.5859 10.5752 26.5587 10.5752C26.5587 14.7259 26.5587 18.8765 26.5587 23.0272C25.5859 23.0272 24.6131 23.0272 23.6403 23.0272C23.6403 18.8765 23.6403 14.7259 23.6403 10.5752ZM10.9938 11.6777C11.9666 11.6777 12.9394 11.6777 13.9122 11.6777C13.9122 15.4609 13.9122 19.2441 13.9122 23.0272C12.9394 23.0272 11.9666 23.0272 10.9938 23.0272C10.9938 19.2441 10.9938 15.4609 10.9938 11.6777ZM17.2846 16.3472C18.2574 16.3472 19.2302 16.3472 20.203 16.3472C20.203 18.5739 20.203 20.8005 20.203 23.0272C19.2302 23.0272 18.2574 23.0272 17.2846 23.0272C17.2846 20.8005 17.2846 18.5739 17.2846 16.3472ZM4.6381 17.7092C5.61091 17.7092 6.58371 17.7092 7.55652 17.7092C7.55652 19.4818 7.55652 21.2545 7.55652 23.0272C6.58371 23.0272 5.61091 23.0272 4.6381 23.0272C4.6381 21.2545 4.6381 19.4818 4.6381 17.7092ZM8.52933 21.2761C9.02656 21.2761 9.52373 21.2761 10.021 21.2761C10.021 21.8598 10.021 22.4435 10.021 23.0272C9.52373 23.0272 9.02656 23.0272 8.52933 23.0272C8.52933 22.4435 8.52933 21.8598 8.52933 21.2761ZM14.885 21.2761C15.3606 21.2761 15.8362 21.2761 16.3118 21.2761C16.3118 21.8598 16.3118 22.4435 16.3118 23.0272C15.8362 23.0272 15.3606 23.0272 14.885 23.0272C14.885 22.4435 14.885 21.8598 14.885 21.2761ZM21.1758 21.2761C21.6731 21.2761 22.1702 21.2761 22.6675 21.2761C22.6675 21.8598 22.6675 22.4435 22.6675 23.0272C22.1702 23.0272 21.6731 23.0272 21.1758 23.0272C21.1758 22.4435 21.1758 21.8598 21.1758 21.2761Z" fill="url(#paint0_linear_1861_1528)"/>
<path opacity="0.922" fill-rule="evenodd" clip-rule="evenodd" d="M12.1612 1.8527C13.4777 1.84096 14.2126 2.4895 14.3662 3.79831C14.3175 4.13672 14.2419 4.46099 14.1392 4.77112C15.2742 5.90606 16.4091 7.041 17.5441 8.17595C17.642 8.23107 17.7393 8.2851 17.8359 8.33808C18.1191 8.18509 18.4217 8.12024 18.7439 8.14352C19.1115 8.15889 19.4682 8.21291 19.8139 8.30565C20.9921 7.12745 22.1703 5.94932 23.3485 4.77112C22.9121 3.65901 23.1824 2.76188 24.1591 2.07968C25.3333 1.62065 26.2304 1.93415 26.8506 3.02007C27.2256 4.18769 26.8689 5.04156 25.7805 5.58179C25.5484 5.64905 25.3107 5.68147 25.0671 5.67907C24.7053 5.68342 24.3595 5.6294 24.0294 5.51694C22.871 6.69695 21.6929 7.85356 20.4949 8.98662C20.5808 9.32256 20.6349 9.66843 20.657 10.0243C20.4764 11.491 19.6549 12.1071 18.1926 11.8726C17.337 11.5571 16.8831 10.941 16.8307 10.0243C16.8416 9.68847 16.9281 9.37503 17.0901 9.0839C15.8795 7.89494 14.6689 6.7059 13.4583 5.51694C13.1282 5.6294 12.7824 5.68342 12.4206 5.67907C12.0878 5.70365 11.7743 5.6388 11.4802 5.48451C10.2379 6.68347 8.99496 7.88326 7.75112 9.0839C8.27637 10.269 7.9737 11.177 6.84317 11.8078C5.76329 12.1468 4.93099 11.8334 4.3463 10.8674C4.00466 9.95333 4.18842 9.16426 4.89755 8.50022C5.60511 8.06822 6.32927 8.0358 7.07016 8.40294C8.28078 7.19231 9.49135 5.98175 10.702 4.77112C10.3407 3.88022 10.4811 3.06955 11.1235 2.3391C11.4339 2.08643 11.7798 1.92429 12.1612 1.8527ZM12.226 2.8255C11.4052 3.24452 11.2755 3.81738 11.8369 4.54413C12.6691 4.90627 13.188 4.64686 13.3934 3.76588C13.2616 3.12772 12.8725 2.81422 12.226 2.8255ZM24.9374 2.8255C24.711 2.91221 24.5057 3.04192 24.3213 3.21463C24.0385 3.76407 24.1357 4.22888 24.6131 4.60898C25.1779 4.83954 25.6211 4.699 25.9426 4.18743C26.1226 3.36133 25.7875 2.90735 24.9374 2.8255ZM5.80551 9.11633C5.12144 9.48476 4.98092 10.0036 5.38396 10.6728C5.92665 11.1306 6.42382 11.0873 6.8756 10.5431C7.18261 9.58425 6.82592 9.10868 5.80551 9.11633ZM18.452 9.11633C17.8444 9.43658 17.6823 9.91221 17.9656 10.5431C18.5321 11.1561 19.0725 11.1345 19.587 10.4783C19.7898 9.54586 19.4115 9.09188 18.452 9.11633Z" fill="url(#paint1_linear_1861_1528)"/>
<defs>
<linearGradient id="paint0_linear_1861_1528" x1="0.254294" y1="-9.36907e-07" x2="33.447" y2="17.8991" gradientUnits="userSpaceOnUse">
<stop offset="0.11" stop-color="#60D7AD"/>
<stop offset="0.76" stop-color="#213C3A"/>
</linearGradient>
<linearGradient id="paint1_linear_1861_1528" x1="3.90638" y1="1.85254" x2="20.599" y2="18.1574" gradientUnits="userSpaceOnUse">
<stop offset="0.11" stop-color="#60D7AD"/>
<stop offset="0.76" stop-color="#213C3A"/>
</linearGradient>
</defs>
</svg>
