<svg width="29" height="24" viewBox="0 0 29 24" fill="none" xmlns="http://www.w3.org/2000/svg">
<path opacity="0.93" fill-rule="evenodd" clip-rule="evenodd" d="M15.826 0.000513225C16.9641 -0.0193338 17.5106 0.536448 17.4656 1.66786C17.3508 2.17175 17.0544 2.52375 16.5763 2.72385C16.5486 4.18728 16.5393 5.65087 16.5486 7.11452C17.1228 7.11452 17.6972 7.11452 18.2715 7.11452C18.2715 6.44759 18.2715 5.78065 18.2715 5.11371C17.8554 5.00361 17.5682 4.74423 17.41 4.33561C17.1716 3.21815 17.6163 2.58827 18.7439 2.44595C19.6075 2.50363 20.0799 2.96678 20.1611 3.83541C20.1046 4.4755 19.7803 4.92013 19.1885 5.16929C19.1422 5.8185 19.1515 6.46693 19.2163 7.11452C20.3297 7.22752 20.9411 7.83888 21.0504 8.94861C21.6618 8.94861 22.2731 8.94861 22.8845 8.94861C22.8752 8.20736 22.8845 7.46628 22.9123 6.72548C22.9771 6.66062 23.0419 6.59581 23.1068 6.53095C23.7179 6.50316 24.3292 6.49388 24.9409 6.50316C25.2251 5.69345 25.7994 5.36926 26.6638 5.53055C27.5238 5.8703 27.8294 6.49094 27.5808 7.39242C27.2817 8.04696 26.7722 8.33408 26.0524 8.25388C25.5562 8.17268 25.2042 7.90407 24.9964 7.44799C24.5906 7.39258 24.1829 7.37402 23.7737 7.39242C23.783 8.09665 23.7737 8.80066 23.7459 9.50439C23.7267 9.63489 23.6618 9.73676 23.5514 9.81007C22.718 9.83786 21.8843 9.84714 21.0504 9.83786C21.0504 10.264 21.0504 10.69 21.0504 11.1162C22.5329 11.1347 24.015 11.1162 25.4966 11.0606C25.8266 10.349 26.3824 10.0618 27.164 10.1991C28.091 10.562 28.3967 11.2198 28.081 12.1721C27.6765 12.8384 27.0929 13.07 26.3303 12.8669C25.9522 12.7017 25.6743 12.4331 25.4966 12.061C24.015 12.0054 22.5329 11.9869 21.0504 12.0054C21.0504 12.5797 21.0504 13.154 21.0504 13.7283C21.7173 13.7283 22.3843 13.7283 23.0512 13.7283C23.1892 13.2477 23.5041 12.942 23.996 12.8113C25.0336 12.6904 25.6265 13.1443 25.7745 14.173C25.6961 15.0388 25.2237 15.5019 24.3573 15.5624C23.7327 15.5393 23.2973 15.2429 23.0512 14.6732C22.3853 14.6176 21.7183 14.5991 21.0504 14.6176C21.008 15.9752 20.304 16.6608 18.9384 16.674C18.9384 17.3409 18.9384 18.0079 18.9384 18.6748C19.6427 18.6655 20.3467 18.6748 21.0504 18.7026C21.2168 18.7251 21.3372 18.8085 21.4116 18.9527C21.4302 19.5455 21.4487 20.1383 21.4672 20.7312C22.2796 21.059 22.5945 21.6518 22.4121 22.5097C22.0785 23.2741 21.4949 23.5798 20.6613 23.4267C19.7195 22.9968 19.4509 22.3021 19.8555 21.3425C20.022 21.0922 20.2443 20.907 20.5224 20.7868C20.5502 20.3796 20.5594 19.972 20.5502 19.564C19.7904 19.5733 19.0308 19.564 18.2715 19.5363C18.2252 19.49 18.1788 19.4436 18.1325 19.3973C18.0508 18.4948 18.023 17.5871 18.0492 16.674C17.623 16.674 17.197 16.674 16.7709 16.674C16.7524 18.2121 16.7709 19.7497 16.8264 21.287C17.6043 21.6386 17.8915 22.2315 17.6879 23.0655C17.2753 23.9197 16.6176 24.1883 15.7149 23.8714C14.9148 23.3411 14.7388 22.6464 15.1869 21.7872C15.3621 21.5563 15.5844 21.3896 15.8538 21.287C15.8816 19.7494 15.8909 18.2118 15.8816 16.674C15.2332 16.674 14.5848 16.674 13.9364 16.674C13.9457 17.619 13.9364 18.5638 13.9086 19.5085C13.7886 21.1289 12.9641 22.2127 11.4354 22.7598C9.50913 23.1932 8.07338 22.554 7.12805 20.8423C6.01393 21.2053 5.0228 20.9922 4.15461 20.2032C2.85929 18.7458 2.41466 17.06 2.82073 15.1456C0.762896 13.9189 0.123747 12.1682 0.903286 9.89344C1.35246 9.04592 2.01014 8.41606 2.87631 8.00378C2.51989 6.32187 2.98305 4.90462 4.26577 3.75204C5.04041 3.17582 5.91116 2.90719 6.87794 2.94616C7.49459 1.44151 8.62466 0.663411 10.2682 0.611874C12.4373 0.789513 13.6508 1.95666 13.9086 4.1133C13.9364 5.11354 13.9457 6.11395 13.9364 7.11452C14.5107 7.11452 15.085 7.11452 15.6593 7.11452C15.6778 5.65048 15.6593 4.18694 15.6037 2.72385C14.8551 2.35675 14.568 1.76392 14.7423 0.945343C14.9609 0.457555 15.3222 0.142616 15.826 0.000513225ZM15.9372 0.889765C16.4704 0.901242 16.6649 1.1606 16.5208 1.66786C16.0813 2.02337 15.7571 1.94 15.5481 1.41776C15.6039 1.18616 15.7336 1.01016 15.9372 0.889765ZM9.93475 1.50112C11.4929 1.46878 12.5026 2.1913 12.9638 3.66868C13.0008 5.15078 13.0008 6.63283 12.9638 8.11493C12.3542 7.58716 11.6595 7.38341 10.8796 7.50357C10.646 7.7719 10.6646 8.02201 10.9352 8.25388C11.9785 8.32485 12.6547 8.85285 12.9638 9.83786C13.0008 13.2096 13.0008 16.5813 12.9638 19.9531C12.5753 21.2498 11.7046 21.9352 10.3516 22.0095C9.04483 21.9256 8.19259 21.2587 7.79499 20.0087C7.65037 19.8024 7.45585 19.7376 7.21141 19.8141C6.20856 20.3453 5.32855 20.1878 4.57145 19.3417C3.62931 18.07 3.36069 16.6713 3.76556 15.1456C4.9605 14.8399 5.7108 14.0896 6.01648 12.8947C6.06395 12.6654 6.04538 12.4431 5.9609 12.2277C5.63782 11.9774 5.37846 12.033 5.18281 12.3945C5.08024 13.3492 4.57078 13.9698 3.65441 14.2563C3.2823 14.2747 2.94883 14.1636 2.654 13.9229C1.39742 12.8459 1.12879 11.5583 1.84812 10.0602C2.21335 9.47237 2.71356 9.04631 3.34873 8.78187C4.5467 9.68618 5.77866 9.73248 7.04468 8.92082C7.44996 8.52966 7.39438 8.22398 6.87794 8.00378C6.61356 8.12683 6.35418 8.26577 6.09985 8.42061C5.34394 8.72535 4.64921 8.62342 4.01567 8.11493C3.42026 6.70814 3.68889 5.4947 4.82155 4.47456C5.38377 4.05867 6.01365 3.85486 6.71121 3.8632C7.35914 5.3916 8.50778 6.02147 10.1571 5.75286C10.432 5.51387 10.4505 5.25449 10.2126 4.97476C10.1217 4.94136 10.0291 4.91357 9.93475 4.8914C8.81001 5.05157 8.03192 4.60695 7.60046 3.55752C7.96367 2.39751 8.74176 1.71205 9.93475 1.50112ZM18.5494 3.33521C19.0672 3.30651 19.2802 3.54735 19.1885 4.05772C18.8218 4.44749 18.5069 4.41042 18.2437 3.94657C18.1979 3.66768 18.2998 3.46387 18.5494 3.33521ZM26.0524 6.39201C26.6291 6.36583 26.8421 6.62516 26.6916 7.1701C26.3517 7.48345 26.0553 7.44638 25.8023 7.05895C25.7454 6.78372 25.8288 6.56141 26.0524 6.39201ZM13.9364 8.00378C15.6964 7.99449 17.4564 8.00378 19.2163 8.03157C19.6823 8.09231 19.988 8.34241 20.1334 8.78187C20.1704 10.8568 20.1704 12.9317 20.1334 15.0066C19.9705 15.4659 19.6463 15.716 19.1607 15.7569C17.4194 15.7847 15.6779 15.794 13.9364 15.7847C13.9364 13.1911 13.9364 10.5974 13.9364 8.00378ZM26.6082 11.0606C27.2357 11.0478 27.4303 11.3257 27.1918 11.8943C26.734 12.1704 26.4283 12.05 26.2747 11.533C26.3258 11.3276 26.4369 11.1702 26.6082 11.0606ZM24.1628 13.6728C24.5071 13.6086 24.7386 13.7382 24.8575 14.0618C24.8748 14.5031 24.6617 14.6976 24.2184 14.6454C23.721 14.3504 23.7025 14.0262 24.1628 13.6728ZM20.9948 21.5649C21.4401 21.6115 21.616 21.8523 21.5228 22.2874C21.3816 22.5413 21.1685 22.6247 20.8837 22.5375C20.5471 22.3643 20.473 22.1142 20.6613 21.7872C20.7608 21.6862 20.872 21.6122 20.9948 21.5649ZM16.1595 22.1206C16.7051 22.0821 16.9182 22.3229 16.7987 22.8432C16.432 23.2329 16.117 23.1959 15.8538 22.732C15.8133 22.4544 15.9152 22.2506 16.1595 22.1206Z" fill="url(#paint0_linear_1861_1531)"/>
<path opacity="0.919" fill-rule="evenodd" clip-rule="evenodd" d="M10.6016 13.3389C10.7687 13.3598 10.9077 13.434 11.0184 13.5612C11.1003 15.4337 10.2111 16.5082 8.35065 16.7847C7.94315 16.6921 7.81343 16.4513 7.9616 16.0622C8.0079 16.0159 8.05425 15.9696 8.10055 15.9233C9.51268 15.7709 10.2259 14.9835 10.2403 13.5612C10.3399 13.4429 10.4603 13.3688 10.6016 13.3389Z" fill="url(#paint1_linear_1861_1531)"/>
<defs>
<linearGradient id="paint0_linear_1861_1531" x1="0.251176" y1="-9.36907e-07" x2="31.917" y2="15.7376" gradientUnits="userSpaceOnUse">
<stop offset="0.11" stop-color="#60D7AD"/>
<stop offset="0.76" stop-color="#213C3A"/>
</linearGradient>
<linearGradient id="paint1_linear_1861_1531" x1="7.86495" y1="13.3389" x2="11.7352" y2="14.8528" gradientUnits="userSpaceOnUse">
<stop offset="0.11" stop-color="#60D7AD"/>
<stop offset="0.76" stop-color="#213C3A"/>
</linearGradient>
</defs>
</svg>
