<svg width="37" height="24" viewBox="0 0 37 24" fill="none" xmlns="http://www.w3.org/2000/svg">
<path opacity="0.914" fill-rule="evenodd" clip-rule="evenodd" d="M27.947 2.09984e-07C29.3613 -0.000442954 29.9998 0.700575 29.8624 2.10315C29.3313 3.31329 28.4675 3.62621 27.271 3.04206C26.9302 2.81485 26.7299 2.50193 26.6701 2.10315C24.7673 2.10315 22.8644 2.10315 20.9616 2.10315C20.9616 3.0045 20.9616 3.90586 20.9616 4.80721C22.1627 4.54431 22.726 5.02 22.6516 6.23435C22.7833 6.319 22.921 6.39411 23.0647 6.45968C23.2763 6.28565 23.4766 6.09787 23.6656 5.89634C24.0304 5.73034 24.381 5.75535 24.7172 5.97145C24.9175 6.17178 25.1178 6.37203 25.3181 6.57235C27.9223 6.63492 30.5262 6.62245 33.1298 6.5348C33.5271 5.59747 34.2282 5.23437 35.2329 5.44566C36.1983 5.8364 36.5614 6.54997 36.3221 7.58637C35.8145 8.59731 35.0258 8.91031 33.956 8.52528C33.5702 8.28995 33.2947 7.96449 33.1298 7.54882C30.8514 7.49872 28.5729 7.49872 26.2945 7.54882C26.7385 7.90192 26.8511 8.34005 26.6326 8.86329C26.431 9.05227 26.2432 9.2526 26.0692 9.46419C26.1348 9.60788 26.2099 9.74564 26.2945 9.87731C27.5106 9.80445 27.9863 10.3678 27.7217 11.5673C28.4495 11.5923 29.1756 11.5672 29.9 11.4922C30.4102 10.4498 31.2113 10.1368 32.3036 10.5533C33.1773 11.1994 33.3651 12.0131 32.8669 12.9945C32.1466 13.7588 31.333 13.8715 30.4257 13.3325C30.2063 13.1002 30.031 12.8373 29.9 12.5438C29.1756 12.4688 28.4495 12.4438 27.7217 12.4687C27.9846 13.6698 27.5089 14.2332 26.2945 14.1587C26.2099 14.2904 26.1348 14.4282 26.0692 14.5718C26.2432 14.7834 26.431 14.9838 26.6326 15.1727C26.8511 15.696 26.7385 16.1341 26.2945 16.4872C28.5729 16.5373 30.8514 16.5373 33.1298 16.4872C33.725 15.3429 34.6013 15.0674 35.7587 15.661C36.327 16.1519 36.5147 16.7653 36.3221 17.5012C35.9527 18.4435 35.2641 18.8066 34.2565 18.5904C33.6976 18.4196 33.3221 18.0566 33.1298 17.5012C30.5262 17.4136 27.9223 17.4011 25.3181 17.4637C25.1178 17.664 24.9175 17.8643 24.7172 18.0646C24.381 18.2807 24.0304 18.3057 23.6656 18.1397C23.4766 17.9382 23.2763 17.7504 23.0647 17.5764C22.921 17.6419 22.7833 17.717 22.6516 17.8017C22.726 19.016 22.1627 19.4917 20.9616 19.2288C20.9616 20.1302 20.9616 21.0315 20.9616 21.9329C22.8644 21.9329 24.7673 21.9329 26.6701 21.9329C26.826 21.3387 27.2016 20.9506 27.7968 20.7686C28.8141 20.5824 29.5027 20.9704 29.8624 21.9329C29.9991 23.3483 29.3606 24.0369 27.947 23.9985C27.311 23.8809 26.8854 23.5179 26.6701 22.9093C24.5674 22.8468 22.4643 22.8092 20.3607 22.7967C20.223 22.7591 20.1353 22.6715 20.0978 22.5338C20.0602 21.4324 20.0477 20.3307 20.0602 19.2288C18.8591 19.4917 18.2957 19.016 18.3702 17.8017C18.2385 17.717 18.1007 17.6419 17.957 17.5764C17.7329 17.7629 17.52 17.9632 17.3186 18.1773C17.4029 19.0477 17.0899 19.7363 16.3797 20.2428C14.882 21.1498 13.2545 21.6755 11.4974 21.8202C8.53657 22.1969 5.6322 21.9466 2.7843 21.0691C1.89438 20.7943 1.15577 20.306 0.568476 19.6044C0.423681 19.3527 0.311012 19.0898 0.230469 18.8157C0.292925 13.7509 0.330481 8.68077 0.343138 3.60541C0.545281 3.17749 0.833217 2.81447 1.20693 2.51627C2.5403 1.68786 3.99248 1.18708 5.56346 1.01402C8.61026 0.580395 11.6148 0.780721 14.577 1.61492C15.5442 1.89164 16.358 2.40488 17.0181 3.15473C17.0682 3.25486 17.1183 3.35506 17.1684 3.45518C17.2632 4.25092 17.3133 5.05215 17.3186 5.85878C17.52 6.07285 17.7329 6.2731 17.957 6.45968C18.1007 6.39411 18.2385 6.319 18.3702 6.23435C18.2957 5.02 18.8591 4.54431 20.0602 4.80721C20.0477 3.70531 20.0602 2.60363 20.0978 1.50225C20.1258 1.43345 20.1634 1.37081 20.2104 1.31447C22.3576 1.22802 24.5108 1.16545 26.6701 1.12669C26.9032 0.52346 27.3288 0.147904 27.947 2.09984e-07ZM28.0972 0.901352C28.7583 0.948748 29.0462 1.2993 28.961 1.95293C28.7418 2.36793 28.4038 2.50561 27.947 2.36605C27.5178 2.10488 27.4052 1.74186 27.609 1.27691C27.7446 1.1022 27.9074 0.977065 28.0972 0.901352ZM8.34263 1.65248C10.4745 1.61898 12.5526 1.93197 14.577 2.59139C16.9939 3.65513 16.9688 4.68169 14.5019 5.671C11.8798 6.50152 9.20079 6.75195 6.46482 6.42213C4.87479 6.30007 3.37254 5.87448 1.95806 5.14521C1.02071 4.55776 0.970628 3.90676 1.80783 3.19229C3.18514 2.42839 4.66236 1.97772 6.23948 1.84026C6.95192 1.77619 7.65302 1.71354 8.34263 1.65248ZM1.13182 5.70856C2.753 6.64514 4.50563 7.18347 6.3897 7.32348C8.76364 7.56084 11.1171 7.4357 13.4503 6.94792C14.4991 6.72378 15.4631 6.31066 16.3421 5.70856C16.3922 5.78367 16.3922 5.85878 16.3421 5.9339C15.611 6.61479 14.935 7.34083 14.3141 8.11216C14.2614 8.36965 14.2864 8.62007 14.3892 8.86329C14.5907 9.05227 14.7785 9.2526 14.9525 9.46419C14.89 9.5894 14.8273 9.71454 14.7648 9.83975C14.4835 9.89962 14.1955 9.93717 13.901 9.95242C13.4444 10.1019 13.2441 10.4149 13.3001 10.8913C9.74686 11.7074 6.24163 11.5447 2.7843 10.4031C2.15068 10.1684 1.63741 9.78026 1.24449 9.23885C1.13656 8.06642 1.099 6.88963 1.13182 5.70856ZM19.3091 5.70856C20.1103 5.70856 20.9115 5.70856 21.7127 5.70856C21.7002 6.06001 21.7128 6.41049 21.7502 6.76014C21.7878 6.89782 21.8754 6.98547 22.0131 7.02303C22.3994 7.17265 22.7875 7.31033 23.1774 7.43615C23.523 7.31792 23.8109 7.10505 24.0412 6.79769C24.0913 6.74759 24.1413 6.74759 24.1914 6.79769C24.7308 7.32453 25.2566 7.86286 25.7688 8.41261C25.5697 8.64929 25.3568 8.87463 25.1303 9.08863C25.1178 9.17628 25.1053 9.26386 25.0927 9.35152C25.2436 9.7916 25.4064 10.2297 25.581 10.666C25.6373 10.713 25.7 10.7506 25.7688 10.7787C26.1184 10.8161 26.4689 10.8287 26.8203 10.8162C26.8203 11.6174 26.8203 12.4186 26.8203 13.2198C26.4689 13.2074 26.1184 13.2199 25.7688 13.2574C25.6311 13.2949 25.5434 13.3826 25.5059 13.5203C25.3562 13.9065 25.2186 14.2946 25.0927 14.6845C25.211 15.0301 25.4238 15.318 25.7312 15.5483C25.7813 15.5984 25.7813 15.6484 25.7312 15.6985C25.2044 16.2379 24.666 16.7637 24.1163 17.2759C23.8796 17.0769 23.6543 16.864 23.4403 16.6374C23.3526 16.6249 23.265 16.6124 23.1774 16.5999C22.7373 16.7508 22.2992 16.9136 21.8629 17.0881C21.8159 17.1445 21.7783 17.2071 21.7502 17.2759C21.7128 17.6255 21.7002 17.976 21.7127 18.3275C20.9115 18.3275 20.1103 18.3275 19.3091 18.3275C19.3215 17.976 19.309 17.6255 19.2715 17.2759C19.234 17.1382 19.1463 17.0506 19.0086 17.013C18.6224 16.8634 18.2343 16.7257 17.8444 16.5999C17.4988 16.7181 17.2109 16.931 16.9806 17.2383C16.9305 17.2884 16.8805 17.2884 16.8304 17.2383C16.291 16.7115 15.7652 16.1732 15.253 15.6234C15.452 15.3867 15.6649 15.1614 15.8914 14.9474C15.904 14.8598 15.9165 14.7722 15.929 14.6845C15.7781 14.2444 15.6153 13.8063 15.4408 13.37C15.3844 13.323 15.3218 13.2855 15.253 13.2574C14.9033 13.2199 14.5529 13.2074 14.2014 13.2198C14.2014 12.4186 14.2014 11.6174 14.2014 10.8162C14.5529 10.8287 14.9033 10.8161 15.253 10.7787C15.3907 10.7411 15.4783 10.6534 15.5159 10.5158C15.6655 10.1295 15.8032 9.74143 15.929 9.35152C15.8108 9.00593 15.5979 8.71802 15.2905 8.48773C15.2404 8.43762 15.2404 8.3876 15.2905 8.3375C15.8174 7.79812 16.3557 7.27233 16.9055 6.76014C17.1421 6.95918 17.3675 7.17205 17.5815 7.39859C17.6691 7.41114 17.7567 7.4236 17.8444 7.43615C18.2845 7.28525 18.7226 7.12248 19.1588 6.94792C19.2059 6.89158 19.2434 6.82894 19.2715 6.76014C19.309 6.41049 19.3215 6.06001 19.3091 5.70856ZM34.7072 6.23435C35.4169 6.42678 35.6172 6.85245 35.3081 7.51126C34.6668 7.96772 34.2161 7.8175 33.956 7.06059C34.0055 6.58843 34.2558 6.31299 34.7072 6.23435ZM1.13182 10.5158C2.32453 11.2767 3.62649 11.7649 5.03768 11.9805C7.79596 12.469 10.5376 12.4064 13.2625 11.7927C13.2669 12.4513 13.317 13.1023 13.4127 13.7456C13.5428 13.9046 13.7055 14.0173 13.901 14.0836C14.1764 14.1086 14.4518 14.1337 14.7272 14.1587C14.8119 14.2904 14.887 14.4282 14.9525 14.5718C14.6821 14.8292 14.4567 15.1171 14.2765 15.4356C11.7214 16.1983 9.11757 16.4236 6.46482 16.1117C4.93515 15.9856 3.48297 15.585 2.10828 14.9099C1.74897 14.7258 1.46104 14.4629 1.24449 14.1212C1.13645 12.9237 1.0989 11.7218 1.13182 10.5158ZM31.252 11.2669C32.1969 11.3169 32.4473 11.755 32.0031 12.5814C31.4709 12.9037 31.0578 12.7911 30.7637 12.2434C30.6866 11.7967 30.8494 11.4713 31.252 11.2669ZM1.13182 15.3981C2.05833 15.9786 3.05984 16.3917 4.13632 16.6374C7.11093 17.2559 10.0904 17.281 13.0747 16.7126C13.561 16.6098 14.0368 16.472 14.5019 16.2994C15.1267 16.8867 15.7402 17.4876 16.3421 18.1021C16.3922 18.3776 16.3922 18.6529 16.3421 18.9284C15.9492 19.4698 15.436 19.8579 14.8023 20.0926C10.7954 21.4446 6.78938 21.4446 2.7843 20.0926C2.21327 19.8718 1.72504 19.5338 1.3196 19.0786C1.24649 18.9365 1.19641 18.7863 1.16938 18.6279C1.13183 17.5516 1.11931 16.475 1.13182 15.3981ZM34.5569 16.2243C35.3295 16.2927 35.5924 16.6933 35.3456 17.4261C34.9653 17.8855 34.5647 17.9106 34.1438 17.5012C33.8513 16.9349 33.989 16.5092 34.5569 16.2243ZM27.947 21.6324C28.6975 21.5443 29.0356 21.8698 28.961 22.6089C28.4854 23.3099 28.0096 23.3099 27.5339 22.6089C27.4468 22.18 27.5845 21.8545 27.947 21.6324Z" fill="url(#paint0_linear_1861_1541)"/>
<path opacity="0.86" fill-rule="evenodd" clip-rule="evenodd" d="M2.48351 8.03679C2.88917 7.99668 3.26473 8.08433 3.61019 8.29968C3.77761 8.49144 3.80266 8.70424 3.68531 8.93814C3.58373 9.043 3.45854 9.0931 3.30974 9.08836C3.02242 9.03849 2.74701 8.95083 2.48351 8.82547C2.28675 8.56273 2.28675 8.29983 2.48351 8.03679Z" fill="url(#paint1_linear_1861_1541)"/>
<path opacity="0.856" fill-rule="evenodd" clip-rule="evenodd" d="M2.63378 12.8447C3.05374 12.8716 3.41678 13.0218 3.72292 13.2954C3.8489 13.6826 3.71119 13.9079 3.3098 13.9714C3.05179 13.905 2.80142 13.8174 2.55867 13.7085C2.24371 13.3843 2.26874 13.0964 2.63378 12.8447Z" fill="url(#paint2_linear_1861_1541)"/>
<path opacity="0.86" fill-rule="evenodd" clip-rule="evenodd" d="M2.48351 17.7262C2.88917 17.6861 3.26473 17.7738 3.61019 17.9891C3.77761 18.1809 3.80266 18.3937 3.68531 18.6276C3.58373 18.7324 3.45854 18.7825 3.30974 18.7778C3.02242 18.7279 2.74701 18.6403 2.48351 18.5149C2.28675 18.2522 2.28675 17.9893 2.48351 17.7262Z" fill="url(#paint3_linear_1861_1541)"/>
<path opacity="0.9" fill-rule="evenodd" clip-rule="evenodd" d="M20.1746 8.86328C22.26 8.89573 23.4118 9.94731 23.6298 12.018C23.4545 13.9459 22.403 14.9975 20.475 15.1727C18.5295 14.9923 17.4779 13.9282 17.3203 11.9805C17.4823 10.204 18.4338 9.16493 20.1746 8.86328ZM20.2497 9.76463C19.3035 9.94648 18.6651 10.4973 18.3343 11.4171C18.0948 12.7532 18.608 13.667 19.8741 14.1587C21.518 14.3812 22.4694 13.6676 22.7284 12.018C22.5221 10.5849 21.6958 9.83374 20.2497 9.76463Z" fill="url(#paint4_linear_1861_1541)"/>
<defs>
<linearGradient id="paint0_linear_1861_1541" x1="-0.202755" y1="-9.36907e-07" x2="36.1198" y2="23.6373" gradientUnits="userSpaceOnUse">
<stop offset="0.11" stop-color="#60D7AD"/>
<stop offset="0.76" stop-color="#213C3A"/>
</linearGradient>
<linearGradient id="paint1_linear_1861_1541" x1="2.3189" y1="8.02734" x2="3.84194" y2="8.90855" gradientUnits="userSpaceOnUse">
<stop offset="0.11" stop-color="#60D7AD"/>
<stop offset="0.76" stop-color="#213C3A"/>
</linearGradient>
<linearGradient id="paint2_linear_1861_1541" x1="2.32273" y1="12.8447" x2="3.89382" y2="13.7048" gradientUnits="userSpaceOnUse">
<stop offset="0.11" stop-color="#60D7AD"/>
<stop offset="0.76" stop-color="#213C3A"/>
</linearGradient>
<linearGradient id="paint3_linear_1861_1541" x1="2.3189" y1="17.7168" x2="3.84194" y2="18.598" gradientUnits="userSpaceOnUse">
<stop offset="0.11" stop-color="#60D7AD"/>
<stop offset="0.76" stop-color="#213C3A"/>
</linearGradient>
<linearGradient id="paint4_linear_1861_1541" x1="17.2447" y1="8.86328" x2="24.8474" y2="12.1466" gradientUnits="userSpaceOnUse">
<stop offset="0.11" stop-color="#60D7AD"/>
<stop offset="0.76" stop-color="#213C3A"/>
</linearGradient>
</defs>
</svg>
