<svg width="24" height="24" viewBox="0 0 24 24" fill="none" xmlns="http://www.w3.org/2000/svg">
<path opacity="0.944" fill-rule="evenodd" clip-rule="evenodd" d="M13.5 0C13.9531 0 14.4062 0 14.8594 0C16.9466 0.375727 18.4231 1.53198 19.2891 3.46875C19.4118 3.78796 19.4977 4.11609 19.5469 4.45312C21.5812 5.02669 22.7922 6.3548 23.1797 8.4375C23.409 10.7997 22.4793 12.5263 20.3906 13.6172C19.9416 13.8154 19.4728 13.9404 18.9844 13.9922C16.797 14.0156 14.6094 14.0235 12.4219 14.0156C12.4219 14.4062 12.4219 14.7969 12.4219 15.1875C14.3751 15.1797 16.3282 15.1875 18.2812 15.2109C18.773 15.3277 19.0777 15.6324 19.1953 16.125C19.2187 16.3432 19.2265 16.5619 19.2188 16.7812C20.5001 16.7734 21.7814 16.7812 23.0625 16.8047C23.5348 16.9255 23.8472 17.2146 24 17.6719C24 18.1562 24 18.6406 24 19.125C23.8675 19.5156 23.6097 19.7968 23.2266 19.9688C23.1876 20.2668 23.1954 20.5637 23.25 20.8594C23.6176 21.0182 23.8676 21.2838 24 21.6562C24 22.1563 24 22.6562 24 23.1562C23.8281 23.5469 23.5469 23.8281 23.1562 24C20.25 24 17.3438 24 14.4375 24C13.7373 23.6931 13.456 23.154 13.5938 22.3828C13.4736 21.6866 13.7236 21.1788 14.3438 20.8594C14.3905 20.5484 14.4061 20.2359 14.3906 19.9219C13.9853 19.8055 13.7274 19.5399 13.6172 19.125C13.5859 18.6406 13.5859 18.1562 13.6172 17.6719C13.7551 17.2058 14.0598 16.9168 14.5312 16.8047C15.8124 16.7812 17.0937 16.7734 18.375 16.7812C18.3827 16.6087 18.375 16.4368 18.3516 16.2656C18.3125 16.164 18.2422 16.0937 18.1406 16.0547C14.0469 16.0234 9.95311 16.0234 5.85938 16.0547C5.7578 16.0937 5.68748 16.164 5.64844 16.2656C5.62505 16.4368 5.61727 16.6087 5.625 16.7812C6.90633 16.7734 8.18761 16.7812 9.46875 16.8047C9.94022 16.9168 10.2449 17.2058 10.3828 17.6719C10.4141 18.1562 10.4141 18.6406 10.3828 19.125C10.2726 19.5399 10.0147 19.8055 9.60938 19.9219C9.59391 20.2359 9.60952 20.5484 9.65625 20.8594C10.2812 21.185 10.5312 21.7006 10.4062 22.4062C10.5388 23.1694 10.2576 23.7006 9.5625 24C6.65625 24 3.75 24 0.84375 24C0.453125 23.8281 0.171875 23.5469 0 23.1562C0 22.6562 0 22.1563 0 21.6562C0.13236 21.2838 0.38236 21.0182 0.75 20.8594C0.804558 20.5637 0.812372 20.2668 0.773438 19.9688C0.390336 19.7968 0.132524 19.5156 0 19.125C0 18.6406 0 18.1562 0 17.6719C0.152748 17.2146 0.465248 16.9255 0.9375 16.8047C2.21865 16.7812 3.4999 16.7734 4.78125 16.7812C4.70179 16.262 4.84242 15.8167 5.20312 15.4453C5.3573 15.3292 5.52919 15.2511 5.71875 15.2109C7.6718 15.1875 9.62494 15.1797 11.5781 15.1875C11.5781 14.7969 11.5781 14.4062 11.5781 14.0156C9.18745 14.0235 6.79683 14.0156 4.40625 13.9922C2.53008 13.6906 1.35039 12.6203 0.867188 10.7812C0.565702 9.08114 1.07351 7.68272 2.39062 6.58594C3.03262 6.11409 3.75137 5.84062 4.54688 5.76562C5.01717 3.8501 6.22031 2.68604 8.15625 2.27344C8.70558 2.18585 9.25247 2.18585 9.79688 2.27344C10.7146 1.00497 11.949 0.24716 13.5 0ZM13.5938 0.84375C15.7798 0.737072 17.3813 1.64332 18.3984 3.5625C18.59 4.03175 18.7306 4.51613 18.8203 5.01562C18.875 5.07033 18.9297 5.12498 18.9844 5.17969C21.3849 5.78381 22.5021 7.32286 22.3359 9.79688C22.0597 11.217 21.2706 12.2405 19.9688 12.8672C19.6217 13.0089 19.2624 13.1026 18.8906 13.1484C16.7344 13.1719 14.5782 13.1797 12.4219 13.1719C12.4219 12.7813 12.4219 12.3906 12.4219 12C13.4689 12.0078 14.5157 12 15.5625 11.9766C16.2577 11.6696 16.5545 11.1306 16.4531 10.3594C17.5476 9.88153 17.868 9.08466 17.4141 7.96875C16.9059 7.23684 16.2262 7.0103 15.375 7.28906C14.5434 7.72603 14.2388 8.40572 14.4609 9.32812C14.65 9.83747 15.0015 10.1812 15.5156 10.3594C15.57 10.5607 15.5779 10.7639 15.5391 10.9688C15.4844 11.0235 15.4297 11.0781 15.375 11.1328C14.3908 11.1562 13.4064 11.1641 12.4219 11.1562C12.4219 9.95311 12.4219 8.75002 12.4219 7.54688C13.4875 7.14127 13.8391 6.39127 13.4766 5.29688C13.0034 4.47227 12.3081 4.19883 11.3906 4.47656C10.4761 4.96936 10.1871 5.71153 10.5234 6.70312C10.7563 7.13114 11.1079 7.41239 11.5781 7.54688C11.5781 8.75002 11.5781 9.95311 11.5781 11.1562C10.5936 11.1641 9.60923 11.1562 8.625 11.1328C8.5703 11.0781 8.51564 11.0235 8.46094 10.9688C8.42212 10.7639 8.42995 10.5607 8.48438 10.3594C9.42816 9.96 9.77972 9.25688 9.53906 8.25C9.18581 7.44422 8.56861 7.09266 7.6875 7.19531C6.64884 7.5158 6.2348 8.21114 6.44531 9.28125C6.61884 9.83761 6.98602 10.197 7.54688 10.3594C7.44548 11.1306 7.74234 11.6696 8.4375 11.9766C9.48427 12 10.5311 12.0078 11.5781 12C11.5781 12.3906 11.5781 12.7813 11.5781 13.1719C9.21872 13.1797 6.85931 13.1719 4.5 13.1484C3.05049 12.8888 2.1208 12.0529 1.71094 10.6406C1.44207 8.9205 2.07488 7.6627 3.60938 6.86719C4.06131 6.6893 4.53006 6.59555 5.01562 6.58594C5.09934 6.54914 5.16966 6.49448 5.22656 6.42188C5.56509 4.52085 6.68227 3.40365 8.57812 3.07031C9.11278 3.06645 9.64402 3.0977 10.1719 3.16406C10.9817 1.9 12.1223 1.12656 13.5938 0.84375ZM11.9531 5.20312C12.4462 5.24297 12.7274 5.50861 12.7969 6C12.7344 6.46875 12.4688 6.73439 12 6.79688C11.5319 6.735 11.2663 6.46936 11.2031 6C11.2643 5.54836 11.5143 5.28277 11.9531 5.20312ZM7.875 8.01562C8.51133 8.03841 8.80036 8.36653 8.74219 9C8.53392 9.50728 8.16675 9.67134 7.64062 9.49219C7.101 9.05808 7.08539 8.60498 7.59375 8.13281C7.6927 8.0932 7.78645 8.05416 7.875 8.01562ZM15.8438 8.01562C16.4603 8.03053 16.765 8.34305 16.7578 8.95312C16.5386 9.53691 16.1402 9.70097 15.5625 9.44531C15.1664 9.06745 15.1351 8.66119 15.4688 8.22656C15.5906 8.14242 15.7156 8.07211 15.8438 8.01562ZM1.07812 17.625C3.86328 17.6019 6.64453 17.6254 9.42188 17.6953C9.47817 17.7376 9.51727 17.7923 9.53906 17.8594C9.57033 18.2188 9.57033 18.5781 9.53906 18.9375C9.50002 19.0391 9.4297 19.1094 9.32812 19.1484C7.56258 19.1719 5.79694 19.1797 4.03125 19.1719C4.04847 18.9625 4.02503 18.7594 3.96094 18.5625C3.69459 18.3048 3.4446 18.3204 3.21094 18.6094C3.18756 18.7962 3.17974 18.9837 3.1875 19.1719C2.9375 19.1719 2.6875 19.1719 2.4375 19.1719C2.45109 18.9639 2.42765 18.7608 2.36719 18.5625C2.1476 18.3306 1.91322 18.315 1.66406 18.5156C1.59943 18.7283 1.57599 18.947 1.59375 19.1719C1.42117 19.1796 1.24929 19.1718 1.07812 19.1484C0.976561 19.1094 0.906248 19.0391 0.867188 18.9375C0.835936 18.5781 0.835936 18.2188 0.867188 17.8594C0.915234 17.7569 0.985547 17.6787 1.07812 17.625ZM14.6719 17.625C17.457 17.6019 20.2383 17.6254 23.0156 17.6953C23.0719 17.7376 23.111 17.7923 23.1328 17.8594C23.1641 18.2188 23.1641 18.5781 23.1328 18.9375C23.0938 19.0391 23.0235 19.1094 22.9219 19.1484C21.1563 19.1719 19.3907 19.1797 17.625 19.1719C17.6422 18.9625 17.6188 18.7594 17.5547 18.5625C17.3203 18.3125 17.0859 18.3125 16.8516 18.5625C16.7875 18.7594 16.764 18.9625 16.7812 19.1719C16.5313 19.1719 16.2812 19.1719 16.0312 19.1719C16.0485 18.9625 16.025 18.7594 15.9609 18.5625C15.6946 18.3048 15.4446 18.3204 15.2109 18.6094C15.1875 18.7962 15.1797 18.9837 15.1875 19.1719C15.0149 19.1796 14.8431 19.1718 14.6719 19.1484C14.5703 19.1094 14.5 19.0391 14.4609 18.9375C14.4297 18.5781 14.4297 18.2188 14.4609 17.8594C14.509 17.7569 14.5793 17.6787 14.6719 17.625ZM1.64062 20.0156C4.01563 20.0156 6.39061 20.0156 8.76562 20.0156C8.76562 20.2656 8.76562 20.5156 8.76562 20.7656C6.39061 20.7656 4.01563 20.7656 1.64062 20.7656C1.64062 20.5156 1.64062 20.2656 1.64062 20.0156ZM15.2344 20.0156C17.6094 20.0156 19.9844 20.0156 22.3594 20.0156C22.3594 20.2656 22.3594 20.5156 22.3594 20.7656C19.9844 20.7656 17.6094 20.7656 15.2344 20.7656C15.2344 20.5156 15.2344 20.2656 15.2344 20.0156ZM1.125 21.6094C3.8438 21.6015 6.56255 21.6094 9.28125 21.6328C9.39558 21.6691 9.48155 21.7394 9.53906 21.8438C9.57033 22.2188 9.57033 22.5938 9.53906 22.9688C9.48436 23.0235 9.4297 23.0781 9.375 23.1328C7.5938 23.1562 5.81255 23.1641 4.03125 23.1562C4.04484 22.9483 4.0214 22.7452 3.96094 22.5469C3.7224 22.305 3.48802 22.305 3.25781 22.5469C3.19372 22.7437 3.17028 22.9469 3.1875 23.1562C2.9375 23.1562 2.6875 23.1562 2.4375 23.1562C2.46286 22.9243 2.4238 22.7055 2.32031 22.5C2.05673 22.3012 1.82235 22.3325 1.61719 22.5938C1.59381 22.7806 1.58599 22.9681 1.59375 23.1562C1.4056 23.164 1.2181 23.1562 1.03125 23.1328C0.976561 23.0781 0.921877 23.0235 0.867188 22.9688C0.835936 22.5938 0.835936 22.2188 0.867188 21.8438C0.930544 21.7383 1.01648 21.6602 1.125 21.6094ZM14.7188 21.6094C17.4375 21.6015 20.1563 21.6094 22.875 21.6328C22.9949 21.6649 23.0808 21.7352 23.1328 21.8438C23.1641 22.2188 23.1641 22.5938 23.1328 22.9688C23.0781 23.0235 23.0235 23.0781 22.9688 23.1328C21.1875 23.1562 19.4063 23.1641 17.625 23.1562C17.6422 22.9469 17.6188 22.7437 17.5547 22.5469C17.3186 22.3064 17.0842 22.3064 16.8516 22.5469C16.7875 22.7437 16.764 22.9469 16.7812 23.1562C16.5313 23.1562 16.2812 23.1562 16.0312 23.1562C16.0448 22.9483 16.0214 22.7452 15.9609 22.5469C15.7224 22.305 15.488 22.305 15.2578 22.5469C15.1937 22.7437 15.1703 22.9469 15.1875 23.1562C14.9993 23.164 14.8118 23.1562 14.625 23.1328C14.5703 23.0781 14.5156 23.0235 14.4609 22.9688C14.4297 22.5938 14.4297 22.2188 14.4609 21.8438C14.5268 21.7386 14.6128 21.6605 14.7188 21.6094Z" fill="url(#paint0_linear_1862_1580)"/>
<defs>
<linearGradient id="paint0_linear_1862_1580" x1="-0.2875" y1="-9.36907e-07" x2="28.6316" y2="12.4891" gradientUnits="userSpaceOnUse">
<stop offset="0.11" stop-color="#60D7AD"/>
<stop offset="0.76" stop-color="#213C3A"/>
</linearGradient>
</defs>
</svg>
