<svg width="30" height="23" viewBox="0 0 30 23" fill="none" xmlns="http://www.w3.org/2000/svg">
<path opacity="0.929" fill-rule="evenodd" clip-rule="evenodd" d="M13.5669 0.0215223C16.1579 -0.162027 18.1499 0.828455 19.5428 2.99297C20.7635 5.41179 20.5764 7.71196 18.9815 9.89333C19.3007 10.2125 19.6199 10.5317 19.939 10.8508C20.1041 10.6857 20.2691 10.5206 20.4342 10.3556C20.663 10.3016 20.8831 10.3237 21.0945 10.4216C21.7879 11.1149 22.4812 11.8083 23.1746 12.5016C23.8392 13.5071 23.6961 14.3764 22.7454 15.1099C22.013 15.4318 21.3307 15.3438 20.6984 14.8457C19.981 14.1505 19.2877 13.4351 18.6183 12.6997C18.5743 12.5236 18.5743 12.3475 18.6183 12.1714C18.7834 12.0064 18.9485 11.8413 19.1136 11.6762C18.7944 11.3571 18.4753 11.0379 18.1561 10.7187C16.3186 12.1053 14.3046 12.4245 12.1142 11.6762C9.24614 10.3324 8.00255 8.07625 8.38336 4.9079C8.85787 2.73835 10.1235 1.23064 12.1802 0.384699C12.643 0.23058 13.1053 0.109517 13.5669 0.0215223ZM13.6989 1.14407C16.1172 1.03764 17.8451 2.07215 18.8825 4.24758C19.5964 6.3752 19.1451 8.21307 17.5288 9.76126C15.4696 11.3187 13.3786 11.3627 11.2558 9.89333C9.28926 8.05777 8.90402 5.93378 10.1002 3.52123C10.9565 2.20725 12.1561 1.41487 13.6989 1.14407ZM20.6323 11.7092C21.2429 12.2204 21.8261 12.7706 22.3822 13.36C22.5274 13.8174 22.3624 14.1035 21.8869 14.2184C21.7769 14.1634 21.6668 14.1084 21.5568 14.0534C21.0395 13.5361 20.5222 13.0188 20.005 12.5016C19.961 12.4576 19.961 12.4136 20.005 12.3695C20.2276 12.158 20.4367 11.9379 20.6323 11.7092Z" fill="url(#paint0_linear_1735_1138)"/>
<path opacity="0.941" fill-rule="evenodd" clip-rule="evenodd" d="M2.73846 3.25609C4.16933 3.24506 5.60003 3.25609 7.03055 3.28911C7.3137 3.53811 7.3687 3.83526 7.19563 4.18054C7.08681 4.2609 6.96577 4.31591 6.83246 4.34562C5.5338 4.36761 4.23519 4.38966 2.93656 4.41165C2.83429 4.49181 2.75725 4.59086 2.70545 4.7088C2.67243 9.22097 2.66142 13.7331 2.67243 18.2454C5.64394 18.2344 8.61539 18.2454 11.5868 18.2784C11.7047 18.3302 11.8038 18.4072 11.8839 18.5095C12.1241 18.8927 12.3772 19.2669 12.6433 19.6321C14.14 19.7201 15.6367 19.7201 17.1335 19.6321C17.3995 19.2669 17.6526 18.8927 17.8928 18.5095C17.973 18.4072 18.0721 18.3302 18.19 18.2784C21.1614 18.2454 24.1328 18.2344 27.1043 18.2454C27.1153 13.7331 27.1043 9.22097 27.0713 4.7088C27.0195 4.59086 26.9425 4.49181 26.8402 4.41165C25.2114 4.38966 23.5826 4.36761 21.9538 4.34562C21.5148 4.18252 21.3938 3.88538 21.5906 3.45419C21.6503 3.37488 21.7273 3.31981 21.8218 3.28911C23.5606 3.24506 25.2995 3.24506 27.0383 3.28911C27.5947 3.42744 27.9579 3.76856 28.1278 4.3126C28.2258 8.9544 28.2588 13.5987 28.2269 18.2454C29.5189 17.9747 30.0031 18.4809 29.6796 19.7641C29.88 21.4431 29.1757 22.5106 27.5665 22.9667C19.1144 23.0107 10.6623 23.0107 2.21021 22.9667C0.601049 22.5106 -0.103289 21.4431 0.0971775 19.7641C-0.226334 18.4809 0.2579 17.9747 1.54988 18.2454C1.53888 13.7112 1.54988 9.17693 1.5829 4.64276C1.69021 3.94137 2.0754 3.47915 2.73846 3.25609ZM1.15369 19.3679C4.4776 19.3459 7.80121 19.3679 11.1245 19.434C11.3906 19.7991 11.6437 20.1733 11.8839 20.5565C11.9641 20.6588 12.0631 20.7358 12.1811 20.7876C13.9859 20.8317 15.7908 20.8317 17.5957 20.7876C17.7136 20.7358 17.8127 20.6588 17.8928 20.5565C18.1331 20.1733 18.3862 19.7991 18.6522 19.434C21.9755 19.3679 25.2991 19.3459 28.6231 19.3679C28.6482 19.9272 28.5931 20.4775 28.458 21.0187C28.2397 21.4421 27.8986 21.7172 27.4345 21.8441C19.0704 21.8882 10.7064 21.8882 2.34227 21.8441C1.62076 21.6447 1.23557 21.1715 1.18671 20.4244C1.15373 20.073 1.14273 19.7208 1.15369 19.3679Z" fill="url(#paint1_linear_1735_1138)"/>
<path opacity="0.924" fill-rule="evenodd" clip-rule="evenodd" d="M12.4434 4.11351C13.6763 4.10248 14.9088 4.11351 16.1412 4.14653C16.4982 4.27727 16.6192 4.53044 16.5044 4.9059C16.4494 5.04899 16.3504 5.14804 16.2073 5.20304C14.9527 5.24709 13.6981 5.24709 12.4434 5.20304C12.1966 5.11066 12.0866 4.93455 12.1133 4.67478C12.1006 4.41297 12.2107 4.22583 12.4434 4.11351Z" fill="url(#paint2_linear_1735_1138)"/>
<path opacity="0.928" fill-rule="evenodd" clip-rule="evenodd" d="M12.5128 6.82347C13.7016 6.81244 14.8902 6.82347 16.0786 6.85649C16.4752 6.96689 16.6182 7.22 16.5078 7.61586C16.4559 7.73379 16.3789 7.83284 16.2767 7.913C14.978 7.95705 13.6794 7.95705 12.3808 7.913C12.0976 7.664 12.0426 7.36685 12.2157 7.02157C12.3248 6.96221 12.4238 6.89617 12.5128 6.82347Z" fill="url(#paint3_linear_1735_1138)"/>
<defs>
<linearGradient id="paint0_linear_1735_1138" x1="8.1335" y1="-5.97257e-07" x2="26.5431" y2="7.93427" gradientUnits="userSpaceOnUse">
<stop offset="0.11" stop-color="#60D7AD"/>
<stop offset="0.76" stop-color="#213C3A"/>
</linearGradient>
<linearGradient id="paint1_linear_1735_1138" x1="-0.3567" y1="3.25195" x2="29.5382" y2="22.7192" gradientUnits="userSpaceOnUse">
<stop offset="0.11" stop-color="#60D7AD"/>
<stop offset="0.76" stop-color="#213C3A"/>
</linearGradient>
<linearGradient id="paint2_linear_1735_1138" x1="12.0562" y1="4.10937" x2="13.686" y2="6.88106" gradientUnits="userSpaceOnUse">
<stop offset="0.11" stop-color="#60D7AD"/>
<stop offset="0.76" stop-color="#213C3A"/>
</linearGradient>
<linearGradient id="paint3_linear_1735_1138" x1="12.0642" y1="6.81934" x2="13.6957" y2="9.58772" gradientUnits="userSpaceOnUse">
<stop offset="0.11" stop-color="#60D7AD"/>
<stop offset="0.76" stop-color="#213C3A"/>
</linearGradient>
</defs>
</svg>
