<svg width="25" height="24" viewBox="0 0 25 24" fill="none" xmlns="http://www.w3.org/2000/svg">
<path opacity="0.946" fill-rule="evenodd" clip-rule="evenodd" d="M12.0471 0.00322039C12.299 -0.0126982 12.5403 0.0303978 12.7711 0.132513C13.8054 0.546251 15.8971 1.52566 16.9314 1.93939C16.7762 2.40485 16.8021 2.30142 16.6728 2.61172C16.5694 2.6462 15.6155 2.23568 15.5121 2.2012C14.4261 1.76161 13.34 1.32201 12.2539 0.882413C9.65291 1.93044 7.04978 2.9734 4.44463 4.0113C4.38443 6.4642 4.37585 8.92077 4.41877 11.381C4.552 15.8685 6.43967 19.3939 10.0818 21.9572C10.7311 22.3594 11.4034 22.7214 12.0988 23.0432C12.2022 23.0777 12.3056 23.0777 12.4091 23.0432C16.1078 21.3266 18.53 18.508 19.6753 14.5875C19.8575 13.8912 19.9782 13.1844 20.0374 12.4671C20.1185 9.65768 20.1357 6.84773 20.0891 4.03716C19.567 3.81499 18.0298 3.15669 17.5003 2.94788C17.6896 2.52973 17.552 2.8703 17.6813 2.53414C17.7446 2.36942 17.7589 2.32405 17.7847 2.22384C18.3536 2.44795 20.0632 3.06316 20.6321 3.28726C20.7644 3.3227 20.8592 3.40028 20.9166 3.51999C20.9511 6.51959 20.9511 9.51919 20.9166 12.5188C20.4062 17.0854 18.2254 20.5936 14.3743 23.0432C13.7039 23.4475 12.9971 23.7664 12.2539 24C10.6455 23.4374 9.21461 22.5841 7.9614 21.44C5.40988 19.0347 3.95318 16.0783 3.5913 12.5705C3.54 9.51494 3.55724 6.46363 3.64301 3.41656C6.4466 2.27259 9.24792 1.13481 12.0471 0.00322039Z" fill="url(#paint0_linear_1861_1532)"/>
<path opacity="0.929" fill-rule="evenodd" clip-rule="evenodd" d="M0.433512 7.42174C0.6134 7.4054 0.785794 7.43125 0.950684 7.49931C1.19203 7.74068 1.43338 7.98199 1.67472 8.22336C1.99071 8.22791 2.30101 8.2624 2.60563 8.32679C2.73194 8.53635 2.74056 8.75185 2.63149 8.97325C2.59268 9.00563 2.54958 9.03149 2.5022 9.05083C2.29533 9.05947 2.08846 9.06805 1.88159 9.07669C1.6345 9.08233 1.39315 9.05647 1.15755 8.99911C0.836958 8.69584 0.535276 8.3769 0.252501 8.04235C0.17972 7.78666 0.240053 7.57979 0.433512 7.42174Z" fill="url(#paint1_linear_1861_1532)"/>
<path opacity="0.929" fill-rule="evenodd" clip-rule="evenodd" d="M23.6029 7.42144C24.1113 7.33502 24.3095 7.54189 24.1977 8.04205C23.9149 8.37661 23.6132 8.69555 23.2926 8.99882C23.057 9.05617 22.8157 9.08203 22.5686 9.07639C22.3617 9.06776 22.1548 9.05917 21.948 9.05053C21.792 8.97146 21.723 8.84216 21.7411 8.66265C21.7361 8.53719 21.7706 8.42512 21.8445 8.32649C22.1491 8.2621 22.4594 8.22761 22.7754 8.22306C23.0459 7.94394 23.3217 7.67672 23.6029 7.42144Z" fill="url(#paint2_linear_1861_1532)"/>
<path opacity="0.967" fill-rule="evenodd" clip-rule="evenodd" d="M0.436245 10.7318C1.12602 10.7231 1.81558 10.7318 2.50493 10.7576C2.59975 10.7835 2.66008 10.8438 2.68594 10.9386C2.72042 11.0766 2.72042 11.2144 2.68594 11.3524C2.66008 11.4472 2.59975 11.5075 2.50493 11.5334C1.81537 11.5679 1.12581 11.5679 0.436245 11.5334C0.280266 11.4543 0.211306 11.325 0.229376 11.1455C0.218123 10.9611 0.287077 10.8232 0.436245 10.7318Z" fill="url(#paint3_linear_1861_1532)"/>
<path opacity="0.967" fill-rule="evenodd" clip-rule="evenodd" d="M21.948 10.7318C22.6377 10.7231 23.3273 10.7318 24.0166 10.7576C24.1114 10.7835 24.1718 10.8438 24.1977 10.9386C24.2322 11.0766 24.2322 11.2144 24.1977 11.3524C24.1718 11.4472 24.1114 11.5075 24.0166 11.5334C23.3271 11.5679 22.6375 11.5679 21.948 11.5334C21.792 11.4543 21.723 11.325 21.7411 11.1455C21.7298 10.9611 21.7988 10.8232 21.948 10.7318Z" fill="url(#paint4_linear_1861_1532)"/>
<path opacity="0.929" fill-rule="evenodd" clip-rule="evenodd" d="M1.26208 13.2141C1.71593 13.1913 2.16414 13.2171 2.60673 13.2916C2.73304 13.5012 2.74166 13.7167 2.63259 13.9381C2.59378 13.9705 2.55068 13.9963 2.50329 14.0157C2.22747 14.0329 1.95164 14.0502 1.67582 14.0674C1.41559 14.345 1.13976 14.6036 0.848343 14.8432C0.279609 14.9226 0.0985991 14.6899 0.305313 14.145C0.618817 13.8228 0.937742 13.5125 1.26208 13.2141Z" fill="url(#paint5_linear_1861_1532)"/>
<path opacity="0.929" fill-rule="evenodd" clip-rule="evenodd" d="M21.9505 13.2141C22.4044 13.1913 22.8526 13.2171 23.2952 13.2916C23.5796 13.5761 23.8641 13.8605 24.1485 14.145C24.3552 14.6899 24.1742 14.9226 23.6055 14.8432C23.3141 14.6036 23.0382 14.345 22.778 14.0674C22.462 14.0629 22.1517 14.0284 21.8471 13.964C21.7473 13.7956 21.7215 13.6146 21.7695 13.4209C21.8052 13.3253 21.8655 13.2563 21.9505 13.2141Z" fill="url(#paint6_linear_1861_1532)"/>
<path opacity="0.952" fill-rule="evenodd" clip-rule="evenodd" d="M11.4807 4.11187C12.8601 4.06506 14.222 4.19436 15.5664 4.49975C16.2639 4.66312 16.8759 4.98206 17.4023 5.45652C17.4986 5.58002 17.5675 5.71789 17.6092 5.87025C17.6437 9.38702 17.6437 12.9038 17.6092 16.4206C17.4901 16.7639 17.2746 17.0311 16.9627 17.2222C15.8768 17.7825 14.7217 18.0928 13.4977 18.1531C11.9427 18.2785 10.4084 18.1577 8.89484 17.7911C8.22019 17.6133 7.62545 17.2944 7.1106 16.8343C7.01436 16.7108 6.94542 16.5729 6.90373 16.4206C6.85253 12.8491 6.86975 9.28064 6.95545 5.7151C7.25148 5.26459 7.65663 4.94565 8.1708 4.75833C9.25061 4.38545 10.3539 4.17 11.4807 4.11187ZM12.2047 4.93934C11.4321 4.96836 10.6564 5.04593 9.87747 5.17207C9.24187 5.28626 8.63853 5.49313 8.06737 5.79268C7.79239 5.91949 7.71481 6.11772 7.83464 6.38743C8.24719 6.69183 8.70401 6.90734 9.20515 7.03389C11.2393 7.55106 13.2736 7.55106 15.3078 7.03389C17.2376 6.46164 17.2376 5.89275 15.3078 5.32722C14.2864 5.0855 13.2521 4.9562 12.2047 4.93934ZM7.70535 7.37005C7.69671 8.07708 7.70535 8.78385 7.73121 9.49046C7.90156 9.78069 8.15151 9.97898 8.48111 10.0852C9.70168 10.5194 10.9601 10.7349 12.2565 10.7317C13.5117 10.7284 14.7357 10.5302 15.9284 10.1369C16.2978 10.0263 16.5822 9.81085 16.7817 9.49046C16.8162 8.78364 16.8162 8.07687 16.7817 7.37005C16.6048 7.47147 16.4238 7.56627 16.2387 7.6545C14.5556 8.19463 12.8316 8.38428 11.067 8.22339C9.88388 8.17141 8.76338 7.88697 7.70535 7.37005ZM7.70535 10.68C7.69671 11.387 7.70535 12.0937 7.73121 12.8004C7.90156 13.0906 8.15151 13.2889 8.48111 13.3951C9.70168 13.8293 10.9601 14.0448 12.2565 14.0416C13.5117 14.0383 14.7357 13.8401 15.9284 13.4468C16.2978 13.3362 16.5822 13.1207 16.7817 12.8004C16.8162 12.0935 16.8162 11.3868 16.7817 10.68C16.6048 10.7814 16.4238 10.8762 16.2387 10.9644C14.5556 11.5045 12.8316 11.6942 11.067 11.5333C9.88388 11.4813 8.76338 11.1969 7.70535 10.68ZM7.70535 13.9899C7.69671 14.6969 7.70535 15.4036 7.73121 16.1103C7.90156 16.4005 8.15151 16.5988 8.48111 16.705C9.70168 17.1392 10.9601 17.3547 12.2565 17.3515C13.5117 17.3482 14.7357 17.15 15.9284 16.7567C16.2978 16.6461 16.5822 16.4306 16.7817 16.1103C16.8162 15.4034 16.8162 14.6967 16.7817 13.9899C16.6048 14.0913 16.4238 14.1861 16.2387 14.2743C14.5556 14.8144 12.8316 15.0041 11.067 14.8432C9.88388 14.7912 8.76338 14.5068 7.70535 13.9899Z" fill="url(#paint7_linear_1861_1532)"/>
<defs>
<linearGradient id="paint0_linear_1861_1532" x1="3.3543" y1="-9.36907e-07" x2="25.9886" y2="7.07864" gradientUnits="userSpaceOnUse">
<stop offset="0.11" stop-color="#60D7AD"/>
<stop offset="0.76" stop-color="#213C3A"/>
</linearGradient>
<linearGradient id="paint1_linear_1861_1532" x1="0.192892" y1="7.41699" x2="2.69873" y2="9.03633" gradientUnits="userSpaceOnUse">
<stop offset="0.11" stop-color="#60D7AD"/>
<stop offset="0.76" stop-color="#213C3A"/>
</linearGradient>
<linearGradient id="paint2_linear_1861_1532" x1="21.7085" y1="7.40234" x2="24.2291" y2="9.02051" gradientUnits="userSpaceOnUse">
<stop offset="0.11" stop-color="#60D7AD"/>
<stop offset="0.76" stop-color="#213C3A"/>
</linearGradient>
<linearGradient id="paint3_linear_1861_1532" x1="0.196791" y1="10.7285" x2="1.52795" y2="12.4483" gradientUnits="userSpaceOnUse">
<stop offset="0.11" stop-color="#60D7AD"/>
<stop offset="0.76" stop-color="#213C3A"/>
</linearGradient>
<linearGradient id="paint4_linear_1861_1532" x1="21.7085" y1="10.7285" x2="23.0397" y2="12.4483" gradientUnits="userSpaceOnUse">
<stop offset="0.11" stop-color="#60D7AD"/>
<stop offset="0.76" stop-color="#213C3A"/>
</linearGradient>
<linearGradient id="paint5_linear_1861_1532" x1="0.192879" y1="13.2061" x2="2.69185" y2="14.8297" gradientUnits="userSpaceOnUse">
<stop offset="0.11" stop-color="#60D7AD"/>
<stop offset="0.76" stop-color="#213C3A"/>
</linearGradient>
<linearGradient id="paint6_linear_1861_1532" x1="21.7163" y1="13.2061" x2="24.215" y2="14.8291" gradientUnits="userSpaceOnUse">
<stop offset="0.11" stop-color="#60D7AD"/>
<stop offset="0.76" stop-color="#213C3A"/>
</linearGradient>
<linearGradient id="paint7_linear_1861_1532" x1="6.7461" y1="4.10254" x2="20.6223" y2="8.67615" gradientUnits="userSpaceOnUse">
<stop offset="0.11" stop-color="#60D7AD"/>
<stop offset="0.76" stop-color="#213C3A"/>
</linearGradient>
</defs>
</svg>
