<svg width="27" height="24" viewBox="0 0 27 24" fill="none" xmlns="http://www.w3.org/2000/svg">
<path opacity="0.902" fill-rule="evenodd" clip-rule="evenodd" d="M2.10075 6C2.5707 6.07046 3.03224 6.18159 3.48537 6.33333C3.65901 6.50631 3.68465 6.70287 3.56229 6.92308C3.39532 7.022 3.21584 7.04764 3.02383 7C2.69123 6.92113 2.36645 6.81856 2.04947 6.69231C1.83748 6.442 1.85458 6.21123 2.10075 6Z" fill="url(#paint0_linear_1861_1530)"/>
<path opacity="0.902" fill-rule="evenodd" clip-rule="evenodd" d="M4.04688 6.46094C4.4772 6.52135 4.90457 6.59827 5.32893 6.69171C5.61334 7.0274 5.54493 7.27525 5.1238 7.4353C4.70659 7.36863 4.29634 7.27463 3.89303 7.15325C3.72006 6.8656 3.77134 6.63483 4.04688 6.46094Z" fill="url(#paint1_linear_1861_1530)"/>
<path opacity="0.903" fill-rule="evenodd" clip-rule="evenodd" d="M6.04985 6.76855C6.46215 6.81153 6.87241 6.87138 7.28062 6.94804C7.45426 7.12102 7.4799 7.31758 7.35754 7.53779C7.22487 7.61543 7.07959 7.64958 6.92164 7.64035C6.57636 7.62122 6.23451 7.5785 5.896 7.51214C5.65918 7.19666 5.71046 6.94876 6.04985 6.76855Z" fill="url(#paint2_linear_1861_1530)"/>
<path opacity="0.9" fill-rule="evenodd" clip-rule="evenodd" d="M2.09747 10.3584C2.56685 10.4287 3.02839 10.5398 3.48209 10.6917C3.7 10.9379 3.6829 11.1601 3.43081 11.3584C2.9282 11.361 2.44957 11.2499 1.99491 11.0251C1.89564 10.8862 1.87 10.7323 1.91799 10.5635C1.95336 10.4687 2.01319 10.4002 2.09747 10.3584Z" fill="url(#paint3_linear_1861_1530)"/>
<path opacity="0.896" fill-rule="evenodd" clip-rule="evenodd" d="M4.09923 10.8203C4.50961 10.8916 4.91989 10.9685 5.32999 11.0511C5.53271 11.2221 5.56692 11.4186 5.43256 11.6408C5.34405 11.7193 5.24148 11.7706 5.12487 11.7947C4.72954 11.7288 4.33638 11.6519 3.94538 11.5639C3.79697 11.4147 3.75424 11.2352 3.81717 11.0254C3.89409 10.9245 3.9881 10.8561 4.09923 10.8203Z" fill="url(#paint4_linear_1861_1530)"/>
<path opacity="0.9" fill-rule="evenodd" clip-rule="evenodd" d="M5.89392 11.1793C6.3613 11.1687 6.82284 11.2115 7.27853 11.3075C7.48366 11.5297 7.48366 11.752 7.27853 11.9742C6.81135 12.0104 6.34982 11.9762 5.89392 11.8716C5.69161 11.641 5.69161 11.4102 5.89392 11.1793Z" fill="url(#paint5_linear_1861_1530)"/>
<path opacity="0.898" fill-rule="evenodd" clip-rule="evenodd" d="M2.09881 14.7178C2.5679 14.7914 3.02943 14.9025 3.48342 15.0511C3.70133 15.2973 3.68424 15.5195 3.43214 15.7178C2.93482 15.7132 2.45619 15.6106 1.99624 15.4101C1.83771 15.1434 1.8719 14.9126 2.09881 14.7178Z" fill="url(#paint6_linear_1861_1530)"/>
<path opacity="0.901" fill-rule="evenodd" clip-rule="evenodd" d="M3.94523 15.2314C4.41267 15.2411 4.87421 15.301 5.32984 15.4109C5.51159 15.562 5.5543 15.7414 5.45805 15.9494C5.37692 16.0628 5.26579 16.1312 5.12471 16.1545C4.72901 16.0886 4.33584 16.0117 3.94523 15.9238C3.74222 15.693 3.74222 15.4623 3.94523 15.2314Z" fill="url(#paint7_linear_1861_1530)"/>
<path opacity="0.905" fill-rule="evenodd" clip-rule="evenodd" d="M5.94683 15.5391C6.39581 15.5379 6.84027 15.5806 7.28017 15.6673C7.54412 16.0297 7.46719 16.2775 7.0494 16.4109C6.66473 16.3624 6.28012 16.3025 5.89555 16.2314C5.68042 15.9772 5.69755 15.7465 5.94683 15.5391Z" fill="url(#paint8_linear_1861_1530)"/>
<path opacity="0.928" fill-rule="evenodd" clip-rule="evenodd" d="M10.1006 0C12.2215 0.000128205 14.324 0.196708 16.4083 0.589744C17.5431 0.791251 18.6029 1.18441 19.5877 1.76923C19.7947 1.95898 19.9827 2.16411 20.1518 2.38462C23.0729 3.04927 24.808 4.85267 25.357 7.79487C25.6158 10.4647 24.65 12.5587 22.4595 14.0769C22.7055 14.6458 22.9448 15.2185 23.1775 15.7949C23.4276 15.8301 23.6241 15.9497 23.7672 16.1538C24.5435 18.0554 25.3298 19.9529 26.1262 21.8462C26.436 23.0393 25.9916 23.7573 24.7929 24C24.2545 23.957 23.8271 23.7176 23.5108 23.2821C22.6215 21.2473 21.7754 19.196 20.9724 17.1282C20.9908 16.9959 21.025 16.8677 21.0749 16.7436C20.8342 16.1338 20.5863 15.527 20.3313 14.9231C20.3143 15.3846 20.2971 15.8462 20.28 16.3077C20.2144 16.6868 20.0349 17.003 19.7416 17.2564C19.3526 17.559 18.9252 17.7984 18.4595 17.9744C16.1935 18.7035 13.8687 19.0795 11.4852 19.1026C8.60712 19.2353 5.76954 18.9617 2.97236 18.2821C2.17353 18.0675 1.43849 17.7256 0.767228 17.2564C0.459024 16.9903 0.279537 16.657 0.228766 16.2564C0.194578 11.7949 0.194578 7.33333 0.228766 2.87179C0.238399 2.64733 0.306775 2.4422 0.433894 2.25641C0.798038 1.84094 1.23394 1.5247 1.74159 1.30769C3.24527 0.730944 4.80083 0.371969 6.40825 0.230769C7.64405 0.102708 8.87482 0.0257846 10.1006 0ZM9.89543 0.769231C12.4112 0.734415 14.8898 1.01647 17.3313 1.61538C17.8923 1.76777 18.4222 1.99 18.9211 2.28205C16.8659 2.36936 15.2078 3.21552 13.9467 4.82051C10.9329 5.19933 7.92436 5.13949 4.92107 4.64103C3.72953 4.47154 2.60133 4.11256 1.53646 3.5641C1.33988 3.4359 1.17748 3.2735 1.04928 3.07692C0.99472 2.80115 1.08874 2.58747 1.33133 2.4359C1.66765 2.20788 2.02663 2.01984 2.40825 1.87179C3.87431 1.38029 5.37861 1.07259 6.92107 0.948718C7.91938 0.86739 8.91082 0.807559 9.89543 0.769231ZM18.357 3.07692C20.8216 2.93728 22.6934 3.91164 23.9724 6C25.0251 8.18349 24.837 10.2518 23.4083 12.2051C21.7526 14.0844 19.7098 14.6912 17.28 14.0256C14.8367 13.0816 13.5375 11.2953 13.3826 8.66667C13.654 5.55815 15.3122 3.69492 18.357 3.07692ZM0.972356 4.15385C1.59929 4.51826 2.26596 4.80031 2.97236 5C5.75261 5.67631 8.57312 5.94979 11.4339 5.82051C12.0869 5.79554 12.7364 5.76133 13.3826 5.71795C12.8045 6.85308 12.5651 8.05821 12.6647 9.33333C9.66184 9.56205 6.68748 9.36549 3.74159 8.74359C2.87836 8.55862 2.07494 8.23385 1.33133 7.76923C1.15856 7.64795 1.04745 7.48554 0.997997 7.28205C0.972356 6.23944 0.963812 5.19672 0.972356 4.15385ZM0.972356 8.46154C1.55484 8.84692 2.18731 9.12897 2.86979 9.30769C4.61622 9.78108 6.394 10.0546 8.20312 10.1282C9.65687 10.2357 11.1098 10.2271 12.5621 10.1026C12.6476 10.1196 12.733 10.1368 12.8185 10.1538C13.1617 11.5163 13.8626 12.653 14.9211 13.5641C11.5827 14.0309 8.24933 13.9968 4.92107 13.4615C3.73553 13.2772 2.60733 12.9182 1.53646 12.3846C1.33988 12.2564 1.17748 12.094 1.04928 11.8974C0.973997 10.7555 0.948356 9.61021 0.972356 8.46154ZM0.972356 12.9231C1.7159 13.3906 2.51932 13.7239 3.38261 13.9231C7.49225 14.7977 11.6205 14.8917 15.7672 14.2051C16.7942 14.7439 17.8882 15.0345 19.0493 15.0769C19.2095 15.0382 19.3719 15.0211 19.5365 15.0256C19.545 15.4363 19.5365 15.8465 19.5108 16.2564C19.4217 16.4483 19.2935 16.6107 19.1262 16.7436C18.2812 17.2363 17.3752 17.5781 16.4083 17.7692C12.6769 18.4726 8.93328 18.541 5.17748 17.9744C4.21468 17.8234 3.27451 17.5841 2.35697 17.2564C1.88355 17.0754 1.46475 16.8105 1.10056 16.4615C1.05634 16.3802 1.02215 16.2947 0.997997 16.2051C0.972356 15.1112 0.963812 14.0172 0.972356 12.9231ZM21.6903 14.4615C21.7844 14.4934 21.8443 14.5618 21.8698 14.6667C22.0566 15.1418 22.2532 15.6119 22.4595 16.0769C22.2245 16.1865 21.9852 16.2806 21.7416 16.359C21.5588 15.8306 21.3536 15.3093 21.1262 14.7949C21.1336 14.7553 21.1507 14.7211 21.1775 14.6923C21.3591 14.6269 21.53 14.55 21.6903 14.4615ZM23.0749 16.6667C23.1411 16.6953 23.1838 16.7466 23.2031 16.8205C23.9945 18.6994 24.7552 20.5883 25.4852 22.4872C25.3344 23.1437 24.9584 23.3318 24.357 23.0513C24.1841 22.8853 24.0559 22.6888 23.9724 22.4615C23.2525 20.7057 22.526 18.9535 21.7929 17.2051C22.2274 17.0293 22.6548 16.8498 23.0749 16.6667Z" fill="url(#paint9_linear_1861_1530)"/>
<defs>
<linearGradient id="paint0_linear_1861_1530" x1="1.88155" y1="6" x2="3.49647" y2="7.18312" gradientUnits="userSpaceOnUse">
<stop offset="0.11" stop-color="#60D7AD"/>
<stop offset="0.76" stop-color="#213C3A"/>
</linearGradient>
<linearGradient id="paint1_linear_1861_1530" x1="3.77251" y1="6.46094" x2="5.32479" y2="7.63601" gradientUnits="userSpaceOnUse">
<stop offset="0.11" stop-color="#60D7AD"/>
<stop offset="0.76" stop-color="#213C3A"/>
</linearGradient>
<linearGradient id="paint2_linear_1861_1530" x1="5.72983" y1="6.76855" x2="7.15137" y2="7.952" gradientUnits="userSpaceOnUse">
<stop offset="0.11" stop-color="#60D7AD"/>
<stop offset="0.76" stop-color="#213C3A"/>
</linearGradient>
<linearGradient id="paint3_linear_1861_1530" x1="1.8737" y1="10.3584" x2="3.46343" y2="11.5523" gradientUnits="userSpaceOnUse">
<stop offset="0.11" stop-color="#60D7AD"/>
<stop offset="0.76" stop-color="#213C3A"/>
</linearGradient>
<linearGradient id="paint4_linear_1861_1530" x1="3.76841" y1="10.8203" x2="5.32454" y2="12.0093" gradientUnits="userSpaceOnUse">
<stop offset="0.11" stop-color="#60D7AD"/>
<stop offset="0.76" stop-color="#213C3A"/>
</linearGradient>
<linearGradient id="paint5_linear_1861_1530" x1="5.72194" y1="11.1777" x2="7.0561" y2="12.3794" gradientUnits="userSpaceOnUse">
<stop offset="0.11" stop-color="#60D7AD"/>
<stop offset="0.76" stop-color="#213C3A"/>
</linearGradient>
<linearGradient id="paint6_linear_1861_1530" x1="1.87764" y1="14.7178" x2="3.46666" y2="15.9095" gradientUnits="userSpaceOnUse">
<stop offset="0.11" stop-color="#60D7AD"/>
<stop offset="0.76" stop-color="#213C3A"/>
</linearGradient>
<linearGradient id="paint7_linear_1861_1530" x1="3.77242" y1="15.2314" x2="5.26407" y2="16.4283" gradientUnits="userSpaceOnUse">
<stop offset="0.11" stop-color="#60D7AD"/>
<stop offset="0.76" stop-color="#213C3A"/>
</linearGradient>
<linearGradient id="paint8_linear_1861_1530" x1="5.72588" y1="15.5391" x2="7.14608" y2="16.7261" gradientUnits="userSpaceOnUse">
<stop offset="0.11" stop-color="#60D7AD"/>
<stop offset="0.76" stop-color="#213C3A"/>
</linearGradient>
<linearGradient id="paint9_linear_1861_1530" x1="-0.108555" y1="-9.36907e-07" x2="30.4022" y2="14.2847" gradientUnits="userSpaceOnUse">
<stop offset="0.11" stop-color="#60D7AD"/>
<stop offset="0.76" stop-color="#213C3A"/>
</linearGradient>
</defs>
</svg>
