<svg width="23" height="24" viewBox="0 0 23 24" fill="none" xmlns="http://www.w3.org/2000/svg">
<path opacity="0.912" fill-rule="evenodd" clip-rule="evenodd" d="M7.35538 0.00960855C8.41904 -0.0610312 9.34371 0.257824 10.1294 0.966178C11.369 -0.106508 12.7241 -0.273907 14.1949 0.463979C14.9748 0.978743 15.493 1.6882 15.7493 2.59235C17.3007 2.03955 18.608 2.3903 19.6712 3.64457C20.4847 4.87926 20.5246 6.13878 19.7908 7.42302C20.9419 8.38141 21.3325 9.5931 20.9626 11.058C20.5295 12.2882 19.6766 13.0455 18.4038 13.3298C17.8939 13.3538 17.3837 13.3617 16.8732 13.3538C16.8653 15.3945 16.8732 17.4352 16.8972 19.4758C16.9848 19.691 17.1363 19.8425 17.3515 19.9302C18.0847 19.9541 18.8181 19.9621 19.5516 19.9541C19.8074 19.0364 20.4133 18.6299 21.3691 18.7345C22.3972 19.0602 22.7878 19.7537 22.5409 20.815C22.1889 21.585 21.591 21.9118 20.7474 21.7955C20.0862 21.6441 19.6877 21.2375 19.5516 20.5759C18.7522 20.5962 17.955 20.5723 17.1602 20.5041C16.6328 20.3116 16.3379 19.937 16.2754 19.3801C16.2595 18.025 16.2435 16.6698 16.2276 15.3147C15.2063 17.0911 13.6678 18.0637 11.6121 18.2323C11.6121 19.1251 11.6121 20.0178 11.6121 20.9107C12.7016 21.2398 13.0922 21.9572 12.7839 23.0629C12.3813 23.8352 11.7515 24.1301 10.8947 23.9478C10.034 23.6114 9.6753 22.9816 9.81855 22.0585C10.0115 21.475 10.4021 21.0924 10.9903 20.9107C11.0382 20.0184 11.0541 19.1256 11.0382 18.2323C8.96974 18.0557 7.43128 17.0673 6.42273 15.2669C6.4068 16.7017 6.39082 18.1366 6.3749 19.5715C6.2295 20.1313 5.87078 20.4581 5.29876 20.5519C4.58133 20.5679 3.8639 20.5838 3.14647 20.5998C2.80594 21.5913 2.1204 21.9739 1.08985 21.7477C0.249796 21.3669 -0.0770304 20.7213 0.109367 19.8106C0.427952 18.9934 1.02581 18.6347 1.90293 18.7345C2.55177 18.889 2.96628 19.2876 3.14647 19.9302C3.87984 19.9621 4.61323 19.9621 5.34658 19.9302C5.52714 19.8612 5.66264 19.7416 5.75313 19.5715C5.82387 17.5012 5.84778 15.4286 5.82487 13.3538C4.64939 13.5479 3.59716 13.2848 2.66819 12.5646C1.62628 11.5296 1.33133 10.3099 1.78336 8.90571C2.19032 7.9566 2.87587 7.30297 3.83999 6.94474C3.68145 5.93685 3.90465 5.02811 4.50959 4.21851C4.23414 2.67429 4.72041 1.43872 5.96836 0.511808C6.40422 0.252434 6.86653 0.0850341 7.35538 0.00960855ZM7.59452 0.58355C8.56559 0.574946 9.34682 0.949601 9.93812 1.70752C10.0657 1.80318 10.1932 1.80318 10.3207 1.70752C11.0796 0.763672 12.0521 0.428873 13.2383 0.703121C14.4122 1.12846 15.0738 1.96545 15.2232 3.21412C15.2935 3.29312 15.3811 3.34095 15.4862 3.3576C16.8243 2.63934 18.028 2.81471 19.0973 3.88372C19.9579 5.03217 19.9579 6.18006 19.0973 7.32737C19.0654 7.43895 19.0654 7.55058 19.0973 7.66216C20.5169 8.66948 20.8517 9.96085 20.1017 11.5363C19.6432 12.2004 19.0134 12.607 18.2124 12.7559C17.7663 12.7798 17.3199 12.7878 16.8732 12.7798C16.8074 10.3641 15.6914 8.63437 13.5253 7.59042C11.1063 6.71258 8.99389 7.18288 7.18798 9.00136C6.25059 10.0852 5.79622 11.3367 5.82487 12.7559C4.63925 12.98 3.62687 12.6691 2.78776 11.8232C2.22766 11.097 2.05229 10.2839 2.26165 9.38399C2.50458 8.59898 2.99084 8.01705 3.72042 7.63825C3.99089 7.54513 4.25394 7.44148 4.50959 7.32737C4.4938 6.96019 4.45396 6.59353 4.39002 6.22731C4.41096 5.88146 4.48271 5.54666 4.60524 5.22291C4.77776 4.86822 4.97701 4.53342 5.2031 4.21851C4.81306 2.66889 5.32325 1.52898 6.73361 0.798778C7.01958 0.695397 7.30655 0.623654 7.59452 0.58355ZM11.1817 7.75782C11.5648 7.74993 11.8278 7.92532 11.9708 8.28394C12.3334 9.02078 12.5805 9.79402 12.7122 10.6036C11.8021 10.5606 10.8933 10.5845 9.98595 10.6754C10.0883 9.75533 10.3673 8.89442 10.8229 8.09262C10.9375 7.96985 11.0571 7.85826 11.1817 7.75782ZM10.2251 7.90131C9.75532 8.80072 9.46835 9.75729 9.36418 10.771C8.34046 10.9002 7.38389 11.1872 6.49447 11.6319C7.02345 9.66809 8.26699 8.42455 10.2251 7.90131ZM12.473 7.90131C14.3814 8.39074 15.593 9.58645 16.108 11.4884C15.2331 11.0544 14.3084 10.7834 13.3339 10.6754C13.1903 9.70248 12.9033 8.77781 12.473 7.90131ZM10.4642 11.2015C11.2252 11.1859 11.9825 11.2019 12.7361 11.2493C12.8758 12.1692 12.8917 13.0939 12.7839 14.0234C12.7357 14.0787 12.6719 14.1106 12.5926 14.119C11.6933 14.2219 10.7925 14.2379 9.89029 14.1668C9.82003 13.2094 9.82802 12.2528 9.9142 11.2971C10.1024 11.2666 10.2858 11.2348 10.4642 11.2015ZM13.3818 11.2971C14.1806 11.3932 14.9458 11.6084 15.6775 11.9428C15.9679 12.0896 16.1751 12.3129 16.2993 12.6124C16.1591 12.928 15.9359 13.1672 15.6297 13.3298C14.9283 13.662 14.1949 13.8931 13.4296 14.0234C13.4441 13.1171 13.4282 12.2084 13.3818 11.2971ZM9.26852 11.345C9.29449 11.3478 9.31042 11.3638 9.31635 11.3928C9.19329 12.2849 9.19329 13.1777 9.31635 14.0712C8.37255 13.9909 7.49571 13.7119 6.68578 13.2342C6.41407 13.0603 6.34233 12.8292 6.47055 12.5407C6.8263 12.1752 7.24877 11.9122 7.73801 11.7515C8.25011 11.5996 8.76025 11.4641 9.26852 11.345ZM16.0602 13.7364C16.1078 13.7349 16.1397 13.7589 16.1558 13.8081C15.6197 15.7633 14.3761 16.9909 12.4252 17.4909C12.6502 17.1603 12.8176 16.8016 12.9274 16.4148C13.1007 15.8333 13.2362 15.2435 13.3339 14.6451C14.0875 14.5205 14.8208 14.3212 15.534 14.0473C15.7282 13.9665 15.9036 13.8628 16.0602 13.7364ZM6.5423 13.8799C6.83266 14.041 7.13556 14.1765 7.45104 14.2864C8.08343 14.4655 8.72117 14.6169 9.36418 14.7408C9.4816 15.7052 9.76857 16.614 10.2251 17.467C8.59208 17.0873 7.43626 16.1148 6.75753 14.5495C6.68067 14.3269 6.60892 14.1037 6.5423 13.8799ZM12.6165 14.693C12.6584 14.6867 12.6903 14.7026 12.7122 14.7408C12.5927 15.6652 12.2978 16.5261 11.8273 17.3235C11.6303 17.6128 11.3832 17.6846 11.086 17.5387C10.7935 17.2652 10.5783 16.9384 10.4403 16.5583C10.2287 15.9669 10.0773 15.361 9.98595 14.7408C10.8713 14.8137 11.7481 14.7977 12.6165 14.693ZM1.47248 19.2845C2.43235 19.4031 2.74324 19.9132 2.40513 20.815C1.92619 21.3465 1.41602 21.3784 0.874622 20.9107C0.456697 20.1311 0.655979 19.589 1.47248 19.2845ZM20.9387 19.2845C21.8985 19.4031 22.2094 19.9132 21.8713 20.815C21.3924 21.3465 20.8822 21.3784 20.3408 20.9107C19.9222 20.1332 20.1215 19.5912 20.9387 19.2845ZM11.086 21.4846C11.792 21.4254 12.2065 21.7443 12.3295 22.4412C12.1432 23.2677 11.649 23.5467 10.8469 23.2782C10.3582 22.9123 10.2546 22.4579 10.536 21.9151C10.687 21.7234 10.8704 21.5799 11.086 21.4846Z" fill="url(#paint0_linear_1861_1527)"/>
<path opacity="0.897" fill-rule="evenodd" clip-rule="evenodd" d="M11.0869 3.16699C11.4536 3.20687 11.5492 3.39021 11.3738 3.71702C10.4104 3.80246 9.50168 4.07349 8.64761 4.5301C7.92104 4.98725 7.53048 5.64891 7.47581 6.51499C7.17774 6.68865 6.99437 6.60897 6.92578 6.27584C7.10739 4.93798 7.84074 4.05318 9.12589 3.62136C9.76713 3.38651 10.4208 3.23505 11.0869 3.16699Z" fill="url(#paint1_linear_1861_1527)"/>
<defs>
<linearGradient id="paint0_linear_1861_1527" x1="-0.211584" y1="-9.36907e-07" x2="27.4738" y2="11.236" gradientUnits="userSpaceOnUse">
<stop offset="0.11" stop-color="#60D7AD"/>
<stop offset="0.76" stop-color="#213C3A"/>
</linearGradient>
<linearGradient id="paint1_linear_1861_1527" x1="6.87148" y1="3.16699" x2="11.7651" y2="5.95416" gradientUnits="userSpaceOnUse">
<stop offset="0.11" stop-color="#60D7AD"/>
<stop offset="0.76" stop-color="#213C3A"/>
</linearGradient>
</defs>
</svg>
