<svg width="16" height="20" viewBox="0 0 16 20" fill="none" xmlns="http://www.w3.org/2000/svg">
<path opacity="0.894" fill-rule="evenodd" clip-rule="evenodd" d="M9.75656 0.00291424C9.97568 -0.0182074 10.1162 0.0754845 10.1782 0.283991C10.205 0.725682 10.205 1.16737 10.1782 1.60906C10.0886 1.88864 9.90794 1.96226 9.6361 1.82991C9.58787 1.79367 9.55438 1.74682 9.53571 1.68937C9.50893 1.19414 9.50893 0.698911 9.53571 0.203683C9.58016 0.0987605 9.65376 0.0318374 9.75656 0.00291424Z" fill="url(#paint0_linear_1830_2964)"/>
<path opacity="0.905" fill-rule="evenodd" clip-rule="evenodd" d="M7.34544 0.443861C7.48919 0.420685 7.60965 0.460838 7.70682 0.564323C7.91084 1.00579 8.0982 1.45417 8.26897 1.90947C8.23432 2.11136 8.11386 2.22513 7.90759 2.25078C7.79966 2.23051 7.71264 2.17697 7.64659 2.09017C7.46152 1.67986 7.28749 1.26494 7.12459 0.845399C7.10359 0.659885 7.17719 0.52604 7.34544 0.443861Z" fill="url(#paint1_linear_1830_2964)"/>
<path opacity="0.912" fill-rule="evenodd" clip-rule="evenodd" d="M12.0878 0.525981C12.4603 0.480844 12.6009 0.641459 12.5094 1.00783C12.341 1.39273 12.1803 1.78089 12.0276 2.17229C11.8255 2.34412 11.6381 2.33073 11.4654 2.13213C11.4386 2.02505 11.4386 1.91798 11.4654 1.8109C11.6126 1.44952 11.7598 1.08813 11.9071 0.72675C11.9482 0.638934 12.0085 0.572013 12.0878 0.525981Z" fill="url(#paint2_linear_1830_2964)"/>
<path opacity="0.892" fill-rule="evenodd" clip-rule="evenodd" d="M5.25569 1.80935C5.39534 1.79667 5.52921 1.81674 5.65722 1.86958C5.95838 2.17073 6.25953 2.47188 6.56068 2.77304C6.70058 3.06765 6.61361 3.25503 6.29968 3.33519C6.23154 3.31918 6.16465 3.2991 6.09892 3.27496C5.78439 2.96042 5.46983 2.64588 5.1553 2.33134C5.05323 2.12808 5.08672 1.95408 5.25569 1.80935Z" fill="url(#paint3_linear_1830_2964)"/>
<path opacity="0.905" fill-rule="evenodd" clip-rule="evenodd" d="M14.0928 1.89032C14.4968 1.85893 14.6374 2.03293 14.5144 2.41231C14.2133 2.71347 13.9121 3.01462 13.611 3.31577C13.2059 3.45924 13.0252 3.3187 13.0689 2.89416C13.406 2.55032 13.7473 2.21571 14.0928 1.89032Z" fill="url(#paint4_linear_1830_2964)"/>
<path opacity="0.931" fill-rule="evenodd" clip-rule="evenodd" d="M9.63815 2.49189C11.6362 2.46311 13.0616 3.34649 13.9145 5.14204C14.5702 7.01746 14.1887 8.64369 12.7701 10.0207C12.402 10.2282 12.1143 10.5159 11.9068 10.884C11.8607 10.9745 11.8472 11.0682 11.8667 11.1651C12.1318 11.3471 12.2724 11.6014 12.2883 11.928C12.2425 12.3621 12.0149 12.6565 11.6057 12.8114C11.5457 13.1439 11.4988 13.4785 11.4651 13.8153C11.4449 13.9566 11.3713 14.057 11.2443 14.1164C10.3609 14.1432 9.47753 14.1432 8.59415 14.1164C8.52243 14.0849 8.4622 14.0381 8.41346 13.9759C8.34026 13.6315 8.28673 13.2835 8.25284 12.9319C8.11066 12.817 7.95675 12.7166 7.79107 12.6307C7.45627 12.2197 7.42278 11.7848 7.69069 11.3257C7.74602 11.2569 7.81296 11.2034 7.89146 11.1651C7.86544 10.9253 7.77176 10.7111 7.61038 10.5226C5.92179 9.33972 5.30612 7.73356 5.76331 5.70419C6.2319 4.1916 7.21567 3.18107 8.71461 2.67258C9.02367 2.58799 9.33149 2.52776 9.63815 2.49189ZM9.83891 3.17451C11.7811 3.33929 12.9791 4.36992 13.4327 6.26635C13.5732 7.3238 13.3189 8.27407 12.6698 9.11726C12.27 9.51081 11.8551 9.88557 11.425 10.2416C11.2492 10.4813 11.1488 10.749 11.1238 11.0446C10.2806 11.0446 9.43738 11.0446 8.59415 11.0446C8.54669 10.7482 8.43293 10.4805 8.25284 10.2416C7.91675 9.91881 7.56878 9.61095 7.20884 9.31803C5.93239 7.71859 5.90561 6.09907 7.12854 4.45943C7.85789 3.65634 8.76135 3.22803 9.83891 3.17451ZM8.27292 11.6871C9.30362 11.6804 10.3342 11.6871 11.3648 11.7072C11.5332 11.8269 11.5667 11.9808 11.4651 12.1689C11.435 12.1941 11.4015 12.2142 11.3648 12.2292C10.3475 12.256 9.33029 12.256 8.31307 12.2292C8.06135 12.0668 8.04798 11.8861 8.27292 11.6871ZM8.91538 12.9319C9.57121 12.9319 10.2271 12.9319 10.8829 12.9319C10.8629 13.1187 10.8495 13.3061 10.8428 13.494C10.2137 13.494 9.58462 13.494 8.95553 13.494C8.94875 13.3061 8.93537 13.1187 8.91538 12.9319Z" fill="url(#paint5_linear_1830_2964)"/>
<path opacity="0.921" fill-rule="evenodd" clip-rule="evenodd" d="M9.59472 4.0977C10.7436 4.03964 11.6203 4.4947 12.2248 5.46293C12.5287 5.97047 12.6156 6.50584 12.4858 7.06908C12.2817 7.195 12.101 7.16822 11.9437 6.98877C11.9282 5.98617 11.4664 5.28348 10.5584 4.8807C10.2438 4.78987 9.92258 4.73631 9.59472 4.72008C9.41961 4.6307 9.35938 4.49016 9.41403 4.29847C9.45519 4.21065 9.51542 4.14372 9.59472 4.0977Z" fill="url(#paint6_linear_1830_2964)"/>
<path opacity="0.935" fill-rule="evenodd" clip-rule="evenodd" d="M14.2144 13.334C14.768 13.2754 15.2431 13.436 15.6399 13.8159C16.043 14.4228 15.9694 14.9648 15.419 15.4421C13.7387 16.7575 12.0656 18.0826 10.3998 19.4173C10.1103 19.6017 9.79575 19.7021 9.45621 19.7185C7.65343 19.318 5.84651 18.9299 4.03545 18.554C3.83914 18.5659 3.65845 18.6261 3.49338 18.7347C3.25784 18.8966 3.01691 19.0505 2.77061 19.1965C2.778 19.5231 2.64417 19.7708 2.36907 19.9393C1.75556 20.0037 1.13988 20.017 0.522 19.9795C0.282342 19.9274 0.115034 19.7868 0.0200779 19.5579C-0.00669263 17.858 -0.00669263 16.1582 0.0200779 14.4583C0.0914954 14.2932 0.205263 14.1661 0.361385 14.0769C0.693637 14.0326 1.02825 14.0125 1.36523 14.0167C1.7022 14.0125 2.0368 14.0326 2.36907 14.0769C2.61883 14.2073 2.76607 14.4147 2.81076 14.6993C3.39163 14.3525 3.96715 13.9979 4.53738 13.6352C4.7675 13.5276 5.00842 13.4874 5.26014 13.5147C5.50753 13.557 5.74845 13.6239 5.98291 13.7155C7.40167 14.2241 8.82046 14.7327 10.2392 15.2413C10.3297 15.2966 10.4167 15.3569 10.5002 15.422C11.4873 14.8315 12.4711 14.2359 13.4515 13.6352C13.6966 13.498 13.9509 13.3976 14.2144 13.334ZM14.2144 14.0568C14.5106 14.0242 14.7917 14.0711 15.0577 14.1973C15.2064 14.3337 15.2532 14.501 15.1982 14.6993C13.5354 15.9872 11.8958 17.3056 10.2794 18.6544C10.0627 18.8397 9.81507 18.9669 9.53652 19.0359C7.70671 18.6271 5.87301 18.2389 4.03545 17.8714C3.55774 17.9228 3.12942 18.0968 2.75053 18.3934C2.72375 17.4163 2.72375 16.4392 2.75053 15.4622C3.44989 15.0355 4.15258 14.6139 4.85861 14.1973C5.03259 14.117 5.20662 14.117 5.38061 14.1973C6.93933 14.7437 8.49196 15.3058 10.0384 15.8838C10.4246 16.2607 10.4112 16.6221 9.99829 16.968C9.78415 17.0483 9.56997 17.0483 9.35583 16.968C8.49027 16.6222 7.62026 16.2876 6.74583 15.9641C6.34924 15.9464 6.22207 16.1271 6.36437 16.5062C7.31429 16.9032 8.27132 17.2846 9.23537 17.6506C10.1376 17.8789 10.7199 17.551 10.9821 16.6668C11.0137 16.4545 10.9936 16.247 10.9218 16.0444C10.9276 16.0134 10.941 15.9866 10.962 15.9641C12.0381 15.3059 13.1222 14.6702 14.2144 14.0568ZM0.642461 14.6993C1.12431 14.6993 1.60615 14.6993 2.088 14.6993C2.088 16.2385 2.088 17.7777 2.088 19.3169C1.60615 19.3169 1.12431 19.3169 0.642461 19.3169C0.642461 17.7777 0.642461 16.2385 0.642461 14.6993Z" fill="url(#paint7_linear_1830_2964)"/>
<defs>
<linearGradient id="paint0_linear_1830_2964" x1="9.50745" y1="-7.39257e-08" x2="10.4603" y2="0.148339" gradientUnits="userSpaceOnUse">
<stop offset="0.11" stop-color="#60D7AD"/>
<stop offset="0.76" stop-color="#213C3A"/>
</linearGradient>
<linearGradient id="paint1_linear_1830_2964" x1="7.10734" y1="0.4375" x2="8.63433" y2="0.854959" gradientUnits="userSpaceOnUse">
<stop offset="0.11" stop-color="#60D7AD"/>
<stop offset="0.76" stop-color="#213C3A"/>
</linearGradient>
<linearGradient id="paint2_linear_1830_2964" x1="11.4322" y1="0.518555" x2="12.8893" y2="0.905752" gradientUnits="userSpaceOnUse">
<stop offset="0.11" stop-color="#60D7AD"/>
<stop offset="0.76" stop-color="#213C3A"/>
</linearGradient>
<linearGradient id="paint3_linear_1830_2964" x1="5.07936" y1="1.80566" x2="6.92089" y2="2.60002" gradientUnits="userSpaceOnUse">
<stop offset="0.11" stop-color="#60D7AD"/>
<stop offset="0.76" stop-color="#213C3A"/>
</linearGradient>
<linearGradient id="paint4_linear_1830_2964" x1="13.0446" y1="1.88672" x2="14.8415" y2="2.66879" gradientUnits="userSpaceOnUse">
<stop offset="0.11" stop-color="#60D7AD"/>
<stop offset="0.76" stop-color="#213C3A"/>
</linearGradient>
<linearGradient id="paint5_linear_1830_2964" x1="5.51407" y1="2.49121" x2="16.683" y2="6.05671" gradientUnits="userSpaceOnUse">
<stop offset="0.11" stop-color="#60D7AD"/>
<stop offset="0.76" stop-color="#213C3A"/>
</linearGradient>
<linearGradient id="paint6_linear_1830_2964" x1="9.3568" y1="4.09277" x2="13.1145" y2="5.76626" gradientUnits="userSpaceOnUse">
<stop offset="0.11" stop-color="#60D7AD"/>
<stop offset="0.76" stop-color="#213C3A"/>
</linearGradient>
<linearGradient id="paint7_linear_1830_2964" x1="-0.190415" y1="13.3223" x2="10.8592" y2="24.6808" gradientUnits="userSpaceOnUse">
<stop offset="0.11" stop-color="#60D7AD"/>
<stop offset="0.76" stop-color="#213C3A"/>
</linearGradient>
</defs>
</svg>
