<svg width="14" height="20" viewBox="0 0 14 20" fill="none" xmlns="http://www.w3.org/2000/svg">
<path opacity="0.952" fill-rule="evenodd" clip-rule="evenodd" d="M6.68022 2.68652C8.60586 2.71963 9.98376 3.59709 10.8139 5.31893C11.4969 7.25506 11.0925 8.92088 9.60054 10.3164C8.18007 11.3879 6.64452 11.5799 4.99383 10.8922C2.98881 9.76756 2.22788 8.07431 2.71105 5.8125C3.35755 3.90936 4.68058 2.86738 6.68022 2.68652ZM6.63909 3.38576C4.99161 3.58977 3.90163 4.48096 3.36915 6.05929C3.03245 7.68118 3.51915 8.99051 4.82931 9.98733C6.17295 10.7825 7.51654 10.7825 8.86018 9.98733C10.3058 8.87218 10.7514 7.43941 10.1969 5.68911C9.4945 4.18235 8.30856 3.41455 6.63909 3.38576Z" fill="url(#paint0_linear_1830_2929)"/>
<path opacity="0.947" fill-rule="evenodd" clip-rule="evenodd" d="M8.24485 5.81152C8.63651 5.85401 8.75303 6.05967 8.59447 6.42849C7.90589 7.0024 7.21349 7.57137 6.51734 8.13544C6.37486 8.16905 6.23773 8.15531 6.10603 8.09431C5.74144 7.74346 5.39182 7.38015 5.05718 7.00433C4.97031 6.71156 5.07314 6.53334 5.36566 6.46962C5.45245 6.49241 5.53471 6.52671 5.61245 6.57245C5.86611 6.82611 6.11972 7.07972 6.37338 7.33338C6.99302 6.81611 7.61686 6.30884 8.24485 5.81152Z" fill="url(#paint1_linear_1830_2929)"/>
<path opacity="0.952" fill-rule="evenodd" clip-rule="evenodd" d="M6.76827 0C7.33838 0.00731769 7.7887 0.239984 8.11923 0.697995C8.31179 0.764917 8.50691 0.824963 8.70465 0.878123C8.98335 0.82014 9.26858 0.782615 9.56025 0.765543C10.4491 0.806248 10.937 1.27158 11.0238 2.16153C11.1964 2.33415 11.3691 2.50678 11.5417 2.6794C12.5961 2.859 13.069 3.48196 12.9602 4.54823C12.8669 4.70278 12.8369 4.86786 12.8701 5.04358C12.9151 5.22371 12.9602 5.40383 13.0052 5.58396C13.7593 6.17595 13.9093 6.89646 13.4555 7.7455C13.3197 7.88883 13.1771 8.02393 13.0277 8.15078C12.9799 8.34676 12.9274 8.54189 12.8701 8.7362C12.852 8.90804 12.8821 9.07317 12.9602 9.23155C13.0759 10.2946 12.6031 10.91 11.5417 11.0779C11.3916 11.258 11.2264 11.4231 11.0463 11.5732C10.9973 12.2342 10.6671 12.692 10.0556 12.9467C10.8071 14.7124 11.5651 16.4761 12.3297 18.2379C12.4859 18.6013 12.3734 18.8115 11.992 18.8684C11.4831 18.7681 10.9802 18.6481 10.4834 18.5081C10.2169 18.936 9.96167 19.3713 9.71786 19.8141C9.5689 19.9864 9.3813 20.0389 9.15497 19.9717C9.08521 19.917 9.0327 19.8495 8.99735 19.769C8.13914 17.7374 7.26853 15.7109 6.3855 13.6897C6.06325 13.5552 5.80054 13.345 5.59744 13.0593C5.34562 12.9945 5.09795 12.9194 4.85441 12.8341C4.71545 12.9092 4.58035 12.9843 4.44913 13.0593C3.75289 14.6767 3.06989 16.2978 2.40017 17.9227C2.6864 17.8624 2.97158 17.7949 3.25578 17.7201C3.45072 17.6682 3.62333 17.7058 3.77365 17.8327C3.93491 18.1402 4.10751 18.4404 4.29152 18.7333C4.85104 17.479 5.3989 16.2181 5.93518 14.9506C6.17718 14.711 6.40234 14.726 6.61066 14.9956C6.6506 15.2015 6.62057 15.3966 6.5206 15.5811C5.90776 16.9718 5.30735 18.3678 4.71932 19.769C4.68397 19.8495 4.63146 19.917 4.56171 19.9717C4.33538 20.0389 4.14777 19.9864 3.99881 19.8141C3.755 19.3713 3.49981 18.936 3.23326 18.5081C2.68113 18.6819 2.11823 18.7945 1.54457 18.8459C1.31274 18.6957 1.26023 18.4931 1.38695 18.2379C2.14498 16.4817 2.90305 14.7254 3.66107 12.9692C3.05377 12.7002 2.72355 12.2349 2.67037 11.5732C2.49024 11.4231 2.32511 11.258 2.17501 11.0779C1.29342 10.9619 0.813067 10.4666 0.733991 9.59181C0.758489 9.30221 0.796 9.01702 0.846571 8.7362C0.800999 8.53882 0.748447 8.3437 0.688959 8.15078C-0.0275891 7.5927 -0.185214 6.90218 0.216124 6.07931C0.367206 5.88333 0.532293 5.70321 0.711475 5.53893C0.764073 5.3285 0.816625 5.11838 0.869087 4.90848C0.488747 3.67961 0.924026 2.93658 2.17501 2.6794C2.34762 2.50678 2.52027 2.33415 2.69288 2.16153C2.7566 1.45479 3.12433 0.996967 3.79616 0.788059C4.17434 0.737056 4.54212 0.774586 4.89945 0.900639C5.10101 0.844615 5.30365 0.79208 5.50738 0.743027C5.67165 0.563863 5.85178 0.398744 6.04776 0.247676C6.27918 0.122753 6.51934 0.040191 6.76827 0ZM6.76827 0.765543C6.9457 0.777143 7.11083 0.829682 7.26362 0.923155C7.39354 1.10903 7.54368 1.27415 7.71394 1.41851C8.10838 1.50252 8.49867 1.60009 8.88477 1.71121C9.11336 1.64962 9.33852 1.57456 9.56025 1.48605C9.87422 1.52647 10.0919 1.69158 10.2132 1.98141C10.2226 2.18034 10.2526 2.37548 10.3033 2.56682C10.626 2.82951 10.9187 3.1222 11.1814 3.44494C12.1721 3.48989 12.4423 3.9552 11.992 4.84093C12.1316 5.24501 12.2442 5.65777 12.3297 6.07931C12.4949 6.21441 12.6599 6.3495 12.8251 6.4846C12.9752 6.75479 12.9752 7.02498 12.8251 7.29518C12.6599 7.43027 12.4949 7.56537 12.3297 7.70046C12.2442 8.12201 12.1316 8.53477 11.992 8.93884C12.4452 9.81841 12.175 10.2837 11.1814 10.3348C10.8887 10.6275 10.596 10.9202 10.3033 11.213C10.2491 11.4028 10.2191 11.5979 10.2132 11.7984C10.009 12.2193 9.68625 12.3469 9.24503 12.1811C9.11723 12.0569 8.96714 12.0119 8.79471 12.046C8.42522 12.1722 8.04997 12.2772 7.66891 12.3613C7.53476 12.5228 7.39967 12.6879 7.26362 12.8566C6.99343 13.0067 6.72324 13.0067 6.45305 12.8566C6.31795 12.6915 6.18286 12.5264 6.04776 12.3613C5.62743 12.2762 5.21467 12.1636 4.80938 12.0235C3.9282 12.476 3.46284 12.2058 3.41339 11.213C3.12068 10.9202 2.82798 10.6275 2.53527 10.3348C1.53515 10.2785 1.26496 9.80562 1.72469 8.91633C1.58023 8.52045 1.46765 8.11516 1.38695 7.70046C1.22538 7.56631 1.06029 7.43122 0.891603 7.29518C0.741512 7.02498 0.741512 6.75479 0.891603 6.4846C1.06043 6.33365 1.22556 6.18352 1.38695 6.03428C1.47526 5.62841 1.58784 5.23064 1.72469 4.84093C1.27437 3.9552 1.54457 3.48989 2.53527 3.44494C2.79794 3.1222 3.09065 2.82951 3.41339 2.56682C3.4641 2.37548 3.49409 2.18034 3.50346 1.98141C3.62477 1.69158 3.84246 1.52647 4.15642 1.48605C4.37473 1.56943 4.59237 1.64449 4.80938 1.71121C5.22052 1.61031 5.63333 1.51274 6.04776 1.41851C6.18286 1.25339 6.31795 1.08827 6.45305 0.923155C6.56225 0.868549 6.66736 0.81601 6.76827 0.765543ZM8.65961 12.8791C8.86951 12.8619 9.06463 12.907 9.24503 13.0142C9.94879 14.6466 10.6393 16.2828 11.3165 17.9227C11.0303 17.8624 10.7451 17.7949 10.4609 17.7201C10.2659 17.6682 10.0933 17.7058 9.94303 17.8327C9.78541 18.1178 9.6278 18.4031 9.47019 18.6883C9.44015 18.7483 9.41016 18.7483 9.38013 18.6883C8.67461 17.0371 7.96914 15.3859 7.26362 13.7347C7.62302 13.593 7.90826 13.3603 8.11923 13.0367C8.31264 13.0111 8.49277 12.9586 8.65961 12.8791Z" fill="url(#paint2_linear_1830_2929)"/>
<defs>
<linearGradient id="paint0_linear_1830_2929" x1="2.46771" y1="2.68652" x2="12.805" y2="7.12826" gradientUnits="userSpaceOnUse">
<stop offset="0.11" stop-color="#60D7AD"/>
<stop offset="0.76" stop-color="#213C3A"/>
</linearGradient>
<linearGradient id="paint1_linear_1830_2929" x1="4.98379" y1="5.81152" x2="8.56972" y2="8.21578" gradientUnits="userSpaceOnUse">
<stop offset="0.11" stop-color="#60D7AD"/>
<stop offset="0.76" stop-color="#213C3A"/>
</linearGradient>
<linearGradient id="paint2_linear_1830_2929" x1="-0.16425" y1="-7.80756e-07" x2="17.8589" y2="5.33612" gradientUnits="userSpaceOnUse">
<stop offset="0.11" stop-color="#60D7AD"/>
<stop offset="0.76" stop-color="#213C3A"/>
</linearGradient>
</defs>
</svg>
