<svg width="24" height="24" viewBox="0 0 24 24" fill="none" xmlns="http://www.w3.org/2000/svg">
<path opacity="0.92" fill-rule="evenodd" clip-rule="evenodd" d="M7.65146 0.0249885C8.36784 -0.0907617 8.82127 0.195616 9.01176 0.884123C9.03563 1.5044 9.0436 2.12489 9.03563 2.74558C9.672 2.74558 10.3084 2.74558 10.9448 2.74558C10.9242 2.04275 10.9481 1.34271 11.0164 0.645474C11.4038 0.00211311 11.9368 -0.149031 12.6154 0.192042C12.771 0.315758 12.8904 0.466903 12.9733 0.645474C13.0417 1.34271 13.0655 2.04275 13.0449 2.74558C13.6813 2.74558 14.3177 2.74558 14.9541 2.74558C14.9336 2.05864 14.9574 1.37451 15.0257 0.693204C15.2857 0.129702 15.7232 -0.0850814 16.3383 0.0488533C16.6298 0.165374 16.8446 0.364246 16.9826 0.645474C17.0518 1.34207 17.0757 2.04211 17.0542 2.74558C17.7249 2.72607 18.3931 2.74994 19.0589 2.81717C20.1487 3.14333 20.8567 3.85132 21.1828 4.94114C21.2501 5.60693 21.2739 6.27514 21.2544 6.94579C21.9579 6.92431 22.6579 6.94818 23.3545 7.01739C24.0043 7.40223 24.1554 7.93523 23.808 8.61633C23.6787 8.78835 23.5117 8.90767 23.3068 8.9743C22.6255 9.04256 21.9413 9.06642 21.2544 9.0459C21.2544 9.68228 21.2544 10.3187 21.2544 10.9551C21.9572 10.9345 22.6573 10.9583 23.3545 11.0267C23.9979 11.4141 24.149 11.947 23.808 12.6256C23.6842 12.7813 23.5331 12.9006 23.3545 12.9836C22.6573 13.0519 21.9572 13.0758 21.2544 13.0552C21.2544 13.6916 21.2544 14.328 21.2544 14.9644C21.9413 14.9439 22.6255 14.9677 23.3068 15.036C23.8703 15.296 24.0851 15.7334 23.9511 16.3485C23.8346 16.6401 23.6358 16.8549 23.3545 16.9929C22.6579 17.0621 21.9579 17.086 21.2544 17.0645C21.2739 17.7351 21.2501 18.4033 21.1828 19.0691C20.8567 20.1589 20.1487 20.867 19.0589 21.1931C18.3931 21.2603 17.7249 21.2842 17.0542 21.2647C17.0757 21.9682 17.0518 22.6682 16.9826 23.3648C16.5978 24.0145 16.0648 24.1657 15.3837 23.8182C15.2117 23.689 15.0923 23.5219 15.0257 23.3171C14.9574 22.6358 14.9336 21.9516 14.9541 21.2647C14.3177 21.2647 13.6813 21.2647 13.0449 21.2647C13.0655 21.9675 13.0417 22.6676 12.9733 23.3648C12.5859 24.0081 12.053 24.1593 11.3744 23.8182C11.2187 23.6945 11.0994 23.5434 11.0164 23.3648C10.9481 22.6676 10.9242 21.9675 10.9448 21.2647C10.3084 21.2647 9.672 21.2647 9.03563 21.2647C9.05615 21.9516 9.03228 22.6358 8.96403 23.3171C8.70405 23.8806 8.26656 24.0953 7.65146 23.9614C7.35993 23.8449 7.14515 23.646 7.00711 23.3648C6.93791 22.6682 6.91404 21.9682 6.93552 21.2647C6.26487 21.2842 5.59665 21.2603 4.93087 21.1931C3.84105 20.867 3.13305 20.1589 2.8069 19.0691C2.73967 18.4033 2.7158 17.7351 2.73531 17.0645C2.03183 17.086 1.3318 17.0621 0.635202 16.9929C-0.0145656 16.608 -0.165709 16.075 0.18177 15.3939C0.311003 15.2219 0.478057 15.1026 0.682932 15.036C1.36424 14.9677 2.04837 14.9439 2.73531 14.9644C2.73531 14.328 2.73531 13.6916 2.73531 13.0552C2.03247 13.0758 1.33244 13.0519 0.635202 12.9836C-0.00815929 12.5962 -0.159303 12.0632 0.18177 11.3847C0.305485 11.229 0.456631 11.1096 0.635202 11.0267C1.33244 10.9583 2.03247 10.9345 2.73531 10.9551C2.73531 10.3187 2.73531 9.68228 2.73531 9.0459C2.04837 9.06642 1.36424 9.04256 0.682932 8.9743C0.11943 8.71432 -0.0953538 8.27683 0.038581 7.66174C0.155102 7.3702 0.353974 7.15542 0.635202 7.01739C1.3318 6.94818 2.03183 6.92431 2.73531 6.94579C2.7158 6.27514 2.73967 5.60693 2.8069 4.94114C3.13305 3.85132 3.84105 3.14333 4.93087 2.81717C5.59665 2.74994 6.26487 2.72607 6.93552 2.74558C6.92755 2.09308 6.93552 1.44077 6.95938 0.788663C7.08348 0.434051 7.31416 0.179494 7.65146 0.0249885ZM7.84238 0.550015C8.10241 0.524957 8.3013 0.620416 8.439 0.836393C8.50702 1.46991 8.53088 2.10631 8.5106 2.74558C8.1606 2.74558 7.81055 2.74558 7.46055 2.74558C7.45257 2.14079 7.46055 1.53622 7.48441 0.931852C7.55028 0.746886 7.6696 0.619605 7.84238 0.550015ZM11.8517 0.550015C12.1856 0.521659 12.4004 0.664848 12.496 0.979582C12.5199 1.56803 12.5279 2.1567 12.5199 2.74558C12.1699 2.74558 11.8198 2.74558 11.4698 2.74558C11.4619 2.1567 11.4698 1.56803 11.4937 0.979582C11.5378 0.768884 11.6571 0.625695 11.8517 0.550015ZM15.861 0.550015C16.181 0.505087 16.3958 0.632368 16.5053 0.931852C16.5292 1.53622 16.5372 2.14079 16.5292 2.74558C16.1792 2.74558 15.8291 2.74558 15.4791 2.74558C15.4712 2.1726 15.4791 1.59985 15.503 1.02731C15.5427 0.803388 15.662 0.644291 15.861 0.550015ZM5.36044 3.27061C9.78341 3.26265 14.2064 3.27061 18.6293 3.29447C19.7987 3.50925 20.4907 4.20133 20.7055 5.37071C20.7374 9.79368 20.7374 14.2166 20.7055 18.6396C20.4907 19.8089 19.7987 20.501 18.6293 20.7158C14.2063 20.7476 9.78341 20.7476 5.36044 20.7158C4.19106 20.501 3.49898 19.8089 3.2842 18.6396C3.25238 14.2166 3.25238 9.79368 3.2842 5.37071C3.50756 4.20074 4.19964 3.5007 5.36044 3.27061ZM0.92158 7.47082C1.52616 7.47082 2.13073 7.47082 2.73531 7.47082C2.73531 7.82082 2.73531 8.17087 2.73531 8.52087C2.09604 8.54116 1.45964 8.51729 0.826121 8.44928C0.544859 8.2669 0.473265 8.02028 0.611337 7.70947C0.705131 7.61162 0.808547 7.53205 0.92158 7.47082ZM21.2544 7.47082C21.8592 7.46285 22.4638 7.47082 23.0682 7.49468C23.4523 7.67677 23.5398 7.95518 23.3307 8.32995C23.232 8.42837 23.1126 8.48402 22.9727 8.49701C22.4002 8.52087 21.8274 8.52884 21.2544 8.52087C21.2544 8.17087 21.2544 7.82082 21.2544 7.47082ZM0.96931 11.4801C1.55797 11.4801 2.14664 11.4801 2.73531 11.4801C2.73531 11.8301 2.73531 12.1802 2.73531 12.5302C2.14643 12.5381 1.55776 12.5302 0.96931 12.5063C0.647106 12.411 0.511873 12.1962 0.563607 11.8619C0.632562 11.6576 0.7678 11.5303 0.96931 11.4801ZM21.2544 11.4801C21.8433 11.4721 22.432 11.4801 23.0204 11.504C23.438 11.6632 23.5414 11.9417 23.3307 12.3392C23.2448 12.426 23.1414 12.4817 23.0204 12.5063C22.432 12.5302 21.8433 12.5381 21.2544 12.5302C21.2544 12.1802 21.2544 11.8301 21.2544 11.4801ZM1.01704 15.4894C1.5898 15.4894 2.16255 15.4894 2.73531 15.4894C2.73531 15.8394 2.73531 16.1895 2.73531 16.5395C2.13052 16.5474 1.52595 16.5395 0.92158 16.5156C0.522951 16.3203 0.4434 16.034 0.682932 15.6565C0.788572 15.5793 0.899939 15.5236 1.01704 15.4894ZM21.2544 15.4894C21.8274 15.4814 22.4002 15.4894 22.9727 15.5133C23.3906 15.6251 23.5258 15.8876 23.3784 16.3008C23.2958 16.4018 23.1923 16.4734 23.0682 16.5156C22.4638 16.5395 21.8592 16.5474 21.2544 16.5395C21.2544 16.1895 21.2544 15.8394 21.2544 15.4894ZM7.46055 21.2647C7.81055 21.2647 8.1606 21.2647 8.5106 21.2647C8.51857 21.8377 8.5106 22.4104 8.48673 22.983C8.37495 23.4008 8.11244 23.5361 7.69919 23.3887C7.59815 23.306 7.52656 23.2026 7.48441 23.0784C7.46055 22.4741 7.45257 21.8695 7.46055 21.2647ZM11.4698 21.2647C11.8198 21.2647 12.1699 21.2647 12.5199 21.2647C12.5279 21.8536 12.5199 22.4422 12.496 23.0307C12.3368 23.4483 12.0583 23.5517 11.6608 23.3409C11.574 23.255 11.5183 23.1516 11.4937 23.0307C11.4698 22.4422 11.4619 21.8536 11.4698 21.2647ZM15.4791 21.2647C15.8291 21.2647 16.1792 21.2647 16.5292 21.2647C16.5372 21.8695 16.5292 22.4741 16.5053 23.0784C16.3232 23.4626 16.0448 23.5501 15.6701 23.3409C15.5716 23.2422 15.516 23.1229 15.503 22.983C15.4791 22.4104 15.4712 21.8377 15.4791 21.2647Z" fill="url(#paint0_linear_1861_1526)"/>
<path opacity="0.875" fill-rule="evenodd" clip-rule="evenodd" d="M13.903 9.90483C14.2288 9.87261 14.364 10.0158 14.3087 10.3344C14.1394 10.4354 13.9564 10.507 13.7598 10.5492C13.72 10.5889 13.6802 10.6287 13.6404 10.6685C13.5746 10.8574 13.503 11.0404 13.4257 11.2174C13.1699 11.32 13.0267 11.2325 12.9961 10.9549C13.0611 10.3968 13.3634 10.0468 13.903 9.90483Z" fill="url(#paint1_linear_1861_1526)"/>
<path opacity="0.868" fill-rule="evenodd" clip-rule="evenodd" d="M10.373 10.335C10.7355 10.2805 11.0616 10.36 11.3514 10.5736C11.4608 10.8094 11.3892 10.9684 11.1366 11.0509C10.9836 10.9547 10.8165 10.8911 10.6355 10.86C10.5454 10.8741 10.4578 10.898 10.373 10.9316C10.2305 11.1628 10.0396 11.2264 9.80022 11.1225C9.67369 10.9677 9.68166 10.8166 9.82408 10.6691C9.9918 10.5259 10.1748 10.4145 10.373 10.335Z" fill="url(#paint2_linear_1861_1526)"/>
<path opacity="0.894" fill-rule="evenodd" clip-rule="evenodd" d="M9.82943 6.61168C10.731 6.52463 11.4469 6.84279 11.9773 7.56628C12.8615 6.48763 13.8957 6.32058 15.0797 7.06512C15.5376 7.47974 15.7842 7.9968 15.8195 8.61633C17.2267 9.12389 17.704 10.0944 17.2514 11.5278C17.1599 11.6951 17.0565 11.8542 16.9412 12.0051C17.414 12.5999 17.5492 13.2682 17.3469 14.0098C17.0639 14.7224 16.5548 15.1837 15.8195 15.3939C15.6806 16.6386 14.9885 17.3069 13.7433 17.3986C12.9977 17.3679 12.409 17.0497 11.9773 16.444C11.093 17.5226 10.0589 17.6897 8.87484 16.9452C8.41697 16.5305 8.17035 16.0135 8.13503 15.3939C6.77507 14.9175 6.28188 13.9788 6.65541 12.5779C6.74638 12.3679 6.86571 12.177 7.01338 12.0051C6.50005 11.3187 6.39662 10.571 6.70314 9.76184C7.01171 9.16665 7.48901 8.78482 8.13503 8.61633C8.23025 7.54322 8.79509 6.87501 9.82943 6.61168ZM9.92489 7.13671C9.66453 7.20325 9.42588 7.32257 9.20895 7.49468C8.59968 8.13211 8.52809 8.82419 8.99417 9.57092C9.07516 9.93978 8.93994 10.0591 8.58846 9.9289C8.41291 9.72896 8.29359 9.49823 8.23049 9.23682C8.20371 9.2119 8.17188 9.19601 8.13503 9.18909C7.66136 9.36048 7.32725 9.67865 7.13271 10.1437C6.92986 11.3682 7.44691 12.0444 8.68392 12.1722C8.77256 12.2286 8.82029 12.3082 8.82711 12.4108C8.80759 12.6449 8.6803 12.7324 8.44527 12.6734C8.07527 12.637 7.72522 12.5494 7.39522 12.4108C7.30563 12.5183 7.23404 12.6376 7.18044 12.7688C6.8922 13.7356 7.21041 14.4197 8.13503 14.8212C8.17188 14.8143 8.20371 14.7984 8.23049 14.7735C8.31803 14.432 8.48508 14.1377 8.73165 13.8905C9.04462 13.7643 9.19578 13.8677 9.18508 14.2007C8.95202 14.4439 8.79289 14.7303 8.70779 15.0598C8.62627 15.8913 8.96834 16.4721 9.73398 16.802C10.714 17.0002 11.3583 16.6264 11.667 15.6803C11.6989 15.0598 11.6989 14.4394 11.667 13.8189C11.5052 13.4237 11.2109 13.2726 10.784 13.3654C10.6567 13.2063 10.6567 13.0472 10.784 12.8881C11.0774 12.8018 11.3638 12.8257 11.6432 12.9597C11.6989 11.4167 11.7068 9.87343 11.667 8.32995C11.3946 7.48924 10.8139 7.09151 9.92489 7.13671ZM13.5046 7.13671C12.8737 7.29828 12.468 7.69601 12.2875 8.32995C12.2636 9.68218 12.2557 11.0346 12.2636 12.387C12.7393 12.3583 13.0973 12.5492 13.3376 12.9597C13.4991 13.3056 13.3957 13.4727 13.0273 13.4609C12.9165 13.3196 12.8051 13.1764 12.6932 13.0313C12.5641 12.9403 12.4209 12.9005 12.2636 12.912C12.242 13.901 12.2659 14.8874 12.3352 15.8712C12.4027 16.0221 12.4823 16.1653 12.5739 16.3008C13.2365 16.9756 13.9604 17.0472 14.7456 16.5156C15.4374 15.7541 15.4453 14.9824 14.7695 14.2007C14.7265 13.9844 14.814 13.8571 15.032 13.8189C15.3886 14.0362 15.6193 14.3544 15.724 14.7735C15.7508 14.7984 15.7827 14.8143 15.8195 14.8212C15.9971 14.7523 16.1642 14.6648 16.3207 14.5587C16.9875 13.9086 17.0671 13.1927 16.5593 12.4108C16.2293 12.5494 15.8793 12.637 15.5093 12.6734C15.4138 12.6654 15.3183 12.6575 15.2229 12.6495C15.0872 12.4768 15.1031 12.3177 15.2706 12.1722C15.5936 12.1706 15.8958 12.0911 16.1775 11.9335C16.9133 11.3804 17.0803 10.6883 16.6786 9.8573C16.4496 9.48964 16.1314 9.28278 15.724 9.23682C15.661 9.49823 15.5416 9.72896 15.3661 9.9289C15.0146 10.0591 14.8794 9.93978 14.9604 9.57092C15.1541 9.29991 15.2575 8.99764 15.2706 8.66406C15.1541 7.61114 14.5654 7.10206 13.5046 7.13671Z" fill="url(#paint3_linear_1861_1526)"/>
<path opacity="0.922" fill-rule="evenodd" clip-rule="evenodd" d="M6.24355 4.89361C10.062 4.88564 13.8803 4.89361 17.6987 4.91748C18.4385 5.08453 18.8919 5.53797 19.059 6.27778C19.0908 10.0961 19.0908 13.9145 19.059 17.7329C18.8919 18.4727 18.4385 18.9261 17.6987 19.0932C13.8803 19.125 10.0619 19.125 6.24355 19.0932C5.50374 18.9261 5.05031 18.4727 4.88325 17.7329C4.85142 13.9145 4.85142 10.0961 4.88325 6.27778C5.05894 5.5373 5.51238 5.07594 6.24355 4.89361ZM6.38674 5.41864C5.84648 5.53734 5.5203 5.87145 5.40828 6.42096C5.37644 10.1439 5.37644 13.8668 5.40828 17.5897C5.5276 18.1227 5.85374 18.4488 6.38674 18.5682C10.1097 18.6 13.8326 18.6 17.5555 18.5682C18.0885 18.4488 18.4146 18.1227 18.5339 17.5897C18.5658 13.8668 18.5658 10.1439 18.5339 6.42096C18.4146 5.88797 18.0885 5.56183 17.5555 5.44251C13.8326 5.41864 10.1097 5.41067 6.38674 5.41864Z" fill="url(#paint4_linear_1861_1526)"/>
<defs>
<linearGradient id="paint0_linear_1861_1526" x1="-0.287377" y1="-9.36907e-07" x2="28.6233" y2="12.4801" gradientUnits="userSpaceOnUse">
<stop offset="0.11" stop-color="#60D7AD"/>
<stop offset="0.76" stop-color="#213C3A"/>
</linearGradient>
<linearGradient id="paint1_linear_1861_1526" x1="12.9802" y1="9.90039" x2="14.5888" y2="10.5777" gradientUnits="userSpaceOnUse">
<stop offset="0.11" stop-color="#60D7AD"/>
<stop offset="0.76" stop-color="#213C3A"/>
</linearGradient>
<linearGradient id="paint2_linear_1861_1526" x1="9.69069" y1="10.3184" x2="11.0849" y2="11.5121" gradientUnits="userSpaceOnUse">
<stop offset="0.11" stop-color="#60D7AD"/>
<stop offset="0.76" stop-color="#213C3A"/>
</linearGradient>
<linearGradient id="paint3_linear_1861_1526" x1="6.4006" y1="6.59766" x2="19.5032" y2="12.3101" gradientUnits="userSpaceOnUse">
<stop offset="0.11" stop-color="#60D7AD"/>
<stop offset="0.76" stop-color="#213C3A"/>
</linearGradient>
<linearGradient id="paint4_linear_1861_1526" x1="4.68899" y1="4.89062" x2="21.8289" y2="12.2912" gradientUnits="userSpaceOnUse">
<stop offset="0.11" stop-color="#60D7AD"/>
<stop offset="0.76" stop-color="#213C3A"/>
</linearGradient>
</defs>
</svg>
