<svg width="32" height="25" viewBox="0 0 32 25" fill="none" xmlns="http://www.w3.org/2000/svg">
<path opacity="0.932" fill-rule="evenodd" clip-rule="evenodd" d="M0.988281 19.2497C0.988281 13.4015 0.988281 7.55344 0.988281 1.70529C1.25731 0.820306 1.84408 0.262876 2.74859 0.0330032C3.62852 0.00367069 4.50867 -0.00611073 5.38904 0.00366483C5.38904 0.316606 5.38904 0.629553 5.38904 0.942494C4.48593 0.916946 3.58622 0.946285 2.68991 1.03051C2.31907 1.20572 2.07458 1.48932 1.95645 1.88132C1.89818 7.67408 1.91775 13.4635 2.01513 19.2497C2.19033 19.6205 2.47394 19.865 2.86594 19.9831C5.01743 20.0027 7.16889 20.0223 9.32039 20.0418C10.6029 21.0603 11.8938 22.0676 13.1931 23.0637C13.2517 22.0473 13.2713 21.0303 13.2517 20.0125C14.484 20.0125 15.7162 20.0125 16.9484 20.0125C16.9484 20.3254 16.9484 20.6384 16.9484 20.9513C16.0291 20.9513 15.1099 20.9513 14.1906 20.9513C14.2101 22.3015 14.1906 23.651 14.1319 25C12.4001 23.6744 10.6789 22.3346 8.96833 20.9806C6.8951 20.9611 4.82183 20.9415 2.74859 20.922C1.84408 20.6921 1.25731 20.1346 0.988281 19.2497Z" fill="url(#paint0_linear_1861_1529)"/>
<path opacity="0.926" fill-rule="evenodd" clip-rule="evenodd" d="M22.5223 6.16504C24.3774 6.23621 25.7172 7.09677 26.5416 8.74682C27.2388 10.7386 26.8183 12.45 25.2801 13.881C23.665 14.9238 22.0025 15.002 20.2925 14.1158C18.6646 12.9495 18.0484 11.375 18.4442 9.39227C19.0943 7.41075 20.4536 6.33497 22.5223 6.16504ZM22.0528 7.16255C21.2156 7.32232 20.5213 7.73306 19.9698 8.39476C19.0607 9.70143 19.0216 11.0315 19.8525 12.3848C20.9558 13.7487 22.3347 14.1301 23.9892 13.529C25.6756 12.5707 26.2526 11.1527 25.7202 9.27491C24.998 7.7249 23.7756 7.02078 22.0528 7.16255Z" fill="url(#paint1_linear_1861_1529)"/>
<path opacity="0.93" fill-rule="evenodd" clip-rule="evenodd" d="M3.45312 10.624C4.95917 10.624 6.4652 10.624 7.97124 10.624C7.97124 10.9369 7.97124 11.2499 7.97124 11.5629C6.4652 11.5629 4.95917 11.5629 3.45312 11.5629C3.45312 11.2499 3.45312 10.9369 3.45312 10.624Z" fill="url(#paint2_linear_1861_1529)"/>
<path opacity="0.932" fill-rule="evenodd" clip-rule="evenodd" d="M31.0595 8.33578C31.0595 8.414 31.0595 8.49227 31.0595 8.57049C30.5924 8.96902 30.1327 9.37976 29.6806 9.8027C29.6415 10.2526 29.6415 10.7024 29.6806 11.1523C30.1327 11.5752 30.5924 11.9859 31.0595 12.3845C31.0595 12.4627 31.0595 12.541 31.0595 12.6192C30.703 13.4235 30.3509 14.2353 30.0034 15.0543C29.3569 15.0429 28.7114 15.0233 28.067 14.9956C27.7638 15.2988 27.4607 15.6019 27.1575 15.9051C27.1595 16.492 27.1889 17.0788 27.2455 17.6654C27.2414 17.74 27.2219 17.8085 27.1869 17.8708C26.3195 18.2164 25.459 18.5782 24.6051 18.9563C24.1548 18.506 23.7245 18.0366 23.3142 17.548C23.2444 17.4935 23.1662 17.474 23.0795 17.4894C23.1015 18.1185 23.0722 18.7444 22.9915 19.367C22.7009 20.2021 22.1238 20.7205 21.2605 20.922C20.1067 20.9513 18.9527 20.9611 17.7986 20.9513C17.7986 20.6384 17.7986 20.3254 17.7986 20.0125C18.9136 20.0223 20.0285 20.0125 21.1432 19.9831C21.555 19.8452 21.8582 19.5811 22.0526 19.191C22.1343 18.6277 22.1636 18.0605 22.1407 17.4894C22.0789 17.4806 22.0203 17.4904 21.9646 17.5187C21.5234 17.9892 21.0932 18.4683 20.6737 18.9563C19.8199 18.5782 18.9593 18.2164 18.092 17.8708C18.0502 17.4351 18.0502 16.9951 18.092 16.5505C16.1164 16.5407 14.141 16.5505 12.1656 16.5799C11.618 17.0493 11.0703 17.5187 10.5227 17.9881C10.464 18.0273 10.4053 18.0273 10.3466 17.9881C10.1873 17.7968 10.021 17.6109 9.84787 17.4307C9.80873 17.3916 9.80873 17.3525 9.84787 17.3133C10.4859 16.7339 11.141 16.1765 11.8135 15.641C13.8086 15.6215 15.8036 15.6019 17.7986 15.5824C17.603 15.3868 17.4074 15.1912 17.2118 14.9956C16.5674 15.0233 15.922 15.0429 15.2755 15.0543C15.0509 14.5857 14.8553 14.1066 14.6887 13.6167C13.1239 13.6069 11.5592 13.6167 9.99456 13.646C9.46846 13.9965 8.95991 14.3681 8.46896 14.7609C8.85535 15.8263 8.54237 16.6086 7.53013 17.108C6.43317 17.3275 5.71926 16.9069 5.38843 15.8464C5.27617 14.8877 5.67712 14.252 6.5913 13.9394C7.00867 13.9009 7.41941 13.9204 7.82352 13.9981C8.44015 13.5822 9.04646 13.1519 9.6425 12.7072C11.1876 12.6877 12.7328 12.6681 14.278 12.6485C14.2037 12.5701 14.1744 12.4821 14.19 12.3845C14.4931 12.1204 14.7963 11.8564 15.0994 11.5923C13.0067 11.563 10.9139 11.5532 8.82102 11.563C8.82102 11.2501 8.82102 10.9371 8.82102 10.6242C11.0899 10.6242 13.3587 10.6242 15.6275 10.6242C15.6373 10.3496 15.6275 10.0758 15.5982 9.8027C15.5246 9.76098 15.4561 9.7121 15.3928 9.65601C12.6937 9.63647 9.99456 9.61687 7.29542 9.59733C6.67532 9.11612 6.03965 8.65651 5.38843 8.21843C4.49759 8.56779 3.77392 8.35262 3.21738 7.57298C2.82653 6.71178 2.99277 5.97832 3.71614 5.3726C4.73717 4.86252 5.54887 5.08743 6.15123 6.04738C6.25502 6.27077 6.30392 6.50547 6.29792 6.7515C6.27725 7.03597 6.22834 7.30981 6.15123 7.57298C6.65517 7.92762 7.1539 8.28948 7.64748 8.6585C9.85767 8.69764 12.0678 8.69764 14.278 8.6585C14.2277 8.61807 14.1886 8.5692 14.1606 8.51181C14.2529 8.28344 14.3507 8.05853 14.454 7.83703C13.613 7.81749 12.7719 7.79789 11.9309 7.77835C11.32 7.33106 10.7038 6.89098 10.0826 6.45812C9.29184 6.77327 8.60732 6.61678 8.02888 5.98871C7.50725 5.09277 7.6344 4.30063 8.41028 3.61229C9.17144 3.21036 9.8853 3.27882 10.552 3.81766C11.0169 4.43089 11.1148 5.09588 10.8454 5.81268C11.3493 6.16732 11.848 6.52918 12.3416 6.8982C13.1824 6.92754 14.0235 6.93733 14.8647 6.92754C14.9604 6.56972 15.0973 6.2274 15.2755 5.90069C15.9212 5.91829 16.5667 5.93789 17.2118 5.95937C17.515 5.65618 17.8181 5.35306 18.1213 5.04988C18.1065 4.51439 18.0772 3.97656 18.0333 3.43626C18.0431 3.32869 18.0528 3.22111 18.0626 3.11354C18.928 2.75334 19.7887 2.38172 20.6444 1.99868C21.0845 2.47788 21.5246 2.95707 21.9646 3.43626C22.0203 3.4646 22.0789 3.47434 22.1407 3.4656C22.1504 2.97624 22.1407 2.48727 22.1113 1.99868C21.9703 1.486 21.6475 1.14372 21.1432 0.971836C16.1752 0.942497 11.2072 0.932716 6.23924 0.942497C6.23924 0.629556 6.23924 0.316609 6.23924 0.00366813C11.2464 -0.0061133 16.2534 0.00366813 21.2605 0.0330065C22.2355 0.284261 22.832 0.900368 23.0502 1.88133C23.0795 2.40905 23.0892 2.93715 23.0795 3.4656C23.1601 3.47481 23.2383 3.46501 23.3142 3.43626C23.714 2.94057 24.1345 2.46138 24.5758 1.99868C25.4419 2.3681 26.3122 2.72994 27.1869 3.0842C27.2219 3.1465 27.2414 3.21496 27.2455 3.28957C27.1889 3.87616 27.1595 4.46293 27.1575 5.04988C27.4607 5.35306 27.7638 5.65618 28.067 5.95937C28.7119 5.93572 29.3574 5.91618 30.0034 5.90069C30.3337 6.72704 30.6858 7.53871 31.0595 8.33578ZM20.3217 3.17222C20.3906 3.15937 20.4493 3.17892 20.4977 3.23089C20.843 3.61787 21.195 3.99927 21.5539 4.37509C22.2776 4.41423 23.0013 4.41423 23.7249 4.37509C24.077 3.98389 24.4291 3.59275 24.7811 3.20156C25.0051 3.21079 25.2203 3.26946 25.4266 3.37759C25.6785 3.49089 25.9327 3.59845 26.1894 3.70031C26.2188 4.28596 26.2286 4.87273 26.2187 5.46061C26.6979 5.93983 27.1771 6.41898 27.6563 6.8982C28.2425 6.89884 28.8293 6.88904 29.4166 6.86886C29.5833 7.32988 29.7593 7.7895 29.9447 8.24776C29.5628 8.64929 29.1618 9.03069 28.7418 9.39196C28.7027 10.1156 28.7027 10.8393 28.7418 11.563C29.1616 11.9245 29.5626 12.3059 29.9447 12.7072C29.7744 13.1496 29.5984 13.5897 29.4166 14.0274C28.8305 14.0699 28.2437 14.0797 27.6563 14.0568C27.1771 14.536 26.2187 15.4944 26.2187 15.4944C26.2286 16.0822 26.2188 16.669 26.1894 17.2547C25.9327 17.3565 25.6785 17.4641 25.4266 17.5774C25.2203 17.6855 25.0051 17.7442 24.7811 17.7534C24.4291 17.3622 24.077 16.9711 23.7249 16.5799C23.0013 16.5407 22.2776 16.5407 21.5539 16.5799C21.195 16.9557 20.843 17.3371 20.4977 17.7241C20.426 17.7894 20.3477 17.7992 20.263 17.7534C19.8742 17.5814 19.4831 17.4152 19.0895 17.2547C19.0436 16.6684 19.0338 16.0816 19.0601 15.4944C18.5809 15.0151 18.1018 14.536 17.6225 14.0568C17.0351 14.0797 16.4484 14.0699 15.8622 14.0274C15.686 13.5969 15.51 13.1665 15.3342 12.7365C15.7019 12.3199 16.1029 11.9288 16.537 11.563C16.5762 10.8393 16.5762 10.1156 16.537 9.39196C16.1029 9.02617 15.7019 8.63503 15.3342 8.21843C15.51 7.78844 15.686 7.35811 15.8622 6.92754C16.4482 6.88893 17.035 6.87913 17.6225 6.8982C18.1018 6.41898 18.5809 5.93983 19.0601 5.46061C19.0338 4.87338 19.0436 4.28661 19.0895 3.70031C19.5109 3.53425 19.9217 3.35823 20.3217 3.17222ZM9.17308 4.28708C9.87803 4.30826 10.1421 4.66032 9.96522 5.34326C9.68099 5.71304 9.33873 5.78152 8.93838 5.54863C8.50053 5.02916 8.57874 4.60869 9.17308 4.28708ZM4.47894 6.04738C5.2372 6.09057 5.48168 6.46217 5.2124 7.16224C4.70577 7.60261 4.29504 7.52434 3.98018 6.92754C3.91246 6.49749 4.07871 6.20411 4.47894 6.04738ZM6.76733 14.8489C7.58153 14.835 7.84558 15.2066 7.55947 15.9638C7.18787 16.355 6.81623 16.355 6.44461 15.9638C6.20293 15.4863 6.31051 15.1147 6.76733 14.8489Z" fill="url(#paint3_linear_1861_1529)"/>
<defs>
<linearGradient id="paint0_linear_1861_1529" x1="0.797093" y1="-9.75945e-07" x2="22.0033" y2="5.84662" gradientUnits="userSpaceOnUse">
<stop offset="0.11" stop-color="#60D7AD"/>
<stop offset="0.76" stop-color="#213C3A"/>
</linearGradient>
<linearGradient id="paint1_linear_1861_1529" x1="18.2258" y1="6.16504" x2="28.524" y2="10.6011" gradientUnits="userSpaceOnUse">
<stop offset="0.11" stop-color="#60D7AD"/>
<stop offset="0.76" stop-color="#213C3A"/>
</linearGradient>
<linearGradient id="paint2_linear_1861_1529" x1="3.399" y1="10.624" x2="4.61331" y2="13.1478" gradientUnits="userSpaceOnUse">
<stop offset="0.11" stop-color="#60D7AD"/>
<stop offset="0.76" stop-color="#213C3A"/>
</linearGradient>
<linearGradient id="paint3_linear_1861_1529" x1="2.67573" y1="-8.18036e-07" x2="32.7327" y2="17.3741" gradientUnits="userSpaceOnUse">
<stop offset="0.11" stop-color="#60D7AD"/>
<stop offset="0.76" stop-color="#213C3A"/>
</linearGradient>
</defs>
</svg>
