<svg width="40" height="40" viewBox="0 0 40 40" fill="none" xmlns="http://www.w3.org/2000/svg">
<rect y="-0.00732422" width="40" height="40" rx="20" fill="#D7E0E5" fill-opacity="0.2"/>
<g clip-path="url(#clip0_990_1466)">
<path d="M20 9.99268C22.717 9.99268 23.056 10.0027 24.122 10.0527C25.187 10.1027 25.912 10.2697 26.55 10.5177C27.21 10.7717 27.766 11.1157 28.322 11.6707C28.8305 12.1706 29.224 12.7753 29.475 13.4427C29.722 14.0797 29.89 14.8057 29.94 15.8707C29.987 16.9367 30 17.2757 30 19.9927C30 22.7097 29.99 23.0487 29.94 24.1147C29.89 25.1797 29.722 25.9047 29.475 26.5427C29.2247 27.2105 28.8311 27.8153 28.322 28.3147C27.822 28.823 27.2173 29.2164 26.55 29.4677C25.913 29.7147 25.187 29.8827 24.122 29.9327C23.056 29.9797 22.717 29.9927 20 29.9927C17.283 29.9927 16.944 29.9827 15.878 29.9327C14.813 29.8827 14.088 29.7147 13.45 29.4677C12.7823 29.2171 12.1775 28.8236 11.678 28.3147C11.1694 27.8149 10.7759 27.2101 10.525 26.5427C10.277 25.9057 10.11 25.1797 10.06 24.1147C10.013 23.0487 10 22.7097 10 19.9927C10 17.2757 10.01 16.9367 10.06 15.8707C10.11 14.8047 10.277 14.0807 10.525 13.4427C10.7752 12.7749 11.1688 12.17 11.678 11.6707C12.1777 11.1619 12.7824 10.7684 13.45 10.5177C14.088 10.2697 14.812 10.1027 15.878 10.0527C16.944 10.0057 17.283 9.99268 20 9.99268ZM20 14.9927C18.6739 14.9927 17.4021 15.5195 16.4645 16.4571C15.5268 17.3948 15 18.6666 15 19.9927C15 21.3188 15.5268 22.5905 16.4645 23.5282C17.4021 24.4659 18.6739 24.9927 20 24.9927C21.3261 24.9927 22.5979 24.4659 23.5355 23.5282C24.4732 22.5905 25 21.3188 25 19.9927C25 18.6666 24.4732 17.3948 23.5355 16.4571C22.5979 15.5195 21.3261 14.9927 20 14.9927ZM26.5 14.7427C26.5 14.4112 26.3683 14.0932 26.1339 13.8588C25.8995 13.6244 25.5815 13.4927 25.25 13.4927C24.9185 13.4927 24.6005 13.6244 24.3661 13.8588C24.1317 14.0932 24 14.4112 24 14.7427C24 15.0742 24.1317 15.3921 24.3661 15.6266C24.6005 15.861 24.9185 15.9927 25.25 15.9927C25.5815 15.9927 25.8995 15.861 26.1339 15.6266C26.3683 15.3921 26.5 15.0742 26.5 14.7427ZM20 16.9927C20.7956 16.9927 21.5587 17.3087 22.1213 17.8714C22.6839 18.434 23 19.197 23 19.9927C23 20.7883 22.6839 21.5514 22.1213 22.114C21.5587 22.6766 20.7956 22.9927 20 22.9927C19.2044 22.9927 18.4413 22.6766 17.8787 22.114C17.3161 21.5514 17 20.7883 17 19.9927C17 19.197 17.3161 18.434 17.8787 17.8714C18.4413 17.3087 19.2044 16.9927 20 16.9927Z" fill="white"/>
</g>
<defs>
<clipPath id="clip0_990_1466">
<rect width="24" height="24" fill="white" transform="translate(8 7.99268)"/>
</clipPath>
</defs>
</svg>
