<svg width="57" height="57" viewBox="0 0 57 57" fill="none" xmlns="http://www.w3.org/2000/svg">
<g opacity="0.951">
<path d="M21.0284 1.24205C21.8061 1.8169 22.3631 2.48253 22.7553 3.3652C22.8735 4.22178 22.8549 5.13089 22.5546 5.95219C22.4655 6.30434 22.4655 6.30434 22.6981 6.57955C22.7954 6.67147 22.8928 6.76339 22.9931 6.8581C23.0979 6.95947 23.2027 7.06085 23.3107 7.1653C23.4223 7.26925 23.534 7.3732 23.649 7.4803C23.8671 7.68824 24.0849 7.89649 24.3024 8.1051C24.4001 8.19664 24.4978 8.28819 24.5985 8.38251C25.1668 8.96453 25.0207 9.68222 25.0162 10.4432C25.016 10.5736 25.0158 10.704 25.0157 10.8384C25.0148 11.3263 25.0125 11.8142 25.0103 12.302C25.0069 13.3925 25.0035 14.483 24.9999 15.6066C27.1947 15.6066 29.3894 15.6066 31.6506 15.6066C31.6047 13.4776 31.6047 13.4776 31.5458 11.3489C31.5006 8.9195 31.5006 8.9195 32.1897 8.11939C32.5098 7.84368 32.5098 7.84368 32.8145 7.62578C32.9519 7.50233 33.0893 7.37887 33.2308 7.25168C33.3438 7.15566 33.4567 7.05964 33.5731 6.96071C33.9146 6.64446 33.9146 6.64446 34.1446 6.29565C34.0817 5.69427 34.0817 5.69427 33.9238 5.32143C33.6615 4.48579 33.8851 3.58272 34.155 2.77287C34.7382 1.92636 35.6049 1.03036 36.6386 0.808845C37.6927 0.709849 38.7138 0.731978 39.6314 1.30764C40.5467 2.15794 41.1658 2.99738 41.2856 4.26667C41.3109 5.36136 41.0545 6.09565 40.3484 6.93993C39.4923 7.81909 38.7692 8.1446 37.5427 8.16615C37.0511 8.15759 36.6468 8.12685 36.1716 7.99464C35.6244 7.90825 35.6244 7.90825 35.1505 8.23585C34.1452 9.16397 33.6566 9.84626 33.5971 11.2388C33.5874 11.7638 33.5995 12.2864 33.6146 12.8112C33.6158 13.0832 33.6161 13.3553 33.6156 13.6273C33.6161 14.2875 33.6278 14.9466 33.6458 15.6066C33.795 15.6022 33.9442 15.5979 34.0979 15.5934C34.6569 15.5791 35.2157 15.5688 35.7749 15.5609C36.0158 15.5568 36.2567 15.5511 36.4976 15.5439C39.0971 15.4677 39.0971 15.4677 40.1302 16.4379C41.1174 17.503 41.3177 18.5072 41.3103 19.9386C41.3098 20.1229 41.3093 20.3073 41.3087 20.4972C41.3073 20.6871 41.3059 20.877 41.3045 21.0726C41.3037 21.2664 41.303 21.4601 41.3022 21.6597C41.3003 22.136 41.2975 22.6123 41.2941 23.0886C42.066 23.1103 42.8367 23.1195 43.6089 23.118C43.8706 23.1192 44.1323 23.1235 44.3939 23.1313C45.6844 23.1679 46.7994 23.1944 47.8102 22.3029C48.1967 21.9172 48.504 21.5693 48.7761 21.0934C48.7589 20.5673 48.7589 20.5673 48.6098 20.0958C48.5053 18.9067 48.5334 17.9123 49.2749 16.9367C50.2082 15.9696 50.8524 15.5826 52.2157 15.5442C53.4717 15.5546 54.1245 15.827 55.0143 16.6802C55.8318 17.5731 56.0079 18.5043 55.9762 19.6769C55.8334 20.8576 55.1784 21.6251 54.2739 22.3547C53.2589 23.0493 52.2595 22.9477 51.1038 22.7561C50.9977 22.7172 50.8916 22.6784 50.7822 22.6385C50.4301 22.5494 50.4301 22.5494 50.1549 22.782C50.0629 22.8793 49.971 22.9766 49.8763 23.0769C49.7749 23.1817 49.6736 23.2865 49.5691 23.3945C49.4132 23.562 49.4132 23.562 49.2541 23.7329C49.0462 23.951 48.8379 24.1688 48.6293 24.3862C48.5378 24.484 48.4462 24.5817 48.3519 24.6823C47.7769 25.2437 47.0796 25.1047 46.3276 25.1C46.1368 25.0998 46.1368 25.0998 45.9423 25.0995C45.4667 25.0986 44.9911 25.0963 44.5155 25.0942C42.9209 25.089 42.9209 25.089 41.2941 25.0838C41.2941 27.2785 41.2941 29.4732 41.2941 31.7345C43.3684 31.6886 43.3684 31.6886 45.4423 31.6296C47.8097 31.5845 47.8097 31.5845 48.6098 32.2735C48.8878 32.5936 48.8878 32.5936 49.1086 32.8983C49.2321 33.0357 49.3555 33.1731 49.4827 33.3146C49.5787 33.4276 49.6748 33.5405 49.7737 33.6569C50.0899 33.9984 50.0899 33.9984 50.4388 34.2285C51.0401 34.1655 51.0401 34.1655 51.413 34.0076C52.2486 33.7454 53.1517 33.9689 53.9615 34.2389C54.808 34.822 55.704 35.6887 55.9256 36.7225C56.0246 37.7766 56.0024 38.7976 55.4268 39.7153C54.7085 40.4884 53.9729 41.155 52.8983 41.2675C50.8545 41.2897 50.8545 41.2897 49.94 40.5466C49.2143 39.8327 48.6616 39.1539 48.5715 38.1052C48.5739 37.9541 48.5762 37.803 48.5786 37.6473C48.5797 37.4966 48.5808 37.346 48.5819 37.1907C48.6098 36.7225 48.6098 36.7225 48.7397 36.2547C48.8265 35.7077 48.8265 35.7077 48.4956 35.2343C47.5788 34.2464 46.9059 33.7413 45.5319 33.6809C45.0225 33.6713 44.5155 33.6833 44.0063 33.6985C43.7423 33.6996 43.4783 33.7 43.2143 33.6995C42.5738 33.7 41.9343 33.7117 41.2941 33.7297C41.2958 33.8486 41.2976 33.9676 41.2994 34.0901C41.3063 34.635 41.3106 35.1799 41.3149 35.7249C41.3177 35.912 41.3204 36.0991 41.3233 36.2919C41.3321 37.7864 41.2621 39.0002 40.2965 40.2141C39.3991 41.0217 38.8193 41.2541 37.6076 41.2441C37.4942 41.2437 37.3807 41.2432 37.2638 41.2427C36.903 41.2409 36.5422 41.2367 36.1814 41.2324C35.9361 41.2308 35.6908 41.2293 35.4455 41.2279C34.8456 41.2242 34.2457 41.2185 33.6458 41.2117C33.6241 42.0072 33.6149 42.8016 33.6164 43.5975C33.6152 43.8673 33.6109 44.1371 33.6031 44.4067C33.5469 46.294 33.5469 46.294 34.4315 47.8997C34.8171 48.2854 35.1645 48.5904 35.641 48.8599C36.1671 48.8424 36.1671 48.8424 36.6386 48.6937C37.8355 48.5885 38.8118 48.6245 39.7977 49.3587C40.717 50.1309 41.1304 50.8805 41.2804 52.0729C41.3138 53.1602 40.9786 53.9929 40.2965 54.8455C39.4188 55.6851 38.6929 56.0148 37.4907 56.0718C36.4521 56.0437 35.746 55.7421 34.9792 55.0449C34.3416 54.3679 33.942 53.7921 33.8121 52.8503C33.8339 52.1803 33.8643 51.4995 34.0959 50.8661C34.185 50.5139 34.185 50.5139 33.9525 50.2387C33.8551 50.1468 33.7578 50.0549 33.6575 49.9601C33.5527 49.8588 33.4479 49.7574 33.3399 49.6529C33.1724 49.497 33.1724 49.497 33.0015 49.3379C32.7834 49.13 32.5656 48.9218 32.3482 48.7131C32.2505 48.6216 32.1527 48.5301 32.0521 48.4357C31.4838 47.8537 31.6298 47.136 31.6344 46.375C31.6345 46.2446 31.6347 46.1142 31.6349 45.9799C31.6358 45.492 31.6381 45.0041 31.6402 44.5162C31.6437 43.4257 31.6471 42.3352 31.6506 41.2117C29.4559 41.2117 27.2612 41.2117 24.9999 41.2117C25.0459 43.3407 25.0459 43.3407 25.1048 45.4693C25.1499 47.8987 25.1499 47.8987 24.4609 48.6989C24.1408 48.9746 24.1408 48.9746 23.8361 49.1925C23.6987 49.3159 23.5613 49.4394 23.4198 49.5666C23.3068 49.6626 23.1939 49.7586 23.0775 49.8575C22.736 50.1738 22.736 50.1738 22.5059 50.5226C22.5689 51.124 22.5689 51.124 22.7268 51.4968C22.989 52.3325 22.7655 53.2355 22.4956 54.0454C21.9124 54.8919 21.0457 55.7879 20.0119 56.0094C18.9578 56.1084 17.9368 56.0863 17.0191 55.5106C16.1039 54.6603 15.4848 53.8209 15.3649 52.5516C15.3397 51.4569 15.596 50.7226 16.3021 49.8783C17.1583 48.9992 17.8814 48.6736 19.1079 48.6521C19.5995 48.6607 20.0038 48.6914 20.479 48.8236C21.0261 48.91 21.0261 48.91 21.5001 48.5824C22.5054 47.6543 22.994 46.972 23.0535 45.5794C23.0631 45.0544 23.0511 44.5318 23.0359 44.007C23.0348 43.735 23.0344 43.463 23.0349 43.191C23.0344 42.5307 23.0227 41.8716 23.0047 41.2117C22.8556 41.216 22.7064 41.2204 22.5527 41.2249C21.9937 41.2391 21.4348 41.2495 20.8757 41.2573C20.6347 41.2615 20.3938 41.2671 20.153 41.2744C17.5534 41.3505 17.5534 41.3505 16.5203 40.3803C15.5332 39.3153 15.3329 38.3111 15.3402 36.8796C15.341 36.6032 15.341 36.6032 15.3419 36.3211C15.3433 36.1312 15.3446 35.9413 15.3461 35.7456C15.3468 35.5519 15.3476 35.3581 15.3484 35.1585C15.3503 34.6822 15.353 34.2059 15.3565 33.7297C14.5846 33.708 13.8139 33.6987 13.0417 33.7002C12.78 33.6991 12.5182 33.6947 12.2566 33.6869C10.9662 33.6504 9.85112 33.6238 8.84032 34.5153C8.45382 34.901 8.14653 35.249 7.87447 35.7249C7.89162 36.251 7.89162 36.251 8.04074 36.7225C8.14525 37.9115 8.11712 38.9059 7.37567 39.8815C6.44233 40.8487 5.79813 41.2357 4.43483 41.274C3.1789 41.2637 2.52602 40.9913 1.63622 40.1381C0.818721 39.2452 0.642698 38.314 0.674343 37.1414C0.81713 35.9606 1.47221 35.1931 2.37663 34.4636C3.3917 33.7689 4.39106 33.8705 5.54674 34.0622C5.70594 34.1204 5.70594 34.1204 5.86835 34.1798C6.2205 34.2689 6.2205 34.2689 6.49571 34.0363C6.58763 33.939 6.67955 33.8416 6.77425 33.7414C6.87563 33.6365 6.97701 33.5317 7.08146 33.4238C7.18541 33.3121 7.28936 33.2004 7.39646 33.0854C7.6044 32.8673 7.81265 32.6495 8.02125 32.432C8.1128 32.3343 8.20434 32.2366 8.29866 32.1359C8.87361 31.5745 9.57092 31.7136 10.323 31.7182C10.5137 31.7185 10.5137 31.7185 10.7083 31.7187C11.1839 31.7196 11.6595 31.7219 12.1351 31.7241C13.7297 31.7292 13.7297 31.7292 15.3565 31.7345C15.3565 29.5397 15.3565 27.345 15.3565 25.0838C13.2822 25.1297 13.2822 25.1297 11.2083 25.1886C8.84086 25.2338 8.84086 25.2338 8.04074 24.5447C7.76276 24.2246 7.76276 24.2246 7.54194 23.9199C7.41849 23.7825 7.29503 23.6452 7.16784 23.5036C7.07182 23.3907 6.9758 23.2777 6.87687 23.1613C6.56062 22.8198 6.56062 22.8198 6.2118 22.5898C5.61042 22.6527 5.61042 22.6527 5.23759 22.8106C4.40195 23.0729 3.49888 22.8493 2.68903 22.5794C1.84252 21.9962 0.946514 21.1295 0.725002 20.0958C0.626007 19.0417 0.648136 18.0206 1.2238 17.103C1.94205 16.3298 2.67771 15.6633 3.75223 15.5507C5.79606 15.5286 5.79606 15.5286 6.71061 16.2717C7.4363 16.9855 7.98899 17.6643 8.07906 18.713C8.0767 18.8641 8.07434 19.0152 8.07191 19.1709C8.07084 19.3216 8.06977 19.4723 8.06867 19.6275C8.04074 20.0958 8.04074 20.0958 7.91084 20.5636C7.82409 21.1105 7.82409 21.1105 8.15493 21.5839C9.07175 22.5719 9.74467 23.0769 11.1186 23.1373C11.6281 23.147 12.135 23.135 12.6442 23.1198C12.9083 23.1186 13.1723 23.1183 13.4363 23.1188C14.0768 23.1183 14.7162 23.1066 15.3565 23.0886C15.3547 22.9696 15.353 22.8507 15.3512 22.7281C15.3442 22.1832 15.3399 21.6383 15.3357 21.0934C15.3329 20.9063 15.3301 20.7192 15.3272 20.5264C15.3185 19.0318 15.3885 17.8181 16.3541 16.6042C17.2515 15.7965 17.8312 15.5642 19.0429 15.5741C19.2131 15.5748 19.2131 15.5748 19.3867 15.5755C19.7476 15.5774 20.1084 15.5816 20.4692 15.5858C20.7145 15.5875 20.9597 15.589 21.205 15.5903C21.805 15.594 22.4048 15.5997 23.0047 15.6066C23.0264 14.811 23.0357 14.0166 23.0342 13.2208C23.0353 12.951 23.0397 12.6812 23.0475 12.4115C23.1037 10.5243 23.1037 10.5243 22.2191 8.9185C21.8335 8.53284 21.486 8.22789 21.0095 7.95831C20.4835 7.97589 20.4835 7.97589 20.0119 8.12458C18.815 8.22979 17.8388 8.19372 16.8529 7.45951C15.9336 6.68737 15.5202 5.93778 15.3701 4.74534C15.3368 3.65805 15.6719 2.82539 16.3541 1.97271C17.6548 0.728557 19.4097 0.31285 21.0284 1.24205ZM17.6842 3.46911C17.418 4.00145 17.4349 4.55413 17.5179 5.13178C17.8162 5.599 18.0199 5.88154 18.5155 6.12938C19.1938 6.19336 19.5615 6.20274 20.147 5.83841C20.5988 5.3775 20.5988 5.3775 20.8433 4.79925C20.8182 4.2108 20.7035 3.84928 20.4172 3.33402C19.941 2.90664 19.6475 2.81353 19.0202 2.76897C18.4534 2.82772 18.1074 3.10788 17.6842 3.46911ZM36.3061 3.30285C35.9195 3.77958 35.8048 4.01611 35.8177 4.63298C35.9956 5.20245 36.2312 5.53102 36.6386 5.96311C37.1541 6.22087 37.5662 6.17758 38.135 6.12938C38.5928 5.83083 38.8876 5.62184 39.1326 5.13178C39.2353 4.15473 39.2353 4.15473 38.7897 3.31324C37.9143 2.6986 37.1476 2.60159 36.3061 3.30285ZM17.8505 17.9343C17.2468 18.8816 17.2805 19.8229 17.2871 20.9213C17.2863 21.1012 17.2854 21.2811 17.2845 21.4665C17.2823 22.0592 17.2837 22.6518 17.2854 23.2445C17.2851 23.6575 17.2846 24.0706 17.284 24.4836C17.2832 25.3485 17.2843 26.2133 17.2866 27.0782C17.2895 28.1857 17.2879 29.2932 17.2849 30.4008C17.2831 31.2535 17.2836 32.1062 17.2849 32.9589C17.2853 33.3672 17.2849 33.7755 17.2837 34.1839C17.2824 34.7549 17.2844 35.3259 17.2871 35.897C17.2861 36.0651 17.2851 36.2332 17.2841 36.4064C17.2926 37.3518 17.3355 38.0758 17.8505 38.8839C18.7978 39.4876 19.7391 39.4539 20.8374 39.4473C21.0174 39.4481 21.1973 39.449 21.3827 39.4499C21.9753 39.4521 22.5679 39.4507 23.1606 39.449C23.5737 39.4493 23.9867 39.4498 24.3998 39.4504C25.2646 39.4512 26.1295 39.4501 26.9943 39.4478C28.1019 39.4449 29.2094 39.4466 30.317 39.4495C31.1696 39.4513 32.0223 39.4508 32.875 39.4495C33.2834 39.4491 33.6917 39.4496 34.1 39.4507C34.6711 39.452 35.2421 39.45 35.8131 39.4473C35.9812 39.4483 36.1494 39.4493 36.3226 39.4503C37.2679 39.4418 37.9919 39.3989 38.8001 38.8839C39.4038 37.9366 39.37 36.9953 39.3634 35.897C39.3643 35.717 39.3652 35.5371 39.3661 35.3517C39.3683 34.7591 39.3668 34.1665 39.3651 33.5738C39.3655 33.1607 39.366 32.7477 39.3666 32.3346C39.3673 31.4698 39.3662 30.6049 39.3639 29.7401C39.3611 28.6325 39.3627 27.525 39.3657 26.4174C39.3675 25.5648 39.3669 24.7121 39.3656 23.8594C39.3653 23.4511 39.3657 23.0427 39.3669 22.6344C39.3681 22.0633 39.3662 21.4923 39.3634 20.9213C39.3649 20.6691 39.3649 20.6691 39.3665 20.4118C39.358 19.4665 39.3151 18.7425 38.8001 17.9343C37.8528 17.3306 36.9115 17.3644 35.8131 17.371C35.6332 17.3701 35.4533 17.3692 35.2679 17.3683C34.6752 17.3661 34.0826 17.3676 33.4899 17.3693C33.0769 17.3689 32.6638 17.3685 32.2508 17.3678C31.3859 17.3671 30.5211 17.3682 29.6562 17.3705C28.5487 17.3733 27.4412 17.3717 26.3336 17.3687C25.4809 17.3669 24.6282 17.3675 23.7756 17.3688C23.3672 17.3691 22.9589 17.3687 22.5505 17.3675C21.9795 17.3663 21.4085 17.3682 20.8374 17.371C20.6693 17.37 20.5012 17.369 20.328 17.3679C19.3827 17.3764 18.6586 17.4193 17.8505 17.9343ZM3.2294 17.9447C2.81897 18.5293 2.7202 18.8843 2.7202 19.597C2.9379 20.1291 3.1583 20.3791 3.6035 20.7401C4.17816 20.9806 4.45596 20.9458 5.04794 20.7609C5.647 20.3508 5.647 20.3508 6.04554 19.7633C6.11113 19.068 6.12042 18.7142 5.73379 18.1214C5.2496 17.6372 5.1144 17.6083 4.41405 17.5394C3.84576 17.5487 3.72202 17.5988 3.2294 17.9447ZM50.7713 18.2669C50.5135 18.7824 50.5568 19.1944 50.605 19.7633C50.9537 20.3237 51.2912 20.7377 51.9352 20.9271C52.5236 20.9021 52.8851 20.7873 53.4004 20.5011C53.8278 20.0248 53.9209 19.7313 53.9654 19.104C53.9067 18.5372 53.6265 18.1912 53.2653 17.7681C52.3145 17.2926 51.4733 17.5436 50.7713 18.2669ZM3.05274 36.5562C2.70215 36.9982 2.72016 37.2191 2.73059 37.7928C2.92109 38.5167 3.10557 38.7866 3.7178 39.2165C4.1845 39.3239 4.5809 39.3212 5.04794 39.2165C5.51515 38.9182 5.7977 38.7145 6.04554 38.2189C6.10952 37.5406 6.1189 37.1729 5.75457 36.5874C4.81121 35.6702 4.0806 35.7518 3.05274 36.5562ZM50.9376 36.5562C50.5233 37.1776 50.5289 37.4829 50.605 38.2189C50.9036 38.6766 51.1126 38.9714 51.6026 39.2165C52.5797 39.3192 52.5797 39.3192 53.4212 38.8735C53.8316 38.289 53.9304 37.9339 53.9304 37.2213C53.6462 36.5266 53.2767 36.2046 52.6002 35.8911C51.8072 35.8911 51.5574 36.0846 50.9376 36.5562ZM17.6842 51.3539C17.4158 51.8908 17.4212 52.4362 17.5179 53.0166C17.9431 53.6221 18.22 53.811 18.9312 54.0142C19.597 54.0142 19.8428 53.9474 20.3445 53.5154C20.6706 53.0153 20.8475 52.6926 20.8329 52.0917C20.5993 51.4845 20.2701 50.9842 19.6794 50.6889C18.7649 50.6026 18.338 50.7002 17.6842 51.3539ZM36.1398 51.3539C35.8274 51.78 35.8054 51.9743 35.8281 52.5074C36.003 53.1198 36.1628 53.4209 36.6386 53.8479C37.0921 54.0143 37.4882 54.064 37.9688 54.0142C38.6795 53.6464 38.6795 53.6464 39.1326 53.0166C39.2213 52.05 39.2213 52.05 38.8209 51.1981C38.3663 50.7569 38.2225 50.6971 37.5843 50.6369C36.8682 50.6976 36.6345 50.8451 36.1398 51.3539Z" fill="url(#paint0_linear_3509_107)"/>
<path d="M26.7561 23.3065C27.7161 23.9712 28.0999 25.5563 28.5155 26.6182C28.5777 26.7767 28.6399 26.9353 28.704 27.0986C28.8341 27.4314 28.9639 27.7644 29.0933 28.0975C29.292 28.6073 29.4936 29.1158 29.6953 29.6243C29.8218 29.9489 29.9481 30.2735 30.0743 30.5982C30.1349 30.7498 30.1955 30.9013 30.2579 31.0575C30.3123 31.1996 30.3668 31.3417 30.4229 31.4881C30.4715 31.6122 30.5201 31.7363 30.5701 31.8642C30.6727 32.3208 30.6249 32.6193 30.4867 33.0643C30.1126 33.3864 30.1126 33.3864 29.6553 33.5631C29.2293 33.5215 29.2293 33.5215 28.824 33.2306C28.6045 32.7368 28.3851 32.2429 28.1589 31.7342C27.0067 31.6793 25.8545 31.6244 24.6673 31.5679C24.5027 32.0617 24.3381 32.5555 24.1685 33.0643C23.7737 33.428 23.7737 33.428 23.3372 33.5631C22.6966 33.4141 22.5445 33.2885 22.1733 32.7318C22.2208 31.7443 22.6616 30.819 23.0177 29.9085C23.0856 29.7339 23.1535 29.5594 23.2235 29.3795C23.3672 29.0117 23.5114 28.644 23.6562 28.2765C23.8771 27.7138 24.094 27.1497 24.3108 26.5854C24.451 26.2278 24.5915 25.8702 24.7323 25.5128C24.7966 25.3439 24.8609 25.1751 24.9271 25.0011C25.3906 23.8431 25.3906 23.8431 25.9356 23.3907C26.33 23.2546 26.33 23.2546 26.7561 23.3065ZM26.33 27.0787C26.1908 27.4317 26.0524 27.7851 25.9143 28.1386C25.8372 28.3354 25.76 28.5322 25.6805 28.7349C25.4799 29.2028 25.4799 29.2028 25.4987 29.5727C26.1022 29.5727 26.7058 29.5727 27.3276 29.5727C26.9634 28.3078 26.9634 28.3078 26.4963 27.0787C26.4414 27.0787 26.3865 27.0787 26.33 27.0787Z" fill="url(#paint1_linear_3509_107)"/>
<path d="M33.7604 23.3584C34.1449 23.587 34.1449 23.587 34.4774 24.0858C34.5208 24.4696 34.5208 24.4696 34.5231 24.9256C34.5247 25.0965 34.5262 25.2674 34.5279 25.4435C34.5277 25.628 34.5276 25.8124 34.5274 26.0025C34.5281 26.1921 34.5288 26.3817 34.5296 26.5771C34.5305 26.9783 34.5306 27.3796 34.5299 27.7809C34.5294 28.3954 34.5333 29.0098 34.5375 29.6243C34.5379 30.0139 34.538 30.4034 34.5378 30.793C34.5393 30.9771 34.5409 31.1613 34.5425 31.351C34.5414 31.5224 34.5404 31.6938 34.5393 31.8705C34.5394 32.0211 34.5395 32.1717 34.5396 32.3269C34.4651 32.812 34.3079 33.0384 33.9786 33.3968C33.6669 33.5527 33.6669 33.5527 33.3135 33.563C32.8825 33.3708 32.8825 33.3708 32.4822 33.0642C32.3766 32.6541 32.3766 32.6541 32.3746 32.1608C32.372 31.9761 32.3694 31.7913 32.3667 31.6009C32.3692 31.3016 32.3692 31.3016 32.3718 30.9963C32.371 30.7915 32.3702 30.5867 32.3694 30.3758C32.3687 29.8314 32.372 29.2872 32.3767 28.7429C32.3783 28.4091 32.3767 28.0754 32.3738 27.7416C32.3687 27.1014 32.3693 26.4615 32.3718 25.8213C32.3701 25.6217 32.3684 25.4222 32.3667 25.2166C32.3693 25.0319 32.3719 24.8471 32.3746 24.6567C32.3753 24.4939 32.376 24.3311 32.3766 24.1634C32.4822 23.7533 32.4822 23.7533 32.8767 23.441C33.3135 23.2545 33.3135 23.2545 33.7604 23.3584Z" fill="url(#paint2_linear_3509_107)"/>
</g>
<defs>
<linearGradient id="paint0_linear_3509_107" x1="0.00834538" y1="0.736816" x2="66.6634" y2="29.5092" gradientUnits="userSpaceOnUse">
<stop offset="0.11" stop-color="#60D7AD"/>
<stop offset="0.76" stop-color="#213C3A"/>
</linearGradient>
<linearGradient id="paint1_linear_3509_107" x1="22.0721" y1="23.2744" x2="32.805" y2="27.0821" gradientUnits="userSpaceOnUse">
<stop offset="0.11" stop-color="#60D7AD"/>
<stop offset="0.76" stop-color="#213C3A"/>
</linearGradient>
<linearGradient id="paint2_linear_3509_107" x1="32.3406" y1="23.2886" x2="35.4255" y2="23.5707" gradientUnits="userSpaceOnUse">
<stop offset="0.11" stop-color="#60D7AD"/>
<stop offset="0.76" stop-color="#213C3A"/>
</linearGradient>
</defs>
</svg>
