<svg width="22" height="22" viewBox="0 0 22 22" fill="none" xmlns="http://www.w3.org/2000/svg">
<path opacity="0.949" fill-rule="evenodd" clip-rule="evenodd" d="M2.41909 0C3.59653 0.0744166 4.12144 0.698208 3.99378 1.87137C3.83748 2.43089 3.47994 2.78082 2.92116 2.92116C2.91356 3.84937 2.92116 4.77742 2.94398 5.70539C4.17776 3.5914 6.01111 2.33621 8.44398 1.93983C9.97942 1.86639 11.516 1.85118 13.0539 1.89419C15.1632 2.13844 16.9052 3.05891 18.2801 4.6556C18.5424 4.98213 18.7706 5.33208 18.9647 5.70539C18.9876 4.77742 18.9952 3.84937 18.9876 2.92116C18.4137 2.79613 18.0561 2.4462 17.9149 1.87137C17.7794 0.772424 18.2587 0.148637 19.3527 0C20.4467 0.148637 20.926 0.772424 20.7905 1.87137C20.6342 2.43089 20.2766 2.78082 19.7178 2.92116C19.7178 4.27526 19.7178 5.62931 19.7178 6.9834C20.2386 6.96364 20.756 6.98646 21.2697 7.05187C21.5732 7.20313 21.7786 7.43897 21.8859 7.75934C21.9163 9.06779 21.9163 10.3762 21.8859 11.6846C21.7696 12.0216 21.549 12.265 21.2241 12.4149C21.2402 14.082 20.9587 15.6947 20.3797 17.2531C19.6668 18.8485 18.4877 19.9363 16.8423 20.5166C16.7421 21.4156 16.24 21.91 15.3361 22C14.3109 21.8494 13.8316 21.2561 13.8983 20.2199C14.194 19.2919 14.8254 18.9192 15.7925 19.1017C16.1537 19.2193 16.4352 19.4399 16.6369 19.7635C18.3993 19.1009 19.5099 17.8534 19.9689 16.0207C20.2752 14.8539 20.4197 13.6672 20.4025 12.4606C20.1591 12.4606 19.9156 12.4606 19.6722 12.4606C19.4099 14.4329 18.4514 15.9619 16.7967 17.0477C15.5707 17.7536 14.2471 18.096 12.8257 18.0747C11.8792 19.1921 10.9435 20.318 10.0187 21.4523C9.53011 22.0044 8.95957 22.1033 8.30705 21.749C7.95907 21.4353 7.82976 21.0473 7.91909 20.5851C8.06191 19.7356 8.22166 18.8912 8.39834 18.0519C5.38452 17.8058 3.38385 16.2615 2.39627 13.4191C2.30348 13.1058 2.25024 12.7863 2.23652 12.4606C1.74942 12.4682 1.26256 12.4606 0.775935 12.4378C0.403181 12.3085 0.152143 12.0574 0.0228227 11.6846C-0.00760757 10.3762 -0.00760757 9.06779 0.0228227 7.75934C0.152143 7.38657 0.403181 7.13553 0.775935 7.00622C1.24734 6.9834 1.71898 6.97583 2.19087 6.9834C2.19087 5.62931 2.19087 4.27526 2.19087 2.92116C1.61698 2.79613 1.25944 2.4462 1.11826 1.87137C0.990864 0.84595 1.42447 0.222159 2.41909 0ZM2.3278 0.821577C3.11583 0.810472 3.38208 1.17562 3.12656 1.91701C2.84123 2.21418 2.51412 2.26743 2.14523 2.07676C1.84806 1.79144 1.79481 1.46433 1.98548 1.09544C2.08197 0.975814 2.19608 0.884528 2.3278 0.821577ZM19.1245 0.821577C19.9125 0.810472 20.1787 1.17562 19.9232 1.91701C19.6379 2.21418 19.3108 2.26743 18.9419 2.07676C18.6447 1.79144 18.5915 1.46433 18.7822 1.09544C18.8786 0.975814 18.9928 0.884528 19.1245 0.821577ZM9.35685 2.60166C10.4067 2.59406 11.4565 2.60166 12.5062 2.62448C15.1986 2.80951 17.1841 4.0799 18.4627 6.43568C18.7959 7.17551 18.9633 7.95145 18.9647 8.76349C18.9952 9.75244 18.9952 10.7413 18.9647 11.7303C18.7868 14.4338 17.4099 16.2063 14.834 17.0477C14.6082 17.105 14.38 17.1507 14.1494 17.1846C13.5679 17.2209 12.9898 17.2666 12.4149 17.3216C11.388 18.5616 10.361 19.8015 9.33403 21.0415C9.16081 21.1923 8.97062 21.2151 8.76349 21.11C8.69986 21.0306 8.66942 20.9393 8.6722 20.8361C8.82994 19.8517 9.00489 18.8703 9.1971 17.8921C9.26711 17.6484 9.21385 17.443 9.03734 17.2759C6.45057 17.3186 4.57157 16.2004 3.40042 13.9212C3.18909 13.4394 3.05216 12.9373 2.98963 12.4149C2.8869 10.8462 2.90212 9.27916 3.03527 7.71369C3.59913 5.52154 4.93037 3.9925 7.02905 3.12656C7.78353 2.82748 8.55946 2.65252 9.35685 2.60166ZM1.09544 7.71369C1.46058 7.71369 1.82573 7.71369 2.19087 7.71369C2.19087 9.05254 2.19087 10.3914 2.19087 11.7303C1.82541 11.7379 1.46027 11.7303 1.09544 11.7075C0.890043 11.6846 0.775935 11.5705 0.753113 11.3651C0.722683 10.2697 0.722683 9.17427 0.753113 8.07884C0.784169 7.87294 0.898277 7.75126 1.09544 7.71369ZM19.7178 7.71369C20.0833 7.70612 20.4485 7.71369 20.8133 7.73651C21.0187 7.75934 21.1328 7.87344 21.1556 8.07884C21.186 9.17427 21.186 10.2697 21.1556 11.3651C21.1328 11.5705 21.0187 11.6846 20.8133 11.7075C20.4485 11.7303 20.0833 11.7379 19.7178 11.7303C19.7178 10.3914 19.7178 9.05254 19.7178 7.71369ZM15.1079 19.8091C15.8959 19.798 16.1621 20.1632 15.9066 20.9046C15.6213 21.2017 15.2942 21.255 14.9253 21.0643C14.6281 20.779 14.5749 20.4519 14.7656 20.083C14.8621 19.9634 14.9762 19.8721 15.1079 19.8091Z" fill="url(#paint0_linear_1773_1298)"/>
<path opacity="0.976" fill-rule="evenodd" clip-rule="evenodd" d="M6.80395 4.79876C9.57303 4.79114 12.342 4.79876 15.111 4.82158C16.2128 5.07138 16.8899 5.74845 17.1421 6.8527C17.1726 9.01313 17.1726 11.1736 17.1421 13.334C16.8911 14.4371 16.2141 15.1141 15.111 15.3651C12.342 15.3956 9.57299 15.3956 6.80395 15.3651C5.7009 15.1141 5.02387 14.4371 4.77283 13.334C4.74239 11.1736 4.74239 9.01313 4.77283 6.8527C5.03213 5.74905 5.70916 5.0644 6.80395 4.79876ZM7.30603 5.52905C6.38929 5.61166 5.80355 6.09854 5.54877 6.98963C5.47473 8.9359 5.45953 10.8834 5.50312 12.832C5.61723 13.9198 6.21821 14.5207 7.30603 14.6349C9.74031 14.6653 12.1746 14.6653 14.6089 14.6349C15.6967 14.5207 16.2977 13.9198 16.4118 12.832C16.4423 11.0062 16.4423 9.1805 16.4118 7.35477C16.2977 6.26696 15.6967 5.66598 14.6089 5.55187C12.1747 5.52905 9.74036 5.52143 7.30603 5.52905Z" fill="url(#paint1_linear_1773_1298)"/>
<path opacity="0.892" fill-rule="evenodd" clip-rule="evenodd" d="M9.71219 6.25478C10.2307 6.21872 10.3828 6.43931 10.1686 6.9166C9.68773 7.09904 9.48234 6.93929 9.55244 6.43735C9.58394 6.35291 9.63716 6.29202 9.71219 6.25478Z" fill="url(#paint2_linear_1773_1298)"/>
<path opacity="0.982" fill-rule="evenodd" clip-rule="evenodd" d="M11.1733 6.2597C12.3906 6.25207 13.6077 6.2597 14.8248 6.28252C14.9624 6.35231 15.0233 6.46641 15.0074 6.62484C15.0233 6.78327 14.9624 6.89738 14.8248 6.96716C13.6076 6.99761 12.3905 6.99761 11.1733 6.96716C11.0357 6.89738 10.9748 6.78327 10.9908 6.62484C10.9808 6.46208 11.0417 6.34039 11.1733 6.2597Z" fill="url(#paint3_linear_1773_1298)"/>
<path opacity="0.924" fill-rule="evenodd" clip-rule="evenodd" d="M7.7211 8.424C8.63232 8.29698 9.2333 8.66212 9.524 9.51944C9.56412 9.73793 9.54888 9.9509 9.47836 10.1584C9.29341 10.2699 9.10322 10.2775 8.90782 10.1813C8.8242 9.94616 8.74049 9.71032 8.65678 9.47379C8.27644 9.10865 7.89605 9.10865 7.5157 9.47379C7.43199 9.71032 7.34828 9.94616 7.26467 10.1813C7.08209 10.2725 6.89952 10.2725 6.71695 10.1813C6.52406 9.29684 6.85881 8.71105 7.7211 8.424Z" fill="url(#paint4_linear_1773_1298)"/>
<path opacity="0.93" fill-rule="evenodd" clip-rule="evenodd" d="M13.4299 8.40591C14.7297 8.32882 15.3307 8.93738 15.2328 10.2316C14.9428 11.096 14.3418 11.4536 13.4299 11.3043C12.5653 11.0136 12.2077 10.4127 12.3573 9.50135C12.5102 8.93013 12.8677 8.56498 13.4299 8.40591ZM13.5669 9.18185C13.4351 9.24479 13.321 9.33608 13.2245 9.45571C13.0339 9.8246 13.0871 10.1517 13.3843 10.437C13.7532 10.6277 14.0803 10.5745 14.3656 10.2773C14.6211 9.5359 14.3549 9.17076 13.5669 9.18185Z" fill="url(#paint5_linear_1773_1298)"/>
<defs>
<linearGradient id="paint0_linear_1773_1298" x1="-0.262448" y1="-8.58831e-07" x2="26.1712" y2="11.3684" gradientUnits="userSpaceOnUse">
<stop offset="0.11" stop-color="#60D7AD"/>
<stop offset="0.76" stop-color="#213C3A"/>
</linearGradient>
<linearGradient id="paint1_linear_1773_1298" x1="4.60128" y1="4.7959" x2="18.7306" y2="11.948" gradientUnits="userSpaceOnUse">
<stop offset="0.11" stop-color="#60D7AD"/>
<stop offset="0.76" stop-color="#213C3A"/>
</linearGradient>
<linearGradient id="paint2_linear_1773_1298" x1="9.5304" y1="6.25098" x2="10.4078" y2="6.62214" gradientUnits="userSpaceOnUse">
<stop offset="0.11" stop-color="#60D7AD"/>
<stop offset="0.76" stop-color="#213C3A"/>
</linearGradient>
<linearGradient id="paint3_linear_1773_1298" x1="10.9401" y1="6.25684" x2="11.8097" y2="8.31688" gradientUnits="userSpaceOnUse">
<stop offset="0.11" stop-color="#60D7AD"/>
<stop offset="0.76" stop-color="#213C3A"/>
</linearGradient>
<linearGradient id="paint4_linear_1773_1298" x1="6.62954" y1="8.39941" x2="9.46626" y2="10.3074" gradientUnits="userSpaceOnUse">
<stop offset="0.11" stop-color="#60D7AD"/>
<stop offset="0.76" stop-color="#213C3A"/>
</linearGradient>
<linearGradient id="paint5_linear_1773_1298" x1="12.2893" y1="8.39941" x2="15.8135" y2="9.91161" gradientUnits="userSpaceOnUse">
<stop offset="0.11" stop-color="#60D7AD"/>
<stop offset="0.76" stop-color="#213C3A"/>
</linearGradient>
</defs>
</svg>
