<svg width="20" height="16" viewBox="0 0 20 16" fill="none" xmlns="http://www.w3.org/2000/svg">
<path opacity="0.925" fill-rule="evenodd" clip-rule="evenodd" d="M8.11373 0.00304545C8.2348 -0.00805016 8.35014 0.011173 8.45975 0.060715C8.62164 0.301116 8.76905 0.551017 8.90188 0.810418C9.20276 1.16254 9.568 1.42525 9.9976 1.59857C10.1874 1.77713 10.2003 1.96936 10.036 2.17526C9.29915 2.45081 8.79296 2.95699 8.51742 3.69389C8.34275 3.84433 8.16975 3.84433 7.99839 3.69389C7.81304 3.27817 7.55676 2.91293 7.22946 2.59817C6.97945 2.44108 6.72313 2.29372 6.46054 2.15604C6.29814 1.95786 6.31098 1.77203 6.49898 1.59857C6.99233 1.42504 7.38321 1.12388 7.6716 0.69508C7.76129 0.515662 7.85103 0.336248 7.94072 0.156831C7.99443 0.0964585 8.0521 0.045198 8.11373 0.00304545ZM8.22907 0.925758C8.4762 1.32032 8.79661 1.64711 9.19023 1.90614C8.79934 2.14324 8.48539 2.45719 8.24829 2.84807C8.01119 2.45719 7.69724 2.14324 7.30636 1.90614C7.71477 1.67084 8.02234 1.34405 8.22907 0.925758Z" fill="url(#paint0_linear_1821_1163)"/>
<path opacity="0.926" fill-rule="evenodd" clip-rule="evenodd" d="M12.1883 1.04004C12.2645 1.05909 12.3414 1.07831 12.4189 1.09771C12.5712 1.33157 12.7185 1.56865 12.8611 1.80897C13.0965 2.08263 13.3849 2.28128 13.7261 2.40488C13.9312 2.59712 13.9312 2.78935 13.7261 2.98158C13.1238 3.22506 12.7009 3.64797 12.4574 4.25031C12.3036 4.3272 12.1498 4.3272 11.996 4.25031C11.8366 3.85423 11.5932 3.52106 11.2656 3.2507C11.0672 3.15797 10.875 3.05543 10.6889 2.94313C10.595 2.78735 10.5886 2.62714 10.6696 2.46255C11.272 2.21907 11.6949 1.79615 11.9384 1.19382C12.0158 1.12661 12.0991 1.07535 12.1883 1.04004ZM12.2267 2.0012C12.4115 2.26928 12.6422 2.49354 12.9187 2.67401C12.6685 2.87947 12.4378 3.10372 12.2267 3.34682C12.1373 3.25082 12.054 3.14828 11.9768 3.03925C11.8356 2.92998 11.7011 2.81465 11.5731 2.69323C11.8178 2.48701 12.0357 2.25633 12.2267 2.0012Z" fill="url(#paint1_linear_1821_1163)"/>
<path opacity="0.935" fill-rule="evenodd" clip-rule="evenodd" d="M19.6845 1.81043C19.6845 4.1813 19.6845 6.55213 19.6845 8.923C19.468 9.1278 19.2502 9.1278 19.0309 8.923C18.7026 9.11654 18.3694 9.30235 18.0313 9.48047C17.8941 9.51138 17.7723 9.47932 17.6661 9.38436C17.3553 9.57501 17.0413 9.76086 16.7242 9.94183C16.8879 10.2405 16.9199 10.5544 16.8203 10.8838C16.6742 11.2212 16.4755 11.5224 16.2244 11.7873C16.0715 11.8863 15.9049 11.944 15.7246 11.9603C15.7364 12.1475 15.7044 12.3269 15.6284 12.4985C15.5131 12.6907 15.3978 12.883 15.2824 13.0752C15.0406 13.3884 14.7266 13.5166 14.3405 13.4597C14.2426 13.8349 14.0824 14.1809 13.8599 14.4977C13.4433 14.9249 12.9756 14.989 12.4566 14.6899C12.3531 14.9867 12.2186 15.2686 12.0529 15.5358C11.7072 15.9891 11.2651 16.1109 10.7265 15.901C10.3805 15.7024 10.0345 15.5037 9.68848 15.3051C9.37718 15.5712 9.03116 15.7826 8.65043 15.9395C8.21029 16.032 7.84505 15.9102 7.55471 15.5742C7.36374 15.282 7.20354 14.9744 7.07413 14.6515C6.43323 14.7956 5.97829 14.5649 5.70928 13.9595C5.59856 13.7704 5.51528 13.5717 5.45938 13.3636C5.04977 13.419 4.71018 13.2844 4.44055 12.9599C4.29288 12.7416 4.16474 12.5109 4.05609 12.2678C4.00649 12.1052 3.98727 11.9386 3.99842 11.768C3.6343 11.7183 3.37158 11.5261 3.21027 11.1913C3.07687 10.9886 2.97435 10.7707 2.9027 10.5377C2.87004 10.3453 2.88926 10.1595 2.96037 9.98027C2.6528 9.80085 2.34523 9.62146 2.03766 9.44203C1.94518 9.43634 1.85547 9.45556 1.76853 9.4997C1.7033 9.48435 1.63923 9.46513 1.5763 9.44203C1.03707 9.14695 0.511644 8.833 0 8.50009C0 6.2702 0 4.04032 0 1.81043C0.105299 1.63643 0.259084 1.57876 0.461356 1.63742C0.935526 1.90654 1.4097 2.17567 1.88387 2.44479C2.04199 2.5797 2.07403 2.73991 1.97999 2.92537C1.84855 3.05409 1.70117 3.07331 1.53785 2.98304C1.22387 2.79723 0.909898 2.61138 0.595918 2.42557C0.570286 4.33508 0.570286 6.24456 0.595918 8.15407C0.941935 8.35911 1.28795 8.56418 1.63397 8.76922C2.46057 7.3467 3.28716 5.92419 4.11376 4.50167C3.90446 4.32305 3.67376 4.18849 3.42172 4.09799C2.99085 4.85084 2.55513 5.60055 2.11455 6.3471C1.95589 6.49834 1.7957 6.49834 1.63397 6.3471C1.57796 6.23691 1.56515 6.12157 1.59552 6.00108C2.03455 5.26406 2.46387 4.52078 2.88348 3.77119C2.65075 3.6522 2.58027 3.47281 2.67202 3.23294C2.78716 3.12664 2.92172 3.09461 3.07571 3.13683C3.64917 3.47158 4.21945 3.81121 4.78657 4.15565C4.82267 4.25642 4.8547 4.35896 4.88268 4.46323C5.38249 4.75157 5.88229 5.03992 6.38209 5.32827C6.627 5.44857 6.88328 5.51262 7.15102 5.5205C7.82398 5.12631 8.50321 4.74185 9.18867 4.36711C9.69344 4.18111 10.1932 4.19391 10.6881 4.40556C11.2007 4.70032 11.7133 4.99505 12.2259 5.28982C12.5803 5.44907 12.9391 5.46187 13.3024 5.32827C13.8022 5.03992 14.302 4.75157 14.8018 4.46323C14.8088 4.26315 14.8985 4.11575 15.071 4.02109C16.455 3.22652 17.8391 2.43199 19.2232 1.63742C19.4254 1.57876 19.5792 1.63643 19.6845 1.81043ZM19.0694 2.42557C19.1142 4.18764 19.1206 5.95617 19.0886 7.73116C18.3261 6.41119 17.5636 5.09117 16.8011 3.77119C17.5533 3.31195 18.3094 2.86344 19.0694 2.42557ZM16.1859 4.07876C16.2242 4.07546 16.2562 4.0883 16.282 4.11721C17.0861 5.53319 17.8999 6.9429 18.7234 8.34631C18.5102 8.50117 18.2859 8.64215 18.0506 8.76922C17.8711 8.46164 17.6917 8.15407 17.5123 7.8465C17.3439 7.66031 17.1645 7.64747 16.9741 7.80806C16.951 7.87099 16.9317 7.93504 16.9164 8.00029C17.0318 8.28883 17.1728 8.56437 17.3393 8.82688C16.9776 9.07517 16.5995 9.29943 16.2051 9.4997C15.4657 9.08832 14.7289 8.67183 13.9945 8.25019C13.7498 8.19317 13.6088 8.28929 13.5716 8.53854C13.5844 8.63504 13.6228 8.71835 13.6869 8.78844C14.5358 9.26729 15.3752 9.76067 16.2051 10.2686C16.2621 10.3917 16.275 10.5199 16.2436 10.6531C16.133 10.8808 15.9984 11.0923 15.8399 11.2874C15.7715 11.3145 15.701 11.3337 15.6284 11.3451C14.7807 10.8952 13.9413 10.4274 13.1102 9.94183C12.8511 9.85536 12.6973 9.9451 12.6488 10.211C12.6643 10.3219 12.7156 10.4117 12.8026 10.4801C13.5331 10.903 14.2636 11.3259 14.9941 11.7488C15.0592 11.8343 15.0977 11.9304 15.1094 12.0372C15.0446 12.2565 14.9485 12.4615 14.8211 12.6523C14.7333 12.7852 14.6116 12.8621 14.4558 12.883C13.6819 12.4639 12.913 12.0346 12.149 11.595C11.7919 11.5327 11.6573 11.68 11.7454 12.0372C11.7774 12.0692 11.8094 12.1012 11.8415 12.1333C12.4474 12.4704 13.0433 12.8228 13.6292 13.1905C13.6862 13.3136 13.6991 13.4418 13.6677 13.575C13.5604 13.7833 13.4386 13.9819 13.3024 14.1709C13.1691 14.278 13.0282 14.2909 12.8795 14.2094C12.3222 13.8987 11.7711 13.5783 11.2263 13.2482C10.8504 13.1628 10.703 13.3102 10.7842 13.6903C11.0757 13.8906 11.3769 14.0765 11.6877 14.2478C11.7641 14.3301 11.8153 14.4262 11.8415 14.5362C11.7459 14.7921 11.6242 15.0357 11.4762 15.2666C11.3575 15.3665 11.2229 15.3986 11.0725 15.3628C10.7042 15.1562 10.3389 14.9447 9.97682 14.7284C10.0287 13.7359 9.56091 13.2361 8.57353 13.229C8.52044 12.3044 8.03348 11.843 7.11257 11.8449C7.13172 11.1844 6.83699 10.7295 6.22831 10.4801C6.47982 9.82507 6.32604 9.28682 5.76695 8.86533C5.42343 8.68805 5.06457 8.64961 4.69045 8.74999C4.23398 8.97502 3.79183 9.22492 3.36405 9.4997C3.02119 9.27375 2.66876 9.06229 2.30678 8.86533C3.05978 7.59007 3.80308 6.30853 4.53667 5.0207C5.13543 5.33503 5.73777 5.65545 6.34365 5.98186C6.11631 6.19112 6.05864 6.44102 6.17064 6.73156C6.64483 7.63805 7.3817 7.96484 8.3813 7.71194C8.64366 7.58718 8.89998 7.45262 9.15023 7.30825C9.85453 7.9595 10.5978 8.01075 11.3801 7.46204C11.7261 7.66069 12.0722 7.85931 12.4182 8.05796C12.8224 8.25523 13.0082 8.1335 12.9756 7.69272C12.5912 7.42994 12.1939 7.18646 11.7838 6.96224C11.831 6.80157 11.8438 6.63498 11.8222 6.46243C11.803 6.39196 11.7582 6.3471 11.6877 6.32787C11.5672 6.2975 11.4519 6.3103 11.3417 6.36632C11.2348 6.74229 11.0041 7.01141 10.6496 7.17369C10.2199 7.2825 9.86106 7.16716 9.57314 6.82767C9.31063 6.66931 9.0415 6.65651 8.76577 6.78923C8.56496 6.93452 8.34708 7.04986 8.11218 7.13525C7.48354 7.26946 7.02218 7.05159 6.72811 6.48166C7.57393 5.99466 8.41975 5.5077 9.26557 5.0207C9.65695 4.81093 10.0543 4.79813 10.4574 4.98225C10.9957 5.28982 11.5339 5.59739 12.0722 5.90496C12.5597 6.08274 13.0467 6.08274 13.5331 5.90496C14.0743 5.61838 14.6061 5.31723 15.1286 5.00147C15.5131 5.66786 15.8976 6.33429 16.282 7.00068C16.4615 7.20572 16.6408 7.20572 16.8203 7.00068C16.8972 6.88534 16.8972 6.77001 16.8203 6.65467C16.4114 5.93203 15.9949 5.21435 15.5708 4.50167C15.7765 4.35973 15.9816 4.21875 16.1859 4.07876ZM4.92113 9.30746C5.40982 9.2626 5.67895 9.48047 5.7285 9.96105C5.71847 10.2342 5.59033 10.4328 5.34404 10.557C4.95635 10.7892 4.55904 11.0007 4.1522 11.1913C4.08696 11.176 4.02291 11.1568 3.95997 11.1337C3.75172 10.903 3.59793 10.6403 3.49862 10.3455C3.53478 10.1618 3.6373 10.0272 3.80619 9.94183C4.18023 9.72933 4.55189 9.51788 4.92113 9.30746ZM5.69006 11.076C6.25887 11.0489 6.52158 11.318 6.47821 11.8834C6.42815 12.0285 6.34484 12.1502 6.22831 12.2486C5.91389 12.4474 5.5871 12.6204 5.24792 12.7676C5.07557 12.7237 4.94743 12.6212 4.86346 12.4601C4.7768 12.3252 4.69991 12.1843 4.63278 12.0372C4.59391 11.8648 4.63878 11.7174 4.76735 11.595C5.0723 11.4107 5.37987 11.2377 5.69006 11.076ZM7.11257 12.4601C7.80672 12.4685 8.04378 12.8017 7.82383 13.4597C7.49638 13.7261 7.13752 13.9439 6.74733 14.1133C6.6293 14.0911 6.52677 14.0399 6.43976 13.9595C6.30766 13.7337 6.1859 13.503 6.07452 13.2674C6.08552 13.1273 6.14961 13.0184 6.26675 12.9406C6.54607 12.7691 6.82803 12.6089 7.11257 12.4601ZM8.65043 13.8057C9.13581 13.836 9.37291 14.0923 9.36168 14.5746C9.31866 14.7568 9.22255 14.9042 9.07334 15.0167C8.89391 15.1193 8.71452 15.2218 8.53509 15.3243C8.34528 15.3769 8.18507 15.3321 8.05451 15.1898C7.95197 15.0103 7.84947 14.8309 7.74694 14.6515C7.70807 14.4792 7.75293 14.3318 7.8815 14.2094C8.13694 14.0625 8.39322 13.928 8.65043 13.8057Z" fill="url(#paint2_linear_1821_1163)"/>
<defs>
<linearGradient id="paint0_linear_1821_1163" x1="6.3021" y1="-1.48606e-07" x2="10.8857" y2="1.97734" gradientUnits="userSpaceOnUse">
<stop offset="0.11" stop-color="#60D7AD"/>
<stop offset="0.76" stop-color="#213C3A"/>
</linearGradient>
<linearGradient id="paint1_linear_1821_1163" x1="10.5741" y1="1.04004" x2="14.5108" y2="2.73945" gradientUnits="userSpaceOnUse">
<stop offset="0.11" stop-color="#60D7AD"/>
<stop offset="0.76" stop-color="#213C3A"/>
</linearGradient>
<linearGradient id="paint2_linear_1821_1163" x1="-0.235804" y1="1.61523" x2="20.6229" y2="13.9416" gradientUnits="userSpaceOnUse">
<stop offset="0.11" stop-color="#60D7AD"/>
<stop offset="0.76" stop-color="#213C3A"/>
</linearGradient>
</defs>
</svg>
