<svg width="15" height="18" viewBox="0 0 15 18" fill="none" xmlns="http://www.w3.org/2000/svg">
<path opacity="0.894" fill-rule="evenodd" clip-rule="evenodd" d="M8.77934 0.00262279C8.97654 -0.0163866 9.10303 0.0679355 9.15879 0.255589C9.18289 0.653108 9.18289 1.05063 9.15879 1.44815C9.0782 1.69976 8.91558 1.76602 8.67092 1.64691C8.62752 1.61429 8.59738 1.57213 8.58058 1.52042C8.55647 1.07472 8.55647 0.629015 8.58058 0.183313C8.62058 0.0888837 8.68682 0.0286534 8.77934 0.00262279Z" fill="url(#paint0_linear_1821_1162)"/>
<path opacity="0.905" fill-rule="evenodd" clip-rule="evenodd" d="M6.61206 0.400256C6.74144 0.379398 6.84985 0.415536 6.93731 0.508671C7.12092 0.905987 7.28954 1.30953 7.44324 1.7193C7.41205 1.901 7.30364 2.00339 7.118 2.02647C7.02086 2.00822 6.94255 1.96004 6.8831 1.88192C6.71654 1.51265 6.55992 1.13922 6.4133 0.761637C6.3944 0.594676 6.46064 0.474217 6.61206 0.400256Z" fill="url(#paint1_linear_1821_1162)"/>
<path opacity="0.912" fill-rule="evenodd" clip-rule="evenodd" d="M10.879 0.472504C11.2143 0.431881 11.3408 0.576434 11.2584 0.906161C11.1069 1.25257 10.9623 1.60191 10.8248 1.95417C10.6429 2.10881 10.4743 2.09676 10.3189 1.91803C10.2948 1.82166 10.2948 1.72529 10.3189 1.62892C10.4514 1.30368 10.5839 0.978437 10.7164 0.653194C10.7534 0.57416 10.8076 0.513933 10.879 0.472504Z" fill="url(#paint2_linear_1821_1162)"/>
<path opacity="0.892" fill-rule="evenodd" clip-rule="evenodd" d="M4.73207 1.62831C4.85776 1.6169 4.97824 1.63497 5.09345 1.68252C5.36449 1.95356 5.63552 2.22459 5.90656 2.49563C6.03246 2.76078 5.95419 2.92942 5.67166 3.00156C5.61033 2.98715 5.55013 2.96908 5.49097 2.94735C5.2079 2.66427 4.92479 2.38119 4.64172 2.09811C4.54986 1.91517 4.58 1.75858 4.73207 1.62831Z" fill="url(#paint3_linear_1821_1162)"/>
<path opacity="0.905" fill-rule="evenodd" clip-rule="evenodd" d="M12.6851 1.7005C13.0487 1.67226 13.1752 1.82885 13.0645 2.1703C12.7935 2.44133 12.5225 2.71237 12.2514 2.9834C11.8869 3.11252 11.7242 2.98604 11.7636 2.60395C12.0669 2.2945 12.3741 1.99335 12.6851 1.7005Z" fill="url(#paint4_linear_1821_1162)"/>
<path opacity="0.931" fill-rule="evenodd" clip-rule="evenodd" d="M8.67352 2.24378C10.4717 2.21787 11.7546 3.01291 12.5222 4.62889C13.1123 6.31676 12.769 7.78035 11.4923 9.01967C11.161 9.20639 10.902 9.46536 10.7153 9.79664C10.6738 9.87809 10.6617 9.9624 10.6792 10.0496C10.9178 10.2134 11.0443 10.4422 11.0586 10.7362C11.0174 11.1269 10.8126 11.3919 10.4443 11.5313C10.3903 11.8305 10.3481 12.1316 10.3178 12.4347C10.2996 12.5619 10.2333 12.6523 10.119 12.7058C9.324 12.7299 8.52897 12.7299 7.73393 12.7058C7.66939 12.6774 7.61518 12.6352 7.57131 12.5793C7.50543 12.2693 7.45726 11.9561 7.42676 11.6397C7.29879 11.5363 7.16027 11.446 7.01117 11.3686C6.70985 10.9988 6.67971 10.6073 6.92082 10.1942C6.97062 10.1323 7.03086 10.084 7.10151 10.0496C7.07809 9.83375 6.99378 9.64103 6.84855 9.47139C5.32883 8.40677 4.77473 6.96124 5.18619 5.13482C5.60793 3.7735 6.49331 2.86403 7.84234 2.4064C8.1205 2.33027 8.39753 2.27606 8.67352 2.24378ZM8.85421 2.85812C10.6022 3.00643 11.6803 3.93399 12.0886 5.64076C12.2151 6.59245 11.9862 7.4477 11.4019 8.20656C11.0422 8.56075 10.6687 8.89803 10.2817 9.21843C10.1235 9.43417 10.0331 9.67507 10.0106 9.94119C9.25173 9.94119 8.49283 9.94119 7.73393 9.94119C7.69121 9.67438 7.58883 9.43349 7.42676 9.21843C7.12428 8.92795 6.81111 8.65088 6.48716 8.38725C5.33837 6.94776 5.31427 5.49021 6.41489 4.01454C7.0713 3.29177 7.88441 2.90629 8.85421 2.85812ZM7.44482 10.5194C8.37245 10.5134 9.29997 10.5194 10.2275 10.5375C10.3791 10.6452 10.4092 10.7837 10.3178 10.9531C10.2907 10.9757 10.2606 10.9937 10.2275 11.0073C9.31197 11.0314 8.39645 11.0314 7.48096 11.0073C7.25441 10.8611 7.24238 10.6985 7.44482 10.5194ZM8.02303 11.6397C8.61328 11.6397 9.20356 11.6397 9.7938 11.6397C9.7758 11.8078 9.76377 11.9765 9.75766 12.1456C9.19149 12.1456 8.62535 12.1456 8.05917 12.1456C8.05306 11.9765 8.04103 11.8078 8.02303 11.6397Z" fill="url(#paint5_linear_1821_1162)"/>
<path opacity="0.921" fill-rule="evenodd" clip-rule="evenodd" d="M8.6372 3.68803C9.67115 3.63577 10.4602 4.04533 11.0042 4.91672C11.2777 5.37351 11.356 5.85534 11.2391 6.36225C11.0554 6.47558 10.8928 6.45147 10.7513 6.28997C10.7373 5.38764 10.3217 4.75522 9.50451 4.39272C9.22137 4.31098 8.93227 4.26277 8.6372 4.24817C8.4796 4.16773 8.4254 4.04124 8.47458 3.86872C8.51162 3.78968 8.56583 3.72944 8.6372 3.68803Z" fill="url(#paint6_linear_1821_1162)"/>
<path opacity="0.935" fill-rule="evenodd" clip-rule="evenodd" d="M12.7929 11.9999C13.291 11.9471 13.7187 12.0916 14.0758 12.4335C14.4386 12.9797 14.3723 13.4676 13.877 13.8971C12.3647 15.0809 10.859 16.2735 9.35977 17.4748C9.09921 17.6407 8.8161 17.7311 8.51052 17.7458C6.88803 17.3854 5.26181 17.0361 3.63188 16.6978C3.4552 16.7085 3.29258 16.7627 3.14401 16.8604C2.93203 17.0061 2.7152 17.1446 2.49353 17.276C2.50018 17.57 2.37973 17.7929 2.13215 17.9446C1.57999 18.0025 1.02588 18.0145 0.469796 17.9807C0.254106 17.9338 0.103529 17.8073 0.0180699 17.6013C-0.00602331 16.0714 -0.00602331 14.5416 0.0180699 13.0117C0.0823451 12.8631 0.184735 12.7487 0.325244 12.6684C0.624268 12.6285 0.925421 12.6105 1.2287 12.6142C1.53197 12.6105 1.83311 12.6285 2.13215 12.6684C2.35693 12.7857 2.48944 12.9725 2.52967 13.2285C3.05244 12.9165 3.57041 12.5973 4.0836 12.2709C4.29071 12.174 4.50754 12.1379 4.73409 12.1625C4.95674 12.2005 5.17357 12.2608 5.38458 12.3432C6.66144 12.8009 7.93835 13.2586 9.21521 13.7164C9.29667 13.7662 9.37494 13.8204 9.45011 13.879C10.3385 13.3475 11.2239 12.8115 12.1063 12.2709C12.3268 12.1474 12.5557 12.0571 12.7929 11.9999ZM12.7929 12.6503C13.0595 12.621 13.3124 12.6632 13.5518 12.7768C13.6856 12.8995 13.7277 13.0501 13.6783 13.2285C12.1818 14.3876 10.7061 15.5742 9.25135 16.7881C9.05635 16.9549 8.83349 17.0694 8.5828 17.1315C6.93598 16.7635 5.28567 16.4142 3.63188 16.0835C3.20194 16.1297 2.81646 16.2863 2.47546 16.5533C2.45136 15.6739 2.45136 14.7945 2.47546 13.9152C3.10488 13.5312 3.73729 13.1517 4.37271 12.7768C4.5293 12.7045 4.68592 12.7045 4.8425 12.7768C6.24535 13.2685 7.6427 13.7744 9.03452 14.2946C9.38206 14.6338 9.37003 14.9591 8.99838 15.2703C8.80566 15.3426 8.6129 15.3426 8.42017 15.2703C7.64118 14.9592 6.85818 14.658 6.0712 14.3669C5.71426 14.351 5.59981 14.5136 5.72789 14.8548C6.58281 15.2121 7.44412 15.5554 8.31176 15.8847C9.12378 16.0902 9.64779 15.7951 9.88377 14.9993C9.91224 14.8082 9.89417 14.6215 9.82956 14.4392C9.8348 14.4113 9.84683 14.3872 9.8657 14.3669C10.8342 13.7746 11.8099 13.2023 12.7929 12.6503ZM0.57821 13.2285C1.01187 13.2285 1.44552 13.2285 1.87918 13.2285C1.87918 14.6138 1.87918 15.9991 1.87918 17.3844C1.44552 17.3844 1.01187 17.3844 0.57821 17.3844C0.57821 15.9991 0.57821 14.6138 0.57821 13.2285Z" fill="url(#paint7_linear_1821_1162)"/>
<defs>
<linearGradient id="paint0_linear_1821_1162" x1="8.55514" y1="-6.65326e-08" x2="9.41271" y2="0.133504" gradientUnits="userSpaceOnUse">
<stop offset="0.11" stop-color="#60D7AD"/>
<stop offset="0.76" stop-color="#213C3A"/>
</linearGradient>
<linearGradient id="paint1_linear_1821_1162" x1="6.39778" y1="0.394531" x2="7.77206" y2="0.770241" gradientUnits="userSpaceOnUse">
<stop offset="0.11" stop-color="#60D7AD"/>
<stop offset="0.76" stop-color="#213C3A"/>
</linearGradient>
<linearGradient id="paint2_linear_1821_1162" x1="10.289" y1="0.46582" x2="11.6004" y2="0.814295" gradientUnits="userSpaceOnUse">
<stop offset="0.11" stop-color="#60D7AD"/>
<stop offset="0.76" stop-color="#213C3A"/>
</linearGradient>
<linearGradient id="paint3_linear_1821_1162" x1="4.57337" y1="1.625" x2="6.23074" y2="2.33991" gradientUnits="userSpaceOnUse">
<stop offset="0.11" stop-color="#60D7AD"/>
<stop offset="0.76" stop-color="#213C3A"/>
</linearGradient>
<linearGradient id="paint4_linear_1821_1162" x1="11.7417" y1="1.69727" x2="13.3589" y2="2.40112" gradientUnits="userSpaceOnUse">
<stop offset="0.11" stop-color="#60D7AD"/>
<stop offset="0.76" stop-color="#213C3A"/>
</linearGradient>
<linearGradient id="paint5_linear_1821_1162" x1="4.96188" y1="2.24316" x2="15.0138" y2="5.45209" gradientUnits="userSpaceOnUse">
<stop offset="0.11" stop-color="#60D7AD"/>
<stop offset="0.76" stop-color="#213C3A"/>
</linearGradient>
<linearGradient id="paint6_linear_1821_1162" x1="8.42308" y1="3.68359" x2="11.8049" y2="5.18972" gradientUnits="userSpaceOnUse">
<stop offset="0.11" stop-color="#60D7AD"/>
<stop offset="0.76" stop-color="#213C3A"/>
</linearGradient>
<linearGradient id="paint7_linear_1821_1162" x1="-0.171372" y1="11.9893" x2="9.77321" y2="22.2119" gradientUnits="userSpaceOnUse">
<stop offset="0.11" stop-color="#60D7AD"/>
<stop offset="0.76" stop-color="#213C3A"/>
</linearGradient>
</defs>
</svg>
