<svg width="27" height="24" viewBox="0 0 27 24" fill="none" xmlns="http://www.w3.org/2000/svg">
<path opacity="0.897" fill-rule="evenodd" clip-rule="evenodd" d="M21.6728 0.023104C24.318 -0.181029 26.0528 0.96753 26.8773 3.46887C27.241 5.41752 26.6547 7.00881 25.1185 8.24268C23.3478 9.34339 21.5771 9.34339 19.8063 8.24268C17.8359 6.5506 17.4172 4.52865 18.55 2.17671C19.2957 1.02101 20.3366 0.303137 21.6728 0.023104ZM21.8881 0.812758C21.9837 1.36106 22.0315 1.93536 22.0317 2.53564C22.0078 3.10993 21.9838 3.68423 21.9599 4.25852C20.9197 4.68493 19.8669 5.06777 18.8013 5.40711C18.5455 2.99651 19.5744 1.46508 21.8881 0.812758ZM22.8931 0.812758C24.7349 1.17097 25.8357 2.27168 26.1953 4.11495C25.0945 4.19901 23.9938 4.19901 22.8931 4.11495C22.8931 3.01424 22.8931 1.91346 22.8931 0.812758ZM22.5342 4.9046C23.7292 4.96985 24.9256 4.99376 26.1235 4.97639C25.9146 6.44184 25.125 7.45884 23.7546 8.02732C21.7791 8.58245 20.2476 7.99617 19.1602 6.26855C20.2839 5.79863 21.4085 5.34393 22.5342 4.9046Z" fill="url(#paint0_linear_1743_1202)"/>
<path opacity="0.898" fill-rule="evenodd" clip-rule="evenodd" d="M1.36268 2.96536C2.74903 2.92788 3.38312 3.59787 3.26503 4.97538C3.23273 5.12032 3.17293 5.25191 3.08556 5.37021C4.47708 6.89654 5.87692 8.41598 7.28509 9.92867C8.06663 9.55293 8.76059 9.6726 9.3669 10.2876C10.5308 9.72364 11.6913 9.14935 12.8486 8.56472C12.7944 7.14736 13.4643 6.46539 14.8586 6.5188C15.8978 6.91039 16.2568 7.64025 15.9354 8.70829C17.2841 9.82931 18.6242 10.966 19.9554 12.1182C20.1222 12.0962 20.2897 12.0484 20.4579 11.9746C21.6303 11.8181 22.3004 12.3206 22.468 13.4821C22.3141 14.6173 21.6681 15.1438 20.5297 15.0614C19.9267 14.913 19.5318 14.5421 19.3453 13.9487C19.2894 13.5285 19.3133 13.1217 19.417 12.7283C18.0637 11.6208 16.7237 10.4961 15.397 9.35437C14.6919 9.76715 14.0218 9.71934 13.387 9.2108C12.1929 9.83771 10.9845 10.4359 9.76173 11.0055C9.7651 12.1263 9.21471 12.7485 8.11063 12.8719C7.31452 12.8155 6.80002 12.4088 6.56722 11.6515C6.52989 11.237 6.5538 10.8302 6.63901 10.4312C5.2462 8.94296 3.85835 7.45935 2.47538 5.9804C1.63363 6.29777 0.939695 6.10631 0.393564 5.4061C-0.0967611 4.25838 0.226279 3.44482 1.36268 2.96536ZM1.57804 3.75501C2.40481 3.85336 2.65607 4.28408 2.3318 5.04717C1.64997 5.5018 1.18336 5.33425 0.931964 4.54466C1.02214 4.16836 1.2375 3.90512 1.57804 3.75501ZM14.3561 7.27256C15.0715 7.35231 15.3467 7.73522 15.1816 8.42114C14.796 8.9197 14.3653 8.96759 13.8895 8.56472C13.5824 7.95956 13.738 7.52884 14.3561 7.27256ZM7.89527 10.503C8.69634 10.5037 8.99548 10.8867 8.79261 11.6515C8.33827 12.2097 7.88364 12.2097 7.42866 11.6515C7.25508 11.1307 7.41064 10.7478 7.89527 10.503ZM20.6733 12.7283C21.4773 12.7785 21.7525 13.1853 21.4989 13.9487C21.1788 14.3369 20.8079 14.3967 20.3862 14.1282C19.9472 13.5422 20.0429 13.0756 20.6733 12.7283Z" fill="url(#paint1_linear_1743_1202)"/>
<path opacity="0.897" fill-rule="evenodd" clip-rule="evenodd" d="M0.215362 8.70665C1.24458 8.69466 2.27352 8.70665 3.30219 8.74254C3.38841 8.80736 3.44828 8.89107 3.48166 8.99379C3.52954 13.8992 3.52954 18.8047 3.48166 23.7101C3.44828 23.8128 3.38841 23.8965 3.30219 23.9613C2.24932 24.0092 1.19645 24.0092 0.143575 23.9613C0.107682 23.9254 0.0717885 23.8895 0.0358952 23.8536C-0.011965 18.8765 -0.011965 13.8992 0.0358952 8.92201C0.0859951 8.83651 0.145822 8.76472 0.215362 8.70665ZM0.789656 9.4963C1.41181 9.4963 2.03396 9.4963 2.65611 9.4963C2.65611 14.0667 2.65611 18.6371 2.65611 23.2076C2.03396 23.2076 1.41181 23.2076 0.789656 23.2076C0.789656 18.6371 0.789656 14.0667 0.789656 9.4963Z" fill="url(#paint2_linear_1743_1202)"/>
<path opacity="0.9" fill-rule="evenodd" clip-rule="evenodd" d="M12.9185 11.5807C13.9716 11.5687 15.0245 11.5807 16.0771 11.6166C16.113 11.6525 16.1489 11.6883 16.1848 11.7242C16.2327 15.7682 16.2327 19.8122 16.1848 23.8562C16.1489 23.8921 16.113 23.928 16.0771 23.9639C15.0242 24.0118 13.9714 24.0118 12.9185 23.9639C12.8323 23.8991 12.7724 23.8153 12.739 23.7126C12.6912 19.7644 12.6912 15.8161 12.739 11.8678C12.7866 11.7613 12.8464 11.6656 12.9185 11.5807ZM13.5646 12.3703C14.1868 12.3703 14.8089 12.3703 15.431 12.3703C15.431 15.9836 15.431 19.5969 15.431 23.2101C14.8089 23.2101 14.1868 23.2101 13.5646 23.2101C13.5646 19.5969 13.5646 15.9836 13.5646 12.3703Z" fill="url(#paint3_linear_1743_1202)"/>
<path opacity="0.925" fill-rule="evenodd" clip-rule="evenodd" d="M6.67779 13.8775C7.63521 13.8656 8.59241 13.8775 9.54926 13.9134C9.65199 13.9468 9.73569 14.0067 9.80051 14.0929C9.84839 17.3472 9.84839 20.6016 9.80051 23.8559C9.76462 23.8918 9.72872 23.9277 9.69283 23.9636C8.63994 24.0115 7.58711 24.0115 6.53422 23.9636C6.49832 23.9277 6.46243 23.8918 6.42654 23.8559C6.37865 20.6016 6.37865 17.3472 6.42654 14.0929C6.50873 14.0114 6.59251 13.9396 6.67779 13.8775ZM7.1803 14.739C7.80247 14.739 8.42458 14.739 9.04675 14.739C9.04675 17.5626 9.04675 20.3862 9.04675 23.2098C8.42458 23.2098 7.80247 23.2098 7.1803 23.2098C7.1803 20.3862 7.1803 17.5626 7.1803 14.739Z" fill="url(#paint4_linear_1743_1202)"/>
<path opacity="0.902" fill-rule="evenodd" clip-rule="evenodd" d="M19.3052 16.3883C20.3344 16.3763 21.3634 16.3883 22.3921 16.4242C22.4758 16.4601 22.5356 16.5199 22.5715 16.6036C22.6194 19.0205 22.6194 21.4373 22.5715 23.8541C22.5356 23.89 22.4997 23.9259 22.4638 23.9618C21.4109 24.0097 20.3581 24.0097 19.3052 23.9618C19.2214 23.9259 19.1616 23.8661 19.1258 23.7823C19.0779 21.4134 19.0779 19.0444 19.1258 16.6754C19.1733 16.5689 19.2331 16.4732 19.3052 16.3883ZM19.9513 17.1779C20.5735 17.1779 21.1956 17.1779 21.8178 17.1779C21.8178 19.188 21.8178 21.198 21.8178 23.208C21.1956 23.208 20.5735 23.208 19.9513 23.208C19.9513 21.198 19.9513 19.188 19.9513 17.1779Z" fill="url(#paint5_linear_1743_1202)"/>
<defs>
<linearGradient id="paint0_linear_1743_1202" x1="17.8213" y1="-3.54003e-07" x2="28.7347" y2="4.70473" gradientUnits="userSpaceOnUse">
<stop offset="0.11" stop-color="#60D7AD"/>
<stop offset="0.76" stop-color="#213C3A"/>
</linearGradient>
<linearGradient id="paint1_linear_1743_1202" x1="-0.0952134" y1="2.96387" x2="19.4294" y2="18.4935" gradientUnits="userSpaceOnUse">
<stop offset="0.11" stop-color="#60D7AD"/>
<stop offset="0.76" stop-color="#213C3A"/>
</linearGradient>
<linearGradient id="paint2_linear_1743_1202" x1="-0.0421375" y1="8.70215" x2="4.9378" y2="9.19676" gradientUnits="userSpaceOnUse">
<stop offset="0.11" stop-color="#60D7AD"/>
<stop offset="0.76" stop-color="#213C3A"/>
</linearGradient>
<linearGradient id="paint3_linear_1743_1202" x1="12.661" y1="11.5762" x2="17.616" y2="12.1821" gradientUnits="userSpaceOnUse">
<stop offset="0.11" stop-color="#60D7AD"/>
<stop offset="0.76" stop-color="#213C3A"/>
</linearGradient>
<linearGradient id="paint4_linear_1743_1202" x1="6.34935" y1="13.873" x2="11.1717" y2="14.5817" gradientUnits="userSpaceOnUse">
<stop offset="0.11" stop-color="#60D7AD"/>
<stop offset="0.76" stop-color="#213C3A"/>
</linearGradient>
<linearGradient id="paint5_linear_1743_1202" x1="19.0477" y1="16.3838" x2="23.8843" y2="17.3488" gradientUnits="userSpaceOnUse">
<stop offset="0.11" stop-color="#60D7AD"/>
<stop offset="0.76" stop-color="#213C3A"/>
</linearGradient>
</defs>
</svg>
