<svg width="56" height="56" viewBox="0 0 56 56" fill="none" xmlns="http://www.w3.org/2000/svg">
<path d="M41.312 6.17395C41.7379 6.54442 42.146 6.931 42.5468 7.32826C42.6331 7.41314 42.7194 7.49802 42.8083 7.58547C45.4212 10.3206 46.7537 14.1188 47.496 17.7531C47.5126 17.8339 47.5291 17.9147 47.5461 17.9979C47.8318 19.4833 47.9512 20.9527 47.9472 22.463C47.9471 22.5906 47.9471 22.5906 47.947 22.7208C47.9393 25.1439 47.5368 27.4395 46.8124 29.7501C46.7826 29.8466 46.7527 29.9432 46.7219 30.0426C46.1957 31.7129 45.5376 33.3286 44.8814 34.9509C43.7135 37.839 42.6372 40.6656 42.1093 43.7501C42.0951 43.8289 42.0809 43.9077 42.0663 43.9889C41.6056 46.6277 41.8242 49.4662 42.3007 52.0836C42.3346 52.2729 42.3346 52.2729 42.3691 52.466C42.3902 52.5679 42.4114 52.6698 42.4332 52.7749C42.4389 53.1375 42.325 53.3074 42.1093 53.5939C41.7251 53.85 41.5772 53.8669 41.1249 53.8126C40.822 53.641 40.6245 53.4958 40.4968 53.1641C40.432 52.9006 40.3832 52.6379 40.3388 52.3703C40.3222 52.2835 40.3057 52.1967 40.2886 52.1073C39.9993 50.5228 39.8798 48.954 39.8876 47.3458C39.8879 47.2578 39.8881 47.1698 39.8883 47.0791C39.8946 45.6212 39.9674 44.1997 40.2499 42.7658C40.2705 42.6612 40.2911 42.5566 40.3123 42.4489C40.9389 39.3883 42.0802 36.5183 43.2469 33.6333C44.6896 30.0633 45.9838 26.5171 45.9784 22.6134C45.9784 22.5386 45.9783 22.4637 45.9783 22.3866C45.9611 17.6288 44.5513 12.4017 41.2215 8.88045C41.0156 8.64076 41.0156 8.64076 40.9053 8.4045C40.7643 8.14292 40.6264 8.10774 40.3593 7.98451C40.1812 7.83955 40.0061 7.69098 39.8329 7.54018C36.2379 4.57679 31.207 3.85125 26.6876 4.18026C22.3711 4.6236 18.3264 6.81231 15.5423 10.1344C12.7211 13.6457 11.4643 18.0992 11.9144 22.5644C12.0082 23.3677 12.1875 24.1437 12.3946 24.9248C12.4182 25.0153 12.4418 25.1058 12.4661 25.1991C12.4876 25.2781 12.5092 25.3571 12.5313 25.4385C12.6666 26.2051 12.5077 26.7554 12.2222 27.4554C12.1851 27.5492 12.1481 27.643 12.11 27.7396C11.9915 28.0389 11.8713 28.3374 11.7509 28.6359C11.673 28.8317 11.5951 29.0276 11.5174 29.2236C10.8809 30.8258 10.8809 30.8258 10.5957 31.5178C10.524 31.6946 10.4524 31.8715 10.3807 32.0483C10.3469 32.1287 10.313 32.209 10.2781 32.2918C10.104 32.7259 10.0182 33.0183 10.1718 33.4689C10.265 33.4727 10.3583 33.4764 10.4543 33.4803C10.802 33.4956 11.1494 33.5132 11.4969 33.5323C11.647 33.5401 11.7971 33.547 11.9473 33.5529C12.1638 33.5616 12.3801 33.574 12.5964 33.5864C12.7265 33.5927 12.8565 33.599 12.9904 33.6055C13.4468 33.7116 13.5916 33.8772 13.8906 34.2345C14.0183 34.5919 14.0183 34.5919 14.1029 35.0021C14.119 35.0773 14.1351 35.1524 14.1516 35.2298C14.1861 35.3921 14.2197 35.5546 14.2524 35.7173C14.3045 35.9759 14.3591 36.2337 14.4144 36.4916C14.5314 37.0399 14.6453 37.5888 14.7587 38.1378C14.8899 38.7727 15.0224 39.4072 15.1583 40.0411C15.2116 40.2934 15.2626 40.5461 15.3134 40.799C15.523 41.803 15.7749 42.7624 16.5886 43.4498C16.6796 43.497 16.7705 43.5442 16.8642 43.5929C16.956 43.6427 17.0478 43.6925 17.1423 43.7437C18.3536 44.3087 20.0653 43.9177 21.355 43.7689C21.5418 43.7479 21.7286 43.7269 21.9155 43.7059C22.3037 43.662 22.6919 43.6174 23.08 43.5724C23.5753 43.5149 24.071 43.4599 24.5667 43.4055C24.9513 43.3629 25.3356 43.3188 25.72 43.2743C25.9027 43.2533 26.0854 43.2329 26.2682 43.2131C27.6851 43.0582 28.6973 42.8208 29.6406 41.672C30.2498 40.8237 30.6608 39.9521 31.0283 38.9825C31.4846 37.7969 31.4846 37.7969 31.8281 37.6251C32.5954 37.5633 32.5954 37.5633 32.9765 37.7824C33.2291 38.2139 33.2281 38.5694 33.1406 39.047C32.9569 39.6107 32.7278 40.1476 32.4843 40.6876C32.4344 40.8023 32.3845 40.9169 32.3331 41.035C31.6008 42.6145 30.3994 44.1459 28.7656 44.8439C28.3377 44.9472 27.9111 44.998 27.4736 45.0421C27.3617 45.0553 27.2498 45.0685 27.1345 45.0821C26.6895 45.1331 26.2609 45.172 25.8124 45.172C25.8626 45.2727 25.9128 45.3733 25.9645 45.4771C27.0601 47.7196 27.4988 50.0612 26.7968 52.5001C26.4117 53.4861 26.4117 53.4861 25.9218 53.8126C25.4969 53.859 25.2544 53.8799 24.8964 53.6349C24.6775 53.315 24.6426 53.1047 24.6093 52.7189C24.6905 52.3668 24.6905 52.3668 24.8144 52.008C25.4463 50.1519 25.1249 48.3692 24.3466 46.6071C24.1746 46.2549 24.1746 46.2549 23.9321 45.9073C23.7343 45.6095 23.7343 45.6095 23.7343 45.3908C23.6554 45.4045 23.5765 45.4182 23.4953 45.4324C17.8429 46.3978 17.8429 46.3978 16.1874 45.5001C16.1017 45.4538 16.016 45.4074 15.9277 45.3596C14.6804 44.6032 13.9388 43.4631 13.5872 42.0642C13.5273 41.8017 13.469 41.5387 13.412 41.2755C13.3805 41.135 13.349 40.9944 13.3165 40.8496C13.2495 40.5507 13.1835 40.2516 13.1182 39.9523C13.0308 39.5527 12.9414 39.1536 12.8514 38.7547C12.7793 38.4351 12.7079 38.1154 12.6366 37.7957C12.6023 37.6419 12.5679 37.4881 12.5334 37.3343C12.4851 37.1191 12.4378 36.9036 12.3905 36.6882C12.3633 36.5653 12.3361 36.4424 12.3081 36.3158C12.2551 36.0142 12.2382 35.7428 12.2499 35.4376C12.1828 35.4405 12.1156 35.4434 12.0464 35.4463C9.48952 35.5411 9.48952 35.5411 8.74993 34.8908C8.16832 34.2639 8.04918 33.6849 8.05753 32.8544C8.12102 32.2048 8.36818 31.6406 8.62005 31.0434C8.70166 30.8413 8.78326 30.6392 8.86479 30.437C8.9782 30.1574 9.09364 29.8785 9.20913 29.5997C9.41193 29.1097 9.61287 28.6189 9.81172 28.1272C9.91745 27.8664 10.0245 27.6061 10.1331 27.3464C10.5415 26.3431 10.5612 25.751 10.2949 24.6984C9.94289 23.2132 9.75985 21.652 9.84368 20.1251C9.84818 20.0427 9.85267 19.9602 9.8573 19.8752C10.1284 15.3364 11.8178 11.1692 14.9843 7.87514C15.0327 7.82389 15.0812 7.77264 15.1311 7.71983C21.6083 0.887216 34.0573 0.0396268 41.312 6.17395Z" fill="url(#paint0_linear_3515_92)"/>
<path d="M27.2344 7.76571C27.5634 8.01453 27.6629 8.14016 27.7215 8.55408C27.7192 8.68926 27.717 8.82443 27.7146 8.96371C27.714 9.03592 27.7134 9.10813 27.7127 9.18253C27.7103 9.41216 27.7048 9.6416 27.6992 9.87118C27.697 10.0273 27.695 10.1833 27.6932 10.3394C27.6888 10.7212 27.6802 11.1026 27.6719 11.4845C28.5742 11.4845 29.4766 11.4845 30.4062 11.4845C30.4024 11.2789 30.3986 11.0733 30.3947 10.8615C30.3916 10.5907 30.3886 10.3198 30.3857 10.0489C30.383 9.91356 30.3802 9.77821 30.3774 9.63875C30.3763 9.50763 30.3753 9.37651 30.3742 9.24142C30.3725 9.12113 30.3708 9.00085 30.369 8.87692C30.412 8.47817 30.5277 8.21683 30.7344 7.87508C31.0766 7.70394 31.4574 7.68947 31.8281 7.76571C32.1571 8.01453 32.2567 8.14016 32.3153 8.55408C32.313 8.68926 32.3107 8.82443 32.3083 8.96371C32.3077 9.03592 32.3071 9.10813 32.3065 9.18253C32.304 9.41216 32.2985 9.6416 32.293 9.87118C32.2908 10.0273 32.2888 10.1833 32.287 10.3394C32.2822 10.7212 32.2746 11.1028 32.2656 11.4845C32.3548 11.481 32.444 11.4776 32.536 11.474C32.8735 11.4627 33.211 11.4546 33.5487 11.4484C33.7641 11.4436 33.9794 11.4352 34.1946 11.4268C35.2852 11.4102 36.138 11.624 36.9844 12.3387C37.738 13.1261 38.0053 14.0266 37.9916 15.0998C37.9861 15.266 37.9861 15.266 37.9805 15.4356C37.9785 15.5507 37.9765 15.6657 37.9745 15.7843C37.9694 16.0646 37.9622 16.3448 37.9531 16.6251C38.0988 16.6216 38.0988 16.6216 38.2474 16.6181C38.6086 16.6107 38.9697 16.6052 39.331 16.6011C39.4872 16.5989 39.6433 16.5959 39.7995 16.5921C40.0243 16.5868 40.249 16.5843 40.4739 16.5824C40.609 16.5801 40.7442 16.5778 40.8835 16.5754C41.2975 16.634 41.4221 16.7344 41.6719 17.0626C41.7515 17.3622 41.7353 17.6348 41.6719 17.9376C41.4673 18.2035 41.313 18.3358 41.0156 18.4845C40.7854 18.4938 40.5548 18.4962 40.3243 18.4951C40.1869 18.4948 40.0494 18.4944 39.9078 18.4941C39.7635 18.4932 39.6193 18.4922 39.4707 18.4913C39.3242 18.4907 39.1776 18.4902 39.0311 18.4898C38.6717 18.4885 38.3124 18.4865 37.9531 18.4845C37.9531 19.3868 37.9531 20.2891 37.9531 21.2188C38.1757 21.2125 38.3984 21.2061 38.6277 21.1996C38.8446 21.1958 39.0614 21.192 39.2782 21.1888C39.4284 21.1861 39.5785 21.1823 39.7286 21.1776C39.9449 21.1709 40.1613 21.1681 40.3777 21.1654C40.5078 21.1626 40.6378 21.1597 40.7717 21.1567C41.2298 21.2373 41.3882 21.4046 41.6719 21.7657C41.7402 22.1485 41.7402 22.1485 41.6719 22.5313C41.3882 22.8924 41.2298 23.0598 40.7717 23.1403C40.6417 23.1374 40.5117 23.1346 40.3777 23.1316C40.2364 23.1299 40.0951 23.1281 39.9494 23.1263C39.8012 23.1217 39.6531 23.1171 39.5049 23.1124C39.3546 23.1096 39.2042 23.1071 39.0539 23.1049C38.6869 23.0985 38.3201 23.0895 37.9531 23.0782C37.9554 23.1487 37.9577 23.2192 37.9601 23.2918C37.9693 23.6171 37.9749 23.9423 37.9805 24.2677C37.9841 24.3785 37.9878 24.4893 37.9916 24.6035C38.0055 25.6922 37.7284 26.5663 36.9764 27.3703C36.2951 27.9488 35.5091 28.2335 34.6262 28.2295C34.4205 28.229 34.4205 28.229 34.2107 28.2284C34.0673 28.2275 33.924 28.2266 33.7764 28.2257C33.6303 28.2251 33.4843 28.2246 33.3382 28.2242C32.9807 28.2229 32.6232 28.2211 32.2656 28.2188C32.2679 28.3159 32.2702 28.413 32.2726 28.5131C32.28 28.8743 32.2855 29.2354 32.2897 29.5967C32.2918 29.7529 32.2948 29.909 32.2986 30.0652C32.3039 30.29 32.3064 30.5147 32.3083 30.7396C32.3106 30.8748 32.3129 31.0099 32.3153 31.1492C32.2567 31.5632 32.1563 31.6878 31.8281 31.9376C31.5282 32.0173 31.2563 31.9998 30.9531 31.9376C30.5987 31.6831 30.4828 31.4823 30.4062 31.0626C30.3974 30.8411 30.3945 30.6194 30.3956 30.3978C30.3961 30.2075 30.3961 30.2075 30.3966 30.0133C30.398 29.8153 30.398 29.8153 30.3994 29.6134C30.3999 29.4797 30.4004 29.346 30.4009 29.2083C30.4022 28.8785 30.4042 28.5487 30.4062 28.2188C29.5039 28.2188 28.6016 28.2188 27.6719 28.2188C27.6782 28.4415 27.6846 28.6641 27.6911 28.8935C27.6949 29.1103 27.6987 29.3271 27.7019 29.544C27.7046 29.6941 27.7084 29.8442 27.7131 29.9943C27.7198 30.2106 27.7226 30.427 27.7253 30.6435C27.7281 30.7735 27.731 30.9035 27.734 31.0375C27.6534 31.4957 27.4867 31.6543 27.125 31.9376C26.7353 31.9991 26.7353 31.9991 26.3594 31.9376C26.1007 31.7334 25.959 31.5744 25.8125 31.2813C25.8031 31.0511 25.8008 30.8205 25.8018 30.5901C25.8023 30.3839 25.8023 30.3839 25.8029 30.1735C25.8043 29.9571 25.8043 29.9571 25.8057 29.7364C25.8062 29.5899 25.8067 29.4433 25.8072 29.2968C25.8084 28.9375 25.8102 28.5781 25.8125 28.2188C25.7288 28.2211 25.645 28.2234 25.5588 28.2258C25.174 28.235 24.7892 28.2406 24.4043 28.2462C24.2726 28.2498 24.1409 28.2535 24.0052 28.2573C22.8299 28.2701 21.9462 28.0439 21.0824 27.2255C20.2368 26.3008 20.0884 25.3326 20.1113 24.1173C20.1123 24.0169 20.1133 23.9165 20.1143 23.8131C20.1169 23.5681 20.1204 23.3232 20.125 23.0782C20.0351 23.0805 19.9452 23.0828 19.8525 23.0852C19.4443 23.0943 19.0362 23.0999 18.6279 23.1056C18.4864 23.1092 18.345 23.1129 18.1992 23.1167C18.0628 23.1181 17.9264 23.1195 17.7858 23.1209C17.6604 23.1232 17.5349 23.1255 17.4057 23.1279C16.9878 23.0674 16.8109 22.9374 16.5156 22.6407C16.3803 22.2434 16.3686 22.0674 16.543 21.6837C16.7344 21.4376 16.7344 21.4376 17.0625 21.2188C17.3809 21.194 17.3809 21.194 17.7645 21.1975C17.9701 21.1985 17.9701 21.1985 18.18 21.1996C18.3949 21.2024 18.3949 21.2024 18.6142 21.2052C18.7603 21.2063 18.9063 21.2073 19.0524 21.2082C19.4099 21.2107 19.7675 21.2147 20.125 21.2188C20.125 20.3165 20.125 19.4141 20.125 18.4845C19.9182 18.4883 19.7113 18.4921 19.4982 18.496C19.2264 18.4991 18.9545 18.5021 18.6826 18.505C18.4782 18.5091 18.4782 18.5091 18.2697 18.5133C18.0725 18.5149 18.0725 18.5149 17.8713 18.5165C17.7504 18.5182 17.6296 18.5199 17.505 18.5217C17.1294 18.4797 16.9282 18.3775 16.625 18.1563C16.414 17.8783 16.4053 17.7425 16.4199 17.3907C16.5331 17.0028 16.6354 16.8717 16.9531 16.6251C17.294 16.5754 17.294 16.5754 17.6897 16.5824C17.9022 16.5845 17.9022 16.5845 18.1191 16.5866C18.2682 16.5903 18.4173 16.594 18.5664 16.5977C18.7172 16.5999 18.868 16.6019 19.0189 16.6037C19.3876 16.6089 19.7563 16.6161 20.125 16.6251C20.1233 16.5645 20.1216 16.504 20.1198 16.4416C20.0522 13.7025 20.0522 13.7025 20.8906 12.6876C21.6886 11.8659 22.3488 11.4716 23.5054 11.4524C23.7822 11.4546 24.0591 11.4585 24.3359 11.4639C24.478 11.4654 24.6202 11.4669 24.7666 11.4684C25.1153 11.4723 25.4639 11.4777 25.8125 11.4845C25.8108 11.3945 25.8091 11.3046 25.8073 11.212C25.8005 10.8038 25.7962 10.3956 25.792 9.98739C25.7892 9.8459 25.7865 9.70442 25.7837 9.55865C25.7826 9.42224 25.7815 9.28583 25.7804 9.14529C25.7787 9.01985 25.777 8.89441 25.7752 8.76517C25.8167 8.38342 25.9122 8.18063 26.1406 7.87508C26.4829 7.70394 26.8637 7.68947 27.2344 7.76571ZM22.2236 14.0001C22.0133 14.3544 21.9708 14.6902 21.9683 15.0975C21.9675 15.1843 21.9667 15.2711 21.9659 15.3604C21.9656 15.4547 21.9653 15.5489 21.965 15.6459C21.9643 15.7459 21.9636 15.846 21.9628 15.949C21.9607 16.2797 21.9594 16.6105 21.9583 16.9412C21.9579 17.0544 21.9574 17.1675 21.957 17.2841C21.9547 17.8829 21.9531 18.4818 21.9521 19.0806C21.9509 19.6983 21.9471 20.3158 21.9428 20.9335C21.9399 21.4092 21.939 21.8849 21.9386 22.3606C21.9381 22.5883 21.9368 22.8159 21.9348 23.0435C21.9321 23.3626 21.9322 23.6816 21.933 24.0007C21.9316 24.0941 21.9302 24.1874 21.9287 24.2835C21.9341 24.91 22.0367 25.4148 22.4219 25.922C23.0366 26.4134 23.5808 26.4224 24.3483 26.4161C24.4626 26.4168 24.5769 26.4176 24.6946 26.4184C25.0708 26.4203 25.447 26.419 25.8232 26.4176C26.0853 26.4179 26.3475 26.4183 26.6097 26.4188C27.1585 26.4195 27.7073 26.4185 28.256 26.4165C28.9592 26.414 29.6622 26.4154 30.3653 26.4181C30.9064 26.4196 31.4475 26.4191 31.9886 26.418C32.2479 26.4177 32.5071 26.4181 32.7664 26.4191C33.1287 26.4202 33.491 26.4185 33.8533 26.4161C33.9602 26.417 34.0671 26.4178 34.1772 26.4188C34.7962 26.4111 35.1779 26.3538 35.6562 25.922C36.1456 25.3698 36.1562 24.9086 36.1486 24.2059C36.1492 24.1011 36.1498 23.9962 36.1504 23.8882C36.1518 23.5429 36.15 23.1976 36.148 22.8522C36.148 22.6117 36.1482 22.3712 36.1485 22.1306C36.1486 21.6271 36.1473 21.1235 36.1448 20.62C36.1417 19.9746 36.142 19.3293 36.1434 18.6839C36.1441 18.1875 36.1433 17.691 36.1419 17.1946C36.1414 16.9566 36.1414 16.7186 36.1418 16.4807C36.1421 16.1482 36.1403 15.8157 36.1379 15.4832C36.1384 15.385 36.1389 15.2867 36.1394 15.1855C36.1308 14.4622 35.9822 14.1291 35.49 13.5874C35.023 13.2219 34.5107 13.2681 33.9408 13.2748C33.8245 13.274 33.7081 13.2732 33.5882 13.2724C33.2042 13.2706 32.8204 13.2727 32.4365 13.275C32.1693 13.275 31.902 13.2747 31.6348 13.2742C31.0751 13.2739 30.5154 13.2755 29.9556 13.2785C29.2384 13.2823 28.5213 13.2816 27.8041 13.2796C27.2523 13.2784 26.7006 13.2794 26.1489 13.281C25.8845 13.2816 25.62 13.2815 25.3556 13.2809C24.9859 13.2803 24.6163 13.2825 24.2466 13.2855C24.1375 13.2848 24.0284 13.2841 23.916 13.2833C23.1532 13.2938 22.7472 13.4224 22.2236 14.0001Z" fill="url(#paint1_linear_3515_92)"/>
<path d="M27.617 14.9299C27.7843 14.9274 27.7843 14.9274 27.9549 14.9248C28.6042 14.9282 29.0343 14.9622 29.531 15.4221C30.0362 16.0248 30.1308 16.6843 30.2745 17.4438C30.3005 17.5763 30.3266 17.7087 30.3535 17.8451C30.4082 18.1249 30.4623 18.4047 30.5156 18.6847C30.5969 19.1109 30.681 19.5364 30.7654 19.962C30.8184 20.2346 30.8712 20.5072 30.9239 20.7798C30.9488 20.9061 30.9738 21.0323 30.9995 21.1624C31.3468 23.0069 31.3468 23.0069 31.025 23.5402C30.7637 23.8201 30.5638 23.8289 30.1873 23.844C29.8934 23.7825 29.8934 23.7825 29.6404 23.6252C29.2989 23.0687 29.1913 22.4938 29.073 21.8616C29.0537 21.7639 29.0343 21.6662 29.0143 21.5655C28.9329 21.145 28.8748 20.7748 28.8748 20.344C28.0807 20.3801 27.2867 20.4162 26.4685 20.4534C26.4341 20.6444 26.3997 20.8355 26.3643 21.0323C26.3171 21.2837 26.2698 21.535 26.2225 21.7864C26.2 21.9122 26.1776 22.038 26.1545 22.1677C26.1313 22.2893 26.108 22.4109 26.084 22.5362C26.0634 22.6479 26.0428 22.7596 26.0215 22.8747C25.9046 23.2413 25.7489 23.4573 25.4842 23.7346C25.0868 23.8699 24.9108 23.8817 24.5271 23.7073C24.281 23.5159 24.281 23.5159 24.0623 23.1877C24.043 22.3437 24.249 21.4794 24.4062 20.6537C24.4409 20.4701 24.4409 20.4701 24.4762 20.2826C24.5249 20.0257 24.5739 19.7688 24.6232 19.512C24.698 19.1206 24.7708 18.7288 24.8435 18.337C24.8913 18.0861 24.9392 17.8353 24.9873 17.5844C25.0086 17.4683 25.0299 17.3522 25.0519 17.2325C25.2067 16.4416 25.3854 15.7318 25.9798 15.1521C26.528 14.9101 27.0243 14.9209 27.617 14.9299ZM27.1248 16.844C27.0165 17.3854 26.9082 17.9268 26.7967 18.4846C27.3381 18.4846 27.8795 18.4846 28.4373 18.4846C28.3653 17.6587 28.3653 17.6587 28.2185 16.844C27.8576 16.844 27.4967 16.844 27.1248 16.844Z" fill="url(#paint2_linear_3515_92)"/>
<path d="M33.797 15.3123C34.1229 15.7309 34.1665 16.0524 34.1676 16.5752C34.1686 16.718 34.1697 16.8607 34.1707 17.0077C34.1701 17.1626 34.1695 17.3175 34.1687 17.4725C34.1689 17.6322 34.1692 17.792 34.1697 17.9517C34.1701 18.286 34.1694 18.6203 34.1679 18.9546C34.166 19.3823 34.1671 19.81 34.1691 20.2377C34.1703 20.5674 34.1699 20.8972 34.169 21.2269C34.1688 21.3846 34.1691 21.5423 34.1698 21.6999C34.1707 21.9206 34.1692 22.1412 34.1676 22.3619C34.1673 22.4872 34.1671 22.6126 34.1668 22.7418C34.1199 23.12 34.0286 23.3241 33.797 23.6248C33.3418 23.8309 33.1351 23.882 32.6622 23.7068C32.3751 23.5154 32.3751 23.5154 32.2657 23.2967C32.2534 23.0567 32.2483 22.8163 32.2464 22.576C32.2457 22.502 32.245 22.428 32.2442 22.3517C32.2421 22.1064 32.2408 21.8612 32.2397 21.6159C32.2392 21.5322 32.2388 21.4484 32.2383 21.3622C32.2361 20.9192 32.2345 20.4761 32.2335 20.0331C32.2323 19.5753 32.2285 19.1176 32.2242 18.6598C32.2213 18.3079 32.2204 17.9561 32.22 17.6042C32.2194 17.4354 32.2182 17.2667 32.2161 17.0979C32.2135 16.8617 32.2136 16.6256 32.2143 16.3894C32.2137 16.2551 32.2131 16.1207 32.2124 15.9822C32.2761 15.5741 32.378 15.4493 32.7032 15.2029C33.146 15.0553 33.3673 15.1435 33.797 15.3123Z" fill="url(#paint3_linear_3515_92)"/>
<defs>
<linearGradient id="paint0_linear_3515_92" x1="7.57845" y1="2.04297" x2="58.9292" y2="19.121" gradientUnits="userSpaceOnUse">
<stop offset="0.11" stop-color="#60D7AD"/>
<stop offset="0.76" stop-color="#213C3A"/>
</linearGradient>
<linearGradient id="paint1_linear_3515_92" x1="16.1093" y1="7.72168" x2="46.1946" y2="21.2729" gradientUnits="userSpaceOnUse">
<stop offset="0.11" stop-color="#60D7AD"/>
<stop offset="0.76" stop-color="#213C3A"/>
</linearGradient>
<linearGradient id="paint2_linear_3515_92" x1="23.9746" y1="14.9248" x2="33.1551" y2="18.1263" gradientUnits="userSpaceOnUse">
<stop offset="0.11" stop-color="#60D7AD"/>
<stop offset="0.76" stop-color="#213C3A"/>
</linearGradient>
<linearGradient id="paint3_linear_3515_92" x1="32.1889" y1="15.1279" x2="34.9624" y2="15.398" gradientUnits="userSpaceOnUse">
<stop offset="0.11" stop-color="#60D7AD"/>
<stop offset="0.76" stop-color="#213C3A"/>
</linearGradient>
</defs>
</svg>
