<svg width="18" height="18" viewBox="0 0 18 18" fill="none" xmlns="http://www.w3.org/2000/svg">
<path opacity="0.935" fill-rule="evenodd" clip-rule="evenodd" d="M15.7452 10.6166C16.3583 10.5516 16.8847 10.7295 17.3242 11.1503C17.7707 11.8225 17.6891 12.423 17.0796 12.9517C15.2182 14.4087 13.365 15.8765 11.5198 17.355C11.1991 17.5592 10.8507 17.6704 10.4746 17.6886C8.47764 17.245 6.47613 16.815 4.47004 16.3987C4.25259 16.4119 4.05244 16.4786 3.86959 16.5988C3.60868 16.7781 3.34181 16.9486 3.06898 17.1103C3.07717 17.4722 2.92892 17.7465 2.6242 17.9332C1.94462 18.0044 1.26263 18.0193 0.578215 17.9777C0.312748 17.9199 0.127422 17.7643 0.0222401 17.5106C-0.00741337 15.6278 -0.00741337 13.7448 0.0222401 11.8619C0.101349 11.679 0.227368 11.5382 0.400303 11.4394C0.768336 11.3903 1.13899 11.3681 1.51225 11.3727C1.88552 11.3681 2.25615 11.3903 2.6242 11.4394C2.90086 11.5838 3.06396 11.8136 3.11346 12.1288C3.75688 11.7447 4.39438 11.3519 5.02602 10.9501C5.28092 10.8309 5.54779 10.7865 5.82662 10.8167C6.10065 10.8635 6.36752 10.9377 6.62722 11.0391C8.19877 11.6025 9.77035 12.1659 11.3419 12.7293C11.4421 12.7905 11.5385 12.8572 11.631 12.9294C12.7244 12.2752 13.8141 11.6155 14.9001 10.9501C15.1716 10.7982 15.4533 10.687 15.7452 10.6166ZM15.7452 11.4172C16.0733 11.3811 16.3847 11.433 16.6793 11.5728C16.844 11.7239 16.8958 11.9092 16.8349 12.1288C14.993 13.5554 13.1768 15.0158 11.3864 16.5099C11.1464 16.7152 10.8721 16.856 10.5635 16.9324C8.53667 16.4796 6.50549 16.0497 4.47004 15.6426C3.94089 15.6995 3.46644 15.8923 3.04674 16.2208C3.01708 15.1385 3.01708 14.0562 3.04674 12.9739C3.82142 12.5013 4.59978 12.0342 5.38184 11.5728C5.57456 11.4839 5.76733 11.4839 5.96005 11.5728C7.68665 12.178 9.40648 12.8007 11.1195 13.4409C11.5472 13.8584 11.5324 14.2587 11.075 14.6418C10.8378 14.7308 10.6006 14.7308 10.3634 14.6418C9.40461 14.2588 8.4409 13.8882 7.47231 13.5299C7.033 13.5102 6.89214 13.7104 7.04977 14.1303C8.10198 14.5701 9.16207 14.9926 10.2299 15.3979C11.2294 15.6509 11.8743 15.2877 12.1647 14.3082C12.1998 14.073 12.1775 13.8433 12.098 13.6188C12.1045 13.5845 12.1193 13.5548 12.1425 13.5299C13.3345 12.8008 14.5354 12.0966 15.7452 11.4172ZM0.711649 12.1288C1.24539 12.1288 1.77912 12.1288 2.31286 12.1288C2.31286 13.8338 2.31286 15.5388 2.31286 17.2438C1.77912 17.2438 1.24539 17.2438 0.711649 17.2438C0.711649 15.5388 0.711649 13.8338 0.711649 12.1288Z" fill="url(#paint0_linear_1833_3221)"/>
<path opacity="0.935" fill-rule="evenodd" clip-rule="evenodd" d="M0 6.04898C0 5.92984 0 5.81065 0 5.6915C0.0646697 5.59716 0.148082 5.5197 0.250237 5.45914C0.799363 5.42804 1.3475 5.38636 1.89465 5.33402C2.08136 4.82955 2.27797 4.32908 2.48449 3.8326C2.7479 3.62426 2.98622 3.64809 3.19945 3.9041C3.37953 4.38921 3.56422 4.87181 3.75355 5.3519C4.28995 5.38539 4.82617 5.42114 5.36221 5.45914C5.63379 5.5918 5.71126 5.80032 5.59458 6.08473C5.17343 6.44683 4.75042 6.80431 4.32552 7.15718C4.4787 7.6643 4.60979 8.17671 4.71875 8.69434C4.71106 8.95827 4.57401 9.10126 4.30765 9.12332C4.20998 9.11921 4.12061 9.08943 4.03954 9.03395C3.62843 8.76584 3.21733 8.49773 2.80623 8.22962C2.38321 8.50963 1.96019 8.78968 1.53717 9.0697C1.18768 9.19164 0.973192 9.07249 0.893702 8.71222C1.0202 8.18229 1.1632 7.65797 1.32268 7.1393C0.863717 6.79315 0.422825 6.4297 0 6.04898ZM3.96804 8.22962C3.67698 8.0542 3.391 7.86949 3.11008 7.67552C2.91943 7.55637 2.72877 7.55637 2.53812 7.67552C2.24309 7.8677 1.95115 8.06432 1.66229 8.26537C1.72257 7.92891 1.80598 7.59527 1.91252 7.26442C1.95413 7.0776 1.92434 6.90483 1.82315 6.74607C1.51494 6.52132 1.21703 6.28303 0.929451 6.03111C1.31029 5.99979 1.6916 5.97595 2.07339 5.95961C2.16908 5.95071 2.25249 5.91496 2.32363 5.85237C2.50531 5.46236 2.66618 5.06316 2.80623 4.65481C2.95646 4.97939 3.08753 5.31304 3.19945 5.65576C3.25658 5.82016 3.36978 5.92143 3.53906 5.95961C3.93268 5.9772 4.32591 6.00101 4.71875 6.03111C4.36824 6.28646 4.04054 6.56647 3.73568 6.87119C3.71051 6.93475 3.69264 7.00031 3.68205 7.06781C3.78597 7.45363 3.88128 7.84093 3.96804 8.22962Z" fill="url(#paint1_linear_1833_3221)"/>
<path opacity="0.935" fill-rule="evenodd" clip-rule="evenodd" d="M11.0742 6.04898C11.0742 5.92984 11.0742 5.81065 11.0742 5.6915C11.1389 5.59716 11.2223 5.5197 11.3245 5.45914C11.8736 5.42804 12.4217 5.38636 12.9689 5.33402C13.1556 4.82955 13.3522 4.32908 13.5587 3.8326C13.8221 3.62426 14.0604 3.64809 14.2737 3.9041C14.4537 4.38921 14.6384 4.87181 14.8278 5.3519C15.3642 5.38539 15.9004 5.42114 16.4364 5.45914C16.708 5.5918 16.7855 5.80032 16.6688 6.08473C16.2476 6.44683 15.8246 6.80431 15.3997 7.15718C15.5529 7.6643 15.684 8.17671 15.793 8.69434C15.7853 8.95827 15.6482 9.10126 15.3819 9.12332C15.2842 9.11921 15.1948 9.08943 15.1138 9.03395C14.7027 8.76584 14.2915 8.49773 13.8804 8.22962C13.4574 8.50963 13.0344 8.78968 12.6114 9.0697C12.2619 9.19164 12.0474 9.07249 11.9679 8.71222C12.0944 8.18229 12.2374 7.65797 12.3969 7.1393C11.9379 6.79315 11.497 6.4297 11.0742 6.04898ZM15.0423 8.22962C14.7512 8.0542 14.4652 7.86949 14.1843 7.67552C13.9936 7.55637 13.803 7.55637 13.6123 7.67552C13.3173 7.8677 13.0254 8.06432 12.7365 8.26537C12.7968 7.92891 12.8802 7.59527 12.9867 7.26442C13.0283 7.0776 12.9986 6.90483 12.8974 6.74607C12.5892 6.52132 12.2913 6.28303 12.0037 6.03111C12.3845 5.99979 12.7658 5.97595 13.1476 5.95961C13.2433 5.95071 13.3267 5.91496 13.3978 5.85237C13.5795 5.46236 13.7404 5.06316 13.8804 4.65481C14.0307 4.97939 14.1618 5.31304 14.2737 5.65576C14.3308 5.82016 14.444 5.92143 14.6133 5.95961C15.0069 5.9772 15.4001 6.00101 15.793 6.03111C15.4425 6.28646 15.1148 6.56647 14.8099 6.87119C14.7847 6.93475 14.7669 7.00031 14.7563 7.06781C14.8602 7.45363 14.9555 7.84093 15.0423 8.22962Z" fill="url(#paint2_linear_1833_3221)"/>
<path opacity="0.934" fill-rule="evenodd" clip-rule="evenodd" d="M8.22516 0.00800908C8.41061 -0.0205365 8.5718 0.0272234 8.70874 0.151292C8.90927 0.651368 9.10628 1.15286 9.29978 1.65577C9.84809 1.70728 10.3973 1.74908 10.9475 1.78114C11.2158 1.95949 11.2696 2.19233 11.1087 2.47964C10.6921 2.81005 10.2802 3.14441 9.87292 3.48263C10.0218 3.99465 10.1651 4.50807 10.3028 5.02292C10.1971 5.41605 9.95831 5.52946 9.58635 5.36322C9.17552 5.10158 8.76957 4.83293 8.36844 4.55725C7.94472 4.84675 7.51487 5.12737 7.0789 5.39904C6.73011 5.50521 6.51518 5.37984 6.43412 5.02292C6.57178 4.50807 6.71506 3.99465 6.86397 3.48263C6.46597 3.14605 6.06001 2.81772 5.64606 2.49755C5.46564 2.2087 5.51338 1.96991 5.78935 1.78114C6.33973 1.75123 6.88897 1.70946 7.4371 1.65577C7.63061 1.15286 7.82762 0.651368 8.02815 0.151292C8.09305 0.0983813 8.15871 0.0506215 8.22516 0.00800908ZM8.33262 1.01099C8.3774 1.01376 8.40724 1.03764 8.42218 1.08263C8.53455 1.40778 8.65394 1.73017 8.78038 2.04979C8.84013 2.18108 8.94161 2.2587 9.08486 2.28263C9.47928 2.30025 9.87331 2.32411 10.2669 2.35427C9.9907 2.59477 9.70413 2.82162 9.40725 3.03487C9.30014 3.12965 9.24047 3.24904 9.22814 3.39307C9.34452 3.79291 9.446 4.19292 9.53262 4.59307C9.24319 4.39161 8.95064 4.1946 8.65501 4.00203C8.46398 3.88264 8.27291 3.88264 8.08188 4.00203C7.78077 4.21079 7.48224 4.39588 7.18636 4.55725C7.29737 4.17042 7.40483 3.78237 7.50875 3.39307C7.49642 3.24904 7.43675 3.12965 7.32964 3.03487C7.03276 2.82162 6.74619 2.59477 6.46994 2.35427C6.86358 2.32411 7.25761 2.30025 7.65203 2.28263C7.79528 2.2587 7.89676 2.18108 7.95651 2.04979C8.09273 1.70677 8.2181 1.36053 8.33262 1.01099Z" fill="url(#paint3_linear_1833_3221)"/>
<defs>
<linearGradient id="paint0_linear_1833_3221" x1="-0.210921" y1="10.6035" x2="12.0287" y2="23.1853" gradientUnits="userSpaceOnUse">
<stop offset="0.11" stop-color="#60D7AD"/>
<stop offset="0.76" stop-color="#213C3A"/>
</linearGradient>
<linearGradient id="paint1_linear_1833_3221" x1="-0.0676483" y1="3.69238" x2="6.65122" y2="6.70955" gradientUnits="userSpaceOnUse">
<stop offset="0.11" stop-color="#60D7AD"/>
<stop offset="0.76" stop-color="#213C3A"/>
</linearGradient>
<linearGradient id="paint2_linear_1833_3221" x1="11.0066" y1="3.69238" x2="17.7254" y2="6.70955" gradientUnits="userSpaceOnUse">
<stop offset="0.11" stop-color="#60D7AD"/>
<stop offset="0.76" stop-color="#213C3A"/>
</linearGradient>
<linearGradient id="paint3_linear_1833_3221" x1="5.47126" y1="-2.12262e-07" x2="12.203" y2="3.02629" gradientUnits="userSpaceOnUse">
<stop offset="0.11" stop-color="#60D7AD"/>
<stop offset="0.76" stop-color="#213C3A"/>
</linearGradient>
</defs>
</svg>
