<svg width="40" height="40" viewBox="0 0 40 40" fill="none" xmlns="http://www.w3.org/2000/svg">
<rect y="-0.00732422" width="40" height="40" rx="20" fill="#D7E0E5" fill-opacity="0.2"/>
<path d="M27.0391 27.036H24.0775V22.3951C24.0775 21.2885 24.055 19.8643 22.5341 19.8643C20.99 19.8643 20.7541 21.0686 20.7541 22.3135V27.036H17.7925V17.4927H20.6375V18.7935H20.6758C21.0734 18.0435 22.04 17.2518 23.4841 17.2518C26.485 17.2518 27.04 19.2269 27.04 21.7977L27.0391 27.036ZM14.4475 16.1868C13.4942 16.1868 12.7283 15.4152 12.7283 14.466C12.7283 13.5177 13.495 12.7468 14.4475 12.7468C15.3975 12.7468 16.1675 13.5177 16.1675 14.466C16.1675 15.4152 15.3967 16.1868 14.4475 16.1868ZM15.9325 27.036H12.9625V17.4927H15.9325V27.036ZM28.5208 9.99268H11.4758C10.66 9.99268 10 10.6377 10 11.4335V28.5519C10 29.3485 10.66 29.9927 11.4758 29.9927H28.5184C29.3334 29.9927 30 29.3485 30 28.5519V11.4335C30 10.6377 29.3334 9.99268 28.5184 9.99268H28.5208Z" fill="white"/>
</svg>
