<svg width="21" height="20" viewBox="0 0 21 20" fill="none" xmlns="http://www.w3.org/2000/svg">
<path opacity="0.958" fill-rule="evenodd" clip-rule="evenodd" d="M20.1693 3.53145C20.1693 7.60205 20.1693 11.6727 20.1693 15.7433C19.9804 16.4901 19.5077 16.9563 18.7511 17.1418C16.7813 17.1483 14.8117 17.168 12.8421 17.2008C12.7746 17.8628 12.814 18.5193 12.9603 19.1705C13.7483 19.1639 14.5362 19.1705 15.3239 19.1902C15.5897 19.3219 15.6619 19.5254 15.5406 19.8008C15.4761 19.8918 15.3907 19.9509 15.2845 19.9781C11.7763 20.0171 8.2703 20.004 4.76656 19.9387C4.54667 19.752 4.51386 19.5353 4.66808 19.2887C4.72398 19.2509 4.78307 19.218 4.84535 19.1902C5.62951 19.1834 6.41083 19.1637 7.18924 19.1311C7.3201 18.4786 7.35296 17.822 7.28772 17.1615C5.33114 17.168 3.37463 17.1615 1.41815 17.1418C0.66152 16.9563 0.188802 16.4901 0 15.7433C0 11.7777 0 7.81217 0 3.84659C0.202939 3.13813 0.662525 2.68511 1.37876 2.48753C3.59694 2.4427 5.81607 2.40988 8.03619 2.38905C8.33164 1.87694 8.62709 1.36483 8.92253 0.852716C9.48203 0.0675063 10.224 -0.175418 11.1482 0.123944C11.9739 0.511241 12.335 1.16123 12.2316 2.0739C12.2185 2.19233 12.1856 2.30394 12.1331 2.40874C14.3916 2.42187 16.6502 2.43501 18.9087 2.44814C19.5464 2.5625 19.9666 2.9236 20.1693 3.53145ZM10.321 0.813323C11.0877 0.838046 11.4488 1.23198 11.4043 1.99512C11.3161 2.26394 11.1782 2.5003 10.9907 2.70419C10.4472 2.39032 9.90878 2.06861 9.37555 1.73906C9.50035 1.50242 9.64481 1.27919 9.80888 1.06938C9.97264 0.961236 10.1433 0.875883 10.321 0.813323ZM8.94223 2.50723C9.50441 2.80151 10.0559 3.11666 10.5967 3.45266C9.5559 5.3115 8.48574 7.14986 7.3862 8.96769C6.83222 8.66775 6.28729 8.35261 5.75139 8.02226C6.81548 6.18284 7.87909 4.34448 8.94223 2.50723ZM1.6939 3.25569C3.63747 3.24256 5.58086 3.2557 7.52408 3.29509C6.60232 4.87964 5.6897 6.46852 4.78626 8.06165C4.75998 9.07275 4.75998 10.0838 4.78626 11.0949C4.85319 11.2409 4.96483 11.3262 5.1211 11.351C8.5 11.351 11.7708 11.351 15.1663 11.4139C15.3671 11.2466 15.4524 10.9407 15.3436 10.701C15.2958 10.64 15.2367 10.594 15.1663 10.5631C12.3563 10.55 9.54624 10.5368 6.73622 10.5237C7.11368 10.312 7.48792 10.0954 7.85892 9.87373C9.12608 7.68084 10.3932 5.48798 11.6604 3.29509C14.0501 3.24913 16.44 3.24256 18.8299 3.27539C19.1464 3.35565 19.3236 3.55918 19.3617 3.88598C19.3814 7.11618 19.388 10.3464 19.3814 13.5767C13.1836 13.5767 6.98569 13.5767 0.787862 13.5767C0.781295 10.4646 0.787862 7.35254 0.807558 4.24052C0.864848 3.69111 1.1603 3.36283 1.6939 3.25569ZM5.59382 8.9283C5.97621 9.12034 6.34386 9.337 6.69682 9.57829C6.34229 9.78183 5.98775 9.98533 5.63321 10.1889C5.59386 9.7695 5.58074 9.34929 5.59382 8.9283ZM0.787862 14.4039C6.98569 14.4039 13.1836 14.4039 19.3814 14.4039C19.4031 14.8555 19.3703 15.3019 19.2829 15.7433C19.152 16.0291 18.9354 16.2195 18.6329 16.3145C12.934 16.3408 7.23521 16.3408 1.53633 16.3145C1.08618 16.1528 0.843252 15.8311 0.807558 15.3494C0.787874 15.0345 0.781307 14.7194 0.787862 14.4039ZM8.11498 17.2008C9.39509 17.1615 10.6819 17.1484 11.9755 17.1615C11.9443 17.8334 11.9968 18.4966 12.1331 19.1508C10.7675 19.1705 9.40187 19.1771 8.03619 19.1705C8.14692 18.5111 8.1732 17.8546 8.11498 17.2008Z" fill="url(#paint0_linear_1819_1056)"/>
<path opacity="0.945" fill-rule="evenodd" clip-rule="evenodd" d="M10.8004 8.14212C12.2448 8.13554 13.6893 8.14212 15.1336 8.16181C15.4242 8.3299 15.4833 8.55972 15.3109 8.85119C15.255 8.88901 15.1959 8.92182 15.1336 8.94967C13.6761 8.97595 12.2185 8.97595 10.761 8.94967C10.5915 8.87345 10.5127 8.74215 10.5246 8.55574C10.5164 8.34787 10.6083 8.20999 10.8004 8.14212Z" fill="url(#paint1_linear_1819_1056)"/>
<defs>
<linearGradient id="paint0_linear_1819_1056" x1="-0.241611" y1="-7.80756e-07" x2="23.9969" y2="10.5563" gradientUnits="userSpaceOnUse">
<stop offset="0.11" stop-color="#60D7AD"/>
<stop offset="0.76" stop-color="#213C3A"/>
</linearGradient>
<linearGradient id="paint1_linear_1819_1056" x1="10.4649" y1="8.13965" x2="11.4007" y2="10.5184" gradientUnits="userSpaceOnUse">
<stop offset="0.11" stop-color="#60D7AD"/>
<stop offset="0.76" stop-color="#213C3A"/>
</linearGradient>
</defs>
</svg>
