<svg width="20" height="20" viewBox="0 0 20 20" fill="none" xmlns="http://www.w3.org/2000/svg">
<path opacity="0.949" fill-rule="evenodd" clip-rule="evenodd" d="M13.5537 0C13.6839 0 13.8142 0 13.9443 0C14.0659 0.085377 14.1505 0.202564 14.1983 0.351562C14.5064 1.2152 14.8254 2.07458 15.1553 2.92969C16.0157 3.28819 16.8881 3.62022 17.7725 3.92578C18.1221 4.05844 18.2197 4.2993 18.0654 4.64844C18.018 4.70895 17.9594 4.75449 17.8897 4.78516C16.9723 5.11906 16.0609 5.46414 15.1553 5.82031C14.8117 6.71422 14.4797 7.61266 14.1592 8.51562C13.982 8.77316 13.7541 8.83176 13.4756 8.69141C13.4151 8.64398 13.3695 8.58539 13.3389 8.51562C13.0184 7.61266 12.6863 6.71422 12.3428 5.82031C11.4372 5.46414 10.5258 5.11906 9.60841 4.78516C9.43447 4.70426 9.35634 4.56754 9.37404 4.375C9.35306 4.16297 9.44419 4.02625 9.64747 3.96484C10.5549 3.63858 11.4533 3.29353 12.3428 2.92969C12.6893 1.98761 13.0474 1.05011 13.417 0.117188C13.4617 0.0727977 13.5073 0.0337352 13.5537 0ZM13.71 1.75781C13.7588 1.76084 13.7913 1.78688 13.8076 1.83594C14.0108 2.45891 14.2517 3.06438 14.5303 3.65234C15.1597 3.89245 15.7847 4.13984 16.4053 4.39453C15.7683 4.60895 15.1433 4.84984 14.5303 5.11719C14.4771 5.17688 14.4315 5.24199 14.3936 5.3125C14.1901 5.89035 13.9753 6.46324 13.749 7.03125C13.5228 6.46324 13.3079 5.89035 13.1045 5.3125C13.0665 5.24199 13.021 5.17688 12.9678 5.11719C12.3548 4.84984 11.7298 4.60895 11.0928 4.39453C11.6559 4.15223 12.2288 3.93086 12.8115 3.73047C12.8931 3.69952 12.9647 3.65395 13.0264 3.59375C13.2737 2.98839 13.5016 2.37642 13.71 1.75781Z" fill="url(#paint0_linear_1819_1057)"/>
<path opacity="0.949" fill-rule="evenodd" clip-rule="evenodd" d="M17.3014 0.623656C17.5844 0.553137 17.7862 0.644285 17.9069 0.897094C17.9264 1.07892 17.9329 1.26122 17.9264 1.44397C18.171 1.41944 18.4054 1.45199 18.6295 1.54163C18.7228 1.6317 18.7619 1.74238 18.7467 1.87366C18.7643 2.0273 18.7122 2.151 18.5905 2.24475C18.3739 2.29959 18.1526 2.31912 17.9264 2.30334C17.9509 2.54797 17.9184 2.78234 17.8287 3.00647C17.5853 3.21124 17.351 3.19822 17.1256 2.96741C17.0728 2.74977 17.0533 2.52841 17.067 2.30334C16.8409 2.31912 16.6195 2.29959 16.403 2.24475C16.2543 2.08494 16.2087 1.89614 16.2662 1.67834C16.3151 1.56582 16.3997 1.4942 16.5201 1.4635C16.702 1.444 16.8843 1.43749 17.067 1.44397C17.0605 1.26122 17.0671 1.07892 17.0866 0.897094C17.1243 0.775196 17.1959 0.684047 17.3014 0.623656Z" fill="url(#paint1_linear_1819_1057)"/>
<path opacity="0.951" fill-rule="evenodd" clip-rule="evenodd" d="M15.7422 20C10.8073 20 5.87238 20 0.9375 20C0.45607 19.8571 0.14357 19.5446 0 19.0625C0 13.7109 0 8.35938 0 3.00781C0.170168 2.51877 0.508711 2.21278 1.01562 2.08984C4.27082 2.0638 7.52605 2.0638 10.7812 2.08984C11.0789 2.27638 11.131 2.51726 10.9375 2.8125C10.892 2.85483 10.8399 2.88738 10.7812 2.91016C7.57812 2.92318 4.375 2.9362 1.17188 2.94922C1.03761 2.99238 0.939957 3.07702 0.878906 3.20313C0.852863 5.9375 0.852863 8.67188 0.878906 11.4062C1.60156 10.6836 2.32422 9.96094 3.04688 9.23828C3.20855 9.12672 3.37782 9.11367 3.55469 9.19922C4.25074 9.8627 4.94082 10.5333 5.625 11.2109C7.00031 9.84215 8.38051 8.48145 9.76562 7.12891C10.0005 7.02805 10.2088 7.06711 10.3906 7.24609C12.194 9.04949 13.9974 10.8529 15.8008 12.6562C15.8138 11.9922 15.8268 11.3281 15.8398 10.6641C16.1133 10.2995 16.3867 10.2995 16.6602 10.6641C16.6862 13.4505 16.6862 16.237 16.6602 19.0234C16.5193 19.5093 16.2132 19.8348 15.7422 20ZM9.96094 8.16406C11.9238 10.0683 13.8704 11.9954 15.8008 13.9453C15.8392 15.6143 15.8262 17.281 15.7617 18.9453C15.7014 19.0187 15.6298 19.0773 15.5469 19.1211C10.7292 19.1471 5.91145 19.1471 1.09375 19.1211C0.981223 19.0722 0.909609 18.9876 0.878906 18.8672C0.852863 18.3333 0.852863 17.7995 0.878906 17.2656C3.91411 14.2369 6.94145 11.2031 9.96094 8.16406ZM3.28125 10.2344C3.86437 10.7523 4.42426 11.2992 4.96094 11.875C3.60731 13.2482 2.24663 14.6154 0.878906 15.9766C0.852863 14.8698 0.852863 13.763 0.878906 12.6562C1.68757 11.8541 2.48835 11.0468 3.28125 10.2344Z" fill="url(#paint2_linear_1819_1057)"/>
<path opacity="0.946" fill-rule="evenodd" clip-rule="evenodd" d="M5.47361 4.37509C6.49302 4.26915 7.16361 4.69884 7.48533 5.66415C7.61935 6.6745 7.20919 7.34505 6.25486 7.67587C5.35818 7.84275 4.70064 7.52372 4.2822 6.71884C4.0188 5.9654 4.16853 5.30782 4.73142 4.74618C4.96103 4.57927 5.20845 4.4556 5.47361 4.37509ZM5.62986 5.23446C6.12919 5.18118 6.46122 5.3895 6.62595 5.85946C6.68556 6.44314 6.42513 6.78169 5.8447 6.87509C5.14337 6.72251 4.909 6.30583 5.14158 5.62509C5.26622 5.44294 5.429 5.31271 5.62986 5.23446Z" fill="url(#paint3_linear_1819_1057)"/>
<path opacity="0.952" fill-rule="evenodd" clip-rule="evenodd" d="M20.0089 7.73465C20.0089 7.85184 20.0089 7.96903 20.0089 8.08621C19.9382 8.1893 19.8471 8.27395 19.7354 8.34012C19.3027 8.48867 18.873 8.64492 18.4464 8.80887C18.2351 9.27285 18.0464 9.74809 17.8799 10.2347C17.6813 10.454 17.4534 10.4866 17.1964 10.3323C16.9824 9.85379 16.7871 9.36551 16.6104 8.86746C16.1212 8.65555 15.6264 8.45371 15.126 8.262C14.9145 8.01473 14.9275 7.78035 15.1651 7.55887C15.6408 7.36344 16.1225 7.18766 16.6104 7.03153C16.7665 6.54364 16.9423 6.06188 17.1378 5.58621C17.3579 5.3418 17.5923 5.32875 17.8409 5.54715C18.0392 6.04485 18.241 6.53961 18.4464 7.03153C18.8906 7.19043 19.3333 7.35321 19.7745 7.51981C19.873 7.57293 19.9512 7.64453 20.0089 7.73465ZM17.4698 7.14871C17.5662 7.33184 17.6704 7.51414 17.7823 7.69559C17.9455 7.77828 18.1147 7.84993 18.2901 7.91043C18.1383 7.98282 17.9821 8.04793 17.8214 8.10575C17.7758 8.15133 17.7302 8.19688 17.6846 8.24246C17.6268 8.40321 17.5617 8.55946 17.4893 8.71121C17.4351 8.53762 17.3699 8.36836 17.294 8.2034C17.1128 8.09094 16.924 7.99328 16.7276 7.91043C17.1677 7.84145 17.4151 7.58754 17.4698 7.14871Z" fill="url(#paint4_linear_1819_1057)"/>
<defs>
<linearGradient id="paint0_linear_1819_1057" x1="9.26609" y1="-3.42192e-07" x2="19.828" y2="4.56108" gradientUnits="userSpaceOnUse">
<stop offset="0.11" stop-color="#60D7AD"/>
<stop offset="0.76" stop-color="#213C3A"/>
</linearGradient>
<linearGradient id="paint1_linear_1819_1057" x1="16.2121" y1="0.600586" x2="19.2498" y2="1.89059" gradientUnits="userSpaceOnUse">
<stop offset="0.11" stop-color="#60D7AD"/>
<stop offset="0.76" stop-color="#213C3A"/>
</linearGradient>
<linearGradient id="paint2_linear_1819_1057" x1="-0.199809" y1="2.07031" x2="20.333" y2="10.3195" gradientUnits="userSpaceOnUse">
<stop offset="0.11" stop-color="#60D7AD"/>
<stop offset="0.76" stop-color="#213C3A"/>
</linearGradient>
<linearGradient id="paint3_linear_1819_1057" x1="4.11607" y1="4.35937" x2="8.15946" y2="6.10263" gradientUnits="userSpaceOnUse">
<stop offset="0.11" stop-color="#60D7AD"/>
<stop offset="0.76" stop-color="#213C3A"/>
</linearGradient>
<linearGradient id="paint4_linear_1819_1057" x1="14.9163" y1="5.39258" x2="20.9811" y2="8.01022" gradientUnits="userSpaceOnUse">
<stop offset="0.11" stop-color="#60D7AD"/>
<stop offset="0.76" stop-color="#213C3A"/>
</linearGradient>
</defs>
</svg>
