<svg width="23" height="24" viewBox="0 0 23 24" fill="none" xmlns="http://www.w3.org/2000/svg">
<path opacity="0.878" fill-rule="evenodd" clip-rule="evenodd" d="M10.5669 4.6989C13.1484 4.56762 15.1453 5.57035 16.5575 7.70714C17.735 9.8251 17.7522 11.9516 16.6093 14.0867C16.3728 14.4961 16.0962 14.8765 15.7795 15.2278C15.6411 15.4698 15.5029 15.7118 15.3645 15.9539C15.1625 16.4784 14.9809 17.0057 14.8199 17.5358C14.6021 17.6037 14.4638 17.5259 14.405 17.3024C14.6259 16.1173 15.1359 15.08 15.9351 14.1904C17.3605 11.8198 17.2568 9.52044 15.6239 7.29221C13.632 5.16144 11.2893 4.66871 8.59598 5.81402C6.28617 7.13988 5.25751 9.13673 5.50994 11.8046C5.72897 13.0552 6.26496 14.1444 7.11779 15.0722C7.5459 15.7685 7.83116 16.5205 7.97359 17.3283C7.86296 17.5752 7.6987 17.6184 7.48086 17.458C7.34134 16.7628 7.09933 16.1058 6.75473 15.4871C6.21454 14.8396 5.76502 14.1308 5.40621 13.3606C4.45207 10.6618 4.97935 8.30184 6.98813 6.28082C8.02011 5.38436 9.21304 4.85704 10.5669 4.6989Z" fill="url(#paint0_linear_1772_1282)"/>
<path opacity="0.905" fill-rule="evenodd" clip-rule="evenodd" d="M7.50354 17.9859C10.0135 17.9607 12.5204 17.9866 15.0242 18.0637C15.5892 18.3984 15.7534 18.8738 15.5169 19.49C15.4577 19.5994 15.3799 19.6945 15.2835 19.7753C15.7705 20.3228 15.7531 20.8588 15.2316 21.3831C15.1166 21.4493 14.9956 21.5011 14.8686 21.5387C12.3586 21.5898 9.85179 21.5725 7.34795 21.4869C6.84614 21.2007 6.66461 20.7771 6.80335 20.2161C6.86549 20.0488 6.96056 19.9019 7.08861 19.7753C6.68556 19.333 6.6423 18.8575 6.95895 18.3489C7.12253 18.1927 7.30407 18.0717 7.50354 17.9859ZM7.60728 18.5045C9.99318 18.4959 12.379 18.5045 14.7648 18.5305C15.1166 18.7212 15.1944 18.9891 14.9982 19.3344C14.9049 19.4286 14.7925 19.4892 14.6611 19.5159C12.3444 19.5505 10.0277 19.5505 7.71101 19.5159C7.1328 19.2345 7.09821 18.8974 7.60728 18.5045ZM7.76288 20.0087C10.045 20 12.3272 20.0087 14.6092 20.0346C15.0307 20.1256 15.1777 20.3763 15.0501 20.7867C14.9896 20.8817 14.9118 20.9595 14.8167 21.0201C12.3962 21.0547 9.97585 21.0547 7.55541 21.0201C7.24764 20.8061 7.18716 20.5381 7.37388 20.2161C7.49084 20.1125 7.6205 20.0433 7.76288 20.0087Z" fill="url(#paint1_linear_1772_1282)"/>
<path opacity="0.874" fill-rule="evenodd" clip-rule="evenodd" d="M8.80154 21.9636C8.92223 21.9505 9.02597 21.9851 9.11274 22.0674C9.63363 23.1664 10.498 23.6246 11.7061 23.4418C12.476 23.2298 13.0119 22.7544 13.3139 22.0155C13.5357 21.9189 13.674 21.9881 13.7288 22.223C13.161 23.5792 12.141 24.1584 10.6687 23.9605C9.6146 23.753 8.94894 23.1392 8.67188 22.1192C8.70808 22.0575 8.75128 22.0056 8.80154 21.9636Z" fill="url(#paint2_linear_1772_1282)"/>
<path opacity="0.882" fill-rule="evenodd" clip-rule="evenodd" d="M10.2452 10.311C10.6642 10.2311 10.984 10.3694 11.2048 10.7259C11.2872 11.3972 11.3045 12.0715 11.2566 12.7487C11.1216 12.9185 10.9746 12.9358 10.8158 12.8006C10.7661 12.4925 10.7489 12.1813 10.7639 11.867C10.591 11.867 10.4181 11.867 10.2452 11.867C10.2538 12.1442 10.2452 12.4208 10.2193 12.6968C10.0824 12.9392 9.92678 12.9564 9.75251 12.7487C9.71791 12.109 9.71791 11.4693 9.75251 10.8297C9.85738 10.5952 10.0216 10.4224 10.2452 10.311ZM10.349 10.8297C10.2557 10.9855 10.2211 11.1584 10.2452 11.3483C10.4181 11.3483 10.591 11.3483 10.7639 11.3483C10.8425 10.983 10.7042 10.8101 10.349 10.8297Z" fill="url(#paint3_linear_1772_1282)"/>
<path opacity="0.877" fill-rule="evenodd" clip-rule="evenodd" d="M11.5845 10.3157C11.9307 10.3071 12.2765 10.3157 12.6218 10.3417C12.8047 10.6362 12.7182 10.8004 12.3625 10.8344C12.3625 11.3703 12.3625 11.9063 12.3625 12.4422C12.6478 12.4075 12.7602 12.5286 12.6996 12.8053C12.6737 12.8658 12.6305 12.909 12.57 12.935C12.2588 12.9696 11.9476 12.9696 11.6364 12.935C11.4962 12.8406 11.453 12.7109 11.5067 12.546C11.5995 12.4563 11.7119 12.4217 11.8438 12.4422C11.8438 11.9063 11.8438 11.3703 11.8438 10.8344C11.4802 10.7928 11.3937 10.62 11.5845 10.3157Z" fill="url(#paint4_linear_1772_1282)"/>
<path opacity="0.9" fill-rule="evenodd" clip-rule="evenodd" d="M9.51247 7.71559C9.6483 7.70169 9.77797 7.71896 9.90146 7.76745C9.92734 8.06086 9.93601 8.35479 9.9274 8.64918C10.2732 8.64918 10.6189 8.64918 10.9647 8.64918C10.9561 8.37201 10.9648 8.0954 10.9907 7.81932C11.1463 7.68099 11.3019 7.68099 11.4575 7.81932C11.4833 8.0954 11.492 8.37201 11.4834 8.64918C11.8292 8.64918 12.1749 8.64918 12.5207 8.64918C12.5121 8.35479 12.5208 8.06086 12.5466 7.76745C12.685 7.69831 12.8232 7.69831 12.9616 7.76745C12.9875 8.06086 12.9961 8.35479 12.9875 8.64918C13.2141 8.61925 13.4216 8.66251 13.6099 8.77884C13.7742 8.9431 13.9384 9.10731 14.1026 9.27157C14.1709 9.43692 14.1968 9.60985 14.1804 9.79024C14.4231 9.78163 14.6651 9.79029 14.9066 9.81617C15.0588 9.82141 15.128 9.89921 15.114 10.0496C15.1197 10.1468 15.0852 10.2246 15.0103 10.283C14.7342 10.3088 14.4576 10.3175 14.1804 10.3089C14.1804 10.6547 14.1804 11.0004 14.1804 11.3462C14.4576 11.3376 14.7342 11.3463 15.0103 11.3722C15.1616 11.5522 15.1444 11.7078 14.9584 11.839C14.6997 11.8648 14.4403 11.8735 14.1804 11.8649C14.1804 12.1934 14.1804 12.5219 14.1804 12.8503C14.4403 12.8417 14.6997 12.8504 14.9584 12.8763C15.1444 13.0074 15.1616 13.163 15.0103 13.3431C14.7342 13.369 14.4576 13.3776 14.1804 13.369C14.1968 13.5494 14.1709 13.7223 14.1026 13.8877C13.9038 14.0865 13.705 14.2853 13.5062 14.4841C13.3388 14.5463 13.166 14.5723 12.9875 14.5619C12.9961 14.8391 12.9875 15.1157 12.9616 15.3918C12.8232 15.5301 12.685 15.5301 12.5466 15.3918C12.5208 15.1157 12.5121 14.8391 12.5207 14.5619C12.1749 14.5619 11.8292 14.5619 11.4834 14.5619C11.492 14.8218 11.4833 15.0812 11.4575 15.3399C11.371 15.4893 11.2414 15.5325 11.0685 15.4696C11.036 15.4307 11.0101 15.3874 10.9907 15.3399C10.9648 15.0812 10.9561 14.8218 10.9647 14.5619C10.6189 14.5619 10.2732 14.5619 9.9274 14.5619C9.93601 14.8391 9.92734 15.1157 9.90146 15.3918C9.76314 15.5301 9.62486 15.5301 9.48653 15.3918C9.46065 15.1157 9.45199 14.8391 9.4606 14.5619C9.28213 14.5723 9.10926 14.5463 8.94194 14.4841C8.74313 14.2853 8.54428 14.0865 8.34548 13.8877C8.27722 13.7223 8.25129 13.5494 8.26768 13.369C7.9905 13.3776 7.7139 13.369 7.43782 13.3431C7.28647 13.163 7.30374 13.0074 7.48968 12.8763C7.74844 12.8504 8.00777 12.8417 8.26768 12.8503C8.26768 12.5219 8.26768 12.1934 8.26768 11.8649C8.00777 11.8735 7.74844 11.8648 7.48968 11.839C7.30374 11.7078 7.28647 11.5522 7.43782 11.3722C7.7139 11.3463 7.9905 11.3376 8.26768 11.3462C8.26768 11.0004 8.26768 10.6547 8.26768 10.3089C7.9905 10.3175 7.7139 10.3088 7.43782 10.283C7.33699 10.1713 7.31105 10.0416 7.36002 9.89397C7.41536 9.85813 7.47589 9.8322 7.54155 9.81617C7.78299 9.79029 8.02499 9.78163 8.26768 9.79024C8.24636 9.58469 8.28956 9.3945 8.39734 9.21971C8.5616 9.05545 8.72581 8.89124 8.89007 8.72698C9.07295 8.65763 9.26309 8.6317 9.4606 8.64918C9.44561 8.33326 9.46293 8.02206 9.51247 7.71559ZM9.25314 9.11598C9.11678 9.27837 8.96984 9.43397 8.81227 9.58277C8.77768 10.9313 8.77768 12.2798 8.81227 13.6283C8.94194 13.758 9.0716 13.8877 9.20127 14.0173C10.5498 14.0519 11.8983 14.0519 13.2468 14.0173C13.3765 13.8877 13.5062 13.758 13.6358 13.6283C13.6704 12.2798 13.6704 10.9313 13.6358 9.58277C13.4889 9.43583 13.3419 9.28885 13.195 9.14191C11.8811 9.11598 10.5672 9.10731 9.25314 9.11598Z" fill="url(#paint5_linear_1772_1282)"/>
<path fill-rule="evenodd" clip-rule="evenodd" d="M11.1513 0C11.3374 0 11.4884 0.150939 11.4884 0.337131V3.60471C11.4884 3.7909 11.3374 3.94184 11.1513 3.94184C10.9651 3.94184 10.8141 3.7909 10.8141 3.60471V0.337131C10.8141 0.150939 10.9651 0 11.1513 0ZM3.00326 3.52192C3.13491 3.39026 3.34837 3.39026 3.48003 3.52192L5.83995 5.88183C5.9716 6.01349 5.9716 6.22695 5.83995 6.35861C5.70829 6.49027 5.49483 6.49027 5.36317 6.35861L3.00326 3.99869C2.8716 3.86704 2.8716 3.65358 3.00326 3.52192ZM19.6337 3.77862C19.7668 3.9088 19.7692 4.12225 19.639 4.25536L17.331 6.61528C17.2008 6.74839 16.9873 6.75076 16.8542 6.62057C16.7211 6.49039 16.7187 6.27694 16.8489 6.14383L19.157 3.78391C19.2872 3.6508 19.5006 3.64843 19.6337 3.77862ZM0 11.5143C0 11.3281 0.150939 11.1772 0.337131 11.1772H3.70844C3.89463 11.1772 4.04557 11.3281 4.04557 11.5143C4.04557 11.7005 3.89463 11.8514 3.70844 11.8514H0.337131C0.150939 11.8514 0 11.7005 0 11.5143ZM18.5941 11.5143C18.5941 11.3281 18.745 11.1772 18.9312 11.1772H22.1728C22.359 11.1772 22.51 11.3281 22.51 11.5143C22.51 11.7005 22.359 11.8514 22.1728 11.8514H18.9312C18.745 11.8514 18.5941 11.7005 18.5941 11.5143Z" fill="url(#paint6_linear_1772_1282)"/>
<defs>
<linearGradient id="paint0_linear_1772_1282" x1="4.79547" y1="4.6875" x2="20.0008" y2="11.0686" gradientUnits="userSpaceOnUse">
<stop offset="0.11" stop-color="#60D7AD"/>
<stop offset="0.76" stop-color="#213C3A"/>
</linearGradient>
<linearGradient id="paint1_linear_1772_1282" x1="6.64355" y1="17.9766" x2="12.5742" y2="24.3148" gradientUnits="userSpaceOnUse">
<stop offset="0.11" stop-color="#60D7AD"/>
<stop offset="0.76" stop-color="#213C3A"/>
</linearGradient>
<linearGradient id="paint2_linear_1772_1282" x1="8.6113" y1="21.9609" x2="11.9756" y2="25.5672" gradientUnits="userSpaceOnUse">
<stop offset="0.11" stop-color="#60D7AD"/>
<stop offset="0.76" stop-color="#213C3A"/>
</linearGradient>
<linearGradient id="paint3_linear_1772_1282" x1="9.70792" y1="10.2891" x2="11.7941" y2="10.8277" gradientUnits="userSpaceOnUse">
<stop offset="0.11" stop-color="#60D7AD"/>
<stop offset="0.76" stop-color="#213C3A"/>
</linearGradient>
<linearGradient id="paint4_linear_1772_1282" x1="11.4696" y1="10.3125" x2="13.1616" y2="10.6522" gradientUnits="userSpaceOnUse">
<stop offset="0.11" stop-color="#60D7AD"/>
<stop offset="0.76" stop-color="#213C3A"/>
</linearGradient>
<linearGradient id="paint5_linear_1772_1282" x1="7.24274" y1="7.71094" x2="16.6197" y2="11.757" gradientUnits="userSpaceOnUse">
<stop offset="0.11" stop-color="#60D7AD"/>
<stop offset="0.76" stop-color="#213C3A"/>
</linearGradient>
<linearGradient id="paint6_linear_1772_1282" x1="-0.26965" y1="-4.62654e-07" x2="18.9688" y2="15.7804" gradientUnits="userSpaceOnUse">
<stop offset="0.11" stop-color="#60D7AD"/>
<stop offset="0.76" stop-color="#213C3A"/>
</linearGradient>
</defs>
</svg>
