<svg width="178" height="33" viewBox="0 0 178 33" fill="none" xmlns="http://www.w3.org/2000/svg">
<g clip-path="url(#clip0_7_4)">
<path d="M0 31.9718H4.842L11.2333 15.3133L17.8154 31.9718H22.4666L13.9438 11.0031H8.32875L0 31.9718Z" fill="url(#paint0_linear_7_4)"/>
<path d="M9.03558 7.80946H13.5354V4.46971H37.0146V27.6513H24.1003L25.8616 31.9721H41.5145V0.148987H9.03558V7.80946Z" fill="white"/>
<path d="M52.8932 12.3306C53.7226 12.3306 54.4957 12.5061 55.2157 12.857C55.934 13.208 56.5567 13.6851 57.0818 14.2924C57.6069 14.8996 58.0164 15.6075 58.3113 16.4198C58.608 17.2321 58.7543 18.0996 58.7543 19.0204V25.4026H55.329V23.0701C55.329 22.4215 55.333 21.7511 55.3406 21.0571C55.3482 20.365 55.3527 19.7716 55.3527 19.2767C55.3527 18.7976 55.2759 18.3283 55.122 17.867C54.9699 17.4056 54.7571 16.9994 54.4859 16.6505C54.2142 16.2995 53.8965 16.0176 53.5294 15.8046C53.1645 15.5917 52.7777 15.4832 52.3704 15.4832C51.9796 15.4832 51.6048 15.5562 51.2497 15.7001C50.8928 15.846 50.5783 16.059 50.3071 16.3409C50.0359 16.6229 49.819 16.9778 49.6571 17.4056C49.4952 17.8334 49.4153 18.3362 49.4153 18.9178V25.4026H45.9138V6.69174H49.4153L49.4403 13.6634C49.8797 13.2356 50.3829 12.9083 50.9513 12.6776C51.5192 12.4449 52.1652 12.3306 52.8932 12.3306Z" fill="white"/>
<path d="M66.5434 12.0451C67.4905 12.0451 68.3529 12.2364 69.1318 12.6208C69.9103 13.0053 70.5777 13.51 71.1362 14.1331C71.6943 14.7561 72.1257 15.4738 72.4299 16.2861C72.7346 17.0984 72.8868 17.9304 72.8868 18.7861C72.8868 19.2988 72.8185 19.8449 72.6838 20.4265H63.7017C64.0398 21.0082 64.5216 21.4991 65.148 21.8993C65.7726 22.3016 66.4502 22.5007 67.1783 22.5007C67.9059 22.5007 68.5443 22.4416 69.0925 22.3213C69.6431 22.201 70.1623 22.0492 70.654 21.8599L71.821 24.0386C71.1946 24.4822 70.4804 24.8253 69.6765 25.0638C68.8722 25.3024 68.0152 25.4227 67.0997 25.4227C66.1027 25.4227 65.1716 25.2472 64.3089 24.8963C63.4465 24.5453 62.693 24.0721 62.0506 23.4747C61.4087 22.8773 60.901 22.1675 60.5285 21.3473C60.1577 20.5291 59.9722 19.6576 59.9722 18.7349C59.9722 17.8299 60.1417 16.9702 60.4798 16.1599C60.8171 15.3476 61.2878 14.6398 61.8887 14.0325C62.49 13.4253 63.1864 12.9442 63.981 12.5854C64.7755 12.2245 65.6302 12.0451 66.5434 12.0451ZM69.4111 17.684C69.2081 16.9486 68.845 16.3511 68.3199 15.8898C67.7948 15.4284 67.2032 15.1978 66.5434 15.1978C65.8662 15.1978 65.2537 15.4284 64.705 15.8898C64.1549 16.3511 63.778 16.9486 63.5772 17.684H69.4111Z" fill="white"/>
<path d="M88.5928 12.4059V25.119H85.5734L85.2183 23.7606C84.7281 24.427 84.1387 24.8706 83.4535 25.0934C82.7687 25.3162 82.0545 25.4266 81.3086 25.4266C80.4128 25.4266 79.5875 25.2511 78.8358 24.9002C78.0823 24.5492 77.4287 24.0721 76.8684 23.4648C76.3103 22.8576 75.8753 22.1497 75.5631 21.3374C75.2486 20.5251 75.0924 19.6576 75.0924 18.7348C75.0924 17.8121 75.2486 16.9446 75.5631 16.1343C75.8753 15.322 76.3103 14.6141 76.8684 14.0069C77.4265 13.3996 78.0823 12.9224 78.8358 12.5715C79.5893 12.2206 80.4128 12.0451 81.3086 12.0451C82.1205 12.0451 82.8646 12.1732 83.5418 12.4295C84.2168 12.6859 84.7771 13.096 85.2161 13.6599L85.5712 12.4039H88.5928V12.4059ZM85.0912 18.7881C85.0912 18.1217 85.0015 17.5617 84.824 17.1083C84.6464 16.6548 84.41 16.2881 84.1133 16.0061C83.8166 15.7242 83.4713 15.5191 83.073 15.3909C82.675 15.2628 82.2494 15.1978 81.7931 15.1978C81.3362 15.1978 80.9089 15.2924 80.5105 15.4797C80.1125 15.667 79.7628 15.9193 79.4568 16.2348C79.1521 16.5503 78.9161 16.9269 78.7461 17.3626C78.5766 17.7983 78.4923 18.2557 78.4923 18.7348C78.4923 19.2297 78.5766 19.6911 78.7461 20.1189C78.9161 20.5468 79.1521 20.9174 79.4568 21.2349C79.761 21.5503 80.1125 21.8027 80.5105 21.99C80.9089 22.1793 81.334 22.272 81.7931 22.272C82.7063 22.272 83.4794 21.9861 84.1133 21.4124C84.7477 20.8425 85.0738 19.9671 85.0912 18.7881Z" fill="white"/>
<path d="M98.1307 12.412C99.0265 12.412 99.8562 12.5874 100.617 12.9384C101.378 13.2893 102.034 13.7665 102.583 14.3737C103.133 14.981 103.565 15.6888 103.877 16.5011C104.189 17.3134 104.345 18.1809 104.345 19.1017C104.345 20.0245 104.189 20.892 103.877 21.7043C103.563 22.5166 103.131 23.2244 102.583 23.8317C102.032 24.439 101.378 24.9161 100.617 25.267C99.8562 25.618 99.0265 25.7935 98.1307 25.7935C97.4026 25.7935 96.6924 25.6614 95.9996 25.3952C95.3063 25.131 94.7643 24.7938 94.3757 24.3837V30.5609H90.8741V12.7708H93.868L94.3757 13.6423C94.8655 13.1986 95.416 12.8812 96.0245 12.6939C96.6339 12.5046 97.3366 12.412 98.1307 12.412ZM97.6738 22.6388C98.1307 22.6388 98.5585 22.5462 98.9546 22.3569C99.3526 22.1696 99.6979 21.9172 99.995 21.6018C100.291 21.2863 100.528 20.9137 100.705 20.4858C100.883 20.058 100.971 19.5966 100.971 19.1017C100.971 18.6226 100.881 18.1652 100.705 17.7295C100.528 17.2937 100.289 16.9171 99.995 16.6017C99.6979 16.2862 99.3526 16.0338 98.9546 15.8466C98.5562 15.6592 98.1307 15.5646 97.6738 15.5646C97.2175 15.5646 96.7901 15.6297 96.3917 15.7578C95.9933 15.886 95.648 16.091 95.3518 16.373C95.0547 16.6549 94.8227 17.0217 94.6527 17.4751C94.4832 17.9286 94.3989 18.4708 94.3989 19.1017C94.3989 19.6991 94.4832 20.2177 94.6527 20.6534C94.8227 21.0891 95.0547 21.4559 95.3518 21.7556C95.648 22.0552 95.9933 22.2761 96.3917 22.422C96.7901 22.5659 97.2175 22.6388 97.6738 22.6388Z" fill="white"/>
<path d="M111.034 21.772C111.397 22.0973 111.875 22.261 112.468 22.261C112.941 22.261 113.415 22.1683 113.889 21.979V24.9306C113.466 25.0666 113.019 25.181 112.545 25.2736C112.07 25.3663 111.598 25.4136 111.124 25.4136C110.583 25.4136 110.066 25.3446 109.576 25.2085C109.086 25.0725 108.645 24.8359 108.257 24.5027C107.866 24.1695 107.558 23.7259 107.33 23.1699C107.101 22.6139 106.988 21.9278 106.988 21.1075V15.3662H105.186V12.9824L106.988 12.2135V9.36841H110.489V12.2135H113.889V15.3662H110.489V20.384C110.487 20.9833 110.669 21.4467 111.034 21.772Z" fill="white"/>
<path d="M119.012 14.593C119.182 14.3189 119.376 14.0587 119.596 13.8102C119.817 13.5618 120.078 13.341 120.383 13.1438C120.688 12.9467 121.035 12.7889 121.423 12.6706C121.812 12.5504 122.253 12.4912 122.742 12.4912C123.318 12.4912 123.986 12.5937 124.747 12.7988L124.417 15.9515C124.232 15.9179 124.045 15.8745 123.859 15.8233C123.706 15.7898 123.537 15.7582 123.351 15.7326C123.166 15.707 122.996 15.6951 122.844 15.6951C122.303 15.6951 121.8 15.772 121.334 15.9258C120.869 16.0796 120.467 16.2925 120.129 16.5666C119.791 16.8407 119.52 17.1699 119.317 17.5524C119.114 17.9369 119.012 18.3509 119.012 18.7965V25.5375H115.511V12.8244H118.683L119.012 14.593Z" fill="white"/>
<path d="M139.184 12.4059V25.119H136.165L135.81 23.7606C135.319 24.427 134.73 24.8706 134.045 25.0934C133.36 25.3162 132.646 25.4266 131.9 25.4266C131.004 25.4266 130.179 25.2511 129.427 24.9002C128.673 24.5492 128.02 24.0721 127.46 23.4648C126.902 22.8576 126.467 22.1497 126.154 21.3374C125.84 20.5251 125.684 19.6576 125.684 18.7348C125.684 17.8121 125.84 16.9446 126.154 16.1343C126.467 15.322 126.902 14.6141 127.46 14.0069C128.018 13.3996 128.673 12.9224 129.427 12.5715C130.18 12.2206 131.004 12.0451 131.9 12.0451C132.712 12.0451 133.455 12.1732 134.133 12.4295C134.808 12.6859 135.368 13.096 135.807 13.6599L136.163 12.4039H139.184V12.4059ZM135.682 18.7881C135.682 18.1217 135.593 17.5617 135.415 17.1083C135.237 16.6548 135.002 16.2881 134.705 16.0061C134.408 15.7242 134.062 15.5191 133.664 15.3909C133.266 15.2628 132.84 15.1978 132.383 15.1978C131.927 15.1978 131.5 15.2924 131.102 15.4797C130.704 15.667 130.354 15.9193 130.047 16.2348C129.743 16.5503 129.507 16.9269 129.337 17.3626C129.167 17.7983 129.084 18.2557 129.084 18.7348C129.084 19.2297 129.167 19.6911 129.337 20.1189C129.507 20.5468 129.743 20.9174 130.047 21.2349C130.352 21.5503 130.704 21.8027 131.102 21.99C131.5 22.1793 131.925 22.272 132.383 22.272C133.297 22.272 134.071 21.9861 134.705 21.4124C135.341 20.8425 135.665 19.9671 135.682 18.7881Z" fill="white"/>
<path d="M147.633 15.1938C147.21 15.1938 146.812 15.2924 146.44 15.4896C146.068 15.6867 145.742 15.9509 145.465 16.2842C145.187 16.6174 144.965 17.0058 144.805 17.4514C144.643 17.895 144.563 18.3741 144.563 18.8867C144.563 19.3994 144.643 19.8647 144.805 20.2846C144.965 20.7026 145.186 21.0615 145.465 21.3611C145.744 21.6608 146.07 21.8954 146.44 22.067C146.813 22.2385 147.21 22.3233 147.633 22.3233C148.156 22.3233 148.67 22.1991 149.168 21.9526C149.667 21.7042 150.094 21.3591 150.45 20.9156L152.606 23.0686C152.015 23.7862 151.287 24.358 150.424 24.7859C149.561 25.2137 148.63 25.4266 147.633 25.4266C146.72 25.4266 145.865 25.2511 145.07 24.9002C144.275 24.5493 143.581 24.0722 142.99 23.4649C142.396 22.8576 141.928 22.1498 141.583 21.3375C141.235 20.5252 141.062 19.6576 141.062 18.7349C141.062 17.8122 141.235 16.9447 141.583 16.1343C141.928 15.322 142.399 14.6142 142.99 14.0069C143.581 13.3996 144.275 12.9225 145.07 12.5716C145.865 12.2206 146.72 12.0451 147.633 12.0451C148.666 12.0451 149.62 12.2679 150.501 12.7116C151.381 13.1552 152.124 13.7624 152.733 14.5314L150.297 16.4281C149.807 15.9667 149.363 15.6453 148.965 15.4659C148.568 15.2826 148.123 15.1938 147.633 15.1938Z" fill="white"/>
<path d="M160.726 12.0451C161.672 12.0451 162.535 12.2364 163.313 12.6208C164.092 13.0053 164.76 13.51 165.318 14.1331C165.876 14.7561 166.308 15.4738 166.612 16.2861C166.917 17.0984 167.069 17.9304 167.069 18.7861C167.069 19.2988 167.001 19.8449 166.866 20.4265H157.884C158.221 21.0082 158.704 21.4991 159.33 21.8993C159.956 22.3016 160.632 22.5007 161.36 22.5007C162.088 22.5007 162.726 22.4416 163.275 22.3213C163.825 22.201 164.344 22.0492 164.836 21.8599L166.003 24.0386C165.377 24.4822 164.662 24.8253 163.858 25.0638C163.054 25.3024 162.197 25.4227 161.282 25.4227C160.284 25.4227 159.354 25.2472 158.491 24.8963C157.628 24.5453 156.875 24.0721 156.233 23.4747C155.591 22.8773 155.081 22.1675 154.711 21.3473C154.338 20.5271 154.152 19.6556 154.152 18.7329C154.152 17.8279 154.322 16.9683 154.66 16.1579C154.997 15.3456 155.468 14.6378 156.067 14.0305C156.668 13.4233 157.364 12.9422 158.161 12.5833C158.958 12.2245 159.812 12.0451 160.726 12.0451ZM163.593 17.684C163.39 16.9486 163.027 16.3511 162.502 15.8898C161.976 15.4284 161.385 15.1978 160.726 15.1978C160.048 15.1978 159.435 15.4284 158.887 15.8898C158.337 16.3511 157.96 16.9486 157.757 17.684H163.593Z" fill="white"/>
<path d="M171.885 21.5024C172.422 21.5024 172.88 21.6917 173.259 22.0702C173.637 22.4488 173.827 22.9121 173.827 23.4622C173.827 24.0123 173.637 24.4776 173.259 24.8562C172.88 25.2347 172.424 25.424 171.885 25.424C171.348 25.424 170.893 25.2347 170.524 24.8562C170.154 24.4776 169.97 24.0123 169.97 23.4622C169.97 22.9121 170.156 22.4468 170.524 22.0702C170.893 21.6917 171.348 21.5024 171.885 21.5024Z" fill="url(#paint1_linear_7_4)"/>
</g>
<defs>
<linearGradient id="paint0_linear_7_4" x1="-1.08335" y1="13.2767" x2="19.2705" y2="33.5423" gradientUnits="userSpaceOnUse">
<stop stop-color="#E63F59"/>
<stop offset="0.0001" stop-color="#E63F59"/>
<stop offset="1" stop-color="#E63F59"/>
</linearGradient>
<linearGradient id="paint1_linear_7_4" x1="169.97" y1="23.4626" x2="173.827" y2="23.4626" gradientUnits="userSpaceOnUse">
<stop offset="1" stop-color="#E63F59"/>
</linearGradient>
<clipPath id="clip0_7_4">
<rect width="178" height="32.1203" fill="white"/>
</clipPath>
</defs>
</svg>
