<svg width="20" height="20" viewBox="0 0 20 20" fill="none" xmlns="http://www.w3.org/2000/svg">
<path opacity="0.932" fill-rule="evenodd" clip-rule="evenodd" d="M11.2891 0C11.4062 0 11.5234 0 11.6406 0C11.7992 0.144291 11.8318 0.313561 11.7383 0.507812C11.3968 0.792441 11.0518 1.07239 10.7031 1.34766C13.6156 1.76447 15.8226 3.22932 17.3242 5.74218C18.6508 8.29234 18.768 10.8965 17.6758 13.5547C16.1879 16.5878 13.7595 18.2871 10.3906 18.6523C6.97918 18.6784 3.56771 18.6784 0.15625 18.6523C0.109177 18.5986 0.0570937 18.553 0 18.5156C0 18.3984 0 18.2812 0 18.1641C0.0589949 18.1119 0.124099 18.0663 0.195312 18.0273C3.58073 18.0143 6.96613 18.0013 10.3516 17.9883C13.0449 17.7069 15.1218 16.4374 16.582 14.1797C18.0622 11.5773 18.1403 8.93406 16.8164 6.25C15.4962 3.91468 13.5105 2.52796 10.8594 2.08984C11.0937 2.27214 11.3281 2.45442 11.5625 2.63672C11.8171 2.81049 11.8562 3.01883 11.6797 3.26172C11.5677 3.31862 11.4505 3.33164 11.3281 3.30078C10.702 2.8444 10.09 2.36914 9.49218 1.875C9.39933 1.73502 9.39285 1.59179 9.47265 1.44531C10.0854 0.968859 10.6909 0.48709 11.2891 0Z" fill="url(#paint0_linear_1833_3267)"/>
<path opacity="0.928" fill-rule="evenodd" clip-rule="evenodd" d="M7.46137 1.60277C7.73883 1.55206 7.89508 1.66274 7.93012 1.9348C7.93371 2.04472 7.89465 2.13587 7.81293 2.20824C4.65399 3.14059 2.68131 5.20441 1.89496 8.39964C1.38471 11.5439 2.32221 14.161 4.70746 16.2512C4.81332 16.6192 4.6766 16.7819 4.29731 16.7395C2.29692 15.0891 1.2227 12.9601 1.07465 10.3528C1.0469 7.10722 2.3555 4.56164 5.00043 2.71605C5.77469 2.23767 6.595 1.86658 7.46137 1.60277Z" fill="url(#paint1_linear_1833_3267)"/>
<path opacity="0.932" fill-rule="evenodd" clip-rule="evenodd" d="M9.25781 6.91465C11.0138 6.7991 12.1792 7.56735 12.7539 9.21934C13.0594 10.9981 12.3888 12.2416 10.7422 12.9498C9.27664 13.3467 8.08523 12.9496 7.16797 11.7584C6.46484 10.5865 6.46484 9.41465 7.16797 8.24277C7.68738 7.5216 8.38398 7.07891 9.25781 6.91465ZM9.33594 7.57871C8.68785 7.72402 8.16051 8.06258 7.75391 8.59434C7.03664 9.81262 7.18637 10.9129 8.20312 11.8951C9.15906 12.5756 10.1356 12.6146 11.1328 12.0123C12.0955 11.2466 12.3884 10.2765 12.0117 9.10215C11.4777 7.97738 10.5857 7.46957 9.33594 7.57871Z" fill="url(#paint2_linear_1833_3267)"/>
<path opacity="0.934" fill-rule="evenodd" clip-rule="evenodd" d="M19.9995 18.164C19.9995 18.2812 19.9995 18.3984 19.9995 18.5156C19.3848 19.0264 18.7598 19.5212 18.1245 19.9999C18.0204 19.9999 17.9162 19.9999 17.812 19.9999C17.6463 19.8489 17.6138 19.6666 17.7144 19.4531C18.0464 19.1992 18.3785 18.9452 18.7105 18.6913C17.5386 18.6783 16.3667 18.6653 15.1949 18.6523C14.9592 18.4681 14.9462 18.2728 15.1558 18.0663C16.3243 18.0149 17.4962 17.9888 18.6714 17.9882C18.3287 17.7354 17.9967 17.4684 17.6753 17.1874C17.6256 16.716 17.8144 16.5793 18.2417 16.7773C18.8288 17.2399 19.4148 17.7021 19.9995 18.164Z" fill="url(#paint3_linear_1833_3267)"/>
<path opacity="0.934" fill-rule="evenodd" clip-rule="evenodd" d="M9.0039 4.02393C9.48586 4.01741 9.96762 4.02393 10.4492 4.04346C10.485 4.05807 10.5176 4.0776 10.5469 4.10206C10.6707 4.39569 10.7945 4.68866 10.918 4.98096C11.4536 5.13167 11.9614 5.34651 12.4414 5.62549C12.6888 5.51483 12.9362 5.40413 13.1836 5.29346C13.306 5.2626 13.4232 5.27561 13.5352 5.33252C13.8281 5.62549 14.1211 5.91846 14.4141 6.21143C14.459 6.29948 14.472 6.39061 14.4531 6.48487C14.3347 6.74916 14.224 7.01608 14.1211 7.28565C14.3864 7.7753 14.5947 8.28963 14.7461 8.82862C15.0652 8.93295 15.3711 9.06315 15.6641 9.21924C15.6771 9.2583 15.6901 9.29737 15.7031 9.33643C15.7292 9.79217 15.7292 10.2479 15.7031 10.7036C15.685 10.7595 15.6524 10.8051 15.6055 10.8403C15.3041 10.9493 15.0112 11.073 14.7266 11.2114C14.5925 11.7178 14.3971 12.1996 14.1406 12.6567C14.1146 12.7088 14.1146 12.7609 14.1406 12.813C14.2448 13.0474 14.3489 13.2817 14.4531 13.5161C14.4807 13.6126 14.4677 13.7038 14.4141 13.7896C14.1081 14.0955 13.8021 14.4015 13.4961 14.7075C13.3919 14.7336 13.2878 14.7336 13.1836 14.7075C12.9362 14.5969 12.6888 14.4862 12.4414 14.3755C11.9616 14.6548 11.4538 14.8697 10.918 15.02C10.8052 15.254 10.7075 15.4949 10.625 15.7427C10.5982 15.8426 10.5396 15.9142 10.4492 15.9575C9.96746 15.9836 9.48566 15.9836 9.0039 15.9575C8.96812 15.9429 8.93555 15.9234 8.90625 15.8989C8.78238 15.6053 8.65867 15.3123 8.53515 15.02C7.99933 14.8697 7.49152 14.6548 7.01172 14.3755C6.76434 14.4862 6.51691 14.5969 6.26953 14.7075C6.16535 14.7336 6.06121 14.7336 5.95703 14.7075C5.62379 14.3873 5.30477 14.0553 5 13.7114C4.97555 13.625 4.98207 13.5403 5.01953 13.4575C5.13133 13.2133 5.23547 12.9659 5.33203 12.7153C5.06043 12.2435 4.85859 11.7422 4.72656 11.2114C4.44063 11.0727 4.14766 10.949 3.84766 10.8403C3.80073 10.8051 3.76817 10.7595 3.75 10.7036C3.72396 10.2349 3.72396 9.76612 3.75 9.29737C3.76817 9.24147 3.80073 9.19592 3.84766 9.16065C4.14899 9.0517 4.44195 8.92799 4.72656 8.78955C4.85789 8.25994 5.05973 7.75866 5.33203 7.28565C5.21598 7.02096 5.10527 6.75405 5 6.48487C4.97242 6.38834 4.98543 6.29717 5.03906 6.21143C5.34504 5.90545 5.65105 5.59944 5.95703 5.29346C6.06121 5.26741 6.16535 5.26741 6.26953 5.29346C6.51691 5.40413 6.76434 5.51483 7.01172 5.62549C7.49152 5.34616 7.99933 5.13131 8.53515 4.98096C8.63785 4.74288 8.73551 4.50198 8.82812 4.25831C8.85953 4.15495 8.91812 4.07682 9.0039 4.02393ZM9.39453 4.64893C9.61742 4.63608 9.83875 4.64913 10.0586 4.68799C10.1707 4.97077 10.2879 5.25073 10.4102 5.52784C11.065 5.68963 11.677 5.95006 12.2461 6.30909C12.5391 6.31307 12.8125 6.23495 13.0664 6.07471C13.1425 6.036 13.2206 6.02295 13.3008 6.03565C13.4511 6.17948 13.5944 6.3292 13.7305 6.48487C13.5968 6.75858 13.4796 7.0385 13.3789 7.32471C13.4995 7.59846 13.6362 7.86541 13.7891 8.12549C13.941 8.51873 14.0777 8.91584 14.1992 9.3169C14.4794 9.44713 14.7659 9.5578 15.0586 9.64893C15.0714 9.88475 15.0584 10.1191 15.0195 10.3521C14.731 10.4504 14.4511 10.5676 14.1797 10.7036C14.0257 11.3741 13.7653 11.9991 13.3984 12.5786C13.3724 12.6437 13.3724 12.7088 13.3984 12.7739C13.5192 13.033 13.6234 13.2934 13.7109 13.5552C13.5659 13.7133 13.4097 13.8565 13.2422 13.9849C13.0121 13.8926 12.7842 13.7949 12.5586 13.6919C12.4544 13.6658 12.3503 13.6658 12.2461 13.6919C11.7352 14.0403 11.1752 14.2746 10.5664 14.395C10.5046 14.4226 10.4461 14.4552 10.3906 14.4927C10.28 14.7661 10.1693 15.0396 10.0586 15.313C9.83722 15.3651 9.6159 15.3651 9.39453 15.313C9.28004 15.0411 9.16937 14.7677 9.0625 14.4927C9.00707 14.4552 8.94848 14.4226 8.88672 14.395C8.27789 14.2746 7.71797 14.0403 7.20703 13.6919C7.10285 13.6658 6.99871 13.6658 6.89453 13.6919C6.66894 13.7949 6.44105 13.8926 6.21094 13.9849C6.04344 13.8565 5.88719 13.7133 5.74219 13.5552C5.82211 13.2903 5.92629 13.0299 6.05469 12.7739C6.08074 12.7088 6.08074 12.6437 6.05469 12.5786C5.68715 11.9996 5.42672 11.3746 5.27344 10.7036C5.00207 10.5676 4.72215 10.4504 4.43359 10.3521C4.39469 10.1191 4.38168 9.88475 4.39453 9.64893C4.63188 9.57596 4.86625 9.49135 5.09766 9.39502C5.19754 9.36826 5.26918 9.30967 5.3125 9.21924C5.37242 8.94053 5.45055 8.66709 5.54688 8.39893C5.7082 8.03073 5.88398 7.67268 6.07422 7.32471C5.9557 7.03006 5.84504 6.73709 5.74219 6.44581C5.88719 6.28768 6.04344 6.14444 6.21094 6.01612C6.44105 6.10838 6.66894 6.20604 6.89453 6.30909C6.99871 6.33514 7.10285 6.33514 7.20703 6.30909C7.71797 5.96073 8.27789 5.72635 8.88672 5.60596C8.94848 5.57834 9.00707 5.54581 9.0625 5.50831C9.17726 5.22245 9.28793 4.936 9.39453 4.64893Z" fill="url(#paint4_linear_1833_3267)"/>
<defs>
<linearGradient id="paint0_linear_1833_3267" x1="-0.220603" y1="-7.28909e-07" x2="22.065" y2="9.49221" gradientUnits="userSpaceOnUse">
<stop offset="0.11" stop-color="#60D7AD"/>
<stop offset="0.76" stop-color="#213C3A"/>
</linearGradient>
<linearGradient id="paint1_linear_1833_3267" x1="0.992088" y1="1.59082" x2="10.4339" y2="3.43548" gradientUnits="userSpaceOnUse">
<stop offset="0.11" stop-color="#60D7AD"/>
<stop offset="0.76" stop-color="#213C3A"/>
</linearGradient>
<linearGradient id="paint2_linear_1833_3267" x1="6.56653" y1="6.90332" x2="14.0231" y2="10.1182" gradientUnits="userSpaceOnUse">
<stop offset="0.11" stop-color="#60D7AD"/>
<stop offset="0.76" stop-color="#213C3A"/>
</linearGradient>
<linearGradient id="paint3_linear_1833_3267" x1="14.948" y1="16.6895" x2="19.9596" y2="19.9529" gradientUnits="userSpaceOnUse">
<stop offset="0.11" stop-color="#60D7AD"/>
<stop offset="0.76" stop-color="#213C3A"/>
</linearGradient>
<linearGradient id="paint4_linear_1833_3267" x1="3.58681" y1="4.02148" x2="18.0231" y2="10.2751" gradientUnits="userSpaceOnUse">
<stop offset="0.11" stop-color="#60D7AD"/>
<stop offset="0.76" stop-color="#213C3A"/>
</linearGradient>
</defs>
</svg>
