<svg width="17" height="20" viewBox="0 0 17 20" fill="none" xmlns="http://www.w3.org/2000/svg">
<path opacity="0.95" fill-rule="evenodd" clip-rule="evenodd" d="M11.8265 0C12.2432 0 12.6599 0 13.0766 0C13.1736 3.32749 11.559 4.92906 8.23272 4.80476C8.18471 3.91935 8.30843 3.05996 8.60382 2.2266C9.03156 1.2 9.78029 0.529419 10.85 0.214847C11.1772 0.125866 11.5027 0.0542507 11.8265 0ZM12.0218 0.898452C12.0609 0.898452 12.1 0.898452 12.139 0.898452C12.0202 2.76206 11.0307 3.75167 9.17024 3.86725C9.30036 2.08354 10.2509 1.09394 12.0218 0.898452Z" fill="url(#paint0_linear_1835_3297)"/>
<path opacity="0.95" fill-rule="evenodd" clip-rule="evenodd" d="M12.6531 20.0004C12.3016 20.0004 11.95 20.0004 11.5984 20.0004C10.9304 19.8709 10.2924 19.643 9.68434 19.3168C8.69069 19.0256 7.75318 19.1558 6.8718 19.7074C6.52363 19.8366 6.17206 19.9343 5.81709 20.0004C5.45252 20.0004 5.0879 20.0004 4.72333 20.0004C3.5435 19.7136 2.61247 19.0625 1.93031 18.0472C1.06475 16.7534 0.504843 15.3341 0.250597 13.7893C0.0410313 12.6393 -0.037095 11.4804 0.0162184 10.3127C0.268383 8.0152 1.44679 6.40709 3.55143 5.48841C4.41945 5.18719 5.3049 5.12207 6.20772 5.29309C6.97024 5.51688 7.72548 5.76427 8.47338 6.03529C8.62964 6.06134 8.78589 6.06134 8.94214 6.03529C9.5411 5.82697 10.1401 5.6186 10.739 5.41028C13.2436 4.84656 15.1968 5.63431 16.5985 7.7736C16.3664 7.88739 16.1191 7.97204 15.8563 8.02751C14.7043 8.45037 13.9556 9.25116 13.6102 10.4299C13.2719 12.2727 13.9294 13.6204 15.5829 14.4729C15.9842 14.6366 16.4009 14.7407 16.8329 14.7854C16.8691 14.8006 16.8952 14.8266 16.911 14.8636C16.5735 16.1258 16.0201 17.2782 15.2508 18.3206C14.5814 19.1933 13.7155 19.7532 12.6531 20.0004ZM4.99677 6.09388C5.40537 6.09517 5.80901 6.14072 6.20772 6.23061C6.86168 6.44424 7.51274 6.66561 8.16088 6.89468C8.52546 7.02488 8.89007 7.02488 9.25465 6.89468C9.95286 6.64456 10.656 6.41018 11.3641 6.19154C12.7802 5.95619 14.0107 6.32729 15.0555 7.30484C15.0824 7.33734 15.0759 7.36336 15.036 7.38297C13.4794 8.22275 12.6591 9.53136 12.575 11.3088C12.7121 13.4068 13.7668 14.8131 15.7391 15.5276C15.4158 16.4024 14.9666 17.2032 14.3914 17.93C13.4324 19.0764 12.254 19.3824 10.8562 18.848C9.3791 18.0306 7.90771 18.0437 6.4421 18.8871C5.36876 19.3059 4.39219 19.1496 3.51237 18.4183C2.73107 17.6754 2.15161 16.7964 1.77406 15.7815C1.07668 13.9411 0.803243 12.04 0.953733 10.0783C1.27807 8.20501 2.32626 6.93546 4.09832 6.26967C4.4 6.1935 4.69946 6.1349 4.99677 6.09388Z" fill="url(#paint1_linear_1835_3297)"/>
<defs>
<linearGradient id="paint0_linear_1835_3297" x1="8.16446" y1="-1.87829e-07" x2="14.0004" y2="2.54469" gradientUnits="userSpaceOnUse">
<stop offset="0.11" stop-color="#60D7AD"/>
<stop offset="0.76" stop-color="#213C3A"/>
</linearGradient>
<linearGradient id="paint1_linear_1835_3297" x1="-0.20258" y1="5.20019" x2="19.2406" y2="14.7946" gradientUnits="userSpaceOnUse">
<stop offset="0.11" stop-color="#60D7AD"/>
<stop offset="0.76" stop-color="#213C3A"/>
</linearGradient>
</defs>
</svg>
