<svg width="28" height="24" viewBox="0 0 28 24" fill="none" xmlns="http://www.w3.org/2000/svg">
<path opacity="0.952" fill-rule="evenodd" clip-rule="evenodd" d="M2.02751 0.00304207C5.04524 -0.00507016 8.06291 0.00304207 11.0805 0.0273797C12.2549 0.168869 12.9386 0.84221 13.1316 2.04741C13.1631 8.68346 13.1631 15.3196 13.1316 21.9556C12.9999 23.0813 12.3948 23.7547 11.3163 23.9757C8.14146 24.0081 4.96659 24.0081 1.79176 23.9757C0.825158 23.7566 0.235768 23.1482 0.0235874 22.1503C-0.00786246 15.4007 -0.00786246 8.65105 0.0235874 1.90138C0.251988 0.764811 0.919931 0.132032 2.02751 0.00304207ZM2.02751 0.781848C5.06094 0.773733 8.09436 0.781848 11.1277 0.806185C11.7891 0.929276 12.1977 1.32679 12.3536 1.99873C8.48718 2.00685 4.62078 1.99873 0.754431 1.97439C0.946147 1.30824 1.37051 0.910725 2.02751 0.781848ZM0.754431 2.77754C4.63653 2.77754 8.51867 2.77754 12.4008 2.77754C12.4008 8.26164 12.4008 13.7457 12.4008 19.2298C8.51867 19.2298 4.63653 19.2298 0.754431 19.2298C0.754431 13.7457 0.754431 8.26164 0.754431 2.77754ZM0.754431 20.0086C4.63653 20.0086 8.51867 20.0086 12.4008 20.0086C12.4202 20.725 12.3967 21.4389 12.33 22.1503C12.176 22.715 11.8223 23.0639 11.2691 23.1968C8.14146 23.2293 5.01374 23.2293 1.88606 23.1968C1.29667 23.0427 0.927334 22.6614 0.778006 22.053C0.754431 21.3717 0.746556 20.6903 0.754431 20.0086Z" fill="url(#paint0_linear_2013_1176)"/>
<path opacity="0.974" fill-rule="evenodd" clip-rule="evenodd" d="M5.76141 21.0996C6.31171 21.0919 6.86183 21.0996 7.41171 21.1226C7.70183 21.1901 7.804 21.3667 7.71819 21.6523C7.69461 21.7368 7.63959 21.7905 7.55316 21.8136C6.89304 21.8443 6.23292 21.8443 5.57281 21.8136C5.39604 21.6645 5.35676 21.4879 5.45493 21.2838C5.53942 21.1858 5.64155 21.1244 5.76141 21.0996Z" fill="url(#paint1_linear_2013_1176)"/>
<path opacity="0.952" fill-rule="evenodd" clip-rule="evenodd" d="M16.7931 0.00304207C19.8109 -0.00507016 22.8285 0.00304207 25.8462 0.0273797C27.0206 0.168869 27.7043 0.84221 27.8972 2.04741C27.9287 8.68346 27.9287 15.3196 27.8972 21.9556C27.7655 23.0813 27.1605 23.7547 26.0819 23.9757C22.9071 24.0081 19.7322 24.0081 16.5574 23.9757C15.5908 23.7566 15.0014 23.1482 14.7892 22.1503C14.7578 15.4007 14.7578 8.65105 14.7892 1.90138C15.0176 0.764811 15.6856 0.132032 16.7931 0.00304207ZM16.7931 0.781848C19.8266 0.773733 22.86 0.781848 25.8933 0.806185C26.5548 0.929276 26.9634 1.32679 27.1192 1.99873C23.2528 2.00685 19.3864 1.99873 15.5201 1.97439C15.7118 1.30824 16.1361 0.910725 16.7931 0.781848ZM15.5201 2.77754C19.4022 2.77754 23.2843 2.77754 27.1664 2.77754C27.1664 8.26164 27.1664 13.7457 27.1664 19.2298C23.2843 19.2298 19.4022 19.2298 15.5201 19.2298C15.5201 13.7457 15.5201 8.26164 15.5201 2.77754ZM15.5201 20.0086C19.4022 20.0086 23.2843 20.0086 27.1664 20.0086C27.1859 20.725 27.1623 21.4389 27.0957 22.1503C26.9416 22.715 26.5879 23.0639 26.0348 23.1968C22.9071 23.2293 19.7794 23.2293 16.6517 23.1968C16.0623 23.0427 15.693 22.6614 15.5436 22.053C15.5201 21.3717 15.5122 20.6903 15.5201 20.0086Z" fill="url(#paint2_linear_2013_1176)"/>
<path opacity="0.974" fill-rule="evenodd" clip-rule="evenodd" d="M20.5505 21.4082C21.1008 21.4005 21.6509 21.4082 22.2008 21.4312C22.4909 21.4987 22.5931 21.6752 22.5073 21.9609C22.4837 22.0454 22.4287 22.0991 22.3422 22.1222C21.6821 22.1529 21.022 22.1529 20.3619 22.1222C20.1851 21.9731 20.1458 21.7965 20.244 21.5924C20.3285 21.4944 20.4306 21.433 20.5505 21.4082Z" fill="url(#paint3_linear_2013_1176)"/>
<path fill-rule="evenodd" clip-rule="evenodd" d="M8.43655 12.6164C8.26219 13.0556 8.41487 13.3153 8.89458 13.3955C8.98735 13.341 9.08909 13.291 9.19993 13.2457L11.6122 10.8784C11.7545 10.701 11.7952 10.5012 11.7344 10.2791C10.9082 9.48826 10.104 8.67918 9.32208 7.85182C8.72034 7.52453 8.42513 7.69432 8.43655 8.36124C8.95903 8.91176 9.48787 9.45708 10.0231 9.99719L6.24638 9.99719C5.89262 9.99719 5.60584 10.2294 5.60584 10.5159C5.60584 10.8023 5.89262 11.0345 6.24638 11.0345L10.0366 11.0345C9.5096 11.567 8.97624 12.0943 8.43655 12.6164Z" fill="url(#paint4_linear_2013_1176)"/>
<path fill-rule="evenodd" clip-rule="evenodd" d="M20.0166 8.46661C20.1909 8.02737 20.0383 7.76769 19.5585 7.6875C19.4658 7.74204 19.364 7.79196 19.2532 7.83733L16.8409 10.2046C16.6986 10.382 16.6579 10.5818 16.7187 10.804C17.545 11.5947 18.3491 12.4038 19.131 13.2312C19.7328 13.5585 20.028 13.3887 20.0166 12.7218C19.4931 12.1702 18.9633 11.6239 18.4271 11.0828H22.6044C22.9863 11.0828 23.2959 10.8506 23.2959 10.5642C23.2959 10.2777 22.9863 10.0455 22.6044 10.0455H18.4194C18.9455 9.514 19.4779 8.98769 20.0166 8.46661Z" fill="url(#paint5_linear_2013_1176)"/>
<defs>
<linearGradient id="paint0_linear_2013_1176" x1="-0.157588" y1="-9.36907e-07" x2="17.6524" y2="4.21595" gradientUnits="userSpaceOnUse">
<stop offset="0.11" stop-color="#60D7AD"/>
<stop offset="0.76" stop-color="#213C3A"/>
</linearGradient>
<linearGradient id="paint1_linear_2013_1176" x1="5.37425" y1="21.0967" x2="6.54108" y2="22.6938" gradientUnits="userSpaceOnUse">
<stop offset="0.11" stop-color="#60D7AD"/>
<stop offset="0.76" stop-color="#213C3A"/>
</linearGradient>
<linearGradient id="paint2_linear_2013_1176" x1="14.608" y1="-9.36907e-07" x2="32.418" y2="4.21595" gradientUnits="userSpaceOnUse">
<stop offset="0.11" stop-color="#60D7AD"/>
<stop offset="0.76" stop-color="#213C3A"/>
</linearGradient>
<linearGradient id="paint3_linear_2013_1176" x1="20.1633" y1="21.4053" x2="21.3301" y2="23.0024" gradientUnits="userSpaceOnUse">
<stop offset="0.11" stop-color="#60D7AD"/>
<stop offset="0.76" stop-color="#213C3A"/>
</linearGradient>
<linearGradient id="paint4_linear_2013_1176" x1="11.8355" y1="13.3955" x2="4.60447" y2="10.0261" gradientUnits="userSpaceOnUse">
<stop offset="0.11" stop-color="#60D7AD"/>
<stop offset="0.76" stop-color="#213C3A"/>
</linearGradient>
<linearGradient id="paint5_linear_2013_1176" x1="16.6123" y1="7.6875" x2="24.1667" y2="11.4642" gradientUnits="userSpaceOnUse">
<stop offset="0.11" stop-color="#60D7AD"/>
<stop offset="0.76" stop-color="#213C3A"/>
</linearGradient>
</defs>
</svg>
