<svg width="17" height="20" viewBox="0 0 17 20" fill="none" xmlns="http://www.w3.org/2000/svg">
<path opacity="0.958" fill-rule="evenodd" clip-rule="evenodd" d="M4.88281 0C4.90887 0 4.93488 0 4.96094 0C5.27328 0.494234 5.60531 0.976004 5.95703 1.44531C7.49285 0.768367 9.0293 0.768367 10.5664 1.44531C10.8858 0.962426 11.2048 0.480656 11.5234 0C11.5625 0 11.6016 0 11.6406 0C11.8593 0.161936 12.0807 0.324696 12.3047 0.488281C12.0075 0.954738 11.695 1.41047 11.3672 1.85547C12.9066 2.94802 13.766 4.43891 13.9453 6.32812C14.9975 5.92145 15.7983 6.20789 16.3477 7.1875C16.3946 7.31539 16.4337 7.44559 16.4648 7.57812C16.4909 9.375 16.4909 11.1719 16.4648 12.9688C16.2381 13.8594 15.6652 14.3411 14.7461 14.4141C14.4551 14.3929 14.1752 14.3279 13.9063 14.2188C13.9879 14.7818 13.8641 15.2896 13.5352 15.7422C13.1348 16.0765 12.6726 16.2067 12.1484 16.1328C12.155 16.9662 12.1484 17.7996 12.1289 18.6328C11.933 19.343 11.4838 19.7987 10.7813 20C10.5339 20 10.2864 20 10.0391 20C9.30207 19.7902 8.85285 19.3085 8.69141 18.5547C8.67188 17.7475 8.66535 16.9402 8.67188 16.1328C8.39844 16.1328 8.125 16.1328 7.85157 16.1328C7.85809 16.9142 7.85157 17.6954 7.83203 18.4766C7.7043 19.2746 7.25508 19.7824 6.48438 20C6.22395 20 5.96356 20 5.70313 20C4.93184 19.7818 4.48262 19.274 4.35547 18.4766C4.33594 17.6954 4.32942 16.9142 4.33594 16.1328C3.65332 16.2307 3.12598 15.9963 2.75391 15.4297C2.70367 15.3162 2.66461 15.199 2.63672 15.0781C2.62371 14.7786 2.61067 14.4792 2.59766 14.1797C1.60627 14.6122 0.811997 14.3778 0.214845 13.4766C0.0853955 13.2184 0.020294 12.945 0.0195322 12.6562C-0.00651074 11.0547 -0.00651074 9.45312 0.0195322 7.85156C0.125177 6.80191 0.704603 6.22898 1.75781 6.13281C2.04473 6.14371 2.31817 6.20879 2.57813 6.32812C2.75949 4.45391 3.60586 2.96954 5.11719 1.875C4.80801 1.42596 4.50852 0.970227 4.21875 0.507812C4.43426 0.328726 4.65559 0.159455 4.88281 0ZM8.24219 1.83594C10.0701 1.9195 11.4568 2.73982 12.4023 4.29688C12.7132 4.87125 12.902 5.4832 12.9688 6.13281C9.83075 6.13281 6.6927 6.13281 3.55469 6.13281C3.78102 4.3184 4.71852 3.02284 6.36719 2.24609C6.97418 2.00109 7.59918 1.86437 8.24219 1.83594ZM1.67969 7.03125C2.16221 7.03883 2.4682 7.2732 2.59766 7.73438C2.62371 9.42707 2.62371 11.1198 2.59766 12.8125C2.35172 13.4545 1.91552 13.6302 1.28906 13.3398C1.13318 13.2231 1.0225 13.0734 0.957032 12.8906C0.930989 11.1458 0.930989 9.40105 0.957032 7.65625C1.09304 7.32484 1.33392 7.11652 1.67969 7.03125ZM3.51563 7.03125C6.67969 7.03125 9.84375 7.03125 13.0078 7.03125C13.0143 9.63543 13.0078 12.2396 12.9883 14.8438C12.9455 15.0297 12.8348 15.1534 12.6563 15.2148C12.1877 15.2344 11.7189 15.2409 11.25 15.2344C11.2565 16.3152 11.25 17.3959 11.2305 18.4766C11.0206 19.0144 10.6365 19.2032 10.0781 19.043C9.81535 18.9232 9.65258 18.7214 9.58985 18.4375C9.57032 17.3699 9.56379 16.3021 9.57032 15.2344C8.69793 15.2344 7.82551 15.2344 6.95313 15.2344C6.95965 16.2761 6.95313 17.3178 6.9336 18.3594C6.79696 18.9252 6.43891 19.1661 5.85938 19.082C5.52481 18.9538 5.32301 18.7129 5.25391 18.3594C5.23438 17.3178 5.22785 16.2761 5.23438 15.2344C4.77848 15.2409 4.32274 15.2344 3.86719 15.2148C3.69547 15.1863 3.58477 15.0887 3.53516 14.9219C3.51563 12.2917 3.5091 9.66148 3.51563 7.03125ZM14.6484 7.03125C15.1312 7.0391 15.4372 7.27348 15.5664 7.73438C15.5925 9.42707 15.5925 11.1198 15.5664 12.8125C15.4015 13.3412 15.0434 13.556 14.4922 13.457C14.2087 13.3428 14.0198 13.141 13.9258 12.8516C13.8997 11.1328 13.8997 9.41406 13.9258 7.69531C14.0514 7.3416 14.2923 7.12023 14.6484 7.03125Z" fill="url(#paint0_linear_1835_3296)"/>
<path opacity="0.888" fill-rule="evenodd" clip-rule="evenodd" d="M5.625 3.98438C5.9375 3.98438 6.25 3.98438 6.5625 3.98438C6.5625 4.28387 6.5625 4.58332 6.5625 4.88281C6.25 4.88281 5.9375 4.88281 5.625 4.88281C5.625 4.58332 5.625 4.28387 5.625 3.98438Z" fill="url(#paint1_linear_1835_3296)"/>
<path opacity="0.927" fill-rule="evenodd" clip-rule="evenodd" d="M9.96094 3.98438C10.2604 3.98438 10.5599 3.98438 10.8594 3.98438C10.8594 4.28387 10.8594 4.58332 10.8594 4.88281C10.5599 4.88281 10.2604 4.88281 9.96094 4.88281C9.96094 4.58332 9.96094 4.28387 9.96094 3.98438Z" fill="url(#paint2_linear_1835_3296)"/>
<defs>
<linearGradient id="paint0_linear_1835_3296" x1="-0.197469" y1="-7.80756e-07" x2="20.72" y2="7.44557" gradientUnits="userSpaceOnUse">
<stop offset="0.11" stop-color="#60D7AD"/>
<stop offset="0.76" stop-color="#213C3A"/>
</linearGradient>
<linearGradient id="paint1_linear_1835_3296" x1="5.61377" y1="3.98437" x2="6.72786" y2="4.48643" gradientUnits="userSpaceOnUse">
<stop offset="0.11" stop-color="#60D7AD"/>
<stop offset="0.76" stop-color="#213C3A"/>
</linearGradient>
<linearGradient id="paint2_linear_1835_3296" x1="9.95017" y1="3.98437" x2="11.0328" y2="4.4519" gradientUnits="userSpaceOnUse">
<stop offset="0.11" stop-color="#60D7AD"/>
<stop offset="0.76" stop-color="#213C3A"/>
</linearGradient>
</defs>
</svg>
