<svg width="24" height="24" viewBox="0 0 24 24" fill="none" xmlns="http://www.w3.org/2000/svg">
<path opacity="0.932" fill-rule="evenodd" clip-rule="evenodd" d="M6.34617 0.00302368C9.87745 -0.0050395 13.4087 0.00302368 16.9399 0.0272142C17.7395 0.223467 18.2473 0.731467 18.4634 1.55121C18.5302 3.0336 18.5537 4.51731 18.5337 6.00226C19.1077 6.01784 19.6781 6.00168 20.2446 5.95388C20.3838 5.67463 20.5166 5.39242 20.643 5.10722C19.893 4.25253 19.893 3.3978 20.643 2.54303C21.2774 2.09948 21.9336 2.06722 22.6118 2.44626C23.1712 2.89999 23.3822 3.48863 23.2446 4.21217C23.055 4.89178 22.6252 5.30301 21.9555 5.44588C21.7344 5.46891 21.5157 5.46891 21.2993 5.44588C21.1043 5.86472 20.8856 6.26788 20.643 6.65541C19.9426 6.72479 19.2395 6.74898 18.5337 6.72798C18.5337 8.21168 18.5337 9.69533 18.5337 11.179C19.0658 11.1951 19.5971 11.179 20.1274 11.1306C20.52 10.0975 21.2388 9.71846 22.2837 9.9937C23.0812 10.3902 23.4015 11.0433 23.2446 11.9531C22.8686 12.9899 22.1577 13.3688 21.1118 13.0901C20.6107 12.8712 20.2826 12.4922 20.1274 11.9531C19.5971 11.9048 19.0658 11.8887 18.5337 11.9047C18.5337 13.3884 18.5337 14.8721 18.5337 16.3558C19.2402 16.334 19.9433 16.3582 20.643 16.4284C20.8796 16.8116 21.0983 17.2068 21.2993 17.6137C22.8505 17.6216 23.4677 18.4119 23.1509 19.9844C22.6912 20.822 22.0116 21.1043 21.1118 20.831C20.2975 20.4162 19.9772 19.7469 20.1509 18.8232C20.2582 18.5034 20.4223 18.2212 20.643 17.9766C20.5166 17.6914 20.3838 17.4091 20.2446 17.1299C19.6781 17.0821 19.1077 17.0659 18.5337 17.0815C18.5543 18.8728 18.5309 20.6629 18.4634 22.4518C18.2473 23.2716 17.7395 23.7796 16.9399 23.9758C13.4087 24.0081 9.87741 24.0081 6.34617 23.9758C5.38978 23.7198 4.86637 23.0827 4.77586 22.0648C4.75242 20.4037 4.74459 18.7427 4.75242 17.0815C4.17834 17.0659 3.60803 17.0821 3.04148 17.1299C2.90229 17.4091 2.76948 17.6914 2.64305 17.9766C3.40683 18.8637 3.3912 19.7346 2.59617 20.5891C1.92471 21.069 1.25283 21.069 0.580546 20.5891C0.0918238 20.124 -0.087864 19.5515 0.0414838 18.8716C0.290151 18.1059 0.805776 17.6866 1.58836 17.6137C1.71936 17.6758 1.85218 17.6758 1.9868 17.6137C2.18776 17.2068 2.40652 16.8116 2.64305 16.4284C3.34281 16.3582 4.04594 16.334 4.75242 16.3558C4.75242 14.8721 4.75242 13.3884 4.75242 11.9047C4.22025 11.8887 3.68901 11.9048 3.15867 11.9531C2.73593 13.0341 1.98593 13.3969 0.908671 13.0417C0.173456 12.6284 -0.115607 11.9914 0.0414838 11.1306C0.417862 10.0937 1.1288 9.71473 2.1743 9.9937C2.67539 10.2126 3.00351 10.5915 3.15867 11.1306C3.68901 11.179 4.22025 11.1951 4.75242 11.179C4.75242 9.69533 4.75242 8.21168 4.75242 6.72798C4.04656 6.74898 3.34344 6.72479 2.64305 6.65541C2.40054 6.26788 2.18179 5.86472 1.9868 5.44588C0.807984 5.5754 0.151734 5.03513 0.0180463 3.82512C0.0443221 2.98328 0.450571 2.44302 1.2368 2.20436C2.51024 2.09968 3.15868 2.70444 3.18211 4.01864C3.15435 4.20136 3.10748 4.37875 3.04148 4.55084C2.92608 4.75046 2.79327 4.9359 2.64305 5.10722C2.76948 5.39242 2.90229 5.67463 3.04148 5.95388C3.60803 6.00168 4.17834 6.01784 4.75242 6.00226C4.73198 4.51716 4.75542 3.03349 4.82273 1.55121C5.04727 0.730794 5.55506 0.214734 6.34617 0.00302368ZM6.43992 0.728738C9.90872 0.720673 13.3775 0.728738 16.8462 0.752929C17.4423 0.95922 17.7626 1.38658 17.8071 2.03502C17.8384 8.67933 17.8384 15.3237 17.8071 21.968C17.7601 22.541 17.4867 22.9522 16.9868 23.2017C13.4738 23.2819 9.95822 23.298 6.43992 23.2501C5.84377 23.0438 5.52347 22.6164 5.47898 21.968C5.44772 15.3237 5.44772 8.67933 5.47898 2.03502C5.52881 1.38248 5.84911 0.947053 6.43992 0.728738ZM1.37742 2.90588C2.2742 2.91974 2.61014 3.3713 2.38523 4.26055C1.89119 4.88142 1.37556 4.89758 0.838359 4.30893C0.578545 3.65286 0.758231 3.18517 1.37742 2.90588ZM21.4399 2.90588C22.2447 2.85755 22.6119 3.2446 22.5415 4.06703C22.2229 4.74649 21.7463 4.89966 21.1118 4.52665C20.6165 3.85439 20.7258 3.31413 21.4399 2.90588ZM1.51805 10.5985C2.07884 10.6531 2.40697 10.9676 2.50242 11.5419C2.3493 12.314 1.9118 12.5881 1.18992 12.3644C0.69036 11.9995 0.588796 11.5399 0.885234 10.9855C1.05849 10.7808 1.26943 10.6518 1.51805 10.5985ZM21.5805 10.5985C22.3066 10.6622 22.6269 11.0653 22.5415 11.808C22.2539 12.4283 21.8085 12.5977 21.2055 12.316C20.643 11.7999 20.643 11.2839 21.2055 10.7678C21.3301 10.6963 21.4552 10.6398 21.5805 10.5985ZM1.33055 18.3878C1.99448 18.3072 2.3851 18.6056 2.50242 19.2828C2.31774 20.1038 1.84899 20.3618 1.09617 20.0569C0.684449 19.674 0.614137 19.2305 0.885234 18.7265C1.01765 18.5825 1.16609 18.4696 1.33055 18.3878ZM21.4399 18.3878C22.3299 18.3628 22.6815 18.7982 22.4946 19.6941C22.167 20.2067 21.7372 20.3277 21.2055 20.0569C20.643 19.5409 20.643 19.0248 21.2055 18.5087C21.2906 18.4721 21.3687 18.4318 21.4399 18.3878Z" fill="url(#paint0_linear_1833_3154)"/>
<path opacity="0.916" fill-rule="evenodd" clip-rule="evenodd" d="M10.6105 20.9522C11.2981 20.9442 11.9857 20.9522 12.673 20.9764C12.9023 21.1407 12.9413 21.3423 12.7902 21.5812C12.755 21.6115 12.7159 21.6357 12.673 21.6538C11.9855 21.686 11.298 21.686 10.6105 21.6538C10.3121 21.421 10.3121 21.1871 10.6105 20.9522Z" fill="url(#paint1_linear_1833_3154)"/>
<path opacity="0.923" fill-rule="evenodd" clip-rule="evenodd" d="M11.3173 8.8428C12.4042 8.75082 13.2605 9.15751 13.8863 10.063C14.6372 11.601 14.3417 12.8758 12.9997 13.8877C11.6 14.5453 10.4254 14.2559 9.47583 13.0195C8.83304 11.7775 8.96185 10.6278 9.86231 9.57021C10.2853 9.18764 10.7703 8.94516 11.3173 8.8428ZM11.4083 9.54675C10.2247 9.87042 9.68662 10.6682 9.79411 11.9402C10.1118 13.0499 10.8318 13.574 11.9539 13.5123C12.9809 13.2813 13.5417 12.6243 13.6362 11.5413C13.4645 10.1987 12.7219 9.53389 11.4083 9.54675Z" fill="url(#paint2_linear_1833_3154)"/>
<path opacity="0.921" fill-rule="evenodd" clip-rule="evenodd" d="M10.9649 6.14754C11.4339 6.13951 11.9026 6.14754 12.3711 6.17173C12.5481 6.2415 12.6809 6.36245 12.7695 6.53459C12.747 7.06185 12.9735 7.40859 13.4492 7.57478C13.5785 7.60303 13.7034 7.58688 13.8242 7.5264C13.9961 7.41353 14.168 7.30061 14.3399 7.18773C14.556 7.13901 14.7592 7.17128 14.9492 7.28449C15.271 7.60047 15.5757 7.93106 15.8633 8.2763C15.8779 8.37578 15.9013 8.47254 15.9336 8.56659C15.9013 8.66064 15.8779 8.7574 15.8633 8.85688C15.7182 9.01131 15.6089 9.18872 15.5352 9.38907C15.4545 9.81134 15.603 10.1097 15.9805 10.2841C16.3051 10.2876 16.5785 10.4086 16.8008 10.647C16.8464 10.7385 16.8777 10.8353 16.8945 10.9373C16.9258 11.3404 16.9258 11.7436 16.8945 12.1468C16.8497 12.419 16.7012 12.6045 16.4492 12.7032C15.7173 12.7321 15.4282 13.1111 15.582 13.8401C15.9301 14.1678 15.9926 14.5386 15.7695 14.9529C15.4961 15.2351 15.2227 15.5173 14.9492 15.7995C14.6004 15.99 14.2879 15.9416 14.0117 15.6544C13.5151 15.3844 13.1323 15.5054 12.8633 16.0173C12.8982 16.4376 12.7341 16.736 12.3711 16.9123C11.9024 16.9446 11.4336 16.9446 10.9649 16.9123C10.7879 16.8425 10.6551 16.7216 10.5664 16.5495C10.589 16.0222 10.3624 15.6754 9.88673 15.5093C9.7575 15.481 9.63253 15.4972 9.51173 15.5576C9.33543 15.6914 9.14793 15.8043 8.94923 15.8963C8.75057 15.9361 8.56307 15.9039 8.38673 15.7995C8.06493 15.4836 7.76025 15.153 7.47267 14.8077C7.45809 14.7083 7.43465 14.6115 7.40236 14.5175C7.43465 14.4234 7.45809 14.3266 7.47267 14.2272C7.61775 14.0727 7.72711 13.8953 7.80079 13.695C7.87542 13.2967 7.74257 12.9983 7.40236 12.7999C7.06162 12.8012 6.77259 12.6802 6.53517 12.4371C6.48956 12.3455 6.45829 12.2488 6.44142 12.1468C6.41015 11.7436 6.41015 11.3404 6.44142 10.9373C6.48628 10.665 6.63473 10.4796 6.88673 10.3809C7.62075 10.3501 7.90982 9.97104 7.75392 9.24392C7.42996 8.94237 7.35182 8.58759 7.51954 8.17954C7.84303 7.8132 8.19459 7.48261 8.57423 7.18773C8.90873 7.1184 9.18998 7.21516 9.41798 7.47802C9.88795 7.67527 10.2395 7.5382 10.4727 7.06678C10.4438 6.64195 10.6079 6.33555 10.9649 6.14754ZM11.1992 6.87326C11.2019 7.15232 11.1316 7.41033 10.9883 7.64735C10.3473 8.42416 9.62076 8.52092 8.80861 7.93764C8.58272 8.14655 8.364 8.36426 8.15236 8.59078C8.33648 8.76921 8.45367 8.98692 8.50392 9.24392C8.61529 10.3218 8.15437 10.9346 7.12111 11.0824C7.12111 11.3888 7.12111 11.6952 7.12111 12.0016C7.63307 12.0198 8.03151 12.2456 8.31642 12.679C8.64173 13.3257 8.58703 13.9304 8.15236 14.4933C8.35546 14.7029 8.55862 14.9126 8.76173 15.1222C8.87779 15.0861 8.98715 15.0215 9.08986 14.9287C9.23784 14.8523 9.39412 14.804 9.55861 14.7835C10.5427 14.727 11.0896 15.2027 11.1992 16.2108C11.5117 16.2108 11.8242 16.2108 12.1367 16.2108C12.1536 15.6841 12.3723 15.2729 12.793 14.9771C13.4098 14.6491 13.9879 14.7056 14.5274 15.1464C14.7532 14.9375 14.972 14.7198 15.1836 14.4933C14.9997 14.3154 14.8825 14.0976 14.832 13.8401C14.7204 12.7629 15.1814 12.1501 16.2149 12.0016C16.2149 11.6952 16.2149 11.3888 16.2149 11.0824C15.4804 11.042 15.0194 10.6549 14.832 9.92126C14.7271 9.41074 14.8443 8.96723 15.1836 8.59078C14.9805 8.38115 14.7773 8.17146 14.5742 7.96183C14.3323 8.11016 14.0666 8.22309 13.7774 8.30049C12.7988 8.34486 12.2519 7.86908 12.1367 6.87326C11.8242 6.87326 11.5117 6.87326 11.1992 6.87326Z" fill="url(#paint3_linear_1833_3154)"/>
<defs>
<linearGradient id="paint0_linear_1833_3154" x1="-0.278939" y1="-9.36907e-07" x2="28.0402" y2="11.8658" gradientUnits="userSpaceOnUse">
<stop offset="0.11" stop-color="#60D7AD"/>
<stop offset="0.76" stop-color="#213C3A"/>
</linearGradient>
<linearGradient id="paint1_linear_1833_3154" x1="10.3568" y1="20.9492" x2="11.4767" y2="22.604" gradientUnits="userSpaceOnUse">
<stop offset="0.11" stop-color="#60D7AD"/>
<stop offset="0.76" stop-color="#213C3A"/>
</linearGradient>
<linearGradient id="paint2_linear_1833_3154" x1="9.01173" y1="8.83008" x2="15.3639" y2="11.4799" gradientUnits="userSpaceOnUse">
<stop offset="0.11" stop-color="#60D7AD"/>
<stop offset="0.76" stop-color="#213C3A"/>
</linearGradient>
<linearGradient id="paint3_linear_1833_3154" x1="6.29219" y1="6.14453" x2="19.0514" y2="11.5057" gradientUnits="userSpaceOnUse">
<stop offset="0.11" stop-color="#60D7AD"/>
<stop offset="0.76" stop-color="#213C3A"/>
</linearGradient>
</defs>
</svg>
