<svg width="14" height="24" viewBox="0 0 14 24" fill="none" xmlns="http://www.w3.org/2000/svg">
<path opacity="0.952" fill-rule="evenodd" clip-rule="evenodd" d="M1.4617 0.0033485C5.07665 -0.00558061 8.6916 0.0033485 12.3065 0.0301305C13.0903 0.2836 13.5697 0.863874 13.7446 1.77096C13.7761 2.64583 13.7761 3.52071 13.7446 4.39559C13.5826 4.68093 13.3704 4.73449 13.1081 4.55628C13.057 4.49388 13.0177 4.42248 12.9902 4.34203C12.9881 3.46358 12.9567 2.5887 12.8959 1.71739C12.758 1.32861 12.5144 1.06972 12.165 0.940717C11.3491 0.847216 10.5319 0.838292 9.71317 0.913935C9.57356 1.45266 9.39278 1.97045 9.17094 2.46729C8.8662 2.86803 8.48111 3.09122 8.01573 3.13684C7.26131 3.17255 6.50689 3.17255 5.75247 3.13684C5.21688 3.08719 4.80039 2.81045 4.50296 2.3066C4.33972 1.84853 4.19039 1.38432 4.05502 0.913935C3.33257 0.851469 2.60955 0.84254 1.88606 0.887153C1.33444 0.942319 0.980806 1.27263 0.825159 1.87809C0.793709 8.62714 0.793709 15.3762 0.825159 22.1252C0.939737 22.5946 1.19907 22.9071 1.60316 23.0626C2.36012 23.1126 3.11454 23.1662 3.86642 23.2233C4.06959 23.5136 4.03814 23.7636 3.77211 23.9732C3.00199 24.0089 2.23182 24.0089 1.4617 23.9732C0.677623 23.7187 0.198236 23.1385 0.0235874 22.2324C-0.00786248 15.4119 -0.00786248 8.59141 0.0235874 1.77096C0.203187 0.860441 0.682527 0.271238 1.4617 0.0033485ZM4.90374 0.860371C6.22436 0.842529 7.54459 0.860382 8.86445 0.913935C8.76968 1.26378 8.6518 1.60302 8.51082 1.93165C8.36408 2.10872 8.18335 2.20691 7.96858 2.22625C7.24561 2.26196 6.52259 2.26196 5.79962 2.22625C5.58485 2.20691 5.40411 2.10872 5.25738 1.93165C5.10673 1.58782 4.98885 1.23073 4.90374 0.860371Z" fill="url(#paint0_linear_1833_3131)"/>
<path opacity="0.952" fill-rule="evenodd" clip-rule="evenodd" d="M13.2442 5.37992C13.4659 5.35216 13.6327 5.44186 13.7446 5.64898C13.7764 11.1737 13.7764 16.6983 13.7446 22.223C13.5679 23.1343 13.0833 23.7173 12.2911 23.9719C9.77935 24.0165 7.26958 24.0075 4.7617 23.945C4.5595 23.665 4.57537 23.4049 4.80936 23.1647C7.1603 23.1468 9.5113 23.1288 11.8622 23.1109C12.4209 23.0539 12.7784 22.7221 12.9345 22.1154C12.9503 16.6445 12.9663 11.1737 12.9821 5.70279C13.0308 5.54943 13.1181 5.44181 13.2442 5.37992Z" fill="url(#paint1_linear_1833_3131)"/>
<path opacity="0.915" fill-rule="evenodd" clip-rule="evenodd" d="M7.82696 8.39586C8.32389 8.36828 8.48892 8.58828 8.32205 9.05598C7.57154 10.2268 6.83282 11.4056 6.10594 12.5923C5.927 12.7481 5.73052 12.7716 5.51655 12.6631C5.36081 12.4841 5.33723 12.2876 5.44582 12.0737C6.11773 11.0286 6.77784 9.97552 7.42617 8.91452C7.53844 8.71951 7.67202 8.54665 7.82696 8.39586Z" fill="url(#paint2_linear_1833_3131)"/>
<path opacity="0.918" fill-rule="evenodd" clip-rule="evenodd" d="M4.05458 8.77379C4.4864 8.72621 4.66717 8.91482 4.59682 9.3396C4.5749 9.40708 4.53557 9.46206 4.47895 9.50463C4.02842 9.84747 3.58831 10.2011 3.15871 10.5655C3.61438 10.9502 4.07802 11.3275 4.54967 11.6972C4.699 12.2394 4.50252 12.4359 3.96028 12.2866C3.36302 11.815 2.7658 11.3435 2.16853 10.872C2.04278 10.6677 2.04278 10.4634 2.16853 10.2591C2.80904 9.77439 3.43775 9.2793 4.05458 8.77379Z" fill="url(#paint3_linear_1833_3131)"/>
<path opacity="0.918" fill-rule="evenodd" clip-rule="evenodd" d="M9.3382 8.77288C9.50219 8.75798 9.65939 8.78156 9.80971 8.84361C10.407 9.31512 11.0042 9.78663 11.6015 10.2581C11.7272 10.4625 11.7272 10.6668 11.6015 10.8711C11.0042 11.3426 10.407 11.8141 9.80971 12.2857C9.26747 12.435 9.07099 12.2385 9.22032 11.6963C9.69197 11.3265 10.1556 10.9493 10.6113 10.5646C10.1556 10.1799 9.69197 9.80271 9.22032 9.433C9.06717 9.17763 9.10645 8.95757 9.3382 8.77288Z" fill="url(#paint4_linear_1833_3131)"/>
<path opacity="0.931" fill-rule="evenodd" clip-rule="evenodd" d="M5.99426 21.0801C6.50914 21.0722 7.02395 21.0801 7.53869 21.1037C7.58159 21.1273 7.60889 21.1823 7.62059 21.2687C7.67044 21.5788 7.61975 21.7753 7.46849 21.8581C7.00827 21.8895 6.54808 21.8895 6.08786 21.8581C5.91984 21.8027 5.86134 21.6062 5.91235 21.2687C5.94455 21.2119 5.97184 21.149 5.99426 21.0801Z" fill="url(#paint5_linear_1833_3131)"/>
<defs>
<linearGradient id="paint0_linear_1833_3131" x1="-0.164931" y1="-9.36907e-07" x2="18.3811" y2="4.59476" gradientUnits="userSpaceOnUse">
<stop offset="0.11" stop-color="#60D7AD"/>
<stop offset="0.76" stop-color="#213C3A"/>
</linearGradient>
<linearGradient id="paint1_linear_1833_3131" x1="4.51152" y1="5.375" x2="17.0264" y2="8.02948" gradientUnits="userSpaceOnUse">
<stop offset="0.11" stop-color="#60D7AD"/>
<stop offset="0.76" stop-color="#213C3A"/>
</linearGradient>
<linearGradient id="paint2_linear_1833_3131" x1="5.3429" y1="8.39355" x2="9.28716" y2="9.57436" gradientUnits="userSpaceOnUse">
<stop offset="0.11" stop-color="#60D7AD"/>
<stop offset="0.76" stop-color="#213C3A"/>
</linearGradient>
<linearGradient id="paint3_linear_1833_3131" x1="2.04382" y1="8.7666" x2="5.35889" y2="9.78463" gradientUnits="userSpaceOnUse">
<stop offset="0.11" stop-color="#60D7AD"/>
<stop offset="0.76" stop-color="#213C3A"/>
</linearGradient>
<linearGradient id="paint4_linear_1833_3131" x1="9.09816" y1="8.76855" x2="12.4445" y2="9.80897" gradientUnits="userSpaceOnUse">
<stop offset="0.11" stop-color="#60D7AD"/>
<stop offset="0.76" stop-color="#213C3A"/>
</linearGradient>
<linearGradient id="paint5_linear_1833_3131" x1="5.87363" y1="21.0771" x2="7.20249" y2="22.3216" gradientUnits="userSpaceOnUse">
<stop offset="0.11" stop-color="#60D7AD"/>
<stop offset="0.76" stop-color="#213C3A"/>
</linearGradient>
</defs>
</svg>
