<svg width="25" height="24" viewBox="0 0 25 24" fill="none" xmlns="http://www.w3.org/2000/svg">
<path fill-rule="evenodd" clip-rule="evenodd" d="M13.9331 7.99157C12.6149 9.02392 14.107 8.69111 13.933 8.8385L10.3293 11.8146L8.94899 9.40185C8.83577 9.20394 8.90442 8.95172 9.10233 8.8385C9.30023 8.72528 9.55245 8.79393 9.66567 8.99183L10.553 10.5428L13.933 7.68506C14.107 7.53766 13.7857 7.81761 13.9331 7.99157Z" fill="url(#paint0_linear_1833_3209)"/>
<path opacity="0.994" fill-rule="evenodd" clip-rule="evenodd" d="M0.879175 0.00323299C8.56766 -0.00538809 16.2561 0.00323299 23.9446 0.0290911C24.3669 0.175618 24.6514 0.460057 24.7979 0.882407C24.8324 1.48576 24.8324 2.08912 24.7979 2.69247C24.772 2.78728 24.7117 2.84762 24.6169 2.87348C24.4233 2.9215 24.2422 2.89564 24.0739 2.7959C24.0075 2.28386 23.973 1.7667 23.9704 1.24442C23.9446 1.0117 23.8153 0.882407 23.5826 0.856549C16.1354 0.82207 8.68831 0.82207 1.24119 0.856549C1.00847 0.882407 0.879175 1.0117 0.853317 1.24442C0.83608 5.7265 0.818838 10.2085 0.801601 14.6906C0.722548 14.8466 0.593258 14.9155 0.41373 14.8975C0.234203 14.9155 0.104913 14.8466 0.0258594 14.6906C-0.00861978 10.0879 -0.00861978 5.48514 0.0258594 0.882407C0.181996 0.459142 0.466434 0.166087 0.879175 0.00323299Z" fill="url(#paint1_linear_1833_3209)"/>
<path opacity="0.984" fill-rule="evenodd" clip-rule="evenodd" d="M16.7565 4.96711C18.2736 4.95847 19.7907 4.96711 21.3076 4.99296C21.4635 5.07204 21.5325 5.20133 21.5144 5.38084C21.5325 5.56034 21.4635 5.68963 21.3076 5.76871C19.7906 5.8032 18.2735 5.8032 16.7565 5.76871C16.6006 5.68963 16.5316 5.56034 16.5497 5.38084C16.5384 5.19642 16.6074 5.05854 16.7565 4.96711Z" fill="url(#paint2_linear_1833_3209)"/>
<path opacity="0.989" fill-rule="evenodd" clip-rule="evenodd" d="M0.206866 15.7249C4.20629 15.7163 8.20564 15.7249 12.205 15.7508C12.2524 15.7701 12.2955 15.796 12.3343 15.8284C12.411 15.9939 12.4283 16.1664 12.386 16.3455C12.3602 16.4403 12.2998 16.5007 12.205 16.5265C8.41251 16.5524 4.62001 16.561 0.827459 16.5524C0.818843 17.2421 0.827464 17.9317 0.853317 18.621C0.874299 18.7759 0.951873 18.8879 1.08604 18.9572C4.78943 19.0256 8.49572 19.0601 12.205 19.0606C12.2998 19.0865 12.3602 19.1468 12.386 19.2416C12.4341 19.4352 12.4082 19.6162 12.3084 19.7846C11.7967 19.8596 11.2795 19.8854 10.757 19.8622C10.7656 20.7071 10.757 21.5518 10.7311 22.3963C10.6819 22.6757 10.5698 22.9256 10.3949 23.1462C11.1362 23.1634 11.8775 23.1807 12.6187 23.1979C12.7135 23.2238 12.7739 23.2841 12.7997 23.3789C12.8342 23.5168 12.8342 23.6547 12.7997 23.7926C12.7739 23.8874 12.7135 23.9478 12.6187 23.9736C10.9638 24.0081 9.3089 24.0081 7.65399 23.9736C7.49801 23.8946 7.42907 23.7653 7.44712 23.5858C7.42907 23.4063 7.49801 23.277 7.65399 23.1979C8.10443 23.1875 8.55261 23.153 8.99861 23.0945C9.55218 22.9029 9.85384 22.515 9.90364 21.9309C9.9295 21.2415 9.93813 20.5519 9.9295 19.8622C6.85797 19.8874 3.78948 19.8616 0.724027 19.7846C0.380182 19.6132 0.147459 19.346 0.0258594 18.983C-0.00861978 17.9659 -0.00861978 16.9489 0.0258594 15.9318C0.061528 15.8361 0.121865 15.7671 0.206866 15.7249Z" fill="url(#paint3_linear_1833_3209)"/>
<path opacity="0.949" fill-rule="evenodd" clip-rule="evenodd" d="M18.4089 21.5188C18.823 21.5103 19.2367 21.5188 19.6501 21.5447C19.7449 21.5706 19.8052 21.6309 19.8311 21.7257C19.8656 21.8636 19.8656 22.0015 19.8311 22.1394C19.8052 22.2342 19.7449 22.2946 19.6501 22.3204C19.2363 22.3549 18.8226 22.3549 18.4089 22.3204C18.2529 22.2414 18.184 22.1121 18.202 21.9326C18.1908 21.7482 18.2597 21.6103 18.4089 21.5188Z" fill="url(#paint4_linear_1833_3209)"/>
<path opacity="0.986" fill-rule="evenodd" clip-rule="evenodd" d="M14.8454 3.3128C17.6381 3.30418 20.4308 3.3128 23.2234 3.33866C24.0595 3.55416 24.5853 4.07991 24.8008 4.916C24.8352 10.7427 24.8352 16.5694 24.8008 22.3961C24.5853 23.2321 24.0595 23.7579 23.2234 23.9734C20.4307 24.0079 17.6381 24.0079 14.8454 23.9734C14.0093 23.7579 13.4836 23.2321 13.2681 22.3961C13.2336 16.5694 13.2336 10.7427 13.2681 4.916C13.493 4.07918 14.0188 3.54476 14.8454 3.3128ZM15.3108 4.14026C17.7933 4.13162 20.2756 4.14026 22.758 4.16612C23.4734 4.26091 23.8785 4.66606 23.9733 5.38145C24.0078 10.8979 24.0078 16.4142 23.9733 21.9306C23.8785 22.646 23.4734 23.0511 22.758 23.1459C20.2756 23.1804 17.7932 23.1804 15.3108 23.1459C14.5955 23.0511 14.1903 22.646 14.0955 21.9306C14.061 16.4142 14.061 10.8979 14.0955 5.38145C14.2004 4.66461 14.6055 4.25088 15.3108 4.14026Z" fill="url(#paint5_linear_1833_3209)"/>
<path fill-rule="evenodd" clip-rule="evenodd" d="M22.2531 11.4332C22.4005 11.6071 22.379 11.8676 22.205 12.015L17.3313 16.1445L15.9509 13.7318C15.8377 13.5339 15.9064 13.2817 16.1043 13.1685C16.3022 13.0552 16.5544 13.1239 16.6676 13.3218L17.555 14.8728L21.6713 11.3851C21.8452 11.2377 22.1057 11.2592 22.2531 11.4332Z" fill="url(#paint6_linear_1833_3209)"/>
<defs>
<linearGradient id="paint0_linear_1833_3209" x1="8.7391" y1="8.92296" x2="14.5399" y2="11.0961" gradientUnits="userSpaceOnUse">
<stop offset="0.11" stop-color="#60D7AD"/>
<stop offset="0.76" stop-color="#213C3A"/>
</linearGradient>
<linearGradient id="paint1_linear_1833_3209" x1="-0.297368" y1="-5.81674e-07" x2="23.0877" y2="16.8251" gradientUnits="userSpaceOnUse">
<stop offset="0.11" stop-color="#60D7AD"/>
<stop offset="0.76" stop-color="#213C3A"/>
</linearGradient>
<linearGradient id="paint2_linear_1833_3209" x1="16.4873" y1="4.96387" x2="17.413" y2="7.35573" gradientUnits="userSpaceOnUse">
<stop offset="0.11" stop-color="#60D7AD"/>
<stop offset="0.76" stop-color="#213C3A"/>
</linearGradient>
<linearGradient id="paint3_linear_1833_3209" x1="-0.15364" y1="15.7217" x2="12.5122" y2="24.1967" gradientUnits="userSpaceOnUse">
<stop offset="0.11" stop-color="#60D7AD"/>
<stop offset="0.76" stop-color="#213C3A"/>
</linearGradient>
<linearGradient id="paint4_linear_1833_3209" x1="18.1794" y1="21.5156" x2="19.5393" y2="22.6877" gradientUnits="userSpaceOnUse">
<stop offset="0.11" stop-color="#60D7AD"/>
<stop offset="0.76" stop-color="#213C3A"/>
</linearGradient>
<linearGradient id="paint5_linear_1833_3209" x1="13.1034" y1="3.30957" x2="28.7508" y2="7.09319" gradientUnits="userSpaceOnUse">
<stop offset="0.11" stop-color="#60D7AD"/>
<stop offset="0.76" stop-color="#213C3A"/>
</linearGradient>
<linearGradient id="paint6_linear_1833_3209" x1="15.6487" y1="12.9762" x2="22.3821" y2="16.0576" gradientUnits="userSpaceOnUse">
<stop offset="0.11" stop-color="#60D7AD"/>
<stop offset="0.76" stop-color="#213C3A"/>
</linearGradient>
</defs>
</svg>
