<svg width="40" height="40" viewBox="0 0 40 40" fill="none" xmlns="http://www.w3.org/2000/svg">
<rect y="-0.00732422" width="40" height="40" rx="20" fill="#D7E0E5" fill-opacity="0.2"/>
<g clip-path="url(#clip0_990_1468)">
<path d="M29.543 14.4907C30 16.2727 30 19.9927 30 19.9927C30 19.9927 30 23.7127 29.543 25.4947C29.289 26.4797 28.546 27.2547 27.605 27.5167C25.896 27.9927 20 27.9927 20 27.9927C20 27.9927 14.107 27.9927 12.395 27.5167C11.45 27.2507 10.708 26.4767 10.457 25.4947C10 23.7127 10 19.9927 10 19.9927C10 19.9927 10 16.2727 10.457 14.4907C10.711 13.5057 11.454 12.7307 12.395 12.4687C14.107 11.9927 20 11.9927 20 11.9927C20 11.9927 25.896 11.9927 27.605 12.4687C28.55 12.7347 29.292 13.5087 29.543 14.4907ZM18 23.4927L24 19.9927L18 16.4927V23.4927Z" fill="white"/>
</g>
<defs>
<clipPath id="clip0_990_1468">
<rect width="24" height="24" fill="white" transform="translate(8 7.99268)"/>
</clipPath>
</defs>
</svg>
