<svg width="14" height="24" viewBox="0 0 14 24" fill="none" xmlns="http://www.w3.org/2000/svg">
<path opacity="0.934" fill-rule="evenodd" clip-rule="evenodd" d="M3.73727 6.50888C4.55395 6.47648 5.13171 6.82863 5.47055 7.56529C5.5907 7.9084 5.61118 8.25645 5.53201 8.60942C6.01177 9.09293 6.49527 9.572 6.98256 10.0466C7.76076 9.28127 8.53521 8.51149 9.30589 7.73727C9.35206 7.57708 9.40942 7.4215 9.47799 7.27048C9.81943 6.99955 10.1759 6.74977 10.5475 6.52117C10.6563 6.50173 10.7628 6.50994 10.8671 6.54574C11.052 6.70601 11.2282 6.87389 11.3957 7.04937C11.4675 7.19248 11.4757 7.33988 11.4202 7.49159C11.2011 7.79028 10.9881 8.0933 10.781 8.40059C10.735 8.45486 10.6817 8.49989 10.6212 8.53571C10.4901 8.57667 10.359 8.6176 10.2278 8.65855C9.45306 9.42867 8.68272 10.2026 7.91681 10.9802C8.38769 11.463 8.86301 11.9421 9.34277 12.4174C10.2029 12.2679 10.8545 12.5667 11.2973 13.3141C11.4625 13.6474 11.4952 13.9914 11.3957 14.346C11.2224 14.5505 11.0135 14.5955 10.7687 14.4811C10.5556 14.2682 10.3426 14.0553 10.1295 13.8423C10.0312 13.7604 9.93282 13.7604 9.83448 13.8423C9.71482 13.9537 9.60419 14.0724 9.50258 14.1986C9.48401 14.2674 9.4922 14.3329 9.52716 14.3951C9.77466 14.626 10.0041 14.8717 10.2156 15.1321C10.3099 15.4226 10.2157 15.6232 9.93282 15.734C8.99503 15.7712 8.39269 15.3413 8.12579 14.4442C8.07853 14.1721 8.07853 13.9018 8.12579 13.6335C7.76519 13.2732 7.40462 12.9129 7.04402 12.5525C6.94642 12.6747 6.82759 12.7689 6.68753 12.8351C6.52905 12.8601 6.37743 12.8397 6.2327 12.7736C6.04843 12.8184 5.97467 12.933 6.01143 13.1176C6.08887 13.2966 6.07247 13.4686 5.96226 13.6335C5.30931 14.3024 4.64142 14.9534 3.95854 15.5866C3.40398 15.8632 2.90818 15.7854 2.47111 15.3532C2.14668 14.881 2.13029 14.3978 2.42194 13.9037C3.04818 13.2534 3.6833 12.6105 4.32732 11.9752C4.52064 11.8657 4.71732 11.8616 4.91737 11.9629C5.15553 11.8797 5.217 11.7241 5.10176 11.4961C5.07637 11.3636 5.10095 11.2408 5.17552 11.1276C5.24967 11.0576 5.31935 10.9839 5.3845 10.9065C5.03654 10.5465 4.68415 10.1903 4.32732 9.8378C3.37308 10.0019 2.69698 9.64566 2.29901 8.76911C2.20019 8.48338 2.192 8.19675 2.27443 7.90924C2.46182 7.69697 2.679 7.66012 2.92594 7.79868C3.14795 8.02874 3.37741 8.24984 3.61434 8.46201C3.68325 8.48056 3.74882 8.47238 3.81102 8.43744C3.92166 8.32689 4.03229 8.21633 4.14293 8.10578C4.19652 8.00962 4.18831 7.91953 4.11834 7.83554C3.93729 7.64641 3.74882 7.46626 3.55287 7.29505C3.3245 6.96287 3.38596 6.70083 3.73727 6.50888ZM3.90936 6.97567C4.07991 7.1584 4.25609 7.33856 4.43795 7.51616C4.64243 7.76486 4.6752 8.0351 4.5363 8.32689C4.40186 8.48582 4.25845 8.63733 4.10605 8.78139C3.82742 8.96154 3.54877 8.96154 3.27014 8.78139C3.06935 8.58075 2.86858 8.38013 2.66779 8.17948C2.66072 8.46946 2.74267 8.73152 2.91365 8.96565C3.31963 9.40696 3.81134 9.538 4.38878 9.35873C4.43714 9.35976 4.48223 9.37205 4.524 9.39558C5.8721 10.7427 7.22023 12.0898 8.56833 13.437C8.59254 13.4828 8.60483 13.5319 8.6052 13.5844C8.5399 13.8095 8.5194 14.0388 8.54374 14.2723C8.69713 14.9172 9.10279 15.257 9.76072 15.2918C9.57709 15.0837 9.38452 14.8831 9.18296 14.6899C9.06077 14.5199 9.01979 14.3316 9.06004 14.1249C9.18014 13.8491 9.36453 13.6238 9.61321 13.4492C9.8941 13.2914 10.1645 13.3078 10.4245 13.4984C10.6097 13.6916 10.8023 13.8759 11.0023 14.0511C10.9386 13.2996 10.5288 12.8901 9.77302 12.8228C9.57193 12.8499 9.37114 12.8704 9.17067 12.8842C7.80617 11.5207 6.44168 10.1572 5.07718 8.79367C5.06159 8.65919 5.07796 8.52817 5.12635 8.40059C5.14275 8.26137 5.14275 8.12217 5.12635 7.98294C4.96438 7.3406 4.55872 7.00483 3.90936 6.97567ZM10.6458 6.97567C10.3764 7.17081 10.106 7.36735 9.83448 7.56529C9.7934 7.71712 9.74012 7.86453 9.67467 8.00751C8.88383 8.79778 8.09301 9.58802 7.30217 10.3783C7.39641 10.4725 7.49067 10.5666 7.5849 10.6608C8.37575 9.87055 9.16656 9.0803 9.95741 8.29004C10.1194 8.23029 10.2792 8.16887 10.4368 8.10578C10.6216 7.83937 10.806 7.57323 10.99 7.30733C10.8945 7.17504 10.7798 7.06448 10.6458 6.97567ZM5.70411 11.2259C5.65179 11.2905 5.59443 11.3519 5.53201 11.4101C5.64181 11.661 5.62133 11.9026 5.47055 12.1349C5.22248 12.3891 4.93153 12.4587 4.59776 12.3437C4.0036 12.9374 3.40947 13.5311 2.81531 14.1249C2.6139 14.4225 2.6057 14.7255 2.79072 15.0339C3.10001 15.3485 3.4401 15.3854 3.81102 15.1444C4.41406 14.55 5.00822 13.9481 5.59347 13.3387C5.54711 13.1522 5.54711 12.9639 5.59347 12.7736C5.8039 12.3828 6.11941 12.2599 6.54002 12.4051C6.61975 12.3548 6.67303 12.2893 6.69982 12.2086C6.37116 11.8761 6.03926 11.5485 5.70411 11.2259Z" fill="url(#paint0_linear_1833_3208)"/>
<path opacity="0.952" fill-rule="evenodd" clip-rule="evenodd" d="M2.02751 0.00304207C5.04524 -0.00507016 8.06291 0.00304207 11.0805 0.0273797C12.2549 0.168869 12.9386 0.84221 13.1316 2.04741C13.1631 8.68346 13.1631 15.3196 13.1316 21.9556C12.9999 23.0813 12.3948 23.7547 11.3163 23.9757C8.14147 24.0081 4.96659 24.0081 1.79176 23.9757C0.825158 23.7566 0.235768 23.1482 0.0235874 22.1503C-0.00786246 15.4007 -0.00786246 8.65104 0.0235874 1.90138C0.251988 0.764811 0.919932 0.132032 2.02751 0.00304207ZM2.02751 0.781848C5.06094 0.773733 8.09436 0.781848 11.1277 0.806185C11.7891 0.929276 12.1977 1.32679 12.3536 1.99873C8.48718 2.00685 4.62078 1.99873 0.754431 1.97439C0.946148 1.30824 1.37051 0.910725 2.02751 0.781848ZM0.754431 2.77754C4.63653 2.77754 8.51868 2.77754 12.4008 2.77754C12.4008 8.26164 12.4008 13.7457 12.4008 19.2298C8.51868 19.2298 4.63653 19.2298 0.754431 19.2298C0.754431 13.7457 0.754431 8.26164 0.754431 2.77754ZM0.754431 20.0086C4.63653 20.0086 8.51868 20.0086 12.4008 20.0086C12.4202 20.725 12.3967 21.4389 12.33 22.1503C12.176 22.715 11.8223 23.0639 11.2691 23.1968C8.14147 23.2293 5.01374 23.2293 1.88606 23.1968C1.29667 23.0427 0.927334 22.6614 0.778007 22.053C0.754431 21.3717 0.746557 20.6903 0.754431 20.0086Z" fill="url(#paint1_linear_1833_3208)"/>
<path opacity="0.974" fill-rule="evenodd" clip-rule="evenodd" d="M5.7536 21.1005C6.3039 21.0928 6.85402 21.1005 7.40389 21.1236C7.69402 21.1911 7.79619 21.3676 7.71038 21.6533C7.6868 21.7378 7.63178 21.7915 7.54535 21.8146C6.88523 21.8453 6.22511 21.8453 5.56499 21.8146C5.38822 21.6654 5.34895 21.4889 5.44712 21.2848C5.53161 21.1868 5.63374 21.1254 5.7536 21.1005Z" fill="url(#paint2_linear_1833_3208)"/>
<defs>
<linearGradient id="paint0_linear_1833_3208" x1="2.10414" y1="6.50684" x2="13.24" y2="11.316" gradientUnits="userSpaceOnUse">
<stop offset="0.11" stop-color="#60D7AD"/>
<stop offset="0.76" stop-color="#213C3A"/>
</linearGradient>
<linearGradient id="paint1_linear_1833_3208" x1="-0.157588" y1="-9.36907e-07" x2="17.6524" y2="4.21596" gradientUnits="userSpaceOnUse">
<stop offset="0.11" stop-color="#60D7AD"/>
<stop offset="0.76" stop-color="#213C3A"/>
</linearGradient>
<linearGradient id="paint2_linear_1833_3208" x1="5.36644" y1="21.0977" x2="6.53327" y2="22.6948" gradientUnits="userSpaceOnUse">
<stop offset="0.11" stop-color="#60D7AD"/>
<stop offset="0.76" stop-color="#213C3A"/>
</linearGradient>
</defs>
</svg>
