<svg width="30" height="24" viewBox="0 0 30 24" fill="none" xmlns="http://www.w3.org/2000/svg">
<path opacity="0.933" fill-rule="evenodd" clip-rule="evenodd" d="M7.51771 2.41113C7.68996 2.41113 7.86221 2.41113 8.03446 2.41113C8.18093 2.53043 8.28617 2.68354 8.35025 2.87046C8.8287 4.15276 9.3072 5.43506 9.78565 6.71735C9.79559 7.21587 9.55633 7.38812 9.06795 7.2341C8.90156 6.96567 8.76755 6.67859 8.66604 6.37285C8.07367 6.30593 7.48033 6.29636 6.88613 6.34415C6.77779 6.55421 6.69166 6.7743 6.62776 7.00443C6.48795 7.27566 6.26784 7.36178 5.96747 7.26281C5.75437 7.11852 5.68738 6.91756 5.76652 6.65994C6.25284 5.3349 6.75046 4.01433 7.25934 2.69821C7.31819 2.57265 7.40431 2.47695 7.51771 2.41113ZM7.74738 4.01879C7.96366 4.45667 8.13591 4.916 8.26412 5.39678C7.91911 5.40632 7.57461 5.39675 7.23063 5.36807C7.41109 4.92113 7.58334 4.47137 7.74738 4.01879Z" fill="url(#paint0_linear_1833_3181)"/>
<path opacity="0.939" fill-rule="evenodd" clip-rule="evenodd" d="M21.1828 2.41113C21.7953 2.41113 22.4077 2.41113 23.0201 2.41113C23.9399 2.87356 24.1887 3.58169 23.7665 4.53553C24.3987 5.16297 24.504 5.87111 24.0823 6.65994C23.581 7.23536 22.9494 7.44588 22.1876 7.29152C21.8527 7.28194 21.5177 7.27238 21.1828 7.26281C21.0687 7.18708 21.0017 7.08181 20.9818 6.94702C20.9436 5.54989 20.9436 4.15276 20.9818 2.75563C21.0142 2.61859 21.0812 2.50376 21.1828 2.41113ZM21.8718 3.27238C22.2443 3.23698 22.5983 3.2944 22.934 3.44463C23.1471 3.80043 23.061 4.0588 22.6756 4.21975C22.4084 4.24841 22.1405 4.25797 21.8718 4.24845C21.8718 3.92309 21.8718 3.59774 21.8718 3.27238ZM21.8718 5.16711C22.2551 5.15757 22.6378 5.16714 23.0201 5.19582C23.556 5.5786 23.556 5.96137 23.0201 6.34415C22.6378 6.37283 22.2551 6.3824 21.8718 6.37285C21.8718 5.97094 21.8718 5.56903 21.8718 5.16711Z" fill="url(#paint1_linear_1833_3181)"/>
<path opacity="0.952" fill-rule="evenodd" clip-rule="evenodd" d="M13.2606 24C9.60508 24 5.94959 24 2.29409 24C1.51705 23.7682 1.04815 23.2515 0.887392 22.4498C0.830507 15.3856 0.849646 8.32335 0.944808 1.26316C1.17499 0.611944 1.62475 0.200453 2.29409 0.0287096C5.94959 -0.00956985 9.60508 -0.00956985 13.2606 0.0287096C13.9783 0.21053 14.428 0.660288 14.6099 1.37799C14.6482 8.45931 14.6482 15.5407 14.6099 22.622C14.53 22.9501 14.3768 23.2372 14.1505 23.4833C13.8864 23.7202 13.5898 23.8924 13.2606 24ZM2.75342 0.861245C6.10276 0.851657 9.45206 0.861245 12.8013 0.889953C13.2296 0.935887 13.5263 1.15596 13.6912 1.55024C13.7199 7.44494 13.7295 13.3397 13.7199 19.2344C9.73909 19.2344 5.7582 19.2344 1.77734 19.2344C1.76777 13.3779 1.77734 7.52147 1.80605 1.66507C1.94209 1.17428 2.25788 0.906317 2.75342 0.861245ZM1.77734 20.1531C5.7582 20.1531 9.73909 20.1531 13.7199 20.1531C13.7295 20.9189 13.7199 21.6845 13.6912 22.4498C13.5248 22.8459 13.2281 23.0661 12.8013 23.11C11.1266 23.1196 9.452 23.1292 7.77734 23.1388C5.98599 23.147 4.19652 23.1183 2.40892 23.0526C2.08369 22.9187 1.88274 22.6795 1.80605 22.3349C1.77735 21.6079 1.76778 20.8806 1.77734 20.1531Z" fill="url(#paint2_linear_1833_3181)"/>
<path opacity="0.952" fill-rule="evenodd" clip-rule="evenodd" d="M28.1336 24C24.4781 24 20.8226 24 17.1671 24C16.6673 23.8356 16.275 23.5294 15.99 23.0813C15.9213 22.9327 15.8639 22.7796 15.8178 22.622C15.7795 15.5407 15.7795 8.45931 15.8178 1.37799C15.9996 0.660288 16.4494 0.21053 17.1671 0.0287096C20.8226 -0.00956985 24.4781 -0.00956985 28.1336 0.0287096C28.9214 0.24231 29.3903 0.749456 29.5403 1.55024C29.5786 6.33491 29.5786 11.1196 29.5403 15.9043C29.2762 16.3246 28.9891 16.3438 28.679 15.9617C28.6599 11.1962 28.6407 6.43062 28.6216 1.66507C28.495 1.1748 28.1792 0.916422 27.6742 0.889953C24.325 0.851657 20.9757 0.851657 17.6264 0.889953C17.1981 0.935887 16.9014 1.15596 16.7364 1.55024C16.7077 7.44494 16.6981 13.3397 16.7077 19.2344C20.6886 19.2344 24.6695 19.2344 28.6503 19.2344C28.6245 18.6543 28.6532 18.0801 28.7364 17.512C29.0488 17.2578 29.3168 17.2961 29.5403 17.6268C29.5786 19.2344 29.5786 20.8421 29.5403 22.4498C29.3795 23.2515 28.9106 23.7682 28.1336 24ZM16.7077 20.1531C20.6886 20.1531 24.6695 20.1531 28.6503 20.1531C28.6599 20.8806 28.6503 21.6079 28.6216 22.3349C28.5449 22.6795 28.3439 22.9187 28.0187 23.0526C26.2311 23.1183 24.4417 23.147 22.6503 23.1388C20.9757 23.1292 19.3011 23.1196 17.6264 23.11C17.1981 23.0641 16.9014 22.844 16.7364 22.4498C16.7077 21.6845 16.6981 20.9189 16.7077 20.1531Z" fill="url(#paint3_linear_1833_3181)"/>
<path opacity="0.924" fill-rule="evenodd" clip-rule="evenodd" d="M7.4515 10.048C9.28559 10.0336 10.3771 10.9235 10.7259 12.7176C10.7886 14.1513 10.1724 15.1672 8.87711 15.7654C7.7769 16.1409 6.76708 15.9778 5.8477 15.276C4.8872 14.3683 4.59763 13.2782 4.97897 12.0057C5.15342 11.8069 5.3539 11.7772 5.5804 11.9167C5.63561 11.9973 5.66531 12.0863 5.6695 12.1837C5.34796 13.2743 5.63011 14.1715 6.51595 14.8755C7.66918 15.5024 8.68639 15.3318 9.56764 14.3639C10.2816 13.206 10.1405 12.1604 9.14441 11.2271C8.23768 10.6065 7.3318 10.6065 6.42685 11.2271C6.04077 11.3011 5.86999 11.1454 5.91452 10.7599C5.93525 10.6962 5.97238 10.6444 6.0259 10.6042C6.46189 10.3084 6.93708 10.1231 7.4515 10.048Z" fill="url(#paint4_linear_1833_3181)"/>
<path opacity="0.912" fill-rule="evenodd" clip-rule="evenodd" d="M6.95384 11.955C7.07978 11.9437 7.19884 11.9661 7.31112 12.022C7.46743 12.1783 7.62374 12.3346 7.78005 12.4909C7.92148 12.2899 8.09267 12.1187 8.29364 11.9773C8.68293 11.9349 8.83924 12.1061 8.76256 12.4909C8.62189 12.6748 8.46558 12.846 8.29364 13.0045C8.43347 13.1891 8.58977 13.3602 8.76256 13.5181C8.81919 13.9678 8.63314 14.1241 8.20432 13.987C8.06221 13.8374 7.91336 13.696 7.75772 13.5627C7.58721 13.7109 7.42344 13.8672 7.26646 14.0317C6.77944 14.0744 6.63805 13.8734 6.84219 13.4288C6.98363 13.2873 7.12502 13.1459 7.26646 13.0045C7.06058 12.8287 6.8894 12.6278 6.75287 12.4016C6.73483 12.2144 6.80182 12.0655 6.95384 11.955Z" fill="url(#paint5_linear_1833_3181)"/>
<path opacity="0.898" fill-rule="evenodd" clip-rule="evenodd" d="M7.17319 21.1862C7.57557 21.1767 7.97748 21.1862 8.37893 21.2149C8.59206 21.3643 8.65901 21.5653 8.57989 21.8178C8.53206 21.9422 8.44594 22.0283 8.32152 22.0761C7.9579 22.1144 7.59423 22.1144 7.23061 22.0761C6.79212 21.8034 6.77294 21.5067 7.17319 21.1862Z" fill="url(#paint6_linear_1833_3181)"/>
<path opacity="0.898" fill-rule="evenodd" clip-rule="evenodd" d="M22.0441 21.1862C22.4465 21.1767 22.8484 21.1862 23.2498 21.2149C23.6415 21.5246 23.6223 21.8117 23.1924 22.0761C22.8288 22.1144 22.4651 22.1144 22.1015 22.0761C21.8392 21.9302 21.753 21.7101 21.8431 21.4159C21.9221 21.3467 21.9891 21.2701 22.0441 21.1862Z" fill="url(#paint7_linear_1833_3181)"/>
<path opacity="0.911" fill-rule="evenodd" clip-rule="evenodd" d="M24.173 11.9541C24.5456 11.8979 24.6889 12.0443 24.6029 12.3934C24.2772 12.842 23.3115 13.5802 22.9767 14.0223C22.8924 14.0644 22.8052 14.0766 22.715 14.0589C22.4217 13.796 22.1538 13.5093 21.9113 13.1987C21.7966 12.8472 21.9274 12.6947 22.3038 12.7411C22.4596 12.918 22.6153 13.095 22.7711 13.2719C23.036 12.9357 23.927 12.3011 24.173 11.9541Z" fill="url(#paint8_linear_1833_3181)"/>
<path opacity="0.925" fill-rule="evenodd" clip-rule="evenodd" d="M22.9401 10.0519C24.4437 9.99001 25.4908 10.6418 26.0812 12.0073C26.499 13.5203 26.0609 14.7128 24.7668 15.5848C23.4384 16.2218 22.228 16.0514 21.1356 15.0737C20.1287 13.8394 20.0545 12.5506 20.9128 11.2073C21.444 10.5612 22.1198 10.176 22.9401 10.0519ZM23.0292 10.7629C22.7418 10.8264 22.4595 10.9227 22.1826 11.0518C21.0649 11.8301 20.7753 12.8448 21.3138 14.096C22.126 15.2558 23.173 15.5299 24.455 14.9181C25.2418 14.3778 25.5909 13.6297 25.502 12.6739C25.1797 11.3975 24.3554 10.7605 23.0292 10.7629Z" fill="url(#paint9_linear_1833_3181)"/>
<defs>
<linearGradient id="paint0_linear_1833_3181" x1="5.68584" y1="2.41113" x2="10.8212" y2="4.24815" gradientUnits="userSpaceOnUse">
<stop offset="0.11" stop-color="#60D7AD"/>
<stop offset="0.76" stop-color="#213C3A"/>
</linearGradient>
<linearGradient id="paint1_linear_1833_3181" x1="20.9126" y1="2.41113" x2="25.3579" y2="3.72837" gradientUnits="userSpaceOnUse">
<stop offset="0.11" stop-color="#60D7AD"/>
<stop offset="0.76" stop-color="#213C3A"/>
</linearGradient>
<linearGradient id="paint2_linear_1833_3181" x1="0.690359" y1="-9.36907e-07" x2="19.2542" y2="4.60416" gradientUnits="userSpaceOnUse">
<stop offset="0.11" stop-color="#60D7AD"/>
<stop offset="0.76" stop-color="#213C3A"/>
</linearGradient>
<linearGradient id="paint3_linear_1833_3181" x1="15.624" y1="-9.36907e-07" x2="34.184" y2="4.60214" gradientUnits="userSpaceOnUse">
<stop offset="0.11" stop-color="#60D7AD"/>
<stop offset="0.76" stop-color="#213C3A"/>
</linearGradient>
<linearGradient id="paint4_linear_1833_3181" x1="4.74556" y1="10.0479" x2="11.8716" y2="13.1253" gradientUnits="userSpaceOnUse">
<stop offset="0.11" stop-color="#60D7AD"/>
<stop offset="0.76" stop-color="#213C3A"/>
</linearGradient>
<linearGradient id="paint5_linear_1833_3181" x1="6.72566" y1="11.9521" x2="9.19324" y2="12.9904" gradientUnits="userSpaceOnUse">
<stop offset="0.11" stop-color="#60D7AD"/>
<stop offset="0.76" stop-color="#213C3A"/>
</linearGradient>
<linearGradient id="paint6_linear_1833_3181" x1="6.86605" y1="21.1826" x2="8.35854" y2="22.3884" gradientUnits="userSpaceOnUse">
<stop offset="0.11" stop-color="#60D7AD"/>
<stop offset="0.76" stop-color="#213C3A"/>
</linearGradient>
<linearGradient id="paint7_linear_1833_3181" x1="21.788" y1="21.1826" x2="23.2797" y2="22.385" gradientUnits="userSpaceOnUse">
<stop offset="0.11" stop-color="#60D7AD"/>
<stop offset="0.76" stop-color="#213C3A"/>
</linearGradient>
<linearGradient id="paint8_linear_1833_3181" x1="21.8381" y1="11.9424" x2="24.837" y2="13.6225" gradientUnits="userSpaceOnUse">
<stop offset="0.11" stop-color="#60D7AD"/>
<stop offset="0.76" stop-color="#213C3A"/>
</linearGradient>
<linearGradient id="paint9_linear_1833_3181" x1="20.2495" y1="10.0479" x2="27.3755" y2="13.1253" gradientUnits="userSpaceOnUse">
<stop offset="0.11" stop-color="#60D7AD"/>
<stop offset="0.76" stop-color="#213C3A"/>
</linearGradient>
</defs>
</svg>
