<svg width="18" height="18" viewBox="0 0 18 18" fill="none" xmlns="http://www.w3.org/2000/svg">
<path opacity="0.936" fill-rule="evenodd" clip-rule="evenodd" d="M6.24412 2.60008C8.77829 2.59362 11.3125 2.60008 13.8465 2.61947C14.0809 2.72951 14.1391 2.90405 14.0211 3.14311C13.9861 3.1897 13.9408 3.22204 13.8853 3.24008C11.3124 3.26595 8.73946 3.26595 6.16655 3.24008C6.00022 3.09381 5.96791 2.91926 6.06958 2.71644C6.12423 2.66675 6.18241 2.62797 6.24412 2.60008Z" fill="url(#paint0_linear_1835_3300)"/>
<path opacity="0.937" fill-rule="evenodd" clip-rule="evenodd" d="M6.32966 7.83641C8.81212 7.82994 11.2945 7.83641 13.7769 7.85581C14.031 7.90286 14.128 8.05157 14.0678 8.30187C14.0374 8.37114 13.9922 8.42933 13.9321 8.47641C11.3462 8.50229 8.76038 8.50229 6.17451 8.47641C6.10341 8.45702 6.05814 8.41175 6.03875 8.34066C5.95893 8.05983 6.05589 7.89173 6.32966 7.83641Z" fill="url(#paint1_linear_1835_3300)"/>
<path opacity="0.951" fill-rule="evenodd" clip-rule="evenodd" d="M1.51273 0.00242479C5.96042 -0.00404115 10.4081 0.00242479 14.8558 0.0218187C15.6712 0.242561 16.169 0.766197 16.3491 1.59273C16.375 2.48485 16.375 3.37697 16.3491 4.26909C16.2573 4.80817 15.9923 5.24127 15.5539 5.56849C15.9807 5.88527 16.2458 6.30549 16.3491 6.82909C16.375 7.72121 16.375 8.61333 16.3491 9.50546C16.3362 9.62205 16.3039 9.73198 16.2521 9.83515C16.7206 9.93534 17.1925 9.95473 17.6679 9.89333C17.814 9.89415 17.9174 9.95877 17.9782 10.0873C18.0041 11.5224 18.0041 12.9576 17.9782 14.3927C17.8427 14.974 17.5841 15.4912 17.2024 15.9442C16.3597 16.8663 15.3576 17.5516 14.1964 18C14.0477 17.9775 13.9055 17.9322 13.7697 17.8642C12.9843 17.4782 12.2732 16.9869 11.6364 16.3903C8.27473 16.3774 4.91314 16.3644 1.55152 16.3515C0.74633 16.154 0.235626 15.6562 0.0193949 14.8582C-0.00646497 13.9014 -0.00646497 12.9447 0.0193949 11.9879C0.131185 11.4886 0.396235 11.0943 0.814546 10.8048C0.396235 10.5154 0.131185 10.1211 0.0193949 9.62182C-0.00646497 8.66504 -0.00646497 7.7083 0.0193949 6.75152C0.129991 6.25309 0.39504 5.85874 0.814546 5.56849C0.398837 5.26105 0.133788 4.85378 0.0193949 4.34667C-0.00646497 3.40284 -0.00646497 2.45899 0.0193949 1.51515C0.213901 0.70653 0.711677 0.202287 1.51273 0.00242479ZM1.90061 0.623031C6.18124 0.604199 10.4608 0.623593 14.7394 0.681213C15.2544 0.821252 15.5712 1.15095 15.6897 1.6703C15.7269 2.56438 15.7139 3.45649 15.6509 4.34667C15.4707 4.84994 15.1152 5.14085 14.5842 5.21939C10.2516 5.25779 5.92027 5.24484 1.5903 5.18061C1.13132 5.03193 0.827474 4.72807 0.678789 4.26909C0.61807 3.48158 0.605138 2.6929 0.640001 1.90303C0.730943 1.14626 1.15114 0.719593 1.90061 0.623031ZM1.62909 5.89818C5.98629 5.89171 10.3434 5.89818 14.7006 5.91758C15.2242 6.05333 15.5539 6.38303 15.6897 6.90667C15.7156 7.76 15.7156 8.61333 15.6897 9.46667C15.6794 9.5501 15.6406 9.61476 15.5733 9.66061C15.1118 9.47834 14.7045 9.2133 14.3515 8.86546C14.2481 8.83958 14.1447 8.83958 14.0412 8.86546C13.3838 9.49878 12.5951 9.84787 11.6752 9.91273C11.3574 9.94205 11.0407 9.93561 10.7248 9.89333C10.5396 9.89772 10.4233 9.98825 10.3758 10.1648C10.3565 10.2675 10.35 10.3709 10.3564 10.4752C7.47311 10.4816 4.58989 10.4752 1.70667 10.4558C1.16456 10.3532 0.821931 10.0364 0.678789 9.50546C0.617997 8.70503 0.605069 7.9034 0.640001 7.10061C0.709668 6.48178 1.03936 6.08099 1.62909 5.89818ZM14.1576 9.62182C15.1071 10.3346 16.1802 10.6579 17.377 10.5915C17.3933 11.8337 17.3739 13.0749 17.3188 14.3152C17.069 15.0792 16.6229 15.7062 15.9806 16.1964C15.4299 16.6335 14.8352 17.0019 14.1964 17.3018C13.1621 16.843 12.2764 16.1836 11.5394 15.3236C11.2752 14.9633 11.1071 14.5625 11.0352 14.1212C11.0158 12.9447 11.0093 11.7681 11.0158 10.5915C11.9642 10.6359 12.8564 10.4355 13.6921 9.9903C13.8657 9.88752 14.0208 9.76467 14.1576 9.62182ZM1.74546 11.1345C4.61576 11.1345 7.48606 11.1345 10.3564 11.1345C10.3564 11.7939 10.3564 12.4533 10.3564 13.1127C8.95992 13.1062 7.56356 13.1127 6.16727 13.1321C6.00095 13.2784 5.96864 13.4529 6.0703 13.6558C6.11572 13.7098 6.17391 13.7421 6.24485 13.7527C7.6153 13.7721 8.98579 13.7786 10.3564 13.7721C10.3462 14.4786 10.5531 15.1122 10.977 15.6727C7.8611 15.718 4.74512 15.7244 1.62909 15.6921C1.01403 15.5166 0.684335 15.1093 0.640001 14.4703C0.614141 13.785 0.614141 13.0998 0.640001 12.4145C0.70314 11.717 1.07162 11.2904 1.74546 11.1345Z" fill="url(#paint2_linear_1835_3300)"/>
<path opacity="0.921" fill-rule="evenodd" clip-rule="evenodd" d="M16.0182 11.756C16.4264 11.7049 16.575 11.873 16.4642 12.2603C15.6036 13.2113 14.7308 14.1487 13.846 15.0724C13.7174 15.1252 13.5881 15.1123 13.4582 15.0336C13.0107 14.5733 12.5776 14.1014 12.1588 13.6178C12.1337 13.2548 12.2953 13.119 12.6436 13.2106C13.0008 13.5612 13.3499 13.9168 13.6909 14.2772C14.4664 13.437 15.2422 12.5966 16.0182 11.756Z" fill="url(#paint3_linear_1835_3300)"/>
<path opacity="0.93" fill-rule="evenodd" clip-rule="evenodd" d="M3.08688 1.67008C3.83316 1.57057 4.34388 1.86794 4.619 2.5622C4.769 3.34203 4.47809 3.87858 3.74628 4.1719C2.77678 4.31402 2.23373 3.90027 2.11719 2.93069C2.15671 2.28806 2.47994 1.86786 3.08688 1.67008ZM3.20325 2.32947C2.7573 2.56259 2.66032 2.89875 2.91234 3.33796C3.31713 3.67324 3.66622 3.6215 3.95961 3.18281C4.05988 2.59118 3.80776 2.30674 3.20325 2.32947Z" fill="url(#paint4_linear_1835_3300)"/>
<path opacity="0.93" fill-rule="evenodd" clip-rule="evenodd" d="M3.16505 6.90517C4.0621 6.8715 4.56634 7.29817 4.67778 8.18517C4.567 9.07818 4.06276 9.49841 3.16505 9.44577C2.3827 9.23263 2.04008 8.72191 2.13717 7.91365C2.28392 7.37264 2.62655 7.0365 3.16505 6.90517ZM3.24263 7.56456C3.09508 7.61429 2.97224 7.70478 2.87414 7.83608C2.71524 8.14913 2.76049 8.42713 3.0099 8.67002C3.47504 8.90717 3.80474 8.78436 3.99899 8.30153C4.01098 7.78992 3.75886 7.54428 3.24263 7.56456Z" fill="url(#paint5_linear_1835_3300)"/>
<path opacity="0.93" fill-rule="evenodd" clip-rule="evenodd" d="M3.24209 12.1416C4.28494 12.1951 4.74392 12.7382 4.61906 13.7707C4.36966 14.4743 3.87189 14.7781 3.12573 14.6822C2.37266 14.4505 2.04296 13.9398 2.13664 13.1501C2.30461 12.5875 2.67309 12.2514 3.24209 12.1416ZM3.28088 12.801C3.19396 12.8445 3.10343 12.8897 3.00937 12.9368C2.68753 13.2856 2.70046 13.6217 3.04815 13.9452C3.51202 14.1484 3.8288 14.0127 3.99846 13.538C3.99113 13.0716 3.75196 12.8259 3.28088 12.801Z" fill="url(#paint6_linear_1835_3300)"/>
<defs>
<linearGradient id="paint0_linear_1835_3300" x1="5.91506" y1="2.59766" x2="6.31672" y2="4.71237" gradientUnits="userSpaceOnUse">
<stop offset="0.11" stop-color="#60D7AD"/>
<stop offset="0.76" stop-color="#213C3A"/>
</linearGradient>
<linearGradient id="paint1_linear_1835_3300" x1="5.91501" y1="7.83398" x2="6.31645" y2="9.9488" gradientUnits="userSpaceOnUse">
<stop offset="0.11" stop-color="#60D7AD"/>
<stop offset="0.76" stop-color="#213C3A"/>
</linearGradient>
<linearGradient id="paint2_linear_1835_3300" x1="-0.215596" y1="-7.0268e-07" x2="21.4718" y2="9.36472" gradientUnits="userSpaceOnUse">
<stop offset="0.11" stop-color="#60D7AD"/>
<stop offset="0.76" stop-color="#213C3A"/>
</linearGradient>
<linearGradient id="paint3_linear_1835_3300" x1="12.1042" y1="11.7471" x2="16.8366" y2="14.3913" gradientUnits="userSpaceOnUse">
<stop offset="0.11" stop-color="#60D7AD"/>
<stop offset="0.76" stop-color="#213C3A"/>
</linearGradient>
<linearGradient id="paint4_linear_1835_3300" x1="2.08676" y1="1.65137" x2="5.15038" y2="2.97044" gradientUnits="userSpaceOnUse">
<stop offset="0.11" stop-color="#60D7AD"/>
<stop offset="0.76" stop-color="#213C3A"/>
</linearGradient>
<linearGradient id="paint5_linear_1835_3300" x1="2.09047" y1="6.90332" x2="5.16744" y2="8.23728" gradientUnits="userSpaceOnUse">
<stop offset="0.11" stop-color="#60D7AD"/>
<stop offset="0.76" stop-color="#213C3A"/>
</linearGradient>
<linearGradient id="paint6_linear_1835_3300" x1="2.09093" y1="12.1416" x2="5.13985" y2="13.4378" gradientUnits="userSpaceOnUse">
<stop offset="0.11" stop-color="#60D7AD"/>
<stop offset="0.76" stop-color="#213C3A"/>
</linearGradient>
</defs>
</svg>
