<svg width="20" height="17" viewBox="0 0 20 17" fill="none" xmlns="http://www.w3.org/2000/svg">
<path opacity="0.935" fill-rule="evenodd" clip-rule="evenodd" d="M0 2.50639C0 2.38026 0 2.2541 0 2.12797C0.0684587 2.0281 0.156758 1.9461 0.264898 1.88199C0.846197 1.84907 1.42645 1.80494 2.00566 1.74954C2.2033 1.21551 2.41144 0.685718 2.63006 0.160153C2.90889 -0.0603971 3.16118 -0.0351712 3.38691 0.235838C3.57753 0.74937 3.77305 1.26024 3.97347 1.76846C4.5413 1.80392 5.10893 1.84176 5.67638 1.88199C5.96387 2.02242 6.04588 2.24316 5.92236 2.54423C5.47654 2.92754 5.02875 3.30597 4.57895 3.67951C4.74111 4.21635 4.87987 4.75878 4.99522 5.30674C4.98708 5.58613 4.84199 5.7375 4.56003 5.76085C4.45664 5.7565 4.36204 5.72498 4.27621 5.66625C3.84102 5.38243 3.40583 5.09861 2.97064 4.81479C2.52284 5.11121 2.07503 5.40767 1.62723 5.70409C1.25727 5.83317 1.03021 5.70704 0.946064 5.32566C1.07998 4.76469 1.23135 4.20965 1.40017 3.66059C0.914322 3.29416 0.447598 2.90942 0 2.50639ZM4.20052 4.81479C3.89241 4.6291 3.58968 4.43356 3.2923 4.22823C3.09048 4.1021 2.88865 4.1021 2.68682 4.22823C2.37451 4.43167 2.06546 4.6398 1.75968 4.85263C1.82349 4.49646 1.91179 4.14327 2.02458 3.79304C2.06862 3.59527 2.03709 3.41238 1.92997 3.24432C1.6037 3.00641 1.28834 2.75415 0.983907 2.48747C1.38705 2.45432 1.79071 2.42908 2.19487 2.41179C2.29617 2.40236 2.38446 2.36452 2.45977 2.29826C2.6521 1.8854 2.82239 1.46281 2.97064 1.03053C3.12967 1.37413 3.26843 1.72733 3.38691 2.09012C3.44739 2.26416 3.56722 2.37137 3.74641 2.41179C4.1631 2.4304 4.57937 2.45561 4.99522 2.48747C4.62417 2.75778 4.27727 3.0542 3.95455 3.37677C3.92791 3.44406 3.90899 3.51346 3.89778 3.58491C4.00779 3.99334 4.10868 4.40333 4.20052 4.81479Z" fill="url(#paint0_linear_1821_1161)"/>
<path opacity="0.934" fill-rule="evenodd" clip-rule="evenodd" d="M9.53692 0.00846112C9.73284 -0.0216956 9.90313 0.0287599 10.0478 0.159831C10.2596 0.688132 10.4678 1.21793 10.6722 1.74922C11.2515 1.80364 11.8317 1.8478 12.413 1.88167C12.6964 2.07009 12.7532 2.31606 12.5833 2.6196C12.1431 2.96866 11.7079 3.32188 11.2777 3.67919C11.435 4.22011 11.5864 4.76251 11.7318 5.30642C11.6202 5.72174 11.3679 5.84155 10.9749 5.66592C10.5409 5.38952 10.1121 5.1057 9.68829 4.81447C9.24066 5.12031 8.78654 5.41677 8.32596 5.70377C7.95749 5.81593 7.73043 5.68348 7.6448 5.30642C7.79023 4.76251 7.9416 4.22011 8.09891 3.67919C7.67844 3.32362 7.24957 2.97676 6.81226 2.63852C6.62165 2.33336 6.67209 2.0811 6.96363 1.88167C7.54508 1.85007 8.12532 1.80595 8.70439 1.74922C8.90881 1.21793 9.11695 0.688132 9.32879 0.159831C9.39736 0.103934 9.46673 0.0534786 9.53692 0.00846112ZM9.65045 1.06805C9.69776 1.07098 9.72928 1.09621 9.74506 1.14374C9.86377 1.48723 9.9899 1.82782 10.1235 2.16549C10.1866 2.30418 10.2938 2.38619 10.4451 2.41146C10.8618 2.43008 11.2781 2.45529 11.694 2.48715C11.4021 2.74122 11.0994 2.98088 10.7857 3.20616C10.6726 3.30629 10.6095 3.43242 10.5965 3.58458C10.7195 4.00698 10.8267 4.42957 10.9182 4.85231C10.6124 4.63948 10.3033 4.43135 9.99104 4.22791C9.78922 4.10178 9.58737 4.10178 9.38555 4.22791C9.06745 4.44845 8.75207 4.64399 8.43949 4.81447C8.55676 4.40581 8.67029 3.99586 8.78007 3.58458C8.76706 3.43242 8.70401 3.30629 8.59086 3.20616C8.27722 2.98088 7.97448 2.74122 7.68264 2.48715C8.09849 2.45529 8.51476 2.43008 8.93144 2.41146C9.08278 2.38619 9.18998 2.30418 9.25311 2.16549C9.39702 1.80311 9.52947 1.43732 9.65045 1.06805Z" fill="url(#paint1_linear_1821_1161)"/>
<path opacity="0.934" fill-rule="evenodd" clip-rule="evenodd" d="M19.3804 2.12797C19.3804 2.2541 19.3804 2.38026 19.3804 2.50639C18.9328 2.90942 18.4661 3.29416 17.9802 3.66059C18.149 4.20965 18.3004 4.76469 18.4343 5.32566C18.3502 5.70704 18.1231 5.83317 17.7532 5.70409C17.3054 5.40767 16.8575 5.11121 16.4097 4.81479C15.9746 5.09861 15.5394 5.38243 15.1042 5.66625C14.8582 5.8113 14.6375 5.77977 14.4419 5.57164C14.4033 5.48831 14.3843 5.40002 14.3852 5.30674C14.5005 4.75878 14.6393 4.21635 14.8014 3.67951C14.3516 3.30597 13.9038 2.92754 13.458 2.54423C13.3345 2.24316 13.4165 2.02242 13.704 1.88199C14.2715 1.8429 14.8392 1.80506 15.4069 1.76846C15.6073 1.26024 15.8029 0.74937 15.9935 0.235838C16.2192 -0.0351712 16.4715 -0.0603971 16.7503 0.160153C16.9689 0.685718 17.1771 1.21551 17.3747 1.74954C17.9541 1.80267 18.5344 1.8468 19.1155 1.88199C19.2236 1.9461 19.3119 2.0281 19.3804 2.12797ZM15.1799 4.81479C15.2717 4.40333 15.3726 3.99334 15.4826 3.58491C15.4662 3.41329 15.3905 3.27452 15.2555 3.16864C14.9586 2.9507 14.6684 2.72365 14.3852 2.48747C14.801 2.45561 15.2173 2.4304 15.634 2.41179C15.8132 2.37137 15.933 2.26416 15.9935 2.09012C16.1252 1.73266 16.2639 1.37946 16.4097 1.03053C16.5562 1.48305 16.7391 1.91824 16.9585 2.3361C17.0301 2.37292 17.1057 2.39816 17.1855 2.41179C17.5897 2.42908 17.9933 2.45432 18.3965 2.48747C18.092 2.75415 17.7767 3.00641 17.4504 3.24432C17.3433 3.41238 17.3118 3.59527 17.3558 3.79304C17.4686 4.14327 17.5569 4.49646 17.6207 4.85263C17.3402 4.65244 17.0564 4.45691 16.7692 4.26607C16.5488 4.10914 16.3218 4.09654 16.0881 4.22823C15.7907 4.43356 15.488 4.6291 15.1799 4.81479Z" fill="url(#paint2_linear_1821_1161)"/>
<path opacity="0.94" fill-rule="evenodd" clip-rule="evenodd" d="M19.3754 13.7448C19.3754 13.934 19.3754 14.1232 19.3754 14.3124C19.2276 14.6556 18.9753 14.889 18.6185 15.0125C17.1427 15.0314 15.6669 15.0377 14.191 15.0314C14.2517 15.5136 14.1697 15.9677 13.945 16.3938C13.7221 16.6847 13.4382 16.8865 13.0935 16.9992C10.823 16.9992 8.55242 16.9992 6.28187 16.9992C5.6782 16.8179 5.3187 16.4143 5.20335 15.7883C5.18443 15.5363 5.17815 15.284 5.18443 15.0314C3.70852 15.0377 2.23266 15.0314 0.756851 15.0125C0.400068 14.889 0.147784 14.6556 0 14.3124C0 14.1232 0 13.934 0 13.7448C0.355868 12.6634 1.06226 11.9002 2.11918 11.4553C1.42777 10.8146 1.25748 10.0515 1.60831 9.16583C1.98129 8.47857 2.56154 8.11274 3.34907 8.06839C4.25207 8.1286 4.85755 8.58271 5.16551 9.43073C5.37236 10.2246 5.17683 10.8995 4.57895 11.4553C5.13864 11.6936 5.61796 12.0405 6.01697 12.496C6.60856 11.7218 7.36541 11.1731 8.28752 10.8498C7.45745 10.2296 7.12318 9.40337 7.28469 8.37113C7.6143 7.13962 8.41532 6.48366 9.6877 6.40332C10.9601 6.48366 11.7611 7.13962 12.0907 8.37113C12.2522 9.40337 11.9179 10.2296 11.0879 10.8498C12.01 11.1731 12.7668 11.7218 13.3584 12.496C13.7574 12.0405 14.2368 11.6936 14.7964 11.4553C14.1986 10.8995 14.003 10.2246 14.2099 9.43073C14.6519 8.33609 15.4529 7.91354 16.6129 8.163C17.7586 8.65984 18.156 9.51129 17.8049 10.7174C17.6903 11.0169 17.5074 11.2629 17.2562 11.4553C18.3131 11.9002 19.0195 12.6634 19.3754 13.7448ZM9.46064 7.04664C10.6665 7.04782 11.3477 7.64698 11.5041 8.84417C11.3061 10.1854 10.5367 10.7657 9.19574 10.5849C8.38027 10.2918 7.93876 9.71152 7.87125 8.84417C7.97067 7.85587 8.50046 7.25671 9.46064 7.04664ZM3.21662 8.71172C4.20821 8.78839 4.656 9.31818 4.56003 10.3011C4.31428 11.0078 3.81604 11.3168 3.06525 11.2282C2.34562 10.9878 2.02396 10.4895 2.10026 9.73347C2.27584 9.17298 2.64796 8.8324 3.21662 8.71172ZM15.9317 8.71172C16.6245 8.72962 17.0723 9.0702 17.2751 9.73347C17.351 10.4899 17.0293 10.9881 16.3101 11.2282C15.7141 11.3117 15.2537 11.1036 14.9289 10.6038C14.6279 9.92673 14.7729 9.36541 15.3641 8.91985C15.5457 8.81533 15.7349 8.74593 15.9317 8.71172ZM9.46064 11.285C11.2347 11.2891 12.5024 12.0838 13.2638 13.6691C13.5605 14.4076 13.6235 15.1644 13.453 15.9396C13.2952 16.2047 13.0618 16.3498 12.7529 16.3748C10.7094 16.4001 8.66595 16.4001 6.62245 16.3748C6.21254 16.3307 5.95396 16.1099 5.84668 15.7126C5.69822 14.0736 6.29742 12.7932 7.6442 11.8716C8.21172 11.5415 8.8172 11.346 9.46064 11.285ZM3.17878 11.8905C4.21638 11.8795 5.03628 12.2895 5.63854 13.1204C5.4541 13.5223 5.31533 13.9386 5.22227 14.3692C3.77164 14.3944 2.32101 14.3944 0.870379 14.3692C0.713306 14.3011 0.637621 14.1812 0.643324 14.0097C0.886371 13.1011 1.44139 12.4641 2.3084 12.0986C2.59666 11.9981 2.88679 11.9288 3.17878 11.8905ZM15.856 11.8905C17.2569 11.9058 18.2092 12.5617 18.7131 13.8583C18.7835 14.0884 18.7141 14.2587 18.505 14.3692C17.0544 14.3944 15.6037 14.3944 14.1531 14.3692C14.0424 13.9238 13.9099 13.4886 13.7558 13.0636C14.2894 12.3711 14.9895 11.9801 15.856 11.8905Z" fill="url(#paint3_linear_1821_1161)"/>
<defs>
<linearGradient id="paint0_linear_1821_1161" x1="-0.0716118" y1="0.0117185" x2="7.04091" y2="3.20566" gradientUnits="userSpaceOnUse">
<stop offset="0.11" stop-color="#60D7AD"/>
<stop offset="0.76" stop-color="#213C3A"/>
</linearGradient>
<linearGradient id="paint1_linear_1821_1161" x1="6.62759" y1="-2.24242e-07" x2="13.7393" y2="3.1971" gradientUnits="userSpaceOnUse">
<stop offset="0.11" stop-color="#60D7AD"/>
<stop offset="0.76" stop-color="#213C3A"/>
</linearGradient>
<linearGradient id="paint2_linear_1821_1161" x1="13.3307" y1="0.0117185" x2="20.4411" y2="3.20759" gradientUnits="userSpaceOnUse">
<stop offset="0.11" stop-color="#60D7AD"/>
<stop offset="0.76" stop-color="#213C3A"/>
</linearGradient>
<linearGradient id="paint3_linear_1821_1161" x1="-0.232101" y1="6.40332" x2="16.8292" y2="19.8765" gradientUnits="userSpaceOnUse">
<stop offset="0.11" stop-color="#60D7AD"/>
<stop offset="0.76" stop-color="#213C3A"/>
</linearGradient>
</defs>
</svg>
