<svg width="13" height="24" viewBox="0 0 13 24" fill="none" xmlns="http://www.w3.org/2000/svg">
<path opacity="0.947" fill-rule="evenodd" clip-rule="evenodd" d="M1.42908 0C4.7916 0 8.15411 0 11.5166 0C12.2958 0.23625 12.7651 0.79875 12.9247 1.6875C12.9527 8.56252 12.9527 15.4375 12.9247 22.3125C12.7651 23.2013 12.2958 23.7638 11.5166 24C8.15411 24 4.7916 24 1.42908 24C0.668899 23.7693 0.199534 23.2224 0.0210262 22.3594C-0.00700875 15.4531 -0.00700875 8.54686 0.0210262 1.64062C0.199534 0.777577 0.668899 0.230701 1.42908 0ZM1.55517 0.84375C2.22768 0.84375 2.90018 0.84375 3.57268 0.84375C3.49119 1.56694 3.74337 2.07475 4.32925 2.36719C5.04202 2.42018 5.75656 2.44361 6.47286 2.4375C7.18916 2.44361 7.90369 2.42018 8.61646 2.36719C9.19717 2.06925 9.44936 1.56144 9.37303 0.84375C10.0457 0.835941 10.7182 0.843755 11.3905 0.867188C11.8085 1.00509 12.0676 1.30978 12.1681 1.78125C12.1962 8.59373 12.1962 15.4063 12.1681 22.2188C12.0676 22.6902 11.8085 22.9949 11.3905 23.1328C8.11208 23.1641 4.83363 23.1641 1.55517 23.1328C1.13726 22.9949 0.87809 22.6902 0.777592 22.2188C0.749557 15.4063 0.749557 8.59373 0.777592 1.78125C0.88595 1.309 1.14512 0.996497 1.55517 0.84375ZM4.32925 0.84375C5.75832 0.84375 7.18739 0.84375 8.61646 0.84375C8.68089 1.17613 8.58283 1.41832 8.32224 1.57031C7.08933 1.60156 5.85638 1.60156 4.62347 1.57031C4.36288 1.41832 4.26482 1.17613 4.32925 0.84375Z" fill="url(#paint0_linear_1833_3179)"/>
<path opacity="0.938" fill-rule="evenodd" clip-rule="evenodd" d="M3.46407 5.01262C3.70382 4.9679 3.87897 5.05197 3.98947 5.26481C3.99073 6.24818 4.01876 7.22894 4.07353 8.20702C4.38099 8.63044 4.75226 8.69349 5.18737 8.39616C5.27782 8.29238 5.34087 8.17331 5.37651 8.03889C5.39051 7.1002 5.40454 6.16147 5.41854 5.22278C5.54031 5.02713 5.71541 4.96408 5.94393 5.03364C6.0375 5.08522 6.10054 5.16228 6.13308 5.26481C6.17301 6.28933 6.15901 7.31208 6.09105 8.33311C5.73659 9.16538 5.1131 9.48062 4.22064 9.27882C3.71059 9.09111 3.39535 8.73384 3.27493 8.20702C3.2469 7.21226 3.2469 6.21754 3.27493 5.22278C3.31801 5.13086 3.38106 5.06081 3.46407 5.01262Z" fill="url(#paint1_linear_1833_3179)"/>
<path opacity="0.928" fill-rule="evenodd" clip-rule="evenodd" d="M7.07867 5.0137C7.23864 4.99352 7.37873 5.03555 7.49899 5.13979C7.76652 5.55455 8.02572 5.97487 8.27657 6.40074C8.54809 5.94865 8.83529 5.50732 9.13821 5.07674C9.57307 4.94756 9.76221 5.10868 9.70564 5.56011C9.38166 6.10303 9.05243 6.64242 8.7179 7.17832C9.05243 7.71422 9.38166 8.25361 9.70564 8.79653C9.77276 9.26191 9.58362 9.42301 9.13821 9.2799C8.83529 8.84932 8.54809 8.40799 8.27657 7.9559C8.00336 8.39723 7.73016 8.83856 7.45695 9.2799C7.25781 9.37934 7.07569 9.35833 6.91054 9.21685C6.83497 9.09962 6.81396 8.97353 6.8475 8.83856C7.17673 8.28514 7.506 7.73175 7.83524 7.17832C7.506 6.62489 7.17673 6.0715 6.8475 5.51807C6.80013 5.29065 6.87721 5.12252 7.07867 5.0137Z" fill="url(#paint2_linear_1833_3179)"/>
<path opacity="0.933" fill-rule="evenodd" clip-rule="evenodd" d="M10.6457 10.393C11.0516 10.3576 11.2127 10.5397 11.1291 10.9394C11.0824 11.0367 11.0054 11.0998 10.8979 11.1285C7.99355 11.986 5.0864 12.8336 2.17635 13.6714C1.85208 13.5989 1.74002 13.4027 1.8401 13.083C1.88915 13.034 1.93816 12.9849 1.98721 12.9359C4.88183 12.0993 7.76801 11.2516 10.6457 10.393Z" fill="url(#paint3_linear_1833_3179)"/>
<path opacity="0.938" fill-rule="evenodd" clip-rule="evenodd" d="M3.50611 14.6808C3.7501 14.6516 3.91125 14.7497 3.98947 14.975C4.00346 15.9137 4.0175 16.8525 4.0315 17.7912C4.27549 18.2635 4.63276 18.3826 5.1033 18.1484C5.2423 18.0317 5.33338 17.8845 5.37651 17.7071C5.39051 16.7824 5.40454 15.8577 5.41854 14.933C5.65673 14.5968 5.89488 14.5968 6.13308 14.933C6.16111 15.8997 6.16111 16.8665 6.13308 17.8332C5.83541 18.8193 5.18392 19.1906 4.17861 18.947C3.71269 18.7474 3.41149 18.4041 3.27493 17.9172C3.2469 16.9085 3.2469 15.8997 3.27493 14.891C3.34765 14.811 3.42469 14.741 3.50611 14.6808Z" fill="url(#paint4_linear_1833_3179)"/>
<path opacity="0.939" fill-rule="evenodd" clip-rule="evenodd" d="M7.11844 14.6804C7.90317 14.6733 8.68773 14.6804 9.4722 14.7014C9.75697 14.8769 9.799 15.101 9.5983 15.3739C9.29487 15.434 8.98661 15.455 8.67361 15.4369C8.67361 16.3897 8.67361 17.3423 8.67361 18.2951C8.98661 18.277 9.29487 18.2981 9.5983 18.3581C9.71674 18.4984 9.75176 18.6595 9.70338 18.8415C9.63457 18.9386 9.54349 19.0016 9.43017 19.0306C8.67361 19.0587 7.91704 19.0587 7.16047 19.0306C6.95506 19.0004 6.84301 18.8812 6.82422 18.6734C6.82956 18.552 6.87159 18.4469 6.95031 18.3581C7.26782 18.2979 7.59008 18.2769 7.91704 18.2951C7.91704 17.3423 7.91704 16.3897 7.91704 15.4369C7.59008 15.4551 7.26782 15.4341 6.95031 15.3739C6.74465 15.0716 6.80068 14.8404 7.11844 14.6804Z" fill="url(#paint5_linear_1833_3179)"/>
<path opacity="0.939" fill-rule="evenodd" clip-rule="evenodd" d="M5.10955 21.5222C6.01886 21.5152 6.92812 21.5222 7.83735 21.5431C8.02122 21.7435 8.03589 21.9808 7.88135 22.2551C6.94275 22.2831 6.00416 22.2831 5.06556 22.2551C4.91269 21.9727 4.92734 21.7284 5.10955 21.5222Z" fill="url(#paint6_linear_1833_3179)"/>
<defs>
<linearGradient id="paint0_linear_1833_3179" x1="-0.155079" y1="-9.36907e-07" x2="17.4007" y2="4.0896" gradientUnits="userSpaceOnUse">
<stop offset="0.11" stop-color="#60D7AD"/>
<stop offset="0.76" stop-color="#213C3A"/>
</linearGradient>
<linearGradient id="paint1_linear_1833_3179" x1="3.21915" y1="5.00098" x2="7.04763" y2="6.10707" gradientUnits="userSpaceOnUse">
<stop offset="0.11" stop-color="#60D7AD"/>
<stop offset="0.76" stop-color="#213C3A"/>
</linearGradient>
<linearGradient id="paint2_linear_1833_3179" x1="6.79745" y1="5.00879" x2="10.6091" y2="6.10557" gradientUnits="userSpaceOnUse">
<stop offset="0.11" stop-color="#60D7AD"/>
<stop offset="0.76" stop-color="#213C3A"/>
</linearGradient>
<linearGradient id="paint3_linear_1833_3179" x1="1.69273" y1="10.3887" x2="7.01267" y2="16.9294" gradientUnits="userSpaceOnUse">
<stop offset="0.11" stop-color="#60D7AD"/>
<stop offset="0.76" stop-color="#213C3A"/>
</linearGradient>
<linearGradient id="paint4_linear_1833_3179" x1="3.21916" y1="14.6758" x2="7.04727" y2="15.7796" gradientUnits="userSpaceOnUse">
<stop offset="0.11" stop-color="#60D7AD"/>
<stop offset="0.76" stop-color="#213C3A"/>
</linearGradient>
<linearGradient id="paint5_linear_1833_3179" x1="6.78948" y1="14.6777" x2="10.6217" y2="15.7751" gradientUnits="userSpaceOnUse">
<stop offset="0.11" stop-color="#60D7AD"/>
<stop offset="0.76" stop-color="#213C3A"/>
</linearGradient>
<linearGradient id="paint6_linear_1833_3179" x1="4.92469" y1="21.5195" x2="6.01067" y2="23.3955" gradientUnits="userSpaceOnUse">
<stop offset="0.11" stop-color="#60D7AD"/>
<stop offset="0.76" stop-color="#213C3A"/>
</linearGradient>
</defs>
</svg>
