<svg width="25" height="24" viewBox="0 0 25 24" fill="none" xmlns="http://www.w3.org/2000/svg">
<path opacity="0.966" fill-rule="evenodd" clip-rule="evenodd" d="M13.5312 0C14.0625 0 15.25 0 15.7812 0C15.7812 0.234375 15.7812 0.46875 15.7812 0.703125C15.2789 0.686986 14.1227 0.710423 13.625 0.773438C13.3047 0.906248 13.0781 1.13281 12.9453 1.45312C12.8688 3.73306 12.8532 6.0143 12.8984 8.29688C12.9222 8.78948 13.1644 9.12544 13.625 9.30469C14.2322 9.36923 14.8416 9.39267 15.4531 9.375C15.4453 10.0158 15.4531 10.6564 15.4766 11.2969C16.2231 10.6696 16.9653 10.0368 17.7031 9.39844C19.5172 9.39675 21.3297 9.36548 23.1406 9.30469C23.6013 9.12544 23.8434 8.78948 23.8672 8.29688C23.8985 6.12502 23.8985 3.95312 23.8672 1.78125C23.803 1.1702 23.4671 0.818634 22.8594 0.726562C20.5001 0.703125 18.1407 0.695311 15.7812 0.703125C15.7812 0.46875 15.7812 0.234375 15.7812 0C18.2656 0 20.75 0 23.2344 0C23.9219 0.21875 24.375 0.671873 24.5938 1.35938C24.5938 3.8125 24.5938 6.26564 24.5938 8.71875C24.3835 9.40547 23.9304 9.85078 23.2344 10.0547C22.7502 10.0781 22.2659 10.0859 21.7812 10.0781C21.7891 12.9063 21.7812 15.7344 21.7578 18.5625C21.537 19.2989 21.0448 19.713 20.2812 19.8047C18.2188 19.8203 16.1562 19.836 14.0938 19.8516C14.3859 20.5168 14.6828 21.1808 14.9844 21.8438C15.3114 21.8827 15.6395 21.9061 15.9688 21.9141C16.3759 22.04 16.6181 22.3135 16.6953 22.7344C16.7188 23.156 16.7265 23.5778 16.7188 24C13.0312 24 9.34377 24 5.65625 24C5.64847 23.5622 5.65625 23.1247 5.67969 22.6875C5.77789 22.2925 6.02005 22.0347 6.40625 21.9141C6.7355 21.9061 7.06362 21.8827 7.39062 21.8438C7.69222 21.1808 7.98912 20.5168 8.28125 19.8516C7.172 19.8281 6.06261 19.8203 4.95312 19.8281C4.95312 19.5781 4.95312 19.3281 4.95312 19.0781C10.0625 19.086 15.1719 19.0781 20.2812 19.0547C20.6205 18.9812 20.8627 18.7859 21.0078 18.4688C21.0312 17.969 21.0391 17.469 21.0312 16.9688C14.4531 16.9688 7.87498 16.9688 1.29688 16.9688C1.28074 17.4711 1.30417 17.971 1.36719 18.4688C1.50347 18.7913 1.74565 18.9866 2.09375 19.0547C2.82796 19.0781 4.21858 19.086 4.95312 19.0781C4.95312 19.3281 4.95312 19.5781 4.95312 19.8281C4.10762 19.8469 2.60762 19.8234 1.76562 19.7578C1.16335 19.5852 0.772722 19.2023 0.59375 18.6094C0.59375 14.3281 0.59375 10.0469 0.59375 5.76562C0.772742 5.14134 1.17899 4.74291 1.8125 4.57031C5.26559 4.54688 8.71873 4.53906 12.1719 4.54688C12.1503 3.41943 12.1737 2.29443 12.2422 1.17188C12.4894 0.572827 12.9191 0.1822 13.5312 0ZM2.1875 5.25C5.51562 5.25 8.84375 5.25 12.1719 5.25C12.164 6.40636 12.1719 7.56262 12.1953 8.71875C12.3906 9.41405 12.836 9.85936 13.5312 10.0547C13.9372 10.0781 14.3435 10.0859 14.75 10.0781C14.7422 11.0158 14.75 11.9533 14.7734 12.8906C15.8706 11.9554 16.9722 11.0257 18.0781 10.1016C19.0624 10.0781 20.0467 10.0703 21.0312 10.0781C21.0312 12.125 21.0312 14.1719 21.0312 16.2188C14.4531 16.2188 7.87498 16.2188 1.29688 16.2188C1.28906 12.8594 1.29688 9.49997 1.32031 6.14062C1.39903 5.63227 1.68809 5.33541 2.1875 5.25ZM9.125 19.8281C10.5001 19.8203 11.8751 19.8281 13.25 19.8516C13.5658 20.5066 13.8627 21.1707 14.1406 21.8438C12.1719 21.9062 10.2031 21.9062 8.23438 21.8438C8.51905 21.1651 8.81595 20.4933 9.125 19.8281ZM6.73438 22.5938C9.70316 22.5859 12.6719 22.5938 15.6406 22.6172C15.7791 22.6356 15.8807 22.7059 15.9453 22.8281C15.9687 22.9836 15.9765 23.1398 15.9688 23.2969C12.7812 23.2969 9.59375 23.2969 6.40625 23.2969C6.3838 23.0901 6.41506 22.8948 6.5 22.7109C6.58508 22.6755 6.66317 22.6364 6.73438 22.5938Z" fill="url(#paint0_linear_1829_2901)"/>
<path opacity="0.907" fill-rule="evenodd" clip-rule="evenodd" d="M15.4531 3.14062C15.6233 3.28731 15.7874 3.44356 15.9453 3.60938C15.9766 3.65625 15.9766 3.70312 15.9453 3.75C15.5073 4.14898 15.0776 4.55523 14.6563 4.96875C15.1081 5.38936 15.5456 5.82684 15.9688 6.28125C15.8125 6.46875 15.6406 6.64064 15.4531 6.79688C14.7971 6.2033 14.1565 5.59392 13.5312 4.96875C14.1586 4.34125 14.7993 3.73187 15.4531 3.14062Z" fill="url(#paint1_linear_1829_2901)"/>
<path opacity="0.905" fill-rule="evenodd" clip-rule="evenodd" d="M19.3921 3.14062C19.6023 3.28511 19.8054 3.44136 20.0015 3.60938C19.1432 4.70987 18.276 5.80364 17.3999 6.89062C17.3663 6.9352 17.3272 6.94298 17.2827 6.91406C17.1187 6.78127 16.9546 6.64842 16.7905 6.51562C16.7758 6.44963 16.7914 6.38714 16.8374 6.32812C17.7179 5.28417 18.5694 4.22165 19.3921 3.14062Z" fill="url(#paint2_linear_1829_2901)"/>
<path opacity="0.907" fill-rule="evenodd" clip-rule="evenodd" d="M21.2617 3.14062C21.9465 3.71586 22.6027 4.32523 23.2305 4.96875C22.6053 5.59392 21.9647 6.2033 21.3086 6.79688C21.1211 6.64064 20.9492 6.46875 20.793 6.28125C21.2161 5.82684 21.6536 5.38936 22.1055 4.96875C21.6841 4.55523 21.2544 4.14898 20.8164 3.75C20.7852 3.70312 20.7852 3.65625 20.8164 3.60938C20.9744 3.45926 21.1229 3.303 21.2617 3.14062Z" fill="url(#paint3_linear_1829_2901)"/>
<path opacity="0.909" fill-rule="evenodd" clip-rule="evenodd" d="M3.73438 6.70267C3.78369 6.69569 3.83056 6.70347 3.875 6.72611C4.42188 7.273 4.96875 7.81984 5.51563 8.36673C4.96028 8.92989 4.39778 9.48461 3.82813 10.0308C3.64063 9.87456 3.46875 9.70267 3.3125 9.51517C3.67901 9.12522 4.05401 8.74239 4.4375 8.36673C4.07032 7.99956 3.70312 7.63234 3.33594 7.26517C3.30469 7.2183 3.30469 7.17142 3.33594 7.12455C3.47834 6.99006 3.61115 6.84944 3.73438 6.70267Z" fill="url(#paint4_linear_1829_2901)"/>
<path opacity="0.927" fill-rule="evenodd" clip-rule="evenodd" d="M6.5 7.26562C7.96873 7.26562 9.43752 7.26562 10.9062 7.26562C10.9062 7.51561 10.9062 7.76564 10.9062 8.01562C9.43752 8.01562 7.96873 8.01562 6.5 8.01562C6.5 7.76564 6.5 7.51561 6.5 7.26562Z" fill="url(#paint5_linear_1829_2901)"/>
<path opacity="0.927" fill-rule="evenodd" clip-rule="evenodd" d="M6.5 8.67188C7.96873 8.67188 9.43752 8.67188 10.9062 8.67188C10.9062 8.92186 10.9062 9.17189 10.9062 9.42188C9.43752 9.42188 7.96873 9.42188 6.5 9.42188C6.5 9.17189 6.5 8.92186 6.5 8.67188Z" fill="url(#paint6_linear_1829_2901)"/>
<path opacity="0.909" fill-rule="evenodd" clip-rule="evenodd" d="M3.73438 11.437C3.78369 11.4301 3.83056 11.4378 3.875 11.4605C4.42188 12.0074 4.96875 12.5542 5.51563 13.1011C4.96028 13.6643 4.39778 14.219 3.82813 14.7652C3.64063 14.6089 3.46875 14.437 3.3125 14.2495C3.67901 13.8596 4.05401 13.4768 4.4375 13.1011C4.07032 12.7339 3.70312 12.3667 3.33594 11.9995C3.30469 11.9527 3.30469 11.9058 3.33594 11.8589C3.47834 11.7244 3.61115 11.5838 3.73438 11.437Z" fill="url(#paint7_linear_1829_2901)"/>
<path opacity="0.931" fill-rule="evenodd" clip-rule="evenodd" d="M6.5 12C8.75 12 11 12 13.25 12C13.25 12.25 13.25 12.5 13.25 12.75C11 12.75 8.75 12.75 6.5 12.75C6.5 12.5 6.5 12.25 6.5 12Z" fill="url(#paint8_linear_1829_2901)"/>
<path opacity="0.879" fill-rule="evenodd" clip-rule="evenodd" d="M6.49219 13.4238C7.57687 13.4238 8.66175 13.4238 9.74642 13.4238C9.74642 13.6611 9.74642 13.8984 9.74642 14.1357C8.66175 14.1357 7.57687 14.1357 6.49219 14.1357C6.49219 13.8984 6.49219 13.6611 6.49219 13.4238Z" fill="url(#paint9_linear_1829_2901)"/>
<defs>
<linearGradient id="paint0_linear_1829_2901" x1="0.30625" y1="-9.36907e-07" x2="29.2254" y2="12.4891" gradientUnits="userSpaceOnUse">
<stop offset="0.11" stop-color="#60D7AD"/>
<stop offset="0.76" stop-color="#213C3A"/>
</linearGradient>
<linearGradient id="paint1_linear_1829_2901" x1="13.5021" y1="3.14062" x2="16.7202" y2="4.06716" gradientUnits="userSpaceOnUse">
<stop offset="0.11" stop-color="#60D7AD"/>
<stop offset="0.76" stop-color="#213C3A"/>
</linearGradient>
<linearGradient id="paint2_linear_1829_2901" x1="16.7466" y1="3.14062" x2="20.8006" y2="4.62618" gradientUnits="userSpaceOnUse">
<stop offset="0.11" stop-color="#60D7AD"/>
<stop offset="0.76" stop-color="#213C3A"/>
</linearGradient>
<linearGradient id="paint3_linear_1829_2901" x1="20.7638" y1="3.14062" x2="23.9819" y2="4.06716" gradientUnits="userSpaceOnUse">
<stop offset="0.11" stop-color="#60D7AD"/>
<stop offset="0.76" stop-color="#213C3A"/>
</linearGradient>
<linearGradient id="paint4_linear_1829_2901" x1="3.28611" y1="6.7002" x2="6.19826" y2="7.53211" gradientUnits="userSpaceOnUse">
<stop offset="0.11" stop-color="#60D7AD"/>
<stop offset="0.76" stop-color="#213C3A"/>
</linearGradient>
<linearGradient id="paint5_linear_1829_2901" x1="6.44722" y1="7.26562" x2="7.29424" y2="9.41468" gradientUnits="userSpaceOnUse">
<stop offset="0.11" stop-color="#60D7AD"/>
<stop offset="0.76" stop-color="#213C3A"/>
</linearGradient>
<linearGradient id="paint6_linear_1829_2901" x1="6.44722" y1="8.67187" x2="7.29424" y2="10.8209" gradientUnits="userSpaceOnUse">
<stop offset="0.11" stop-color="#60D7AD"/>
<stop offset="0.76" stop-color="#213C3A"/>
</linearGradient>
<linearGradient id="paint7_linear_1829_2901" x1="3.28611" y1="11.4346" x2="6.19826" y2="12.2665" gradientUnits="userSpaceOnUse">
<stop offset="0.11" stop-color="#60D7AD"/>
<stop offset="0.76" stop-color="#213C3A"/>
</linearGradient>
<linearGradient id="paint8_linear_1829_2901" x1="6.41914" y1="12" x2="7.01829" y2="14.3287" gradientUnits="userSpaceOnUse">
<stop offset="0.11" stop-color="#60D7AD"/>
<stop offset="0.76" stop-color="#213C3A"/>
</linearGradient>
<linearGradient id="paint9_linear_1829_2901" x1="6.4532" y1="13.4238" x2="7.40318" y2="15.2993" gradientUnits="userSpaceOnUse">
<stop offset="0.11" stop-color="#60D7AD"/>
<stop offset="0.76" stop-color="#213C3A"/>
</linearGradient>
</defs>
</svg>
