<svg width="14" height="24" viewBox="0 0 14 24" fill="none" xmlns="http://www.w3.org/2000/svg">
<path opacity="0.952" fill-rule="evenodd" clip-rule="evenodd" d="M2.02751 0.00304207C5.04524 -0.00507016 8.06291 0.00304207 11.0805 0.0273797C12.2549 0.168869 12.9386 0.84221 13.1316 2.04741C13.1631 8.68346 13.1631 15.3196 13.1316 21.9556C12.9999 23.0813 12.3948 23.7547 11.3163 23.9757C8.14147 24.0081 4.96659 24.0081 1.79176 23.9757C0.825158 23.7566 0.235768 23.1482 0.0235874 22.1503C-0.00786246 15.4007 -0.00786246 8.65104 0.0235874 1.90138C0.251988 0.764811 0.919932 0.132032 2.02751 0.00304207ZM2.02751 0.781848C5.06094 0.773733 8.09436 0.781848 11.1277 0.806185C11.7891 0.929276 12.1977 1.32679 12.3536 1.99873C8.48718 2.00685 4.62078 1.99873 0.754431 1.97439C0.946148 1.30824 1.37051 0.910725 2.02751 0.781848ZM0.754431 2.77754C4.63653 2.77754 8.51868 2.77754 12.4008 2.77754C12.4008 8.26164 12.4008 13.7457 12.4008 19.2298C8.51868 19.2298 4.63653 19.2298 0.754431 19.2298C0.754431 13.7457 0.754431 8.26164 0.754431 2.77754ZM0.754431 20.0086C4.63653 20.0086 8.51868 20.0086 12.4008 20.0086C12.4202 20.725 12.3967 21.4389 12.33 22.1503C12.176 22.715 11.8223 23.0639 11.2691 23.1968C8.14147 23.2293 5.01374 23.2293 1.88606 23.1968C1.29667 23.0427 0.927334 22.6614 0.778007 22.053C0.754431 21.3717 0.746557 20.6903 0.754431 20.0086Z" fill="url(#paint0_linear_1833_3132)"/>
<path opacity="0.956" fill-rule="evenodd" clip-rule="evenodd" d="M4.00661 8.06445C4.37698 8.12609 4.49486 8.32569 4.36024 8.6633C3.80947 9.1937 3.26723 9.73114 2.73352 10.2756C3.28435 10.8214 3.82658 11.3741 4.36024 11.9339C4.36906 12.4465 4.14113 12.5771 3.67655 12.3255C3.07282 11.6896 2.45198 11.0677 1.81407 10.4598C1.76711 10.2891 1.79851 10.1355 1.90838 9.99919C2.52922 9.39265 3.15001 8.78616 3.77085 8.17962C3.85643 8.14474 3.93499 8.10637 4.00661 8.06445Z" fill="url(#paint1_linear_1833_3132)"/>
<path opacity="0.934" fill-rule="evenodd" clip-rule="evenodd" d="M7.63802 8.06445C8.04871 8.16078 8.15089 8.3911 7.94451 8.75543C7.21847 9.91043 6.5112 11.0774 5.8227 12.2564C5.64489 12.4539 5.43271 12.4923 5.18616 12.3716C5.07139 12.2004 5.06352 12.0238 5.16258 11.8418C5.90913 10.6211 6.65572 9.40035 7.40227 8.17962C7.48785 8.14474 7.5664 8.10637 7.63802 8.06445Z" fill="url(#paint2_linear_1833_3132)"/>
<path opacity="0.936" fill-rule="evenodd" clip-rule="evenodd" d="M9.05189 8.06445C9.12668 8.0943 9.20528 8.11734 9.28765 8.13355C9.95564 8.78616 10.6236 9.43872 11.2916 10.0913C11.3859 10.2295 11.3859 10.3677 11.2916 10.5059C10.6393 11.1431 9.98705 11.7804 9.3348 12.4176C8.87116 12.5174 8.69039 12.3408 8.79256 11.8879C9.3348 11.3581 9.87704 10.8284 10.4193 10.2986C9.87704 9.76887 9.3348 9.23912 8.79256 8.70937C8.6388 8.38871 8.72528 8.17372 9.05189 8.06445Z" fill="url(#paint3_linear_1833_3132)"/>
<path opacity="0.974" fill-rule="evenodd" clip-rule="evenodd" d="M5.7536 21.1005C6.3039 21.0928 6.85402 21.1005 7.40389 21.1236C7.69402 21.1911 7.79619 21.3676 7.71038 21.6533C7.6868 21.7378 7.63178 21.7915 7.54535 21.8146C6.88523 21.8453 6.22511 21.8453 5.56499 21.8146C5.38822 21.6654 5.34895 21.4889 5.44712 21.2848C5.53161 21.1868 5.63374 21.1254 5.7536 21.1005Z" fill="url(#paint4_linear_1833_3132)"/>
<defs>
<linearGradient id="paint0_linear_1833_3132" x1="-0.157588" y1="-9.36907e-07" x2="17.6524" y2="4.21596" gradientUnits="userSpaceOnUse">
<stop offset="0.11" stop-color="#60D7AD"/>
<stop offset="0.76" stop-color="#213C3A"/>
</linearGradient>
<linearGradient id="paint1_linear_1833_3132" x1="1.76157" y1="8.06445" x2="5.27486" y2="8.97133" gradientUnits="userSpaceOnUse">
<stop offset="0.11" stop-color="#60D7AD"/>
<stop offset="0.76" stop-color="#213C3A"/>
</linearGradient>
<linearGradient id="paint2_linear_1833_3132" x1="5.05836" y1="8.06445" x2="8.95116" y2="9.19947" gradientUnits="userSpaceOnUse">
<stop offset="0.11" stop-color="#60D7AD"/>
<stop offset="0.76" stop-color="#213C3A"/>
</linearGradient>
<linearGradient id="paint3_linear_1833_3132" x1="8.68708" y1="8.06445" x2="12.2261" y2="8.98688" gradientUnits="userSpaceOnUse">
<stop offset="0.11" stop-color="#60D7AD"/>
<stop offset="0.76" stop-color="#213C3A"/>
</linearGradient>
<linearGradient id="paint4_linear_1833_3132" x1="5.36644" y1="21.0977" x2="6.53327" y2="22.6948" gradientUnits="userSpaceOnUse">
<stop offset="0.11" stop-color="#60D7AD"/>
<stop offset="0.76" stop-color="#213C3A"/>
</linearGradient>
</defs>
</svg>
