<svg width="15" height="25" viewBox="0 0 15 25" fill="none" xmlns="http://www.w3.org/2000/svg">
<path opacity="0.925" fill-rule="evenodd" clip-rule="evenodd" d="M7.09561 4.74653C7.50162 4.91037 7.8966 5.0942 8.28054 5.298C8.28698 5.31987 8.28996 5.34235 8.28947 5.36543C8.21367 5.56975 8.13066 5.7711 8.04049 5.96949C8.1754 6.07061 8.2934 6.18953 8.39446 6.32624C8.58882 6.25826 8.78158 6.18498 8.97278 6.10641C9.03606 6.11687 9.09313 6.14159 9.14404 6.1806C9.29918 6.55789 9.4437 6.93832 9.57765 7.32191C9.56984 7.38136 9.54107 7.42822 9.49132 7.46249C9.30384 7.53068 9.12177 7.6086 8.94511 7.69623C8.94832 7.85702 8.94668 8.01733 8.94016 8.17718C9.12262 8.26469 9.30504 8.35221 9.48749 8.43972C9.52412 8.46252 9.54849 8.49429 9.56064 8.53497C9.49731 8.7473 9.41991 8.95531 9.32844 9.15901C9.24555 9.35862 9.14983 9.55023 9.04129 9.73381C9.01573 9.74392 8.99014 9.75404 8.96458 9.76415C8.76169 9.68472 8.55877 9.60531 8.35588 9.52588C8.23996 9.65155 8.11391 9.76646 7.97773 9.87057C8.05256 10.0598 8.12737 10.249 8.2022 10.4382C8.21433 10.5188 8.1865 10.583 8.11873 10.6309C7.76589 10.7704 7.41304 10.9099 7.0602 11.0495C6.97803 11.0609 6.9138 11.0331 6.86753 10.966C6.7927 10.7768 6.71788 10.5876 6.64305 10.3984C6.4779 10.4185 6.31247 10.4189 6.14677 10.3995C6.04182 10.5936 5.94301 10.7924 5.85034 10.9957C5.80999 11.0176 5.76706 11.0287 5.72155 11.0289C5.35143 10.8855 4.98749 10.7279 4.62974 10.5559C4.56658 10.5158 4.54434 10.4596 4.56301 10.3872C4.64177 10.1947 4.713 10.001 4.77666 9.80595C4.66077 9.70212 4.55194 9.59141 4.45017 9.47382C4.26135 9.53072 4.07524 9.5984 3.89183 9.67688C3.83209 9.68592 3.77905 9.6714 3.7327 9.63337C3.56805 9.26192 3.41329 8.88555 3.26841 8.5042C3.27887 8.44092 3.3036 8.38385 3.3426 8.33294C3.53583 8.25949 3.72658 8.1811 3.91486 8.09776C3.89508 7.92891 3.89982 7.76145 3.92908 7.59541C3.72761 7.51235 3.52934 7.42223 3.3343 7.32502C3.29969 7.29732 3.28553 7.26151 3.29183 7.21764C3.44449 6.82611 3.61143 6.44077 3.79264 6.06161C3.83299 6.03971 3.87592 6.02866 3.92143 6.02841C4.11606 6.10846 4.31337 6.18122 4.51336 6.24671C4.62234 6.12876 4.73817 6.01789 4.86083 5.91415C4.79285 5.7198 4.71957 5.52703 4.641 5.33583C4.64836 5.27969 4.67 5.22974 4.70592 5.18597C5.07113 5.01789 5.44443 4.87026 5.82582 4.74309C5.88195 4.75046 5.9319 4.7721 5.97567 4.80801C6.04912 5.00124 6.12751 5.19199 6.21085 5.38027C6.37128 5.37205 6.53161 5.37371 6.69179 5.38522C6.7929 5.20065 6.88707 5.01262 6.97431 4.82111C7.01256 4.79133 7.053 4.76648 7.09561 4.74653ZM7.19198 5.16967C7.42034 5.2686 7.64868 5.36752 7.87703 5.46644C7.78308 5.65732 7.71032 5.85463 7.65874 6.05837C7.85539 6.25128 8.04247 6.45522 8.22002 6.6702C8.27303 6.71236 8.33321 6.72996 8.40056 6.72298C8.56931 6.65625 8.73806 6.58951 8.90682 6.52278C8.99752 6.74466 9.08294 6.96811 9.16305 7.19315C9.00546 7.26434 8.84538 7.3306 8.68284 7.39192C8.64563 7.4209 8.61077 7.45242 8.57831 7.48648C8.59582 7.76724 8.58859 8.04803 8.55663 8.32885C8.56674 8.35441 8.57686 8.38 8.58697 8.40555C8.77487 8.49967 8.96601 8.58669 9.16034 8.66666C9.06142 8.89502 8.9625 9.12336 8.86357 9.35172C8.67944 9.26773 8.49236 9.1909 8.30233 9.12129C8.26738 9.11797 8.23468 9.12501 8.20421 9.14235C8.02809 9.36478 7.82819 9.56211 7.60452 9.73431C7.60131 9.77106 7.5981 9.80781 7.5949 9.84456C7.65961 10.0082 7.72433 10.1718 7.78904 10.3355C7.79713 10.3559 7.79095 10.3702 7.77049 10.3783C7.55373 10.467 7.33538 10.5504 7.11546 10.6285C7.04021 10.4606 6.96992 10.2904 6.90455 10.1176C6.87707 10.093 6.8496 10.0683 6.82212 10.0437C6.54117 10.0711 6.26037 10.0638 5.97976 10.022C5.94567 10.0302 5.917 10.0475 5.89378 10.0738C5.80276 10.2545 5.71882 10.4385 5.64194 10.6258C5.41358 10.5268 5.18525 10.4279 4.95689 10.329C5.04397 10.1377 5.12388 9.94351 5.19659 9.74633C5.18648 9.72077 5.17636 9.69518 5.16626 9.66962C4.95088 9.48662 4.75355 9.28671 4.57429 9.06993C4.52732 9.06727 4.48033 9.06812 4.43336 9.07244C4.27284 9.13888 4.11075 9.20003 3.94709 9.25587C3.85161 9.03692 3.76109 8.81547 3.67551 8.59157C3.84426 8.52484 4.01301 8.4581 4.18176 8.39136C4.23566 8.35039 4.26753 8.29638 4.27737 8.22938C4.25985 7.95111 4.25685 7.67437 4.26836 7.39914C4.09138 7.28578 3.90335 7.19161 3.70426 7.11663C3.80319 6.88827 3.90211 6.65993 4.00104 6.43157C4.18517 6.51556 4.37224 6.59238 4.56228 6.662C4.60616 6.6683 4.64196 6.65413 4.66967 6.61953C4.83943 6.40968 5.02755 6.21996 5.23404 6.0504C5.24908 6.01118 5.25383 5.97086 5.2483 5.92945C5.18157 5.7607 5.11483 5.59195 5.0481 5.4232C5.27821 5.3322 5.50833 5.24119 5.73844 5.15019C5.80518 5.31894 5.87191 5.48769 5.93865 5.65645C5.96294 5.69044 5.99398 5.7166 6.03178 5.73493C6.31556 5.72136 6.59993 5.73014 6.88485 5.76125C6.90521 5.75099 6.92364 5.73778 6.94015 5.72164C7.03117 5.54088 7.1151 5.35688 7.19198 5.16967Z" fill="url(#paint0_linear_1833_3200)"/>
<path opacity="0.918" fill-rule="evenodd" clip-rule="evenodd" d="M10.4757 7.50919C11.3778 8.21334 11.9313 9.12688 12.1361 10.2498C12.7185 10.4517 12.8876 10.8342 12.6432 11.3976C12.3259 11.7826 11.9611 11.8322 11.549 11.5464C11.3145 11.3102 11.2487 11.0317 11.3516 10.7109C11.4459 10.5205 11.5899 10.3837 11.7836 10.3005C11.5937 9.29786 11.1058 8.4678 10.3198 7.81033C10.2515 7.64552 10.3034 7.54514 10.4757 7.50919ZM12.1301 10.6159C12.3588 10.7232 12.4434 10.8997 12.3838 11.1453C12.1696 11.4218 11.9439 11.4342 11.7066 11.1825C11.6139 10.9738 11.6585 10.8024 11.8404 10.6684C11.9346 10.6269 12.0311 10.6094 12.1301 10.6159Z" fill="url(#paint1_linear_1833_3200)"/>
<path opacity="0.926" fill-rule="evenodd" clip-rule="evenodd" d="M9.62359 11.0543C10.0147 11.212 10.3954 11.3897 10.7657 11.5872C10.7847 11.6252 10.7886 11.665 10.7775 11.7067C10.7042 11.8954 10.631 12.084 10.5578 12.2726C10.6719 12.3848 10.7827 12.5006 10.8903 12.6201C11.0792 12.5632 11.2653 12.4955 11.4487 12.417C11.5314 12.402 11.5957 12.4299 11.6413 12.5005C11.7849 12.8636 11.9285 13.2266 12.0721 13.5897C12.0599 13.6641 12.025 13.7253 11.9672 13.7731C11.7842 13.8425 11.6037 13.9169 11.4256 13.9961C11.4454 14.165 11.4407 14.3325 11.4114 14.4985C11.6129 14.5816 11.8112 14.6717 12.0062 14.7689C12.0408 14.7966 12.055 14.8324 12.0487 14.8763C11.896 15.2678 11.7291 15.6531 11.5479 16.0323C11.5075 16.0542 11.4646 16.0653 11.4191 16.0655C11.2245 15.9855 11.0271 15.9127 10.8271 15.8472C10.7182 15.9651 10.6023 16.076 10.4797 16.1798C10.5476 16.3741 10.6209 16.5669 10.6995 16.7581C10.6874 16.8325 10.6524 16.8936 10.5946 16.9415C10.2378 17.0885 9.87782 17.225 9.51469 17.3508C9.45856 17.3435 9.40859 17.3218 9.36483 17.2859C9.29138 17.0927 9.213 16.9019 9.12965 16.7136C8.96922 16.7219 8.80889 16.7202 8.64871 16.7087C8.5476 16.8933 8.45343 17.0813 8.36619 17.2728C8.33282 17.3037 8.29395 17.325 8.24953 17.3367C7.83895 17.1836 7.44243 17.0033 7.05996 16.7959C7.05352 16.774 7.05055 16.7516 7.05104 16.7285C7.12683 16.5242 7.20985 16.3228 7.30001 16.1244C7.16445 16.0228 7.04646 15.9039 6.94605 15.7677C6.75169 15.8356 6.55892 15.9089 6.36772 15.9875C6.30444 15.977 6.24737 15.9523 6.19646 15.9133C6.05288 15.5502 5.90929 15.1872 5.76571 14.8241C5.75072 14.7413 5.77854 14.6771 5.84918 14.6314C6.03666 14.5632 6.21873 14.4853 6.39539 14.3977C6.39218 14.2369 6.39382 14.0766 6.40034 13.9167C6.21789 13.8292 6.03546 13.7417 5.85301 13.6542C5.81639 13.6314 5.79201 13.5996 5.77986 13.5589C5.91137 13.1599 6.07118 12.7715 6.25926 12.3936C6.29263 12.3627 6.3315 12.3414 6.37592 12.3298C6.57881 12.4092 6.78173 12.4886 6.98462 12.568C7.10054 12.4424 7.2266 12.3275 7.36277 12.2233C7.28795 12.0341 7.21313 11.8449 7.1383 11.6557C7.12331 11.5729 7.15113 11.5087 7.22177 11.463C7.57461 11.3235 7.92746 11.184 8.2803 11.0444C8.36248 11.033 8.4267 11.0608 8.47297 11.1279C8.5478 11.3171 8.62262 11.5063 8.69745 11.6955C8.8626 11.6754 9.02804 11.675 9.19373 11.6944C9.29868 11.5003 9.39749 11.3015 9.49016 11.0982C9.53463 11.0775 9.57911 11.0629 9.62359 11.0543ZM9.69856 11.4682C9.92692 11.5671 10.1553 11.666 10.3836 11.7649C10.2965 11.9562 10.2166 12.1504 10.1439 12.3476C10.154 12.3731 10.1641 12.3987 10.1742 12.4243C10.3896 12.6073 10.587 12.8072 10.7662 13.024C10.803 13.0272 10.8397 13.0304 10.8765 13.0336C11.0472 12.9631 11.2195 12.8979 11.3934 12.838C11.4889 13.057 11.5794 13.2784 11.665 13.5023C11.4962 13.5691 11.3275 13.6358 11.1587 13.7025C11.1048 13.7435 11.073 13.7975 11.0631 13.8645C11.0806 14.1428 11.0836 14.4195 11.0721 14.6948C11.2491 14.8081 11.4371 14.9023 11.6362 14.9773C11.5373 15.2056 11.4384 15.434 11.3395 15.6623C11.1553 15.5783 10.9683 15.5015 10.7782 15.4319C10.7343 15.4256 10.6985 15.4398 10.6708 15.4744C10.5011 15.6842 10.3129 15.8739 10.1065 16.0435C10.0914 16.0827 10.0867 16.1231 10.0922 16.1645C10.1589 16.3332 10.2257 16.502 10.2924 16.6707C10.0623 16.7617 9.83217 16.8527 9.60206 16.9437C9.53532 16.775 9.46859 16.6062 9.40185 16.4375C9.37757 16.4035 9.34652 16.3773 9.30872 16.359C9.02494 16.3726 8.74057 16.3638 8.45565 16.3327C8.4353 16.3429 8.41686 16.3561 8.40036 16.3723C8.30934 16.553 8.2254 16.737 8.14852 16.9242C7.92016 16.8253 7.69183 16.7264 7.46347 16.6275C7.55742 16.4366 7.63019 16.2393 7.68176 16.0355C7.48512 15.8426 7.29803 15.6387 7.12048 15.4237C7.06748 15.3816 7.00729 15.3639 6.93994 15.3709C6.77119 15.4377 6.60244 15.5044 6.43369 15.5711C6.34298 15.3493 6.25756 15.1258 6.17745 14.9008C6.33504 14.8296 6.49512 14.7633 6.65766 14.702C6.69488 14.673 6.72973 14.6415 6.76219 14.6074C6.74469 14.3267 6.75192 14.0459 6.78387 13.7651C6.77376 13.7395 6.76364 13.7139 6.75353 13.6884C6.56563 13.5942 6.3745 13.5072 6.18016 13.4272C6.27908 13.1989 6.378 12.9705 6.47693 12.7422C6.66106 12.8262 6.84815 12.903 7.03818 12.9726C7.09802 12.9703 7.14714 12.945 7.18552 12.8966C7.34758 12.6948 7.53107 12.5158 7.73598 12.3596C7.73919 12.3228 7.7424 12.2861 7.7456 12.2493C7.6809 12.0857 7.61617 11.9221 7.55147 11.7584C7.54337 11.738 7.54955 11.7237 7.57001 11.7156C7.78677 11.6269 8.00512 11.5435 8.22504 11.4654C8.3003 11.6333 8.37059 11.8036 8.43595 11.9763C8.46343 12.001 8.4909 12.0256 8.51838 12.0502C8.79933 12.0228 9.08013 12.0301 9.36075 12.0719C9.39483 12.0637 9.4235 12.0464 9.44673 12.0201C9.53774 11.8394 9.62168 11.6554 9.69856 11.4682Z" fill="url(#paint2_linear_1833_3200)"/>
<path opacity="0.918" fill-rule="evenodd" clip-rule="evenodd" d="M3.48731 10.3781C4.05241 10.633 4.18208 11.0282 3.87632 11.5636C3.78886 11.6666 3.68339 11.7438 3.55988 11.7952C3.74978 12.7979 4.2377 13.628 5.02365 14.2854C5.09185 14.4168 5.05879 14.5126 4.92449 14.573C4.88387 14.5707 4.84357 14.5659 4.80354 14.5588C3.94082 13.8455 3.40877 12.9412 3.20738 11.8459C2.62497 11.6441 2.45594 11.2615 2.70028 10.6982C2.90037 10.4328 3.16272 10.3261 3.48731 10.3781ZM3.43383 10.7363C3.64689 10.8489 3.72433 11.0223 3.66614 11.2565C3.45177 11.533 3.22605 11.5453 2.98897 11.2937C2.86955 11.0215 2.94992 10.836 3.2301 10.737C3.30071 10.7301 3.36862 10.7298 3.43383 10.7363Z" fill="url(#paint3_linear_1833_3200)"/>
<path opacity="0.92" fill-rule="evenodd" clip-rule="evenodd" d="M6.85819 6.54021C7.48243 6.78863 7.81405 7.24589 7.85304 7.91194C7.77917 8.73157 7.34027 9.20675 6.5363 9.33742C5.79422 9.33702 5.29623 8.98993 5.04234 8.29612C4.90247 7.61219 5.12005 7.07081 5.69509 6.67198C6.06599 6.47228 6.45369 6.42836 6.85819 6.54021ZM6.74049 6.8706C6.09169 6.74725 5.64194 6.99311 5.39121 7.60821C5.26622 8.2792 5.5259 8.72648 6.1702 8.94999C6.8231 9.04632 7.25609 8.78046 7.46917 8.15245C7.55639 7.53929 7.31348 7.11199 6.74049 6.8706Z" fill="url(#paint4_linear_1833_3200)"/>
<path opacity="0.92" fill-rule="evenodd" clip-rule="evenodd" d="M9.34827 12.8312C10.2677 13.1902 10.5874 13.8414 10.3071 14.7849C9.88847 15.5654 9.25949 15.8142 8.42019 15.5311C7.74374 15.1812 7.47324 14.6318 7.6087 13.8828C7.90105 13.0463 8.4809 12.6958 9.34827 12.8312ZM9.23057 13.1616C8.58654 13.0886 8.15916 13.3611 7.94837 13.9791C7.85999 14.5958 8.10442 15.0195 8.68169 15.2503C9.32132 15.3831 9.76645 15.1479 10.0171 14.5448C10.156 13.8574 9.89385 13.3963 9.23057 13.1616Z" fill="url(#paint5_linear_1833_3200)"/>
<path opacity="0.952" fill-rule="evenodd" clip-rule="evenodd" d="M3.19445 0.00316883C6.16412 -0.00528142 9.13375 0.00316883 12.1033 0.0285206C13.259 0.175905 13.9318 0.877302 14.1217 2.13272C14.1527 9.04527 14.1527 15.9579 14.1217 22.8704C13.9921 24.0431 13.3967 24.7444 12.3353 24.9746C9.21105 25.0085 6.08672 25.0085 2.96245 24.9746C2.01124 24.7465 1.43123 24.1127 1.22243 23.0733C1.19148 16.0424 1.19148 9.01151 1.22243 1.9806C1.44719 0.796678 2.1045 0.137533 3.19445 0.00316883ZM3.19445 0.814425C6.17957 0.805972 9.1647 0.814425 12.1497 0.839776C12.8006 0.967995 13.2027 1.38208 13.3561 2.08201C9.55126 2.09046 5.74642 2.08201 1.94164 2.05666C2.1303 1.36275 2.5479 0.948672 3.19445 0.814425ZM1.94164 2.89327C5.76192 2.89327 9.58225 2.89327 13.4025 2.89327C13.4025 8.60588 13.4025 14.3184 13.4025 20.031C9.58225 20.031 5.76192 20.031 1.94164 20.031C1.94164 14.3184 1.94164 8.60588 1.94164 2.89327ZM1.94164 20.8423C5.76192 20.8423 9.58225 20.8423 13.4025 20.8423C13.4217 21.5885 13.3985 22.3322 13.3329 23.0733C13.1813 23.6615 12.8333 24.0249 12.2889 24.1634C9.21105 24.1972 6.13313 24.1972 3.05525 24.1634C2.47524 24.0028 2.11179 23.6056 1.96484 22.9718C1.94164 22.2622 1.93389 21.5524 1.94164 20.8423Z" fill="url(#paint6_linear_1833_3200)"/>
<path opacity="0.974" fill-rule="evenodd" clip-rule="evenodd" d="M6.85726 21.9796C7.3988 21.9716 7.94015 21.9796 8.48127 22.0036C8.76678 22.0739 8.86733 22.2578 8.78288 22.5554C8.75968 22.6433 8.70553 22.6993 8.62048 22.7233C7.97087 22.7553 7.32126 22.7553 6.67165 22.7233C6.4977 22.568 6.45905 22.3841 6.55565 22.1715C6.6388 22.0694 6.73931 22.0054 6.85726 21.9796Z" fill="url(#paint7_linear_1833_3200)"/>
<defs>
<linearGradient id="paint0_linear_1833_3200" x1="4.71565" y1="3.7111" x2="10.4006" y2="9.75847" gradientUnits="userSpaceOnUse">
<stop offset="0.11" stop-color="#60D7AD"/>
<stop offset="0.76" stop-color="#213C3A"/>
</linearGradient>
<linearGradient id="paint1_linear_1833_3200" x1="10.331" y1="7.44649" x2="13.4244" y2="10.9958" gradientUnits="userSpaceOnUse">
<stop offset="0.11" stop-color="#60D7AD"/>
<stop offset="0.76" stop-color="#213C3A"/>
</linearGradient>
<linearGradient id="paint2_linear_1833_3200" x1="7.20003" y1="10.0002" x2="12.8855" y2="16.0477" gradientUnits="userSpaceOnUse">
<stop offset="0.11" stop-color="#60D7AD"/>
<stop offset="0.76" stop-color="#213C3A"/>
</linearGradient>
<linearGradient id="paint3_linear_1833_3200" x1="2.90128" y1="10.1242" x2="6.001" y2="13.6737" gradientUnits="userSpaceOnUse">
<stop offset="0.11" stop-color="#60D7AD"/>
<stop offset="0.76" stop-color="#213C3A"/>
</linearGradient>
<linearGradient id="paint4_linear_1833_3200" x1="5.65233" y1="6.01673" x2="8.21288" y2="8.73605" gradientUnits="userSpaceOnUse">
<stop offset="0.11" stop-color="#60D7AD"/>
<stop offset="0.76" stop-color="#213C3A"/>
</linearGradient>
<linearGradient id="paint5_linear_1833_3200" x1="8.23049" y1="12.3449" x2="10.7877" y2="15.0615" gradientUnits="userSpaceOnUse">
<stop offset="0.11" stop-color="#60D7AD"/>
<stop offset="0.76" stop-color="#213C3A"/>
</linearGradient>
<linearGradient id="paint6_linear_1833_3200" x1="1.04414" y1="-9.75945e-07" x2="18.6711" y2="3.94194" gradientUnits="userSpaceOnUse">
<stop offset="0.11" stop-color="#60D7AD"/>
<stop offset="0.76" stop-color="#213C3A"/>
</linearGradient>
<linearGradient id="paint7_linear_1833_3200" x1="6.47626" y1="21.9766" x2="7.71107" y2="23.5733" gradientUnits="userSpaceOnUse">
<stop offset="0.11" stop-color="#60D7AD"/>
<stop offset="0.76" stop-color="#213C3A"/>
</linearGradient>
</defs>
</svg>
