<svg width="29" height="24" viewBox="0 0 29 24" fill="none" xmlns="http://www.w3.org/2000/svg">
<path opacity="0.926" fill-rule="evenodd" clip-rule="evenodd" d="M7.68865 0.0111291C11.083 -0.0188021 14.4723 0.0116406 17.8565 0.102457C19.7744 2.02035 21.6923 3.93824 23.6102 5.85613C23.7 7.57736 23.7304 9.30243 23.7015 11.0314C24.2292 11.0314 24.7568 11.0314 25.2845 11.0314C25.4307 10.2865 25.8771 9.82988 26.624 9.66147C27.978 9.51595 28.7493 10.1146 28.9377 11.4576C28.7268 12.872 27.915 13.4707 26.5022 13.2537C25.853 13.0409 25.4471 12.6046 25.2845 11.9447C24.7568 11.9447 24.2292 11.9447 23.7015 11.9447C23.7117 15.3949 23.7015 18.8451 23.6711 22.2952C23.4854 23.1912 22.9476 23.7493 22.0576 23.9695C17.2679 24.0102 12.4783 24.0102 7.68865 23.9695C6.79868 23.7493 6.26088 23.1912 6.07518 22.2952C6.04474 18.1144 6.03457 13.9336 6.04474 9.7528C5.51705 9.7528 4.98939 9.7528 4.46172 9.7528C4.29912 10.4127 3.89323 10.849 3.24401 11.0618C1.82112 11.2931 1.00932 10.6944 0.808594 9.26571C0.996973 7.92276 1.76818 7.32408 3.12224 7.46959C3.59449 7.57596 3.96995 7.82967 4.24862 8.23066C4.3725 8.41703 4.44354 8.62002 4.46172 8.83951C4.98939 8.83951 5.51705 8.83951 6.04474 8.83951C6.03457 6.46492 6.04474 4.09039 6.07518 1.71592C6.27209 0.818981 6.80989 0.250713 7.68865 0.0111291ZM7.81042 0.92441C10.8953 0.92441 14.2845 0.92441 17.3694 0.92441C17.3436 2.32689 17.3741 3.30107 17.4608 4.69931C17.699 5.44491 18.1963 5.92182 18.9524 6.13011C20.3324 6.16056 21.408 6.23161 22.7882 6.22144C22.7882 7.70297 22.7882 9.54986 22.7882 11.0314C21.3471 11.0212 19.9062 11.0314 18.4654 11.0618C18.2163 11.5699 17.9423 12.0671 17.6434 12.5535C16.1482 14.1126 14.4942 14.3054 12.6813 13.1319C12.4884 12.9391 12.2957 12.7463 12.1028 12.5535C11.804 12.0671 11.53 11.5699 11.2809 11.0618C10.8815 10.9233 10.6582 11.0553 10.6111 11.4576C11.0731 13.2082 12.1894 14.294 13.9598 14.715C16.3045 15.0244 17.9889 14.1213 19.0133 12.0056C20.271 11.9447 21.5293 11.9244 22.7882 11.9447C22.7984 15.3746 22.7882 18.8045 22.7578 22.2343C22.6462 22.6707 22.3722 22.9447 21.9358 23.0563C17.2274 23.0969 12.5189 23.0969 7.81042 23.0563C7.37405 22.9447 7.10007 22.6707 6.98846 22.2343C6.95802 18.0738 6.94785 13.9133 6.95802 9.7528C8.35851 9.76296 9.75887 9.7528 11.1591 9.72235C11.2506 9.68686 11.3317 9.63614 11.4027 9.57014C12.2061 7.3768 13.7485 6.53458 16.0299 7.04339C17.2329 7.52591 18.0244 8.38848 18.4045 9.63103C18.6683 9.79054 18.9017 9.74993 19.1047 9.50925C19.094 8.90905 18.9114 8.36108 18.5567 7.86535C17.1589 6.10071 15.3831 5.56284 13.2292 6.25188C12.0604 6.76107 11.2283 7.60336 10.7329 8.77863C9.47527 8.83951 8.21695 8.85979 6.95802 8.83951C6.94785 6.4852 6.95802 4.13094 6.98846 1.77681C7.11127 1.33956 7.38525 1.05542 7.81042 0.92441ZM18.2218 1.59415C19.5896 2.9315 20.7059 3.97672 22.0576 5.3386C20.9617 5.37921 20.1702 5.25744 19.0742 5.21683C18.6253 5.05975 18.3716 4.74521 18.3132 4.27311C18.2827 3.23824 18.2117 2.62938 18.2218 1.59415ZM2.39161 8.35243C3.4428 8.33764 3.79796 8.82472 3.45711 9.81368C3.02793 10.3131 2.55099 10.3638 2.0263 9.96589C1.55066 9.29238 1.67243 8.75452 2.39161 8.35243ZM26.7458 10.5443C27.4621 10.4494 27.8883 10.7539 28.0244 11.4576C27.8474 12.2868 27.3604 12.5608 26.5631 12.2795C26.1117 11.8963 26.0204 11.4396 26.2891 10.9096C26.4179 10.75 26.5701 10.6283 26.7458 10.5443Z" fill="url(#paint0_linear_1992_1364)"/>
<path opacity="0.899" fill-rule="evenodd" clip-rule="evenodd" d="M16.762 8.59552C17.309 8.56379 17.5018 8.80734 17.3404 9.32614C16.4152 10.2716 15.4715 11.1951 14.5092 12.0964C14.3184 12.1445 14.1357 12.1243 13.9612 12.0355C13.4013 11.4959 12.8634 10.9378 12.3478 10.3612C12.297 9.92483 12.4898 9.73206 12.9262 9.78278C13.3828 10.1988 13.8395 10.6149 14.2961 11.0309C15.1117 10.2052 15.9336 9.39336 16.762 8.59552Z" fill="url(#paint1_linear_1992_1364)"/>
<path opacity="0.922" fill-rule="evenodd" clip-rule="evenodd" d="M9.57557 16.2069C12.6402 16.1968 15.7048 16.2069 18.7693 16.2374C19.0254 16.4243 19.0761 16.6577 18.9215 16.9376C18.8502 17.0224 18.7589 17.0732 18.6475 17.0898C15.6641 17.1304 12.6807 17.1304 9.69734 17.0898C9.46738 17.0423 9.34561 16.9003 9.33203 16.6636C9.35803 16.4795 9.43925 16.3273 9.57557 16.2069Z" fill="url(#paint2_linear_1992_1364)"/>
<path opacity="0.983" fill-rule="evenodd" clip-rule="evenodd" d="M9.57577 18.5204C11.6054 18.5102 13.6349 18.5204 15.6643 18.5509C15.989 18.8147 15.989 19.0786 15.6643 19.3424C13.6348 19.383 11.6053 19.383 9.57577 19.3424C9.25599 19.0687 9.25599 18.7948 9.57577 18.5204Z" fill="url(#paint3_linear_1992_1364)"/>
<path opacity="0.918" fill-rule="evenodd" clip-rule="evenodd" d="M9.6994 20.7733C11.5261 20.7632 13.3526 20.7733 15.1791 20.8038C15.495 20.9811 15.5661 21.2349 15.3922 21.5649C15.3465 21.603 15.2957 21.6334 15.24 21.6562C13.3525 21.6968 11.4651 21.6968 9.57763 21.6562C9.22943 21.2981 9.27004 21.0038 9.6994 20.7733Z" fill="url(#paint4_linear_1992_1364)"/>
<path opacity="0.92" fill-rule="evenodd" clip-rule="evenodd" d="M18.8678 18.3982C20.3588 18.3368 21.0996 19.0471 21.0901 20.5292C20.708 21.8639 19.8455 22.3408 18.5025 21.96C17.437 21.3428 17.1427 20.46 17.6197 19.3115C17.9182 18.8337 18.3342 18.5293 18.8678 18.3982ZM18.9896 19.3115C18.843 19.3853 18.701 19.4766 18.5634 19.5855C18.1152 20.3018 18.2776 20.8295 19.0505 21.1685C19.6358 21.2259 20.0112 20.9722 20.1769 20.4074C20.1661 19.6359 19.7704 19.2706 18.9896 19.3115Z" fill="url(#paint5_linear_1992_1364)"/>
<defs>
<linearGradient id="paint0_linear_1992_1364" x1="0.471631" y1="-9.36907e-07" x2="32.4857" y2="16.2043" gradientUnits="userSpaceOnUse">
<stop offset="0.11" stop-color="#60D7AD"/>
<stop offset="0.76" stop-color="#213C3A"/>
</linearGradient>
<linearGradient id="paint1_linear_1992_1364" x1="12.2793" y1="8.59277" x2="17.5065" y2="11.8268" gradientUnits="userSpaceOnUse">
<stop offset="0.11" stop-color="#60D7AD"/>
<stop offset="0.76" stop-color="#213C3A"/>
</linearGradient>
<linearGradient id="paint2_linear_1992_1364" x1="9.21611" y1="16.2031" x2="9.85179" y2="19.0997" gradientUnits="userSpaceOnUse">
<stop offset="0.11" stop-color="#60D7AD"/>
<stop offset="0.76" stop-color="#213C3A"/>
</linearGradient>
<linearGradient id="paint3_linear_1992_1364" x1="9.25721" y1="18.5166" x2="10.041" y2="21.1147" gradientUnits="userSpaceOnUse">
<stop offset="0.11" stop-color="#60D7AD"/>
<stop offset="0.76" stop-color="#213C3A"/>
</linearGradient>
<linearGradient id="paint4_linear_1992_1364" x1="9.27019" y1="20.7695" x2="10.208" y2="23.4814" gradientUnits="userSpaceOnUse">
<stop offset="0.11" stop-color="#60D7AD"/>
<stop offset="0.76" stop-color="#213C3A"/>
</linearGradient>
<linearGradient id="paint5_linear_1992_1364" x1="17.3542" y1="18.3945" x2="21.8029" y2="20.3155" gradientUnits="userSpaceOnUse">
<stop offset="0.11" stop-color="#60D7AD"/>
<stop offset="0.76" stop-color="#213C3A"/>
</linearGradient>
</defs>
</svg>
