<svg width="28" height="24" viewBox="0 0 28 24" fill="none" xmlns="http://www.w3.org/2000/svg">
<path opacity="0.897" fill-rule="evenodd" clip-rule="evenodd" d="M22.6103 0.0231045C25.2557 -0.181032 26.9905 0.96755 27.815 3.46894C28.1787 5.41763 27.5924 7.00895 26.0562 8.24285C24.2854 9.34358 22.5146 9.34358 20.7438 8.24285C18.7734 6.55073 18.3547 4.52875 19.4876 2.17675C20.2332 1.02103 21.2741 0.303143 22.6103 0.0231045ZM22.8257 0.812774C22.9212 1.36109 22.9691 1.9354 22.9693 2.53569C22.9454 3.11 22.9214 3.6843 22.8975 4.25861C21.8573 4.68503 20.8044 5.06787 19.7388 5.40722C19.483 2.99657 20.512 1.46511 22.8257 0.812774ZM23.8307 0.812774C25.6725 1.171 26.7733 2.27173 27.133 4.11503C26.0321 4.19909 24.9314 4.19909 23.8307 4.11503C23.8307 3.0143 23.8307 1.9135 23.8307 0.812774ZM23.4718 4.9047C24.6668 4.96995 25.8632 4.99386 27.0612 4.97649C26.8523 6.44197 26.0626 7.45899 24.6922 8.02748C22.7167 8.58262 21.1852 7.99633 20.0977 6.26867C21.2214 5.79875 22.3461 5.34404 23.4718 4.9047Z" fill="url(#paint0_linear_1989_1268)"/>
<path opacity="0.898" fill-rule="evenodd" clip-rule="evenodd" d="M2.2963 2.96438C3.68268 2.92691 4.31678 3.5969 4.19869 4.97445C4.16638 5.11939 4.10658 5.25098 4.01922 5.36928C5.41076 6.89564 6.81063 8.41511 8.21883 9.92783C9.00038 9.55209 9.69436 9.67176 10.3007 10.2868C11.4646 9.7228 12.6251 9.1485 13.7824 8.56386C13.7282 7.14647 14.3982 6.46448 15.7925 6.51789C16.8318 6.9095 17.1907 7.63937 16.8693 8.70743C18.2181 9.82848 19.5581 10.9652 20.8894 12.1174C21.0562 12.0954 21.2237 12.0476 21.392 11.9738C22.5643 11.8173 23.2344 12.3198 23.402 13.4813C23.2482 14.6166 22.6021 15.143 21.4637 15.0607C20.8607 14.9122 20.4658 14.5414 20.2792 13.948C20.2234 13.5277 20.2473 13.121 20.351 12.7276C18.9977 11.6199 17.6577 10.4953 16.3309 9.35353C15.6258 9.76631 14.9557 9.7185 14.3208 9.20995C13.1268 9.83688 11.9184 10.4351 10.6955 11.0047C10.6989 12.1256 10.1485 12.7477 9.04439 12.8711C8.24826 12.8147 7.73375 12.408 7.50094 11.6507C7.46361 11.2362 7.48752 10.8293 7.57273 10.4303C6.1799 8.94211 4.79202 7.45846 3.40902 5.97948C2.56725 6.29686 1.8733 6.1054 1.32716 5.40518C0.836827 4.25743 1.15987 3.44385 2.2963 2.96438ZM2.51167 3.75405C3.33845 3.8524 3.58971 4.28313 3.26544 5.04624C2.5836 5.50087 2.11698 5.33332 1.86557 4.54372C1.95575 4.16741 2.17111 3.90416 2.51167 3.75405ZM15.29 7.27167C16.0054 7.35143 16.2806 7.73434 16.1155 8.42028C15.7299 8.91885 15.2991 8.96673 14.8233 8.56386C14.5163 7.95868 14.6719 7.52795 15.29 7.27167ZM8.82903 10.5021C9.63011 10.5029 9.92925 10.8858 9.72638 11.6507C9.27203 12.2089 8.8174 12.2089 8.3624 11.6507C8.18882 11.1299 8.34438 10.747 8.82903 10.5021ZM21.6073 12.7276C22.4113 12.7777 22.6866 13.1845 22.4329 13.948C22.1129 14.3362 21.7419 14.396 21.3202 14.1274C20.8812 13.5414 20.9769 13.0748 21.6073 12.7276Z" fill="url(#paint1_linear_1989_1268)"/>
<path opacity="0.897" fill-rule="evenodd" clip-rule="evenodd" d="M1.15287 8.70762C2.18211 8.69563 3.21107 8.70762 4.23976 8.74352C4.32598 8.80834 4.38585 8.89205 4.41923 8.99477C4.46711 13.9003 4.46711 18.8058 4.41923 23.7113C4.38585 23.8141 4.32598 23.8978 4.23976 23.9626C3.18686 24.0105 2.13397 24.0105 1.08108 23.9626C1.04518 23.9267 1.00929 23.8908 0.973396 23.8549C0.925535 18.8776 0.925535 13.9003 0.973396 8.92299C1.0235 8.83749 1.08333 8.7657 1.15287 8.70762ZM1.72717 9.49729C2.34934 9.49729 2.9715 9.49729 3.59366 9.49729C3.59366 14.0678 3.59366 18.6383 3.59366 23.2088C2.9715 23.2088 2.34934 23.2088 1.72717 23.2088C1.72717 18.6383 1.72717 14.0678 1.72717 9.49729Z" fill="url(#paint2_linear_1989_1268)"/>
<path opacity="0.9" fill-rule="evenodd" clip-rule="evenodd" d="M13.856 11.5807C14.9091 11.5687 15.9621 11.5807 17.0147 11.6166C17.0506 11.6525 17.0865 11.6884 17.1224 11.7242C17.1703 15.7683 17.1703 19.8124 17.1224 23.8564C17.0865 23.8923 17.0506 23.9282 17.0147 23.9641C15.9618 24.012 14.9089 24.012 13.856 23.9641C13.7698 23.8993 13.7099 23.8156 13.6765 23.7129C13.6287 19.7645 13.6287 15.8162 13.6765 11.8678C13.7241 11.7613 13.7839 11.6656 13.856 11.5807ZM14.5021 12.3703C15.1243 12.3703 15.7464 12.3703 16.3686 12.3703C16.3686 15.9837 16.3686 19.597 16.3686 23.2104C15.7464 23.2104 15.1243 23.2104 14.5021 23.2104C14.5021 19.597 14.5021 15.9837 14.5021 12.3703Z" fill="url(#paint3_linear_1989_1268)"/>
<path opacity="0.925" fill-rule="evenodd" clip-rule="evenodd" d="M7.6153 13.8775C8.57273 13.8656 9.52996 13.8775 10.4868 13.9134C10.5896 13.9468 10.6733 14.0067 10.7381 14.0929C10.786 17.3473 10.786 20.6017 10.7381 23.8561C10.7022 23.892 10.6663 23.9279 10.6304 23.9638C9.57748 24.0117 8.52464 24.0117 7.47172 23.9638C7.43583 23.9279 7.39993 23.892 7.36404 23.8561C7.31615 20.6017 7.31615 17.3473 7.36404 14.0929C7.44623 14.0114 7.53001 13.9396 7.6153 13.8775ZM8.11781 14.739C8.74 14.739 9.36212 14.739 9.98431 14.739C9.98431 17.5626 9.98431 20.3864 9.98431 23.21C9.36212 23.21 8.74 23.21 8.11781 23.21C8.11781 20.3864 8.11781 17.5626 8.11781 14.739Z" fill="url(#paint4_linear_1989_1268)"/>
<path opacity="0.902" fill-rule="evenodd" clip-rule="evenodd" d="M20.2388 16.3883C21.268 16.3763 22.2971 16.3883 23.3257 16.4242C23.4095 16.4601 23.4693 16.5199 23.5052 16.6037C23.5531 19.0205 23.5531 21.4374 23.5052 23.8543C23.4693 23.8901 23.4334 23.926 23.3975 23.9619C22.3446 24.0098 21.2917 24.0098 20.2388 23.9619C20.155 23.926 20.0952 23.8662 20.0593 23.7825C20.0115 21.4135 20.0115 19.0444 20.0593 16.6754C20.1069 16.5689 20.1667 16.4732 20.2388 16.3883ZM20.8849 17.178C21.5071 17.178 22.1292 17.178 22.7514 17.178C22.7514 19.188 22.7514 21.1981 22.7514 23.2082C22.1292 23.2082 21.5071 23.2082 20.8849 23.2082C20.8849 21.1981 20.8849 19.188 20.8849 17.178Z" fill="url(#paint5_linear_1989_1268)"/>
<defs>
<linearGradient id="paint0_linear_1989_1268" x1="18.7587" y1="-3.5401e-07" x2="29.6725" y2="4.70482" gradientUnits="userSpaceOnUse">
<stop offset="0.11" stop-color="#60D7AD"/>
<stop offset="0.76" stop-color="#213C3A"/>
</linearGradient>
<linearGradient id="paint1_linear_1989_1268" x1="0.838375" y1="2.96289" x2="20.3634" y2="18.4928" gradientUnits="userSpaceOnUse">
<stop offset="0.11" stop-color="#60D7AD"/>
<stop offset="0.76" stop-color="#213C3A"/>
</linearGradient>
<linearGradient id="paint2_linear_1989_1268" x1="0.895362" y1="8.70312" x2="5.8754" y2="9.19774" gradientUnits="userSpaceOnUse">
<stop offset="0.11" stop-color="#60D7AD"/>
<stop offset="0.76" stop-color="#213C3A"/>
</linearGradient>
<linearGradient id="paint3_linear_1989_1268" x1="13.5985" y1="11.5762" x2="18.5536" y2="12.1821" gradientUnits="userSpaceOnUse">
<stop offset="0.11" stop-color="#60D7AD"/>
<stop offset="0.76" stop-color="#213C3A"/>
</linearGradient>
<linearGradient id="paint4_linear_1989_1268" x1="7.28685" y1="13.873" x2="12.1093" y2="14.5817" gradientUnits="userSpaceOnUse">
<stop offset="0.11" stop-color="#60D7AD"/>
<stop offset="0.76" stop-color="#213C3A"/>
</linearGradient>
<linearGradient id="paint5_linear_1989_1268" x1="19.9813" y1="16.3838" x2="24.8179" y2="17.3488" gradientUnits="userSpaceOnUse">
<stop offset="0.11" stop-color="#60D7AD"/>
<stop offset="0.76" stop-color="#213C3A"/>
</linearGradient>
</defs>
</svg>
