<svg width="25" height="24" viewBox="0 0 25 24" fill="none" xmlns="http://www.w3.org/2000/svg">
<path opacity="0.937" fill-rule="evenodd" clip-rule="evenodd" d="M12.4319 0C12.6414 0.0196864 12.8465 0.0624232 13.0472 0.1282C14.2991 1.03189 15.5554 1.92929 16.8163 2.8204C16.8334 2.35888 16.8505 1.89736 16.8676 1.43584C17.0067 0.988992 17.3058 0.724043 17.765 0.641C18.688 0.606812 19.6111 0.606812 20.5341 0.641C21.0896 0.71792 21.4059 1.03415 21.4828 1.58968C21.4999 3.12808 21.517 4.66648 21.5341 6.20488C22.595 6.94906 23.6377 7.71826 24.6622 8.51248C24.9454 9.08005 24.8172 9.53301 24.2776 9.8714C23.649 9.9452 23.0165 9.97084 22.3802 9.94833C22.3888 14.2046 22.3802 18.4609 22.3545 22.7171C22.2923 22.7965 22.2154 22.8563 22.1238 22.8965C20.2778 22.9222 18.4317 22.9307 16.5855 22.9222C16.5335 23.4102 16.2771 23.7435 15.8163 23.9221C14.7581 23.9798 13.6984 24.0054 12.637 23.9991C11.5756 24.0054 10.5158 23.9798 9.45762 23.9221C8.99723 23.744 8.74083 23.4107 8.68842 22.9222C6.80809 22.9307 4.9278 22.9222 3.04762 22.8965C2.93651 22.8538 2.85959 22.7769 2.81686 22.6658C2.79122 18.4267 2.78267 14.1875 2.79122 9.94833C2.10727 9.95689 1.42354 9.94833 0.74002 9.92268C0.261603 9.76064 0.0308428 9.42732 0.0477396 8.92272C0.0701951 8.77524 0.121475 8.63848 0.20158 8.51248C4.12735 5.69783 8.06737 2.90304 12.0216 0.1282C12.1657 0.0880837 12.3025 0.0453521 12.4319 0ZM12.3806 0.92304C12.4845 0.914728 12.5871 0.923271 12.6883 0.94868C14.0386 1.923 15.389 2.89732 16.7394 3.87164C16.9076 3.98893 17.0871 4.08292 17.2778 4.15368C17.4734 4.12902 17.6101 4.02646 17.6881 3.846C17.7051 3.11099 17.7223 2.37597 17.7393 1.64096C17.7551 1.59952 17.7808 1.56534 17.8163 1.5384C18.7028 1.47931 19.5917 1.47076 20.4828 1.51276C20.5444 1.55904 20.5872 1.61887 20.611 1.69224C20.6281 3.3332 20.6452 4.97416 20.6623 6.61512C21.7478 7.42704 22.8331 8.23901 23.9186 9.05092C23.252 9.068 22.5853 9.08513 21.9187 9.1022C21.7111 9.12174 21.5829 9.23281 21.5341 9.43552C21.5084 13.6404 21.4999 17.8454 21.5084 22.0504C20.9614 22.0504 20.4145 22.0504 19.8675 22.0504C19.876 17.2984 19.8675 12.5465 19.8418 7.79456C19.785 7.67585 19.6909 7.59893 19.5598 7.5638C18.7046 7.55524 17.85 7.5296 16.9958 7.48688C16.6791 6.77291 16.1321 6.47374 15.3548 6.58948C14.4389 6.89116 14.0885 7.51509 14.3036 8.4612C14.7292 9.33845 15.4044 9.60336 16.3291 9.25604C16.6586 9.05523 16.8808 8.77319 16.9958 8.40992C17.6624 8.40992 18.3291 8.40992 18.9957 8.40992C18.9957 12.9568 18.9957 17.5036 18.9957 22.0504C18.1923 22.0504 17.389 22.0504 16.5855 22.0504C16.5941 21.3836 16.5855 20.7169 16.5599 20.0505C16.4754 19.7615 16.313 19.5308 16.0727 19.3582C16.5265 18.6466 16.7743 17.8688 16.8163 17.025C16.8505 15.743 16.8505 14.461 16.8163 13.179C16.7242 12.292 16.237 11.7792 15.3548 11.6406C15.2021 11.0178 14.8089 10.6503 14.1754 10.538C13.9361 10.521 13.6968 10.5038 13.4575 10.4868C13.0211 9.91633 12.44 9.66849 11.7139 9.74321C11.7225 9.008 11.7139 8.27295 11.6883 7.53816C11.6227 7.09644 11.3748 6.8144 10.9447 6.69204C10.5687 6.65784 10.1926 6.65784 9.81658 6.69204C9.26676 6.92798 9.02749 7.34679 9.09866 7.9484C9.15876 9.72577 9.1844 11.5035 9.17558 13.2815C8.53628 12.9528 7.95512 13.0383 7.43206 13.5379C7.19018 13.9763 7.1389 14.4378 7.27822 14.9225C7.54744 15.7898 7.80384 16.6615 8.04742 17.5378C8.30367 18.2302 8.67119 18.854 9.14994 19.4095C8.92631 19.5656 8.78104 19.7793 8.71406 20.0505C8.68842 20.7169 8.67986 21.3836 8.68842 22.0504C7.01326 22.0504 5.33815 22.0504 3.66298 22.0504C3.67153 17.8454 3.66298 13.6404 3.63734 9.43552C3.58849 9.23281 3.46029 9.12174 3.25274 9.1022C2.48354 9.08513 1.71434 9.068 0.94514 9.05092C4.76037 6.34052 8.57217 3.63122 12.3806 0.92304ZM15.4574 7.4356C16.0305 7.40135 16.2613 7.65775 16.1497 8.2048C16 8.48813 15.7692 8.58212 15.4574 8.48684C14.9814 8.13896 14.9814 7.78851 15.4574 7.4356ZM10.0217 7.53816C10.2616 7.52965 10.5009 7.53822 10.7396 7.5638C10.7653 7.58944 10.7909 7.61508 10.8165 7.64072C10.8518 9.89705 10.8859 12.1534 10.9191 14.4097C10.8851 14.8841 11.0987 15.0636 11.5601 14.9481C11.6788 14.8913 11.7557 14.7972 11.7909 14.6661C11.7871 13.3214 11.7614 11.9795 11.7139 10.6406C12.4251 10.5231 12.7841 10.8222 12.7908 11.538C12.7365 12.4093 12.7279 13.281 12.7652 14.1533C12.8859 14.4402 13.0996 14.5342 13.4062 14.4353C13.5002 14.4097 13.56 14.3498 13.5857 14.2558C13.5991 13.2979 13.6247 12.3406 13.6626 11.3842C13.9908 11.3311 14.2558 11.4337 14.4574 11.6918C14.4394 12.5461 14.4394 13.4008 14.4574 14.2558C14.609 14.4495 14.8055 14.5093 15.0471 14.4353C15.1659 14.3785 15.2428 14.2844 15.2779 14.1533C15.3035 13.6237 15.3121 13.0938 15.3035 12.5636C15.7021 12.6292 15.9158 12.8686 15.9445 13.2815C15.9788 14.5293 15.9788 15.7772 15.9445 17.025C15.9179 17.4145 15.8324 17.7905 15.6881 18.1531C15.5257 18.4779 15.3634 18.8027 15.201 19.1274C14.3634 19.1445 13.5258 19.1617 12.6883 19.1787C11.812 19.1866 10.9402 19.1609 10.073 19.1018C9.58521 18.6478 9.21774 18.1093 8.97046 17.4865C8.65196 16.458 8.3528 15.4239 8.07306 14.384C8.10383 14.0369 8.29182 13.9002 8.63714 13.9738C8.97508 14.2645 9.18876 14.632 9.27814 15.0763C9.42968 15.27 9.62623 15.3298 9.86786 15.2558C9.98658 15.1989 10.0635 15.1049 10.0986 14.9738C10.0745 12.6922 10.0318 10.4102 9.97042 8.12788C9.97412 7.92876 9.99119 7.73216 10.0217 7.53816ZM9.71402 20.0505C11.6627 20.0419 13.6114 20.0505 15.5599 20.0761C15.6027 20.1188 15.6454 20.1616 15.6881 20.2043C15.7224 21.1103 15.7224 22.0162 15.6881 22.9222C15.6547 23.0362 15.5778 23.096 15.4574 23.1017C13.5227 23.152 11.5912 23.1349 9.66274 23.0504C9.63064 23.0119 9.605 22.9691 9.58582 22.9222C9.55162 22.0333 9.55162 21.1444 9.58582 20.2556C9.61977 20.1795 9.66254 20.1112 9.71402 20.0505Z" fill="url(#paint0_linear_1992_1345)"/>
<path opacity="0.938" fill-rule="evenodd" clip-rule="evenodd" d="M5.39381 9.07645C6.19736 9.06789 7.00077 9.07645 7.80397 9.10209C7.98006 9.1805 8.06549 9.31727 8.06037 9.51233C8.06508 9.65664 8.0138 9.77627 7.90653 9.87129C7.27794 9.94509 6.6455 9.97073 6.00917 9.94821C5.99209 12.5295 6.00917 15.1106 6.06045 17.6915C6.77416 18.0076 7.07328 18.5546 6.95785 19.3325C6.71386 20.1683 6.15829 20.5357 5.29124 20.435C4.31371 20.1124 3.9633 19.4543 4.24 18.4607C4.43436 18.0779 4.73352 17.8215 5.1374 17.6915C5.12884 14.9052 5.1374 12.119 5.16304 9.33285C5.21561 9.22071 5.29253 9.13522 5.39381 9.07645ZM5.49637 18.4607C5.06284 18.6102 4.93464 18.9008 5.11176 19.3325C5.38534 19.647 5.6759 19.6641 5.98353 19.3837C6.21459 18.8717 6.05219 18.564 5.49637 18.4607Z" fill="url(#paint1_linear_1992_1345)"/>
<defs>
<linearGradient id="paint0_linear_1992_1345" x1="-0.249747" y1="-9.36907e-07" x2="29.2877" y2="13.1609" gradientUnits="userSpaceOnUse">
<stop offset="0.11" stop-color="#60D7AD"/>
<stop offset="0.76" stop-color="#213C3A"/>
</linearGradient>
<linearGradient id="paint1_linear_1992_1345" x1="4.10157" y1="9.07324" x2="9.5742" y2="9.88589" gradientUnits="userSpaceOnUse">
<stop offset="0.11" stop-color="#60D7AD"/>
<stop offset="0.76" stop-color="#213C3A"/>
</linearGradient>
</defs>
</svg>
