<svg width="24" height="24" viewBox="0 0 24 24" fill="none" xmlns="http://www.w3.org/2000/svg">
<path opacity="0.93" fill-rule="evenodd" clip-rule="evenodd" d="M19.0399 0.0190273C19.4088 -0.0406063 19.739 0.0399337 20.0305 0.260647C21.0253 1.97634 22.008 3.69989 22.9783 5.4313C23.0978 5.78547 23.0656 6.12374 22.8816 6.4461C22.4243 6.78365 21.933 7.06552 21.4078 7.29177C21.0646 7.34904 20.7666 7.26041 20.5138 7.02599C20.4205 6.85492 20.3157 6.69381 20.1997 6.54275C19.2411 7.1107 18.2746 7.66643 17.3002 8.20993C16.7611 8.45541 16.1973 8.53597 15.6089 8.45155C14.8488 8.20355 14.0917 7.94579 13.3377 7.67836C12.7567 7.51715 12.1768 7.35609 11.598 7.19512C11.0105 6.78582 10.785 6.2301 10.9215 5.52795C9.73934 6.20289 8.56347 6.88749 7.39384 7.58172C6.8603 7.918 6.28041 8.10323 5.65418 8.13744C4.86447 8.16102 4.37317 7.79057 4.18031 7.02599C4.07166 6.43716 4.24081 5.94586 4.68771 5.55211C6.89451 4.17477 9.11741 2.8217 11.3564 1.49291C11.8284 1.3378 12.3117 1.28947 12.8061 1.34793C14.2738 1.72694 15.7396 2.11353 17.2036 2.50771C17.4495 2.54604 17.6589 2.47356 17.8318 2.29025C17.4625 1.85713 17.4061 1.39 17.6627 0.888857C17.7532 0.782115 17.8579 0.693522 17.9768 0.623076C18.342 0.432636 18.6964 0.23129 19.0399 0.0190273ZM19.2815 0.840533C19.3454 0.832318 19.4018 0.848429 19.4507 0.888857C20.3566 2.52359 21.2747 4.1505 22.2051 5.76957C22.2382 5.83162 22.2301 5.88801 22.181 5.9387C21.865 6.13359 21.5429 6.31882 21.2145 6.49443C20.2324 4.85282 19.2739 3.19369 18.3392 1.51707C18.303 1.46222 18.311 1.4139 18.3634 1.3721C18.6804 1.20582 18.9864 1.02863 19.2815 0.840533ZM11.9846 2.14528C12.2268 2.13726 12.4684 2.14531 12.7095 2.16944C14.2236 2.57214 15.7378 2.97484 17.2519 3.37754C17.6316 3.40148 17.9618 3.28067 18.2426 3.01511C18.7722 3.9374 19.2957 4.86359 19.8131 5.79373C18.8384 6.3697 17.8558 6.9335 16.8653 7.48507C16.5093 7.64053 16.1388 7.68885 15.7539 7.63004C14.4984 7.16855 13.2259 6.76586 11.9363 6.42194C11.6563 6.07923 11.6885 5.77319 12.0329 5.50379C12.1215 5.49572 12.2101 5.4877 12.2987 5.47963C13.0569 5.62489 13.8059 5.81011 14.5458 6.03535C15.0737 6.07517 15.2348 5.84964 15.029 5.35882C14.0838 5.02587 13.1173 4.76811 12.1296 4.58563C11.5 4.48565 10.9039 4.5823 10.3416 4.87558C9.1092 5.61261 7.86892 6.33747 6.62066 7.05015C6.22788 7.26921 5.80911 7.34971 5.36424 7.29177C5.04395 7.1424 4.92314 6.89276 5.00181 6.54275C5.03714 6.42682 5.09353 6.32215 5.17094 6.22865C7.19253 5.00045 9.20604 3.76014 11.2114 2.50771C11.458 2.35352 11.7157 2.23271 11.9846 2.14528Z" fill="url(#paint0_linear_1992_1344)"/>
<path opacity="0.935" fill-rule="evenodd" clip-rule="evenodd" d="M12.273 7.65429C12.3869 7.64642 12.4997 7.65444 12.6113 7.67845C14.5457 8.64571 16.4787 9.61218 18.4101 10.5779C18.7967 10.9645 18.7967 11.3511 18.4101 11.7377C18.1477 11.8442 17.8738 11.8845 17.5886 11.8585C17.5886 13.1954 17.5886 14.5324 17.5886 15.8694C18.2699 15.8435 18.729 16.1495 18.9659 16.7875C19.1755 17.5208 18.9741 18.1088 18.3618 18.5513C16.1953 19.8843 14.0207 21.2052 11.8381 22.5139C11.3661 22.669 10.8828 22.7173 10.3884 22.6589C8.85767 22.2742 7.33547 21.8634 5.82177 21.4266C5.66231 21.5137 5.50926 21.6103 5.3627 21.7165C5.73204 22.1497 5.78843 22.6168 5.53183 23.1179C5.10909 23.4544 4.65002 23.7362 4.1546 23.9636C3.57764 24.0899 3.16689 23.8885 2.92234 23.3596C2.03253 21.757 1.13048 20.1623 0.216205 18.5755C0.0259104 18.0646 0.14672 17.6539 0.578634 17.3432C0.933008 17.1499 1.28739 16.9566 1.64176 16.7633C2.01761 16.6359 2.35588 16.7003 2.65656 16.9566C2.76396 17.1317 2.87671 17.3008 2.99483 17.464C3.92119 16.9122 4.85544 16.3726 5.79761 15.8452C6.26751 15.6014 6.76689 15.4967 7.29565 15.5311C7.29565 14.3069 7.29565 13.0827 7.29565 11.8585C7.01045 11.8845 6.73664 11.8442 6.47415 11.7377C6.05011 11.2641 6.09843 10.8453 6.61912 10.4812C7.2049 10.2125 7.78479 9.93064 8.35878 9.63557C8.74528 9.43689 8.93858 9.36979 9.32517 9.1765C9.39765 9.12817 9.48459 9.09932 9.54262 9.05569C10.1467 8.76574 9.80841 8.93488 10.3883 8.64493C10.6058 8.52412 10.4152 8.62077 10.6058 8.52412C11.1683 8.23891 11.7241 7.94897 12.273 7.65429ZM12.418 8.52412C14.0979 9.33993 15.7731 10.1695 17.4437 11.0128C17.1506 10.9708 16.9332 11.0754 16.7913 11.3269C16.7671 12.8893 16.7591 14.4518 16.7671 16.0143C16.4298 16.1104 16.1076 16.2473 15.8007 16.4251C14.631 17.1193 13.4552 17.8039 12.273 18.4788C12.1935 17.0223 12.1533 15.5565 12.1522 14.0814C12.1297 14.0122 12.0894 13.9559 12.0314 13.9122C11.0531 13.8328 10.0706 13.8167 9.08364 13.8639C8.9579 13.9091 8.88541 13.9977 8.86618 14.1297C8.85811 14.7424 8.83395 15.3545 8.79369 15.966C8.58049 15.895 8.3711 15.8144 8.16548 15.7244C8.12523 14.2588 8.10107 12.793 8.093 11.3269C7.95112 11.0754 7.73366 10.9708 7.44063 11.0128C9.10417 10.181 10.7633 9.35148 12.418 8.52412ZM9.66352 14.6613C10.2273 14.6613 10.7911 14.6613 11.3549 14.6613C11.3549 15.3378 11.3549 16.0143 11.3549 16.6909C10.7843 16.5999 10.2285 16.4549 9.68769 16.2559C9.66352 15.7246 9.65545 15.1931 9.66352 14.6613ZM6.76409 16.3526C6.9902 16.3446 7.21568 16.3526 7.44063 16.3768C8.69613 16.8382 9.96864 17.2409 11.2582 17.5848C11.5382 17.9276 11.506 18.2336 11.1616 18.503C10.9844 18.5352 10.8072 18.5352 10.63 18.503C9.9137 18.3139 9.19691 18.1286 8.47959 17.9473C8.08676 18.0241 7.97402 18.2496 8.14132 18.6238C9.08982 18.9758 10.0644 19.2415 11.0649 19.4212C11.6153 19.4961 12.1469 19.4316 12.6596 19.2279C13.94 18.4991 15.2126 17.7581 16.4772 17.005C16.8964 16.7552 17.3474 16.6585 17.8303 16.715C18.2109 16.9094 18.3156 17.2074 18.1444 17.609C18.0982 17.6612 18.0579 17.7175 18.0236 17.7781C15.8973 19.0829 13.7711 20.3876 11.6448 21.6924C11.2715 21.8456 10.885 21.8939 10.485 21.8374C8.9709 21.4347 7.45672 21.0319 5.94258 20.6293C5.56286 20.6053 5.23266 20.7261 4.95195 20.9917C4.44677 20.0537 3.92328 19.1275 3.38142 18.2131C4.47779 17.5281 5.60533 16.908 6.76409 16.3526ZM1.9317 17.5124C2.03433 17.538 2.10681 17.6025 2.14916 17.7057C3.04702 19.3243 3.95713 20.9351 4.87946 22.538C4.58343 22.775 4.2613 22.9763 3.91298 23.1421C3.85094 23.1752 3.79456 23.1671 3.74385 23.1179C2.83793 21.4832 1.91978 19.8563 0.989387 18.2372C0.956343 18.1752 0.964399 18.1188 1.01355 18.0681C1.32787 17.8894 1.63392 17.7042 1.9317 17.5124Z" fill="url(#paint1_linear_1992_1344)"/>
<path opacity="0.946" fill-rule="evenodd" clip-rule="evenodd" d="M12.9907 11.0591C13.9298 11.0391 14.8651 11.06 15.7966 11.1219C15.8469 11.1598 15.8819 11.2086 15.9013 11.2685C15.9293 11.9386 15.9293 12.6087 15.9013 13.2788C15.8525 13.3276 15.8036 13.3765 15.7547 13.4253C14.8194 13.4533 13.8841 13.4533 12.9488 13.4253C12.8999 13.3765 12.8511 13.3276 12.8022 13.2788C12.7743 12.6087 12.7743 11.9386 12.8022 11.2685C12.8451 11.1769 12.9079 11.1071 12.9907 11.0591ZM13.4932 11.7711C13.4932 12.0922 13.4932 12.4132 13.4932 12.7343C14.0656 12.7343 14.6379 12.7343 15.2103 12.7343C15.2103 12.4132 15.2103 12.0922 15.2103 11.7711C14.6379 11.7711 14.0656 11.7711 13.4932 11.7711Z" fill="url(#paint2_linear_1992_1344)"/>
<defs>
<linearGradient id="paint0_linear_1992_1344" x1="3.92203" y1="-3.31195e-07" x2="17.9547" y2="13.5009" gradientUnits="userSpaceOnUse">
<stop offset="0.11" stop-color="#60D7AD"/>
<stop offset="0.76" stop-color="#213C3A"/>
</linearGradient>
<linearGradient id="paint1_linear_1992_1344" x1="-0.0977052" y1="7.65137" x2="21.544" y2="18.4659" gradientUnits="userSpaceOnUse">
<stop offset="0.11" stop-color="#60D7AD"/>
<stop offset="0.76" stop-color="#213C3A"/>
</linearGradient>
<linearGradient id="paint2_linear_1992_1344" x1="12.7436" y1="11.0518" x2="16.1433" y2="12.9777" gradientUnits="userSpaceOnUse">
<stop offset="0.11" stop-color="#60D7AD"/>
<stop offset="0.76" stop-color="#213C3A"/>
</linearGradient>
</defs>
</svg>
