<svg width="25" height="24" viewBox="0 0 25 24" fill="none" xmlns="http://www.w3.org/2000/svg">
<path opacity="0.937" fill-rule="evenodd" clip-rule="evenodd" d="M11.4648 0.0363606C12.7781 -0.125296 13.9023 0.252084 14.8376 1.1685C15.0566 1.74515 14.86 2.0046 14.248 1.94685C13.0786 0.882253 11.8049 0.740736 10.427 1.52229C10.254 1.66381 10.0811 1.80533 9.9081 1.94685C9.32944 2.02424 9.11716 1.78051 9.27127 1.21567C9.87456 0.579953 10.6057 0.18685 11.4648 0.0363606Z" fill="url(#paint0_linear_1993_1395)"/>
<path opacity="0.934" fill-rule="evenodd" clip-rule="evenodd" d="M11.8893 2.4895C12.7168 2.46722 13.4165 2.75026 13.9884 3.33861C14.1218 3.88142 13.9095 4.12515 13.3516 4.06978C12.5025 3.28357 11.6534 3.28357 10.8043 4.06978C10.2464 4.12515 10.0342 3.88142 10.1675 3.33861C10.6365 2.83421 11.2105 2.55118 11.8893 2.4895Z" fill="url(#paint1_linear_1993_1395)"/>
<path opacity="0.961" fill-rule="evenodd" clip-rule="evenodd" d="M24.1523 10.6973C24.1523 11.2791 24.1523 11.8609 24.1523 12.4427C23.9688 12.8105 23.6465 13.0307 23.2325 13.1031C23.2325 13.9522 23.2325 15.2023 23.2325 16.0042C22.9258 16.0042 22.8551 16.0042 22.5485 16.0042C22.4305 16.0042 22.3598 16.0042 22.1947 16.0042C22.1947 15.1551 22.1947 13.9522 22.1947 13.1031C20.6851 13.1031 19.1992 13.1031 17.6897 13.1031C17.6897 16.4209 17.6897 19.7387 17.6897 23.0565C19.1992 23.0565 20.6851 23.0565 22.1947 23.0565C22.1947 21.9244 22.1947 17.16 22.1947 16.0042C22.3598 16.0042 22.4541 16.0042 22.9966 16.0042C23.091 16.0042 23.1617 16.0042 23.2325 16.0042C23.2325 17.3486 23.2325 22.0895 23.2325 23.3867C23.1302 23.6776 22.8865 23.8741 22.5956 23.9764C15.5826 24.0078 8.56969 24.0078 1.55669 23.9764C1.26579 23.8741 1.06924 23.6776 0.967036 23.3867C0.959173 19.9587 0.935586 16.5308 0.896278 13.1031C0.465394 13.0536 0.166635 12.8335 0 12.4427C0 11.8609 0 11.2791 0 10.6973C0.141916 10.3591 0.393503 10.1469 0.75476 10.0605C2.65732 10.0369 4.55994 10.029 6.46263 10.0369C6.46263 9.45512 6.46263 8.87329 6.46263 8.29151C6.01935 8.21788 5.72849 7.96631 5.58994 7.53675C5.55848 7.03356 5.55848 6.53042 5.58994 6.02723C5.67381 5.64631 5.9018 5.40257 6.27394 5.29606C10.1421 5.26459 14.0102 5.26459 17.8784 5.29606C18.2505 5.40257 18.4785 5.64631 18.5624 6.02723C18.5938 6.53042 18.5938 7.03356 18.5624 7.53675C18.4238 7.96631 18.133 8.21788 17.6897 8.29151C17.6897 8.87329 17.6897 9.45512 17.6897 10.0369C19.5924 10.029 21.495 10.0369 23.3976 10.0605C23.7588 10.1469 24.0104 10.3591 24.1523 10.6973ZM6.55698 6.2631C10.2364 6.2631 13.9159 6.2631 17.5953 6.2631C17.5953 6.60901 17.5953 6.95497 17.5953 7.30089C13.9159 7.30089 10.2364 7.30089 6.55698 7.30089C6.55698 6.95497 6.55698 6.60901 6.55698 6.2631ZM7.45326 8.29151C10.5352 8.29151 13.6171 8.29151 16.6991 8.29151C16.6991 13.2132 16.6991 18.1349 16.6991 23.0565C15.7399 23.0565 14.7807 23.0565 13.8215 23.0565C13.8294 22.7259 13.8215 22.3957 13.798 22.0659C13.7549 21.5511 13.4798 21.2445 12.9724 21.146C12.3749 21.1146 11.7774 21.1146 11.1799 21.146C10.6725 21.2445 10.3974 21.5511 10.3544 22.0659C10.3308 22.3957 10.3229 22.7259 10.3308 23.0565C9.37162 23.0565 8.41241 23.0565 7.45326 23.0565C7.45326 18.1349 7.45326 13.2132 7.45326 8.29151ZM0.990623 11.0275C2.81463 11.0275 4.63863 11.0275 6.46263 11.0275C6.46263 11.3892 6.46263 11.7508 6.46263 12.1125C4.63863 12.1125 2.81463 12.1125 0.990623 12.1125C0.990623 11.7508 0.990623 11.3892 0.990623 11.0275ZM17.6897 11.0275C19.5137 11.0275 21.3377 11.0275 23.1617 11.0275C23.1617 11.3892 23.1617 11.7508 23.1617 12.1125C21.3377 12.1125 19.5137 12.1125 17.6897 12.1125C17.6897 11.7508 17.6897 11.3892 17.6897 11.0275ZM1.93407 13.1031C3.44359 13.1031 4.95311 13.1031 6.46263 13.1031C6.46263 16.4209 6.46263 19.7387 6.46263 23.0565C4.95311 23.0565 3.44359 23.0565 1.93407 23.0565C1.93407 19.7387 1.93407 16.4209 1.93407 13.1031ZM11.3686 22.1131C11.8403 22.1131 12.312 22.1131 12.7837 22.1131C12.7837 22.4276 12.7837 22.742 12.7837 23.0565C12.312 23.0565 11.8403 23.0565 11.3686 23.0565C11.3686 22.742 11.3686 22.4276 11.3686 22.1131Z" fill="url(#paint2_linear_1993_1395)"/>
<path opacity="0.95" fill-rule="evenodd" clip-rule="evenodd" d="M19.341 14.7071C21.0064 14.3991 21.6904 15.0752 21.393 16.7355C21.3366 17.1559 21.1086 17.431 20.709 17.561C20.2058 17.5925 19.7027 17.5925 19.1995 17.561C18.8929 17.4431 18.6806 17.2308 18.5627 16.9242C18.5312 16.4053 18.5312 15.8864 18.5627 15.3675C18.7033 14.9983 18.9627 14.7781 19.341 14.7071ZM19.5297 15.6977C19.8284 15.6977 20.1272 15.6977 20.426 15.6977C20.426 15.9964 20.426 16.2952 20.426 16.594C20.1272 16.594 19.8284 16.594 19.5297 16.594C19.5297 16.2952 19.5297 15.9964 19.5297 15.6977Z" fill="url(#paint3_linear_1993_1395)"/>
<path opacity="0.95" fill-rule="evenodd" clip-rule="evenodd" d="M9.31668 9.56545C9.8201 9.55758 10.3233 9.56545 10.8262 9.58904C11.2005 9.69603 11.4285 9.93977 11.5102 10.3202C11.8564 12.0339 11.1724 12.7336 9.45819 12.4194C9.05062 12.3576 8.79118 12.1297 8.67985 11.7354C8.64838 11.248 8.64838 10.7605 8.67985 10.273C8.7866 9.93845 8.99888 9.70259 9.31668 9.56545ZM9.64688 10.5561C9.64688 10.8548 9.64688 11.1536 9.64688 11.4524C9.94563 11.4524 10.2444 11.4524 10.5432 11.4524C10.5432 11.1536 10.5432 10.8548 10.5432 10.5561C10.2444 10.5561 9.94563 10.5561 9.64688 10.5561Z" fill="url(#paint4_linear_1993_1395)"/>
<path opacity="0.95" fill-rule="evenodd" clip-rule="evenodd" d="M13.2793 9.56568C15.0938 9.20245 15.8093 9.92575 15.4257 11.7356C15.3076 12.1214 15.0482 12.3494 14.6473 12.4196C12.9325 12.7332 12.2485 12.0335 12.5953 10.3204C12.6858 9.93924 12.9139 9.68762 13.2793 9.56568ZM13.5623 10.5563C13.5623 10.855 13.5623 11.1538 13.5623 11.4526C13.8611 11.4526 14.1599 11.4526 14.4586 11.4526C14.4586 11.1538 14.4586 10.855 14.4586 10.5563C14.1599 10.5563 13.8611 10.5563 13.5623 10.5563Z" fill="url(#paint5_linear_1993_1395)"/>
<path opacity="0.95" fill-rule="evenodd" clip-rule="evenodd" d="M9.4576 13.3391C11.1712 13.0479 11.8552 13.7555 11.5096 15.4618C11.4279 15.8423 11.1999 16.086 10.8256 16.193C9.00946 16.5783 8.294 15.8628 8.67926 14.0467C8.80856 13.6642 9.06801 13.4283 9.4576 13.3391ZM9.64629 14.3297C9.64629 14.6284 9.64629 14.9272 9.64629 15.226C9.94504 15.226 10.2438 15.226 10.5426 15.226C10.5426 14.9272 10.5426 14.6284 10.5426 14.3297C10.2438 14.3297 9.94504 14.3297 9.64629 14.3297Z" fill="url(#paint6_linear_1993_1395)"/>
<path opacity="0.95" fill-rule="evenodd" clip-rule="evenodd" d="M13.372 13.3389C13.7968 13.331 14.2214 13.3389 14.6456 13.3625C15.0465 13.4327 15.306 13.6607 15.424 14.0465C15.8081 15.8637 15.0926 16.5792 13.2776 16.1928C12.9033 16.0858 12.6753 15.8421 12.5936 15.4616C12.551 14.9557 12.5668 14.4525 12.6408 13.9521C12.7949 13.6323 13.0386 13.4279 13.372 13.3389ZM13.5607 14.3295C13.5607 14.6282 13.5607 14.927 13.5607 15.2258C13.8594 15.2258 14.1582 15.2258 14.457 15.2258C14.457 14.927 14.457 14.6282 14.457 14.3295C14.1582 14.3295 13.8594 14.3295 13.5607 14.3295Z" fill="url(#paint7_linear_1993_1395)"/>
<path opacity="0.95" fill-rule="evenodd" clip-rule="evenodd" d="M3.51222 14.707C3.93706 14.6992 4.36162 14.707 4.78588 14.7306C5.17208 14.7865 5.43153 14.9988 5.56422 15.3675C5.59569 15.8863 5.59569 16.4052 5.56422 16.9241C5.44629 17.2308 5.23401 17.443 4.92739 17.561C4.42422 17.5924 3.92105 17.5924 3.41787 17.561C3.01826 17.431 2.79026 17.1559 2.73387 16.7355C2.69185 16.2766 2.70757 15.8206 2.78104 15.3675C2.91521 15.0208 3.15893 14.8006 3.51222 14.707ZM3.70091 15.6977C3.70091 15.9964 3.70091 16.2952 3.70091 16.5939C3.99967 16.5939 4.29843 16.5939 4.59719 16.5939C4.59719 16.2952 4.59719 15.9964 4.59719 15.6977C4.29843 15.6977 3.99967 15.6977 3.70091 15.6977Z" fill="url(#paint8_linear_1993_1395)"/>
<path opacity="0.949" fill-rule="evenodd" clip-rule="evenodd" d="M9.36385 17.1602C9.85157 17.1523 10.339 17.1602 10.8262 17.1837C11.2005 17.2907 11.4285 17.5345 11.5102 17.9149C11.8483 19.6524 11.1485 20.3522 9.41102 20.0141C9.03058 19.9324 8.78684 19.7044 8.67985 19.3301C8.64838 18.8427 8.64838 18.3552 8.67985 17.8677C8.79075 17.5132 9.01874 17.2773 9.36385 17.1602ZM9.64688 18.1508C9.64688 18.4495 9.64688 18.7483 9.64688 19.0471C9.94563 19.0471 10.2444 19.0471 10.5432 19.0471C10.5432 18.7483 10.5432 18.4495 10.5432 18.1508C10.2444 18.1508 9.94563 18.1508 9.64688 18.1508Z" fill="url(#paint9_linear_1993_1395)"/>
<path opacity="0.949" fill-rule="evenodd" clip-rule="evenodd" d="M13.2783 17.16C15.094 16.7978 15.8095 17.5211 15.4247 19.3299C15.3177 19.7042 15.0739 19.9322 14.6935 20.0139C12.956 20.352 12.2562 19.6522 12.5943 17.9147C12.6848 17.5335 12.9129 17.2819 13.2783 17.16ZM13.5614 18.1506C13.5614 18.4493 13.5614 18.7481 13.5614 19.0469C13.8601 19.0469 14.1589 19.0469 14.4576 19.0469C14.4576 18.7481 14.4576 18.4493 14.4576 18.1506C14.1589 18.1506 13.8601 18.1506 13.5614 18.1506Z" fill="url(#paint10_linear_1993_1395)"/>
<path opacity="0.95" fill-rule="evenodd" clip-rule="evenodd" d="M3.42092 18.5277C5.26211 18.1754 5.97757 18.9144 5.56727 20.7448C5.43971 21.0926 5.19602 21.3049 4.83609 21.3816C4.39582 21.4131 3.95554 21.4131 3.51526 21.3816C3.07788 21.2744 2.81843 20.9993 2.73692 20.5561C2.69614 20.0819 2.71186 19.6102 2.78409 19.1409C2.91491 18.8451 3.12719 18.6406 3.42092 18.5277ZM3.70395 19.5183C3.70395 19.817 3.70395 20.1158 3.70395 20.4146C4.00271 20.4146 4.30147 20.4146 4.60023 20.4146C4.60023 20.1158 4.60023 19.817 4.60023 19.5183C4.30147 19.5183 4.00271 19.5183 3.70395 19.5183Z" fill="url(#paint11_linear_1993_1395)"/>
<path opacity="0.95" fill-rule="evenodd" clip-rule="evenodd" d="M19.1761 18.5283C19.6795 18.5205 20.1827 18.5283 20.6856 18.5519C21.0674 18.698 21.2954 18.9732 21.3696 19.3775C21.6587 21.0694 20.959 21.7377 19.2704 21.3823C18.9105 21.3055 18.6668 21.0933 18.5392 20.7455C18.5078 20.2266 18.5078 19.7077 18.5392 19.1888C18.6647 18.8824 18.877 18.6623 19.1761 18.5283ZM19.5063 19.519C19.5063 19.8177 19.5063 20.1165 19.5063 20.4152C19.805 20.4152 20.1038 20.4152 20.4025 20.4152C20.4025 20.1165 20.4025 19.8177 20.4025 19.519C20.1038 19.519 19.805 19.519 19.5063 19.519Z" fill="url(#paint12_linear_1993_1395)"/>
<defs>
<linearGradient id="paint0_linear_1993_1395" x1="9.15436" y1="-7.65467e-08" x2="12.3177" y2="3.97229" gradientUnits="userSpaceOnUse">
<stop offset="0.11" stop-color="#60D7AD"/>
<stop offset="0.76" stop-color="#213C3A"/>
</linearGradient>
<linearGradient id="paint1_linear_1993_1395" x1="10.0822" y1="2.48828" x2="12.7084" y2="5.27022" gradientUnits="userSpaceOnUse">
<stop offset="0.11" stop-color="#60D7AD"/>
<stop offset="0.76" stop-color="#213C3A"/>
</linearGradient>
<linearGradient id="paint2_linear_1993_1395" x1="-0.289324" y1="5.27246" x2="26.0657" y2="19.9512" gradientUnits="userSpaceOnUse">
<stop offset="0.11" stop-color="#60D7AD"/>
<stop offset="0.76" stop-color="#213C3A"/>
</linearGradient>
<linearGradient id="paint3_linear_1993_1395" x1="18.5041" y1="14.6348" x2="22.035" y2="16.145" gradientUnits="userSpaceOnUse">
<stop offset="0.11" stop-color="#60D7AD"/>
<stop offset="0.76" stop-color="#213C3A"/>
</linearGradient>
<linearGradient id="paint4_linear_1993_1395" x1="8.62102" y1="9.5625" x2="12.1608" y2="11.0971" gradientUnits="userSpaceOnUse">
<stop offset="0.11" stop-color="#60D7AD"/>
<stop offset="0.76" stop-color="#213C3A"/>
</linearGradient>
<linearGradient id="paint5_linear_1993_1395" x1="12.4717" y1="9.47461" x2="16.1084" y2="11.0454" gradientUnits="userSpaceOnUse">
<stop offset="0.11" stop-color="#60D7AD"/>
<stop offset="0.76" stop-color="#213C3A"/>
</linearGradient>
<linearGradient id="paint6_linear_1993_1395" x1="8.54197" y1="13.2754" x2="12.1792" y2="14.8461" gradientUnits="userSpaceOnUse">
<stop offset="0.11" stop-color="#60D7AD"/>
<stop offset="0.76" stop-color="#213C3A"/>
</linearGradient>
<linearGradient id="paint7_linear_1993_1395" x1="12.5349" y1="13.3359" x2="16.0963" y2="14.8718" gradientUnits="userSpaceOnUse">
<stop offset="0.11" stop-color="#60D7AD"/>
<stop offset="0.76" stop-color="#213C3A"/>
</linearGradient>
<linearGradient id="paint8_linear_1993_1395" x1="2.67647" y1="14.7041" x2="6.14437" y2="16.1999" gradientUnits="userSpaceOnUse">
<stop offset="0.11" stop-color="#60D7AD"/>
<stop offset="0.76" stop-color="#213C3A"/>
</linearGradient>
<linearGradient id="paint9_linear_1993_1395" x1="8.62107" y1="17.1572" x2="12.1606" y2="18.6843" gradientUnits="userSpaceOnUse">
<stop offset="0.11" stop-color="#60D7AD"/>
<stop offset="0.76" stop-color="#213C3A"/>
</linearGradient>
<linearGradient id="paint10_linear_1993_1395" x1="12.4756" y1="17.0693" x2="16.1122" y2="18.633" gradientUnits="userSpaceOnUse">
<stop offset="0.11" stop-color="#60D7AD"/>
<stop offset="0.76" stop-color="#213C3A"/>
</linearGradient>
<linearGradient id="paint11_linear_1993_1395" x1="2.67933" y1="18.4424" x2="6.25088" y2="19.9857" gradientUnits="userSpaceOnUse">
<stop offset="0.11" stop-color="#60D7AD"/>
<stop offset="0.76" stop-color="#213C3A"/>
</linearGradient>
<linearGradient id="paint12_linear_1993_1395" x1="18.4807" y1="18.5254" x2="22.008" y2="20.0321" gradientUnits="userSpaceOnUse">
<stop offset="0.11" stop-color="#60D7AD"/>
<stop offset="0.76" stop-color="#213C3A"/>
</linearGradient>
</defs>
</svg>
