<svg width="24" height="24" viewBox="0 0 24 24" fill="none" xmlns="http://www.w3.org/2000/svg">
<path d="M5.77778 9.31886V16.4396M9.77778 9.31886V16.4396M14.2222 9.31886V16.4396M18.2222 9.31886V16.4396M4 17.8638V18.5758C4 19.0744 4 19.3236 4.09688 19.514C4.18211 19.6815 4.31809 19.8177 4.48534 19.903C4.67548 20 4.9244 20 5.42222 20H18.5778C19.0756 20 19.3245 20 19.5147 19.903C19.682 19.8177 19.8179 19.6815 19.9031 19.514C20 19.3236 20 19.0744 20 18.5758V17.8638C20 17.3653 20 17.116 19.9031 16.9256C19.8179 16.7582 19.682 16.622 19.5147 16.5366C19.3245 16.4396 19.0756 16.4396 18.5778 16.4396H5.42222C4.9244 16.4396 4.67548 16.4396 4.48534 16.5366C4.31809 16.622 4.18211 16.7582 4.09688 16.9256C4 17.116 4 17.3653 4 17.8638ZM11.6915 4.04694L5.1137 5.51066C4.71631 5.59908 4.51762 5.6433 4.3693 5.75029C4.23848 5.84467 4.13576 5.9729 4.07213 6.12125C4 6.28944 4 6.49326 4 6.90089V7.89471C4 8.39321 4 8.64246 4.09688 8.83286C4.18211 9.00034 4.31809 9.13651 4.48534 9.22185C4.67548 9.31886 4.9244 9.31886 5.42222 9.31886H18.5778C19.0756 9.31886 19.3245 9.31886 19.5147 9.22185C19.682 9.13651 19.8179 9.00034 19.9031 8.83286C20 8.64246 20 8.39321 20 7.89471V6.9009C20 6.49326 20 6.28945 19.9278 6.12125C19.8643 5.9729 19.7615 5.84467 19.6307 5.75029C19.4824 5.6433 19.2837 5.59908 18.8863 5.51066L12.3085 4.04694C12.1934 4.02132 12.1358 4.00851 12.0777 4.0034C12.026 3.99887 11.974 3.99887 11.9223 4.0034C11.8642 4.00851 11.8066 4.02132 11.6915 4.04694Z" stroke="url(#paint0_linear_3393_43)" stroke-linecap="round" stroke-linejoin="round"/>
<defs>
<linearGradient id="paint0_linear_3393_43" x1="3.80833" y1="4" x2="23.0878" y2="12.3261" gradientUnits="userSpaceOnUse">
<stop offset="0.11" stop-color="#60D7AD"/>
<stop offset="0.76" stop-color="#213C3A"/>
</linearGradient>
</defs>
</svg>
