<svg width="21" height="24" viewBox="0 0 21 24" fill="none" xmlns="http://www.w3.org/2000/svg">
<path fill-rule="evenodd" clip-rule="evenodd" d="M6.62966 9.34766L10.1669 7.34375V3.57617C9.75587 3.50203 9.38368 3.28354 9.11554 2.95898L3.44866 6.28516C3.51605 6.47656 3.55264 6.68164 3.55264 6.89648C3.55264 7.07617 3.52761 7.24805 3.47947 7.41211L6.62966 9.34766ZM8.81515 2.4375C8.73997 2.23456 8.70148 2.01953 8.70155 1.80273C8.70155 1.30469 8.89988 0.853516 9.22144 0.527344C9.54301 0.201172 9.98781 0 10.4788 0C10.9698 0 11.4146 0.201172 11.7362 0.527344C11.9014 0.694716 12.0324 0.89355 12.1216 1.11242C12.2108 1.33129 12.2565 1.56589 12.2561 1.80273C12.2561 2.02148 12.2176 2.23047 12.1483 2.42383L17.8421 5.76367C17.8825 5.71484 17.923 5.66602 17.9673 5.62109C18.1323 5.45352 18.3283 5.32067 18.5441 5.23017C18.7599 5.13967 18.9912 5.09331 19.2247 5.09375C19.7157 5.09375 20.1605 5.29492 20.482 5.62109C20.6472 5.78847 20.7782 5.9873 20.8674 6.20617C20.9567 6.42504 21.0024 6.65964 21.0019 6.89648C21.0019 7.39453 20.8036 7.84375 20.482 8.16992C20.2057 8.45058 19.8455 8.63052 19.4576 8.68164V15.3047C19.8562 15.3574 20.2125 15.543 20.482 15.8164C20.8036 16.1426 21.0019 16.5938 21.0019 17.0898C21.0021 17.3266 20.9563 17.5612 20.8671 17.78C20.7778 17.9988 20.6469 18.1976 20.4818 18.365C20.3168 18.5325 20.1207 18.6652 19.905 18.7558C19.6893 18.8463 19.4581 18.8928 19.2247 18.8926C18.9611 18.893 18.7007 18.8338 18.4625 18.7192C18.2244 18.6047 18.0144 18.4377 17.8479 18.2305L12.1463 21.5742C12.2157 21.7676 12.2542 21.9766 12.2542 22.1953C12.2542 22.6934 12.0558 23.1445 11.7343 23.4707C11.5693 23.6383 11.3732 23.7711 11.1575 23.8616C10.9417 23.9521 10.7104 23.9985 10.4769 23.998C9.98588 23.998 9.54108 23.7969 9.21952 23.4707C8.89795 23.1445 8.69962 22.6934 8.69962 22.1953C8.69962 21.9727 8.74006 21.7578 8.81323 21.5605L3.14827 18.2383C2.98161 18.444 2.772 18.6095 2.53457 18.723C2.29714 18.8365 2.03783 18.8951 1.77536 18.8945C1.28434 18.8945 0.839544 18.6934 0.517978 18.3672C0.198337 18.041 6.1301e-06 17.5898 6.1301e-06 17.0918C6.1301e-06 16.5938 0.198337 16.1445 0.519903 15.8184C0.793131 15.5409 1.14799 15.3613 1.53081 15.3066V8.67969C1.14773 8.62588 0.792612 8.44612 0.519903 8.16797C0.354573 8.00109 0.223498 7.80263 0.13426 7.58405C0.0450224 7.36547 -0.000608639 7.13111 6.1301e-06 6.89453C6.1301e-06 6.39648 0.198337 5.94531 0.519903 5.61914C0.684913 5.45157 0.880939 5.31871 1.09672 5.22821C1.3125 5.13772 1.54379 5.09136 1.77728 5.0918C2.04134 5.09133 2.30217 5.15071 2.54071 5.2656C2.77924 5.38049 2.98945 5.54799 3.15598 5.75586L8.81515 2.4375ZM11.8498 2.94727C11.5799 3.28103 11.2005 3.50499 10.7811 3.57812V7.34375L14.3107 9.41797L17.5552 7.51562C17.484 7.32227 17.4474 7.11133 17.4474 6.89453C17.4474 6.68359 17.484 6.47852 17.5494 6.29102L11.8498 2.94727ZM18.9146 8.66992C18.5555 8.60657 18.2245 8.4319 17.9673 8.16992C17.9307 8.13281 17.896 8.0957 17.8633 8.05469L14.6245 9.95312V14.0117L17.8768 15.916C17.9057 15.8828 17.9345 15.8496 17.9653 15.8184C18.2229 15.5568 18.5537 15.3821 18.9127 15.3184V8.66992H18.9146ZM17.5533 17.707C17.484 17.5156 17.4474 17.3086 17.4474 17.0937C17.4474 16.8672 17.4878 16.6504 17.5648 16.4492L14.4185 14.6074L10.7811 16.752V20.4219C11.2005 20.495 11.5799 20.719 11.8498 21.0527L17.5533 17.707ZM9.11554 21.0391C9.38368 20.7145 9.75587 20.496 10.1669 20.4219V16.7344L6.51605 14.5859L3.41785 16.4004C3.5045 16.6133 3.55456 16.8477 3.55456 17.0937C3.55456 17.3125 3.51605 17.5215 3.44673 17.7148L9.11554 21.0391ZM2.07189 15.3145C2.44352 15.377 2.77664 15.5586 3.03274 15.8184C3.052 15.8379 3.06933 15.8574 3.08666 15.877L6.24262 14.0293V9.83594L3.20411 7.96875C3.15212 8.04102 3.09436 8.10742 3.03274 8.16992C2.77166 8.43481 2.43591 8.61089 2.07189 8.67383V15.3145ZM1.77921 8.07422C1.78691 8.07422 1.79461 8.07227 1.80232 8.07227H1.81772C2.11197 8.0629 2.3916 7.93994 2.59949 7.72852C2.70765 7.61912 2.79343 7.48913 2.85192 7.34601C2.91041 7.20289 2.94045 7.04946 2.94031 6.89453C2.94031 6.56836 2.80938 6.27344 2.59949 6.06055C2.38961 5.84766 2.09885 5.71484 1.77728 5.71484C1.45572 5.71484 1.16496 5.84766 0.955077 6.06055C0.846923 6.16995 0.76114 6.29994 0.702652 6.44306C0.644164 6.58617 0.614123 6.7396 0.614255 6.89453C0.614255 7.2207 0.745192 7.51562 0.955077 7.72852C1.0632 7.83839 1.19168 7.9255 1.33312 7.98483C1.47455 8.04415 1.62616 8.07454 1.77921 8.07422ZM11.2991 21.3652C11.1913 21.2555 11.0631 21.1685 10.922 21.1092C10.7809 21.0499 10.6296 21.0194 10.4769 21.0195C10.1553 21.0195 9.86458 21.1523 9.65469 21.3652C9.44481 21.5781 9.31387 21.873 9.31387 22.1992C9.31387 22.5254 9.44481 22.8203 9.65469 23.0332C9.86458 23.2461 10.1553 23.3789 10.4769 23.3789C10.7985 23.3789 11.0892 23.2461 11.2991 23.0332C11.509 22.8203 11.6399 22.5254 11.6399 22.1992C11.6399 21.873 11.5109 21.5781 11.2991 21.3652ZM11.2991 0.96875C11.1913 0.859048 11.0631 0.772036 10.922 0.71271C10.7809 0.653384 10.6296 0.622913 10.4769 0.623047C10.1553 0.623047 9.86458 0.755859 9.65469 0.96875C9.44481 1.18164 9.31387 1.47656 9.31387 1.80273C9.31387 2.12891 9.44481 2.42383 9.65469 2.63672C9.76254 2.74642 9.8907 2.83343 10.0318 2.89276C10.1729 2.95208 10.3242 2.98256 10.4769 2.98242C10.7985 2.98242 11.0892 2.84961 11.2991 2.63672C11.4073 2.52732 11.493 2.39733 11.5515 2.25421C11.61 2.11109 11.6401 1.95766 11.6399 1.80273C11.6399 1.47656 11.5109 1.18164 11.2991 0.96875ZM20.0449 16.2598C19.9371 16.1501 19.8089 16.0631 19.6678 16.0037C19.5267 15.9444 19.3755 15.9139 19.2227 15.9141C18.9012 15.9141 18.6104 16.0469 18.4005 16.2598C18.2924 16.3692 18.2066 16.4992 18.1481 16.6423C18.0896 16.7854 18.0596 16.9388 18.0597 17.0937C18.0597 17.4199 18.1906 17.7148 18.4005 17.9277C18.5084 18.0374 18.6365 18.1244 18.7776 18.1838C18.9187 18.2431 19.07 18.2736 19.2227 18.2734C19.5443 18.2734 19.835 18.1406 20.0449 17.9277C20.1531 17.8183 20.2389 17.6883 20.2974 17.5452C20.3558 17.4021 20.3859 17.2487 20.3858 17.0937C20.3858 16.7676 20.2567 16.4727 20.0449 16.2598ZM2.59949 16.2598C2.38961 16.0469 2.09885 15.9141 1.77728 15.9141C1.45572 15.9141 1.16496 16.0469 0.955077 16.2598C0.846923 16.3692 0.76114 16.4992 0.702652 16.6423C0.644164 16.7854 0.614123 16.9388 0.614255 17.0937C0.614255 17.4199 0.745192 17.7148 0.955077 17.9277C1.16496 18.1406 1.45572 18.2734 1.77728 18.2734C2.09885 18.2734 2.38961 18.1406 2.59949 17.9277C2.70765 17.8183 2.79343 17.6883 2.85192 17.5452C2.91041 17.4021 2.94045 17.2487 2.94031 17.0937C2.93969 16.781 2.81718 16.4812 2.59949 16.2598ZM18.1868 7.42773C18.2022 7.44336 18.2137 7.46289 18.2253 7.48242C18.2368 7.50195 18.2445 7.52148 18.2523 7.54297C18.2965 7.60937 18.3466 7.67187 18.4005 7.72852C18.5084 7.83822 18.6365 7.92523 18.7776 7.98456C18.9187 8.04388 19.07 8.07435 19.2227 8.07422C19.5443 8.07422 19.835 7.94141 20.0449 7.72852C20.1531 7.61912 20.2389 7.48913 20.2974 7.34601C20.3558 7.20289 20.3859 7.04946 20.3858 6.89453C20.3858 6.56836 20.2548 6.27344 20.0449 6.06055C19.9371 5.95084 19.8089 5.86383 19.6678 5.80451C19.5267 5.74518 19.3755 5.71471 19.2227 5.71484C18.9012 5.71484 18.6104 5.84766 18.4005 6.06055C18.2924 6.16995 18.2066 6.29994 18.1481 6.44306C18.0896 6.58617 18.0596 6.7396 18.0597 6.89453C18.0616 7.08789 18.1078 7.26758 18.1868 7.42773ZM6.81836 13.9629C6.86211 14.0106 6.89093 14.0704 6.90116 14.1348L10.1996 16.1016V12.2188L6.81836 10.1777V13.9629ZM14.0507 10.2305L10.7754 12.2207V16.1055L14.0507 14.1426V10.2305ZM10.473 7.81055L7.27664 9.75L10.4904 11.7129L13.6117 9.79102L10.473 7.81055Z" fill="url(#paint0_linear_3385_4)"/>
<defs>
<linearGradient id="paint0_linear_3385_4" x1="-0.251586" y1="3.86136e-06" x2="26.0219" y2="9.92996" gradientUnits="userSpaceOnUse">
<stop offset="0.11" stop-color="#60D7AD"/>
<stop offset="0.76" stop-color="#213C3A"/>
</linearGradient>
</defs>
</svg>
