<svg width="24" height="24" viewBox="0 0 24 24" fill="none" xmlns="http://www.w3.org/2000/svg">
<path d="M7.41978 0.725722C7.53078 0.725467 7.64177 0.725133 7.75277 0.724726C8.0532 0.723874 8.35361 0.724202 8.65404 0.724797C8.8419 0.725131 9.02977 0.725067 9.21763 0.724893C9.26453 0.72485 9.26453 0.72485 9.31237 0.724806C9.3759 0.724746 9.43943 0.724685 9.50296 0.724623C10.0976 0.72409 10.6922 0.724702 11.2868 0.725711C11.7961 0.726548 12.3054 0.726403 12.8147 0.725539C13.4073 0.724533 13.9999 0.724141 14.5925 0.724716C14.6557 0.724776 14.719 0.724835 14.7823 0.724893C14.829 0.724936 14.829 0.724936 14.8767 0.72498C15.0952 0.725142 15.3137 0.724861 15.5323 0.724428C15.8268 0.723885 16.1214 0.724264 16.416 0.725345C16.5238 0.725593 16.6317 0.725523 16.7396 0.725109C17.4677 0.722568 18.0552 0.736631 18.6094 1.26561C19.0987 1.7782 19.1527 2.32901 19.1488 3.0055C19.149 3.0864 19.1493 3.1673 19.1497 3.24819C19.1505 3.46944 19.1501 3.69067 19.1495 3.91191C19.1491 4.15092 19.1497 4.38993 19.1502 4.62894C19.1511 5.09675 19.1509 5.56455 19.1503 6.03236C19.1499 6.41262 19.1499 6.79288 19.1501 7.17314C19.1501 7.2273 19.1501 7.28146 19.1502 7.33727C19.1502 7.4473 19.1503 7.55733 19.1503 7.66737C19.1509 8.69868 19.1503 9.72999 19.1492 10.7613C19.1484 11.6459 19.1486 12.5304 19.1494 13.4149C19.1504 14.4426 19.1508 15.4703 19.1502 16.4979C19.1502 16.6076 19.1501 16.7172 19.1501 16.8268C19.15 16.9077 19.15 16.9077 19.15 16.9903C19.1498 17.37 19.1501 17.7497 19.1505 18.1294C19.1511 18.5923 19.1509 19.0552 19.1499 19.518C19.1494 19.7541 19.1492 19.9902 19.1499 20.2263C19.1504 20.4425 19.1501 20.6588 19.1491 20.8751C19.1489 20.9531 19.149 21.0312 19.1495 21.1093C19.1529 21.7467 19.0649 22.2571 18.6094 22.7344C18.0127 23.3039 17.3577 23.2772 16.5802 23.2742C16.4692 23.2745 16.3582 23.2748 16.2472 23.2752C15.9468 23.2761 15.6463 23.2758 15.3459 23.2752C15.1581 23.2748 14.9702 23.2749 14.7823 23.2751C14.7354 23.2751 14.7354 23.2751 14.6876 23.2752C14.6241 23.2752 14.5605 23.2753 14.497 23.2753C13.9024 23.2759 13.3078 23.2753 12.7132 23.2743C12.2039 23.2734 11.6946 23.2736 11.1852 23.2744C10.5927 23.2754 10.0001 23.2758 9.40749 23.2752C9.3442 23.2752 9.28092 23.2751 9.21763 23.2751C9.17094 23.275 9.17094 23.275 9.1233 23.275C8.90476 23.2748 8.68622 23.2751 8.46767 23.2755C8.1731 23.2761 7.87855 23.2757 7.58398 23.2746C7.47611 23.2744 7.36823 23.2744 7.26035 23.2749C6.53221 23.2774 5.94472 23.2633 5.3906 22.7344C4.90126 22.2218 4.84721 21.671 4.85117 20.9945C4.85095 20.9136 4.85065 20.8327 4.85028 20.7518C4.8495 20.5305 4.84988 20.3093 4.85047 20.0881C4.85089 19.849 4.85023 19.61 4.84972 19.371C4.84889 18.9032 4.84907 18.4354 4.84961 17.9676C4.85003 17.5873 4.85009 17.2071 4.84989 16.8268C4.84986 16.7727 4.84983 16.7185 4.8498 16.6627C4.84974 16.5527 4.84968 16.4426 4.84962 16.3326C4.84908 15.3013 4.8497 14.27 4.8507 13.2387C4.85154 12.3541 4.8514 11.4696 4.85053 10.585C4.84953 9.55736 4.84913 8.52969 4.84971 7.50202C4.84977 7.39239 4.84983 7.28277 4.84989 7.17314C4.84991 7.11921 4.84994 7.06527 4.84997 7.0097C4.85014 6.62998 4.84986 6.25027 4.84942 5.87055C4.84889 5.40767 4.84904 4.94481 4.85004 4.48193C4.85053 4.24585 4.85072 4.00979 4.8501 3.77371C4.84954 3.55743 4.84985 3.34116 4.85085 3.12488C4.85106 3.04682 4.85095 2.96875 4.8505 2.89069C4.84706 2.2533 4.93503 1.74283 5.3906 1.26561C5.98721 0.69607 6.64224 0.722732 7.41978 0.725722ZM5.89451 1.94237C5.65407 2.23742 5.61908 2.54991 5.61921 2.92313C5.61912 2.98248 5.61902 3.04182 5.61893 3.10296C5.61906 3.16845 5.6192 3.23395 5.61934 3.29945C5.61932 3.36929 5.61928 3.43914 5.61922 3.50899C5.61911 3.70076 5.6193 3.89252 5.61954 4.08429C5.61974 4.29115 5.61967 4.49801 5.61963 4.70487C5.61961 5.06321 5.61976 5.42156 5.62002 5.7799C5.6204 6.29801 5.62052 6.81611 5.62058 7.33421C5.62068 8.1748 5.621 9.01539 5.62144 9.85598C5.62187 10.6725 5.6222 11.4891 5.6224 12.3057C5.62241 12.3565 5.62243 12.4073 5.62244 12.4597C5.62254 12.8574 5.62263 13.255 5.62272 13.6527C5.62316 15.6018 5.6241 17.5509 5.62498 19.5C9.83248 19.5 14.04 19.5 18.375 19.5C18.3777 16.511 18.3777 16.511 18.3796 13.522C18.3797 13.1192 18.3799 12.7163 18.3801 12.3134C18.3802 12.2629 18.3802 12.2124 18.3802 12.1604C18.3806 11.3451 18.3813 10.5298 18.3822 9.71457C18.3831 8.87791 18.3836 8.04126 18.3838 7.20461C18.3839 6.68833 18.3843 6.17205 18.3851 5.65578C18.3856 5.30177 18.3857 4.94776 18.3856 4.59375C18.3856 4.38949 18.3856 4.18524 18.3862 3.98098C18.3866 3.79386 18.3866 3.60675 18.3863 3.41963C18.3863 3.35206 18.3864 3.28448 18.3867 3.21691C18.3966 2.52513 18.3966 2.52513 18.0937 1.92186C17.7132 1.54408 17.3405 1.49277 16.8204 1.49372C16.7561 1.49356 16.7561 1.49356 16.6906 1.49339C16.5474 1.4931 16.4041 1.49314 16.2609 1.49317C16.1581 1.49303 16.0553 1.49287 15.9525 1.4927C15.6733 1.49228 15.3942 1.49217 15.1151 1.49214C14.9407 1.49211 14.7662 1.49201 14.5918 1.49189C14.0146 1.49147 13.4373 1.49126 12.8601 1.49129C12.829 1.49129 12.7979 1.4913 12.7658 1.4913C12.7192 1.4913 12.7192 1.4913 12.6715 1.4913C12.1671 1.49132 11.6627 1.49087 11.1583 1.49021C10.6399 1.48954 10.1215 1.48922 9.60308 1.48926C9.31223 1.48927 9.02139 1.48913 8.73054 1.48864C8.45695 1.48818 8.18336 1.48818 7.90976 1.48852C7.80948 1.48857 7.7092 1.48846 7.60892 1.48818C7.47176 1.48781 7.3346 1.48803 7.19744 1.48839C7.158 1.48815 7.11857 1.48791 7.07794 1.48766C6.59762 1.49044 6.22672 1.57413 5.89451 1.94237ZM5.62498 20.25C5.55542 21.2168 5.55542 21.2168 5.90623 22.0781C6.28673 22.4559 6.6594 22.5072 7.17958 22.5063C7.24381 22.5064 7.24381 22.5064 7.30934 22.5066C7.45258 22.5069 7.59583 22.5068 7.73908 22.5068C7.84188 22.5069 7.94469 22.5071 8.04749 22.5073C8.32661 22.5077 8.60573 22.5078 8.88486 22.5078C9.05929 22.5079 9.23371 22.508 9.40814 22.5081C9.98539 22.5085 10.5626 22.5087 11.1399 22.5087C11.171 22.5087 11.2021 22.5087 11.2341 22.5087C11.2652 22.5087 11.2964 22.5087 11.3284 22.5087C11.8328 22.5086 12.3372 22.5091 12.8416 22.5098C13.36 22.5104 13.8785 22.5107 14.3969 22.5107C14.6877 22.5107 14.9786 22.5108 15.2694 22.5113C15.543 22.5118 15.8166 22.5118 16.0902 22.5114C16.1905 22.5114 16.2907 22.5115 16.391 22.5118C16.5282 22.5122 16.6653 22.5119 16.8025 22.5116C16.842 22.5118 16.8814 22.5121 16.922 22.5123C17.3467 22.5098 17.7187 22.4549 18.0295 22.1418C18.5213 21.5966 18.375 20.9924 18.375 20.25C14.1675 20.25 9.95998 20.25 5.62498 20.25Z" fill="url(#paint0_linear_3386_38)"/>
<path d="M12.6585 4.72567C12.691 4.74204 12.7235 4.7584 12.757 4.77527C12.7926 4.79289 12.8282 4.81052 12.8648 4.82868C12.9809 4.8863 13.0968 4.94434 13.2127 5.00241C13.2938 5.04287 13.375 5.08332 13.4561 5.12376C13.6254 5.2082 13.7947 5.29286 13.9638 5.37766C14.1807 5.4864 14.3979 5.59453 14.6153 5.70251C14.7825 5.78572 14.9497 5.86929 15.1167 5.95296C15.1968 5.99299 15.2769 6.03291 15.3571 6.07271C15.4688 6.12822 15.5803 6.18419 15.6917 6.2403C15.7248 6.25666 15.758 6.27303 15.7922 6.28989C15.9472 6.36856 16.0266 6.41491 16.125 6.56247C16.1371 6.65538 16.1371 6.65538 16.1375 6.76319C16.1381 6.8246 16.1381 6.8246 16.1387 6.88726C16.1387 6.95443 16.1387 6.95443 16.1386 7.02297C16.1389 7.07024 16.1392 7.1175 16.1396 7.1662C16.1405 7.32281 16.1406 7.47941 16.1407 7.63602C16.141 7.74467 16.1414 7.85331 16.1417 7.96196C16.1422 8.18984 16.1424 8.41772 16.1424 8.6456C16.1424 8.93791 16.1436 9.23019 16.1452 9.52249C16.1463 9.74692 16.1465 9.97134 16.1464 10.1958C16.1465 10.3036 16.147 10.4113 16.1477 10.5191C16.1486 10.6697 16.1483 10.8203 16.1478 10.9709C16.1483 11.0156 16.1488 11.0603 16.1494 11.1063C16.1465 11.4047 16.1465 11.4047 16.0523 11.5483C15.8996 11.6503 15.7419 11.7366 15.5779 11.8184C15.5239 11.8458 15.5239 11.8458 15.4688 11.8739C15.3501 11.9341 15.2311 11.9938 15.1121 12.0534C15.0291 12.0952 14.9462 12.137 14.8633 12.1787C14.6896 12.2662 14.5157 12.3533 14.3418 12.4402C14.1193 12.5515 13.8973 12.6637 13.6754 12.7763C13.5043 12.8628 13.3329 12.9487 13.1615 13.0344C13.0795 13.0755 12.9976 13.1169 12.9159 13.1585C12.8014 13.2166 12.6864 13.2738 12.5713 13.3308C12.5379 13.3481 12.5045 13.3653 12.47 13.3831C12.2159 13.507 11.9936 13.5588 11.7184 13.4694C11.6162 13.4263 11.5181 13.3784 11.4193 13.328C11.382 13.3097 11.3447 13.2914 11.3062 13.2726C11.1838 13.2123 11.0619 13.1509 10.94 13.0894C10.8547 13.047 10.7694 13.0046 10.6841 12.9622C10.5057 12.8734 10.3276 12.784 10.1497 12.6943C9.92179 12.5794 9.69319 12.466 9.46435 12.3529C9.28819 12.2657 9.11245 12.1777 8.93681 12.0894C8.85266 12.0473 8.76839 12.0054 8.68399 11.9638C8.5661 11.9055 8.44881 11.8461 8.3316 11.7864C8.27933 11.761 8.27933 11.761 8.226 11.7351C8.07113 11.6549 7.98125 11.5952 7.87689 11.4525C7.81248 11.2469 7.80845 11.0619 7.80992 10.8477C7.80955 10.7811 7.80955 10.7811 7.80917 10.7132C7.80856 10.5669 7.80896 10.4206 7.80944 10.2744C7.80934 10.1725 7.80921 10.0705 7.80903 9.96863C7.80882 9.75522 7.80913 9.54182 7.80978 9.32841C7.81058 9.05509 7.81012 8.78179 7.80928 8.50847C7.80877 8.29808 7.80893 8.08768 7.8093 7.87729C7.80939 7.77652 7.80928 7.67575 7.80895 7.57498C7.80859 7.43406 7.80914 7.29317 7.80992 7.15225C7.80964 7.11075 7.80935 7.06925 7.80906 7.02649C7.81146 6.79219 7.82557 6.617 7.96874 6.42184C8.08367 6.33669 8.2066 6.27596 8.33532 6.21424C8.3726 6.19553 8.40989 6.17682 8.4483 6.15754C8.57127 6.09608 8.69479 6.03585 8.81835 5.97562C8.90403 5.93311 8.98967 5.89054 9.07527 5.84789C9.30048 5.73596 9.5262 5.62506 9.75202 5.51436C9.9819 5.40141 10.2112 5.2874 10.4407 5.17352C10.7755 5.00759 11.1104 4.8419 11.4459 4.67725C11.4811 4.65989 11.5163 4.64253 11.5526 4.62464C11.9975 4.40687 12.2305 4.51486 12.6585 4.72567ZM11.6354 5.46851C11.581 5.49572 11.5265 5.52294 11.4705 5.55098C11.4114 5.581 11.3523 5.61104 11.2932 5.64108C11.2325 5.67159 11.1718 5.70207 11.1111 5.73252C10.9516 5.81264 10.7923 5.89321 10.6331 5.97387C10.4704 6.05615 10.3076 6.138 10.1448 6.21988C9.82546 6.38054 9.5064 6.54166 9.18749 6.70309C9.29265 6.81202 9.3841 6.88007 9.52056 6.94681C9.57753 6.97495 9.57753 6.97495 9.63564 7.00366C9.67628 7.02339 9.71691 7.04312 9.75878 7.06345C9.84441 7.10562 9.93005 7.14779 10.0157 7.18997C10.0582 7.21078 10.1007 7.23159 10.1445 7.25303C10.2807 7.31985 10.4164 7.38751 10.552 7.45554C10.6111 7.48516 10.6702 7.51466 10.7294 7.54403C10.9082 7.63281 11.0855 7.72384 11.2623 7.81656C11.3045 7.8384 11.3467 7.86025 11.3902 7.88275C11.4728 7.92556 11.5552 7.96887 11.6374 8.01276C11.675 8.03212 11.7127 8.05149 11.7515 8.07144C11.7848 8.08894 11.8181 8.10644 11.8524 8.12446C12.0697 8.19297 12.2619 8.08076 12.4551 7.98354C12.5076 7.95727 12.5601 7.93099 12.6143 7.90392C12.671 7.87517 12.7278 7.84642 12.7846 7.81766C12.8431 7.78827 12.9016 7.75891 12.9602 7.72958C13.1137 7.65253 13.2671 7.57515 13.4204 7.4977C13.5771 7.41863 13.734 7.33988 13.8908 7.26111C14.1982 7.10667 14.5054 6.95187 14.8125 6.79684C14.8125 6.76591 14.8125 6.73497 14.8125 6.70309C14.4615 6.52541 14.1102 6.34813 13.7588 6.17137C13.5956 6.08928 13.4324 6.00705 13.2695 5.92451C13.1122 5.84485 12.9547 5.76556 12.7972 5.68653C12.7371 5.65631 12.677 5.62596 12.6171 5.59547C12.5331 5.5528 12.4488 5.51064 12.3646 5.46851C12.2928 5.43228 12.2928 5.43228 12.2195 5.39533C11.9859 5.29948 11.8486 5.36099 11.6354 5.46851ZM8.62499 7.40622C8.62499 8.59731 8.62499 9.78841 8.62499 11.0156C9.22816 11.3176 9.22816 11.3176 9.8333 11.6154C9.87182 11.6342 9.91034 11.653 9.95002 11.6724C10.0298 11.7113 10.1096 11.7502 10.1895 11.7891C10.3106 11.8481 10.4317 11.9073 10.5528 11.9665C10.6313 12.0047 10.7099 12.043 10.7884 12.0813C10.8238 12.0986 10.8593 12.1159 10.8958 12.1338C11.1369 12.2511 11.3796 12.3597 11.625 12.4687C11.625 11.2776 11.625 10.0865 11.625 8.85934C11.1474 8.61958 10.6698 8.37981 10.1777 8.13278C10.0269 8.05692 9.87598 7.98106 9.72053 7.90289C9.58545 7.8352 9.58545 7.8352 9.45035 7.76755C9.39008 7.73734 9.32986 7.70707 9.26966 7.67673C9.17858 7.63085 9.08739 7.5852 8.99617 7.53961C8.94475 7.5138 8.89333 7.48798 8.84035 7.46139C8.72677 7.39976 8.72677 7.39976 8.62499 7.40622ZM15.0038 7.53961C14.975 7.55402 14.9462 7.56842 14.9165 7.58326C14.823 7.63003 14.7297 7.67705 14.6363 7.72409C14.5787 7.75296 14.5211 7.78182 14.4635 7.81065C14.2497 7.91783 14.036 8.02532 13.8223 8.13278C13.3447 8.37255 12.8671 8.61231 12.375 8.85934C12.375 10.0504 12.375 11.2415 12.375 12.4687C12.5786 12.4009 12.7486 12.3345 12.9377 12.2395C12.9929 12.212 13.0481 12.1844 13.1049 12.1559C13.1628 12.1268 13.2206 12.0976 13.2784 12.0685C13.3316 12.0418 13.3848 12.0152 13.4395 11.9878C13.6375 11.8885 13.8353 11.789 14.0332 11.6894C14.476 11.4671 14.9188 11.2447 15.375 11.0156C15.375 9.8245 15.375 8.63341 15.375 7.40622C15.2315 7.40622 15.1315 7.47549 15.0038 7.53961Z" fill="url(#paint1_linear_3386_38)"/>
<path d="M8.38275 16.7259C8.43103 16.7255 8.43103 16.7255 8.48028 16.7251C8.58811 16.7245 8.69589 16.725 8.80371 16.7255C8.88102 16.7253 8.95833 16.725 9.03564 16.7247C9.24561 16.7239 9.45556 16.7242 9.66553 16.7247C9.88515 16.7251 10.1048 16.7247 10.3244 16.7245C10.6932 16.7242 11.0621 16.7246 11.4309 16.7254C11.8575 16.7263 12.284 16.726 12.7106 16.7251C13.0767 16.7243 13.4428 16.7242 13.8088 16.7246C14.0276 16.7249 14.2463 16.7249 14.465 16.7244C14.6706 16.7239 14.8762 16.7243 15.0818 16.7252C15.1573 16.7254 15.2328 16.7254 15.3083 16.725C15.4113 16.7245 15.5143 16.7251 15.6172 16.7259C15.7037 16.726 15.7037 16.726 15.792 16.7261C15.9648 16.7506 16.0198 16.7907 16.125 16.9104C16.1499 16.9923 16.1499 16.9923 16.1484 17.0742C16.1492 17.1147 16.1492 17.1147 16.1499 17.156C16.113 17.2775 16.0495 17.3237 15.9375 17.4017C15.792 17.4223 15.792 17.4223 15.6172 17.4224C15.5851 17.4227 15.5529 17.423 15.5197 17.4232C15.4119 17.4239 15.3041 17.4234 15.1963 17.4228C15.119 17.4231 15.0417 17.4234 14.9644 17.4237C14.7544 17.4245 14.5444 17.4242 14.3345 17.4236C14.1148 17.4232 13.8952 17.4236 13.6756 17.4239C13.3068 17.4242 12.9379 17.4238 12.5691 17.423C12.1425 17.4221 11.716 17.4224 11.2894 17.4233C10.9233 17.424 10.5572 17.4241 10.1912 17.4237C9.97243 17.4235 9.75373 17.4234 9.53501 17.424C9.3294 17.4244 9.1238 17.4241 8.91819 17.4232C8.84268 17.4229 8.76717 17.423 8.69166 17.4234C8.58867 17.4238 8.48574 17.4233 8.38275 17.4224C8.29627 17.4224 8.29627 17.4224 8.20803 17.4223C8.03524 17.3978 7.98021 17.3576 7.875 17.2379C7.8501 17.156 7.8501 17.156 7.85156 17.0742C7.85084 17.0337 7.85084 17.0337 7.8501 16.9923C7.92371 16.7503 8.12777 16.7262 8.38275 16.7259Z" fill="url(#paint2_linear_3386_38)"/>
<path d="M8.38275 15.2259C8.43103 15.2255 8.43103 15.2255 8.48028 15.2251C8.58811 15.2245 8.69589 15.225 8.80371 15.2255C8.88102 15.2253 8.95833 15.225 9.03564 15.2247C9.24561 15.2239 9.45556 15.2242 9.66553 15.2247C9.88515 15.2251 10.1048 15.2247 10.3244 15.2245C10.6932 15.2242 11.0621 15.2246 11.4309 15.2254C11.8575 15.2263 12.284 15.226 12.7106 15.2251C13.0767 15.2243 13.4428 15.2242 13.8088 15.2246C14.0276 15.2249 14.2463 15.2249 14.465 15.2244C14.6706 15.2239 14.8762 15.2243 15.0818 15.2252C15.1573 15.2254 15.2328 15.2254 15.3083 15.225C15.4113 15.2245 15.5143 15.2251 15.6172 15.2259C15.7037 15.226 15.7037 15.226 15.792 15.2261C15.9648 15.2506 16.0198 15.2907 16.125 15.4104C16.1499 15.4923 16.1499 15.4923 16.1484 15.5742C16.1492 15.6147 16.1492 15.6147 16.1499 15.656C16.113 15.7775 16.0495 15.8237 15.9375 15.9017C15.792 15.9223 15.792 15.9223 15.6172 15.9224C15.5851 15.9227 15.5529 15.923 15.5197 15.9232C15.4119 15.9239 15.3041 15.9234 15.1963 15.9228C15.119 15.9231 15.0417 15.9234 14.9644 15.9237C14.7544 15.9245 14.5444 15.9242 14.3345 15.9236C14.1148 15.9232 13.8952 15.9236 13.6756 15.9239C13.3068 15.9242 12.9379 15.9238 12.5691 15.923C12.1425 15.9221 11.716 15.9224 11.2894 15.9233C10.9233 15.924 10.5572 15.9241 10.1912 15.9237C9.97243 15.9235 9.75373 15.9234 9.53501 15.924C9.3294 15.9244 9.1238 15.9241 8.91819 15.9232C8.84268 15.9229 8.76717 15.923 8.69166 15.9234C8.58867 15.9238 8.48574 15.9233 8.38275 15.9224C8.29627 15.9224 8.29627 15.9224 8.20803 15.9223C8.03524 15.8978 7.98021 15.8576 7.875 15.7379C7.8501 15.656 7.8501 15.656 7.85156 15.5742C7.85084 15.5337 7.85084 15.5337 7.8501 15.4923C7.92371 15.2503 8.12777 15.2262 8.38275 15.2259Z" fill="url(#paint3_linear_3386_38)"/>
<circle cx="12.15" cy="21.45" r="0.65" fill="url(#paint4_linear_3386_38)"/>
<path d="M11.4844 2.22509C11.5253 2.22491 11.5662 2.22473 11.6083 2.22454C11.6947 2.22442 11.7811 2.22476 11.8674 2.22555C11.9996 2.22655 12.1316 2.22556 12.2637 2.22436C12.3477 2.22448 12.4316 2.22472 12.5156 2.22509C12.5551 2.22471 12.5945 2.22433 12.6352 2.22394C12.9088 2.22832 12.9088 2.22832 13.0561 2.33944C13.1307 2.44559 13.1504 2.4966 13.1484 2.62499C13.1489 2.65593 13.1494 2.68687 13.1499 2.71874C13.1119 2.86188 13.0561 2.91051 12.9375 2.99999C12.797 3.02817 12.6585 3.02627 12.5156 3.02489C12.4747 3.02507 12.4338 3.02525 12.3917 3.02544C12.3053 3.02556 12.2189 3.02522 12.1326 3.02444C12.0004 3.02343 11.8684 3.02443 11.7363 3.02563C11.6523 3.0255 11.5684 3.02526 11.4844 3.02489C11.4449 3.02527 11.4055 3.02565 11.3648 3.02604C11.0912 3.02166 11.0912 3.02166 10.9439 2.91054C10.8693 2.80439 10.8496 2.75338 10.8516 2.62499C10.8508 2.57858 10.8508 2.57858 10.8501 2.53124C10.9364 2.20642 11.2055 2.22241 11.4844 2.22509Z" fill="url(#paint5_linear_3386_38)"/>
<defs>
<linearGradient id="paint0_linear_3386_38" x1="4.6778" y1="0.724186" x2="23.6982" y2="5.93347" gradientUnits="userSpaceOnUse">
<stop offset="0.11" stop-color="#60D7AD"/>
<stop offset="0.76" stop-color="#213C3A"/>
</linearGradient>
<linearGradient id="paint1_linear_3386_38" x1="7.70893" y1="4.50525" x2="17.9899" y2="8.61575" gradientUnits="userSpaceOnUse">
<stop offset="0.11" stop-color="#60D7AD"/>
<stop offset="0.76" stop-color="#213C3A"/>
</linearGradient>
<linearGradient id="paint2_linear_3386_38" x1="7.75067" y1="16.7242" x2="8.18661" y2="18.9564" gradientUnits="userSpaceOnUse">
<stop offset="0.11" stop-color="#60D7AD"/>
<stop offset="0.76" stop-color="#213C3A"/>
</linearGradient>
<linearGradient id="paint3_linear_3386_38" x1="7.75067" y1="15.2242" x2="8.18661" y2="17.4564" gradientUnits="userSpaceOnUse">
<stop offset="0.11" stop-color="#60D7AD"/>
<stop offset="0.76" stop-color="#213C3A"/>
</linearGradient>
<linearGradient id="paint4_linear_3386_38" x1="11.4844" y1="20.8" x2="13.0509" y2="21.4765" gradientUnits="userSpaceOnUse">
<stop offset="0.11" stop-color="#60D7AD"/>
<stop offset="0.76" stop-color="#213C3A"/>
</linearGradient>
<linearGradient id="paint5_linear_3386_38" x1="10.8225" y1="2.22394" x2="12.1205" y2="3.83112" gradientUnits="userSpaceOnUse">
<stop offset="0.11" stop-color="#60D7AD"/>
<stop offset="0.76" stop-color="#213C3A"/>
</linearGradient>
</defs>
</svg>
