<svg width="24" height="24" viewBox="0 0 24 24" fill="none" xmlns="http://www.w3.org/2000/svg">
<g clip-path="url(#clip0_3389_2)">
<path d="M4.66431 2.56938C5.03015 2.30425 5.57522 2.30046 5.97974 2.48735C6.30065 2.67666 6.49175 2.92769 6.60962 3.2813C6.6787 3.5948 6.67825 3.59484 6.61353 3.77348C6.55813 3.93708 6.54293 4.04617 6.56274 4.2188C6.71788 4.50173 6.98286 4.72073 7.21313 4.94145C7.28124 5.00893 7.34938 5.07685 7.41724 5.14458C7.55948 5.28589 7.70277 5.42612 7.84692 5.56548C8.03195 5.74438 8.21531 5.9249 8.39771 6.10649C8.53792 6.24591 8.67848 6.38496 8.81958 6.52348C8.88731 6.59 8.95521 6.65693 9.02271 6.72368C9.11684 6.81643 9.21172 6.90835 9.30688 7.00005C9.34881 7.04169 9.3491 7.04157 9.39185 7.08403C9.47743 7.16812 9.47747 7.16848 9.60962 7.26567C9.7734 7.24295 9.90013 7.16763 10.0432 7.08696C10.0915 7.05987 10.14 7.03284 10.1897 7.00493C10.2408 6.97589 10.2923 6.94696 10.345 6.91704C10.3971 6.88763 10.4494 6.85847 10.5032 6.82817C10.8791 6.61561 11.2522 6.3986 11.6233 6.17778C11.8181 6.06272 11.9128 6.03075 12.1409 6.04692C12.2653 6.09814 12.2657 6.09853 12.3918 6.17094C12.4389 6.19763 12.4859 6.2245 12.5344 6.252C12.5842 6.28106 12.6345 6.30995 12.6858 6.33989C12.7628 6.38377 12.7633 6.3839 12.842 6.42876C13.0942 6.57322 13.3435 6.7218 13.5911 6.87407C13.6336 6.90016 13.6761 6.92629 13.72 6.95317C13.7999 7.00256 13.88 7.05199 13.9592 7.10258C13.9949 7.12473 14.0309 7.14716 14.0676 7.16997C14.1139 7.19942 14.1142 7.19949 14.1614 7.22954C14.2754 7.27564 14.3226 7.25794 14.4377 7.2188C14.5419 7.13109 14.6385 7.04229 14.7356 6.94731C14.7649 6.9192 14.7943 6.89131 14.8245 6.86235C14.9217 6.76858 15.0189 6.67366 15.1155 6.57915C15.1484 6.54697 15.1812 6.51464 15.2151 6.48149C15.3899 6.31044 15.5646 6.13876 15.7385 5.96684C15.8824 5.82484 16.0273 5.68403 16.1731 5.54399C16.3493 5.37468 16.5242 5.20361 16.6975 5.0313C16.7637 4.9661 16.8304 4.90093 16.8977 4.83696C17.2788 4.50025 17.2794 4.50041 17.4553 4.0479C17.4337 3.88689 17.433 3.88659 17.384 3.74223C17.3083 3.49417 17.3789 3.26521 17.4866 3.03618C17.647 2.7581 17.8677 2.53272 18.1731 2.41411C18.5361 2.33444 18.9625 2.32174 19.2864 2.52251C19.5603 2.73099 19.8116 3.02756 19.8752 3.37505C19.9126 3.79077 19.8514 4.13898 19.5852 4.46782C19.3558 4.71179 19.0704 4.85862 18.7346 4.88286C18.6963 4.88316 18.6578 4.88352 18.6184 4.88383C18.5615 4.88483 18.5611 4.88477 18.5032 4.88579C18.3436 4.87232 18.2003 4.82665 18.0471 4.7813C17.6689 5.15847 17.2903 5.53567 16.9124 5.91313C16.7369 6.0883 16.5615 6.26349 16.386 6.43852C16.2167 6.60731 16.0473 6.77638 15.8782 6.94536C15.8135 7.00995 15.7486 7.07518 15.6838 7.13969C15.5934 7.22978 15.5026 7.31994 15.4124 7.4102C15.3855 7.43687 15.3589 7.46379 15.3313 7.49126C15.1961 7.6235 15.1958 7.62381 15.094 7.7813C15.1427 7.79935 15.1428 7.79992 15.1926 7.81841C15.3429 7.8817 15.4799 7.95698 15.6213 8.03813C15.6489 8.05392 15.6769 8.06972 15.7053 8.08598C15.7638 8.11948 15.8227 8.15391 15.8811 8.18755C15.9687 8.23801 16.057 8.28772 16.1448 8.33794C16.3105 8.43289 16.4757 8.52918 16.6409 8.62505C16.688 8.65202 16.7349 8.67929 16.7834 8.70708C16.8255 8.73152 16.8681 8.75611 16.9114 8.7813C16.9476 8.80221 16.9844 8.82323 17.0217 8.84477C17.1094 8.90615 17.1098 8.90651 17.2034 9.04692C17.2146 9.16164 17.2147 9.16203 17.2141 9.29985C17.2141 9.35206 17.2141 9.40427 17.2141 9.45805C17.2136 9.513 17.2127 9.56843 17.2122 9.62505C17.2121 9.67532 17.2123 9.7256 17.2122 9.77739C17.2117 9.96639 17.2104 10.1558 17.2092 10.3448L17.2034 11.625L21.5627 11.5782L21.7971 11.1563C22.1011 10.8827 22.4459 10.6976 22.8674 10.7178C23.2594 10.78 23.5759 10.927 23.8127 11.25C24.0353 11.5827 24.0432 11.9385 24.0002 12.3282C23.9197 12.6854 23.6908 12.9254 23.3909 13.125C23.0315 13.2883 22.708 13.3108 22.3333 13.1866C21.9023 13.0168 21.8026 12.8537 21.5627 12.4219L17.2034 12.375C17.2071 13.1996 17.2064 13.1999 17.2112 14.0245C17.2115 14.1277 17.212 14.2308 17.2122 14.334C17.2126 14.3877 17.2136 14.4418 17.2141 14.4971V14.7872C17.2021 14.9131 17.1775 14.9878 17.1096 15.0938C16.999 15.1729 16.9984 15.1729 16.8596 15.251C16.8088 15.28 16.7577 15.3091 16.7053 15.3389C16.6506 15.3694 16.596 15.4002 16.5413 15.4307C16.4858 15.4621 16.4297 15.493 16.3743 15.5245C16.2643 15.5867 16.1545 15.6493 16.0442 15.711C15.9103 15.7859 15.7764 15.861 15.6428 15.9366C15.4757 16.031 15.3085 16.1253 15.1409 16.2188C15.2173 16.4126 15.3578 16.5421 15.5032 16.6856C15.5443 16.7267 15.5444 16.7268 15.5862 16.7686C15.6768 16.8591 15.7677 16.9499 15.8586 17.0401C15.9216 17.1028 15.9842 17.1658 16.0471 17.2286C16.2125 17.3936 16.3785 17.558 16.5442 17.7227C16.7134 17.891 16.883 18.0601 17.052 18.2286C17.3833 18.5589 17.7153 18.8889 18.0471 19.2188C18.124 19.1962 18.1241 19.1959 18.2024 19.1729C18.5572 19.0743 18.8859 19.085 19.2161 19.254C19.5467 19.4553 19.7442 19.6863 19.8557 20.0606C19.9313 20.431 19.8744 20.7662 19.6877 21.0938C19.5078 21.332 19.2764 21.5316 18.9846 21.6094C18.5502 21.6609 18.1714 21.6416 17.8127 21.375C17.5346 21.1259 17.3872 20.8212 17.3401 20.4493C17.3435 20.3438 17.3436 20.3436 17.386 20.2266C17.4414 20.063 17.4575 19.9539 17.4377 19.7813C17.2826 19.4982 17.0167 19.2795 16.7864 19.0586C16.7183 18.9911 16.6501 18.9233 16.5823 18.8555C16.4402 18.7144 16.2976 18.5738 16.1536 18.4346C15.9686 18.2558 15.7851 18.0751 15.6028 17.8936C15.4625 17.7542 15.3211 17.6152 15.1799 17.4766C15.1123 17.4102 15.0452 17.3431 14.9778 17.2764C14.8835 17.1836 14.7879 17.0918 14.6926 17C14.6509 16.9586 14.651 16.9582 14.6086 16.9161C14.5231 16.832 14.5228 16.8315 14.3909 16.7344C14.2282 16.757 14.1023 16.831 13.9602 16.9112C13.9125 16.938 13.8639 16.9646 13.8147 16.9922C13.764 17.021 13.7136 17.0504 13.6614 17.0801C13.6093 17.1094 13.5569 17.1388 13.5032 17.169C13.2557 17.3085 13.0095 17.4497 12.7659 17.5957C12.7259 17.6195 12.6859 17.6435 12.6448 17.668C12.5705 17.7125 12.4957 17.7572 12.4221 17.8028C12.2286 17.9186 12.0909 17.9956 11.8596 17.9532C11.73 17.8995 11.6111 17.8311 11.4905 17.7598C11.4371 17.7292 11.4365 17.7295 11.3821 17.6983C11.2596 17.6278 11.1379 17.5559 11.0159 17.4844C10.9157 17.4264 10.8153 17.3685 10.7151 17.3106C9.93902 16.8606 9.93884 16.8602 9.75024 16.7344C9.53498 16.7582 9.41195 16.908 9.26392 17.0528C9.23466 17.0809 9.20519 17.1088 9.17505 17.1377C9.0778 17.2315 8.98154 17.3264 8.88501 17.4209C8.85197 17.4532 8.81847 17.4853 8.78442 17.5186C8.60964 17.6896 8.43491 17.8614 8.26099 18.0332C8.11718 18.1752 7.97213 18.3161 7.82642 18.4561C7.65025 18.6253 7.47621 18.7966 7.30298 18.9688C7.23677 19.0341 7.17018 19.0991 7.10278 19.1631C6.72151 19.5 6.7211 19.4997 6.54517 19.9522C6.56682 20.1132 6.56652 20.1136 6.61548 20.2579C6.69115 20.5057 6.62145 20.7341 6.51392 20.9629C6.35351 21.2412 6.13289 21.4673 5.82739 21.586C5.4643 21.6657 5.0381 21.6784 4.71411 21.4776C4.44019 21.2692 4.18864 20.9726 4.12524 20.625C4.0828 20.1832 4.16942 19.8592 4.44165 19.5088C4.65631 19.2741 4.94935 19.14 5.26587 19.1172C5.30413 19.1169 5.34266 19.1166 5.38208 19.1163C5.42 19.1156 5.45825 19.115 5.49731 19.1143C5.65682 19.1278 5.80017 19.1734 5.95337 19.2188C6.33253 18.8418 6.7115 18.4645 7.09009 18.087C7.26579 17.9117 7.44145 17.7365 7.61743 17.5616C7.78712 17.3929 7.95692 17.2238 8.12622 17.0547C8.19103 16.9901 8.25656 16.9249 8.32153 16.8604C8.41212 16.7705 8.50279 16.6802 8.59302 16.5899C8.62009 16.5631 8.64715 16.5364 8.67505 16.5088C8.81466 16.3869 8.81479 16.3867 8.85962 16.2188C8.82842 16.2014 8.79703 16.1839 8.76489 16.1661C7.71312 15.5805 7.71254 15.5802 7.22192 15.2959C7.1893 15.2773 7.15593 15.2585 7.12231 15.2393C6.97584 15.1538 6.81566 15.1055 6.71997 14.962C6.69678 14.7615 6.72095 14.5327 6.71997 14.3311V12.375C6.15658 12.3703 5.67006 12.3682 5.10669 12.3692C4.84509 12.3696 4.58312 12.3687 4.32153 12.3663C4.06901 12.3639 3.81625 12.3638 3.56372 12.3653C3.46743 12.3655 3.37094 12.3648 3.27466 12.3633C2.76466 12.3303 2.76432 12.3308 2.32153 12.5245C2.24555 12.6458 2.24538 12.6463 2.20337 12.7745C2.11857 12.9828 1.92889 13.0746 1.73462 13.1719C1.34682 13.319 0.985477 13.2914 0.609619 13.125C0.347318 12.9509 0.184548 12.7491 0.0471191 12.4688L0.000244141 12.375C-0.0577757 11.5437 -0.0577757 11.5437 0.187744 11.25C0.480246 10.9289 0.780129 10.7394 1.21899 10.7168C1.61178 10.7356 1.91531 10.897 2.20337 11.1563L2.43774 11.5782L6.79712 11.625C6.78785 10.7871 6.78748 10.7871 6.77563 9.94926C6.77495 9.84415 6.77417 9.73895 6.77368 9.63383C6.77248 9.57941 6.77199 9.52487 6.77075 9.4688C6.77054 9.08351 6.77 9.08323 6.90454 8.89946C7.1185 8.75219 7.11889 8.75257 7.20435 8.70708C7.23661 8.68957 7.26876 8.67141 7.302 8.65337C7.33635 8.63522 7.37111 8.61738 7.40649 8.59868C7.48104 8.55832 7.55565 8.51807 7.63013 8.47758C7.66951 8.45626 7.70869 8.43412 7.74927 8.41216C7.97445 8.28873 8.19745 8.16106 8.42017 8.03325C8.46373 8.00829 8.50712 7.98279 8.552 7.95708C8.65441 7.8984 8.75726 7.84007 8.85962 7.7813C8.78318 7.58741 8.64177 7.45805 8.49634 7.3145C8.46895 7.2871 8.44154 7.25972 8.41333 7.23149C8.32275 7.14098 8.23178 7.05019 8.14087 6.96001C8.07802 6.89733 8.0152 6.83425 7.95239 6.77153C7.78701 6.60651 7.62104 6.44207 7.45532 6.27739C7.28611 6.10914 7.11745 5.94002 6.94849 5.77153C6.61709 5.44114 6.28525 5.1112 5.95337 4.7813C5.9017 4.79647 5.84938 4.81156 5.79614 4.82719C5.43396 4.92794 5.07221 4.90588 4.73462 4.73442C4.40506 4.51315 4.2054 4.23333 4.12524 3.8438C4.08818 3.49748 4.14487 3.21207 4.31274 2.9063C4.42691 2.77164 4.42703 2.7715 4.54712 2.67192L4.66431 2.56938ZM18.844 19.9688C18.6068 19.8968 18.4759 19.9071 18.2815 20.0625C18.1661 20.2357 18.1506 20.3773 18.1877 20.5782C18.2807 20.7176 18.3457 20.795 18.5129 20.8331C18.6818 20.8429 18.7828 20.8199 18.9348 20.7422C19.0465 20.6069 19.079 20.5189 19.0901 20.3457C19.0673 20.1656 18.9776 20.083 18.844 19.9688ZM5.62524 19.9688C5.34162 19.8608 5.16812 19.9232 4.96899 20.1563C4.91222 20.3433 4.90103 20.437 4.98071 20.6163C5.10684 20.7739 5.18323 20.8103 5.38501 20.8331C5.54142 20.8281 5.58117 20.8107 5.71899 20.7188C5.82356 20.5619 5.84487 20.4783 5.8313 20.294C5.79853 20.1395 5.74646 20.0688 5.62524 19.9688ZM16.4065 9.93755C16.3115 9.93755 16.2179 10.0129 16.1379 10.0577C16.091 10.0839 16.0437 10.1107 15.9954 10.1377C15.9444 10.1664 15.8935 10.1951 15.8411 10.2247C15.7883 10.2543 15.7353 10.284 15.6809 10.3145C15.2349 10.5654 14.7923 10.8223 14.3508 11.0811C13.9887 11.2933 13.6249 11.5029 13.261 11.712C13.2133 11.7394 13.1655 11.7667 13.1165 11.795C13.075 11.8188 13.0331 11.8427 12.9905 11.8672C12.9421 11.8955 12.8938 11.924 12.844 11.9532C12.8045 11.965 12.7646 11.9771 12.7239 11.9893C12.5633 12.0511 12.4842 12.0995 12.3752 12.2344C12.2839 12.568 12.3209 12.9354 12.3293 13.2774C12.3302 13.3809 12.3308 13.4844 12.3313 13.5879C12.3331 13.8603 12.3378 14.133 12.343 14.4053C12.3478 14.6832 12.3494 14.9614 12.3518 15.2393C12.3568 15.7846 12.3654 16.3298 12.3752 16.875C12.4882 16.815 12.6012 16.7545 12.7141 16.6944C12.7459 16.6775 12.778 16.661 12.8108 16.6436C13.0251 16.5295 13.2365 16.4114 13.4446 16.2862C13.7809 16.0863 14.1192 15.8897 14.4583 15.6944C14.5092 15.665 14.5601 15.6357 14.6125 15.6055C14.7182 15.5447 14.8243 15.4837 14.9299 15.4229C15.1 15.325 15.2698 15.2261 15.4397 15.128C15.496 15.0954 15.5523 15.0629 15.6086 15.0303C15.7166 14.968 15.825 14.9062 15.9329 14.8438C15.9812 14.8159 16.0295 14.7876 16.0793 14.7588C16.1436 14.7217 16.1437 14.7215 16.2092 14.6836C16.274 14.6468 16.3399 14.6115 16.4065 14.5782V9.93755ZM7.63989 10.0967C7.63624 10.4471 7.63178 10.7981 7.6272 11.1485C7.62486 11.3285 7.62215 11.5085 7.62036 11.6885C7.61863 11.8624 7.61698 12.0362 7.6145 12.21C7.61363 12.2763 7.61309 12.3429 7.61255 12.4092C7.61176 12.502 7.61008 12.5948 7.60864 12.6875C7.60802 12.7404 7.59464 13.7268 7.59399 13.7813L7.59692 14.1856C7.59671 14.2232 7.59617 14.2611 7.59595 14.2999C7.59539 14.3926 7.59489 14.4854 7.59399 14.5782C7.62975 14.5876 7.66556 14.5968 7.70239 14.6065C7.94434 14.6979 8.15748 14.8297 8.37915 14.962C8.48046 15.0217 8.58152 15.0819 8.68286 15.1416C8.73517 15.1726 8.78814 15.2036 8.84204 15.2354C9.09491 15.3842 9.34948 15.5305 9.60376 15.6768C9.70464 15.7349 9.80562 15.7935 9.90649 15.8516C9.95703 15.8807 10.0078 15.9095 10.0598 15.9395C10.2277 16.0363 10.396 16.1336 10.5637 16.2305C10.648 16.2792 10.7324 16.3283 10.8167 16.377C10.897 16.4234 10.9776 16.4693 11.0579 16.5157C11.1062 16.5436 11.1545 16.5719 11.2043 16.6006C11.2472 16.6254 11.2901 16.6503 11.3342 16.6758C11.399 16.7127 11.4649 16.748 11.5315 16.7813C11.55 16.1967 11.5639 15.6122 11.5725 15.0274C11.5767 14.7557 11.582 14.4835 11.5911 14.212C11.5997 13.9499 11.6046 13.688 11.6067 13.4258C11.6082 13.326 11.6112 13.2258 11.6155 13.126C11.6554 12.6047 11.6556 12.6046 11.4543 12.1475C11.2645 11.9966 11.0561 11.8972 10.8323 11.8067C10.6907 11.7469 10.5641 11.6706 10.4329 11.5909C10.3391 11.5369 10.2454 11.4827 10.1516 11.4288C10.0469 11.3685 9.94183 11.3084 9.83716 11.2481C9.78432 11.2177 9.73144 11.1867 9.677 11.1553C9.51449 11.0617 9.35211 10.9679 9.1897 10.8741C9.13634 10.8433 9.08256 10.813 9.02759 10.7813C8.92697 10.7232 8.82643 10.6646 8.72583 10.6065C8.36476 10.3981 8.00296 10.191 7.64087 9.98442C7.6403 10.04 7.64047 10.0401 7.63989 10.0967ZM23.1038 11.6749C22.8616 11.5011 22.6906 11.486 22.4534 11.6719C22.3447 11.7806 22.3158 11.842 22.2893 11.9942C22.3219 12.1979 22.3959 12.2836 22.5471 12.4219C22.7062 12.4842 22.7066 12.4843 22.8752 12.4688C23.0746 12.3644 23.0749 12.3642 23.2034 12.1875C23.2329 11.9112 23.2328 11.911 23.1038 11.6749ZM1.45337 11.5782C1.18289 11.498 1.05847 11.5401 0.843994 11.7188C0.768375 11.87 0.769552 12.024 0.797119 12.1875C0.910542 12.3443 0.988785 12.4077 1.17212 12.4688C1.34471 12.4688 1.41356 12.4365 1.54712 12.3282C1.66731 12.1839 1.68814 12.1163 1.68481 11.9268C1.63603 11.7479 1.60548 11.6823 1.45337 11.5782ZM12.1936 6.98735C11.9914 6.88729 11.8631 6.9498 11.6848 7.05669C11.6411 7.0826 11.5971 7.10812 11.552 7.13481C11.5047 7.16336 11.4572 7.19231 11.4084 7.22173C11.3062 7.28243 11.2031 7.34273 11.1008 7.40337C11.048 7.43482 10.9951 7.46666 10.9407 7.49907C10.6876 7.64893 10.4329 7.79584 10.178 7.94243C10.0768 8.00071 9.97541 8.05894 9.87427 8.11723C9.82355 8.14645 9.77223 8.176 9.71997 8.2061C9.55531 8.30098 9.39042 8.39626 9.22583 8.49126C9.19828 8.50716 9.17023 8.52273 9.14185 8.53911C9.0092 8.61566 8.87702 8.69301 8.74438 8.76958C8.50196 8.90946 8.25903 9.04894 8.01587 9.18755C8.1459 9.32745 8.27036 9.42239 8.43774 9.51372C8.48421 9.53933 8.53147 9.56545 8.57935 9.59184C8.62917 9.61896 8.67937 9.64594 8.73071 9.67387C8.83744 9.73277 8.94439 9.79157 9.05103 9.85063C9.07814 9.86563 9.10512 9.88108 9.13306 9.89653C9.40256 10.0459 9.66909 10.2006 9.93481 10.3565C10.3959 10.6268 10.8583 10.8946 11.3215 11.1612C11.37 11.1891 11.4191 11.2174 11.469 11.2461C11.5115 11.2706 11.5541 11.2951 11.5979 11.3204C11.7185 11.3905 11.719 11.3904 11.8372 11.4756C11.9505 11.5449 11.9504 11.5449 12.0696 11.501C12.1278 11.4695 12.1284 11.4697 12.1877 11.4375C12.2261 11.4176 12.2645 11.3975 12.304 11.377C12.3446 11.3542 12.3851 11.3311 12.427 11.3077C12.4733 11.2817 12.5199 11.2562 12.5676 11.2295C12.6172 11.2016 12.6669 11.1734 12.718 11.1446C12.7699 11.1154 12.8218 11.0858 12.8752 11.0557C13.3178 10.8061 13.7573 10.551 14.1956 10.294C14.4018 10.1731 14.6084 10.0527 14.8157 9.93364C14.8433 9.91775 14.8712 9.90216 14.8997 9.88579C15.0336 9.80879 15.1679 9.73206 15.302 9.65532C15.5345 9.52175 15.7644 9.38756 15.9846 9.23442C15.8297 9.10516 15.675 8.99857 15.4983 8.90141C15.4506 8.875 15.4029 8.84855 15.3538 8.82133C15.303 8.79345 15.2518 8.7651 15.1995 8.73637C14.8586 8.54741 14.5179 8.35829 14.1829 8.15923C13.7896 7.92566 13.3929 7.69759 12.9963 7.46977C12.947 7.44141 12.8977 7.41306 12.8469 7.38383C12.7991 7.35637 12.7507 7.32815 12.7014 7.29985C12.5298 7.1994 12.3611 7.09449 12.1936 6.98735ZM18.9377 3.2813C18.7066 3.12719 18.5059 3.13177 18.2815 3.2813C18.1769 3.43823 18.1546 3.52169 18.1682 3.7061C18.201 3.86067 18.2539 3.93119 18.3752 4.0313C18.5043 4.0804 18.6131 4.09555 18.7502 4.07817C18.944 3.96544 19.0159 3.89504 19.0813 3.67973C19.078 3.49704 19.0507 3.42256 18.9377 3.2813ZM5.48755 3.16704C5.26181 3.15378 5.1176 3.19497 4.96899 3.37505C4.91981 3.50418 4.90473 3.61277 4.92212 3.75005C5.03487 3.9438 5.10524 4.01574 5.32056 4.0811C5.50312 4.07782 5.5777 4.05058 5.71899 3.93755C5.83434 3.76449 5.84984 3.6227 5.81274 3.42192C5.71976 3.28245 5.65463 3.20518 5.48755 3.16704Z" fill="url(#paint0_linear_3389_2)"/>
</g>
<defs>
<linearGradient id="paint0_linear_3389_2" x1="-0.320109" y1="2.35747" x2="26.3328" y2="16.7154" gradientUnits="userSpaceOnUse">
<stop offset="0.11" stop-color="#60D7AD"/>
<stop offset="0.76" stop-color="#213C3A"/>
</linearGradient>
<clipPath id="clip0_3389_2">
<rect width="24" height="24" fill="white"/>
</clipPath>
</defs>
</svg>
