<svg width="24" height="24" viewBox="0 0 24 24" fill="none" xmlns="http://www.w3.org/2000/svg">
<g clip-path="url(#clip0_3386_15)">
<path d="M20.8311 0.991989C21.3963 0.636163 22.0941 0.569836 22.6583 0.975388C23.0031 1.26246 23.2313 1.61481 23.297 2.0623C23.3058 2.54225 23.1872 2.87093 22.9337 3.26933C22.5917 3.61128 22.2392 3.75076 21.7589 3.76738C21.3103 3.75929 20.9869 3.63315 20.6602 3.325C20.4504 3.0946 20.3488 2.87415 20.2501 2.57793L18.3282 2.53105L18.2345 2.76543C18.1799 2.87576 18.1242 2.98531 18.0675 3.09453C18.0514 3.12567 18.0352 3.15717 18.0186 3.18925C17.9848 3.25485 17.9511 3.32097 17.9171 3.38652C17.8656 3.4858 17.814 3.58499 17.7628 3.68437C17.7297 3.74842 17.6963 3.81272 17.6632 3.87675C17.6405 3.92072 17.6403 3.92091 17.6173 3.96562C17.6026 3.99382 17.5884 4.02251 17.5733 4.05156C17.5591 4.07906 17.5441 4.10721 17.5294 4.13554C17.4813 4.22408 17.4286 4.30933 17.3761 4.39531C17.3498 4.4452 17.324 4.49528 17.297 4.54668C17.3535 4.7164 17.411 4.75045 17.5518 4.85722C18.0865 5.274 18.5878 5.7379 19.0138 6.2664C19.0446 6.30313 19.0448 6.30315 19.0763 6.34062C19.2213 6.52669 20.1634 7.81872 20.1378 8.05058H20.1368C20.1571 8.09085 20.1776 8.13249 20.1974 8.17656C20.2132 8.21131 20.2289 8.24623 20.2452 8.28203C21.2076 10.4549 21.2841 12.9928 20.4503 15.2186C20.1382 16.0118 19.7443 16.765 19.2188 17.4373C19.1848 17.4812 19.1504 17.5258 19.1153 17.5711C18.5796 18.2427 17.9789 18.8944 17.2501 19.3592C17.5894 20.0573 17.9602 20.7383 18.3282 21.4217L20.2501 21.4686L20.3907 20.9998C20.6272 20.617 20.9361 20.3676 21.3751 20.2498C21.8932 20.2032 22.3427 20.2344 22.7696 20.5603C23.1139 20.8859 23.2778 21.2796 23.297 21.7498C23.2789 22.1935 23.1426 22.565 22.8224 22.8787C22.373 23.2495 21.9437 23.3017 21.3751 23.2498C21.217 23.2086 21.0909 23.1492 20.9532 23.0623C20.9242 23.0459 20.8952 23.0294 20.8653 23.0125C20.6263 22.8635 20.4759 22.6523 20.3438 22.4061V22.3123C20.3146 22.3128 20.2851 22.3137 20.255 22.3143C19.9485 22.3194 19.6415 22.3224 19.3351 22.325C19.2208 22.3262 19.1065 22.3279 18.9923 22.3299C18.8279 22.3327 18.6635 22.3347 18.4991 22.3357C18.448 22.3369 18.3965 22.3374 18.3438 22.3387C17.9904 22.3388 17.99 22.3395 17.8116 22.2117C17.7177 22.0773 17.6349 21.9448 17.5587 21.7996C17.5301 21.7456 17.5012 21.6912 17.4718 21.6355C17.4418 21.578 17.4119 21.5203 17.3819 21.4627C17.3509 21.4038 17.3193 21.3448 17.2882 21.2859C17.2112 21.14 17.1351 20.9937 17.0587 20.8475C16.9947 20.7252 16.9298 20.6033 16.8653 20.4812C16.7587 20.2794 16.6528 20.077 16.547 19.8748C16.5238 19.886 16.5005 19.8974 16.4767 19.909C14.0389 21.0882 11.5491 21.3861 8.95517 20.5184C8.46314 20.3463 8.00385 20.1243 7.54697 19.8748C7.4443 20.0053 7.36275 20.1363 7.2872 20.284C7.26498 20.3271 7.24271 20.3704 7.21982 20.4148C7.19623 20.4609 7.17283 20.507 7.14853 20.5545C7.09817 20.6514 7.04763 20.7486 6.99716 20.8455C6.92176 20.9904 6.84638 21.1358 6.77158 21.2811C6.7047 21.4104 6.63665 21.5391 6.56845 21.6678C6.54846 21.707 6.5285 21.7465 6.5079 21.7869C6.48842 21.8233 6.46841 21.8598 6.44833 21.8973C6.43185 21.9288 6.41551 21.9605 6.39853 21.993C6.27087 22.1471 6.12909 22.2088 5.93076 22.2322C5.78933 22.2393 5.64852 22.2421 5.50693 22.243C5.42963 22.2442 5.42925 22.2436 5.35068 22.2449C5.18643 22.2475 5.02177 22.2492 4.85751 22.2508C4.7459 22.2523 4.63416 22.254 4.52255 22.2557C4.24947 22.2596 3.97632 22.2628 3.70322 22.2654C3.69071 22.2912 3.67801 22.317 3.66513 22.3436C3.64851 22.3773 3.63147 22.4113 3.61435 22.4461C3.58986 22.4961 3.59051 22.4966 3.56552 22.5477C3.38187 22.8924 3.04478 23.1136 2.68076 23.2303C2.19101 23.324 1.71634 23.2658 1.3038 22.9861C0.935939 22.6871 0.766531 22.3083 0.703217 21.8436C0.677318 21.4024 0.831178 20.9992 1.11826 20.6639C1.45613 20.3476 1.87055 20.1845 2.3331 20.1932C2.74847 20.2325 3.12482 20.4106 3.4122 20.7137C3.58622 20.9319 3.64548 21.0958 3.75009 21.3748L5.76572 21.4217L5.85947 21.1404C5.90948 21.0385 5.96175 20.9376 6.01572 20.8377C6.03075 20.8097 6.04613 20.7815 6.06161 20.7527C6.10929 20.6642 6.15718 20.5755 6.20517 20.4871C6.23701 20.428 6.26907 20.3685 6.30087 20.3094C6.55346 19.8411 6.55372 19.841 6.68173 19.6346C6.75645 19.5103 6.75622 19.5101 6.75497 19.3992C6.67521 19.2667 6.55772 19.1891 6.43369 19.1014C4.48669 17.6625 3.40421 15.4674 3.03036 13.117C2.72081 10.7865 3.40683 8.37651 4.81747 6.51347C5.2615 5.93812 5.74873 5.40893 6.32822 4.96855C6.40923 4.90514 6.4904 4.84157 6.57138 4.77812C6.63084 4.7322 6.6905 4.68619 6.75009 4.64043C6.52107 4.13255 6.26983 3.64104 5.99716 3.15508C5.9739 3.11331 5.95082 3.07115 5.92685 3.02812C5.90596 2.99105 5.8849 2.95402 5.86337 2.91582C5.81238 2.81254 5.81259 2.81228 5.76572 2.6248H3.70322L3.65634 2.90605C3.45874 3.29185 3.17482 3.54779 2.77548 3.70976C2.37075 3.8192 1.88472 3.80409 1.50497 3.6209C1.11665 3.39034 0.849514 3.04777 0.729584 2.60722C0.643567 2.09894 0.764738 1.68572 1.04794 1.26543C1.25055 1.00372 1.54588 0.807487 1.87509 0.749802C2.29765 0.721632 2.67719 0.704084 3.04697 0.937302C3.076 0.953686 3.10495 0.970228 3.13486 0.987106C3.37172 1.13476 3.53415 1.34386 3.65634 1.59355C3.67334 1.687 3.68914 1.78086 3.70322 1.8748C3.73383 1.87439 3.76445 1.87425 3.79599 1.87383C4.11527 1.86968 4.4347 1.8671 4.754 1.86504C4.87306 1.86409 4.99236 1.86275 5.11142 1.86113C5.2827 1.85886 5.45478 1.85708 5.62607 1.85625C5.70568 1.8548 5.70589 1.85479 5.7872 1.85332C5.86179 1.8533 5.86247 1.85334 5.93857 1.85332C5.98207 1.8529 6.02558 1.85277 6.0704 1.85234C6.22394 1.88196 6.27702 1.94309 6.37509 2.0623C6.43943 2.1705 6.49842 2.27772 6.55576 2.38945C6.57238 2.4211 6.58941 2.45254 6.60654 2.48515C6.65956 2.58624 6.71224 2.68751 6.76474 2.78886C6.83371 2.92128 6.90246 3.05408 6.97177 3.18633C6.99682 3.2342 6.99702 3.23421 7.02255 3.283C7.17301 3.5688 7.33402 3.84776 7.50009 4.1248C7.54645 4.10159 7.54663 4.10157 7.59384 4.07793C9.93604 2.91148 12.3937 2.59959 14.919 3.40898C15.4822 3.59787 16.0168 3.85898 16.547 4.1248C16.568 4.08416 16.5685 4.08427 16.5899 4.04277C16.8609 3.51941 17.1338 2.99669 17.4142 2.47832C17.4371 2.4355 17.4598 2.39255 17.4835 2.34843C17.7669 1.82743 17.7674 1.8271 17.9532 1.73418C18.0296 1.72996 18.1062 1.72911 18.1827 1.72929C18.2306 1.7293 18.2789 1.72929 18.3282 1.72929C18.4059 1.72966 18.4062 1.7299 18.4854 1.73027C18.5383 1.73034 18.5911 1.7302 18.6456 1.73027C18.8152 1.73053 18.9848 1.73065 19.1544 1.73125C19.269 1.73148 19.3836 1.73203 19.4981 1.73222C19.7799 1.73274 20.0621 1.73319 20.3438 1.73418C20.3503 1.69777 20.3567 1.66134 20.3634 1.62383C20.4215 1.35933 20.6207 1.1533 20.8311 0.991989ZM21.628 21.0291C21.3949 21.0663 21.2732 21.1881 21.1261 21.3631C21.0153 21.5765 20.9621 21.7543 21.0274 21.991C21.1143 22.1925 21.2197 22.3276 21.419 22.4236C21.6749 22.5013 21.9026 22.4924 22.1427 22.3768C22.3106 22.2248 22.4339 22.1031 22.4708 21.8719C22.4828 21.6055 22.4502 21.4381 22.2657 21.2342C22.0618 21.0497 21.8944 21.0171 21.628 21.0291ZM2.13486 21.034C1.89846 21.0598 1.77659 21.1876 1.62314 21.3572C1.51985 21.5718 1.50963 21.7501 1.54697 21.9842C1.65617 22.211 1.78891 22.3437 2.01572 22.4529C2.24979 22.4903 2.42812 22.4801 2.64267 22.3768C2.80687 22.2282 2.9139 22.0812 2.99716 21.8758C3.00241 21.6487 2.94301 21.4232 2.79013 21.2508C2.56694 21.0626 2.41874 21.0303 2.13486 21.034ZM13.631 3.95879C12.1922 3.62325 10.5591 3.80878 9.18759 4.3123C9.15423 4.32431 9.1204 4.33606 9.08603 4.34843C8.3058 4.63377 7.58028 5.05181 6.93759 5.57793C6.89895 5.60916 6.89889 5.60954 6.85947 5.6414C5.48443 6.75823 4.48523 8.29973 4.07822 10.0311C4.06902 10.0699 4.05937 10.1092 4.0499 10.1492C3.79878 11.2658 3.75588 12.5706 4.03134 13.6873C4.0409 13.7265 4.05079 13.7661 4.06064 13.8064C4.34625 14.9429 4.81584 15.9911 5.53134 16.9217C5.56331 16.9641 5.59509 17.0068 5.62802 17.0506C6.96219 18.7551 8.94018 19.8081 11.0772 20.076C13.12 20.3026 15.2952 19.7664 16.9249 18.4881C18.7429 16.9911 19.9045 15.0401 20.1476 12.6736C20.2585 11.2123 20.0015 9.75529 19.3653 8.43437C19.2914 8.27546 19.2501 8.14871 19.256 7.98906C19.0293 7.77944 18.2207 6.72818 18.047 6.51543C16.9364 5.19467 15.397 4.3844 13.7345 3.98418C13.7003 3.97579 13.6661 3.96743 13.631 3.95879ZM19.5001 7.4998C19.4492 7.54114 19.407 7.59919 19.3731 7.66093C19.4122 7.59572 19.4562 7.53546 19.5001 7.4998ZM2.12802 1.5291C1.89685 1.566 1.77507 1.68931 1.62314 1.85722C1.51985 2.07175 1.50963 2.25014 1.54697 2.48418C1.65617 2.71099 1.78891 2.84372 2.01572 2.95293C2.24979 2.99028 2.42812 2.98006 2.64267 2.87675C2.81059 2.72482 2.93389 2.60306 2.97079 2.37187C2.98279 2.10548 2.95022 1.9381 2.76572 1.73418C2.5618 1.54969 2.39444 1.5171 2.12802 1.5291ZM21.628 1.5291C21.3969 1.566 21.2751 1.68931 21.1231 1.85722C21.0198 2.07175 21.0096 2.25014 21.047 2.48418C21.1562 2.71099 21.2889 2.84372 21.5157 2.95293C21.7498 2.99028 21.9281 2.98006 22.1427 2.87675C22.3106 2.72482 22.4339 2.60306 22.4708 2.37187C22.4828 2.10548 22.4502 1.9381 22.2657 1.73418C22.0618 1.54969 21.8944 1.5171 21.628 1.5291Z" fill="url(#paint0_linear_3386_15)"/>
<path d="M12.5198 6.1585C12.6133 6.20301 12.7057 6.24946 12.7975 6.29704C12.8585 6.32812 12.9194 6.35921 12.9822 6.39123C13.5153 6.66788 14.0348 6.96698 14.5547 7.26529C14.8933 7.45929 15.2333 7.65041 15.576 7.83785C15.6506 7.87882 15.7253 7.91979 15.7999 7.96076C15.9085 8.02034 16.0171 8.07975 16.1261 8.13863C17.239 8.73982 17.239 8.73982 17.4688 9.32459C17.4995 9.50467 17.5 9.68097 17.4982 9.86312C17.4986 9.91522 17.499 9.96732 17.4995 10.021C17.5005 10.1921 17.4998 10.3632 17.499 10.5343C17.4992 10.6538 17.4994 10.7734 17.4997 10.8929C17.5 11.1431 17.4995 11.3932 17.4985 11.6433C17.4972 11.9633 17.4979 12.2832 17.4993 12.6031C17.5001 12.8499 17.4998 13.0966 17.4993 13.3434C17.4991 13.4613 17.4993 13.5793 17.4998 13.6972C17.5004 13.8623 17.4995 14.0273 17.4982 14.1924C17.4987 14.2407 17.4992 14.2891 17.4996 14.3388C17.4944 14.7092 17.3941 14.9906 17.1412 15.2759C16.8319 15.5209 16.5021 15.7127 16.1514 15.9001C16.0292 15.9665 15.9069 16.0331 15.7847 16.0996C15.6926 16.1495 15.6926 16.1495 15.5987 16.2004C15.3257 16.349 15.0549 16.5012 14.7842 16.6536C14.6819 16.711 14.5795 16.7685 14.4771 16.8259C14.2592 16.9484 14.0414 17.0712 13.8238 17.1942C13.7676 17.2259 13.7115 17.2575 13.6536 17.2902C13.5468 17.3504 13.44 17.4108 13.3333 17.4713C12.3353 18.0336 12.3353 18.0336 11.7152 17.9747C11.53 17.9262 11.3707 17.8457 11.2025 17.7585C11.1415 17.7274 11.0806 17.6963 11.0178 17.6643C10.4847 17.3877 9.96518 17.0886 9.44532 16.7902C9.1067 16.5962 8.76672 16.4051 8.42403 16.2177C8.34939 16.1767 8.27474 16.1357 8.2001 16.0948C8.09153 16.0352 7.98288 15.9758 7.87388 15.9169C6.76104 15.3157 6.76104 15.3157 6.53124 14.7309C6.50046 14.5509 6.50002 14.3746 6.50175 14.1924C6.50136 14.1403 6.50096 14.0882 6.50054 14.0345C6.49955 13.8634 6.5002 13.6924 6.50098 13.5213C6.50082 13.4017 6.5006 13.2822 6.50032 13.1626C6.49998 12.9125 6.50047 12.6624 6.50153 12.4122C6.50283 12.0923 6.50208 11.7724 6.50072 11.4524C6.49989 11.2057 6.50016 10.9589 6.50075 10.7122C6.5009 10.5942 6.50071 10.4763 6.50018 10.3583C6.4996 10.1932 6.50049 10.0282 6.50175 9.86312C6.50129 9.8148 6.50083 9.76648 6.50036 9.7167C6.50559 9.34632 6.60589 9.06493 6.85877 8.77966C7.16815 8.53465 7.4979 8.34285 7.84858 8.15547C7.97085 8.08898 8.09308 8.02246 8.2153 7.9559C8.27669 7.92265 8.33808 7.8894 8.40133 7.85514C8.67433 7.7065 8.94509 7.55436 9.21577 7.40196C9.31813 7.34452 9.4205 7.28708 9.52286 7.22964C9.74082 7.10716 9.95855 6.98432 10.1762 6.86133C10.2324 6.82966 10.2885 6.79799 10.3464 6.76536C10.4532 6.70511 10.56 6.64475 10.6667 6.58424C11.879 5.9012 11.879 5.9012 12.5198 6.1585ZM11.5899 7.14875C11.5017 7.19738 11.5017 7.19738 11.4118 7.24698C11.317 7.30028 11.317 7.30028 11.2203 7.35466C11.1539 7.39157 11.0874 7.42845 11.0209 7.46529C10.4539 7.78041 9.89062 8.10153 9.32815 8.42389C9.09347 8.55814 8.85776 8.69048 8.62097 8.82134C8.56349 8.85318 8.50601 8.88502 8.44679 8.91783C8.33825 8.97782 8.22956 9.03755 8.12068 9.09696C8.07223 9.12379 8.02378 9.15061 7.97386 9.17824C7.93162 9.20139 7.88937 9.22454 7.84584 9.2484C7.70266 9.34061 7.60672 9.40957 7.49967 9.54085C7.47631 9.70591 7.46676 9.85167 7.46747 10.0168C7.4668 10.0649 7.46612 10.1129 7.46543 10.1624C7.46355 10.3211 7.46339 10.4798 7.46339 10.6386C7.46281 10.749 7.46218 10.8594 7.46151 10.9699C7.4604 11.2014 7.4602 11.4329 7.46057 11.6644C7.46091 11.9609 7.45839 12.2573 7.45511 12.5537C7.453 12.7818 7.45272 13.0099 7.45296 13.238C7.4528 13.3473 7.45199 13.4566 7.45054 13.5659C7.44872 13.7189 7.44943 13.8717 7.45078 14.0247C7.4497 14.0697 7.44863 14.1147 7.44752 14.1611C7.45142 14.3475 7.45796 14.467 7.58613 14.6136C7.77841 14.7727 7.98891 14.9012 8.2113 15.0196C8.26953 15.051 8.32775 15.0824 8.38775 15.1147C8.44951 15.1475 8.51127 15.1803 8.5749 15.2141C8.70781 15.2858 8.84067 15.3575 8.97344 15.4293C9.00719 15.4475 9.04093 15.4658 9.0757 15.4845C9.42598 15.6741 9.77138 15.8712 10.1166 16.069C10.2337 16.1358 10.3509 16.2025 10.4681 16.2692C10.6866 16.3937 10.9043 16.5195 11.1215 16.646C11.2185 16.7015 11.3155 16.7569 11.4125 16.8124C11.4558 16.8381 11.4991 16.8638 11.5437 16.8903C11.6042 16.9245 11.6042 16.9245 11.666 16.9594C11.7005 16.9794 11.735 16.9994 11.7705 17.0201C11.9954 17.0893 12.1823 17.0222 12.3891 16.9287C12.4439 16.8981 12.4987 16.8676 12.5552 16.836C12.6165 16.8021 12.6779 16.7682 12.7411 16.7333C12.8055 16.6969 12.87 16.6606 12.9364 16.6232C13.0038 16.5856 13.0712 16.5482 13.1386 16.5107C13.3292 16.4047 13.5191 16.2978 13.709 16.1907C13.7527 16.166 13.7963 16.1414 13.8413 16.116C14.0095 16.021 14.1771 15.9253 14.3445 15.8291C14.5742 15.6974 14.8057 15.5685 15.037 15.4394C15.2511 15.3198 15.4648 15.1996 15.6783 15.0791C15.7627 15.0316 15.8473 14.9843 15.932 14.9373C16.0222 14.8872 16.1118 14.8362 16.2013 14.785C16.2468 14.7594 16.2923 14.7337 16.3392 14.7073C16.476 14.5963 16.504 14.5165 16.5573 14.3525C16.5683 14.1999 16.5735 14.0527 16.5729 13.9001C16.5732 13.8553 16.5735 13.8104 16.5738 13.7642C16.5746 13.6163 16.5746 13.4684 16.5744 13.3204C16.5747 13.2174 16.5749 13.1143 16.5752 13.0112C16.5756 12.7953 16.5756 12.5794 16.5753 12.3635C16.575 12.0871 16.5759 11.8107 16.5772 11.5343C16.5781 11.3215 16.5781 11.1086 16.578 10.8958C16.578 10.7939 16.5783 10.692 16.5789 10.5901C16.5796 10.4475 16.5792 10.305 16.5785 10.1624C16.5789 10.1205 16.5794 10.0786 16.5798 10.0355C16.5772 9.77636 16.5324 9.59812 16.3864 9.37866C16.2398 9.2659 16.2398 9.2659 16.0624 9.17634C16.0302 9.15875 15.9979 9.14116 15.9647 9.12304C15.8589 9.06553 15.7524 9.00924 15.6458 8.95291C15.5714 8.91269 15.497 8.87238 15.4227 8.83198C15.2693 8.74864 15.1156 8.66567 14.9619 8.58291C14.6149 8.39554 14.2726 8.20086 13.9297 8.0068C13.8037 7.93594 13.6777 7.86512 13.5517 7.79435C13.377 7.69625 13.2024 7.59803 13.0281 7.49927C12.8768 7.41348 12.725 7.32825 12.5732 7.24315C12.5075 7.20558 12.5075 7.20558 12.4405 7.16726C12.3803 7.13374 12.3803 7.13374 12.3189 7.09955C12.2845 7.08014 12.2502 7.06073 12.2148 7.04073C11.965 6.9395 11.8041 7.02958 11.5899 7.14875Z" fill="url(#paint1_linear_3386_15)"/>
<path d="M11.9889 9.00008C12.0653 9.00053 12.0653 9.00053 12.1432 9.001C12.8327 9.01815 13.3813 9.22639 13.9204 9.66376C13.9642 9.69661 14.0079 9.72946 14.053 9.76331C14.5572 10.1898 14.9372 10.8714 14.9945 11.5346C15.0249 12.4522 14.9455 13.1719 14.346 13.9113C14.3054 13.9671 14.2648 14.023 14.223 14.0805C13.7336 14.5917 13.023 14.9582 12.3108 14.9981C12.2146 14.9999 12.1184 15.0004 12.0222 14.9997C11.9713 14.9994 11.9204 14.9991 11.868 14.9988C11.1774 14.9816 10.6312 14.7727 10.0907 14.336C10.0347 14.2955 9.97879 14.255 9.92115 14.2133C9.40906 13.7248 9.04186 13.0155 9.00195 12.3046C9.00013 12.2086 8.99961 12.1125 9.00028 12.0165C9.00059 11.9657 9.00089 11.9149 9.00121 11.8625C9.01842 11.1733 9.2277 10.628 9.66517 10.0885C9.70576 10.0327 9.74635 9.97681 9.78817 9.91927C10.3688 9.31278 11.1564 8.99424 11.9889 9.00008ZM10.4763 10.5199C10.0209 11.0014 9.90474 11.5712 9.91637 12.2058C9.94339 12.7911 10.245 13.2336 10.6558 13.6292C11.1584 14.0412 11.696 14.1357 12.327 14.0833C12.8973 14.0137 13.3354 13.6901 13.6977 13.2609C14.08 12.7319 14.1628 12.1589 14.08 11.5221C13.94 10.9361 13.5669 10.484 13.0594 10.1681C12.1777 9.68822 11.2188 9.85786 10.4763 10.5199Z" fill="url(#paint2_linear_3386_15)"/>
<path d="M12 10.8516C12.0309 10.8511 12.0619 10.8506 12.0937 10.8501C12.2369 10.8881 12.2855 10.9439 12.375 11.0625C12.4032 11.203 12.4013 11.3415 12.3999 11.4844C12.4001 11.5253 12.4003 11.5662 12.4004 11.6083C12.4006 11.6947 12.4002 11.7811 12.3994 11.8674C12.3984 11.9996 12.3994 12.1316 12.4006 12.2637C12.4005 12.3477 12.4003 12.4316 12.3999 12.5156C12.4003 12.5551 12.4007 12.5945 12.401 12.6352C12.3967 12.9088 12.3967 12.9088 12.2855 13.0561C12.1794 13.1307 12.1284 13.1504 12 13.1484C11.9536 13.1492 11.9536 13.1492 11.9062 13.1499C11.7631 13.1119 11.7145 13.0561 11.625 12.9375C11.5968 12.797 11.5987 12.6585 11.6001 12.5156C11.5999 12.4747 11.5997 12.4338 11.5995 12.3917C11.5994 12.3053 11.5998 12.2189 11.6005 12.1326C11.6015 12.0004 11.6006 11.8684 11.5994 11.7363C11.5995 11.6523 11.5997 11.5684 11.6001 11.4844C11.5997 11.4449 11.5993 11.4055 11.5989 11.3648C11.6033 11.0912 11.6033 11.0912 11.7144 10.9439C11.8206 10.8693 11.8716 10.8496 12 10.8516Z" fill="url(#paint3_linear_3386_15)"/>
</g>
<defs>
<linearGradient id="paint0_linear_3386_15" x1="0.429593" y1="0.697071" x2="27.6499" y2="12.464" gradientUnits="userSpaceOnUse">
<stop offset="0.11" stop-color="#60D7AD"/>
<stop offset="0.76" stop-color="#213C3A"/>
</linearGradient>
<linearGradient id="paint1_linear_3386_15" x1="6.36823" y1="6" x2="19.9642" y2="11.3823" gradientUnits="userSpaceOnUse">
<stop offset="0.11" stop-color="#60D7AD"/>
<stop offset="0.76" stop-color="#213C3A"/>
</linearGradient>
<linearGradient id="paint2_linear_3386_15" x1="8.92812" y1="9" x2="16.1579" y2="12.1223" gradientUnits="userSpaceOnUse">
<stop offset="0.11" stop-color="#60D7AD"/>
<stop offset="0.76" stop-color="#213C3A"/>
</linearGradient>
<linearGradient id="paint3_linear_3386_15" x1="11.5893" y1="10.8501" x2="12.7107" y2="11.019" gradientUnits="userSpaceOnUse">
<stop offset="0.11" stop-color="#60D7AD"/>
<stop offset="0.76" stop-color="#213C3A"/>
</linearGradient>
<clipPath id="clip0_3386_15">
<rect width="24" height="24" fill="white"/>
</clipPath>
</defs>
</svg>
