<svg width="24" height="24" viewBox="0 0 24 24" fill="none" xmlns="http://www.w3.org/2000/svg">
<g clip-path="url(#clip0_3392_12)">
<path d="M15.0002 2.5C15.1541 2.50006 15.3001 2.57108 15.3948 2.69238C15.4893 2.81362 15.5228 2.97195 15.4856 3.12109C15.1453 4.48222 14.7082 5.55624 14.1506 6.2998C14.0707 6.40641 13.9865 6.50584 13.9006 6.59961C14.6891 6.75247 15.4391 7.07757 16.095 7.55566C17.0358 8.2416 17.7348 9.20888 18.0911 10.3174L19.7971 15.623C20.014 16.2979 20.0688 17.015 19.9563 17.7148C19.8437 18.4145 19.567 19.0777 19.1497 19.6504C18.7321 20.2232 18.1848 20.6894 17.553 21.0107C16.9213 21.332 16.2226 21.4999 15.5139 21.5H8.48755C7.77871 21.5 7.07935 21.332 6.44751 21.0107C5.81577 20.6894 5.26835 20.2231 4.85083 19.6504C4.43345 19.0777 4.15676 18.4145 4.04419 17.7148C3.93163 17.0149 3.98645 16.298 4.20337 15.623L5.90942 10.3174C6.26574 9.20889 6.96465 8.24159 7.90552 7.55566C8.56108 7.07781 9.31066 6.75338 10.0989 6.60059C10.0129 6.50677 9.92985 6.40646 9.84985 6.2998C9.29229 5.55624 8.85519 4.48226 8.51489 3.12109C8.47767 2.9719 8.51116 2.81364 8.60571 2.69238C8.70047 2.57108 8.84632 2.5 9.00024 2.5H15.0002ZM10.7893 7.51367C9.96305 7.57928 9.16791 7.87234 8.49438 8.36328C7.72456 8.92449 7.15311 9.71608 6.86157 10.623L5.15552 15.9287C4.9868 16.4536 4.94397 17.0113 5.03149 17.5557C5.11905 18.1 5.33464 18.616 5.65942 19.0615C5.98418 19.507 6.40926 19.8702 6.90063 20.1201C7.39205 20.37 7.93625 20.5 8.48755 20.5H15.5129C16.0642 20.4999 16.6085 20.37 17.0999 20.1201C17.5912 19.8702 18.0173 19.507 18.342 19.0615C18.6667 18.6161 18.8815 18.0999 18.969 17.5557C19.0565 17.0113 19.0137 16.4536 18.845 15.9287L17.1399 10.623C16.8484 9.71611 16.2759 8.9245 15.5061 8.36328C14.8326 7.87233 14.0375 7.57927 13.2112 7.51367L12.8557 7.5H11.1458L10.7893 7.51367ZM12.0002 9.5C12.2763 9.5001 12.5002 9.72392 12.5002 10V10.5H14.0002C14.2763 10.5001 14.5002 10.7239 14.5002 11C14.5002 11.2761 14.2763 11.4999 14.0002 11.5H11.5002C11.2351 11.5 10.9807 11.6055 10.7932 11.793C10.6057 11.9805 10.5002 12.2348 10.5002 12.5C10.5002 12.7652 10.6057 13.0195 10.7932 13.207C10.9807 13.3945 11.2351 13.5 11.5002 13.5H12.5002C13.0306 13.5001 13.5393 13.7109 13.9143 14.0859C14.2893 14.461 14.5002 14.9696 14.5002 15.5C14.5002 16.0304 14.2893 16.539 13.9143 16.9141C13.5861 17.2423 13.1554 17.4448 12.6975 17.4902L12.5002 17.5V18C12.5002 18.2761 12.2763 18.4999 12.0002 18.5C11.7241 18.5 11.5002 18.2761 11.5002 18V17.5H10.0002C9.7241 17.5 9.50024 17.2761 9.50024 17C9.50024 16.7239 9.7241 16.5 10.0002 16.5H12.5002C12.7654 16.4999 13.0198 16.3945 13.2073 16.207C13.3948 16.0195 13.5002 15.7652 13.5002 15.5C13.5002 15.2348 13.3948 14.9805 13.2073 14.793C13.0198 14.6055 12.7654 14.5001 12.5002 14.5H11.5002C10.9699 14.5 10.4612 14.2891 10.0862 13.9141C9.71111 13.539 9.50024 13.0304 9.50024 12.5C9.50024 11.9696 9.71111 11.461 10.0862 11.0859C10.4143 10.7579 10.8444 10.5553 11.302 10.5098L11.5002 10.5V10C11.5002 9.72386 11.7241 9.5 12.0002 9.5ZM9.65552 3.5C9.94631 4.48322 10.2821 5.20881 10.6506 5.7002C11.0823 6.27557 11.5301 6.5 12.0002 6.5C12.4703 6.49994 12.9182 6.27556 13.3499 5.7002C13.7184 5.2088 14.0542 4.48318 14.345 3.5H9.65552Z" fill="url(#paint0_linear_3392_12)"/>
</g>
<defs>
<linearGradient id="paint0_linear_3392_12" x1="3.53958" y1="2.25" x2="24.3754" y2="9.87576" gradientUnits="userSpaceOnUse">
<stop offset="0.11" stop-color="#60D7AD"/>
<stop offset="0.76" stop-color="#213C3A"/>
</linearGradient>
<clipPath id="clip0_3392_12">
<rect width="24" height="24" fill="white"/>
</clipPath>
</defs>
</svg>
