<svg width="20" height="20" viewBox="0 0 20 20" fill="none" xmlns="http://www.w3.org/2000/svg">
<path opacity="0.931" fill-rule="evenodd" clip-rule="evenodd" d="M9.07178 0.032791C11.5473 -0.154738 13.7933 0.462079 15.8098 1.88324C15.7895 1.70763 15.7492 1.53331 15.6891 1.36029C15.5799 0.974069 15.7207 0.793047 16.1115 0.81722C16.2293 0.867898 16.303 0.955058 16.3328 1.0787C16.5035 1.6745 16.6711 2.2712 16.8356 2.8688C16.8125 3.03933 16.7186 3.1466 16.554 3.19062C15.8838 3.22878 15.2133 3.24219 14.5427 3.23085C14.3009 3.04298 14.2875 2.84184 14.5024 2.62744C14.848 2.57739 15.1967 2.55057 15.5483 2.54699C12.8606 0.643945 9.95078 0.214855 6.81906 1.25972C3.66543 2.50928 1.6876 4.78212 0.885564 8.07821C0.531537 9.85991 0.66563 11.6031 1.28784 13.3077C1.51831 13.8288 1.75297 14.3451 1.99181 14.8565C1.92786 15.1835 1.74013 15.2773 1.42863 15.1381C0.249396 13.1576 -0.199807 11.0188 0.0810219 8.72185C0.650642 5.10648 2.57484 2.49843 5.85361 0.897674C6.88705 0.444966 7.95978 0.15667 9.07178 0.032791Z" fill="url(#paint0_linear_1842_1186)"/>
<path opacity="0.927" fill-rule="evenodd" clip-rule="evenodd" d="M8.86993 2.44685C9.62097 2.44015 10.3719 2.44685 11.1227 2.46696C11.2298 2.53939 11.3036 2.63996 11.3439 2.76867C11.4498 3.08748 11.5772 3.39589 11.7261 3.69389C12.2642 3.84233 12.7738 4.0569 13.2547 4.33752C13.6167 4.18333 13.9788 4.0291 14.3408 3.87491C14.4379 3.85544 14.5317 3.86888 14.6224 3.91514C15.1119 4.40458 15.6013 4.89398 16.0907 5.38343C16.137 5.4741 16.1504 5.56795 16.1309 5.66502C15.9767 6.02706 15.8225 6.38911 15.6683 6.75115C15.9489 7.23206 16.1635 7.74162 16.3119 8.27978C16.6978 8.45099 17.0866 8.61857 17.4785 8.78262C17.5037 8.81279 17.5238 8.84634 17.5389 8.88319C17.5657 9.63411 17.5657 10.385 17.5389 11.1359C17.4664 11.243 17.3659 11.3168 17.2372 11.3572C16.9184 11.463 16.61 11.5904 16.3119 11.7393C16.1635 12.2775 15.9489 12.787 15.6683 13.2679C15.8225 13.63 15.9767 13.992 16.1309 14.3541C16.1504 14.4511 16.137 14.545 16.0907 14.6357C15.6013 15.1251 15.1119 15.6145 14.6224 16.104C14.5317 16.1502 14.4379 16.1637 14.3408 16.1442C13.9788 15.99 13.6167 15.8358 13.2547 15.6816C12.7738 15.9622 12.2642 16.1768 11.7261 16.3252C11.5549 16.711 11.3873 17.0999 11.2232 17.4918C11.193 17.517 11.1595 17.5371 11.1227 17.5521C10.3717 17.579 9.62085 17.579 8.86993 17.5521C8.76281 17.4797 8.68903 17.3791 8.64868 17.2504C8.54281 16.9316 8.41541 16.6232 8.26653 16.3252C7.72837 16.1768 7.21881 15.9622 6.7379 15.6816C6.37585 15.8358 6.01381 15.99 5.65176 16.1442C5.5547 16.1637 5.46085 16.1502 5.37017 16.104C4.88073 15.6145 4.39133 15.1251 3.90188 14.6357C3.85562 14.545 3.84219 14.4511 3.86166 14.3541C4.01585 13.992 4.17008 13.63 4.32427 13.2679C4.04364 12.787 3.82907 12.2775 3.68064 11.7393C3.2948 11.5681 2.90594 11.4005 2.51405 11.2365C2.48887 11.2063 2.46876 11.1728 2.45371 11.1359C2.42689 10.385 2.42689 9.63411 2.45371 8.88319C2.52614 8.77606 2.62671 8.70228 2.75541 8.66194C3.07423 8.55606 3.38263 8.42866 3.68064 8.27978C3.82907 7.74162 4.04364 7.23206 4.32427 6.75115C4.17008 6.38911 4.01585 6.02706 3.86166 5.66502C3.84219 5.56795 3.85562 5.4741 3.90188 5.38343C4.39133 4.89398 4.88073 4.40458 5.37017 3.91514C5.46085 3.86888 5.5547 3.85544 5.65176 3.87491C6.01381 4.0291 6.37585 4.18333 6.7379 4.33752C7.21881 4.0569 7.72837 3.84233 8.26653 3.69389C8.41541 3.39589 8.54281 3.08748 8.64868 2.76867C8.6941 2.63617 8.76784 2.5289 8.86993 2.44685ZM9.23198 3.13071C9.74153 3.13071 10.251 3.13071 10.7606 3.13071C10.871 3.53614 11.0319 3.91832 11.2433 4.27718C11.9029 4.42992 12.5197 4.68472 13.0938 5.0415C13.2317 5.0697 13.3658 5.0563 13.4961 5.00127C13.774 4.87906 14.0489 4.75166 14.3207 4.61911C14.676 4.97444 15.0314 5.3298 15.3867 5.68513C15.2076 6.03491 15.0601 6.39695 14.9442 6.77126C15.1428 7.20226 15.3372 7.63804 15.5275 8.07864C15.5946 8.30661 15.6616 8.53454 15.7287 8.7625C16.0875 8.9739 16.4697 9.13481 16.8751 9.24523C16.8751 9.75479 16.8751 10.2643 16.8751 10.7739C16.4697 10.8843 16.0875 11.0452 15.7287 11.2566C15.5759 11.9161 15.3211 12.5329 14.9643 13.107C14.9361 13.2449 14.9495 13.379 15.0046 13.5093C15.1268 13.7872 15.2542 14.0621 15.3867 14.334C15.0314 14.6893 14.676 15.0447 14.3207 15.4C13.9709 15.2208 13.6089 15.0733 13.2346 14.9575C12.8036 15.1561 12.3678 15.3505 11.9272 15.5408C11.6992 15.6078 11.4713 15.6749 11.2433 15.7419C11.0319 16.1008 10.871 16.4829 10.7606 16.8884C10.251 16.8884 9.74153 16.8884 9.23198 16.8884C9.12155 16.4829 8.96064 16.1008 8.74925 15.7419C8.08973 15.5892 7.47293 15.3344 6.8988 14.9776C6.76091 14.9494 6.62679 14.9628 6.49653 15.0178C6.2186 15.14 5.94373 15.2674 5.67188 15.4C5.31655 15.0447 4.96118 14.6893 4.60586 14.334C4.78499 13.9842 4.9325 13.6221 5.04836 13.2478C4.91195 12.9145 4.75772 12.586 4.58575 12.2623C4.45987 11.9332 4.35263 11.598 4.26393 11.2566C3.90506 11.0452 3.52289 10.8843 3.11746 10.7739C3.11746 10.2643 3.11746 9.75479 3.11746 9.24523C3.52289 9.13481 3.90506 8.9739 4.26393 8.7625C4.41667 8.10298 4.67147 7.48618 5.02824 6.91206C5.05644 6.77416 5.04305 6.64004 4.98802 6.50979C4.86581 6.23186 4.73841 5.95699 4.60586 5.68513C4.96118 5.3298 5.31655 4.97444 5.67188 4.61911C6.02165 4.79824 6.3837 4.94576 6.75801 5.06161C7.09137 4.9252 7.41987 4.77097 7.74357 4.599C8.07263 4.47313 8.40784 4.36588 8.74925 4.27718C8.96064 3.91832 9.12155 3.53614 9.23198 3.13071Z" fill="url(#paint1_linear_1842_1186)"/>
<path opacity="0.931" fill-rule="evenodd" clip-rule="evenodd" d="M18.2012 4.81929C18.3627 4.79515 18.5035 4.83538 18.6236 4.93997C20.0526 7.48989 20.361 10.1717 19.5488 12.9854C18.3851 16.3616 16.0988 18.5808 12.6901 19.643C10.0533 20.3244 7.53244 20.0294 5.12738 18.758C4.80194 18.5651 4.4868 18.3573 4.18204 18.1345C4.2024 18.3101 4.24262 18.4844 4.30272 18.6574C4.39665 19.0999 4.22903 19.2675 3.79988 19.1603C3.76637 19.1267 3.73284 19.0932 3.69932 19.0597C3.51014 18.4251 3.32912 17.7882 3.15625 17.1489C3.17936 16.9784 3.27322 16.8711 3.43784 16.8271C4.1081 16.7889 4.77853 16.7755 5.4492 16.7869C5.69092 16.9747 5.70432 17.1759 5.48942 17.3903C5.14383 17.4403 4.79518 17.4671 4.44352 17.4707C6.91716 19.2339 9.62582 19.73 12.5694 18.9591C15.5347 18.0052 17.593 16.081 18.7443 13.1865C19.6842 10.4475 19.4428 7.81935 18.0202 5.30201C17.9588 5.09038 18.0191 4.92947 18.2012 4.81929Z" fill="url(#paint2_linear_1842_1186)"/>
<path opacity="0.91" fill-rule="evenodd" clip-rule="evenodd" d="M7.30134 9.16945C7.3986 9.16051 7.49125 9.17597 7.5793 9.21583C7.70846 9.35032 7.84229 9.47915 7.9808 9.60238C8.13063 9.45751 8.28505 9.31835 8.44408 9.18491C8.77244 9.15287 8.88054 9.29203 8.76837 9.60238C8.63405 9.73171 8.50538 9.8657 8.38231 10.0044C8.527 10.1544 8.66598 10.309 8.79925 10.4683C8.84722 10.7501 8.72884 10.8686 8.44408 10.8239C8.28505 10.6904 8.13063 10.5513 7.9808 10.4064C7.83098 10.5513 7.67656 10.6904 7.51753 10.8239C7.23441 10.8703 7.11603 10.7517 7.16236 10.4683C7.29563 10.309 7.43461 10.1544 7.5793 10.0044C7.43461 9.85439 7.29563 9.69977 7.16236 9.54054C7.11523 9.37784 7.16155 9.25415 7.30134 9.16945Z" fill="url(#paint3_linear_1842_1186)"/>
<path opacity="0.901" fill-rule="evenodd" clip-rule="evenodd" d="M12.7399 9.16699C13.0437 9.1747 13.133 9.33529 13.0076 9.64876C12.6631 10.063 12.3015 10.4538 11.923 10.8211C11.844 10.8453 11.7689 10.8346 11.6976 10.7889C11.476 10.5471 11.2648 10.2955 11.0638 10.0342C11.0478 9.67114 11.1839 9.56946 11.4722 9.72905C11.599 9.87358 11.7258 10.0181 11.8526 10.1626C12.1454 9.82338 12.4412 9.49151 12.7399 9.16699Z" fill="url(#paint4_linear_1842_1186)"/>
<path opacity="0.948" fill-rule="evenodd" clip-rule="evenodd" d="M9.48317 5.42301C11.4923 5.2977 13.0142 6.08885 14.0489 7.79641C14.7271 9.17213 14.7674 10.5666 14.1696 11.98C13.1662 13.8392 11.6041 14.7041 9.48317 14.5747C7.48344 14.2646 6.17606 13.1449 5.56103 11.2157C5.102 8.94356 5.8462 7.19368 7.79363 5.96607C8.33187 5.69052 8.89505 5.50949 9.48317 5.42301ZM9.5234 6.10687C9.24237 6.16206 8.96078 6.2358 8.67863 6.32812C6.8071 7.14042 5.96233 8.56849 6.14432 10.6123C6.56083 12.5306 7.74081 13.6301 9.68431 13.9109C9.68431 11.3096 9.68431 8.70823 9.68431 6.10687C9.63068 6.10687 9.57702 6.10687 9.5234 6.10687ZM10.3279 6.10687C10.3279 8.70823 10.3279 11.3096 10.3279 13.9109C10.7459 13.8735 11.1482 13.7729 11.5348 13.6092C13.2698 12.7477 14.0476 11.3464 13.8679 9.40549C13.4514 7.48718 12.2714 6.38765 10.3279 6.10687Z" fill="url(#paint5_linear_1842_1186)"/>
<defs>
<linearGradient id="paint0_linear_1842_1186" x1="-0.201676" y1="-5.93393e-07" x2="19.3866" y2="9.36945" gradientUnits="userSpaceOnUse">
<stop offset="0.11" stop-color="#60D7AD"/>
<stop offset="0.76" stop-color="#213C3A"/>
</linearGradient>
<linearGradient id="paint1_linear_1842_1186" x1="2.2524" y1="2.44434" x2="20.4789" y2="10.3144" gradientUnits="userSpaceOnUse">
<stop offset="0.11" stop-color="#60D7AD"/>
<stop offset="0.76" stop-color="#213C3A"/>
</linearGradient>
<linearGradient id="paint2_linear_1842_1186" x1="2.95459" y1="4.8125" x2="22.5353" y2="14.1857" gradientUnits="userSpaceOnUse">
<stop offset="0.11" stop-color="#60D7AD"/>
<stop offset="0.76" stop-color="#213C3A"/>
</linearGradient>
<linearGradient id="paint3_linear_1842_1186" x1="7.12457" y1="9.16699" x2="9.13286" y2="10.0343" gradientUnits="userSpaceOnUse">
<stop offset="0.11" stop-color="#60D7AD"/>
<stop offset="0.76" stop-color="#213C3A"/>
</linearGradient>
<linearGradient id="paint4_linear_1842_1186" x1="11.0385" y1="9.16699" x2="13.2926" y2="10.3351" gradientUnits="userSpaceOnUse">
<stop offset="0.11" stop-color="#60D7AD"/>
<stop offset="0.76" stop-color="#213C3A"/>
</linearGradient>
<linearGradient id="paint5_linear_1842_1186" x1="5.31996" y1="5.41016" x2="16.3639" y2="10.1707" gradientUnits="userSpaceOnUse">
<stop offset="0.11" stop-color="#60D7AD"/>
<stop offset="0.76" stop-color="#213C3A"/>
</linearGradient>
</defs>
</svg>
