<svg width="20" height="20" viewBox="0 0 20 20" fill="none" xmlns="http://www.w3.org/2000/svg">
<path opacity="0.933" fill-rule="evenodd" clip-rule="evenodd" d="M17.6733 0.0251831C18.2565 -0.0726384 18.7177 0.114524 19.057 0.586672C19.3478 1.2015 19.2475 1.74294 18.7562 2.21098C18.4243 2.41839 18.0633 2.48523 17.6733 2.41151C17.5793 2.37029 17.4858 2.34356 17.3926 2.3313C16.9369 2.8004 16.469 3.25494 15.9889 3.69492C15.561 3.70828 15.1333 3.72165 14.7055 3.73502C14.854 3.87122 14.9007 4.03835 14.8458 4.23635C14.7227 4.5321 14.5957 4.82624 14.4648 5.11869C14.7199 5.56303 14.9204 6.03095 15.0664 6.52241C15.3561 6.64718 15.6502 6.76081 15.9488 6.86332C16.0204 6.8948 16.0805 6.94157 16.1292 7.00369C16.1858 7.23948 16.2058 7.48011 16.1894 7.7256C16.538 7.73888 16.8856 7.72552 17.2322 7.6855C17.5975 6.94144 18.1724 6.70746 18.9567 6.98364C19.5627 7.35743 19.7565 7.88551 19.5383 8.56784C19.1011 9.30612 18.4928 9.4866 17.7134 9.10927C17.4833 8.9393 17.3229 8.71872 17.2322 8.44752C16.8856 8.40749 16.538 8.39414 16.1894 8.40741C16.2042 8.6651 16.1842 8.91909 16.1292 9.16943C16.0958 9.20284 16.0624 9.23629 16.029 9.2697C15.6986 9.3915 15.3711 9.51852 15.0464 9.65071C14.9034 10.1397 14.7096 10.6076 14.4648 11.0544C14.6203 11.2669 14.6537 11.4942 14.5651 11.7362C14.4129 11.8687 14.2458 11.8888 14.0638 11.7964C13.8648 11.5262 13.7646 11.2254 13.763 10.894C14.0764 10.3683 14.3037 9.8068 14.4448 9.20954C14.5142 9.12463 14.6011 9.06448 14.7055 9.02906C14.97 8.93646 15.2307 8.83619 15.4875 8.72826C15.5143 8.30045 15.5143 7.87267 15.4875 7.44486C15.1453 7.31307 14.8111 7.166 14.4849 7.00369C14.3144 6.39861 14.0738 5.82372 13.763 5.27912C13.773 4.95012 13.8666 4.64263 14.0437 4.35667C14.0835 4.27858 14.0968 4.19837 14.0838 4.11603C13.7891 3.81463 13.4883 3.52054 13.1814 3.23369C12.9057 3.37236 12.625 3.49936 12.3392 3.6147C12.259 3.64144 12.1788 3.64144 12.0985 3.6147C11.56 3.2881 10.9852 3.04747 10.374 2.89279C10.2002 2.57908 10.0531 2.25154 9.9328 1.91018C9.49243 1.87012 9.05126 1.85676 8.60929 1.87008C8.5134 2.15093 8.41313 2.43167 8.30849 2.71231C8.26169 2.81258 8.18818 2.8861 8.08791 2.93289C7.83143 3.00501 7.57744 3.08523 7.32589 3.17353C6.9896 3.32839 6.65539 3.48213 6.32323 3.63476C5.98541 3.50549 5.65121 3.37849 5.32057 3.25375C5.01131 3.54955 4.71721 3.85703 4.43823 4.17619C4.58329 4.49295 4.71697 4.8138 4.83929 5.13874C4.52951 5.72029 4.28218 6.32854 4.09733 6.96358C4.0279 7.04849 3.94099 7.10865 3.83663 7.14406C3.58569 7.24329 3.3317 7.3302 3.07461 7.40475C3.06794 7.84612 3.07462 8.28729 3.09467 8.72826C3.37506 8.85741 3.66249 8.97107 3.95695 9.06917C3.99706 9.10258 4.03717 9.13603 4.07727 9.16943C4.2474 9.7904 4.4947 10.3786 4.81924 10.9341C4.84599 11.001 4.84599 11.0678 4.81924 11.1346C4.66283 11.4331 4.54251 11.7406 4.45828 12.0571C4.75238 12.3512 5.04652 12.6453 5.34062 12.9394C5.66589 12.782 6.00013 12.6483 6.34328 12.5384C6.59643 12.5762 6.7034 12.7233 6.66413 12.9795C6.63265 13.0512 6.58589 13.1113 6.52376 13.16C6.11849 13.3627 5.70407 13.5432 5.28046 13.7015C5.2124 13.6855 5.14559 13.6654 5.07993 13.6413C4.60415 13.1789 4.14293 12.7043 3.69626 12.2175C3.66951 12.1239 3.66951 12.0303 3.69626 11.9368C3.83443 11.6471 3.96141 11.353 4.07727 11.0544C3.84823 10.6014 3.65439 10.1334 3.49573 9.65071C3.15314 9.51623 2.81224 9.37586 2.47302 9.22959C2.41461 9.13871 2.38119 9.03845 2.37275 8.9288C2.15885 9.14268 1.94495 9.35661 1.73105 9.5705C1.711 10.2789 1.70432 10.9875 1.711 11.6961C2.3522 11.9216 2.63963 12.3762 2.57328 13.0598C2.36094 13.8246 1.85961 14.1521 1.0693 14.0424C0.388859 13.8116 0.088061 13.337 0.166902 12.6186C0.282609 12.1487 0.570035 11.8412 1.02919 11.6961C1.02251 10.8939 1.02919 10.0918 1.04924 9.28975C1.47585 8.82304 1.91702 8.36847 2.37275 7.92614C2.37529 7.60115 2.40203 7.2803 2.45297 6.96358C2.80486 6.79943 3.15913 6.639 3.51578 6.48231C3.65948 6.00805 3.84662 5.55352 4.07727 5.11869C3.95423 4.80983 3.82725 4.50234 3.69626 4.19624C3.63342 3.99439 3.69358 3.84062 3.87674 3.73502C3.38228 3.71497 2.88763 3.70829 2.39281 3.71497C2.28287 4.16584 2.00213 4.45329 1.55057 4.57726C0.890577 4.69172 0.402615 4.45774 0.0866894 3.87539C-0.131559 3.19305 0.0622887 2.66498 0.668232 2.29119C1.45645 2.01724 2.03131 2.25119 2.39281 2.99305C3.12772 3.03983 3.86302 3.04652 4.59866 3.01311C4.75908 2.85268 4.91951 2.69226 5.07993 2.53183C5.14146 2.49481 5.20831 2.47476 5.28046 2.47167C5.6328 2.591 5.9737 2.73806 6.30318 2.91284C6.73344 2.64899 7.19466 2.45515 7.68685 2.3313C7.83015 2.02455 7.95712 1.71038 8.06786 1.3888C8.10126 1.3019 8.16142 1.24174 8.24833 1.20832C8.93014 1.18158 9.61195 1.18158 10.2938 1.20832C10.3654 1.23978 10.4255 1.28658 10.4742 1.34869C10.5903 1.67439 10.7174 1.99524 10.8552 2.31125C11.3441 2.45214 11.8053 2.65267 12.2389 2.91284C12.5821 2.73832 12.9363 2.59126 13.3017 2.47167C13.3739 2.47476 13.4407 2.49481 13.5023 2.53183C13.6627 2.69226 13.8231 2.85268 13.9835 3.01311C14.5584 3.03985 15.1333 3.03985 15.7081 3.01311C16.1025 2.61873 16.4969 2.22435 16.8913 1.82997C16.6059 0.98415 16.8666 0.382555 17.6733 0.0251831ZM17.8338 0.706991C18.2307 0.662577 18.4713 0.836374 18.5557 1.22837C18.4303 1.72559 18.1361 1.86596 17.6733 1.64949C17.3687 1.27178 17.4222 0.957612 17.8338 0.706991ZM1.02919 2.87273C1.64861 2.85652 1.85583 3.13727 1.65084 3.71497C1.17516 4.0653 0.847632 3.95833 0.668232 3.39412C0.711254 3.16439 0.831573 2.9906 1.02919 2.87273ZM18.1947 7.56518C18.7409 7.51633 18.9749 7.75697 18.8966 8.28709C18.694 8.61761 18.4199 8.69116 18.0744 8.50768C17.7807 8.15049 17.8208 7.83634 18.1947 7.56518ZM1.18961 12.3378C1.67682 12.2838 1.91078 12.4977 1.89148 12.9795C1.69027 13.4061 1.38947 13.493 0.989083 13.2402C0.737327 12.8663 0.804168 12.5655 1.18961 12.3378Z" fill="url(#paint0_linear_1842_1161)"/>
<path opacity="0.929" fill-rule="evenodd" clip-rule="evenodd" d="M8.96615 4.638C10.6136 4.60206 11.7834 5.32398 12.4755 6.80374C12.9532 8.2122 12.6925 9.46219 11.6934 10.5537C11.6132 10.6071 11.533 10.6606 11.4527 10.7141C11.0853 10.7474 10.945 10.5802 11.0316 10.2128C11.9397 9.37319 12.2204 8.35718 11.8739 7.1647C11.2794 5.80782 10.2433 5.21288 8.76562 5.37996C7.49874 5.68437 6.75677 6.4798 6.53972 7.76629C6.4725 8.43322 6.61957 9.04821 6.98089 9.61119C7.17673 9.87019 7.39062 10.1108 7.62259 10.3331C7.64537 10.7864 7.45154 10.9134 7.04105 10.7141C6.06402 9.82174 5.68301 8.71882 5.89802 7.40534C6.3221 5.81115 7.34481 4.8887 8.96615 4.638Z" fill="url(#paint1_linear_1842_1161)"/>
<path opacity="0.94" fill-rule="evenodd" clip-rule="evenodd" d="M9.0525 7.48567C9.85911 7.38364 10.3738 7.71785 10.5966 8.48833C10.6166 9.4107 10.6233 10.3331 10.6166 11.2557C11.2835 11.028 11.8317 11.1885 12.261 11.7369C12.9844 11.4322 13.5392 11.6194 13.9254 12.2984C14.7174 12.1061 15.2254 12.4002 15.4495 13.1808C15.4762 14.6112 15.4762 16.0417 15.4495 17.4722C15.4067 17.8144 15.2997 18.1353 15.1286 18.4347C15.1153 18.8759 15.1019 19.317 15.0885 19.7582C15.0776 19.8316 15.0441 19.8917 14.9882 19.9387C13.9556 19.9851 12.9195 20.0052 11.88 19.9989C10.8706 19.9922 9.86132 19.9855 8.85196 19.9788C8.74793 19.9251 8.68777 19.8382 8.67149 19.7181C8.65813 19.2769 8.64473 18.8358 8.63138 18.3946C8.54399 18.2939 8.44372 18.207 8.33058 18.1339C7.76087 17.8728 7.25954 17.5185 6.82659 17.0711C6.64419 16.8183 6.52387 16.5376 6.46563 16.2289C6.41253 15.6311 6.35237 15.0362 6.28516 14.4441C6.37961 13.3136 6.99456 12.7187 8.13005 12.6594C8.12335 11.269 8.13005 9.87862 8.1501 8.48833C8.2628 7.98143 8.5636 7.64718 9.0525 7.48567ZM9.21292 8.16748C9.57624 8.10985 9.81023 8.25688 9.91478 8.60865C9.92814 9.85195 9.94153 11.0952 9.95489 12.3385C10.0685 12.5502 10.2356 12.6103 10.4562 12.519C10.5691 12.328 10.6894 12.1408 10.8172 11.9575C11.1301 11.7917 11.4041 11.8385 11.6394 12.0979C11.7079 12.2689 11.7681 12.4427 11.8198 12.6193C11.9668 12.7485 12.1272 12.7686 12.3011 12.6794C12.5447 12.2145 12.8589 12.1543 13.2436 12.499C13.2866 12.6847 13.3267 12.8719 13.3639 13.0605C13.384 13.134 13.4308 13.1808 13.5043 13.2008C13.6113 13.2276 13.7182 13.2276 13.8252 13.2008C13.9518 13.0504 14.1122 12.9502 14.3064 12.9C14.5369 12.9234 14.6906 13.0437 14.7677 13.261C14.7944 14.638 14.7944 16.015 14.7677 17.3919C14.7189 17.6784 14.6187 17.9458 14.4669 18.1941C12.7423 18.2475 11.0177 18.2475 9.29313 18.1941C9.22732 17.9894 9.107 17.8223 8.93218 17.6927C8.54447 17.4655 8.1568 17.2382 7.76909 17.0109C7.32303 16.7109 7.10244 16.2898 7.10734 15.7476C7.03699 15.2145 7.01024 14.6798 7.02712 14.1433C7.16116 13.7152 7.4486 13.4545 7.88941 13.3613C8.14545 13.3515 8.39948 13.3248 8.65143 13.281C8.69824 13.2342 8.745 13.1875 8.7918 13.1407C8.80516 11.63 8.81856 10.1193 8.83191 8.60865C8.89716 8.40339 9.02414 8.25631 9.21292 8.16748ZM9.33324 18.916C11.0311 18.916 12.7289 18.916 14.4267 18.916C14.4267 19.0497 14.4267 19.1834 14.4267 19.317C12.7289 19.317 11.0311 19.317 9.33324 19.317C9.33324 19.1834 9.33324 19.0497 9.33324 18.916Z" fill="url(#paint2_linear_1842_1161)"/>
<defs>
<linearGradient id="paint0_linear_1842_1161" x1="-0.23509" y1="-5.48989e-07" x2="20.3471" y2="12.4042" gradientUnits="userSpaceOnUse">
<stop offset="0.11" stop-color="#60D7AD"/>
<stop offset="0.76" stop-color="#213C3A"/>
</linearGradient>
<linearGradient id="paint1_linear_1842_1161" x1="5.75758" y1="4.63672" x2="13.7325" y2="8.4709" gradientUnits="userSpaceOnUse">
<stop offset="0.11" stop-color="#60D7AD"/>
<stop offset="0.76" stop-color="#213C3A"/>
</linearGradient>
<linearGradient id="paint2_linear_1842_1161" x1="6.17514" y1="7.46777" x2="18.1105" y2="11.2452" gradientUnits="userSpaceOnUse">
<stop offset="0.11" stop-color="#60D7AD"/>
<stop offset="0.76" stop-color="#213C3A"/>
</linearGradient>
</defs>
</svg>
