<svg width="20" height="20" viewBox="0 0 20 20" fill="none" xmlns="http://www.w3.org/2000/svg">
<path opacity="0.935" fill-rule="evenodd" clip-rule="evenodd" d="M9.17969 0C9.72656 0 10.2734 0 10.8203 0C11.3392 0.0563582 11.6582 0.342816 11.7773 0.859375C11.833 1.18432 11.8852 1.50984 11.9336 1.83594C12.7854 2.08282 13.5993 2.42136 14.375 2.85156C14.6668 2.65986 14.9532 2.45804 15.2344 2.24609C15.7597 1.97367 16.2285 2.0518 16.6406 2.48047C16.9466 2.78646 17.2526 3.09245 17.5586 3.39844C17.9026 3.7458 17.9937 4.14945 17.832 4.60938C17.5952 4.94355 17.3673 5.28207 17.1484 5.625C17.5773 6.3916 17.9093 7.19891 18.1445 8.04688C18.4738 8.11152 18.8058 8.17012 19.1406 8.22266C19.6572 8.34176 19.9436 8.66078 20 9.17969C20 9.72656 20 10.2734 20 10.8203C19.9436 11.3392 19.6572 11.6582 19.1406 11.7773C18.8157 11.833 18.4902 11.8852 18.1641 11.9336C17.9172 12.7854 17.5786 13.5993 17.1484 14.375C17.3531 14.6927 17.568 15.0052 17.793 15.3125C18.0079 15.7943 17.9297 16.224 17.5586 16.6016C17.2396 16.9206 16.9206 17.2396 16.6016 17.5586C16.2855 17.8848 15.9079 17.989 15.4688 17.8711C15.0973 17.6296 14.7262 17.3887 14.3555 17.1484C13.5975 17.5827 12.7968 17.9147 11.9531 18.1445C11.8802 18.4724 11.8216 18.8044 11.7773 19.1406C11.6582 19.6572 11.3392 19.9436 10.8203 20C10.2734 20 9.72656 20 9.17969 20C8.66078 19.9436 8.34176 19.6572 8.22266 19.1406C8.16695 18.8157 8.11484 18.4902 8.06641 18.1641C7.21457 17.9172 6.40074 17.5786 5.625 17.1484C5.30727 17.3531 4.99477 17.568 4.6875 17.793C4.20516 18.0116 3.77546 17.9335 3.39844 17.5586C2.97268 17.159 2.57554 16.7358 2.20703 16.2891C2.04601 15.9955 2.03299 15.6961 2.16797 15.3906C2.41062 15.055 2.63849 14.7099 2.85156 14.3555C2.4173 13.5975 2.08527 12.7968 1.85547 11.9531C1.52764 11.88 1.19561 11.8214 0.859375 11.7773C0.360982 11.6632 0.0745242 11.3573 0 10.8594C0 10.2995 0 9.73957 0 9.17969C0.0319474 8.72391 0.266322 8.41793 0.703125 8.26172C1.07998 8.19238 1.45758 8.1273 1.83594 8.06641C2.08282 7.21457 2.42136 6.40074 2.85156 5.625C2.64689 5.30727 2.43205 4.99477 2.20703 4.6875C1.99214 4.2057 2.07026 3.776 2.44141 3.39844C2.76042 3.07943 3.07943 2.76042 3.39844 2.44141C3.7458 2.09739 4.14945 2.00624 4.60938 2.16797C4.94355 2.40486 5.28207 2.63272 5.625 2.85156C6.3916 2.42275 7.19891 2.09072 8.04688 1.85547C8.11254 1.52641 8.17113 1.19438 8.22266 0.859375C8.34176 0.342816 8.66078 0.0563582 9.17969 0ZM9.21875 0.703125C9.79395 0.686246 10.3669 0.705777 10.9375 0.761719C11.0151 0.813238 11.0607 0.884855 11.0742 0.976562C11.1439 1.42089 11.2221 1.8636 11.3086 2.30469C11.3393 2.37445 11.3848 2.43305 11.4453 2.48047C12.4317 2.68322 13.3431 3.06082 14.1797 3.61328C14.3418 3.69019 14.498 3.67717 14.6484 3.57422C15.0162 3.28299 15.4003 3.01607 15.8008 2.77344C16.239 3.09417 16.6426 3.45875 17.0117 3.86719C17.0999 3.96816 17.1715 4.07883 17.2266 4.19922C16.976 4.59328 16.7091 4.97738 16.4258 5.35156C16.3153 5.50008 16.3023 5.65633 16.3867 5.82031C16.9358 6.65848 17.3134 7.56992 17.5195 8.55469C17.567 8.6152 17.6255 8.66074 17.6953 8.69141C18.1782 8.7784 18.6599 8.86953 19.1406 8.96484C19.2338 9.03855 19.2794 9.13621 19.2773 9.25781C19.3121 9.8193 19.2991 10.3792 19.2383 10.9375C19.1868 11.0151 19.1152 11.0607 19.0234 11.0742C18.567 11.1481 18.1112 11.2262 17.6562 11.3086C17.6107 11.3542 17.5651 11.3997 17.5195 11.4453C17.3039 12.4703 16.9133 13.4208 16.3477 14.2969C16.3186 14.4251 16.3447 14.5423 16.4258 14.6484C16.7054 14.9993 16.9658 15.3639 17.207 15.7422C17.2273 15.8121 17.2143 15.8772 17.168 15.9375C16.761 16.4227 16.3053 16.8524 15.8008 17.2266C15.3743 16.971 14.9642 16.6911 14.5703 16.3867C14.5064 16.3632 14.4413 16.3437 14.375 16.3281C13.9138 16.5783 13.445 16.8192 12.9688 17.0508C12.4732 17.2464 11.9654 17.4026 11.4453 17.5195C11.3848 17.567 11.3393 17.6255 11.3086 17.6953C11.2216 18.1782 11.1305 18.6599 11.0352 19.1406C10.9743 19.2292 10.8897 19.2748 10.7812 19.2773C10.2114 19.3375 9.63848 19.3245 9.0625 19.2383C9.02996 19.2057 8.99738 19.1732 8.96484 19.1406C8.86953 18.6599 8.7784 18.1782 8.69141 17.6953C8.66074 17.6255 8.6152 17.567 8.55469 17.5195C7.56852 17.3168 6.65707 16.9392 5.82031 16.3867C5.65633 16.3023 5.50008 16.3153 5.35156 16.4258C4.98383 16.717 4.59973 16.9839 4.19922 17.2266C4.07844 17.1709 3.96773 17.0993 3.86719 17.0117C3.58724 16.7318 3.30729 16.4518 3.02734 16.1719C2.91844 16.0566 2.8338 15.9264 2.77344 15.7812C3.03277 15.3982 3.2997 15.0206 3.57422 14.6484C3.61838 14.5615 3.65093 14.4704 3.67188 14.375C3.4223 13.915 3.18142 13.4462 2.94922 12.9688C2.75358 12.473 2.59733 11.9652 2.48047 11.4453C2.43305 11.3848 2.37445 11.3393 2.30469 11.3086C1.82184 11.2216 1.34007 11.1305 0.859375 11.0352C0.766172 10.9614 0.720598 10.8638 0.722656 10.7422C0.68707 10.1805 0.70009 9.62055 0.761719 9.0625C0.813238 8.98488 0.884855 8.9393 0.976562 8.92578C1.42089 8.85605 1.8636 8.77793 2.30469 8.69141C2.37445 8.66074 2.43305 8.6152 2.48047 8.55469C2.6961 7.52969 3.08672 6.57918 3.65234 5.70312C3.68136 5.57488 3.65532 5.4577 3.57422 5.35156C3.3138 4.98699 3.05339 4.62238 2.79297 4.25781C2.76693 4.21875 2.76693 4.17969 2.79297 4.14062C3.1986 3.61778 3.66735 3.16205 4.19922 2.77344C4.62566 3.02902 5.03582 3.30896 5.42969 3.61328C5.49363 3.63677 5.55871 3.6563 5.625 3.67188C6.085 3.4223 6.55375 3.18142 7.03125 2.94922C7.52699 2.75358 8.0348 2.59733 8.55469 2.48047C8.6152 2.43305 8.66074 2.37445 8.69141 2.30469C8.7784 1.82184 8.86953 1.34007 8.96484 0.859375C9.03484 0.77625 9.11945 0.724168 9.21875 0.703125Z" fill="url(#paint0_linear_2017_1245)"/>
<path opacity="0.946" fill-rule="evenodd" clip-rule="evenodd" d="M6.43205 8.35394C6.85696 8.27431 7.1268 8.41176 7.24157 8.76625C7.60136 9.52217 7.96115 10.278 8.32094 11.034C8.3977 11.6201 8.11784 11.7919 7.48143 11.5494C7.43148 11.4634 7.38147 11.3776 7.33152 11.2917C6.8918 11.223 6.45201 11.223 6.01229 11.2917C5.88564 11.621 5.62582 11.7326 5.23275 11.6267C5.12283 11.6009 5.05285 11.5408 5.02287 11.4463C4.97861 11.2524 4.99858 11.0635 5.08283 10.8794C5.43921 10.1809 5.77897 9.47651 6.10224 8.76625C6.16994 8.59648 6.27985 8.45908 6.43205 8.35394ZM6.61194 10.0032C6.56049 10.1346 6.50053 10.2635 6.43205 10.3897C6.59197 10.4241 6.75184 10.4241 6.91177 10.3897C6.85786 10.2768 6.79789 10.1651 6.73187 10.0547C6.70447 10.0136 6.66447 9.99644 6.61194 10.0032Z" fill="url(#paint1_linear_2017_1245)"/>
<path opacity="0.968" fill-rule="evenodd" clip-rule="evenodd" d="M9.39805 8.33943C9.93038 8.31774 10.4581 8.34374 10.9812 8.41744C11.6956 8.86531 11.8558 9.44606 11.4618 10.1596C11.1043 10.5708 10.6426 10.7269 10.0765 10.6277C10.0997 10.946 10.0714 11.2581 9.99173 11.5638C9.80763 11.6641 9.60974 11.6901 9.39805 11.6418C9.29441 11.6158 9.22843 11.5551 9.20016 11.4598C9.16245 10.489 9.16245 9.51825 9.20016 8.54745C9.23917 8.45124 9.3051 8.38186 9.39805 8.33943ZM10.0765 9.17152C10.0765 9.37955 10.0765 9.58757 10.0765 9.7956C10.2522 9.80334 10.4218 9.77734 10.5854 9.71759C10.7362 9.56157 10.7362 9.40555 10.5854 9.24953C10.4218 9.18978 10.2522 9.16377 10.0765 9.17152Z" fill="url(#paint2_linear_2017_1245)"/>
<path opacity="0.97" fill-rule="evenodd" clip-rule="evenodd" d="M12.6927 8.34031C13.1551 8.31698 13.6127 8.34296 14.0655 8.41824C14.1772 8.62876 14.1848 8.84525 14.0883 9.06766C13.971 9.15489 13.8413 9.18955 13.6994 9.17157C13.6994 9.72576 13.6994 10.2799 13.6994 10.8341C14.0931 10.8085 14.2381 11.0163 14.1341 11.4575C14.1112 11.5528 14.0578 11.6134 13.9739 11.6394C13.5469 11.674 13.1198 11.674 12.6927 11.6394C12.5547 11.5599 12.4937 11.4301 12.5097 11.2497C12.5173 10.9155 12.6698 10.7769 12.9673 10.8341C12.9673 10.2799 12.9673 9.72576 12.9673 9.17157C12.5735 9.19713 12.4286 8.98932 12.5326 8.54812C12.5641 8.45201 12.6175 8.3827 12.6927 8.34031Z" fill="url(#paint3_linear_2017_1245)"/>
<path opacity="0.934" fill-rule="evenodd" clip-rule="evenodd" d="M9.40894 3.30822C12.2648 3.19597 14.4197 4.35482 15.8738 6.78478C16.9526 8.95255 16.9396 11.114 15.8347 13.2692C14.3689 15.6527 12.2269 16.779 9.40894 16.6481C6.46425 16.2668 4.51765 14.6717 3.56909 11.8629C2.8934 9.07283 3.61606 6.72259 5.73706 4.81212C6.81589 3.95556 8.03983 3.45427 9.40894 3.30822ZM9.448 4.01134C7.8021 4.21247 6.44143 4.94165 5.36597 6.19884C3.90939 8.12247 3.63595 10.2058 4.54565 12.4488C5.47968 14.3847 7.00964 15.537 9.1355 15.9059C11.3448 16.155 13.1742 15.4454 14.6238 13.777C16.1966 11.6619 16.3919 9.42232 15.2097 7.05822C13.892 4.93095 11.9714 3.91533 9.448 4.01134Z" fill="url(#paint4_linear_2017_1245)"/>
<defs>
<linearGradient id="paint0_linear_2017_1245" x1="-0.239583" y1="-7.80756e-07" x2="23.8597" y2="10.4076" gradientUnits="userSpaceOnUse">
<stop offset="0.11" stop-color="#60D7AD"/>
<stop offset="0.76" stop-color="#213C3A"/>
</linearGradient>
<linearGradient id="paint1_linear_2017_1245" x1="4.96007" y1="8.33203" x2="8.97662" y2="10.0666" gradientUnits="userSpaceOnUse">
<stop offset="0.11" stop-color="#60D7AD"/>
<stop offset="0.76" stop-color="#213C3A"/>
</linearGradient>
<linearGradient id="paint2_linear_2017_1245" x1="9.14193" y1="8.33203" x2="12.3768" y2="9.3798" gradientUnits="userSpaceOnUse">
<stop offset="0.11" stop-color="#60D7AD"/>
<stop offset="0.76" stop-color="#213C3A"/>
</linearGradient>
<linearGradient id="paint3_linear_2017_1245" x1="12.48" y1="8.33203" x2="14.7567" y2="8.82364" gradientUnits="userSpaceOnUse">
<stop offset="0.11" stop-color="#60D7AD"/>
<stop offset="0.76" stop-color="#213C3A"/>
</linearGradient>
<linearGradient id="paint4_linear_2017_1245" x1="3.16431" y1="3.30078" x2="19.2526" y2="10.2443" gradientUnits="userSpaceOnUse">
<stop offset="0.11" stop-color="#60D7AD"/>
<stop offset="0.76" stop-color="#213C3A"/>
</linearGradient>
</defs>
</svg>
