<svg width="20" height="22" viewBox="0 0 20 22" fill="none" xmlns="http://www.w3.org/2000/svg">
<path opacity="0.987" fill-rule="evenodd" clip-rule="evenodd" d="M3.07422 0C7.01304 0 10.9518 0 14.8906 0C16.4503 1.52393 17.9901 3.07081 19.5098 4.64062C19.5384 10.1836 19.5384 15.7266 19.5098 21.2695C19.38 21.6212 19.1437 21.8647 18.8008 22C13.7162 22 8.6315 22 3.54688 22C3.3646 21.8338 3.32881 21.6333 3.43945 21.3984C3.47168 21.3715 3.50752 21.3501 3.54688 21.334C8.53125 21.3197 13.5156 21.3053 18.5 21.291C18.6934 21.2695 18.8008 21.1621 18.8223 20.9688C18.8509 15.6406 18.8509 10.3125 18.8223 4.98438C17.5762 3.73828 16.3301 2.49219 15.084 1.24609C15.0553 2.20573 15.0553 3.16537 15.084 4.125C15.1055 4.31836 15.2129 4.42578 15.4063 4.44727C16.151 4.46157 16.8958 4.47593 17.6406 4.49023C17.7702 4.55593 17.8275 4.66336 17.8125 4.8125C17.8275 4.96164 17.7702 5.06907 17.6406 5.13477C16.7956 5.16343 15.9505 5.16343 15.1055 5.13477C14.7545 5.01304 14.5182 4.77671 14.3965 4.42578C14.375 3.17977 14.3678 1.93368 14.375 0.6875C10.7083 0.680337 7.04165 0.6875 3.375 0.708984C3.18164 0.730469 3.07422 0.837891 3.05274 1.03125C3.03841 6.01562 3.02409 11 3.00977 15.9844C2.94408 16.114 2.83666 16.1712 2.6875 16.1562C2.53834 16.1712 2.43092 16.114 2.36524 15.9844C2.33659 10.8998 2.33659 5.81509 2.36524 0.730469C2.49496 0.378797 2.73129 0.135307 3.07422 0Z" fill="url(#paint0_linear_1845_1201)"/>
<path opacity="0.924" fill-rule="evenodd" clip-rule="evenodd" d="M12.1366 7C12.5184 7.02028 12.8749 7.12192 13.2061 7.30489C14.2048 7.85446 14.8027 8.66216 15 9.72796C14.9601 9.97088 14.8105 10.0511 14.5515 9.96866C14.5228 9.94193 14.494 9.91516 14.4653 9.88843C14.1879 8.62471 13.3829 7.81165 12.0503 7.44931C11.9615 7.27389 11.9902 7.12411 12.1366 7Z" fill="url(#paint1_linear_1845_1201)"/>
<path opacity="0.989" fill-rule="evenodd" clip-rule="evenodd" d="M7.6703 8.93726C9.50369 8.93009 11.337 8.93726 13.1703 8.95875C13.2999 9.02445 13.3572 9.13187 13.3422 9.28101C13.3572 9.43016 13.2999 9.53758 13.1703 9.60328C11.337 9.63194 9.50365 9.63194 7.6703 9.60328C7.54071 9.53758 7.48343 9.43016 7.49843 9.28101C7.48906 9.12779 7.54638 9.01323 7.6703 8.93726Z" fill="url(#paint2_linear_1845_1201)"/>
<path opacity="0.991" fill-rule="evenodd" clip-rule="evenodd" d="M6.63905 10.656C9.04535 10.6488 11.4516 10.656 13.8578 10.6775C13.9874 10.7432 14.0447 10.8506 14.0297 10.9998C14.0447 11.1489 13.9874 11.2563 13.8578 11.322C11.4516 11.3507 9.0453 11.3507 6.63905 11.322C6.50946 11.2563 6.45218 11.1489 6.46718 10.9998C6.45781 10.8465 6.51513 10.732 6.63905 10.656Z" fill="url(#paint3_linear_1845_1201)"/>
<path opacity="0.991" fill-rule="evenodd" clip-rule="evenodd" d="M7.6703 12.3748C9.962 12.3676 12.2537 12.3748 14.5453 12.3962C14.6749 12.4619 14.7322 12.5694 14.7172 12.7185C14.7322 12.8677 14.6749 12.9751 14.5453 13.0408C12.2536 13.0694 9.96195 13.0694 7.6703 13.0408C7.54071 12.9751 7.48343 12.8677 7.49843 12.7185C7.48906 12.5653 7.54638 12.4507 7.6703 12.3748Z" fill="url(#paint4_linear_1845_1201)"/>
<path opacity="0.927" fill-rule="evenodd" clip-rule="evenodd" d="M1.72635 21.9138C1.49718 21.9138 1.26801 21.9138 1.03885 21.9138C0.230407 21.6302 -0.106181 21.0573 0.0290808 20.1951C0.0840378 19.9706 0.184297 19.7701 0.329862 19.5935C1.5115 18.4119 2.69314 17.2302 3.87478 16.0486C4.25454 15.7469 4.68423 15.6467 5.16385 15.7478C5.28974 15.8045 5.41865 15.8331 5.55057 15.8338C5.90209 15.4894 6.24584 15.1385 6.58182 14.781C5.13721 12.9887 4.78632 10.9978 5.52908 8.80837C6.43473 6.68601 8.03171 5.44705 10.3201 5.09157C13.1804 4.91325 15.2214 6.1092 16.4431 8.67946C17.2688 11.0021 16.8821 13.0933 15.283 14.9529C13.3729 16.7766 11.1743 17.2278 8.68728 16.3064C8.13526 16.0665 7.63399 15.7514 7.18338 15.3611C7.15472 15.3324 7.1261 15.3324 7.09744 15.3611C6.76087 15.6977 6.42425 16.0343 6.08767 16.3709C6.08832 16.5028 6.11698 16.6317 6.17361 16.7576C6.27476 17.2372 6.17451 17.6669 5.87283 18.0467C4.69119 19.2283 3.50955 20.4099 2.32791 21.5916C2.1425 21.7343 1.94198 21.8417 1.72635 21.9138ZM10.9646 5.75759C10.2384 5.79274 9.53656 5.95744 8.85916 6.25173C7.27907 7.02998 6.31227 8.28325 5.95877 10.0115C5.66271 12.5349 6.62951 14.3898 8.85916 15.5759C11.1632 16.4787 13.1756 16.0419 14.8963 14.2654C16.2013 12.6223 16.4734 10.8176 15.7127 8.85134C14.7374 6.89858 13.1547 5.86733 10.9646 5.75759ZM4.60525 16.4568C5.34711 16.4464 5.59774 16.7901 5.35721 17.4881C4.16126 18.684 2.96528 19.88 1.76932 21.0759C1.06532 21.3172 0.728737 21.0665 0.759549 20.324C0.788197 20.2667 0.81684 20.2094 0.845487 20.1521C2.08113 18.8949 3.33437 17.6632 4.60525 16.4568Z" fill="url(#paint5_linear_1845_1201)"/>
<defs>
<linearGradient id="paint0_linear_1845_1201" x1="2.13786" y1="-8.58831e-07" x2="24.1994" y2="7.44343" gradientUnits="userSpaceOnUse">
<stop offset="0.11" stop-color="#60D7AD"/>
<stop offset="0.76" stop-color="#213C3A"/>
</linearGradient>
<linearGradient id="paint1_linear_1845_1201" x1="11.9641" y1="7" x2="15.579" y2="8.56114" gradientUnits="userSpaceOnUse">
<stop offset="0.11" stop-color="#60D7AD"/>
<stop offset="0.76" stop-color="#213C3A"/>
</linearGradient>
<linearGradient id="paint2_linear_1845_1201" x1="7.42603" y1="8.93457" x2="8.00705" y2="11.0607" gradientUnits="userSpaceOnUse">
<stop offset="0.11" stop-color="#60D7AD"/>
<stop offset="0.76" stop-color="#213C3A"/>
</linearGradient>
<linearGradient id="paint3_linear_1845_1201" x1="6.3742" y1="10.6533" x2="6.83617" y2="12.8407" gradientUnits="userSpaceOnUse">
<stop offset="0.11" stop-color="#60D7AD"/>
<stop offset="0.76" stop-color="#213C3A"/>
</linearGradient>
<linearGradient id="paint4_linear_1845_1201" x1="7.40956" y1="12.3721" x2="7.89152" y2="14.5504" gradientUnits="userSpaceOnUse">
<stop offset="0.11" stop-color="#60D7AD"/>
<stop offset="0.76" stop-color="#213C3A"/>
</linearGradient>
<linearGradient id="paint5_linear_1845_1201" x1="-0.202027" y1="5.07422" x2="20.11" y2="13.8594" gradientUnits="userSpaceOnUse">
<stop offset="0.11" stop-color="#60D7AD"/>
<stop offset="0.76" stop-color="#213C3A"/>
</linearGradient>
</defs>
</svg>
