<svg width="20" height="20" viewBox="0 0 20 20" fill="none" xmlns="http://www.w3.org/2000/svg">
<path opacity="0.901" fill-rule="evenodd" clip-rule="evenodd" d="M13.3452 4.5C13.6793 4.50848 13.7775 4.68512 13.6396 5.02994C13.2606 5.48561 12.8629 5.91543 12.4465 6.31945C12.3597 6.34613 12.277 6.33436 12.1986 6.28412C11.9549 6.01809 11.7225 5.74133 11.5014 5.45389C11.4838 5.05456 11.6336 4.94271 11.9507 5.11826C12.0902 5.27724 12.2296 5.43622 12.3691 5.5952C12.6912 5.22202 13.0165 4.85697 13.3452 4.5Z" fill="url(#paint0_linear_2017_1240)"/>
<path opacity="0.935" fill-rule="evenodd" clip-rule="evenodd" d="M17.4943 11.7957C18.1755 11.7235 18.7603 11.9212 19.2487 12.3888C19.7448 13.1357 19.6541 13.8028 18.9769 14.3902C16.9087 16.0091 14.8496 17.64 12.7995 19.2827C12.4432 19.5096 12.056 19.6332 11.6382 19.6533C9.41939 19.1605 7.19554 18.6828 4.9666 18.2202C4.72499 18.2348 4.50261 18.309 4.29945 18.4426C4.00955 18.6418 3.71304 18.8312 3.4099 19.0109C3.419 19.4129 3.25429 19.7177 2.91572 19.9251C2.16064 20.0043 1.40289 20.0208 0.642447 19.9746C0.34749 19.9104 0.141576 19.7375 0.0247107 19.4557C-0.00823689 17.3636 -0.00823689 15.2715 0.0247107 13.1795C0.112607 12.9763 0.252626 12.8198 0.444771 12.71C0.853688 12.6555 1.26552 12.6308 1.68024 12.6359C2.09497 12.6308 2.50677 12.6555 2.91572 12.71C3.2231 12.8705 3.40432 13.1258 3.45932 13.476C4.17422 13.0492 4.88254 12.6127 5.58434 12.1664C5.86756 12.0339 6.16407 11.9845 6.47388 12.0181C6.77835 12.0702 7.07486 12.1525 7.36342 12.2652C9.10953 12.8912 10.8557 13.5171 12.6018 14.1431C12.7132 14.2112 12.8203 14.2853 12.923 14.3655C14.1379 13.6387 15.3487 12.9056 16.5553 12.1664C16.857 11.9975 17.17 11.874 17.4943 11.7957ZM17.4943 12.6853C17.8589 12.6452 18.2048 12.7029 18.5321 12.8582C18.7151 13.0261 18.7727 13.232 18.7051 13.476C16.6586 15.061 14.6406 16.6837 12.6512 18.3437C12.3846 18.5718 12.0798 18.7283 11.737 18.8132C9.48497 18.3101 7.22816 17.8324 4.9666 17.3801C4.37866 17.4434 3.85151 17.6575 3.3852 18.0225C3.35223 16.82 3.35223 15.6174 3.3852 14.4149C4.24592 13.8898 5.11076 13.3709 5.97969 12.8582C6.19382 12.7594 6.408 12.7594 6.62213 12.8582C8.54053 13.5306 10.4514 14.2225 12.3547 14.9338C12.83 15.3977 12.8135 15.8425 12.3053 16.2681C12.0418 16.367 11.7782 16.367 11.5146 16.2681C10.4493 15.8426 9.37857 15.4308 8.30238 15.0327C7.81427 15.0109 7.65776 15.2333 7.8329 15.6998C9.002 16.1884 10.1798 16.6579 11.3663 17.1083C12.4768 17.3893 13.1934 16.9858 13.5161 15.8975C13.555 15.6362 13.5303 15.3809 13.4419 15.1315C13.4491 15.0934 13.4656 15.0604 13.4914 15.0327C14.8157 14.2227 16.15 13.4402 17.4943 12.6853ZM0.790704 13.476C1.38373 13.476 1.97676 13.476 2.56978 13.476C2.56978 15.3704 2.56978 17.2648 2.56978 19.1592C1.97676 19.1592 1.38373 19.1592 0.790704 19.1592C0.790704 17.2648 0.790704 15.3704 0.790704 13.476Z" fill="url(#paint1_linear_2017_1240)"/>
<path opacity="0.931" fill-rule="evenodd" clip-rule="evenodd" d="M12.0034 2.47155C13.5517 2.33909 14.6651 2.96082 15.3434 4.33666C15.8439 5.83308 15.4813 7.07014 14.2555 8.04783C13.3263 8.61502 12.3465 8.71653 11.3163 8.35234C9.86012 7.62449 9.25574 6.45089 9.5031 4.83148C9.76362 3.82337 10.368 3.10652 11.3163 2.6809C11.5465 2.59838 11.7755 2.52861 12.0034 2.47155ZM12.4996 3.08056C12.1482 3.10782 11.8047 3.1903 11.469 3.32798C10.4284 3.88686 9.9767 4.75596 10.1138 5.93532C10.4328 7.17923 11.2344 7.85169 12.5187 7.95268C14.1806 7.72163 14.9695 6.77005 14.8854 5.09792C14.5714 3.85972 13.7762 3.18729 12.4996 3.08056Z" fill="url(#paint2_linear_2017_1240)"/>
<path opacity="0.943" fill-rule="evenodd" clip-rule="evenodd" d="M11.6872 0.00238686C12.2209 -0.00397652 12.7544 0.00238686 13.2877 0.0214389C13.577 0.148935 13.7294 0.371196 13.745 0.688261C13.7028 0.851232 13.6965 1.01634 13.7259 1.18361C14.0404 1.3012 14.3453 1.44089 14.6405 1.60276C14.8132 1.41731 14.9974 1.24584 15.1931 1.08835C15.441 1.00212 15.6823 1.01485 15.9171 1.12646C16.2817 1.46551 16.6183 1.8275 16.9269 2.21242C16.9765 2.45713 16.9384 2.68575 16.8126 2.8983C16.6666 3.04435 16.5205 3.19044 16.3744 3.3365C16.5372 3.62159 16.6706 3.92006 16.7745 4.23194C17.0319 4.26296 17.2922 4.28201 17.5557 4.2891C17.7399 4.37167 17.8733 4.50503 17.9558 4.68919C17.9927 5.25161 17.98 5.81048 17.9177 6.36577C17.8331 6.51392 17.7124 6.62187 17.5557 6.68966C17.3017 6.70234 17.0476 6.71507 16.7936 6.72776C16.676 7.04223 16.5363 7.34707 16.3744 7.64226C16.5599 7.81495 16.7313 7.99914 16.8888 8.19477C16.9751 8.44263 16.9624 8.68395 16.8507 8.91874C16.5395 9.22994 16.2283 9.5411 15.9171 9.8523C15.6304 9.98901 15.3509 9.97632 15.0787 9.81419C14.9327 9.66814 14.7866 9.52205 14.6405 9.37599C14.3554 9.53877 14.0569 9.67214 13.745 9.77609C13.714 10.0334 13.6949 10.2938 13.6878 10.5572C13.6053 10.7414 13.4719 10.8747 13.2877 10.9573C12.7542 10.9827 12.2207 10.9827 11.6872 10.9573C11.503 10.8747 11.3697 10.7414 11.2871 10.5572C11.2744 10.3032 11.2617 10.0492 11.249 9.79514C10.9358 9.67786 10.6309 9.53813 10.3344 9.37599C10.1454 9.60328 9.92314 9.78744 9.66752 9.9285C9.45423 9.97008 9.25101 9.94466 9.0578 9.8523C8.69319 9.51325 8.35659 9.15126 8.04796 8.76633C7.99225 8.50082 8.04304 8.25951 8.20039 8.04235C8.33376 7.90899 8.46714 7.77562 8.60051 7.64226C8.43772 7.35716 8.30434 7.05869 8.20039 6.74681C7.94305 6.71579 7.68266 6.69674 7.41919 6.68966C7.23502 6.60708 7.10164 6.47372 7.01906 6.28956C6.99365 5.75611 6.99365 5.22265 7.01906 4.68919C7.10164 4.50503 7.23502 4.37167 7.41919 4.2891C7.67325 4.27641 7.92727 4.26368 8.18133 4.25099C8.29893 3.93652 8.43863 3.63169 8.60051 3.3365C8.41505 3.16381 8.24356 2.97961 8.08607 2.78399C7.99983 2.53612 8.01256 2.29481 8.12417 2.06001C8.4354 1.74881 8.74658 1.43765 9.0578 1.12646C9.34456 0.98974 9.624 1.00243 9.89616 1.16456C10.0422 1.31061 10.1883 1.45671 10.3344 1.60276C10.6195 1.43998 10.918 1.30661 11.2299 1.20267C11.2609 0.945349 11.28 0.684984 11.2871 0.421532C11.3769 0.236537 11.5103 0.0968469 11.6872 0.00238686ZM11.954 0.612052C12.3098 0.605727 12.6655 0.612052 13.021 0.631104C13.0448 0.659683 13.0639 0.691461 13.0781 0.726365C13.0908 0.954989 13.1035 1.18361 13.1162 1.41224C13.1851 1.63351 13.3311 1.7796 13.5545 1.85044C13.8811 1.95507 14.1987 2.08207 14.5071 2.23148C14.7317 2.26425 14.9349 2.21345 15.1169 2.07906C15.2439 1.95206 15.3709 1.82502 15.4979 1.69802C15.7892 1.90622 16.0559 2.1539 16.2982 2.44105C16.1323 2.6132 15.9735 2.791 15.8218 2.97451C15.7693 3.08939 15.7375 3.21003 15.7266 3.3365C15.8828 3.77946 16.0543 4.21765 16.241 4.65109C16.334 4.74517 16.442 4.81501 16.5649 4.86066C16.8063 4.87335 17.0476 4.88607 17.289 4.89876C17.308 4.91781 17.3271 4.93687 17.3461 4.95592C17.3715 5.31154 17.3715 5.66721 17.3461 6.02283C17.3175 6.04669 17.2858 6.06574 17.2509 6.07999C17.0222 6.09268 16.7936 6.10541 16.5649 6.11809C16.3436 6.18695 16.1975 6.333 16.1267 6.55629C16.0221 6.88292 15.895 7.20048 15.7456 7.50889C15.7129 7.7334 15.7636 7.93661 15.8981 8.11856C16.0251 8.24556 16.1521 8.3726 16.2791 8.4996C16.0709 8.79083 15.8232 9.05756 15.536 9.29979C15.3639 9.13396 15.1861 8.97518 15.0025 8.82348C14.8876 8.77094 14.767 8.7392 14.6405 8.72822C14.1975 8.88441 13.7593 9.05588 13.3258 9.24263C13.2317 9.33564 13.1619 9.44359 13.1162 9.56651C13.1035 9.80783 13.0908 10.0492 13.0781 10.2905C13.0591 10.3095 13.04 10.3286 13.021 10.3476C12.6653 10.3731 12.3096 10.3731 11.954 10.3476C11.9349 10.3286 11.9158 10.3095 11.8968 10.2905C11.8841 10.0365 11.8714 9.78245 11.8587 9.52841C11.7736 9.32909 11.6276 9.19572 11.4205 9.12832C11.0986 9.01183 10.781 8.88483 10.4678 8.74728C10.2409 8.70437 10.0377 8.75516 9.85805 8.89969C9.73104 9.02669 9.60399 9.15373 9.47698 9.28073C9.18573 9.07253 8.91898 8.82486 8.67673 8.5377C8.84257 8.36555 9.00136 8.18776 9.15307 8.00425C9.20562 7.88936 9.23736 7.76873 9.24834 7.64226C9.09339 7.1988 8.92191 6.76061 8.73389 6.32767C8.64087 6.23359 8.53291 6.16374 8.40998 6.11809C8.16864 6.10541 7.92727 6.09268 7.68594 6.07999C7.66689 6.06094 7.64783 6.04189 7.62878 6.02283C7.60336 5.66721 7.60336 5.31154 7.62878 4.95592C7.65736 4.93207 7.68914 4.91301 7.72405 4.89876C7.95269 4.88607 8.18133 4.87335 8.40998 4.86066C8.63127 4.7918 8.77737 4.64575 8.84821 4.42246C8.96471 4.10063 9.09172 3.78311 9.22928 3.46986C9.26206 3.24535 9.21126 3.04214 9.07686 2.86019C8.94984 2.73319 8.82279 2.60615 8.69578 2.47915C8.904 2.18792 9.1517 1.92119 9.43887 1.67897C9.61104 1.8448 9.78885 2.00358 9.97238 2.15527C10.0873 2.20781 10.2079 2.23955 10.3344 2.25053C10.7774 2.09434 11.2156 1.92287 11.6491 1.73612C11.7432 1.64311 11.813 1.53516 11.8587 1.41224C11.8714 1.17093 11.8841 0.929574 11.8968 0.688261C11.9241 0.667532 11.9432 0.642117 11.954 0.612052Z" fill="url(#paint3_linear_2017_1240)"/>
<defs>
<linearGradient id="paint0_linear_2017_1240" x1="11.4736" y1="4.5" x2="13.9531" y2="5.78493" gradientUnits="userSpaceOnUse">
<stop offset="0.11" stop-color="#60D7AD"/>
<stop offset="0.76" stop-color="#213C3A"/>
</linearGradient>
<linearGradient id="paint1_linear_2017_1240" x1="-0.234351" y1="11.7812" x2="13.3649" y2="25.7607" gradientUnits="userSpaceOnUse">
<stop offset="0.11" stop-color="#60D7AD"/>
<stop offset="0.76" stop-color="#213C3A"/>
</linearGradient>
<linearGradient id="paint2_linear_2017_1240" x1="9.376" y1="2.4541" x2="16.7406" y2="5.63458" gradientUnits="userSpaceOnUse">
<stop offset="0.11" stop-color="#60D7AD"/>
<stop offset="0.76" stop-color="#213C3A"/>
</linearGradient>
<linearGradient id="paint3_linear_2017_1240" x1="6.86851" y1="-4.28493e-07" x2="20.0947" y2="5.71189" gradientUnits="userSpaceOnUse">
<stop offset="0.11" stop-color="#60D7AD"/>
<stop offset="0.76" stop-color="#213C3A"/>
</linearGradient>
</defs>
</svg>
