<svg width="21" height="22" viewBox="0 0 21 22" fill="none" xmlns="http://www.w3.org/2000/svg">
<path opacity="0.918" fill-rule="evenodd" clip-rule="evenodd" d="M10.1048 0C11.2018 0.0427214 11.6843 0.606825 11.5521 1.69231C11.3846 2.17157 11.058 2.48331 10.5724 2.62753C10.5575 3.16194 10.5427 3.69635 10.5278 4.23076C10.3645 4.4089 10.2013 4.4089 10.038 4.23076C10.0231 3.69635 10.0083 3.16194 9.99343 2.62753C9.08351 2.27717 8.7866 1.63884 9.10275 0.71255C9.33388 0.324874 9.66789 0.0873541 10.1048 0ZM10.1048 0.578947C10.633 0.550707 10.9448 0.795646 11.04 1.31376C10.9912 1.7708 10.7388 2.03058 10.2829 2.09311C9.63738 1.945 9.42215 1.55903 9.63716 0.935221C9.7643 0.769968 9.92017 0.651208 10.1048 0.578947Z" fill="url(#paint0_linear_1847_1245)"/>
<path opacity="0.901" fill-rule="evenodd" clip-rule="evenodd" d="M3.47372 1.73703C4.27151 1.66068 4.77626 2.00211 4.98789 2.76132C5.50765 2.7539 6.02723 2.76132 6.54659 2.78358C6.6431 2.82069 6.7099 2.88749 6.74699 2.98399C6.7767 3.84498 6.7767 4.706 6.74699 5.56698C6.65557 5.73585 6.51457 5.78778 6.32392 5.72285C6.27043 5.68264 6.23329 5.63071 6.21258 5.56698C6.19032 4.8249 6.18288 4.08265 6.19032 3.34026C5.78951 3.34026 5.3887 3.34026 4.98789 3.34026C4.90848 3.81334 4.64128 4.13248 4.18627 4.29775C3.2813 4.50987 2.69493 4.17586 2.42716 3.29573C2.35535 2.4883 2.70421 1.96874 3.47372 1.73703ZM3.51825 2.31597C4.07716 2.26612 4.40373 2.51849 4.49801 3.07306C4.31168 3.73036 3.91087 3.93076 3.29558 3.67427C2.96232 3.37971 2.89552 3.03085 3.09518 2.62771C3.2078 2.47697 3.34883 2.37306 3.51825 2.31597Z" fill="url(#paint1_linear_1847_1245)"/>
<path opacity="0.901" fill-rule="evenodd" clip-rule="evenodd" d="M16.6104 1.73633C17.5324 1.70119 18.052 2.13911 18.1691 3.0501C18.125 3.7175 17.7836 4.148 17.1448 4.34159C16.3271 4.4532 15.8076 4.11919 15.5861 3.33957C15.1853 3.33957 14.7845 3.33957 14.3836 3.33957C14.3911 4.08196 14.3836 4.82421 14.3614 5.56629C14.2699 5.73516 14.129 5.78709 13.9383 5.72216C13.8848 5.68194 13.8477 5.63002 13.827 5.56629C13.7973 4.7053 13.7973 3.84429 13.827 2.98329C13.8641 2.8868 13.9309 2.82 14.0274 2.78289C14.5467 2.76063 15.0663 2.75321 15.5861 2.76062C15.7063 2.19505 16.0477 1.85362 16.6104 1.73633ZM16.6104 2.31528C17.4381 2.30375 17.7276 2.68972 17.4788 3.47317C17.0631 3.94821 16.6475 3.94821 16.2318 3.47317C15.9869 2.96876 16.1131 2.5828 16.6104 2.31528Z" fill="url(#paint2_linear_1847_1245)"/>
<path opacity="0.927" fill-rule="evenodd" clip-rule="evenodd" d="M1.06912 4.49803C1.84993 4.44241 2.35466 4.78381 2.58329 5.52232C2.98437 5.51493 3.38517 5.52232 3.78571 5.54459C3.8526 5.57055 3.91197 5.60765 3.96385 5.65593C4.00763 6.30693 4.0225 6.96011 4.00838 7.61544C4.64687 7.608 5.28523 7.61544 5.92336 7.6377C6.13526 7.78061 6.15009 7.94388 5.9679 8.12758C5.31489 8.14985 4.6617 8.15729 4.00838 8.14985C4.00838 8.65456 4.00838 9.15931 4.00838 9.66402C4.15757 9.65667 4.30601 9.66411 4.45373 9.68628C4.66384 9.75081 4.73064 9.89181 4.65413 10.1094C4.61704 10.1465 4.57989 10.1836 4.5428 10.2207C4.23106 10.2504 3.91932 10.2504 3.60758 10.2207C3.52594 10.1984 3.47397 10.1465 3.4517 10.0648C3.42944 9.42669 3.422 8.78834 3.42944 8.14985C2.86014 8.0822 2.40737 8.27521 2.07114 8.7288C2.00086 8.86939 1.95633 9.01787 1.93754 9.17414C1.91527 11.8759 1.90785 14.5776 1.91527 17.2794C7.49689 17.2794 13.0786 17.2794 18.6602 17.2794C18.6676 14.5776 18.6602 11.8759 18.6379 9.17414C18.5744 8.69495 18.3146 8.37582 17.8586 8.21665C17.6228 8.17314 17.3853 8.15087 17.146 8.14985C17.1535 8.78834 17.146 9.42669 17.1238 10.0648C17.1015 10.1465 17.0495 10.1984 16.9679 10.2207C16.6561 10.2504 16.3444 10.2504 16.0327 10.2207C15.9058 10.1067 15.8686 9.96569 15.9213 9.79762C15.9735 9.73558 16.0403 9.69844 16.1217 9.68628C16.2694 9.66411 16.4179 9.65667 16.5671 9.66402C16.5671 9.15931 16.5671 8.65456 16.5671 8.14985C15.9138 8.15729 15.2606 8.14985 14.6076 8.12758C14.4254 7.94388 14.4402 7.78061 14.6521 7.6377C15.2902 7.61544 15.9286 7.608 16.5671 7.61544C16.5463 6.9431 16.5685 6.27509 16.6339 5.61139C16.6814 5.58062 16.7334 5.55835 16.7897 5.54459C17.1903 5.52232 17.5911 5.51493 17.9922 5.52232C18.22 4.77708 18.7247 4.44308 19.5063 4.5203C20.3862 4.78737 20.7202 5.37376 20.5084 6.27941C20.2042 6.93259 19.692 7.20723 18.9719 7.10329C18.4561 6.95121 18.1295 6.6172 17.9922 6.10127C17.7101 6.10127 17.4281 6.10127 17.146 6.10127C17.146 6.60598 17.146 7.11073 17.146 7.61544C18.1756 7.50245 18.851 7.93297 19.1723 8.90693C19.2163 12.2044 19.2015 15.5 19.1278 18.7936C18.9012 19.3616 18.493 19.7254 17.9031 19.8847C16.4929 19.9069 15.0827 19.9144 13.6723 19.9069C13.6723 20.4116 13.6723 20.9164 13.6723 21.4211C14.0734 21.4137 14.4742 21.4211 14.8748 21.4434C15.0436 21.5348 15.0956 21.6758 15.0306 21.8664C14.9904 21.9199 14.9385 21.9571 14.8748 21.9778C11.8167 22.0075 8.75873 22.0075 5.70069 21.9778C5.53182 21.8863 5.47989 21.7453 5.54482 21.5547C5.58503 21.5012 5.63696 21.4641 5.70069 21.4434C6.10123 21.4211 6.50204 21.4137 6.90312 21.4211C6.90312 20.9164 6.90312 20.4116 6.90312 19.9069C5.4928 19.9144 4.08253 19.9069 2.67235 19.8847C2.08251 19.7254 1.67428 19.3616 1.44766 18.7936C1.37399 15.5 1.35914 12.2044 1.40312 8.90693C1.72443 7.93297 2.39986 7.50245 3.42944 7.61544C3.42944 7.11073 3.42944 6.60598 3.42944 6.10127C3.14739 6.10127 2.86533 6.10127 2.58329 6.10127C2.30581 6.95277 1.72686 7.27194 0.846445 7.05876C0.123274 6.7032 -0.136508 6.13169 0.0670941 5.34418C0.267508 4.89951 0.601515 4.61747 1.06912 4.49803ZM1.06912 5.07698C1.88894 5.06954 2.17841 5.45552 1.93754 6.23487C1.49051 6.70943 1.06001 6.69456 0.646041 6.19034C0.462288 5.69672 0.60331 5.32561 1.06912 5.07698ZM19.061 5.07698C19.6094 5.02394 19.936 5.26888 20.0408 5.8118C19.8849 6.50163 19.4841 6.70947 18.8383 6.43528C18.4422 6.04734 18.4273 5.64653 18.7938 5.23285C18.8798 5.16787 18.9689 5.11595 19.061 5.07698ZM1.91527 17.8583C7.49689 17.8583 13.0786 17.8583 18.6602 17.8583C18.7386 18.4336 18.5456 18.8864 18.0812 19.2166C17.941 19.2881 17.7926 19.3326 17.6359 19.3502C12.7371 19.3799 7.83834 19.3799 2.93956 19.3502C2.46038 19.2867 2.14122 19.0269 1.98207 18.5709C1.92903 18.3363 1.90676 18.0988 1.91527 17.8583ZM7.43753 19.9069C9.33768 19.9069 11.2378 19.9069 13.1379 19.9069C13.1379 20.4116 13.1379 20.9164 13.1379 21.4211C11.2378 21.4211 9.33768 21.4211 7.43753 21.4211C7.43753 20.9164 7.43753 20.4116 7.43753 19.9069Z" fill="url(#paint3_linear_1847_1245)"/>
<path opacity="0.908" fill-rule="evenodd" clip-rule="evenodd" d="M9.84215 7.79245C10.8692 7.67172 11.6783 8.02799 12.2693 8.86127C12.8337 9.96617 12.6927 10.9682 11.8462 11.8673C11.1058 12.4502 10.2894 12.5838 9.39681 12.2682C8.31823 11.7369 7.85062 10.8684 7.99398 9.66289C8.23215 8.66025 8.84819 8.03677 9.84215 7.79245ZM10.1094 8.32686C8.86894 8.63985 8.37163 9.42664 8.61746 10.6872C9.07527 11.6546 9.82492 12.0183 10.8664 11.7783C11.9353 11.2513 12.2693 10.4274 11.8685 9.30662C11.4684 8.64697 10.882 8.32036 10.1094 8.32686Z" fill="url(#paint4_linear_1847_1245)"/>
<path opacity="0.907" fill-rule="evenodd" clip-rule="evenodd" d="M9.51125 4.70103C10.0459 4.69359 10.5803 4.70103 11.1145 4.7233C11.1665 4.74557 11.2036 4.78266 11.2258 4.83463C11.2746 5.18182 11.3414 5.52327 11.4262 5.85893C11.7619 5.95347 12.0811 6.08707 12.3837 6.25973C12.6179 6.0795 12.848 5.89397 13.074 5.70305C13.1718 5.64191 13.2757 5.62708 13.3857 5.65852C13.7481 5.97627 14.097 6.31028 14.4323 6.66054C14.4902 6.7436 14.5051 6.83267 14.4768 6.92775C14.2999 7.2011 14.1144 7.46831 13.9202 7.72937C14.1194 8.05358 14.2827 8.39502 14.41 8.75366C14.66 8.80162 14.9123 8.83872 15.1671 8.86499C15.2527 8.88103 15.3269 8.91817 15.3898 8.97633C15.4186 9.24884 15.4334 9.52348 15.4343 9.80022C15.44 10.0943 15.4178 10.3837 15.3675 10.6686C15.0722 10.7623 14.7679 10.8217 14.4546 10.8468C14.3749 11.2659 14.2265 11.6593 14.0092 12.0269C14.1651 12.2422 14.321 12.4574 14.4768 12.6727C14.5051 12.7678 14.4902 12.8568 14.4323 12.9399C14.0983 13.2739 13.7643 13.6079 13.4303 13.9419C13.3264 13.9716 13.2224 13.9716 13.1185 13.9419C12.9579 13.7882 12.7797 13.6621 12.5841 13.5634C12.1968 13.7964 11.7812 13.9597 11.3372 14.0532C11.3209 14.3391 11.2615 14.6138 11.159 14.8771C10.6426 14.9485 10.1231 14.9633 9.60032 14.9217C9.51161 14.8961 9.44481 14.8441 9.39991 14.7658C9.36638 14.5417 9.32924 14.3191 9.28858 14.0978C8.88594 13.9632 8.49996 13.7925 8.13069 13.5856C8.07132 13.5559 8.01191 13.5559 7.95255 13.5856C7.80411 13.7044 7.65564 13.8231 7.5072 13.9419C7.38237 13.9755 7.2636 13.9607 7.15093 13.8974C6.83175 13.5782 6.51262 13.2591 6.19344 12.9399C6.16374 12.8211 6.16374 12.7024 6.19344 12.5836C6.34294 12.4119 6.48398 12.2338 6.61652 12.0492C6.42422 11.6802 6.27578 11.2942 6.17117 10.8913C5.91189 10.8105 5.64469 10.7586 5.36955 10.7354C5.28792 10.7132 5.23595 10.6612 5.21368 10.5796C5.18398 10.06 5.18398 9.54045 5.21368 9.02086C5.28307 8.91986 5.37953 8.86793 5.50316 8.86499C5.74066 8.83529 5.97821 8.80563 6.21571 8.77593C6.35332 8.40758 6.51658 8.05131 6.70559 7.7071C6.49057 7.44052 6.29761 7.15844 6.12664 6.86095C6.46586 6.41774 6.85184 6.01693 7.28453 5.65852C7.37961 5.63024 7.46868 5.64512 7.55174 5.70305C7.79668 5.88863 8.04162 6.07416 8.28656 6.25973C8.59326 6.06093 8.92727 5.92733 9.28858 5.85893C9.31102 5.53097 9.34812 5.2044 9.39991 4.87917C9.4294 4.81308 9.46654 4.75372 9.51125 4.70103ZM9.91206 5.23544C9.87136 5.51641 9.83426 5.79845 9.80072 6.0816C9.78469 6.16715 9.74755 6.24139 9.68939 6.30427C9.18579 6.44976 8.70335 6.64273 8.24202 6.88322C7.93193 6.73527 7.64989 6.54226 7.39587 6.30427C7.21773 6.48241 7.03959 6.66054 6.86146 6.83868C6.84743 6.90139 6.86226 6.96075 6.90599 7.01682C7.09762 7.20814 7.25349 7.42337 7.3736 7.66257C7.09286 8.12791 6.87762 8.62522 6.72785 9.15447C6.69076 9.19156 6.65361 9.22871 6.61652 9.2658C6.33911 9.33572 6.05708 9.37286 5.77036 9.37714C5.77036 9.65917 5.77036 9.94126 5.77036 10.2233C5.96271 10.2471 6.15568 10.2694 6.34931 10.2901C6.45566 10.3036 6.55216 10.3407 6.63878 10.4014C6.75618 10.9839 6.95658 11.5332 7.24 12.0492C7.15667 12.3187 7.00824 12.5488 6.79465 12.7395C6.97279 12.9176 7.15093 13.0958 7.32907 13.2739C7.39177 13.2879 7.45114 13.2731 7.5072 13.2294C7.66904 13.0207 7.87688 12.9168 8.13069 12.9176C8.6019 13.2496 9.12149 13.4723 9.68939 13.5856C9.72649 13.6227 9.76363 13.6599 9.80072 13.697C9.83791 13.9055 9.87501 14.1134 9.91206 14.3205C10.1776 14.3648 10.4448 14.3796 10.7137 14.365C10.7399 14.1409 10.777 13.9182 10.825 13.697C10.8621 13.6599 10.8993 13.6227 10.9363 13.5856C11.2271 13.5234 11.5091 13.4343 11.7825 13.3184C12.0493 13.159 12.324 13.018 12.6064 12.8954C12.6788 12.9009 12.7456 12.9232 12.8068 12.9622C12.9473 13.0843 13.0957 13.1956 13.2521 13.2962C13.4519 13.1187 13.6448 12.9332 13.8311 12.7395C13.6255 12.5499 13.477 12.3272 13.3857 12.0715C13.5043 11.7821 13.6305 11.4926 13.7643 11.203C13.8376 10.9691 13.897 10.7316 13.9424 10.4905C13.9647 10.4089 14.0167 10.3569 14.0983 10.3346C14.3494 10.2865 14.6018 10.2494 14.8554 10.2233C14.8554 9.94126 14.8554 9.65917 14.8554 9.37714C14.6167 9.36957 14.3792 9.3473 14.1428 9.31034C14.0573 9.29431 13.983 9.25716 13.9202 9.199C13.7756 8.66521 13.553 8.1679 13.2521 7.7071C13.2744 7.6403 13.2967 7.5735 13.3189 7.5067C13.4856 7.30683 13.6415 7.09903 13.7865 6.88322C13.6091 6.68348 13.4235 6.49051 13.2299 6.30427C13.0592 6.44531 12.8884 6.5863 12.7177 6.72734C12.6206 6.80929 12.5093 6.86126 12.3837 6.88322C12.1529 6.77896 11.9227 6.66762 11.6934 6.54921C11.4464 6.45693 11.194 6.38274 10.9363 6.32654C10.8822 6.25314 10.8451 6.17151 10.825 6.0816C10.7915 5.79845 10.7544 5.51641 10.7137 5.23544C10.4465 5.23544 10.1793 5.23544 9.91206 5.23544Z" fill="url(#paint5_linear_1847_1245)"/>
<defs>
<linearGradient id="paint0_linear_1847_1245" x1="8.94941" y1="-1.70375e-07" x2="12.4276" y2="0.892434" gradientUnits="userSpaceOnUse">
<stop offset="0.11" stop-color="#60D7AD"/>
<stop offset="0.76" stop-color="#213C3A"/>
</linearGradient>
<linearGradient id="paint1_linear_1847_1245" x1="2.36584" y1="1.72656" x2="7.4728" y2="4.11185" gradientUnits="userSpaceOnUse">
<stop offset="0.11" stop-color="#60D7AD"/>
<stop offset="0.76" stop-color="#213C3A"/>
</linearGradient>
<linearGradient id="paint2_linear_1847_1245" x1="13.7524" y1="1.73437" x2="18.8653" y2="4.13468" gradientUnits="userSpaceOnUse">
<stop offset="0.11" stop-color="#60D7AD"/>
<stop offset="0.76" stop-color="#213C3A"/>
</linearGradient>
<linearGradient id="paint3_linear_1847_1245" x1="-0.246411" y1="4.49219" x2="23.1413" y2="16.359" gradientUnits="userSpaceOnUse">
<stop offset="0.11" stop-color="#60D7AD"/>
<stop offset="0.76" stop-color="#213C3A"/>
</linearGradient>
<linearGradient id="paint4_linear_1847_1245" x1="7.91318" y1="7.76953" x2="13.5129" y2="10.1745" gradientUnits="userSpaceOnUse">
<stop offset="0.11" stop-color="#60D7AD"/>
<stop offset="0.76" stop-color="#213C3A"/>
</linearGradient>
<linearGradient id="paint5_linear_1847_1245" x1="5.06869" y1="4.69824" x2="17.4131" y2="10.028" gradientUnits="userSpaceOnUse">
<stop offset="0.11" stop-color="#60D7AD"/>
<stop offset="0.76" stop-color="#213C3A"/>
</linearGradient>
</defs>
</svg>
