<svg width="22" height="22" viewBox="0 0 22 22" fill="none" xmlns="http://www.w3.org/2000/svg">
<path opacity="0.926" fill-rule="evenodd" clip-rule="evenodd" d="M0.581227 0.00279423C3.87488 -0.00465709 7.16849 0.00279423 10.4621 0.0251491C11.4829 1.04602 12.5038 2.0669 13.5247 3.08777C13.5471 5.12944 13.5545 7.1712 13.5471 9.213C15.261 9.20554 16.9749 9.213 18.6887 9.23536C18.7706 9.25771 18.8228 9.30989 18.8452 9.39184C18.8928 10.8099 19.5709 11.786 20.8794 12.3203C21.202 12.4089 21.5298 12.4685 21.8631 12.4992C21.9152 12.5215 21.9525 12.5588 21.9748 12.6109C21.7748 15.5814 20.6049 18.0926 18.4651 20.1445C17.5851 20.9129 16.6015 21.524 15.5143 21.9776C15.395 22.0075 15.2758 22.0075 15.1566 21.9776C13.5162 21.2909 12.1302 20.2626 10.9986 18.8927C7.54106 18.8778 4.08348 18.8628 0.625937 18.848C0.324745 18.7703 0.123551 18.584 0.022355 18.2891C-0.00745166 12.3874 -0.00745166 6.48571 0.022355 0.584021C0.127561 0.307509 0.313854 0.113764 0.581227 0.00279423ZM0.894195 0.539311C3.93446 0.539311 6.97472 0.539311 10.015 0.539311C10.0075 1.29952 10.015 2.05959 10.0373 2.81951C10.1189 3.19914 10.3499 3.43014 10.7303 3.51251C11.4753 3.53486 12.2205 3.54231 12.9658 3.53486C12.9658 5.42756 12.9658 7.3203 12.9658 9.213C12.6376 9.20558 12.3098 9.213 11.9822 9.23536C11.9182 9.25615 11.8661 9.29343 11.8257 9.34713C11.6806 11.2508 10.6598 12.3015 8.76311 12.4992C8.63372 12.6292 8.59648 12.7857 8.65134 12.9686C8.88293 14.8784 9.51629 16.637 10.5515 18.2444C8.91959 18.2593 7.28769 18.2742 5.65578 18.2891C3.99035 18.2963 2.32864 18.2739 0.670646 18.222C0.642667 18.1885 0.620312 18.1512 0.603582 18.1102C0.573774 12.3129 0.573774 6.51553 0.603582 0.71815C0.683693 0.623008 0.780561 0.563396 0.894195 0.539311ZM10.5962 0.986409C11.2579 1.62567 11.9136 2.27396 12.5634 2.93128C11.9482 2.97435 11.3371 2.95945 10.7303 2.88657C10.6766 2.84622 10.6394 2.79406 10.6186 2.73009C10.5962 2.14905 10.5887 1.56783 10.5962 0.986409ZM12.3399 9.79423C14.322 9.79423 16.3042 9.79423 18.2863 9.79423C18.4784 11.3488 19.313 12.3846 20.79 12.9016C20.9957 12.9604 21.2043 13.0051 21.416 13.0357C21.1327 15.099 20.3652 16.9544 19.1134 18.602C18.0761 19.8408 16.8168 20.7797 15.3354 21.4188C12.3566 20.1011 10.4415 17.8656 9.59024 14.7123C9.44109 14.1528 9.32931 13.5865 9.25492 13.0133C10.8337 12.7641 11.8396 11.8699 12.2728 10.3307C12.3182 10.1546 12.3406 9.97575 12.3399 9.79423Z" fill="url(#paint0_linear_1903_1139)"/>
<path opacity="0.916" fill-rule="evenodd" clip-rule="evenodd" d="M4.9618 5.09948C6.95889 5.09201 8.95594 5.09948 10.9529 5.12184C11.103 5.2552 11.1253 5.41169 11.02 5.59129C10.9723 5.62218 10.9201 5.64454 10.8635 5.65835C8.94096 5.68817 7.01845 5.68817 5.09593 5.65835C4.80201 5.53339 4.7573 5.34708 4.9618 5.09948Z" fill="url(#paint1_linear_1903_1139)"/>
<path opacity="0.987" fill-rule="evenodd" clip-rule="evenodd" d="M4.95954 6.79772C6.95663 6.79026 8.95368 6.79772 10.9506 6.82008C11.1114 6.96637 11.1263 7.13027 10.9954 7.31188C8.98341 7.34171 6.97148 7.34171 4.95954 7.31188C4.78432 7.14078 4.78432 6.96936 4.95954 6.79772Z" fill="url(#paint2_linear_1903_1139)"/>
<path opacity="0.916" fill-rule="evenodd" clip-rule="evenodd" d="M5.09465 9.30261C7.01721 9.29514 8.93973 9.30261 10.8622 9.32496C11.078 9.41393 11.1376 9.57042 11.041 9.79441C11.0176 9.82535 10.9877 9.84771 10.9516 9.86148C8.95457 9.8913 6.95757 9.8913 4.96052 9.86148C4.76317 9.61504 4.80788 9.42878 5.09465 9.30261Z" fill="url(#paint3_linear_1903_1139)"/>
<path opacity="0.908" fill-rule="evenodd" clip-rule="evenodd" d="M5.05159 11.0018C6.05023 10.9944 7.04873 11.0018 8.04714 11.0242C8.29913 11.1674 8.3289 11.3462 8.13656 11.5607C7.07842 11.5905 6.02032 11.5905 4.96217 11.5607C4.77332 11.3398 4.80314 11.1535 5.05159 11.0018Z" fill="url(#paint4_linear_1903_1139)"/>
<path opacity="0.933" fill-rule="evenodd" clip-rule="evenodd" d="M16.8984 13.8622C17.2283 13.8418 17.355 13.9908 17.2784 14.3093C16.4811 15.1066 15.6837 15.904 14.8864 16.7013C14.797 16.7311 14.7076 16.7311 14.6182 16.7013C14.1934 16.2765 13.7687 15.8518 13.3439 15.427C13.2994 15.0992 13.441 14.9725 13.7687 15.047C14.0897 15.3755 14.4176 15.696 14.7523 16.0083C15.4835 15.3069 16.1988 14.5915 16.8984 13.8622Z" fill="url(#paint5_linear_1903_1139)"/>
<path opacity="0.922" fill-rule="evenodd" clip-rule="evenodd" d="M1.58726 5.07995C2.25807 5.07248 2.92871 5.07995 3.59919 5.1023C3.63644 5.13955 3.67372 5.17684 3.71097 5.21408C3.74079 5.86984 3.74079 6.52555 3.71097 7.18131C3.67372 7.21855 3.63644 7.25584 3.59919 7.29308C2.97635 7.36524 2.35041 7.38013 1.72138 7.33779C1.61642 7.32232 1.53445 7.27015 1.47548 7.18131C1.44567 6.52555 1.44567 5.86984 1.47548 5.21408C1.5222 5.17505 1.55946 5.13034 1.58726 5.07995ZM2.03435 5.66118C2.03435 6.03374 2.03435 6.40635 2.03435 6.77892C2.40693 6.77892 2.77952 6.77892 3.1521 6.77892C3.1521 6.40635 3.1521 6.03374 3.1521 5.66118C2.77952 5.66118 2.40693 5.66118 2.03435 5.66118Z" fill="url(#paint6_linear_1903_1139)"/>
<path opacity="0.922" fill-rule="evenodd" clip-rule="evenodd" d="M1.72138 9.28307C2.3028 9.27561 2.88403 9.28307 3.46506 9.30543C3.57003 9.3209 3.652 9.37307 3.71097 9.46191C3.74079 10.1177 3.74079 10.7734 3.71097 11.4291C3.67372 11.4664 3.63644 11.5037 3.59919 11.5409C2.92855 11.5707 2.2579 11.5707 1.58726 11.5409C1.55 11.5037 1.51274 11.4664 1.47548 11.4291C1.44567 10.7734 1.44567 10.1177 1.47548 9.46191C1.54254 9.37388 1.6245 9.31428 1.72138 9.28307ZM2.03435 9.8643C2.03435 10.2369 2.03435 10.6095 2.03435 10.982C2.40693 10.982 2.77952 10.982 3.1521 10.982C3.1521 10.6095 3.1521 10.2369 3.1521 9.8643C2.77952 9.8643 2.40693 9.8643 2.03435 9.8643Z" fill="url(#paint7_linear_1903_1139)"/>
<path opacity="0.909" fill-rule="evenodd" clip-rule="evenodd" d="M14.8802 11.7165C16.7958 11.6337 18.0849 12.4831 18.7476 14.2649C19.1494 15.9816 18.6352 17.3452 17.2052 18.3558C15.7863 19.1037 14.4152 19.0292 13.0919 18.1323C11.7626 16.936 11.4124 15.4978 12.0412 13.8178C12.6285 12.6262 13.5749 11.9257 14.8802 11.7165ZM14.925 12.2977C14.5192 12.3732 14.1317 12.5148 13.7625 12.7224C12.2512 13.855 11.9308 15.2634 12.8012 16.9475C13.879 18.3104 15.2128 18.6308 16.8028 17.9088C18.0992 17.0514 18.5537 15.8666 18.1664 14.3543C17.5776 12.908 16.4971 12.2224 14.925 12.2977Z" fill="url(#paint8_linear_1903_1139)"/>
<defs>
<linearGradient id="paint0_linear_1903_1139" x1="-0.26324" y1="-8.58831e-07" x2="26.2252" y2="11.4263" gradientUnits="userSpaceOnUse">
<stop offset="0.11" stop-color="#60D7AD"/>
<stop offset="0.76" stop-color="#213C3A"/>
</linearGradient>
<linearGradient id="paint1_linear_1903_1139" x1="4.76108" y1="5.09668" x2="5.16077" y2="6.94366" gradientUnits="userSpaceOnUse">
<stop offset="0.11" stop-color="#60D7AD"/>
<stop offset="0.76" stop-color="#213C3A"/>
</linearGradient>
<linearGradient id="paint2_linear_1903_1139" x1="4.75319" y1="6.79492" x2="5.09598" y2="8.51195" gradientUnits="userSpaceOnUse">
<stop offset="0.11" stop-color="#60D7AD"/>
<stop offset="0.76" stop-color="#213C3A"/>
</linearGradient>
<linearGradient id="paint3_linear_1903_1139" x1="4.76502" y1="9.2998" x2="5.16491" y2="11.1467" gradientUnits="userSpaceOnUse">
<stop offset="0.11" stop-color="#60D7AD"/>
<stop offset="0.76" stop-color="#213C3A"/>
</linearGradient>
<linearGradient id="paint4_linear_1903_1139" x1="4.79886" y1="10.999" x2="5.4598" y2="12.6713" gradientUnits="userSpaceOnUse">
<stop offset="0.11" stop-color="#60D7AD"/>
<stop offset="0.76" stop-color="#213C3A"/>
</linearGradient>
<linearGradient id="paint5_linear_1903_1139" x1="13.2885" y1="13.8604" x2="17.4634" y2="16.3566" gradientUnits="userSpaceOnUse">
<stop offset="0.11" stop-color="#60D7AD"/>
<stop offset="0.76" stop-color="#213C3A"/>
</linearGradient>
<linearGradient id="paint6_linear_1903_1139" x1="1.42581" y1="5.07715" x2="4.17486" y2="6.26232" gradientUnits="userSpaceOnUse">
<stop offset="0.11" stop-color="#60D7AD"/>
<stop offset="0.76" stop-color="#213C3A"/>
</linearGradient>
<linearGradient id="paint7_linear_1903_1139" x1="1.42581" y1="9.28027" x2="4.17444" y2="10.4659" gradientUnits="userSpaceOnUse">
<stop offset="0.11" stop-color="#60D7AD"/>
<stop offset="0.76" stop-color="#213C3A"/>
</linearGradient>
<linearGradient id="paint8_linear_1903_1139" x1="11.6527" y1="11.7109" x2="20.2631" y2="15.4224" gradientUnits="userSpaceOnUse">
<stop offset="0.11" stop-color="#60D7AD"/>
<stop offset="0.76" stop-color="#213C3A"/>
</linearGradient>
</defs>
</svg>
