<svg width="17" height="20" viewBox="0 0 17 20" fill="none" xmlns="http://www.w3.org/2000/svg">
<path opacity="0.924" fill-rule="evenodd" clip-rule="evenodd" d="M7.47552 0.00296892C7.60728 -0.00882838 7.73184 0.0145326 7.8493 0.0730519C9.90661 1.89628 12.3206 2.83073 15.0912 2.87637C15.1581 2.8981 15.2126 2.93706 15.2547 2.99318C15.2859 6.06127 15.2859 9.12932 15.2547 12.1974C15.1567 13.1459 14.8374 14.0102 14.2969 14.7905C14.9121 15.4057 15.5273 16.0208 16.1425 16.636C16.2959 16.9194 16.2959 17.1997 16.1425 17.477C15.7578 17.8929 15.3451 18.2745 14.9043 18.6217C14.6889 18.6687 14.4864 18.6376 14.2969 18.5282C13.65 17.8735 12.9959 17.2272 12.3346 16.5893C10.8149 17.7274 9.28867 18.8565 7.75586 19.9766C7.67797 20.0078 7.60013 20.0078 7.52225 19.9766C5.64019 18.6086 3.77131 17.2225 1.9156 15.8184C0.825799 14.8927 0.195052 13.7169 0.0233622 12.2909C-0.00778739 9.19165 -0.00778739 6.09239 0.0233622 2.99318C0.0622956 2.95426 0.101234 2.91529 0.140167 2.87637C2.95662 2.82858 5.40177 1.87077 7.47552 0.00296892ZM7.94274 1.03085C9.89643 2.56495 12.1235 3.39036 14.624 3.50712C14.6318 6.37277 14.624 9.23841 14.6006 12.104C14.5207 12.9046 14.2559 13.6366 13.8064 14.2999C13.6428 14.1364 13.4793 13.9728 13.3158 13.8093C12.869 13.6051 12.503 13.7063 12.2178 14.113C12.0146 13.9176 11.82 13.7152 11.6338 13.5056C13.1436 11.5366 13.3226 9.44965 12.1711 7.24488C11.1898 5.69675 9.78032 4.85575 7.94274 4.72189C7.94274 3.49156 7.94274 2.2612 7.94274 1.03085ZM7.24191 1.07758C7.28854 2.28431 7.3041 3.49908 7.28864 4.72189C5.08808 4.93742 3.55405 6.05875 2.68652 8.08588C2.00283 10.1205 2.34545 11.9582 3.7144 13.5991C4.69211 14.6057 5.88352 15.1663 7.28864 15.2811C7.29644 16.5115 7.28864 17.7419 7.26528 18.9721C5.59412 17.751 3.93549 16.5129 2.28938 15.2577C1.22655 14.3077 0.673681 13.1162 0.630748 11.6835C0.607387 8.95808 0.599599 6.2326 0.607387 3.50712C3.08851 3.40218 5.30001 2.59233 7.24191 1.07758ZM7.0083 5.376C9.05762 5.23644 10.6228 6.03072 11.7039 7.75882C12.7189 9.96181 12.353 11.9008 10.6059 13.5757C8.98362 14.7818 7.2549 14.9531 5.41975 14.0897C3.32782 12.752 2.60363 10.8753 3.24718 8.45965C3.93432 6.7365 5.18806 5.70861 7.0083 5.376ZM11.1198 13.9728C11.3369 14.1588 11.5394 14.3612 11.7272 14.5802C11.4961 14.77 11.356 15.0114 11.3067 15.3044C11.3398 15.4222 11.3787 15.539 11.4235 15.6548C11.5715 15.8028 11.7194 15.9507 11.8674 16.0987C10.5544 17.055 9.254 18.0284 7.96611 19.0188C7.94274 17.773 7.93494 16.5271 7.94274 15.2811C9.16298 15.2174 10.222 14.7814 11.1198 13.9728ZM12.8953 14.3466C13.8132 15.2334 14.7165 16.1366 15.6052 17.0565C15.3099 17.3751 15.0062 17.6866 14.6941 17.9909C13.7901 17.0948 12.8946 16.1915 12.0076 15.2811C12.3045 14.9686 12.6004 14.6571 12.8953 14.3466Z" fill="url(#paint0_linear_1842_1155)"/>
<path opacity="0.901" fill-rule="evenodd" clip-rule="evenodd" d="M9.05911 8.86878C9.45454 8.81172 9.59093 8.96965 9.46823 9.34254C8.81355 9.95428 8.14604 10.5501 7.46569 11.1299C7.34498 11.1624 7.23012 11.1481 7.12117 11.0868C6.7251 10.7051 6.34466 10.3103 5.97993 9.90243C5.91025 9.58824 6.03226 9.45184 6.34599 9.49328C6.68263 9.79402 7.01282 10.1027 7.33649 10.4192C7.9255 9.91617 8.49973 9.39934 9.05911 8.86878Z" fill="url(#paint1_linear_1842_1155)"/>
<path opacity="0.915" fill-rule="evenodd" clip-rule="evenodd" d="M7.57477 7.01466C8.943 7.01107 9.92157 7.62197 10.5105 8.84739C10.9709 10.1776 10.6937 11.3258 9.67901 12.2922C8.42006 13.2033 7.15301 13.2146 5.87781 12.3262C4.84927 11.3856 4.54949 10.2486 4.97841 8.91527C5.47702 7.77711 6.34247 7.14357 7.57477 7.01466ZM7.57477 7.48981C6.58965 7.60908 5.88256 8.11817 5.45356 9.01708C5.10175 9.94875 5.2262 10.8086 5.8269 11.5965C6.65108 12.4771 7.62965 12.709 8.76265 12.2922C9.89354 11.6992 10.3744 10.7659 10.2051 9.49223C9.82403 8.17827 8.94728 7.51082 7.57477 7.48981Z" fill="url(#paint2_linear_1842_1155)"/>
<defs>
<linearGradient id="paint0_linear_1842_1155" x1="-0.194751" y1="-7.80756e-07" x2="20.4984" y2="7.26438" gradientUnits="userSpaceOnUse">
<stop offset="0.11" stop-color="#60D7AD"/>
<stop offset="0.76" stop-color="#213C3A"/>
</linearGradient>
<linearGradient id="paint1_linear_1842_1155" x1="5.9184" y1="8.85742" x2="9.42277" y2="11.2047" gradientUnits="userSpaceOnUse">
<stop offset="0.11" stop-color="#60D7AD"/>
<stop offset="0.76" stop-color="#213C3A"/>
</linearGradient>
<linearGradient id="paint2_linear_1842_1155" x1="4.71794" y1="7.01465" x2="11.884" y2="10.0926" gradientUnits="userSpaceOnUse">
<stop offset="0.11" stop-color="#60D7AD"/>
<stop offset="0.76" stop-color="#213C3A"/>
</linearGradient>
</defs>
</svg>
