<svg width="15" height="20" viewBox="0 0 15 20" fill="none" xmlns="http://www.w3.org/2000/svg">
<path opacity="0.914" fill-rule="evenodd" clip-rule="evenodd" d="M10.484 12.8926C10.807 13.1565 11.1184 13.439 11.4184 13.7399C11.715 13.4574 12.0116 13.175 12.3082 12.8926C12.5108 13.0427 12.6666 13.2211 12.7754 13.4277C12.4929 13.7034 12.2186 13.9858 11.9523 14.275C12.226 14.5717 12.5078 14.8615 12.7976 15.1446C12.6493 15.2932 12.501 15.4419 12.3527 15.5905C12.3082 15.6203 12.2637 15.6203 12.2192 15.5905C11.959 15.3223 11.6921 15.0622 11.4184 14.8101C11.1353 15.0865 10.8461 15.354 10.5507 15.6128C10.3674 15.4738 10.1968 15.3177 10.0391 15.1446C10.3289 14.8615 10.6107 14.5717 10.8844 14.275C10.6027 13.9777 10.3208 13.6804 10.0391 13.3831C10.1883 13.2187 10.3367 13.0552 10.484 12.8926Z" fill="url(#paint0_linear_1845_1213)"/>
<path opacity="0.88" fill-rule="evenodd" clip-rule="evenodd" d="M4.649 12.895C4.69748 12.8881 4.74356 12.8958 4.78725 12.9181C4.93319 13.0639 5.07909 13.2098 5.22504 13.3557C5.25578 13.3864 5.25578 13.4171 5.22504 13.4478C4.51075 14.1618 3.79646 14.8758 3.08217 15.5898C3.05143 15.6205 3.02074 15.6205 2.99 15.5898C2.64437 15.2443 2.29875 14.8988 1.95312 14.5533C2.06583 14.3399 2.22712 14.1557 2.437 14.0006C2.636 14.1764 2.82802 14.3607 3.01304 14.5533C3.56765 14.0066 4.113 13.4539 4.649 12.895Z" fill="url(#paint1_linear_1845_1213)"/>
<path opacity="0.945" fill-rule="evenodd" clip-rule="evenodd" d="M2.64429 0C3.21899 0 4.67485 0 5.24956 0C5.24956 0.287352 5.24956 0.306509 5.24956 0.555547C4.78979 0.568317 3.44887 0.58109 2.98911 0.59386C2.41242 0.659729 2.04844 0.97262 1.89718 1.53254C1.87802 4.61039 1.87162 7.68823 1.87802 10.7661C3.39784 10.7597 4.91762 10.7661 6.43733 10.7853C6.76691 10.8338 6.97763 11.019 7.06951 11.3408C7.09506 13.3331 7.09506 15.3254 7.06951 17.3177C6.98361 17.6207 6.78564 17.8059 6.47565 17.8733C4.94314 17.8924 3.4106 17.8988 1.87802 17.8924C1.91967 18.4388 2.20066 19.1859 2.72092 19.3675C4.78878 19.4174 6.85771 19.443 8.92771 19.4441C9.12955 19.6292 9.12955 19.8144 8.92771 19.9997C6.83323 19.9997 4.73878 19.9997 2.64429 19.9997C1.78986 19.745 1.33008 18.7872 1.265 17.8924C0.993987 17.9054 0.725792 17.8863 0.460417 17.835C0.221681 17.7598 0.074814 17.6001 0.019811 17.356C-0.00573265 16.1045 -0.00573265 14.8529 0.019811 13.6013C0.0341479 13.5662 0.0533047 13.5343 0.0772813 13.5055C0.296672 13.3943 0.469083 13.4389 0.594514 13.6396C0.607284 14.8273 0.620058 16.0151 0.632828 17.2028C0.651985 17.2219 0.671142 17.2411 0.690298 17.2603C2.59322 17.2858 4.4961 17.2858 6.39902 17.2603C6.41818 17.2411 6.43733 17.2219 6.45649 17.2028C6.48829 15.278 6.48193 13.356 6.43733 11.4366C4.52483 11.3731 2.60916 11.3604 0.690298 11.3983C0.671142 11.4174 0.651985 11.4366 0.632828 11.4558C0.620058 11.8006 0.607284 12.1454 0.594514 12.4902C0.414755 12.7724 0.223187 12.7851 0.019811 12.5285C-0.0160198 12.0788 -0.00324609 11.6318 0.0581246 11.1876C0.143453 11.0129 0.27755 10.8916 0.460417 10.8236C0.726194 10.7742 0.994389 10.7551 1.265 10.7661C1.25861 7.66267 1.265 4.55928 1.28416 1.45592C1.45127 0.69833 1.90465 0.213026 2.64429 0Z" fill="url(#paint2_linear_1845_1213)"/>
<path opacity="0.969" fill-rule="evenodd" clip-rule="evenodd" d="M5.26713 0C7.56595 0 9.99887 0 12.2977 0C12.9627 0.183176 13.4033 0.604626 13.6195 1.26435C13.6806 1.92674 13.6934 2.72493 13.6578 3.39075C13.3513 3.39075 13.5046 3.39075 13.1789 3.39075C13.1215 3.39075 13.1023 3.39075 13.064 3.39075C13.0512 2.81605 13.0576 2.10725 13.0448 1.53254C12.8935 0.97262 12.5296 0.659729 11.9529 0.59386C9.76899 0.58109 7.4319 0.568317 5.24803 0.555547C5.24786 0.459763 5.24036 0.412783 5.24799 0.287352C5.24531 0.158371 5.22887 0.0191568 5.26713 0Z" fill="url(#paint3_linear_1845_1213)"/>
<path opacity="0.972" fill-rule="evenodd" clip-rule="evenodd" d="M6.81602 0.979933C7.25384 0.97355 7.6916 0.979933 8.12928 0.999089C8.21333 1.09537 8.23973 1.22947 8.20853 1.40138C8.19721 1.47162 8.17078 1.51632 8.12928 1.53548C7.69154 1.56102 7.25377 1.56102 6.81602 1.53548C6.69674 1.35045 6.69674 1.16527 6.81602 0.979933Z" fill="url(#paint4_linear_1845_1213)"/>
<path opacity="0.925" fill-rule="evenodd" clip-rule="evenodd" d="M6.66695 2.41353C7.2035 2.40714 7.73989 2.41353 8.27612 2.43268C8.37191 2.47738 8.44214 2.54762 8.48685 2.64341C8.52305 2.78188 8.54861 2.92236 8.56347 3.06486C8.67968 3.12704 8.80102 3.17812 8.92745 3.21811C9.08584 3.1051 9.25825 3.0157 9.44469 2.94992C9.51407 2.97206 9.58434 2.99121 9.65541 3.00739C10.0591 3.34718 10.4231 3.72393 10.7473 4.13764C10.7742 4.26897 10.7614 4.39671 10.709 4.52077C10.6388 4.61016 10.5685 4.69958 10.4983 4.78897C10.543 4.90391 10.5877 5.01885 10.6324 5.13379C10.8021 5.18452 10.9745 5.22923 11.1496 5.26789C11.209 5.3144 11.2537 5.37187 11.2837 5.4403C11.3604 5.98945 11.3604 6.53863 11.2837 7.08778C11.2358 7.19816 11.1528 7.26839 11.0347 7.2985C10.9039 7.30988 10.7762 7.33544 10.6516 7.37513C10.6008 7.4895 10.5497 7.60444 10.4983 7.71995C10.5953 7.83064 10.6783 7.95198 10.7473 8.08393C10.7786 8.21665 10.7659 8.34439 10.709 8.46707C10.3567 8.8322 9.99272 9.18342 9.6171 9.52069C9.3399 9.58326 9.11638 9.50027 8.94661 9.27165C8.81926 9.34177 8.68516 9.39284 8.54432 9.42491C8.56765 9.64456 8.51658 9.84253 8.39106 10.0188C8.33999 10.0443 8.28888 10.0698 8.23781 10.0954C7.72697 10.1209 7.2161 10.1209 6.70527 10.0954C6.58715 10.0653 6.50416 9.99505 6.45623 9.88467C6.41194 9.73456 6.39278 9.5813 6.39876 9.42491C6.25792 9.39284 6.12382 9.34177 5.99647 9.27165C5.8267 9.50027 5.60318 9.58326 5.32598 9.52069C4.95035 9.18342 4.58637 8.8322 4.23404 8.46707C4.17722 8.34439 4.16443 8.21665 4.19573 8.08393C4.26477 7.95198 4.34779 7.83064 4.44477 7.71995C4.39335 7.60444 4.34228 7.4895 4.29151 7.37513C4.10588 7.34506 3.92707 7.29398 3.75512 7.22188C3.70911 7.18728 3.67715 7.14261 3.65934 7.08778C3.59846 6.59189 3.5857 6.09381 3.62102 5.59355C3.63325 5.46049 3.69072 5.35195 3.79344 5.26789C3.96853 5.22923 4.14094 5.18452 4.31067 5.13379C4.35538 5.01885 4.40005 4.90391 4.44477 4.78897C4.35174 4.66652 4.26872 4.53882 4.19573 4.40583C4.15305 4.23185 4.19136 4.07859 4.31067 3.94607C4.62472 3.61922 4.95039 3.30633 5.28766 3.00739C5.35874 2.99121 5.429 2.97206 5.49839 2.94992C5.68482 3.0157 5.85723 3.1051 6.01562 3.21811C6.13187 3.17723 6.24681 3.13253 6.36044 3.08401C6.39228 2.93868 6.4242 2.79181 6.45623 2.64341C6.50833 2.54676 6.57856 2.47013 6.66695 2.41353ZM7.01177 3.02654C7.31828 3.02654 7.62479 3.02654 7.9313 3.02654C7.91559 3.27658 8.00502 3.47453 8.1995 3.6204C8.45949 3.70578 8.71493 3.80156 8.96577 3.90775C9.14687 3.85504 9.31289 3.78479 9.46384 3.69703C9.66817 3.90136 9.87253 4.10572 10.0769 4.31005C9.84744 4.50342 9.78997 4.7397 9.90445 5.01885C10.0013 5.22003 10.0907 5.42436 10.1726 5.63186C10.3367 5.75117 10.5219 5.80225 10.7282 5.78512C10.7282 6.10439 10.7282 6.42369 10.7282 6.74296C10.5193 6.71533 10.3341 6.76641 10.1726 6.89621C10.047 7.17908 9.93839 7.46643 9.84698 7.75827C9.87154 7.93508 9.94816 8.08834 10.0769 8.21803C9.87253 8.42236 9.66817 8.62672 9.46384 8.83105C9.31247 8.74304 9.14645 8.67281 8.96577 8.62032C8.65363 8.7222 8.35348 8.8499 8.0654 9.00346C7.98812 9.16031 7.94345 9.32636 7.9313 9.50153C7.62479 9.50153 7.31828 9.50153 7.01177 9.50153C6.99963 9.32636 6.95496 9.16031 6.87768 9.00346C6.5896 8.8499 6.28945 8.7222 5.97731 8.62032C5.79662 8.67281 5.63061 8.74304 5.47923 8.83105C5.27491 8.62672 5.07054 8.42236 4.86622 8.21803C4.99955 8.08546 5.07617 7.92585 5.0961 7.73911C4.99909 7.45536 4.89054 7.17441 4.77043 6.89621C4.60894 6.76641 4.42373 6.71533 4.21488 6.74296C4.21488 6.42369 4.21488 6.10439 4.21488 5.78512C4.42113 5.80225 4.60633 5.75117 4.77043 5.63186C4.8961 5.349 5.00468 5.06164 5.0961 4.76981C5.0882 4.58288 5.01158 4.42962 4.86622 4.31005C5.07054 4.10572 5.27491 3.90136 5.47923 3.69703C5.63019 3.78479 5.7962 3.85504 5.97731 3.90775C6.28366 3.79086 6.58377 3.66315 6.87768 3.52462C6.95496 3.36774 6.99963 3.20172 7.01177 3.02654Z" fill="url(#paint5_linear_1845_1213)"/>
<path opacity="0.94" fill-rule="evenodd" clip-rule="evenodd" d="M12.2999 19.9996C11.5208 19.9996 10.7418 19.9996 9.96272 19.9996C9.80181 19.8648 9.76989 19.6988 9.86694 19.5015C9.89568 19.4775 9.92763 19.4583 9.96272 19.444C10.6268 19.4313 11.2909 19.4185 11.955 19.4057C12.3852 19.379 12.7108 18.7979 12.932 18.4287C13.0128 18.2587 13.0575 18.0799 13.0661 17.8923C11.5335 17.8987 10.001 17.8923 8.4685 17.8732C8.15984 17.8072 7.96188 17.622 7.87464 17.3176C7.84908 15.3253 7.84908 13.333 7.87464 11.3407C7.96651 11.0189 8.17724 10.8337 8.50681 10.7852C10.0265 10.766 11.5463 10.7596 13.0661 10.766C13.0597 8.63316 13.047 5.5234 13.0661 3.39063C13.296 3.3906 13.2577 3.39066 13.5642 3.39065C13.66 3.39065 13.5642 3.39065 13.66 3.39065C13.6791 5.52341 13.6855 8.63316 13.6791 10.766C13.9497 10.755 14.2179 10.7741 14.4837 10.8235C14.6666 10.8914 14.8007 11.0127 14.886 11.1874C14.9302 12.2324 14.9494 13.2796 14.9435 14.3292C14.9494 15.3787 14.9302 16.4259 14.886 17.4709C14.8053 17.6489 14.6712 17.7703 14.4837 17.8348C14.2184 17.8862 13.9502 17.9053 13.6791 17.8923C13.614 18.7871 13.1543 19.7449 12.2999 19.9996ZM8.58344 11.379C10.4736 11.3726 12.3638 11.379 14.2538 11.3982C14.273 11.4173 14.2922 11.4365 14.3113 11.4556C14.3369 13.3713 14.3369 15.287 14.3113 17.2027C14.2922 17.2218 14.273 17.241 14.2538 17.2601C12.3509 17.2857 10.448 17.2857 8.54512 17.2601C8.52597 17.241 8.50681 17.2218 8.48765 17.2027C8.4621 15.287 8.4621 13.3713 8.48765 11.4556C8.52577 11.434 8.55769 11.4084 8.58344 11.379Z" fill="url(#paint6_linear_1845_1213)"/>
<path opacity="0.927" fill-rule="evenodd" clip-rule="evenodd" d="M7.28332 4.42152C8.19889 4.37602 8.84378 4.7681 9.21792 5.59775C9.47526 6.41022 9.29468 7.10667 8.67623 7.68712C7.87376 8.25171 7.0793 8.24137 6.29281 7.65616C5.72428 7.11057 5.54373 6.45538 5.75112 5.69061C6.0206 4.97107 6.53133 4.54802 7.28332 4.42152ZM7.34523 4.91677C6.62614 5.06851 6.23409 5.51217 6.16899 6.24778C6.23523 7.06724 6.67889 7.52124 7.49999 7.60973C8.3211 7.52124 8.76476 7.06724 8.831 6.24778C8.72755 5.37065 8.23229 4.92696 7.34523 4.91677Z" fill="url(#paint7_linear_1845_1213)"/>
<defs>
<linearGradient id="paint0_linear_1845_1213" x1="10.006" y1="12.8926" x2="13.3152" y2="14.3418" gradientUnits="userSpaceOnUse">
<stop offset="0.11" stop-color="#60D7AD"/>
<stop offset="0.76" stop-color="#213C3A"/>
</linearGradient>
<linearGradient id="paint1_linear_1845_1213" x1="1.91365" y1="12.8926" x2="5.61236" y2="14.8274" gradientUnits="userSpaceOnUse">
<stop offset="0.11" stop-color="#60D7AD"/>
<stop offset="0.76" stop-color="#213C3A"/>
</linearGradient>
<linearGradient id="paint2_linear_1845_1213" x1="-0.10876" y1="-7.80743e-07" x2="12.3912" y2="2.4506" gradientUnits="userSpaceOnUse">
<stop offset="0.11" stop-color="#60D7AD"/>
<stop offset="0.76" stop-color="#213C3A"/>
</linearGradient>
<linearGradient id="paint3_linear_1845_1213" x1="5.14114" y1="-1.32367e-07" x2="10.7393" y2="6.01445" gradientUnits="userSpaceOnUse">
<stop offset="0.11" stop-color="#60D7AD"/>
<stop offset="0.76" stop-color="#213C3A"/>
</linearGradient>
<linearGradient id="paint4_linear_1845_1213" x1="6.70866" y1="0.977539" x2="7.65795" y2="2.03932" gradientUnits="userSpaceOnUse">
<stop offset="0.11" stop-color="#60D7AD"/>
<stop offset="0.76" stop-color="#213C3A"/>
</linearGradient>
<linearGradient id="paint5_linear_1845_1213" x1="3.50885" y1="2.41113" x2="12.821" y2="6.45164" gradientUnits="userSpaceOnUse">
<stop offset="0.11" stop-color="#60D7AD"/>
<stop offset="0.76" stop-color="#213C3A"/>
</linearGradient>
<linearGradient id="paint6_linear_1845_1213" x1="7.77055" y1="3.39062" x2="17.5727" y2="5.19745" gradientUnits="userSpaceOnUse">
<stop offset="0.11" stop-color="#60D7AD"/>
<stop offset="0.76" stop-color="#213C3A"/>
</linearGradient>
<linearGradient id="paint7_linear_1845_1213" x1="5.62408" y1="4.41797" x2="10.0464" y2="6.31662" gradientUnits="userSpaceOnUse">
<stop offset="0.11" stop-color="#60D7AD"/>
<stop offset="0.76" stop-color="#213C3A"/>
</linearGradient>
</defs>
</svg>
