<svg width="24" height="18" viewBox="0 0 24 18" fill="none" xmlns="http://www.w3.org/2000/svg">
<path opacity="0.935" fill-rule="evenodd" clip-rule="evenodd" d="M23.8473 10.8538C23.8473 11.273 23.8473 11.6922 23.8473 12.1114C23.7736 12.2264 23.6649 12.2963 23.5212 12.321C22.1062 12.3661 20.6933 12.3505 19.2827 12.2744C19.2106 12.2178 19.1563 12.148 19.1197 12.0648C19.1179 10.6754 18.7608 9.38673 18.0485 8.19893C17.6155 8.8089 17.1886 9.42217 16.7676 10.0387C17.7798 12.2838 17.5081 14.3564 15.9525 16.2567C14.2637 17.9189 12.2842 18.3925 10.014 17.6773C8.19652 16.9532 7.05539 15.6412 6.5906 13.7416C6.20583 11.6668 6.77248 9.90462 8.29065 8.4551C10.0398 7.04835 11.965 6.7456 14.0662 7.54686C14.7479 7.08211 15.4154 6.60084 16.069 6.10298C14.3531 4.88877 12.4589 4.49287 10.3866 4.91527C7.83853 5.55365 6.0919 7.09846 5.14672 9.54965C4.87611 10.366 4.73638 11.2043 4.72753 12.0648C4.69097 12.148 4.63665 12.2178 4.56452 12.2744C3.15393 12.3505 1.7411 12.3661 0.326037 12.321C0.182348 12.2963 0.0736689 12.2264 0 12.1114C0 11.6922 0 11.273 0 10.8538C0.553755 6.43018 2.80496 3.1931 6.75362 1.14256C9.76545 -0.205386 12.8395 -0.360645 15.9758 0.676795C17.5382 1.24003 18.92 2.08616 20.1211 3.21522C20.5093 2.94354 20.8974 2.67181 21.2855 2.40013C21.7125 2.33027 21.891 2.5088 21.8212 2.93576C21.551 3.34401 21.2638 3.73991 20.9595 4.12347C22.6295 6.05887 23.5921 8.30233 23.8473 10.8538ZM10.9455 0.793236C11.1473 0.793236 11.3492 0.793236 11.551 0.793236C11.551 1.84899 11.551 2.9047 11.551 3.96045C9.32162 4.09725 7.45856 4.9822 5.96182 6.61532C5.20946 5.88626 4.46424 5.14881 3.72613 4.40293C5.67919 2.30856 8.08567 1.10532 10.9455 0.793236ZM12.2962 0.793236C15.045 0.904224 17.436 1.87456 19.4691 3.70428C18.5796 4.33907 17.6869 4.96786 16.7909 5.59064C15.464 4.59185 13.9657 4.04843 12.2962 3.96045C12.2962 2.9047 12.2962 1.84899 12.2962 0.793236ZM19.6088 4.61252C18.511 6.17056 17.401 7.7231 16.2786 9.27019C15.9096 8.74588 15.4516 8.31896 14.9045 7.98934C16.4575 6.84043 18.0256 5.71486 19.6088 4.61252ZM20.4472 4.84541C20.5343 4.86213 20.6042 4.90871 20.6568 4.98514C22.1603 6.91039 22.9599 9.09949 23.0555 11.5525C21.9997 11.5525 20.944 11.5525 19.8882 11.5525C19.8122 10.0901 19.3775 8.74709 18.5841 7.52357C19.1965 6.62408 19.8175 5.73134 20.4472 4.84541ZM3.16721 5.03172C3.95567 5.74248 4.71645 6.4877 5.44947 7.2674C4.53659 8.54644 4.03977 9.97481 3.95902 11.5525C2.90328 11.5525 1.84754 11.5525 0.791804 11.5525C0.884505 9.11561 1.67631 6.94206 3.16721 5.03172ZM11.6907 7.87289C13.995 7.93521 15.5554 9.03754 16.3717 11.1798C16.9199 13.4589 16.229 15.2521 14.299 16.5594C12.9448 17.2887 11.5475 17.3819 10.1071 16.8389C8.14743 15.8779 7.20816 14.3021 7.28925 12.1114C7.58082 10.0922 8.69093 8.74923 10.6195 8.08249C10.9792 7.99166 11.3363 7.9218 11.6907 7.87289Z" fill="url(#paint0_linear_1833_3266)"/>
<path opacity="0.915" fill-rule="evenodd" clip-rule="evenodd" d="M9.79001 10.7613C10.153 10.7416 10.299 10.912 10.2278 11.2726C9.85196 11.6496 9.48364 12.0331 9.12292 12.4231C9.48364 12.813 9.85196 13.1965 10.2278 13.5735C10.2807 14.0025 10.107 14.1517 9.70662 14.0209C9.26884 13.5735 8.83106 13.1261 8.39328 12.6787C8.25432 12.5083 8.25432 12.3378 8.39328 12.1674C8.85449 11.6889 9.32004 11.2202 9.79001 10.7613Z" fill="url(#paint1_linear_1833_3266)"/>
<path opacity="0.919" fill-rule="evenodd" clip-rule="evenodd" d="M12.4355 10.7659C12.7198 10.7302 12.8906 10.8501 12.9478 11.1254C12.4772 12.0789 12.0004 13.0305 11.5175 13.9802C11.2004 14.1523 10.994 14.0677 10.8984 13.7264C11.3671 12.7133 11.8794 11.7264 12.4355 10.7659Z" fill="url(#paint2_linear_1833_3266)"/>
<path opacity="0.914" fill-rule="evenodd" clip-rule="evenodd" d="M13.7704 10.7646C13.9144 10.746 14.0418 10.7814 14.1525 10.8709C14.5842 11.3033 15.0158 11.7356 15.4474 12.168C15.589 12.3381 15.589 12.5082 15.4474 12.6784C15.0016 13.1249 14.5558 13.5715 14.11 14.018C13.6954 14.154 13.5185 14.0052 13.5793 13.5715C13.962 13.1952 14.3371 12.8124 14.7044 12.4232C14.3371 12.034 13.962 11.6512 13.5793 11.2749C13.5075 11.0466 13.5712 10.8765 13.7704 10.7646Z" fill="url(#paint3_linear_1833_3266)"/>
<defs>
<linearGradient id="paint0_linear_1833_3266" x1="-0.28567" y1="-7.0268e-07" x2="25.4002" y2="14.6963" gradientUnits="userSpaceOnUse">
<stop offset="0.11" stop-color="#60D7AD"/>
<stop offset="0.76" stop-color="#213C3A"/>
</linearGradient>
<linearGradient id="paint1_linear_1833_3266" x1="8.26563" y1="10.7598" x2="10.8911" y2="11.4305" gradientUnits="userSpaceOnUse">
<stop offset="0.11" stop-color="#60D7AD"/>
<stop offset="0.76" stop-color="#213C3A"/>
</linearGradient>
<linearGradient id="paint2_linear_1833_3266" x1="10.8739" y1="10.7598" x2="13.608" y2="11.4915" gradientUnits="userSpaceOnUse">
<stop offset="0.11" stop-color="#60D7AD"/>
<stop offset="0.76" stop-color="#213C3A"/>
</linearGradient>
<linearGradient id="paint3_linear_1833_3266" x1="13.5268" y1="10.7598" x2="16.2068" y2="11.4607" gradientUnits="userSpaceOnUse">
<stop offset="0.11" stop-color="#60D7AD"/>
<stop offset="0.76" stop-color="#213C3A"/>
</linearGradient>
</defs>
</svg>
