<svg width="22" height="24" viewBox="0 0 22 24" fill="none" xmlns="http://www.w3.org/2000/svg">
<path opacity="0.935" fill-rule="evenodd" clip-rule="evenodd" d="M4.52669 0C4.86833 0 5.20996 0 5.5516 0C7.4356 0.520877 8.28256 1.75931 8.09253 3.7153C7.72937 5.11055 6.8397 5.93616 5.42349 6.19217C5.42349 6.70463 5.42349 7.21708 5.42349 7.72954C9.09609 7.72954 12.7687 7.72954 16.4413 7.72954C16.4413 7.21708 16.4413 6.70463 16.4413 6.19217C15.2686 6.01533 14.4358 5.38898 13.9431 4.31317C13.4143 2.72534 13.82 1.43708 15.1601 0.448399C15.5252 0.234466 15.9095 0.0849997 16.3132 0C16.6548 0 16.9964 0 17.3381 0C19.2571 0.519745 20.104 1.77242 19.879 3.75801C19.4964 5.17683 18.5783 5.98821 17.1246 6.19217C17.1246 6.70463 17.1246 7.21708 17.1246 7.72954C17.5945 7.72241 18.0643 7.72954 18.5338 7.75089C19.703 7.96629 20.4076 8.6567 20.6477 9.82206C20.669 12.9679 20.6762 18.2491 20.669 21.395C21.0676 21.395 21.4662 21.395 21.8648 21.395C21.8648 21.8505 21.8648 22.306 21.8648 22.7616C21.6655 23.3879 21.2527 23.8007 20.6263 24C19.7438 24 18.8612 24 17.9786 24C17.9786 23.7723 17.9786 23.5445 17.9786 23.3167C18.8641 23.3366 19.7466 23.3152 20.6263 23.2527C21.0916 22.9983 21.2766 22.6068 21.1815 22.0783C14.3488 22.0783 7.51601 22.0783 0.683274 22.0783C0.585263 22.6727 0.813019 23.0784 1.36655 23.2954C6.70463 23.3167 12.0427 23.3239 17.3808 23.3167C17.3808 23.5445 17.3808 23.7723 17.3808 24C12 24 6.61922 24 1.23843 24C0.610984 23.7996 0.198172 23.3868 0 22.7616C0 22.306 0 21.8505 0 21.395C0.398576 21.395 0.797154 21.395 1.19573 21.395C1.19573 19.1459 1.19573 14.7616 1.19573 12.5125C1.42349 12.5125 1.65125 12.5125 1.879 12.5125C1.879 14.7616 1.879 19.1459 1.879 21.395C2.09253 21.395 2.30605 21.395 2.51957 21.395C2.51245 18.2775 2.51957 13.0249 2.54093 9.90747C2.60485 9.55892 2.79702 9.30982 3.11744 9.16014C3.65517 9.09861 4.1961 9.07725 4.74021 9.09609C4.74021 8.86834 4.74021 8.64056 4.74021 8.41281C4.22511 8.39509 3.71265 8.41644 3.20285 8.47687C2.48546 8.69603 2.0513 9.17291 1.90036 9.90747C1.87901 10.5764 1.87189 11.2454 1.879 11.9146C1.65125 11.9146 1.42349 11.9146 1.19573 11.9146C1.18861 11.2169 1.19573 10.5194 1.21708 9.82206C1.45718 8.6567 2.1618 7.96629 3.33096 7.75089C3.8005 7.72954 4.27025 7.72241 4.74021 7.72954C4.74021 7.21708 4.74021 6.70463 4.74021 6.19217C3.19807 5.98104 2.26569 5.11273 1.94306 3.58719C1.79431 2.18005 2.31388 1.10532 3.50178 0.362989C3.8347 0.202292 4.17633 0.0812955 4.52669 0ZM4.6121 0.683274C6.30256 0.615822 7.25628 1.42009 7.47331 3.09609C7.31253 4.55936 6.50114 5.37784 5.03915 5.5516C3.74517 5.44232 2.94089 4.75905 2.62633 3.50178C2.54303 2.02983 3.20495 1.09033 4.6121 0.683274ZM16.3986 0.683274C17.5331 0.570841 18.3943 0.997888 18.9822 1.96441C19.5153 3.24126 19.2378 4.30176 18.1495 5.14591C16.7662 5.84456 15.6203 5.56698 14.7117 4.31317C14.1066 2.96837 14.3984 1.86517 15.5872 1.00356C15.8527 0.870286 16.1232 0.763525 16.3986 0.683274ZM5.42349 8.41281C9.09609 8.41281 12.7687 8.41281 16.4413 8.41281C16.4413 8.64056 16.4413 8.86834 16.4413 9.09609C12.7687 9.09609 9.09609 9.09609 5.42349 9.09609C5.42349 8.86834 5.42349 8.64056 5.42349 8.41281ZM17.1246 8.41281C17.5803 8.40568 18.0358 8.41281 18.4911 8.43416C19.2262 8.58568 19.7031 9.01982 19.9217 9.73666C19.9853 12.9091 20.0066 18.2187 19.9858 21.395C19.7722 21.395 19.5587 21.395 19.3452 21.395C19.3523 18.2775 19.3452 13.0249 19.3238 9.90747C19.2599 9.55892 19.0677 9.30982 18.7473 9.16014C18.2096 9.09861 17.6687 9.07725 17.1246 9.09609C17.1246 8.86834 17.1246 8.64056 17.1246 8.41281ZM3.37367 9.77936C3.82918 9.77936 4.2847 9.77936 4.74021 9.77936C4.71972 11.2767 4.74107 12.7713 4.80427 14.2633C4.92777 14.515 5.11994 14.6929 5.38078 14.7972C5.79113 14.8552 6.20396 14.8765 6.61922 14.8612C6.60517 15.1049 6.61943 15.3468 6.66192 15.5872C6.94663 15.7153 7.2313 15.8434 7.51601 15.9715C7.66202 16.1922 7.79722 16.42 7.92171 16.6548C7.93657 16.9697 7.91522 17.2829 7.85765 17.5943C7.87187 17.637 7.88614 17.6797 7.90036 17.7224C8.48601 18.0733 9.07674 18.4149 9.6726 18.7473C9.95317 18.5607 10.2307 18.3685 10.5053 18.1708C10.79 18.1423 11.0747 18.1423 11.3594 18.1708C11.634 18.3685 11.9116 18.5607 12.1922 18.7473C12.7572 18.4327 13.3195 18.1124 13.879 17.7865C13.9565 17.7472 13.9992 17.6831 14.0071 17.5943C13.9496 17.2829 13.9282 16.9697 13.9431 16.6548C14.0675 16.42 14.2027 16.1922 14.3488 15.9715C14.6335 15.8434 14.9181 15.7153 15.2028 15.5872C15.2453 15.3468 15.2596 15.1049 15.2456 14.8612C15.6608 14.8765 16.0736 14.8552 16.484 14.7972C16.8125 14.6681 17.0189 14.4332 17.1032 14.0925C17.1246 12.6549 17.1317 11.2171 17.1246 9.77936C17.5803 9.77223 18.0358 9.77936 18.4911 9.80071C18.5573 9.85256 18.607 9.91661 18.6406 9.99288C18.6619 13.0818 18.6691 18.306 18.6619 21.395C13.5089 21.395 8.35589 21.395 3.20285 21.395C3.19573 18.306 3.20285 13.0818 3.2242 9.99288C3.26679 9.91503 3.31661 9.84384 3.37367 9.77936ZM5.42349 9.77936C9.09609 9.77936 12.7687 9.77936 16.4413 9.77936C16.4484 11.1744 16.4413 12.5695 16.4199 13.9644C16.38 14.0755 16.3017 14.1396 16.1851 14.1566C15.8722 14.1779 15.559 14.185 15.2456 14.1779C15.2526 13.9355 15.2455 13.6935 15.2242 13.452C14.9356 13.3112 14.6438 13.176 14.3488 13.0463C14.2081 12.8149 14.0729 12.58 13.9431 12.3416C13.9282 12.0267 13.9496 11.7136 14.0071 11.4021C13.9929 11.3594 13.9786 11.3167 13.9644 11.274C13.3665 10.9324 12.7687 10.5907 12.1708 10.2491C11.9063 10.4496 11.6358 10.6417 11.3594 10.8256C11.0747 10.8541 10.79 10.8541 10.5053 10.8256C10.229 10.6417 9.95846 10.4496 9.69395 10.2491C9.09609 10.5907 8.49822 10.9324 7.90036 11.274C7.88614 11.3167 7.87187 11.3594 7.85765 11.4021C7.91838 11.7276 7.93973 12.055 7.92171 12.3843C7.78112 12.6014 7.64588 12.8221 7.51601 13.0463C7.22097 13.176 6.92917 13.3112 6.64057 13.452C6.61926 13.6935 6.61213 13.9355 6.61922 14.1779C6.25977 14.1953 5.90387 14.1739 5.5516 14.1139C5.50031 14.0753 5.4647 14.0255 5.44484 13.9644C5.42349 12.5695 5.41636 11.1744 5.42349 9.77936ZM12.2135 11.0605C12.554 11.2593 12.8956 11.4586 13.2384 11.6584C13.2594 11.8987 13.2451 12.1407 13.1957 12.3843C13.384 12.8106 13.6118 13.2163 13.879 13.6014C14.0925 13.694 14.3061 13.7865 14.5196 13.879C14.5693 14.2911 14.5765 14.7039 14.5409 15.1174C14.2953 15.2231 14.0533 15.3369 13.8149 15.4591C13.6265 15.8219 13.4272 16.1777 13.2171 16.5267C13.2157 16.7693 13.2371 17.0113 13.2811 17.2527C13.2669 17.2812 13.2527 17.3096 13.2384 17.3381C12.8968 17.5374 12.5552 17.7366 12.2135 17.9359C12.0203 17.7783 11.821 17.6288 11.6157 17.4875C11.1601 17.4591 10.7046 17.4591 10.2491 17.4875C10.0438 17.6288 9.84448 17.7783 9.65125 17.9359C9.30961 17.7366 8.96797 17.5374 8.62633 17.3381C8.61211 17.3096 8.59785 17.2812 8.58363 17.2527C8.6277 17.0113 8.64905 16.7693 8.64769 16.5267C8.43758 16.1777 8.23828 15.8219 8.04982 15.4591C7.81149 15.3369 7.56948 15.2231 7.32384 15.1174C7.28831 14.7039 7.29544 14.2911 7.3452 13.879C7.58989 13.7816 7.82477 13.6677 8.04982 13.5374C8.24912 13.1957 8.44838 12.8541 8.64769 12.5125C8.65157 12.2624 8.63022 12.0133 8.58363 11.7651C8.89759 11.4887 9.25345 11.2681 9.65125 11.1032C9.85533 11.2286 10.0546 11.3638 10.2491 11.5089C10.7046 11.5374 11.1601 11.5374 11.6157 11.5089C11.8228 11.3653 12.0221 11.2158 12.2135 11.0605Z" fill="url(#paint0_linear_1842_1159)"/>
<path opacity="0.914" fill-rule="evenodd" clip-rule="evenodd" d="M15.927 1.79395C16.237 2.04673 16.536 2.31719 16.8238 2.60533C17.1086 2.33487 17.3932 2.06441 17.6779 1.79395C17.8724 1.93773 18.0219 2.10855 18.1263 2.3064C17.8552 2.57036 17.5919 2.84083 17.3363 3.11779C17.599 3.40187 17.8695 3.67945 18.1477 3.95053C18.0054 4.09288 17.863 4.23523 17.7206 4.37757C17.6779 4.40606 17.6352 4.40606 17.5925 4.37757C17.3428 4.12071 17.0866 3.8716 16.8238 3.63024C16.5522 3.89488 16.2746 4.1511 15.9911 4.39893C15.8151 4.26577 15.6514 4.1163 15.5 3.95053C15.7782 3.67945 16.0487 3.40187 16.3114 3.11779C16.0409 2.83309 15.7704 2.5484 15.5 2.2637C15.6433 2.10626 15.7857 1.94967 15.927 1.79395Z" fill="url(#paint1_linear_1842_1159)"/>
<path opacity="0.88" fill-rule="evenodd" clip-rule="evenodd" d="M6.02166 1.96418C6.06658 1.95779 6.10929 1.96491 6.14977 1.98553C6.28502 2.12076 6.42022 2.25599 6.55547 2.39122C6.58395 2.4197 6.58395 2.44816 6.55547 2.47663C5.89354 3.13856 5.23162 3.80048 4.5697 4.4624C4.54122 4.49088 4.51278 4.49088 4.48429 4.4624C4.16401 4.14211 3.84372 3.82183 3.52344 3.50154C3.62788 3.30369 3.77735 3.13287 3.97184 2.98909C4.15625 3.15213 4.33418 3.32295 4.50564 3.50154C5.01959 2.99472 5.52496 2.48226 6.02166 1.96418Z" fill="url(#paint2_linear_1842_1159)"/>
<path opacity="0.926" fill-rule="evenodd" clip-rule="evenodd" d="M10.6468 12.385C12.0977 12.3698 12.909 13.0815 13.0809 14.5202C13.0217 15.4155 12.5946 16.0632 11.7998 16.4633C10.7692 16.8213 9.90798 16.5864 9.21616 15.7587C8.66929 14.8953 8.68351 14.0412 9.25887 13.1964C9.62549 12.7536 10.0881 12.4831 10.6468 12.385ZM10.6895 13.0683C10.1292 13.2226 9.75202 13.5785 9.5578 14.1359C9.4252 15.0308 9.78819 15.6215 10.6468 15.9081C11.652 15.9776 12.2356 15.515 12.3977 14.5202C12.2592 13.5276 11.6898 13.0436 10.6895 13.0683Z" fill="url(#paint3_linear_1842_1159)"/>
<defs>
<linearGradient id="paint0_linear_1842_1159" x1="-0.261921" y1="-9.36907e-07" x2="26.8078" y2="10.6503" gradientUnits="userSpaceOnUse">
<stop offset="0.11" stop-color="#60D7AD"/>
<stop offset="0.76" stop-color="#213C3A"/>
</linearGradient>
<linearGradient id="paint1_linear_1842_1159" x1="15.4683" y1="1.79395" x2="18.6422" y2="3.18709" gradientUnits="userSpaceOnUse">
<stop offset="0.11" stop-color="#60D7AD"/>
<stop offset="0.76" stop-color="#213C3A"/>
</linearGradient>
<linearGradient id="paint2_linear_1842_1159" x1="3.48686" y1="1.96191" x2="6.91499" y2="3.75445" gradientUnits="userSpaceOnUse">
<stop offset="0.11" stop-color="#60D7AD"/>
<stop offset="0.76" stop-color="#213C3A"/>
</linearGradient>
<linearGradient id="paint3_linear_1842_1159" x1="8.76532" y1="12.3848" x2="13.8948" y2="14.6125" gradientUnits="userSpaceOnUse">
<stop offset="0.11" stop-color="#60D7AD"/>
<stop offset="0.76" stop-color="#213C3A"/>
</linearGradient>
</defs>
</svg>
