<svg width="22" height="20" viewBox="0 0 22 20" fill="none" xmlns="http://www.w3.org/2000/svg">
<path opacity="0.953" fill-rule="evenodd" clip-rule="evenodd" d="M0.96903 0.00275354C7.51733 -0.00458905 14.0656 0.00275354 20.6139 0.0247769C21.1237 0.167559 21.4394 0.49791 21.5609 1.01583C21.5903 5.52327 21.5903 10.0308 21.5609 14.5382C21.4214 15.0888 21.0764 15.4338 20.5258 15.5733C18.1914 15.5953 15.8569 15.6027 13.5224 15.5953C13.471 16.3514 13.6766 17.0267 14.139 17.6215C14.5812 17.648 15.0217 17.6848 15.4604 17.7316C16.132 18.0268 16.3742 18.5334 16.1872 19.2512C16.0569 19.6282 15.7999 19.8705 15.4164 19.978C12.3331 20.0073 9.24982 20.0073 6.16655 19.978C5.646 19.7873 5.36706 19.4129 5.32966 18.8548C5.35045 18.3061 5.61473 17.9317 6.1225 17.7316C6.56121 17.6848 7.00168 17.648 7.4439 17.6215C7.90631 17.027 8.11183 16.3516 8.06056 15.5953C5.72604 15.6027 3.39156 15.5953 1.05712 15.5733C0.506539 15.4338 0.161507 15.0888 0.0220245 14.5382C-0.00734149 10.0308 -0.00734149 5.52327 0.0220245 1.01583C0.151359 0.497597 0.467029 0.159908 0.96903 0.00275354ZM1.14522 0.707502C7.57605 0.700159 14.0069 0.707502 20.4377 0.729525C20.6548 0.814395 20.7942 0.968558 20.8561 1.19202C20.8782 4.96533 20.8855 8.73868 20.8782 12.512C20.5405 12.512 20.2028 12.512 19.8651 12.512C19.8869 8.97002 19.8648 5.43156 19.799 1.89676C19.7623 1.86006 19.7256 1.82335 19.6889 1.78665C13.7573 1.75728 7.82566 1.75728 1.89401 1.78665C1.85731 1.82335 1.8206 1.86006 1.7839 1.89676C1.71808 5.43156 1.69606 8.97002 1.71783 12.512C1.38013 12.512 1.04244 12.512 0.704749 12.512C0.697407 8.73868 0.704749 4.96533 0.726773 1.19202C0.797212 0.967642 0.936691 0.806136 1.14522 0.707502ZM2.42257 2.46937C8.00185 2.46937 13.5811 2.46937 19.1603 2.46937C19.1603 5.81693 19.1603 9.16448 19.1603 12.512C13.5811 12.512 8.00185 12.512 2.42257 12.512C2.42257 9.16448 2.42257 5.81693 2.42257 2.46937ZM0.704749 13.2168C7.42924 13.2168 14.1537 13.2168 20.8782 13.2168C20.8855 13.5988 20.8782 13.9806 20.8561 14.362C20.8081 14.6302 20.654 14.799 20.3937 14.8685C13.9922 14.8979 7.59071 14.8979 1.18926 14.8685C1.00225 14.8158 0.862767 14.7057 0.77082 14.5382C0.709365 14.1006 0.687342 13.6602 0.704749 13.2168ZM8.76531 15.5953C10.1161 15.5953 11.4668 15.5953 12.8176 15.5953C12.7563 16.3164 12.9031 16.9918 13.2581 17.6215C11.6137 17.6802 9.96924 17.6802 8.32484 17.6215C8.67981 16.9918 8.82666 16.3164 8.76531 15.5953ZM6.47488 18.3703C9.35263 18.3629 12.2304 18.3703 15.108 18.3923C15.5075 18.5045 15.6177 18.7468 15.4384 19.1191C15.3849 19.1873 15.3189 19.2386 15.2402 19.2732C12.2744 19.3026 9.30854 19.3026 6.34274 19.2732C6.026 19.089 5.96724 18.8467 6.16655 18.5464C6.25574 18.4555 6.3585 18.3968 6.47488 18.3703Z" fill="url(#paint0_linear_1845_1209)"/>
<path opacity="0.936" fill-rule="evenodd" clip-rule="evenodd" d="M10.5709 3.43848C13.4927 3.49265 15.5849 4.82872 16.8475 7.44673C17.271 8.44827 17.4325 9.49072 17.332 10.5741C17.2953 10.6107 17.2586 10.6475 17.2219 10.6842C15.4489 10.7351 13.6723 10.7718 11.8923 10.7943C11.5635 11.396 11.0644 11.6089 10.3947 11.433C10.0695 11.3208 9.83462 11.1079 9.68993 10.7943C7.94294 10.7576 6.19574 10.7356 4.44836 10.7282C4.36969 10.6936 4.30362 10.6423 4.25015 10.5741C4.13131 7.66137 5.3426 5.51044 7.88401 4.1212C8.74129 3.71972 9.63689 3.49213 10.5709 3.43848ZM10.2185 4.18727C8.87044 4.36945 7.69589 4.92003 6.69475 5.83903C6.89296 6.03724 7.09117 6.23545 7.28938 6.43366C7.36267 6.81537 7.20851 6.98424 6.82689 6.9402C6.61542 6.77286 6.41721 6.58932 6.23226 6.38961C5.37634 7.45202 4.94323 8.67066 4.93288 10.0455C5.82848 10.0455 6.72413 10.0455 7.61973 10.0455C7.69562 9.10818 8.09204 8.33736 8.80899 7.73304C10.0485 6.86796 11.3111 6.83127 12.597 7.62292C12.8254 7.38727 13.0456 7.14501 13.2577 6.89615C13.3182 6.85761 13.3843 6.83558 13.4559 6.83008C13.7569 6.85963 13.8743 7.02115 13.8083 7.31459C13.6037 7.58526 13.3909 7.84954 13.1696 8.10743C13.6486 8.66282 13.9129 9.30885 13.9625 10.0455C14.8581 10.0455 15.7537 10.0455 16.6493 10.0455C16.6389 8.67057 16.2058 7.45193 15.3499 6.38961C15.165 6.58932 14.9668 6.77286 14.7553 6.9402C14.3737 6.98424 14.2195 6.81537 14.2928 6.43366C14.491 6.23545 14.6892 6.03724 14.8874 5.83903C13.8421 4.84163 12.5941 4.29105 11.1435 4.18727C11.1508 4.48128 11.1435 4.77494 11.1214 5.06821C11.105 5.10855 11.0829 5.14529 11.0554 5.17832C10.8229 5.32592 10.6247 5.28923 10.4607 5.06821C10.4387 4.77494 10.4314 4.48128 10.4387 4.18727C10.3653 4.18727 10.2919 4.18727 10.2185 4.18727ZM10.747 7.75506C9.36482 7.90394 8.57198 8.66745 8.36852 10.0455C8.77988 10.0528 9.19101 10.0455 9.60183 10.0235C9.88589 9.2578 10.4292 8.96419 11.2316 9.14253C11.5252 8.81954 11.8188 8.4965 12.1125 8.1735C11.6975 7.90548 11.2424 7.76603 10.747 7.75506ZM12.6411 8.68004C12.3624 9.00167 12.0835 9.32467 11.8042 9.64907C11.8693 9.77187 11.928 9.8967 11.9804 10.0235C12.3912 10.0455 12.8023 10.0528 13.2137 10.0455C13.202 9.51024 13.0111 9.0551 12.6411 8.68004ZM10.6149 9.82526C10.3464 9.99524 10.2657 10.2302 10.3727 10.53C10.7003 10.8963 10.9939 10.867 11.2536 10.4419C11.282 9.99321 11.0691 9.78764 10.6149 9.82526Z" fill="url(#paint1_linear_1845_1209)"/>
<defs>
<linearGradient id="paint0_linear_1845_1209" x1="-0.258545" y1="-7.80756e-07" x2="25.0924" y2="11.8146" gradientUnits="userSpaceOnUse">
<stop offset="0.11" stop-color="#60D7AD"/>
<stop offset="0.76" stop-color="#213C3A"/>
</linearGradient>
<linearGradient id="paint1_linear_1845_1209" x1="4.08504" y1="3.43848" x2="16.6324" y2="12.2646" gradientUnits="userSpaceOnUse">
<stop offset="0.11" stop-color="#60D7AD"/>
<stop offset="0.76" stop-color="#213C3A"/>
</linearGradient>
</defs>
</svg>
