<svg width="27" height="20" viewBox="0 0 27 20" fill="none" xmlns="http://www.w3.org/2000/svg">
<path opacity="0.936" fill-rule="evenodd" clip-rule="evenodd" d="M15.2568 0.0195185C19.9008 -0.21789 23.2864 1.71045 25.4134 5.80452C26.8846 9.36177 26.5559 12.7363 24.4273 15.9283C21.8357 19.1813 18.4721 20.4851 14.3365 19.8397C13.3644 19.6545 12.4441 19.3258 11.5754 18.8536C11.2661 18.156 11.4852 17.8491 12.2328 17.9333C13.3495 18.4973 14.5328 18.815 15.7827 18.8865C15.7718 18.4696 15.7827 18.0533 15.8156 17.6375C15.9161 17.4392 16.0804 17.3516 16.3086 17.3745C16.5368 17.3516 16.7011 17.4392 16.8017 17.6375C16.8345 18.0533 16.8454 18.4696 16.8345 18.8865C18.863 18.7477 20.638 18.0136 22.1594 16.6843C21.7846 16.3871 21.4997 16.0255 21.3048 15.5996C21.4521 15.0427 21.7808 14.9003 22.2908 15.1723C22.5209 15.4024 22.751 15.6324 22.9811 15.8625C24.3281 14.3505 25.0622 12.5756 25.1833 10.5377C24.7664 10.5486 24.3501 10.5377 23.9343 10.5048C23.736 10.4043 23.6484 10.24 23.6713 10.0118C23.6484 9.78361 23.736 9.61926 23.9343 9.51875C24.3501 9.48588 24.7664 9.47497 25.1833 9.48588C25.0445 7.45725 24.3104 5.68231 22.9811 4.16105C22.6839 4.53576 22.3223 4.82067 21.8964 5.01565C21.3395 4.86827 21.1971 4.53958 21.4691 4.02957C21.6992 3.79949 21.9293 3.5694 22.1594 3.33932C20.6474 1.99233 18.8724 1.25823 16.8345 1.13708C16.8454 1.55399 16.8345 1.97031 16.8017 2.38611C16.7011 2.58438 16.5368 2.67201 16.3086 2.64906C16.0804 2.67201 15.9161 2.58438 15.8156 2.38611C15.7827 1.97031 15.7718 1.55399 15.7827 1.13708C14.5328 1.20853 13.3495 1.52625 12.2328 2.09029C11.5099 2.19126 11.2798 1.89544 11.5426 1.20281C12.7117 0.568568 13.9498 0.174136 15.2568 0.0195185Z" fill="url(#paint0_linear_1842_1152)"/>
<path opacity="0.983" fill-rule="evenodd" clip-rule="evenodd" d="M6.57902 3.17404C8.66084 3.16306 10.7426 3.17404 12.8242 3.20691C13.1748 3.5356 13.1748 3.8643 12.8242 4.19299C10.7424 4.23684 8.66077 4.23684 6.57902 4.19299C6.38076 4.09247 6.29313 3.92813 6.31607 3.69995C6.30174 3.46552 6.38943 3.29027 6.57902 3.17404Z" fill="url(#paint1_linear_1842_1152)"/>
<path opacity="0.924" fill-rule="evenodd" clip-rule="evenodd" d="M20.2495 5.3457C20.9094 5.40829 21.0956 5.73698 20.8083 6.33178C19.9537 7.18638 19.0991 8.04099 18.2445 8.89559C18.2458 9.07598 18.2896 9.2513 18.376 9.4215C18.5368 11.4069 17.6275 12.2725 15.6478 12.0182C15.5151 11.9886 15.3946 11.9338 15.2863 11.8538C15.0942 12.09 14.8642 12.2762 14.596 12.4126C13.9296 12.3841 13.7434 12.0664 14.0372 11.4594C14.1833 11.3355 14.3039 11.1931 14.3988 11.0321C14.0748 10.1902 14.1514 9.3904 14.6289 8.63263C15.4285 7.89676 16.3269 7.74339 17.3242 8.17246C18.2724 7.19112 19.2476 6.24889 20.2495 5.3457ZM16.108 9.02707C17.1229 9.06644 17.4845 9.57046 17.1927 10.5391C16.5277 11.1805 15.9142 11.1366 15.352 10.4076C15.161 9.69339 15.413 9.23322 16.108 9.02707Z" fill="url(#paint2_linear_1842_1152)"/>
<path opacity="0.989" fill-rule="evenodd" clip-rule="evenodd" d="M3.41496 6.32931C6.28564 6.31833 9.15625 6.32931 12.0267 6.36218C12.3773 6.69088 12.3773 7.01957 12.0267 7.34826C9.15611 7.39211 6.28557 7.39211 3.41496 7.34826C3.21669 7.24775 3.12906 7.0834 3.15201 6.85522C3.13768 6.6208 3.22537 6.44554 3.41496 6.32931Z" fill="url(#paint3_linear_1842_1152)"/>
<path opacity="0.991" fill-rule="evenodd" clip-rule="evenodd" d="M0.266531 9.48556C3.94796 9.47458 7.62932 9.48556 11.3106 9.51843C11.5089 9.61895 11.5965 9.78329 11.5736 10.0115C11.5965 10.2397 11.5089 10.404 11.3106 10.5045C7.62926 10.5484 3.94789 10.5484 0.266531 10.5045C0.0682636 10.404 -0.0193923 10.2397 0.00357682 10.0115C-0.0107279 9.77705 0.0769214 9.60179 0.266531 9.48556Z" fill="url(#paint4_linear_1842_1152)"/>
<path opacity="0.989" fill-rule="evenodd" clip-rule="evenodd" d="M3.41496 12.6408C6.28564 12.6299 9.15625 12.6408 12.0267 12.6737C12.3773 13.0024 12.3773 13.3311 12.0267 13.6598C9.15611 13.7036 6.28557 13.7036 3.41496 13.6598C3.21669 13.5593 3.12906 13.3949 3.15201 13.1667C3.13768 12.9323 3.22537 12.7571 3.41496 12.6408Z" fill="url(#paint5_linear_1842_1152)"/>
<path opacity="0.983" fill-rule="evenodd" clip-rule="evenodd" d="M6.57902 15.7981C8.66084 15.7871 10.7426 15.7981 12.8242 15.8309C13.1748 16.1596 13.1748 16.4883 12.8242 16.817C10.7424 16.8609 8.66077 16.8609 6.57902 16.817C6.38076 16.7165 6.29313 16.5522 6.31607 16.324C6.30174 16.0895 6.38943 15.9143 6.57902 15.7981Z" fill="url(#paint6_linear_1842_1152)"/>
<defs>
<linearGradient id="paint0_linear_1842_1152" x1="11.2593" y1="-7.80756e-07" x2="30.5401" y2="6.19413" gradientUnits="userSpaceOnUse">
<stop offset="0.11" stop-color="#60D7AD"/>
<stop offset="0.76" stop-color="#213C3A"/>
</linearGradient>
<linearGradient id="paint1_linear_1842_1152" x1="6.23135" y1="3.16992" x2="7.34763" y2="6.2628" gradientUnits="userSpaceOnUse">
<stop offset="0.11" stop-color="#60D7AD"/>
<stop offset="0.76" stop-color="#213C3A"/>
</linearGradient>
<linearGradient id="paint2_linear_1842_1152" x1="13.8181" y1="5.3457" x2="22.3084" y2="8.9967" gradientUnits="userSpaceOnUse">
<stop offset="0.11" stop-color="#60D7AD"/>
<stop offset="0.76" stop-color="#213C3A"/>
</linearGradient>
<linearGradient id="paint3_linear_1842_1152" x1="3.03893" y1="6.3252" x2="3.91155" y2="9.58755" gradientUnits="userSpaceOnUse">
<stop offset="0.11" stop-color="#60D7AD"/>
<stop offset="0.76" stop-color="#213C3A"/>
</linearGradient>
<linearGradient id="paint4_linear_1842_1152" x1="-0.138684" y1="9.48145" x2="0.568098" y2="12.8279" gradientUnits="userSpaceOnUse">
<stop offset="0.11" stop-color="#60D7AD"/>
<stop offset="0.76" stop-color="#213C3A"/>
</linearGradient>
<linearGradient id="paint5_linear_1842_1152" x1="3.03893" y1="12.6367" x2="3.91155" y2="15.8991" gradientUnits="userSpaceOnUse">
<stop offset="0.11" stop-color="#60D7AD"/>
<stop offset="0.76" stop-color="#213C3A"/>
</linearGradient>
<linearGradient id="paint6_linear_1842_1152" x1="6.23135" y1="15.7939" x2="7.34763" y2="18.8868" gradientUnits="userSpaceOnUse">
<stop offset="0.11" stop-color="#60D7AD"/>
<stop offset="0.76" stop-color="#213C3A"/>
</linearGradient>
</defs>
</svg>
