<svg width="25" height="22" viewBox="0 0 25 22" fill="none" xmlns="http://www.w3.org/2000/svg">
<path opacity="0.988" fill-rule="evenodd" clip-rule="evenodd" d="M1.70473 0.00343773C8.78031 -0.00572933 15.8559 0.00343773 22.9314 0.0309334C24.0581 0.359331 24.6263 1.11088 24.6361 2.28558C24.7747 2.97231 24.518 3.21064 23.8663 3.00047C23.8318 2.95922 23.8043 2.91336 23.7838 2.86299C23.7924 2.38267 23.7007 1.92441 23.5088 1.4882C23.2411 1.12977 22.8836 0.937301 22.4365 0.910795C15.6909 0.874133 8.94528 0.874133 2.19966 0.910795C1.43985 1.0107 1.00908 1.44147 0.907359 2.20309C0.870696 7.04233 0.870696 11.8816 0.907359 16.7208C1.00817 17.4815 1.43894 17.9123 2.19966 18.0131C8.94528 18.0498 15.6909 18.0498 22.4365 18.0131C23.1972 17.9123 23.628 17.4815 23.7288 16.7208C23.7562 16.4281 23.7654 16.1348 23.7563 15.841C16.644 15.8501 9.53182 15.841 2.41962 15.8135C2.25377 15.7294 2.18044 15.5919 2.19966 15.401C2.18044 15.2101 2.25377 15.0727 2.41962 14.9886C9.53182 14.9611 16.644 14.9519 23.7563 14.9611C23.7471 11.5149 23.7563 8.0688 23.7838 4.62271C23.8113 4.52191 23.8754 4.45774 23.9762 4.43024C24.1229 4.39356 24.2695 4.39356 24.4162 4.43024C24.517 4.45774 24.5811 4.52191 24.6086 4.62271C24.6453 8.82037 24.6453 13.0181 24.6086 17.2157C24.3795 18.1048 23.8205 18.6638 22.9314 18.893C20.1818 18.9113 17.4323 18.9297 14.6827 18.948C14.9027 19.6629 15.1226 20.3777 15.3426 21.0926C16.1675 21.1109 16.9923 21.1293 17.8172 21.1476C17.9831 21.2317 18.0564 21.3692 18.0372 21.5601C18.0564 21.7509 17.9831 21.8884 17.8172 21.9725C14.1511 22.0092 10.485 22.0092 6.81893 21.9725C6.65308 21.8884 6.57977 21.7509 6.59897 21.5601C6.57977 21.3692 6.65308 21.2317 6.81893 21.1476C7.66195 21.1201 8.50513 21.1109 9.34854 21.1201C9.52231 20.388 9.72396 19.664 9.95344 18.948C7.20387 18.9297 4.4543 18.9113 1.70473 18.893C0.815705 18.6638 0.25663 18.1048 0.0274971 17.2157C-0.00916569 12.0465 -0.00916569 6.87736 0.0274971 1.70817C0.266649 0.818333 0.82573 0.250085 1.70473 0.00343773ZM10.9433 18.9205C11.8781 18.9205 12.813 18.9205 13.7478 18.9205C13.9216 19.6526 14.1233 20.3766 14.3528 21.0926C12.9963 21.1293 11.6399 21.1293 10.2834 21.0926C10.5077 20.3695 10.7277 19.6454 10.9433 18.9205Z" fill="url(#paint0_linear_1842_1151)"/>
<path opacity="0.915" fill-rule="evenodd" clip-rule="evenodd" d="M16.6633 6.54688C16.793 6.58405 16.9213 6.62986 17.0483 6.68435C17.2232 6.86852 17.4065 7.04268 17.5982 7.20677C17.7898 7.04268 17.9731 6.86852 18.1481 6.68435C18.5563 6.47561 18.8312 6.59477 18.973 7.0418C18.9325 7.15403 18.8867 7.26402 18.8355 7.37175C18.6513 7.54673 18.4772 7.73001 18.3131 7.92166C18.5158 8.13349 18.7082 8.35345 18.8905 8.58156C19.0096 9.12229 18.7988 9.33312 18.2581 9.21396C18.03 9.03171 17.81 8.83925 17.5982 8.63655C17.3863 8.83925 17.1664 9.03171 16.9383 9.21396C16.3975 9.33312 16.1867 9.12229 16.3059 8.58156C16.4881 8.35345 16.6806 8.13349 16.8833 7.92166C16.7192 7.73001 16.545 7.54673 16.3609 7.37175C16.1617 6.98851 16.2625 6.71355 16.6633 6.54688Z" fill="url(#paint1_linear_1842_1151)"/>
<path opacity="0.917" fill-rule="evenodd" clip-rule="evenodd" d="M7.69874 6.87656C8.24107 6.84071 8.45185 7.07904 8.33114 7.59145C7.9004 8.0222 7.46959 8.453 7.03885 8.88375C6.83719 8.99373 6.6356 8.99373 6.43394 8.88375C6.10262 8.61726 5.84603 8.2965 5.66406 7.9214C5.80578 7.47437 6.08073 7.35521 6.48893 7.56396C6.57235 7.65662 6.66403 7.7391 6.76389 7.81142C7.09499 7.51699 7.40663 7.20536 7.69874 6.87656Z" fill="url(#paint2_linear_1842_1151)"/>
<path opacity="0.931" fill-rule="evenodd" clip-rule="evenodd" d="M6.40887 4.40086C8.09485 4.21279 9.36883 4.83601 10.2308 6.27057C10.9227 7.95858 10.6203 9.43417 9.32341 10.6974C8.24569 11.4627 7.07256 11.646 5.80396 11.2473C4.11221 10.4583 3.36984 9.12935 3.57681 7.26041C3.94421 5.72907 4.88824 4.77585 6.40887 4.40086ZM6.57384 5.33572C5.07021 5.77422 4.38282 6.78237 4.51166 8.36024C4.92041 9.92678 5.93775 10.6325 7.56368 10.4774C9.08018 10.0235 9.76757 9.00617 9.62586 7.42539C9.17064 5.91725 8.1533 5.22067 6.57384 5.33572Z" fill="url(#paint3_linear_1842_1151)"/>
<path opacity="0.931" fill-rule="evenodd" clip-rule="evenodd" d="M16.9714 4.40379C18.6574 4.21572 19.9313 4.83894 20.7933 6.2735C21.4852 7.96151 21.1828 9.4371 19.8859 10.7003C18.8082 11.4656 17.6351 11.6489 16.3665 11.2502C14.6747 10.4612 13.9323 9.13228 14.1393 7.26334C14.5067 5.732 15.4507 4.77878 16.9714 4.40379ZM17.1363 5.33865C15.6327 5.77715 14.9453 6.7853 15.0742 8.36317C15.4829 9.92971 16.5003 10.6354 18.1262 10.4803C19.6427 10.0264 20.3301 9.0091 20.1884 7.42832C19.7331 5.92018 18.7158 5.2236 17.1363 5.33865Z" fill="url(#paint4_linear_1842_1151)"/>
<defs>
<linearGradient id="paint0_linear_1842_1151" x1="-0.295556" y1="-8.58831e-07" x2="28.2765" y2="13.8382" gradientUnits="userSpaceOnUse">
<stop offset="0.11" stop-color="#60D7AD"/>
<stop offset="0.76" stop-color="#213C3A"/>
</linearGradient>
<linearGradient id="paint1_linear_1842_1151" x1="16.2292" y1="6.54687" x2="19.4917" y2="7.962" gradientUnits="userSpaceOnUse">
<stop offset="0.11" stop-color="#60D7AD"/>
<stop offset="0.76" stop-color="#213C3A"/>
</linearGradient>
<linearGradient id="paint2_linear_1842_1151" x1="5.63172" y1="6.87305" x2="8.57774" y2="8.51419" gradientUnits="userSpaceOnUse">
<stop offset="0.11" stop-color="#60D7AD"/>
<stop offset="0.76" stop-color="#213C3A"/>
</linearGradient>
<linearGradient id="paint3_linear_1842_1151" x1="3.45853" y1="4.36816" x2="11.9654" y2="8.02381" gradientUnits="userSpaceOnUse">
<stop offset="0.11" stop-color="#60D7AD"/>
<stop offset="0.76" stop-color="#213C3A"/>
</linearGradient>
<linearGradient id="paint4_linear_1842_1151" x1="14.021" y1="4.37109" x2="22.5279" y2="8.02674" gradientUnits="userSpaceOnUse">
<stop offset="0.11" stop-color="#60D7AD"/>
<stop offset="0.76" stop-color="#213C3A"/>
</linearGradient>
</defs>
</svg>
