<svg width="24" height="24" viewBox="0 0 24 24" fill="none" xmlns="http://www.w3.org/2000/svg">
<g clip-path="url(#clip0_3392_2)">
<path d="M11 2.5C11.2761 2.5 11.5 2.72386 11.5 3V3.5H12C12.663 3.5 13.2987 3.76358 13.7676 4.23242C14.2364 4.70126 14.5 5.33696 14.5 6V9.5C14.5 11.0913 13.8674 12.617 12.7422 13.7422C11.6223 14.8621 10.1056 15.4931 8.52246 15.499C8.57277 16.0501 8.70644 16.5914 8.91895 17.1045C9.19535 17.7718 9.60061 18.378 10.1113 18.8887C10.6221 19.3994 11.2282 19.8047 11.8955 20.0811C12.5628 20.3574 13.2778 20.5 14 20.5C14.7222 20.5 15.4372 20.3574 16.1045 20.0811C16.7718 19.8047 17.3779 19.3994 17.8887 18.8887C18.3994 18.378 18.8047 17.7718 19.0811 17.1045C19.3574 16.4372 19.5 15.7222 19.5 15V12.4482C19.0234 12.3508 18.5815 12.1167 18.2324 11.7676C17.7636 11.2987 17.5 10.663 17.5 10C17.5 9.33696 17.7636 8.70126 18.2324 8.23242C18.7013 7.76358 19.337 7.5 20 7.5L20.2471 7.5127C20.8194 7.56952 21.3573 7.82219 21.7676 8.23242C22.2364 8.70126 22.5 9.33696 22.5 10C22.5 10.663 22.2364 11.2987 21.7676 11.7676C21.4185 12.1167 20.9766 12.3508 20.5 12.4482V15L20.4922 15.3193C20.4556 16.0638 20.2907 16.7972 20.0049 17.4873C19.6782 18.2759 19.2003 18.9931 18.5967 19.5967C17.9931 20.2003 17.2759 20.6782 16.4873 21.0049C15.6987 21.3315 14.8536 21.5 14 21.5C13.1464 21.5 12.3013 21.3315 11.5127 21.0049C10.7241 20.6782 10.0069 20.2003 9.40332 19.5967C8.79974 18.9931 8.32177 18.2759 7.99512 17.4873C7.72178 16.8274 7.56044 16.1279 7.51465 15.417C6.28901 15.2127 5.14798 14.6324 4.25781 13.7422C3.13259 12.617 2.5 11.0913 2.5 9.5V6C2.5 5.33696 2.76358 4.70126 3.23242 4.23242C3.70126 3.76358 4.33696 3.5 5 3.5H5.5V3C5.5 2.72386 5.72386 2.5 6 2.5C6.27614 2.5 6.5 2.72386 6.5 3V5C6.5 5.27614 6.27614 5.5 6 5.5C5.72386 5.5 5.5 5.27614 5.5 5V4.5H5C4.60218 4.5 4.22076 4.65815 3.93945 4.93945C3.65815 5.22076 3.5 5.60218 3.5 6V9.5C3.5 10.8261 4.02716 12.0975 4.96484 13.0352C5.90253 13.9728 7.17392 14.5 8.5 14.5C9.82608 14.5 11.0975 13.9728 12.0352 13.0352C12.9728 12.0975 13.5 10.8261 13.5 9.5V6C13.5 5.60218 13.3419 5.22076 13.0605 4.93945C12.8145 4.69337 12.4917 4.54195 12.1484 4.50781L12 4.5H11.5V5C11.5 5.27614 11.2761 5.5 11 5.5C10.7239 5.5 10.5 5.27614 10.5 5V3C10.5 2.72386 10.7239 2.5 11 2.5ZM20 8.5C19.6022 8.5 19.2208 8.65815 18.9395 8.93945C18.6581 9.22076 18.5 9.60218 18.5 10C18.5 10.3978 18.6581 10.7792 18.9395 11.0605C19.2208 11.3419 19.6022 11.5 20 11.5C20.3978 11.5 20.7792 11.3419 21.0605 11.0605C21.3419 10.7792 21.5 10.3978 21.5 10C21.5 9.60218 21.3419 9.22076 21.0605 8.93945C20.8145 8.69337 20.4917 8.54195 20.1484 8.50781L20 8.5Z" fill="url(#paint0_linear_3392_2)"/>
</g>
<defs>
<linearGradient id="paint0_linear_3392_2" x1="1.74844" y1="2" x2="26.6515" y2="13.2925" gradientUnits="userSpaceOnUse">
<stop offset="0.11" stop-color="#60D7AD"/>
<stop offset="0.76" stop-color="#213C3A"/>
</linearGradient>
<clipPath id="clip0_3392_2">
<rect width="24" height="24" fill="white"/>
</clipPath>
</defs>
</svg>
