<svg width="24" height="24" viewBox="0 0 24 24" fill="none" xmlns="http://www.w3.org/2000/svg">
<g clip-path="url(#clip0_3393_34)">
<path d="M15.6465 2.64655C15.8417 2.45128 16.1583 2.45128 16.3535 2.64655C16.5488 2.84181 16.5488 3.15832 16.3535 3.35358L13.207 6.50006H19C19.663 6.50006 20.2987 6.76364 20.7676 7.23248C21.2364 7.70132 21.5 8.33703 21.5 9.00006V18.0001C21.5 18.6631 21.2364 19.2988 20.7676 19.7676C20.2987 20.2365 19.663 20.5001 19 20.5001H5C4.33697 20.5001 3.70126 20.2365 3.23242 19.7676C2.76359 19.2988 2.50001 18.6631 2.5 18.0001V9.00006C2.5 8.33703 2.76359 7.70132 3.23242 7.23248C3.70126 6.76364 4.33696 6.50006 5 6.50006H10.793L7.64648 3.35358C7.45123 3.15832 7.45124 2.84181 7.64648 2.64655C7.84175 2.45128 8.15825 2.45128 8.35352 2.64655L12 6.29303L15.6465 2.64655ZM5 7.50006C4.60218 7.50006 4.22076 7.65821 3.93945 7.93951C3.65816 8.22082 3.5 8.60224 3.5 9.00006V18.0001C3.50001 18.3979 3.65816 18.7793 3.93945 19.0606C4.22076 19.3419 4.60218 19.5001 5 19.5001H14.5V7.50006H5ZM15.5 19.5001H19C19.3978 19.5001 19.7792 19.3419 20.0605 19.0606C20.3418 18.7793 20.5 18.3979 20.5 18.0001V9.00006C20.5 8.60225 20.3418 8.22082 20.0605 7.93951C19.7792 7.65821 19.3978 7.50006 19 7.50006H15.5V19.5001ZM18 14.5001C18.2761 14.5001 18.5 14.7239 18.5 15.0001V15.0098C18.5 15.286 18.2761 15.5098 18 15.5098C17.7239 15.5098 17.5 15.286 17.5 15.0098V15.0001C17.5 14.7239 17.7239 14.5001 18 14.5001ZM18 11.5001C18.2761 11.5001 18.5 11.7239 18.5 12.0001V12.0098C18.5 12.286 18.2761 12.5098 18 12.5098C17.7239 12.5098 17.5 12.286 17.5 12.0098V12.0001C17.5 11.7239 17.7239 11.5001 18 11.5001Z" fill="url(#paint0_linear_3393_34)"/>
</g>
<defs>
<linearGradient id="paint0_linear_3393_34" x1="2.2724" y1="2.50006" x2="24.763" y2="12.7526" gradientUnits="userSpaceOnUse">
<stop offset="0.11" stop-color="#60D7AD"/>
<stop offset="0.76" stop-color="#213C3A"/>
</linearGradient>
<clipPath id="clip0_3393_34">
<rect width="24" height="24" fill="white"/>
</clipPath>
</defs>
</svg>
