<svg width="24" height="24" viewBox="0 0 24 24" fill="none" xmlns="http://www.w3.org/2000/svg">
<g clip-path="url(#clip0_3386_27)">
<path d="M14.6719 0.843769C14.834 0.978693 14.9881 1.12003 15.1406 1.26564C15.1694 1.2909 15.1982 1.31616 15.2278 1.34218C15.8871 1.944 16.3669 3.00565 16.4138 3.89276C16.416 4.0571 16.4173 4.22141 16.418 4.38576C16.4194 4.4701 16.4194 4.4701 16.4209 4.55614C16.4211 4.61212 16.4214 4.66811 16.4216 4.72579C16.4221 4.77579 16.4225 4.8258 16.423 4.87732C16.4072 5.05154 16.3751 5.20882 16.3349 5.37878C16.322 5.43367 16.3091 5.48855 16.2958 5.5451C16.2858 5.58694 16.2759 5.62879 16.2656 5.67189C16.2988 5.67176 16.332 5.67163 16.3663 5.6715C17.1737 5.6684 17.9812 5.66607 18.7886 5.66461C19.1791 5.66388 19.5696 5.66289 19.96 5.66129C20.3003 5.65988 20.6406 5.65898 20.9808 5.65866C21.1611 5.65848 21.3413 5.65805 21.5215 5.65703C21.6911 5.65607 21.8606 5.65578 22.0302 5.65599C22.1223 5.65593 22.2143 5.65517 22.3064 5.6544C22.361 5.65459 22.4156 5.65478 22.4719 5.65498C22.5195 5.65485 22.567 5.65472 22.6161 5.65459C22.7344 5.67189 22.7344 5.67189 22.811 5.72462C22.9048 5.85339 22.8926 5.95298 22.8927 6.11127C22.8929 6.14186 22.8931 6.17245 22.8933 6.20397C22.8938 6.30719 22.8933 6.41039 22.8929 6.51361C22.893 6.58807 22.8933 6.66253 22.8935 6.73699C22.8941 6.94217 22.8938 7.14734 22.8934 7.35252C22.8931 7.57357 22.8936 7.79462 22.894 8.01567C22.8946 8.44894 22.8944 8.8822 22.894 9.31547C22.8937 9.66747 22.8937 10.0195 22.8938 10.3715C22.8938 10.4215 22.8939 10.4715 22.8939 10.5231C22.8939 10.6247 22.894 10.7263 22.894 10.8279C22.8944 11.7816 22.894 12.7353 22.8932 13.6891C22.8926 14.5081 22.8927 15.3271 22.8933 16.1461C22.8941 17.0963 22.8944 18.0465 22.894 18.9967C22.8939 19.0979 22.8939 19.1992 22.8938 19.3004C22.8938 19.3503 22.8938 19.4001 22.8938 19.4514C22.8936 19.8031 22.8938 20.1549 22.8942 20.5066C22.8946 20.935 22.8945 21.3635 22.8937 21.7919C22.8933 22.0106 22.8932 22.2294 22.8937 22.4481C22.8941 22.6482 22.8939 22.8482 22.8931 23.0482C22.8929 23.1208 22.893 23.1934 22.8934 23.2659C22.8938 23.3642 22.8934 23.4624 22.8927 23.5606C22.8927 23.6427 22.8927 23.6427 22.8926 23.7264C22.875 23.8594 22.875 23.8594 22.8242 23.9473C22.6852 24.0289 22.5648 24.0177 22.4045 24.0178C22.3705 24.0181 22.3365 24.0183 22.3016 24.0185C22.1869 24.0191 22.0722 24.0186 21.9575 24.0182C21.8748 24.0184 21.7921 24.0186 21.7094 24.019C21.4814 24.0196 21.2535 24.0194 21.0255 24.0191C20.7799 24.0189 20.5343 24.0195 20.2887 24.0199C19.8072 24.0207 19.3257 24.0208 18.8442 24.0205C18.4527 24.0203 18.0613 24.0204 17.6699 24.0207C17.5864 24.0207 17.5864 24.0207 17.5013 24.0208C17.3883 24.0208 17.2752 24.0209 17.1622 24.021C16.1011 24.0216 15.04 24.0214 13.9789 24.0208C13.0082 24.0204 12.0375 24.021 11.0668 24.0221C10.0705 24.0232 9.0742 24.0237 8.07789 24.0234C7.51839 24.0232 6.9589 24.0233 6.3994 24.0241C5.92288 24.0248 5.44636 24.0249 4.96984 24.024C4.72674 24.0236 4.48365 24.0235 4.24055 24.0243C4.01784 24.0249 3.79514 24.0247 3.57243 24.0238C3.49202 24.0236 3.4116 24.0237 3.33119 24.0242C2.62657 24.0282 2.12564 23.9076 1.60712 23.4068C1.30734 23.0833 1.11955 22.6889 1.11872 22.2473C1.11851 22.1957 1.1183 22.1441 1.11808 22.091C1.11809 22.0343 1.1181 21.9776 1.11811 21.9192C1.11794 21.859 1.11776 21.7988 1.11759 21.7368C1.11712 21.5695 1.11694 21.4022 1.11682 21.2349C1.11663 21.0545 1.11619 20.8741 1.11578 20.6937C1.11485 20.258 1.11438 19.8222 1.11396 19.3865C1.11376 19.1811 1.1135 18.9758 1.11326 18.7705C1.11246 18.0878 1.11178 17.405 1.11144 16.7223C1.11135 16.5451 1.11126 16.3679 1.11117 16.1908C1.11115 16.1467 1.11113 16.1027 1.1111 16.0573C1.11071 15.3445 1.10953 14.6317 1.108 13.9189C1.10645 13.1867 1.10561 12.4545 1.10546 11.7223C1.10536 11.3113 1.10495 10.9004 1.10375 10.4894C1.10273 10.1393 1.10236 9.78924 1.10281 9.43914C1.10302 9.26067 1.10294 9.08222 1.10203 8.90376C1.10104 8.70979 1.10153 8.51585 1.10215 8.32188C1.10163 8.26615 1.10112 8.21041 1.10059 8.15299C1.10604 7.43895 1.35359 6.85464 1.84278 6.33693C2.53821 5.6802 3.29897 5.64439 4.20502 5.65358C4.30715 5.65393 4.40927 5.6542 4.51139 5.65439C4.77826 5.6551 5.0451 5.65694 5.31196 5.65902C5.58504 5.66095 5.85812 5.6618 6.1312 5.66274C6.6656 5.66474 7.19999 5.66793 7.73438 5.67189C7.72447 5.6316 7.71455 5.59131 7.70434 5.54979C7.57608 5.01476 7.57608 5.01476 7.57343 4.74392C7.57263 4.66412 7.57263 4.66412 7.57181 4.58271C7.57228 4.52835 7.57276 4.47399 7.57325 4.41799C7.57378 4.33201 7.57378 4.33201 7.57433 4.24429C7.59553 3.07387 8.05343 2.11005 8.85938 1.26564C8.8841 1.23743 8.90881 1.20921 8.93427 1.18013C10.3665 -0.391328 13.0509 -0.388283 14.6719 0.843769ZM9.28126 1.82814C8.52277 2.61749 8.27019 3.61663 8.28425 4.68276C8.3081 5.44957 8.64344 6.21383 9.14063 6.79689C9.15991 6.82282 9.17918 6.84874 9.19904 6.87545C9.34874 7.06868 9.5287 7.21843 9.72071 7.36818C9.75792 7.39745 9.75792 7.39745 9.79589 7.4273C10.2315 7.75779 10.5871 7.81064 11.122 7.80947C11.1917 7.80983 11.2614 7.81024 11.3311 7.81068C11.4768 7.81138 11.6224 7.81136 11.7681 7.81086C11.9534 7.81032 12.1387 7.81191 12.324 7.81408C12.4679 7.81547 12.6117 7.81555 12.7556 7.81525C12.8239 7.8153 12.8921 7.81578 12.9604 7.81674C13.5727 7.82423 13.9872 7.63822 14.4434 7.23635C14.471 7.21214 14.4987 7.18792 14.5271 7.16298C15.2179 6.54038 15.6724 5.63155 15.7209 4.69905C15.7504 3.70798 15.5172 2.78166 14.8594 2.01564C14.8361 1.98573 14.8129 1.95582 14.7889 1.92501C14.1644 1.153 13.2226 0.767075 12.2578 0.662128C11.1178 0.604282 10.0904 1.04542 9.28126 1.82814ZM2.20277 7.00124C1.84417 7.48437 1.77416 7.94114 1.82813 8.53127C1.94127 8.98324 2.21736 9.36598 2.57813 9.65627C2.89654 9.83287 3.1825 9.9434 3.54744 9.94329C3.57958 9.94334 3.61171 9.94339 3.64482 9.94345C3.75329 9.94358 3.86176 9.94336 3.97023 9.94316C4.04847 9.94318 4.1267 9.94322 4.20494 9.94328C4.42054 9.94338 4.63614 9.94319 4.85174 9.94296C5.084 9.94276 5.31627 9.94283 5.54853 9.94286C5.95116 9.94289 6.35378 9.94274 6.7564 9.94248C7.33853 9.94209 7.92065 9.94197 8.50278 9.94191C9.44718 9.94181 10.3916 9.9415 11.336 9.94106C12.2535 9.94063 13.1711 9.94029 14.0886 9.94009C14.1452 9.94008 14.2017 9.94007 14.2599 9.94006C14.5435 9.94 14.8271 9.93994 15.1107 9.93988C17.4644 9.93939 19.8181 9.93853 22.1719 9.93752C22.1719 8.76189 22.1719 7.58627 22.1719 6.37502C20.1145 6.37502 18.0572 6.37502 15.9375 6.37502C15.8447 6.54518 15.7519 6.71533 15.6563 6.89064C15.548 7.04226 15.548 7.04226 15.4482 7.16018C15.4126 7.20235 15.3769 7.24453 15.3402 7.28798C15.2195 7.42293 15.0946 7.55162 14.9632 7.67617C14.9008 7.72641 14.9008 7.72641 14.9063 7.78127C14.9604 7.78154 15.0144 7.78182 15.0702 7.7821C15.5799 7.78478 16.0896 7.78819 16.5993 7.79232C16.8613 7.79442 17.1234 7.79625 17.3854 7.79751C17.6383 7.79873 17.8912 7.80062 18.144 7.80298C18.2405 7.80376 18.337 7.8043 18.4335 7.80459C18.5686 7.80505 18.7037 7.80636 18.8388 7.80788C18.8788 7.80781 18.9187 7.80774 18.9598 7.80767C19.1772 7.81112 19.3245 7.826 19.5 7.96877C19.5469 8.0801 19.5469 8.0801 19.5469 8.20314C19.4921 8.32618 19.4921 8.32618 19.4063 8.43752C19.294 8.4669 19.294 8.4669 19.158 8.46701C19.0803 8.46793 19.0803 8.46793 19.0011 8.46887C18.9439 8.46834 18.8868 8.46782 18.828 8.46728C18.7372 8.46783 18.7372 8.46783 18.6446 8.46839C18.4763 8.46937 18.308 8.46888 18.1397 8.46816C17.9583 8.46763 17.777 8.46845 17.5956 8.46909C17.2402 8.47013 16.8847 8.46991 16.5293 8.46923C16.2405 8.4687 15.9517 8.46863 15.6629 8.46888C15.6219 8.46892 15.5808 8.46895 15.5385 8.46899C15.4552 8.46907 15.3718 8.46914 15.2884 8.46922C14.5059 8.46989 13.7234 8.46912 12.9409 8.46786C12.269 8.46681 11.5971 8.46699 10.9252 8.46807C10.1456 8.46933 9.36596 8.46982 8.58632 8.4691C8.50324 8.46903 8.42015 8.46896 8.33707 8.46888C8.27575 8.46883 8.27575 8.46883 8.21318 8.46877C7.92464 8.46857 7.63609 8.46891 7.34754 8.46946C6.99605 8.47012 6.64457 8.46994 6.29308 8.46869C6.11363 8.46808 5.9342 8.46784 5.75475 8.46861C5.5605 8.46944 5.36631 8.46845 5.17206 8.46728C5.11493 8.4678 5.0578 8.46833 4.99894 8.46887C4.94715 8.46825 4.89536 8.46764 4.842 8.46701C4.79713 8.46698 4.75227 8.46694 4.70604 8.4669C4.59376 8.43752 4.59376 8.43752 4.50628 8.32783C4.45313 8.20314 4.45313 8.20314 4.4795 8.05373C4.55505 7.90592 4.58496 7.88634 4.73438 7.82814C4.82554 7.81588 4.82554 7.81588 4.92243 7.81509C4.95937 7.81457 4.99631 7.81404 5.03436 7.8135C5.07445 7.8134 5.11454 7.8133 5.15585 7.8132C5.19839 7.81273 5.24094 7.81226 5.28478 7.81177C5.42529 7.81032 5.56579 7.80953 5.70631 7.80873C5.80378 7.80786 5.90125 7.80694 5.99872 7.80598C6.25518 7.80358 6.51163 7.80172 6.7681 7.79998C7.02983 7.7981 7.29156 7.79571 7.55329 7.79335C8.06678 7.78882 8.58026 7.78486 9.09376 7.78127C9.04892 7.72866 9.00405 7.67609 8.95915 7.62354C8.93417 7.59426 8.90918 7.56498 8.88344 7.53481C8.80214 7.44121 8.71657 7.35228 8.63087 7.26271C8.47054 7.08386 8.35358 6.89744 8.23792 6.68868C8.22091 6.65842 8.2039 6.62817 8.18637 6.59699C8.14487 6.52312 8.10366 6.44909 8.06251 6.37502C7.44191 6.37066 6.82131 6.36734 6.2007 6.3653C5.91248 6.36433 5.62428 6.363 5.33608 6.36087C5.05767 6.35883 4.77928 6.35771 4.50087 6.35723C4.39493 6.35688 4.28899 6.35621 4.18305 6.35519C4.03406 6.35382 3.88512 6.35365 3.73613 6.35373C3.69283 6.35306 3.64954 6.35238 3.60494 6.35169C3.0453 6.35518 2.5661 6.57429 2.20277 7.00124ZM1.82813 9.93752C1.82384 11.5128 1.82054 13.0881 1.81856 14.6634C1.81832 14.8494 1.81808 15.0355 1.81783 15.2215C1.81778 15.2586 1.81773 15.2956 1.81768 15.3338C1.81687 15.9332 1.81539 16.5327 1.81367 17.1321C1.81191 17.7473 1.81087 18.3626 1.81049 18.9778C1.81023 19.3573 1.80942 19.7369 1.8079 20.1164C1.80679 20.4076 1.80667 20.6988 1.80693 20.99C1.80687 21.1093 1.8065 21.2286 1.80578 21.348C1.80485 21.511 1.80507 21.674 1.80558 21.8371C1.80504 21.8842 1.80449 21.9313 1.80393 21.9798C1.80689 22.329 1.88834 22.6013 2.09089 22.8877C2.4646 23.2521 2.86588 23.3497 3.38017 23.3495C3.41279 23.3496 3.4454 23.3496 3.479 23.3497C3.58826 23.3498 3.69751 23.3496 3.80676 23.3494C3.88589 23.3494 3.96502 23.3495 4.04415 23.3495C4.26157 23.3496 4.47899 23.3494 4.69641 23.3492C4.93088 23.349 5.16535 23.3491 5.39982 23.3491C5.80604 23.3491 6.21227 23.349 6.61849 23.3487C7.20583 23.3483 7.79316 23.3482 8.3805 23.3482C9.33339 23.3481 10.2863 23.3477 11.2392 23.3473C12.1649 23.3469 13.0906 23.3465 14.0163 23.3463C14.1018 23.3463 14.1018 23.3463 14.1891 23.3463C14.4753 23.3462 14.7616 23.3462 15.0478 23.3461C17.4225 23.3456 19.7972 23.3448 22.1719 23.3438C22.1719 21.4566 22.1719 19.5694 22.1719 17.625C20.9344 17.617 20.9344 17.617 19.6968 17.6111C19.4556 17.6089 19.4556 17.6089 19.3421 17.6077C19.2641 17.607 19.186 17.6067 19.108 17.6067C18.6132 17.6062 18.1856 17.5756 17.7188 17.3906C17.6765 17.3739 17.6342 17.3572 17.5907 17.3399C17.0253 17.1021 16.5221 16.5632 16.2893 16.0033C15.9878 15.1984 15.9718 14.3926 16.3259 13.5994C16.6754 12.8994 17.2353 12.4659 17.9531 12.1875C18.2163 12.1117 18.4505 12.0796 18.7235 12.0788C18.7611 12.0784 18.7986 12.0779 18.8373 12.0774C18.9601 12.076 19.0828 12.0752 19.2056 12.0744C19.2912 12.0735 19.3769 12.0726 19.4625 12.0716C19.6869 12.0692 19.9113 12.0673 20.1357 12.0656C20.3651 12.0637 20.5945 12.0613 20.8239 12.059C21.2732 12.0545 21.7225 12.0505 22.1719 12.0469C22.1719 11.5828 22.1719 11.1188 22.1719 10.6406C22.026 10.6405 22.026 10.6405 21.8771 10.6404C19.5672 10.6388 17.2574 10.6361 14.9475 10.6323C14.6631 10.6318 14.3787 10.6314 14.0944 10.6309C14.0094 10.6308 14.0094 10.6308 13.9228 10.6306C13.0064 10.6292 12.0901 10.6284 11.1737 10.6278C10.2332 10.6273 9.29274 10.626 8.35227 10.624C7.77207 10.6228 7.19189 10.6222 6.61169 10.6223C6.21368 10.6223 5.81568 10.6216 5.41767 10.6204C5.18813 10.6197 4.95861 10.6193 4.72907 10.6197C4.51863 10.6201 4.30822 10.6197 4.09778 10.6185C4.02194 10.6182 3.94609 10.6183 3.87025 10.6187C3.15736 10.6221 2.56938 10.4687 1.98576 10.0505C1.95624 10.0293 1.92671 10.0082 1.89629 9.98641C1.8738 9.97028 1.85131 9.95414 1.82813 9.93752ZM17.1801 13.5363C16.7686 14.0542 16.6775 14.5869 16.7344 15.2344C16.8068 15.5649 16.9602 15.8516 17.1563 16.125C17.1901 16.1724 17.2239 16.2198 17.2588 16.2686C17.669 16.7361 18.2391 16.9264 18.8438 16.9688C19.1002 16.975 19.3565 16.9743 19.613 16.9733C19.6786 16.9733 19.7443 16.9732 19.81 16.9732C20.0514 16.973 20.2928 16.9723 20.5342 16.9717C21.3448 16.9702 21.3448 16.9702 22.1719 16.9688C22.1719 15.5766 22.1719 14.1844 22.1719 12.75C21.5638 12.7462 20.9557 12.7423 20.3291 12.7383C20.138 12.7366 19.9469 12.7349 19.7501 12.7331C19.5768 12.7325 19.5768 12.7325 19.4036 12.7321C19.3272 12.7318 19.2508 12.7312 19.1744 12.7302C18.3606 12.7205 17.7258 12.8877 17.1801 13.5363Z" fill="url(#paint0_linear_3386_27)"/>
<path d="M11.2031 1.40625C11.304 1.55756 11.3063 1.60706 11.2969 1.78125C11.3742 1.78125 11.4516 1.78125 11.5312 1.78125C11.5361 1.73774 11.5409 1.69424 11.5459 1.64941C11.579 1.49583 11.5913 1.44584 11.7187 1.35938C11.8301 1.31836 11.8301 1.31836 11.9531 1.3125C12.0601 1.36601 12.1495 1.41516 12.2344 1.5C12.2363 1.59373 12.2364 1.68752 12.2344 1.78125C12.2808 1.78512 12.3272 1.78898 12.375 1.79297C12.7514 1.85052 12.9796 2.03692 13.2299 2.31519C13.4327 2.61559 13.4759 2.90075 13.4707 3.25781C13.4712 3.29546 13.4718 3.3331 13.4723 3.37189C13.4705 3.75654 13.3498 4.04931 13.125 4.35938C13.1431 4.37817 13.1612 4.39696 13.1799 4.41632C13.5677 4.83967 13.6363 5.22391 13.6146 5.78668C13.5858 6.18013 13.4067 6.4648 13.1193 6.72803C12.8435 6.94361 12.5812 7.01519 12.2344 7.03125C12.2373 7.07476 12.2402 7.11826 12.2432 7.16309C12.2344 7.3125 12.2344 7.3125 12.1875 7.40039C12.0362 7.48548 11.8847 7.48919 11.7187 7.45312C11.6016 7.34766 11.6016 7.34766 11.5312 7.21875C11.5312 7.15687 11.5312 7.095 11.5312 7.03125C11.4539 7.03125 11.3766 7.03125 11.2969 7.03125C11.292 7.08346 11.2872 7.13566 11.2822 7.18945C11.2716 7.24553 11.2609 7.3016 11.25 7.35938C11.073 7.47738 10.9423 7.48778 10.7344 7.45312C10.6406 7.37695 10.6406 7.37695 10.5937 7.26562C10.585 7.11328 10.585 7.11328 10.5937 6.98438C10.5473 6.96891 10.5009 6.95344 10.4531 6.9375C10.3816 6.79454 10.3952 6.67302 10.4062 6.51562C10.4408 6.48726 10.4408 6.48726 10.4761 6.45832C10.5902 6.32398 10.5664 6.16805 10.5651 5.99982C10.5653 5.96162 10.5656 5.92342 10.5658 5.88406C10.5664 5.75766 10.566 5.63129 10.5655 5.50488C10.5656 5.41714 10.5658 5.3294 10.5659 5.24166C10.5662 5.05771 10.5659 4.87378 10.5652 4.68983C10.5644 4.45386 10.5649 4.2179 10.5657 3.98192C10.5662 3.80072 10.566 3.61953 10.5657 3.43833C10.5656 3.35131 10.5657 3.2643 10.566 3.17728C10.5664 3.05573 10.5658 2.93423 10.5651 2.81268C10.5655 2.75855 10.5655 2.75855 10.5659 2.70331C10.5674 2.5134 10.5674 2.5134 10.4763 2.35399C10.4532 2.33514 10.4301 2.31629 10.4062 2.29688C10.388 2.09217 10.3845 2.00132 10.5 1.82812C10.5309 1.82812 10.5619 1.82812 10.5937 1.82812C10.5908 1.78559 10.5879 1.74305 10.585 1.69922C10.5946 1.53159 10.6174 1.47631 10.7344 1.35938C10.9216 1.29695 11.0202 1.33975 11.2031 1.40625ZM11.2969 2.48438C11.2969 3.01031 11.2969 3.53625 11.2969 4.07812C11.9959 4.13018 11.9959 4.13018 12.583 3.84668C12.749 3.64829 12.7583 3.51551 12.7617 3.26367C12.7629 3.2111 12.7641 3.15853 12.7654 3.10437C12.7423 2.87772 12.658 2.76142 12.4892 2.61328C12.3293 2.49846 12.2511 2.47863 12.0568 2.4798C12.017 2.47991 11.9773 2.48003 11.9363 2.48015C11.8858 2.48058 11.8353 2.48101 11.7832 2.48145C11.5425 2.4829 11.5425 2.4829 11.2969 2.48438ZM11.2969 4.73438C11.2969 5.26031 11.2969 5.78625 11.2969 6.32812C11.467 6.33296 11.6372 6.33779 11.8125 6.34277C11.8654 6.34491 11.9182 6.34704 11.9727 6.34924C12.2913 6.35359 12.5097 6.31124 12.75 6.09375C12.9284 5.87582 12.914 5.66685 12.9069 5.39539C12.8856 5.20503 12.8367 5.10589 12.7031 4.96875C12.3886 4.72118 12.1107 4.72776 11.7275 4.73145C11.5854 4.73241 11.4433 4.73338 11.2969 4.73438Z" fill="url(#paint1_linear_3386_27)"/>
<path d="M20.2865 13.739C20.5967 13.9718 20.7476 14.3 20.8125 14.6719C20.8495 15.0711 20.73 15.4472 20.4789 15.7583C20.1427 16.084 19.789 16.1891 19.3327 16.1851C18.9747 16.1557 18.6704 16.0101 18.4219 15.75C18.1719 15.3927 18.0631 15.0529 18.1231 14.6192C18.201 14.2287 18.3701 13.9504 18.7011 13.7164C19.207 13.3879 19.7756 13.4235 20.2865 13.739ZM19.0313 14.3438C18.9 14.507 18.8075 14.6476 18.7969 14.8594C18.8529 15.1036 18.9581 15.285 19.1602 15.4365C19.4012 15.5102 19.5775 15.5021 19.7959 15.3867C19.9695 15.2414 20.0452 15.1595 20.1035 14.9385C20.1106 14.73 20.0712 14.6184 19.9688 14.4375C19.8106 14.2909 19.7045 14.2081 19.4883 14.1914C19.2936 14.2044 19.1931 14.2359 19.0313 14.3438Z" fill="url(#paint2_linear_3386_27)"/>
<path d="M4.08467 21.4612C4.11913 21.461 4.15359 21.4607 4.18909 21.4605C4.30334 21.4598 4.41759 21.4595 4.53184 21.4592C4.61112 21.459 4.69041 21.4587 4.7697 21.4584C4.93607 21.4579 5.10244 21.4577 5.26881 21.4575C5.48203 21.4572 5.69524 21.4561 5.90846 21.4548C6.07228 21.4539 6.23611 21.4537 6.39994 21.4536C6.47854 21.4535 6.55715 21.4531 6.63576 21.4525C6.74573 21.4517 6.85567 21.4517 6.96565 21.4521C6.99814 21.4516 7.03063 21.4512 7.06411 21.4507C7.2045 21.452 7.30067 21.4623 7.42479 21.5302C7.54701 21.6589 7.54984 21.7639 7.54685 21.9375C7.42368 22.1001 7.35314 22.1646 7.15031 22.201C7.08749 22.2021 7.02463 22.2019 6.96182 22.2007C6.92734 22.201 6.89286 22.2012 6.85733 22.2015C6.74382 22.2021 6.63039 22.2009 6.51688 22.1997C6.43779 22.1996 6.35871 22.1996 6.27962 22.1997C6.11408 22.1996 5.94856 22.1988 5.78303 22.1973C5.57091 22.1954 5.35883 22.1952 5.14671 22.1956C4.98348 22.1957 4.82026 22.1952 4.65704 22.1944C4.57882 22.194 4.50061 22.1939 4.4224 22.1939C4.3131 22.1938 4.20385 22.1928 4.09457 22.1916C4.0623 22.1917 4.03003 22.1918 3.99678 22.192C3.80842 22.1886 3.6967 22.1671 3.56248 22.0313C3.4968 21.8693 3.51096 21.8084 3.57712 21.6445C3.70909 21.4295 3.85315 21.4616 4.08467 21.4612Z" fill="url(#paint3_linear_3386_27)"/>
</g>
<defs>
<linearGradient id="paint0_linear_3386_27" x1="0.839514" y1="-0.0430869" x2="27.8651" y2="10.5256" gradientUnits="userSpaceOnUse">
<stop offset="0.11" stop-color="#60D7AD"/>
<stop offset="0.76" stop-color="#213C3A"/>
</linearGradient>
<linearGradient id="paint1_linear_3386_27" x1="10.358" y1="1.3125" x2="14.7405" y2="2.30197" gradientUnits="userSpaceOnUse">
<stop offset="0.11" stop-color="#60D7AD"/>
<stop offset="0.76" stop-color="#213C3A"/>
</linearGradient>
<linearGradient id="paint2_linear_3386_27" x1="18.0744" y1="13.4857" x2="21.3377" y2="14.9016" gradientUnits="userSpaceOnUse">
<stop offset="0.11" stop-color="#60D7AD"/>
<stop offset="0.76" stop-color="#213C3A"/>
</linearGradient>
<linearGradient id="paint3_linear_3386_27" x1="3.47153" y1="21.4507" x2="4.37631" y2="23.5463" gradientUnits="userSpaceOnUse">
<stop offset="0.11" stop-color="#60D7AD"/>
<stop offset="0.76" stop-color="#213C3A"/>
</linearGradient>
<clipPath id="clip0_3386_27">
<rect width="24" height="24" fill="white"/>
</clipPath>
</defs>
</svg>
