<svg width="24" height="24" viewBox="0 0 24 24" fill="none" xmlns="http://www.w3.org/2000/svg">
<path d="M11.3036 0.693556C10.6497 0.999167 10.3277 1.49833 10.2674 2.35405L10.207 3.07732L7.73206 4.52389L5.25711 5.97045L4.96535 5.73615C3.48642 4.53407 1.33342 6.30662 2.19864 8.01805C2.43004 8.48665 2.66144 8.70058 3.14435 8.90432L3.5166 9.05713V12.0114V14.9656L3.14435 15.1184C2.66144 15.3222 2.43004 15.5361 2.19864 16.0047C1.595 17.2068 2.48034 18.6533 3.81842 18.6533C4.2611 18.6533 4.78426 18.4598 5.12632 18.1745C5.25711 18.0625 5.67966 18.2866 7.74212 19.4887L10.207 20.9352L10.2573 21.5974C10.3378 22.6467 10.871 23.319 11.7564 23.4718C12.9335 23.6756 13.9395 22.7485 13.8591 21.5363L13.8289 20.9964L16.3541 19.5294L18.8794 18.0523L19.1611 18.2866C19.6842 18.7043 20.5796 18.7858 21.1732 18.4598C21.475 18.2866 21.8976 17.7976 22.0183 17.4818C22.1894 17.0438 22.1491 16.4224 21.9378 16.0047C21.7064 15.5361 21.475 15.3222 20.9921 15.1184L20.6199 14.9656V12.0114V9.05713L20.9921 8.90432C21.7769 8.56815 22.1793 7.90599 22.1089 7.06047C21.9881 5.65465 20.4488 4.87025 19.3019 5.63428C19.0806 5.78708 18.819 5.88895 18.7385 5.85839C18.658 5.81764 17.7224 5.28792 16.6559 4.66651C15.5996 4.0451 14.5432 3.42369 14.3218 3.29125C13.8993 3.05695 13.8993 3.04677 13.8591 2.35405C13.8289 1.77338 13.7786 1.57983 13.5371 1.26403C13.2051 0.825987 12.5813 0.5 12.0682 0.5C11.8771 0.5 11.525 0.591685 11.3036 0.693556ZM12.6518 1.35571C13.1246 1.6002 13.356 2.25217 13.1447 2.76153C12.9133 3.30144 12.6216 3.50518 12.0682 3.50518C11.5149 3.50518 11.2231 3.30144 10.9917 2.76153C10.5792 1.77338 11.6759 0.846362 12.6518 1.35571ZM10.9515 3.85154C11.3942 4.16734 12.0079 4.28959 12.4908 4.15715C12.7322 4.09603 13.0441 3.95341 13.185 3.85154C13.3359 3.74967 13.4868 3.65799 13.5371 3.65799C13.5774 3.65799 14.7142 4.29977 16.0624 5.09436L18.5071 6.53074V7.08084C18.5071 8.00786 18.8592 8.56815 19.644 8.90432L20.0162 9.05713V12.0012V14.9452L19.6842 15.0573C19.3422 15.1796 18.819 15.6583 18.6178 16.0556C18.5574 16.1779 18.5071 16.5446 18.5071 16.8808V17.4818L16.0422 18.9182C14.6941 19.7128 13.5572 20.3648 13.527 20.3648C13.4969 20.3648 13.2856 20.2425 13.0542 20.0897C12.4707 19.6924 11.6658 19.6924 11.0823 20.0897C10.8509 20.2425 10.6396 20.3648 10.6094 20.3648C10.5893 20.3648 9.45244 19.7128 8.09424 18.9284L5.62936 17.4818V16.9317C5.62936 16.0455 5.23699 15.4139 4.47237 15.0573L4.17055 14.9147L4.14037 11.991L4.12025 9.05713L4.49249 8.90432C5.27723 8.56815 5.60924 8.1761 5.67966 7.20833V6.48999L8.09424 5.07399C9.42226 4.29977 10.5491 3.65799 10.5893 3.65799C10.6396 3.65799 10.8006 3.74967 10.9515 3.85154ZM4.63334 6.36775C5.6696 7.37626 4.23091 9.02657 3.12423 8.08936C2.57089 7.61057 2.52059 6.90766 2.99344 6.36775C3.40593 5.90933 4.16049 5.90933 4.63334 6.36775ZM21.0827 6.31681C22.0686 7.25402 20.9418 8.83301 19.7245 8.19123C19.4428 8.04861 19.1108 7.49851 19.1108 7.17252C19.1108 6.90766 19.3824 6.44924 19.6842 6.20475C20.0464 5.91951 20.7205 5.97045 21.0827 6.31681ZM4.53274 15.8926C4.91505 16.1677 5.1062 16.7789 4.93517 17.1864C4.62328 17.9504 3.83855 18.2255 3.21478 17.7976C2.57089 17.3596 2.4904 16.5344 3.03369 15.9843C3.40593 15.5972 4.08 15.5565 4.53274 15.8926ZM21.1028 15.9843C21.6461 16.5344 21.5656 17.3596 20.9217 17.7976C20.0364 18.3987 18.8894 17.5328 19.2013 16.4937C19.3623 15.9436 19.7245 15.6787 20.3281 15.6787C20.7205 15.6787 20.8613 15.7297 21.1028 15.9843ZM12.7222 20.6907C13.356 21.1899 13.3862 21.9845 12.8027 22.504C12.3198 22.9421 11.7865 22.9319 11.2936 22.4735C10.9817 22.1781 10.9314 22.066 10.9213 21.6483C10.9113 21.2103 10.9515 21.1288 11.2835 20.813C11.7463 20.3851 12.2896 20.3444 12.7222 20.6907Z" fill="url(#paint0_linear_3387_85)"/>
<path d="M10.1412 10.3229L9.90347 10.5301L8.22358 12L9.90347 13.4699L10.1412 13.6771L9.66669 14.0923L9.42992 13.8843L7.51325 12.2072C7.38226 12.0926 7.38226 11.9074 7.51325 11.7928L9.42992 10.1157L9.66669 9.90775L10.1412 10.3229Z" fill="url(#paint1_linear_3387_85)"/>
<path d="M14.6951 10.1157L16.6118 11.7928C16.7427 11.9074 16.7427 12.0926 16.6118 12.2072L14.6951 13.8843L14.4583 14.0923L13.9838 13.6771L14.2215 13.4699L15.9014 12L14.2215 10.5301L13.9838 10.3229L14.4583 9.90775L14.6951 10.1157Z" fill="url(#paint2_linear_3387_85)"/>
<path d="M13.4279 8.4321L11.3484 15.7104L10.6971 15.5679L12.7766 8.28961L13.4279 8.4321Z" fill="url(#paint3_linear_3387_85)"/>
<defs>
<linearGradient id="paint0_linear_3387_85" x1="1.75892" y1="23.5" x2="26.9364" y2="13.9859" gradientUnits="userSpaceOnUse">
<stop offset="0.11" stop-color="#60D7AD"/>
<stop offset="0.76" stop-color="#213C3A"/>
</linearGradient>
<linearGradient id="paint1_linear_3387_85" x1="7.38235" y1="9.90775" x2="10.9941" y2="10.9239" gradientUnits="userSpaceOnUse">
<stop offset="0.11" stop-color="#60D7AD"/>
<stop offset="0.76" stop-color="#213C3A"/>
</linearGradient>
<linearGradient id="paint2_linear_3387_85" x1="13.9512" y1="9.90775" x2="17.5629" y2="10.9239" gradientUnits="userSpaceOnUse">
<stop offset="0.11" stop-color="#60D7AD"/>
<stop offset="0.76" stop-color="#213C3A"/>
</linearGradient>
<linearGradient id="paint3_linear_3387_85" x1="10.6643" y1="8.28961" x2="14.4725" y2="8.89483" gradientUnits="userSpaceOnUse">
<stop offset="0.11" stop-color="#60D7AD"/>
<stop offset="0.76" stop-color="#213C3A"/>
</linearGradient>
</defs>
</svg>
