<svg width="26" height="24" viewBox="0 0 26 24" fill="none" xmlns="http://www.w3.org/2000/svg">
<path opacity="0.882" fill-rule="evenodd" clip-rule="evenodd" d="M4.15794 11.9648C4.71202 11.6369 5.23696 11.6695 5.73296 12.0628C6.19367 12.9739 6.56339 13.9226 6.84218 14.9088C6.73733 15.219 6.53751 15.3188 6.24268 15.2081C6.0145 14.7961 5.83065 14.363 5.69107 13.9089C5.44558 13.9974 5.20002 14.0859 4.95454 14.1744C5.10866 14.5636 5.23797 14.9609 5.34256 15.3662C5.27217 15.7804 5.06005 15.8846 4.70623 15.6788C4.32962 14.7881 4.00212 13.8797 3.72376 12.9536C3.75267 12.567 3.89743 12.2374 4.15794 11.9648ZM4.57078 12.6483C4.51807 12.9174 4.55744 13.1806 4.689 13.4379C4.93449 13.3494 5.18005 13.2609 5.42554 13.1724C5.35016 12.6133 5.06522 12.4386 4.57078 12.6483Z" fill="url(#paint0_linear_1984_1227)"/>
<path opacity="0.877" fill-rule="evenodd" clip-rule="evenodd" d="M6.06182 11.2853C6.54905 11.0959 7.04451 10.9311 7.54817 10.7911C7.95857 11.1157 7.91988 11.3932 7.43216 11.6236C7.70653 12.3846 7.98093 13.1458 8.25531 13.9068C8.64264 13.7115 8.86422 13.8259 8.91993 14.2498C8.91409 14.3491 8.87485 14.4325 8.80218 14.5003C8.37797 14.7088 7.93604 14.8681 7.47641 14.9783C7.229 14.916 7.10126 14.754 7.09313 14.4923C7.17898 14.3174 7.32088 14.2108 7.51877 14.1724C7.2444 13.4113 6.97 12.6502 6.69562 11.8891C6.15789 12.0163 5.94661 11.8151 6.06182 11.2853Z" fill="url(#paint1_linear_1984_1227)"/>
<path opacity="0.946" fill-rule="evenodd" clip-rule="evenodd" d="M15.7785 0.00684578C16.4877 -0.049991 16.973 0.247086 17.2342 0.898077C19.0446 5.9529 20.8666 11.0032 22.7004 16.049C22.8374 16.9808 22.4413 17.4958 21.5121 17.5938C18.3013 17.1153 15.0929 16.6202 11.8868 16.1084C11.5108 16.2003 11.1642 16.3489 10.847 16.554C11.3246 17.5549 11.2256 18.4858 10.55 19.3466C10.9875 20.2513 11.4331 21.1525 11.8868 22.05C12.021 22.5237 11.8725 22.8703 11.4412 23.0897C10.6139 23.3985 9.78209 23.6956 8.94576 23.981C8.59378 24.0477 8.30657 23.9388 8.08423 23.6542C7.25212 21.9107 6.3906 20.1876 5.49966 18.485C4.25485 18.9488 3.2349 18.6518 2.43977 17.5938C1.81056 16.0033 1.21641 14.3991 0.657307 12.7812C0.396165 11.6631 0.722949 10.7619 1.63766 10.0778C3.97467 9.18653 6.31169 8.29529 8.64868 7.40406C10.7996 5.11461 12.9287 2.80733 15.0358 0.482169C15.254 0.269622 15.5015 0.111185 15.7785 0.00684578ZM15.9568 1.3734C16.031 1.378 16.0805 1.41761 16.1053 1.49223C17.8746 6.44367 19.667 11.3851 21.4824 16.3164C18.3968 15.8543 15.3072 15.3889 12.2136 14.9201C11.4198 12.6478 10.6078 10.3801 9.77757 8.11705C11.8269 5.85974 13.8866 3.61188 15.9568 1.3734ZM8.47043 8.80033C8.54963 8.80033 8.62889 8.80033 8.7081 8.80033C9.44283 10.8954 10.1954 12.9849 10.9659 15.0687C8.82217 15.9119 6.66343 16.714 4.4896 17.475C4.02222 17.4446 3.67562 17.2267 3.44983 16.8214C2.91509 15.336 2.38035 13.8506 1.84562 12.3653C1.74557 11.7234 1.99313 11.2778 2.58831 11.0284C4.57106 10.3249 6.53177 9.58217 8.47043 8.80033ZM9.53991 16.9997C9.59909 16.9945 9.64858 17.0144 9.68845 17.0591C9.86878 17.375 9.92819 17.7117 9.8667 18.0691C9.59844 18.456 9.33107 18.8422 9.06459 19.2277C9.52423 20.1866 9.99955 21.1373 10.4906 22.0797C10.0044 22.2681 9.51912 22.4562 9.03488 22.6441C8.27329 21.1209 7.51082 19.596 6.74739 18.0691C7.68354 17.7111 8.6144 17.3546 9.53991 16.9997Z" fill="url(#paint2_linear_1984_1227)"/>
<path opacity="0.898" fill-rule="evenodd" clip-rule="evenodd" d="M21.0076 1.13574C21.3487 1.38735 21.6656 1.67452 21.9582 1.99727C21.3262 2.68871 20.6727 3.3621 19.9975 4.01739C19.9381 4.05702 19.8787 4.05702 19.8193 4.01739C19.551 3.75905 19.2935 3.49168 19.0469 3.21528C19.7235 2.53883 20.3771 1.84566 21.0076 1.13574Z" fill="url(#paint3_linear_1984_1227)"/>
<path opacity="0.92" fill-rule="evenodd" clip-rule="evenodd" d="M24.215 6.00781C24.2942 6.00781 24.3735 6.00781 24.4527 6.00781C24.5715 6.40394 24.6903 6.8 24.8092 7.19612C23.8935 7.47163 22.9923 7.78855 22.1058 8.14677C21.9686 7.75492 21.82 7.36872 21.6602 6.98817C22.5153 6.65918 23.3669 6.3324 24.215 6.00781Z" fill="url(#paint4_linear_1984_1227)"/>
<path opacity="0.932" fill-rule="evenodd" clip-rule="evenodd" d="M22.5524 11.4746C23.503 11.5598 24.4537 11.6489 25.4044 11.742C25.4376 11.7851 25.4574 11.8345 25.4638 11.8905C25.4135 12.2459 25.3739 12.6024 25.3449 12.96C24.3719 12.9023 23.4015 12.8132 22.4336 12.6926C22.5033 12.2923 22.5429 11.8864 22.5524 11.4746Z" fill="url(#paint5_linear_1984_1227)"/>
<defs>
<linearGradient id="paint0_linear_1984_1227" x1="3.38368" y1="12.2088" x2="6.62189" y2="11.9056" gradientUnits="userSpaceOnUse">
<stop offset="0.11" stop-color="#60D7AD"/>
<stop offset="0.76" stop-color="#213C3A"/>
</linearGradient>
<linearGradient id="paint1_linear_1984_1227" x1="5.89703" y1="11.3396" x2="8.47365" y2="10.9557" gradientUnits="userSpaceOnUse">
<stop offset="0.11" stop-color="#60D7AD"/>
<stop offset="0.76" stop-color="#213C3A"/>
</linearGradient>
<linearGradient id="paint2_linear_1984_1227" x1="0.304896" y1="-9.36907e-07" x2="27.6374" y2="10.8972" gradientUnits="userSpaceOnUse">
<stop offset="0.11" stop-color="#60D7AD"/>
<stop offset="0.76" stop-color="#213C3A"/>
</linearGradient>
<linearGradient id="paint3_linear_1984_1227" x1="19.012" y1="1.13574" x2="22.5201" y2="2.65075" gradientUnits="userSpaceOnUse">
<stop offset="0.11" stop-color="#60D7AD"/>
<stop offset="0.76" stop-color="#213C3A"/>
</linearGradient>
<linearGradient id="paint4_linear_1984_1227" x1="21.6224" y1="6.00781" x2="24.8285" y2="8.04625" gradientUnits="userSpaceOnUse">
<stop offset="0.11" stop-color="#60D7AD"/>
<stop offset="0.76" stop-color="#213C3A"/>
</linearGradient>
<linearGradient id="paint5_linear_1984_1227" x1="22.3973" y1="11.4746" x2="24.8364" y2="13.6235" gradientUnits="userSpaceOnUse">
<stop offset="0.11" stop-color="#60D7AD"/>
<stop offset="0.76" stop-color="#213C3A"/>
</linearGradient>
</defs>
</svg>
