<svg width="24" height="24" viewBox="0 0 24 24" fill="none" xmlns="http://www.w3.org/2000/svg">
<path opacity="0.929" fill-rule="evenodd" clip-rule="evenodd" d="M17.9052 0C18.3896 0 18.874 0 19.3584 0C21.5748 0.39577 23.0514 1.6614 23.788 3.79688C23.8684 4.11368 23.9387 4.42618 23.999 4.73438C23.999 5.12498 23.999 5.51564 23.999 5.90625C23.6272 8.26505 22.2991 9.80409 20.0146 10.5234C19.2714 10.6891 18.5214 10.7282 17.7646 10.6406C17.7724 12.3126 17.7646 13.9845 17.7412 15.6562C17.5699 16.3588 17.1402 16.8197 16.4521 17.0391C15.9814 17.0833 15.5127 17.1302 15.0459 17.1797C14.3896 17.7266 13.7334 18.2734 13.0771 18.8203C12.7628 19.0202 12.5362 18.9499 12.3974 18.6094C12.374 18.1096 12.3661 17.6096 12.374 17.1094C11.4988 17.1015 10.6238 17.1094 9.74898 17.1328C10.5242 18.9456 10.3054 20.6253 9.09273 22.1719C8.86998 22.3655 8.65904 22.3498 8.45991 22.125C8.42865 22 8.42865 21.875 8.45991 21.75C9.61187 20.3156 9.76032 18.7844 8.90523 17.1562C8.05651 17.2256 7.37682 16.9287 6.86616 16.2656C6.71424 15.9861 6.61266 15.6892 6.56147 15.375C4.69342 14.9843 3.23248 15.5781 2.17866 17.1562C1.3959 18.6432 1.47402 20.0807 2.41304 21.4688C3.51488 22.8048 4.9133 23.2814 6.60835 22.8984C6.91735 22.7903 7.22204 22.6731 7.52241 22.5469C7.75932 22.5885 7.89212 22.7291 7.92085 22.9688C7.89582 23.0678 7.84894 23.1538 7.78023 23.2266C5.92491 24.1084 4.17492 23.9366 2.53023 22.7109C0.972948 21.2397 0.527636 19.4819 1.19429 17.4375C1.93095 15.7676 3.20438 14.7911 5.0146 14.5078C5.54888 14.4703 6.08012 14.4937 6.60835 14.5781C6.60052 12.9218 6.60835 11.2656 6.63179 9.60938C6.84272 8.89842 7.30365 8.4375 8.0146 8.22656C10.0304 8.21873 12.046 8.1953 14.0615 8.15625C12.9183 6.0615 13.0199 4.03026 14.3662 2.0625C14.7059 1.62894 15.1043 1.26175 15.5615 0.960938C15.9762 0.953812 16.1247 1.14913 16.0068 1.54688C14.1668 2.99956 13.6199 4.84331 14.3662 7.07812C15.3303 9.08803 16.9319 10.0334 19.1709 9.91406C21.4593 9.50058 22.8109 8.14903 23.2255 5.85938C23.3457 3.85727 22.5566 2.33384 20.8584 1.28906C20.168 0.926105 19.4336 0.730791 18.6552 0.703125C18.1546 0.763186 17.6546 0.81787 17.1552 0.867188C16.8893 0.606127 16.9049 0.371753 17.2021 0.164062C17.4433 0.111336 17.6777 0.0566486 17.9052 0ZM8.15523 8.95312C10.3429 8.93752 12.5304 8.95312 14.7177 9C15.3378 9.67364 16.0878 10.1502 16.9677 10.4297C17.0222 12.1216 17.03 13.817 16.9912 15.5156C16.8752 15.9441 16.6018 16.2175 16.1709 16.3359C15.7334 16.3515 15.2958 16.3672 14.8584 16.3828C14.2745 16.826 13.7041 17.2869 13.1474 17.7656C13.1318 17.3594 13.1161 16.9531 13.1005 16.5469C13.0436 16.4743 12.9733 16.4196 12.8896 16.3828C11.3271 16.3672 9.76458 16.3515 8.2021 16.3359C7.79133 16.222 7.51791 15.9642 7.38179 15.5625C7.35052 13.625 7.35052 11.6875 7.38179 9.75C7.5233 9.36637 7.78112 9.10073 8.15523 8.95312Z" fill="url(#paint0_linear_1984_1209)"/>
<path opacity="0.927" fill-rule="evenodd" clip-rule="evenodd" d="M0 6.1875C0 5.85938 0 5.53125 0 5.20312C0.429597 3.14895 1.69522 2.03958 3.79688 1.875C5.67487 1.99572 6.90145 2.94884 7.47656 4.73438C7.85475 6.861 7.0657 8.36883 5.10938 9.25781C3.15748 9.81577 1.61842 9.26105 0.492188 7.59375C0.247079 7.14722 0.0830166 6.67847 0 6.1875ZM3.5625 2.625C4.85695 2.61953 5.8335 3.16641 6.49219 4.26562C7.20281 6.02428 6.7575 7.40709 5.15625 8.41406C3.57868 9.04519 2.274 8.69362 1.24219 7.35938C0.423798 5.87353 0.619111 4.5376 1.82812 3.35156C2.34408 2.95273 2.92221 2.71054 3.5625 2.625Z" fill="url(#paint1_linear_1984_1209)"/>
<path opacity="0.925" fill-rule="evenodd" clip-rule="evenodd" d="M8.95398 11.2969C10.126 11.2891 11.2978 11.2969 12.4696 11.3203C12.69 11.4751 12.7368 11.6705 12.6102 11.9063C12.5556 11.9571 12.4931 11.9961 12.4227 12.0234C11.2821 12.0547 10.1415 12.0547 9.00086 12.0234C8.78668 11.9043 8.71637 11.7246 8.78992 11.4844C8.83829 11.4128 8.893 11.3503 8.95398 11.2969Z" fill="url(#paint2_linear_1984_1209)"/>
<path opacity="0.901" fill-rule="evenodd" clip-rule="evenodd" d="M14.1571 11.2969C14.5793 11.2891 15.0011 11.2969 15.4227 11.3203C15.5967 11.4423 15.6514 11.6063 15.5868 11.8125C15.5477 11.9141 15.4774 11.9844 15.3759 12.0234C14.9852 12.0547 14.5946 12.0547 14.204 12.0234C13.9898 11.9043 13.9195 11.7246 13.993 11.4844C14.0575 11.4279 14.1122 11.3654 14.1571 11.2969Z" fill="url(#paint3_linear_1984_1209)"/>
<path opacity="0.91" fill-rule="evenodd" clip-rule="evenodd" d="M8.95374 13.5C9.37589 13.4922 9.79777 13.5 10.2194 13.5234C10.4964 13.8255 10.4496 14.0599 10.0787 14.2265C9.68513 14.2673 9.29452 14.2517 8.90686 14.1797C8.70928 13.9322 8.72489 13.7056 8.95374 13.5Z" fill="url(#paint4_linear_1984_1209)"/>
<path opacity="0.925" fill-rule="evenodd" clip-rule="evenodd" d="M11.8606 13.5C13.0482 13.4922 14.2357 13.5 15.4231 13.5234C15.5574 13.5887 15.6199 13.6981 15.6106 13.8516C15.6166 14.0799 15.5072 14.2049 15.2824 14.2266C14.1887 14.2578 13.0949 14.2578 12.0012 14.2266C11.6367 14.047 11.5899 13.8049 11.8606 13.5Z" fill="url(#paint5_linear_1984_1209)"/>
<path opacity="0.927" fill-rule="evenodd" clip-rule="evenodd" d="M19.2649 24C18.9055 24 18.5462 24 18.1868 24C16.4731 23.5129 15.684 22.3723 15.8196 20.5781C16.1884 19.0533 17.1571 18.2407 18.7258 18.1406C20.331 18.2555 21.2997 19.0992 21.6321 20.6719C21.7167 22.4107 20.9276 23.52 19.2649 24ZM18.468 18.8906C19.9352 18.9048 20.7477 19.6392 20.9055 21.0938C20.8407 22.1213 20.3251 22.8167 19.3587 23.1797C18.4851 23.4045 17.7273 23.1936 17.0852 22.5469C16.3865 21.6054 16.3708 20.6523 17.0383 19.6875C17.4265 19.2553 17.903 18.9897 18.468 18.8906Z" fill="url(#paint6_linear_1984_1209)"/>
<path opacity="0.926" fill-rule="evenodd" clip-rule="evenodd" d="M18.5633 19.6405C18.6738 19.6329 18.7831 19.6407 18.8914 19.664C18.9773 19.6874 19.032 19.7421 19.0555 19.828C19.0789 20.1245 19.0867 20.4214 19.0789 20.7187C19.3762 20.7109 19.673 20.7187 19.9695 20.7421C20.1109 20.8138 20.1734 20.931 20.157 21.0937C20.1647 21.266 20.0866 21.3832 19.9226 21.4452C19.6418 21.4686 19.3606 21.4764 19.0789 21.4687C19.0867 21.7659 19.0789 22.0628 19.0555 22.3593C18.7807 22.6262 18.5463 22.5949 18.3523 22.2655C18.3289 22.0004 18.3211 21.7347 18.3289 21.4687C18.0122 21.4863 17.6996 21.4629 17.3914 21.3983C17.1862 21.1408 17.2174 20.922 17.4851 20.7421C17.766 20.7187 18.0472 20.7109 18.3289 20.7187C18.3211 20.4526 18.3289 20.187 18.3523 19.9218C18.3804 19.7927 18.4507 19.6989 18.5633 19.6405Z" fill="url(#paint7_linear_1984_1209)"/>
<path opacity="0.925" fill-rule="evenodd" clip-rule="evenodd" d="M2.95291 3.86719C3.25825 3.8726 3.53168 3.96635 3.77322 4.14844C4.44753 3.74707 5.05689 3.84082 5.60134 4.42969C5.84673 4.92966 5.878 5.44528 5.69509 5.97656C5.21941 6.76388 4.53972 7.25606 3.65603 7.45312C3.02573 7.17361 2.48666 6.77517 2.03884 6.25781C1.68277 5.67909 1.65152 5.08533 1.94509 4.47656C2.1931 4.12233 2.52903 3.9192 2.95291 3.86719ZM2.99978 4.61719C2.87112 4.6485 2.75393 4.71098 2.64822 4.80469C2.4344 5.13192 2.4344 5.46005 2.64822 5.78906C2.98077 6.14723 3.36359 6.44409 3.79666 6.67969C4.21056 6.4613 4.57774 6.18005 4.89822 5.83594C5.05295 5.57447 5.09983 5.29322 5.03884 4.99219C4.66726 4.49788 4.31569 4.52133 3.98416 5.0625C3.82177 5.1008 3.66552 5.08514 3.51541 5.01562C3.41218 4.79231 3.24031 4.65952 2.99978 4.61719Z" fill="url(#paint8_linear_1984_1209)"/>
<path opacity="0.94" fill-rule="evenodd" clip-rule="evenodd" d="M19.0793 1.89844C19.5011 1.95253 19.7745 2.1869 19.8996 2.60156C20.0583 3.10434 20.0504 3.60435 19.8762 4.10156C20.3285 4.14057 20.7816 4.164 21.2356 4.17188C21.4778 4.25781 21.6418 4.42187 21.7278 4.66406C21.759 5.6797 21.759 6.6953 21.7278 7.71094C21.622 7.95736 21.4423 8.12142 21.1887 8.20312C20.1887 8.23439 19.1887 8.23439 18.1887 8.20312C17.971 8.17486 17.7679 8.10455 17.5793 7.99219C17.5415 8.00663 17.5102 8.03006 17.4856 8.0625C17.1887 8.07033 16.8918 8.07811 16.595 8.08594C16.2621 8.09208 15.934 8.06864 15.6106 8.01562C15.5812 7.98047 15.5578 7.94137 15.5403 7.89844C15.5324 7.32033 15.5247 6.74217 15.5168 6.16406C15.5098 5.55042 15.5333 4.94105 15.5871 4.33594C15.6295 4.27962 15.6841 4.24056 15.7512 4.21875C16.3486 4.18944 16.9424 4.18944 17.5325 4.21875C17.7747 3.94531 18.0168 3.67187 18.259 3.39844C18.4404 3.07902 18.5342 2.73527 18.5403 2.36719C18.6439 2.11464 18.8235 1.95839 19.0793 1.89844ZM19.1731 3.11719C19.1314 3.3907 19.0298 3.6407 18.8684 3.86719C18.4952 4.31865 18.1045 4.75615 17.6965 5.17969C17.6652 5.83594 17.6652 6.49219 17.6965 7.14844C17.8616 7.30519 18.0569 7.40677 18.2825 7.45312C19.1885 7.47656 20.0948 7.48439 21.0012 7.47656C21.0012 6.6172 21.0012 5.7578 21.0012 4.89844C20.356 4.92019 19.7153 4.89675 19.0793 4.82812C18.9659 4.74911 18.9191 4.63973 18.9387 4.5C19.0491 4.15292 19.1507 3.80136 19.2434 3.44531C19.2512 3.39062 19.259 3.33594 19.2668 3.28125C19.2618 3.20245 19.2305 3.14776 19.1731 3.11719ZM16.2668 4.94531C16.2668 5.7578 16.2668 6.57033 16.2668 7.38281C16.4856 7.38281 16.7043 7.38281 16.9231 7.38281C16.9231 6.57033 16.9231 5.7578 16.9231 4.94531C16.7043 4.94531 16.4856 4.94531 16.2668 4.94531Z" fill="url(#paint9_linear_1984_1209)"/>
<path opacity="0.936" fill-rule="evenodd" clip-rule="evenodd" d="M4.89791 16.7341C5.09962 16.7011 5.26368 16.7637 5.3901 16.9216C5.39221 17.3155 5.35316 17.7061 5.27291 18.0935C5.46299 18.1087 5.65049 18.0931 5.83541 18.0466C5.91069 17.6733 5.98101 17.2983 6.04635 16.9216C6.30144 16.6666 6.53582 16.6822 6.74948 16.9685C6.72608 17.3437 6.68704 17.7187 6.63229 18.0935C6.98137 18.0734 7.32515 18.0968 7.66354 18.1638C7.75396 18.3164 7.7774 18.4805 7.73385 18.656C7.71041 18.7419 7.65571 18.7966 7.56979 18.8201C7.20941 18.828 6.85002 18.8514 6.49166 18.8904C6.44019 19.0743 6.40893 19.2618 6.39791 19.4529C6.80446 19.4451 7.21072 19.4529 7.61666 19.4763C7.75391 19.629 7.79301 19.8087 7.73385 20.0154C7.67202 20.1085 7.5861 20.1632 7.47604 20.1794C7.0701 20.2029 6.66383 20.2107 6.25729 20.2029C6.20723 20.5971 6.13691 20.9877 6.04635 21.3748C5.83091 21.5591 5.61215 21.5591 5.3901 21.3748C5.36254 20.9931 5.40163 20.6181 5.50729 20.2498C5.30652 20.2033 5.10341 20.1876 4.89791 20.2029C4.86365 20.5649 4.80894 20.9243 4.73385 21.281C4.58038 21.5265 4.36945 21.5812 4.10104 21.4451C4.0717 21.4099 4.04827 21.3708 4.03073 21.3279C4.03372 20.9502 4.07278 20.5752 4.14791 20.2029C3.81563 20.2209 3.4875 20.1974 3.16354 20.1326C2.91424 19.916 2.91424 19.6972 3.16354 19.4763C3.53821 19.4529 3.91321 19.4451 4.28854 19.4529C4.29955 19.2618 4.3308 19.0743 4.38229 18.8904C3.9926 18.8514 3.60197 18.8279 3.21041 18.8201C2.98515 18.6753 2.93047 18.4799 3.04635 18.2341C3.08865 18.1778 3.14334 18.1387 3.21041 18.1169C3.64763 18.0935 4.08513 18.0857 4.52291 18.0935C4.55718 17.7315 4.61188 17.3721 4.68698 17.0154C4.71505 16.8863 4.78537 16.7925 4.89791 16.7341ZM5.13229 18.8435C5.10608 19.0476 5.07487 19.2507 5.03854 19.4529C5.24165 19.4529 5.4448 19.4529 5.64791 19.4529C5.65152 19.2516 5.68279 19.0563 5.74166 18.8669C5.53912 18.8436 5.33601 18.8357 5.13229 18.8435Z" fill="url(#paint10_linear_1984_1209)"/>
<defs>
<linearGradient id="paint0_linear_1984_1209" x1="0.61776" y1="-9.28322e-07" x2="28.7051" y2="11.7853" gradientUnits="userSpaceOnUse">
<stop offset="0.11" stop-color="#60D7AD"/>
<stop offset="0.76" stop-color="#213C3A"/>
</linearGradient>
<linearGradient id="paint1_linear_1984_1209" x1="-0.0906638" y1="1.875" x2="9.03819" y2="5.80486" gradientUnits="userSpaceOnUse">
<stop offset="0.11" stop-color="#60D7AD"/>
<stop offset="0.76" stop-color="#213C3A"/>
</linearGradient>
<linearGradient id="paint2_linear_1984_1209" x1="8.71479" y1="11.2939" x2="9.64069" y2="13.3746" gradientUnits="userSpaceOnUse">
<stop offset="0.11" stop-color="#60D7AD"/>
<stop offset="0.76" stop-color="#213C3A"/>
</linearGradient>
<linearGradient id="paint3_linear_1984_1209" x1="13.9451" y1="11.2939" x2="15.1894" y2="12.4703" gradientUnits="userSpaceOnUse">
<stop offset="0.11" stop-color="#60D7AD"/>
<stop offset="0.76" stop-color="#213C3A"/>
</linearGradient>
<linearGradient id="paint4_linear_1984_1209" x1="8.75003" y1="13.4971" x2="9.99134" y2="14.6579" gradientUnits="userSpaceOnUse">
<stop offset="0.11" stop-color="#60D7AD"/>
<stop offset="0.76" stop-color="#213C3A"/>
</linearGradient>
<linearGradient id="paint5_linear_1984_1209" x1="11.6405" y1="13.4971" x2="12.5654" y2="15.5788" gradientUnits="userSpaceOnUse">
<stop offset="0.11" stop-color="#60D7AD"/>
<stop offset="0.76" stop-color="#213C3A"/>
</linearGradient>
<linearGradient id="paint6_linear_1984_1209" x1="15.7348" y1="18.1406" x2="22.7738" y2="21.1671" gradientUnits="userSpaceOnUse">
<stop offset="0.11" stop-color="#60D7AD"/>
<stop offset="0.76" stop-color="#213C3A"/>
</linearGradient>
<linearGradient id="paint7_linear_1984_1209" x1="17.2231" y1="19.6377" x2="20.7192" y2="21.1481" gradientUnits="userSpaceOnUse">
<stop offset="0.11" stop-color="#60D7AD"/>
<stop offset="0.76" stop-color="#213C3A"/>
</linearGradient>
<linearGradient id="paint8_linear_1984_1209" x1="1.69738" y1="3.86719" x2="6.38633" y2="6.16335" gradientUnits="userSpaceOnUse">
<stop offset="0.11" stop-color="#60D7AD"/>
<stop offset="0.76" stop-color="#213C3A"/>
</linearGradient>
<linearGradient id="paint9_linear_1984_1209" x1="15.4409" y1="1.89844" x2="22.989" y2="5.11052" gradientUnits="userSpaceOnUse">
<stop offset="0.11" stop-color="#60D7AD"/>
<stop offset="0.76" stop-color="#213C3A"/>
</linearGradient>
<linearGradient id="paint10_linear_1984_1209" x1="2.91925" y1="16.7256" x2="8.68696" y2="19.2121" gradientUnits="userSpaceOnUse">
<stop offset="0.11" stop-color="#60D7AD"/>
<stop offset="0.76" stop-color="#213C3A"/>
</linearGradient>
</defs>
</svg>
