<svg width="24" height="24" viewBox="0 0 24 24" fill="none" xmlns="http://www.w3.org/2000/svg">
<path opacity="0.881" fill-rule="evenodd" clip-rule="evenodd" d="M11.9176 10.5023C12.6778 10.4961 13.4379 10.5023 14.1979 10.5209C14.329 10.5474 14.3923 10.628 14.3879 10.7627C14.3915 10.8524 14.3535 10.9206 14.2739 10.9673C13.4631 10.9921 12.6523 10.9921 11.8416 10.9673C11.6291 10.7782 11.6545 10.6232 11.9176 10.5023Z" fill="url(#paint0_linear_1986_1266)"/>
<path opacity="0.947" fill-rule="evenodd" clip-rule="evenodd" d="M11.8117 11.807C12.4832 11.8008 13.1546 11.807 13.8259 11.8256C13.9774 11.9603 13.9774 12.0967 13.8259 12.2348C13.1545 12.2596 12.4831 12.2596 11.8117 12.2348C11.6617 12.0923 11.6617 11.9497 11.8117 11.807Z" fill="url(#paint1_linear_1986_1266)"/>
<path opacity="0.94" fill-rule="evenodd" clip-rule="evenodd" d="M8.61187 8.01043C9.28341 8.00368 9.06963 7.99059 9.74095 8.01082C9.77166 8.02328 9.79701 8.04351 9.81696 8.0715C10.2576 9.76557 10.663 11.3329 11.1091 13.0234C12.3759 13.0503 13.4562 13.0503 14.723 13.0234C15.0583 11.8656 15.409 10.7904 15.7325 9.62892C13.9589 9.61545 12.3886 9.64239 10.6151 9.62892C10.5271 9.57649 10.4891 9.49559 10.501 9.3862C10.4955 9.30392 10.5178 9.0944 10.574 9.04185C12.5122 9.01487 14.4505 9.01487 16.3887 9.04185C16.3317 9.03764 16.5554 9.04172 16.4868 9.32552C16.1393 10.7574 15.7529 12.18 15.3276 13.5933C13.2682 13.5933 11.3273 13.5929 9.32256 13.5933C9.16183 13.7487 9.17487 13.9645 9.3609 14.0787C11.6285 14.0922 13.8961 14.0652 16.1637 14.0787C16.3158 14.227 16.3158 14.4158 16.1637 14.5641C15.7964 14.5776 15.429 14.5911 15.0616 14.6046C15.2453 15.0631 15.1693 15.4676 14.8336 15.8181C14.455 16.0606 14.0749 16.0606 13.6934 15.8181C13.3577 15.4676 13.2817 15.0631 13.4654 14.6046C12.9709 14.5709 12.4768 14.5776 11.9832 14.6248C12.1801 15.2033 12.0281 15.6415 11.5272 15.9395C10.805 16.1355 10.387 15.8456 10.273 15.0698C10.2747 14.903 10.3 14.7412 10.349 14.5843C9.9561 14.5911 9.56339 14.5843 9.17088 14.5641C8.68172 14.2784 8.58671 13.8806 8.88584 13.3708C8.97166 13.2927 9.06667 13.0995 9.17088 13.0562C9.65209 13.036 9.86747 13.0166 10.349 13.0234C9.97426 11.4682 9.58186 10.2151 9.17122 8.66893C8.60157 8.63523 9.18283 8.67569 8.61234 8.66893C8.46287 8.51214 8.46239 8.16375 8.61187 8.01043ZM11.1091 14.5843C11.0016 14.6252 10.9066 14.6926 10.8241 14.7866C10.7048 15.0153 10.7364 15.2243 10.9191 15.4136C11.139 15.5517 11.3353 15.518 11.5082 15.3125C11.6617 14.8983 11.5287 14.6555 11.1091 14.5843ZM14.2255 14.5843C13.8483 14.7267 13.7596 14.9828 13.9595 15.3529C14.1622 15.5687 14.3649 15.5687 14.5675 15.3529C14.7742 14.9432 14.6602 14.687 14.2255 14.5843Z" fill="url(#paint2_linear_1986_1266)"/>
<path opacity="0.929" fill-rule="evenodd" clip-rule="evenodd" d="M3.7677 0C4.40923 0 5.05074 0 5.69229 0C7.33673 0.415914 8.50247 1.40168 9.1894 2.95729C11.1062 2.39538 13.0229 2.39538 14.9397 2.95729C15.5758 1.38215 16.7181 0.396389 18.3664 0C19.0079 0 19.6494 0 20.291 0C22.2509 0.536049 23.487 1.78782 23.9993 3.75529C23.9993 4.36553 23.9993 4.97576 23.9993 5.586C23.6034 7.22157 22.6333 8.37947 21.089 9.05965C21.0734 9.09096 21.0577 9.12222 21.042 9.15353C21.6053 11.0312 21.6053 12.9088 21.042 14.7865C21.7585 15.1339 22.3922 15.6033 22.9432 16.1947C23.4598 16.8366 23.8118 17.5564 23.9993 18.354C23.9993 18.9642 23.9993 19.5745 23.9993 20.1847C23.6216 21.838 22.6515 23.0037 21.089 23.6818C18.9793 24.3847 17.172 23.9231 15.6673 22.2971C15.3394 21.9073 15.0968 21.4692 14.9397 20.9827C13.0307 21.5437 11.1218 21.5437 9.21287 20.9827C8.0001 23.3962 6.05988 24.3429 3.39217 23.8226C2.64445 23.6015 1.9951 23.2182 1.44411 22.6726C1.34764 22.2527 1.51194 22.0728 1.93699 22.1328C3.23313 23.2746 4.68831 23.5406 6.30252 22.9308C8.11811 22.0048 8.89264 20.5262 8.62611 18.4948C8.26875 16.9796 7.35339 15.9703 5.88005 15.4671C3.70193 14.9878 2.09811 15.731 1.06858 17.6968C0.648923 18.7837 0.664574 19.8633 1.11552 20.9358C1.22981 21.2677 1.12028 21.4711 0.786935 21.546C0.651407 21.5271 0.541879 21.4645 0.458347 21.3582C-0.467719 19.0463 0.00951612 17.0826 1.89005 15.4671C2.25303 15.2232 2.62856 15.0041 3.01664 14.8099C2.45335 12.9167 2.45335 11.0233 3.01664 9.13006C0.84425 8.11134 -0.149336 6.39799 0.0358764 3.99C0.449877 1.87588 1.69382 0.545874 3.7677 0ZM4.65958 0.657176C6.88323 0.823372 8.22106 1.9969 8.67305 4.17776C8.75745 4.8762 8.66357 5.54901 8.3914 6.19623C8.20829 6.59706 7.98921 6.97259 7.73423 7.32282C7.71066 7.70553 7.89059 7.8542 8.27405 7.76876C9.18189 6.72845 9.56526 5.51582 9.42411 4.13082C9.41144 4.00295 9.38797 3.87777 9.3537 3.75529C9.36351 3.72779 9.37919 3.70432 9.40064 3.68488C11.1778 3.13858 12.9459 3.15423 14.705 3.73182C14.3647 5.92984 15.1314 7.61973 17.0051 8.80147C18.0491 9.33829 19.1444 9.51821 20.291 9.34129C20.8543 11.0937 20.8543 12.8462 20.291 14.5987C18.0897 14.2951 16.3921 15.0775 15.1979 16.9458C14.6395 17.9758 14.4752 19.0633 14.705 20.2082C12.94 20.7937 11.1719 20.8015 9.40064 20.2316C9.69839 17.9865 8.88476 16.2732 6.9597 15.0916C5.93394 14.5897 4.86209 14.4254 3.74423 14.5987C3.21223 12.8462 3.21223 11.0937 3.74423 9.34129C4.89945 9.51648 6.00257 9.33655 7.05358 8.80147C7.34494 8.45725 7.27453 8.2147 6.84235 8.07388C4.90926 9.04519 3.18807 8.76354 1.67882 7.22894C0.721283 6.00809 0.502223 4.66243 1.02164 3.192C1.73049 1.62124 2.94314 0.776294 4.65958 0.657176ZM19.2583 0.657176C21.3323 0.790175 22.6545 1.85417 23.2248 3.84918C23.5098 5.85309 22.7666 7.33174 20.9951 8.28512C19.0801 9.00533 17.4606 8.5907 16.1367 7.04118C15.1939 5.61961 15.1156 4.14881 15.902 2.62871C16.6915 1.40864 17.8103 0.751462 19.2583 0.657176ZM18.8358 15.3028C21.0165 15.2238 22.4638 16.2096 23.1779 18.2601C23.5674 20.3835 22.8085 21.9403 20.9012 22.9308C18.8318 23.644 17.1654 23.1042 15.902 21.3113C14.9646 19.4273 15.2384 17.7453 16.7235 16.2651C17.3493 15.7643 18.0534 15.4435 18.8358 15.3028Z" fill="url(#paint3_linear_1986_1266)"/>
<path opacity="0.928" fill-rule="evenodd" clip-rule="evenodd" d="M19.6813 1.9248C19.9946 1.91699 20.3076 1.92482 20.6201 1.94827C20.7546 2.01365 20.8172 2.12318 20.8079 2.27686C20.8122 2.40895 20.7652 2.51848 20.667 2.60545C20.3892 2.66157 20.1075 2.69286 19.8221 2.69933C19.6277 2.76852 19.4947 2.90152 19.4231 3.09833C19.3996 3.47353 19.3918 3.84906 19.3996 4.22492C19.6348 4.21713 19.8696 4.22495 20.1037 4.24839C20.3311 4.45397 20.3468 4.67303 20.1507 4.90556C19.9049 4.96842 19.6545 4.99189 19.3996 4.97597C19.4075 5.71154 19.3996 6.44697 19.3762 7.18221C19.2347 7.41856 19.0391 7.47334 18.7894 7.3465C18.733 7.30412 18.6939 7.24938 18.672 7.18221C18.6486 6.44697 18.6407 5.71154 18.6486 4.97597C18.4092 4.99123 18.1745 4.96776 17.9445 4.90556C17.7436 4.66931 17.7592 4.45025 17.9914 4.24839C18.2099 4.22495 18.4289 4.21713 18.6486 4.22492C18.6408 3.81779 18.6486 3.41097 18.672 3.00445C18.809 2.45297 19.1454 2.09308 19.6813 1.9248Z" fill="url(#paint4_linear_1986_1266)"/>
<path opacity="0.924" fill-rule="evenodd" clip-rule="evenodd" d="M19.1194 18.2134C19.9429 18.114 20.4124 18.4739 20.5276 19.2931C20.4222 20.0579 19.9841 20.4099 19.2133 20.3492C18.4973 20.1303 18.2235 19.653 18.3918 18.9175C18.5376 18.576 18.7801 18.3413 19.1194 18.2134ZM19.2602 18.9645C19.1629 19.0517 19.1003 19.1612 19.0725 19.2931C19.3213 19.7344 19.556 19.7266 19.7766 19.2696C19.7043 19.0022 19.5323 18.9005 19.2602 18.9645Z" fill="url(#paint5_linear_1986_1266)"/>
<path opacity="0.935" fill-rule="evenodd" clip-rule="evenodd" d="M17.6378 16.7578C18.8114 16.75 19.9849 16.7578 21.1584 16.7813C21.5261 16.8986 21.7686 17.1412 21.886 17.5089C21.9173 18.698 21.9173 19.8872 21.886 21.0764C21.7842 21.4285 21.5574 21.6553 21.2053 21.7571C20.0005 21.7884 18.7957 21.7884 17.5908 21.7571C17.2179 21.6502 16.991 21.4076 16.9102 21.0295C16.8789 19.8559 16.8789 18.6824 16.9102 17.5089C17.0362 17.1404 17.2788 16.89 17.6378 16.7578ZM17.7786 17.5089C17.7494 17.5618 17.7103 17.6087 17.6613 17.6497C17.6226 18.747 17.6305 19.8423 17.6847 20.9356C17.7094 20.9681 17.7407 20.9915 17.7786 21.006C18.8759 21.0446 19.9712 21.0368 21.0645 20.9825C21.097 20.9579 21.1204 20.9266 21.1349 20.8886C21.1662 19.809 21.1662 18.7294 21.1349 17.6497C21.0958 17.6106 21.0567 17.5715 21.0176 17.5324C19.938 17.5089 18.8584 17.501 17.7786 17.5089Z" fill="url(#paint6_linear_1986_1266)"/>
<path opacity="0.927" fill-rule="evenodd" clip-rule="evenodd" d="M3.32091 17.3213C3.5412 17.34 3.74461 17.4104 3.93114 17.5325C4.69389 17.9726 5.45279 18.4185 6.20779 18.8703C6.41621 19.2323 6.3458 19.5218 5.99656 19.7388C5.25348 20.1494 4.5181 20.5718 3.79032 21.0062C3.55562 21.1626 3.32091 21.1626 3.0862 21.0062C2.97944 20.8961 2.92467 20.7631 2.92191 20.6072C2.89061 19.684 2.89061 18.7608 2.92191 17.8376C2.94323 17.5746 3.07623 17.4025 3.32091 17.3213ZM3.6495 18.2601C3.64168 18.9018 3.6495 19.5433 3.67297 20.1847C4.22443 19.8816 4.76426 19.5609 5.29244 19.2224C4.74351 18.9011 4.19585 18.5803 3.6495 18.2601Z" fill="url(#paint7_linear_1986_1266)"/>
<path opacity="0.931" fill-rule="evenodd" clip-rule="evenodd" d="M5.34083 2.48777C5.71838 2.46477 6.0626 2.55865 6.37354 2.76942C6.54844 2.65066 6.73621 2.55678 6.93683 2.48777C7.31016 2.59236 7.41188 2.82707 7.24195 3.19189C7.15675 3.39354 7.04724 3.5813 6.91336 3.75518C6.93411 4.98912 6.44123 5.95142 5.43472 6.64206C4.28595 7.24521 3.14372 7.22958 2.00801 6.59512C1.82025 6.39172 1.82025 6.18828 2.00801 5.98489C2.31233 5.94546 2.60962 5.88284 2.89989 5.79712C2.29051 5.25232 2.03233 4.57166 2.12536 3.75518C2.15227 3.44416 2.2305 3.14686 2.36007 2.8633C2.50065 2.73351 2.66494 2.6944 2.85295 2.74594C3.19069 3.20827 3.63663 3.51339 4.19078 3.6613C4.33227 3.02697 4.71562 2.63579 5.34083 2.48777ZM5.43472 3.23883C5.03666 3.43406 4.87236 3.76264 4.94183 4.22459C4.90273 4.295 4.84795 4.34977 4.77754 4.38889C4.06708 4.47539 3.43337 4.29545 2.87642 3.84906C2.83454 4.68002 3.20224 5.25115 3.97954 5.56242C4.21421 5.90396 4.13598 6.15434 3.74483 6.31347C3.94994 6.33342 4.15335 6.31779 4.35507 6.26653C5.64102 5.832 6.22779 4.93228 6.11536 3.56742C5.94431 3.34144 5.7174 3.23191 5.43472 3.23883Z" fill="url(#paint8_linear_1986_1266)"/>
<defs>
<linearGradient id="paint0_linear_1986_1266" x1="11.667" y1="10.5" x2="12.2398" y2="11.8689" gradientUnits="userSpaceOnUse">
<stop offset="0.11" stop-color="#60D7AD"/>
<stop offset="0.76" stop-color="#213C3A"/>
</linearGradient>
<linearGradient id="paint1_linear_1986_1266" x1="11.6724" y1="11.8047" x2="12.2394" y2="13.0272" gradientUnits="userSpaceOnUse">
<stop offset="0.11" stop-color="#60D7AD"/>
<stop offset="0.76" stop-color="#213C3A"/>
</linearGradient>
<linearGradient id="paint2_linear_1986_1266" x1="8.40417" y1="8" x2="18.0439" y2="12.163" gradientUnits="userSpaceOnUse">
<stop offset="0.11" stop-color="#60D7AD"/>
<stop offset="0.76" stop-color="#213C3A"/>
</linearGradient>
<linearGradient id="paint3_linear_1986_1266" x1="-0.287492" y1="-9.36907e-07" x2="28.6311" y2="12.4885" gradientUnits="userSpaceOnUse">
<stop offset="0.11" stop-color="#60D7AD"/>
<stop offset="0.76" stop-color="#213C3A"/>
</linearGradient>
<linearGradient id="paint4_linear_1986_1266" x1="17.7687" y1="1.92187" x2="21.8366" y2="2.88297" gradientUnits="userSpaceOnUse">
<stop offset="0.11" stop-color="#60D7AD"/>
<stop offset="0.76" stop-color="#213C3A"/>
</linearGradient>
<linearGradient id="paint5_linear_1986_1266" x1="18.3176" y1="18.1973" x2="20.9394" y2="19.3428" gradientUnits="userSpaceOnUse">
<stop offset="0.11" stop-color="#60D7AD"/>
<stop offset="0.76" stop-color="#213C3A"/>
</linearGradient>
<linearGradient id="paint6_linear_1986_1266" x1="16.8266" y1="16.7549" x2="22.8799" y2="19.3676" gradientUnits="userSpaceOnUse">
<stop offset="0.11" stop-color="#60D7AD"/>
<stop offset="0.76" stop-color="#213C3A"/>
</linearGradient>
<linearGradient id="paint7_linear_1986_1266" x1="2.85739" y1="17.3213" x2="7.11156" y2="18.9768" gradientUnits="userSpaceOnUse">
<stop offset="0.11" stop-color="#60D7AD"/>
<stop offset="0.76" stop-color="#213C3A"/>
</linearGradient>
<linearGradient id="paint8_linear_1986_1266" x1="1.80185" y1="2.48437" x2="7.97923" y2="5.64868" gradientUnits="userSpaceOnUse">
<stop offset="0.11" stop-color="#60D7AD"/>
<stop offset="0.76" stop-color="#213C3A"/>
</linearGradient>
</defs>
</svg>
