<svg width="24" height="24" viewBox="0 0 24 24" fill="none" xmlns="http://www.w3.org/2000/svg">
<path opacity="0.928" fill-rule="evenodd" clip-rule="evenodd" d="M15.2812 0C15.8594 0 16.4375 0 17.0156 0C19.7347 0.394615 21.7738 1.78524 23.1328 4.17188C23.5798 5.067 23.8688 6.0045 24 6.98438C24 7.56248 24 8.14064 24 8.71875C23.7346 10.6635 22.8909 12.312 21.4688 13.6641C23.2735 15.5622 23.7501 17.7575 22.8984 20.25C21.9558 22.3723 20.3386 23.6223 18.0469 24C17.5625 24 17.0781 24 16.5938 24C15.7905 23.8599 15.0171 23.6099 14.2734 23.25C13.9143 23.3787 13.5628 23.5272 13.2188 23.6953C12.0627 23.9142 11.5237 23.4376 11.6016 22.2656C11.7724 21.8693 11.9365 21.4709 12.0938 21.0703C11.6647 20.2215 11.3991 19.3231 11.2969 18.375C10.9894 18.189 10.6613 18.0875 10.3125 18.0703C7.81022 19.3182 5.37272 19.2088 3 17.7422C1.299 16.52 0.298995 14.8716 0 12.7969C0 12.2656 0 11.7344 0 11.2031C0.402616 8.53092 1.84012 6.64809 4.3125 5.55469C5.7397 5.01023 7.19283 4.92427 8.67188 5.29688C9.86798 2.26976 12.0711 0.504136 15.2812 0ZM16.0781 0.703125C19.2699 0.856687 21.5121 2.38794 22.8047 5.29688C23.7942 8.31516 23.1614 10.9323 20.9062 13.1484C18.7773 14.9336 16.3867 15.4023 13.7344 14.5547C13.2969 14.3672 12.8594 14.1797 12.4219 13.9922C12.1374 13.9545 11.8561 13.9701 11.5781 14.0391C11.1094 14.2422 10.6406 14.4453 10.1719 14.6484C9.67964 14.6721 9.39839 14.4377 9.32812 13.9453C9.54478 13.4184 9.74789 12.8872 9.9375 12.3516C9.91406 12.1406 9.79688 12.0234 9.58594 12C9.45403 11.9957 9.34467 12.0426 9.25781 12.1406C8.94384 12.7371 8.70947 13.362 8.55469 14.0156C8.08505 14.4068 7.5772 14.7427 7.03125 15.0234C6.95311 15.0547 6.87502 15.0547 6.79688 15.0234C5.82042 14.523 4.96884 13.859 4.24219 13.0312C3.60481 12.235 3.41731 11.3444 3.67969 10.3594C4.03029 9.65658 4.60061 9.35189 5.39062 9.44531C5.89102 9.56269 6.31289 9.81267 6.65625 10.1953C6.85509 10.2985 7.04259 10.2829 7.21875 10.1484C7.52695 9.8145 7.90195 9.58795 8.34375 9.46875C8.39752 9.48366 8.43661 9.51488 8.46094 9.5625C8.58319 10.1323 8.77069 10.6792 9.02344 11.2031C9.2422 11.4531 9.46092 11.4531 9.67969 11.2031C9.71095 11.0781 9.71095 10.9531 9.67969 10.8281C8.53383 8.03639 8.90883 5.47388 10.8047 3.14062C12.226 1.59788 13.9838 0.785386 16.0781 0.703125ZM6.375 5.8125C7.08684 5.78569 7.78997 5.84822 8.48438 6C8.31478 6.89723 8.2523 7.80347 8.29688 8.71875C7.77178 8.80556 7.31086 9.02428 6.91406 9.375C5.9287 8.56191 4.87402 8.46037 3.75 9.07031C3.11376 9.59372 2.78564 10.2734 2.76562 11.1094C2.85421 12.3099 3.33859 13.3177 4.21875 14.1328C4.82494 14.6858 5.48119 15.1702 6.1875 15.5859C6.5947 15.8233 7.01658 15.8545 7.45312 15.6797C7.94222 15.4157 8.40314 15.111 8.83594 14.7656C9.33989 15.4042 9.9727 15.5682 10.7344 15.2578C11.1094 15.0859 11.4844 14.9141 11.8594 14.7422C12.0568 14.699 12.2443 14.7225 12.4219 14.8125C12.2194 15.168 12.1647 15.543 12.2578 15.9375C12.4596 16.3958 12.6549 16.8567 12.8438 17.3203C12.78 17.7583 12.53 17.9458 12.0938 17.8828C11.7031 17.7109 11.3125 17.5391 10.9219 17.3672C10.5732 17.2668 10.2294 17.2824 9.89062 17.4141C7.62923 18.5499 5.44172 18.4249 3.32812 17.0391C1.12464 15.304 0.33558 13.0618 0.960938 10.3125C1.84777 7.70198 3.65246 6.20198 6.375 5.8125ZM20.8125 14.1562C21.7841 14.9893 22.3544 16.0518 22.5234 17.3438C22.6973 19.9424 21.6113 21.7939 19.2656 22.8984C17.6927 23.4736 16.1614 23.3642 14.6719 22.5703C14.3543 22.4719 14.0418 22.4875 13.7344 22.6172C12.336 23.3438 12 23.0078 12.7266 21.6094C12.8563 21.3019 12.8719 20.9895 12.7734 20.6719C12.4435 20.0415 12.217 19.3775 12.0938 18.6797C12.9954 18.6686 13.4954 18.2155 13.5938 17.3203C13.5666 17.1532 13.5275 16.9892 13.4766 16.8281C13.2922 16.4077 13.1125 15.9858 12.9375 15.5625C12.9593 15.3951 13.0297 15.2545 13.1484 15.1406C13.6644 15.3378 14.1878 15.5018 14.7188 15.6328C14.6014 15.8599 14.5311 16.1021 14.5078 16.3594C14.4844 17.1092 14.4765 17.8592 14.4844 18.6094C14.0979 18.7224 13.8401 18.9724 13.7109 19.3594C13.5584 20.1251 13.8475 20.633 14.5781 20.8828C14.9697 20.8907 15.3603 20.9141 15.75 20.9531C16.0838 21.8782 16.74 22.2609 17.7188 22.1016C18.3174 21.9326 18.708 21.5498 18.8906 20.9531C19.2803 20.9141 19.671 20.8907 20.0625 20.8828C20.7931 20.633 21.0822 20.1251 20.9297 19.3594C20.8005 18.9724 20.5427 18.7224 20.1562 18.6094C20.1641 17.8592 20.1562 17.1092 20.1328 16.3594C20.0594 15.8455 19.8641 15.3846 19.5469 14.9766C20.0038 14.7487 20.4256 14.4752 20.8125 14.1562ZM18.7031 15.2812C18.7524 15.2743 18.7993 15.282 18.8438 15.3047C19.1302 15.6355 19.3099 16.0184 19.3828 16.4531C19.3984 17.3125 19.4141 18.1719 19.4297 19.0312C19.511 19.229 19.6594 19.3149 19.875 19.2891C20.1701 19.4027 20.2717 19.6137 20.1797 19.9219C20.1074 20.0099 20.0214 20.0802 19.9219 20.1328C19.3873 20.1359 18.856 20.1672 18.3281 20.2266C18.2718 20.2689 18.2327 20.3235 18.2109 20.3906C18.1678 21.1215 17.785 21.4418 17.0625 21.3516C16.8338 21.279 16.662 21.1384 16.5469 20.9297C16.7969 20.9141 17.0469 20.8984 17.2969 20.8828C17.6204 20.6287 17.6047 20.3944 17.25 20.1797C16.3708 20.1785 15.4958 20.1472 14.625 20.0859C14.424 19.9092 14.385 19.6982 14.5078 19.4531C14.6585 19.3115 14.8382 19.2412 15.0469 19.2422C15.1195 19.1853 15.1741 19.115 15.2109 19.0312C15.2265 18.1719 15.2422 17.3125 15.2578 16.4531C15.2985 16.2062 15.3766 15.9718 15.4922 15.75C16.1075 15.7202 16.7247 15.6811 17.3438 15.6328C17.8156 15.5657 18.2687 15.4485 18.7031 15.2812Z" fill="url(#paint0_linear_1984_1189)"/>
<path opacity="0.933" fill-rule="evenodd" clip-rule="evenodd" d="M17.9531 2.8851C18.7459 2.84971 19.199 3.22471 19.3125 4.0101C19.225 4.5054 19.0063 4.93509 18.6563 5.29916C19.197 5.29021 19.7282 5.3527 20.25 5.48666C20.8552 5.76365 21.238 6.22462 21.3984 6.86948C21.4297 8.08823 21.4297 9.30698 21.3984 10.5257C21.1851 11.3786 20.646 11.8864 19.7813 12.0492C18.3906 12.0804 17 12.0804 15.6094 12.0492C15.3227 11.9995 15.0572 11.8979 14.8125 11.7445C14.6243 11.9088 14.4056 12.0104 14.1563 12.0492C13.5625 12.0804 12.9688 12.0804 12.375 12.0492C11.8602 11.9406 11.5243 11.6359 11.3672 11.1351C11.3359 9.40073 11.3359 7.66635 11.3672 5.93198C11.5243 5.43121 11.8602 5.12652 12.375 5.01791C12.9688 4.98665 13.5625 4.98665 14.1563 5.01791C14.4534 5.06488 14.7034 5.19768 14.9063 5.41635C15.7833 4.66486 16.6427 3.89142 17.4844 3.09604C17.6398 3.01027 17.7961 2.93995 17.9531 2.8851ZM18.0469 3.6351C17.0985 4.45068 16.1688 5.29443 15.2578 6.16635C15.2497 7.79329 15.2263 9.4183 15.1875 11.0414C15.2792 11.1344 15.3886 11.2047 15.5156 11.2523C16.904 11.3289 18.2946 11.3445 19.6875 11.2992C20.1035 11.1955 20.4082 10.9533 20.6016 10.5726C20.6545 9.95005 20.678 9.32507 20.6719 8.6976C20.6784 8.08513 20.655 7.47576 20.6016 6.86948C20.449 6.51374 20.1912 6.27154 19.8281 6.14291C19.1271 6.08437 18.424 6.0531 17.7188 6.04916C17.6126 5.96577 17.5502 5.85637 17.5313 5.72104C17.7941 5.21901 18.0988 4.74243 18.4453 4.29135C18.6391 3.88252 18.5063 3.66377 18.0469 3.6351ZM12.5156 5.74448C12.3311 5.81024 12.1983 5.93526 12.1172 6.11948C12.0859 7.72884 12.0859 9.33824 12.1172 10.9476C12.1869 11.135 12.3197 11.2522 12.5156 11.2992C13.0313 11.3304 13.5469 11.3304 14.0625 11.2992C14.2578 11.2289 14.3906 11.0961 14.4609 10.9007C14.4922 9.32259 14.4922 7.74449 14.4609 6.16635C14.3906 5.97102 14.2578 5.83823 14.0625 5.76791C13.5471 5.74448 13.0315 5.73665 12.5156 5.74448Z" fill="url(#paint1_linear_1984_1189)"/>
<defs>
<linearGradient id="paint0_linear_1984_1189" x1="-0.2875" y1="-9.36907e-07" x2="28.6316" y2="12.4891" gradientUnits="userSpaceOnUse">
<stop offset="0.11" stop-color="#60D7AD"/>
<stop offset="0.76" stop-color="#213C3A"/>
</linearGradient>
<linearGradient id="paint1_linear_1984_1189" x1="11.223" y1="2.88281" x2="22.9919" y2="8.45667" gradientUnits="userSpaceOnUse">
<stop offset="0.11" stop-color="#60D7AD"/>
<stop offset="0.76" stop-color="#213C3A"/>
</linearGradient>
</defs>
</svg>
