<svg width="23" height="24" viewBox="0 0 23 24" fill="none" xmlns="http://www.w3.org/2000/svg">
<path opacity="0.947" fill-rule="evenodd" clip-rule="evenodd" d="M3.32813 0C5.67188 0 8.01563 0 10.3594 0C10.6894 0.150585 10.916 0.400586 11.0391 0.75C11.0625 1.48421 11.0703 2.21858 11.0625 2.95312C11.3438 2.95312 11.625 2.95312 11.9063 2.95312C11.8984 2.21858 11.9063 1.48421 11.9297 0.75C12.0528 0.400586 12.2794 0.150585 12.6094 0C14.9375 0 17.2656 0 19.5938 0C19.9169 0.112044 20.1434 0.330794 20.2734 0.65625C20.3385 1.42006 20.3619 2.18569 20.3438 2.95312C21.793 3.00414 22.6602 3.73852 22.9453 5.15625C22.9766 9.73439 22.9766 14.3125 22.9453 18.8906C22.727 20.0705 22.0316 20.7814 20.8594 21.0234C18.6873 21.0313 16.5155 21.0547 14.3438 21.0938C14.5875 21.7939 14.8219 22.497 15.0469 23.2031C15.7964 23.2422 16.5464 23.2656 17.2969 23.2734C17.5778 23.5067 17.5778 23.7489 17.2969 24C13.4219 24 9.54689 24 5.67188 24C5.47303 23.8187 5.43399 23.6 5.55469 23.3438C5.58984 23.3144 5.62894 23.291 5.67188 23.2734C6.42234 23.2656 7.17235 23.2422 7.92188 23.2031C8.16347 22.5023 8.39785 21.7991 8.625 21.0938C6.45328 21.0547 4.28142 21.0313 2.10938 21.0234C0.937108 20.7814 0.241792 20.0705 0.0234387 18.8906C-0.00781289 14.3125 -0.00781289 9.73439 0.0234387 5.15625C0.308589 3.73852 1.17578 3.00414 2.625 2.95312C2.60681 2.18569 2.63025 1.42006 2.69531 0.65625C2.82128 0.350672 3.03222 0.131922 3.32813 0ZM3.65625 0.75C5.83092 0.727266 8.00283 0.750703 10.1719 0.820312C10.1953 0.84375 10.2188 0.867188 10.2422 0.890625C10.2735 2.5 10.2735 4.10938 10.2422 5.71875C10.2031 5.7578 10.164 5.79689 10.125 5.83594C7.91799 5.88234 5.71486 5.86669 3.51563 5.78906C3.48326 5.73905 3.45982 5.68434 3.44531 5.625C3.41406 4.07812 3.41406 2.53125 3.44531 0.984375C3.49336 0.881859 3.56367 0.803738 3.65625 0.75ZM12.9375 0.75C15.0977 0.727041 17.254 0.750478 19.4063 0.820312C19.4625 0.862617 19.5016 0.917306 19.5234 0.984375C19.5547 2.03125 19.5547 3.07813 19.5234 4.125C19.0744 3.52389 18.6369 2.91452 18.2109 2.29688C18.0078 2.17187 17.8047 2.17187 17.6016 2.29688C16.9797 3.18194 16.3469 4.05694 15.7031 4.92188C15.2782 4.3695 14.8641 3.807 14.4609 3.23438C14.2517 3.04898 14.0408 3.04898 13.8281 3.23438C13.4519 3.74348 13.0846 4.2591 12.7266 4.78125C12.6953 3.48437 12.6953 2.1875 12.7266 0.890625C12.7926 0.830573 12.8629 0.783698 12.9375 0.75ZM17.8594 3.32812C17.9305 3.32862 17.9852 3.35987 18.0234 3.42188C18.5119 4.13324 19.0119 4.83637 19.5234 5.53125C19.5396 5.67 19.4849 5.77158 19.3594 5.83594C18.3437 5.8672 17.3281 5.8672 16.3125 5.83594C16.2053 5.73994 16.1975 5.63836 16.2891 5.53125C16.8129 4.7955 17.3364 4.06113 17.8594 3.32812ZM2.34375 3.75C2.4375 3.75 2.53125 3.75 2.625 3.75C2.60618 4.48641 2.62962 5.2208 2.69531 5.95312C2.83739 6.31411 3.0952 6.54066 3.46875 6.63281C5.73436 6.66408 8.00002 6.66408 10.2656 6.63281C10.6809 6.53002 10.9388 6.2722 11.0391 5.85938C11.0625 5.15644 11.0703 4.4533 11.0625 3.75C11.3438 3.75 11.625 3.75 11.9063 3.75C11.8984 4.4533 11.9063 5.15644 11.9297 5.85938C12.03 6.2722 12.2878 6.53002 12.7031 6.63281C14.9687 6.66408 17.2344 6.66408 19.5 6.63281C19.8735 6.54066 20.1314 6.31411 20.2734 5.95312C20.3391 5.2208 20.3625 4.48641 20.3438 3.75C21.3219 3.79861 21.9235 4.29861 22.1484 5.25C22.1719 9.0937 22.1797 12.9375 22.1719 16.7812C15.0469 16.7812 7.92188 16.7812 0.796876 16.7812C0.789062 12.9375 0.796876 9.0937 0.820314 5.25C1.01333 4.42413 1.52114 3.92413 2.34375 3.75ZM14.1094 4.21875C14.5401 4.73592 14.9463 5.27498 15.3281 5.83594C14.5313 5.8672 13.7344 5.8672 12.9375 5.83594C13.3458 5.30794 13.7364 4.76888 14.1094 4.21875ZM0.796876 17.5781C7.92188 17.5781 15.0469 17.5781 22.1719 17.5781C22.1797 17.9847 22.1719 18.3909 22.1484 18.7969C21.995 19.5441 21.5497 20.0206 20.8125 20.2266C14.5937 20.2578 8.37502 20.2578 2.15625 20.2266C1.41903 20.0206 0.973717 19.5441 0.820314 18.7969C0.796886 18.3909 0.789076 17.9847 0.796876 17.5781ZM9.46875 21.0469C10.8128 21.0313 12.1566 21.0469 13.5 21.0938C13.725 21.7998 13.9593 22.503 14.2031 23.2031C12.3906 23.2656 10.5781 23.2656 8.76563 23.2031C9.01908 22.4896 9.25345 21.7709 9.46875 21.0469Z" fill="url(#paint0_linear_1984_1201)"/>
<path opacity="0.928" fill-rule="evenodd" clip-rule="evenodd" d="M15.4483 1.50276C16.1046 1.46754 16.4064 1.76982 16.3535 2.4096C16.1846 2.86749 15.8593 3.03607 15.3773 2.91533C14.8959 2.65045 14.7835 2.2726 15.04 1.78178C15.1519 1.64887 15.2879 1.55586 15.4483 1.50276ZM15.5902 2.09569C15.5518 2.13384 15.5282 2.18034 15.5193 2.2352C15.6021 2.42122 15.6849 2.42122 15.7677 2.2352C15.7507 2.13705 15.6915 2.09054 15.5902 2.09569Z" fill="url(#paint1_linear_1984_1201)"/>
<path opacity="0.944" fill-rule="evenodd" clip-rule="evenodd" d="M8.08595 7.66407C10.336 7.65624 12.586 7.66407 14.8359 7.68751C15.2813 7.78908 15.5547 8.06251 15.6563 8.50782C15.6875 10.1641 15.6875 11.8203 15.6563 13.4766C15.5847 13.8764 15.3582 14.1498 14.9766 14.2969C14.211 14.3125 13.4453 14.3281 12.6797 14.3438C12.4532 14.7266 12.2266 15.1094 12 15.4922C11.6406 15.8047 11.2813 15.8047 10.9219 15.4922C10.6953 15.1094 10.4687 14.7266 10.2422 14.3438C9.47659 14.3281 8.71093 14.3125 7.94532 14.2969C7.56371 14.1498 7.33717 13.8764 7.26564 13.4766C7.23437 11.8203 7.23437 10.1641 7.26564 8.50782C7.37575 8.06185 7.64917 7.7806 8.08595 7.66407ZM8.22657 8.46094C8.14951 8.49919 8.09486 8.56173 8.06251 8.64844C8.03125 10.2266 8.03125 11.8047 8.06251 13.3828C8.08004 13.4258 8.10348 13.4649 8.13282 13.5C8.94221 13.5606 9.75475 13.5918 10.5703 13.5938C10.6923 13.6351 10.7939 13.7055 10.875 13.8047C11.0467 14.1483 11.242 14.4765 11.4609 14.7891C11.6563 14.4609 11.8516 14.1328 12.0469 13.8047C12.128 13.7055 12.2296 13.6351 12.3516 13.5938C13.1172 13.5781 13.8828 13.5625 14.6484 13.5469C14.7078 13.5324 14.7625 13.509 14.8125 13.4766C14.8666 12.6604 14.89 11.8401 14.8828 11.0156C14.875 10.2266 14.8672 9.43749 14.8594 8.64844C14.8419 8.60551 14.8184 8.56641 14.7891 8.53126C12.6055 8.46141 10.418 8.43798 8.22657 8.46094Z" fill="url(#paint2_linear_1984_1201)"/>
<path opacity="0.926" fill-rule="evenodd" clip-rule="evenodd" d="M9.25802 9.72657C10.7268 9.71874 12.1956 9.72657 13.6643 9.75001C13.8893 9.89593 13.944 10.0913 13.8283 10.3359C13.7665 10.4291 13.6806 10.4838 13.5705 10.5C12.1643 10.5313 10.758 10.5313 9.35177 10.5C9.05594 10.3787 8.97002 10.1678 9.09396 9.86719C9.14763 9.81394 9.20233 9.76707 9.25802 9.72657Z" fill="url(#paint3_linear_1984_1201)"/>
<path opacity="0.928" fill-rule="evenodd" clip-rule="evenodd" d="M9.30631 11.5078C10.7439 11.5 12.1814 11.5078 13.6188 11.5313C13.9938 11.7812 13.9938 12.0313 13.6188 12.2813C12.1813 12.3125 10.7438 12.3125 9.30631 12.2813C8.93436 12.0236 8.93436 11.7658 9.30631 11.5078Z" fill="url(#paint4_linear_1984_1201)"/>
<path opacity="0.927" fill-rule="evenodd" clip-rule="evenodd" d="M11.3018 18.3934C11.8523 18.3553 12.0836 18.6069 11.9959 19.1484C11.8284 19.4695 11.5727 19.5709 11.2287 19.4528C10.9494 19.2877 10.8561 19.0482 10.9486 18.7344C11.0162 18.5653 11.1339 18.4516 11.3018 18.3934ZM11.3992 18.8074C11.3347 18.8576 11.3144 18.9225 11.3383 19.0023C11.4276 19.0997 11.5169 19.0997 11.6062 19.0023C11.6224 18.8521 11.5534 18.7871 11.3992 18.8074Z" fill="url(#paint5_linear_1984_1201)"/>
<path opacity="0.947" fill-rule="evenodd" clip-rule="evenodd" d="M5.83595 1.73724C5.9619 1.72954 6.08692 1.73736 6.21095 1.76067C6.89846 2.1513 7.58593 2.54193 8.27345 2.93255C8.53984 3.1396 8.57106 3.37398 8.3672 3.63567C7.60454 4.10287 6.82328 4.53255 6.02345 4.92474C5.87673 4.9178 5.75954 4.85527 5.67189 4.73724C5.64062 3.79974 5.64062 2.86224 5.67189 1.92474C5.70423 1.83801 5.75889 1.77551 5.83595 1.73724ZM6.39845 2.81536C6.38298 3.14497 6.39859 3.47309 6.44532 3.79974C6.73426 3.64751 7.01551 3.48344 7.28907 3.30755C6.99095 3.14292 6.69404 2.97885 6.39845 2.81536Z" fill="url(#paint6_linear_1984_1201)"/>
<defs>
<linearGradient id="paint0_linear_1984_1201" x1="-0.275146" y1="-9.36907e-07" x2="27.7721" y2="11.5921" gradientUnits="userSpaceOnUse">
<stop offset="0.11" stop-color="#60D7AD"/>
<stop offset="0.76" stop-color="#213C3A"/>
</linearGradient>
<linearGradient id="paint1_linear_1984_1201" x1="14.8888" y1="1.5" x2="16.6398" y2="2.25618" gradientUnits="userSpaceOnUse">
<stop offset="0.11" stop-color="#60D7AD"/>
<stop offset="0.76" stop-color="#213C3A"/>
</linearGradient>
<linearGradient id="paint2_linear_1984_1201" x1="7.14111" y1="7.66113" x2="17.1594" y2="12.1872" gradientUnits="userSpaceOnUse">
<stop offset="0.11" stop-color="#60D7AD"/>
<stop offset="0.76" stop-color="#213C3A"/>
</linearGradient>
<linearGradient id="paint3_linear_1984_1201" x1="8.98099" y1="9.72363" x2="9.86366" y2="12.0343" gradientUnits="userSpaceOnUse">
<stop offset="0.11" stop-color="#60D7AD"/>
<stop offset="0.76" stop-color="#213C3A"/>
</linearGradient>
<linearGradient id="paint4_linear_1984_1201" x1="8.96897" y1="11.5049" x2="9.84833" y2="13.8185" gradientUnits="userSpaceOnUse">
<stop offset="0.11" stop-color="#60D7AD"/>
<stop offset="0.76" stop-color="#213C3A"/>
</linearGradient>
<linearGradient id="paint5_linear_1984_1201" x1="10.9009" y1="18.3896" x2="12.2303" y2="18.9581" gradientUnits="userSpaceOnUse">
<stop offset="0.11" stop-color="#60D7AD"/>
<stop offset="0.76" stop-color="#213C3A"/>
</linearGradient>
<linearGradient id="paint6_linear_1984_1201" x1="5.61428" y1="1.73437" x2="9.16228" y2="3.1038" gradientUnits="userSpaceOnUse">
<stop offset="0.11" stop-color="#60D7AD"/>
<stop offset="0.76" stop-color="#213C3A"/>
</linearGradient>
</defs>
</svg>
