<svg width="26" height="24" viewBox="0 0 26 24" fill="none" xmlns="http://www.w3.org/2000/svg">
<path opacity="0.932" fill-rule="evenodd" clip-rule="evenodd" d="M11.9123 1.10582e-05C17.3232 -0.00586691 21.3536 2.33157 24.0034 7.01232C25.9437 10.954 26.0812 14.9586 24.4159 19.0261C24.1658 19.5264 23.9165 20.0248 23.6683 20.5213C24.1468 21.4257 24.0093 22.2249 23.2558 22.9189C22.3545 23.4015 21.5553 23.2726 20.8582 22.5322C20.3713 21.629 20.5002 20.8298 21.2449 20.1346C21.7679 19.8057 22.3179 19.7455 22.8949 19.9542C24.6528 16.9336 25.1255 13.7196 24.3128 10.3122C23.2418 6.32022 20.8271 3.47576 17.0685 1.77887C13.7923 0.494585 10.5612 0.597707 7.37497 2.08824C7.57033 2.96412 7.27814 3.61722 6.49843 4.04756C6.01721 4.21941 5.53594 4.21941 5.05472 4.04756C4.9385 3.97657 4.82682 3.89923 4.71957 3.81553C1.47941 6.81623 0.293504 10.4943 1.16185 14.8496C1.67763 16.8966 2.68307 18.6497 4.17818 20.1088C4.80774 19.7763 5.44364 19.7677 6.08594 20.0831C6.71246 20.5617 6.93593 21.189 6.75624 21.965C8.87576 23.0591 11.1101 23.377 13.4592 22.9189C16.9311 22.1444 19.3975 20.1422 20.8582 16.9121C21.4814 15.334 21.6962 13.7012 21.5027 12.0137C20.6913 11.9649 20.1671 11.5524 19.9301 10.7763C19.7893 10.0465 20.0042 9.45353 20.5746 8.99742C18.5057 5.23857 15.3261 3.55426 11.0358 3.94444C8.25125 4.44525 6.12868 5.89752 4.66801 8.30135C3.24445 11.0599 3.26164 13.8098 4.71957 16.5511C6.75469 19.7514 9.65072 21.0147 13.4076 20.3409C14.1374 20.1564 14.8248 19.8728 15.4701 19.4901C15.6394 19.7202 15.777 19.9694 15.8826 20.2377C14.892 20.8611 13.8092 21.2392 12.6342 21.3721C8.49555 21.6536 5.47922 19.9607 3.58523 16.2933C2.21275 13.0204 2.50492 9.90959 4.46177 6.96076C6.85606 3.93795 9.9755 2.64033 13.8201 3.0679C17.287 3.68288 19.8135 5.55629 21.3996 8.68806C22.7596 8.72477 23.3697 9.42084 23.23 10.7763C23.0806 11.2694 22.7798 11.6389 22.3277 11.8848C22.7634 16.3926 21.0963 19.8816 17.3263 22.3518C14.171 24.1769 10.8711 24.4863 7.42653 23.2799C7.02574 23.1291 6.63904 22.9486 6.2664 22.7385C5.95791 23.0333 5.58838 23.1708 5.15784 23.1509C4.13093 23.0952 3.56376 22.5538 3.45632 21.5268C3.48909 21.3089 3.54065 21.0941 3.61101 20.8823C0.591172 17.7598 -0.534577 14.0474 0.233755 9.74506C0.814818 7.10441 2.12103 4.9045 4.1524 3.14524C3.97654 2.39584 4.15701 1.75133 4.69379 1.2117C5.4669 0.694085 6.22309 0.719866 6.96248 1.28904C8.53685 0.544837 10.1868 0.115162 11.9123 1.10582e-05ZM5.51877 1.75309C6.40897 1.74054 6.70973 2.15303 6.42109 2.99056C6.09878 3.32625 5.72924 3.38641 5.31252 3.17102C4.97681 2.8487 4.91669 2.47918 5.13206 2.06246C5.24106 1.92732 5.36996 1.8242 5.51877 1.75309ZM21.2965 9.59038C22.1867 9.57785 22.4874 9.99034 22.1988 10.8278C21.8765 11.1636 21.5069 11.2237 21.0902 11.0083C20.7545 10.686 20.6944 10.3165 20.9098 9.89974C21.0188 9.7646 21.1477 9.66148 21.2965 9.59038ZM4.90004 20.7276C5.79024 20.715 6.09099 21.1275 5.80235 21.965C5.48005 22.3008 5.11051 22.3609 4.69379 22.1455C4.35809 21.8232 4.29794 21.4537 4.51333 21.0369C4.62233 20.9018 4.75124 20.7987 4.90004 20.7276ZM22.0183 20.7276C22.9085 20.715 23.2093 21.1275 22.9206 21.965C22.5983 22.3008 22.2288 22.3609 21.8121 22.1455C21.4764 21.8232 21.4162 21.4537 21.6316 21.0369C21.7406 20.9018 21.8695 20.7987 22.0183 20.7276Z" fill="url(#paint0_linear_1984_1208)"/>
<path opacity="0.939" fill-rule="evenodd" clip-rule="evenodd" d="M11.2688 5.88587C11.9087 5.86323 12.5446 5.88901 13.1766 5.96321C13.5166 6.18719 13.7057 6.50517 13.7438 6.91709C14.0716 7.03372 14.3895 7.17123 14.6977 7.32958C15.0916 6.99067 15.5299 6.93055 16.0125 7.14911C16.4008 7.5202 16.7703 7.90691 17.121 8.30924C17.282 8.76504 17.2047 9.16897 16.889 9.52092C17.0514 9.8274 17.1889 10.1453 17.3015 10.4748C17.7923 10.5088 18.1274 10.7494 18.3069 11.1967C18.3554 11.8362 18.3382 12.4722 18.2554 13.1044C18.0314 13.4444 17.7134 13.6335 17.3015 13.6716C17.1849 13.9994 17.0474 14.3173 16.889 14.6255C17.2279 15.0195 17.288 15.4577 17.0695 15.9403C16.6984 16.3286 16.3117 16.6981 15.9093 17.0488C15.4535 17.2098 15.0496 17.1325 14.6977 16.8168C14.3895 16.9752 14.0716 17.1127 13.7438 17.2293C13.7098 17.7201 13.4692 18.0552 13.0219 18.2348C12.3824 18.2832 11.7464 18.266 11.1142 18.1832C10.7742 17.9592 10.5851 17.6412 10.547 17.2293C10.2175 17.1167 9.89959 16.9792 9.59311 16.8168C9.19913 17.1557 8.76086 17.2159 8.2783 16.9973C7.89 16.6262 7.52046 16.2395 7.16974 15.8372C7.00877 15.3814 7.08611 14.9774 7.40176 14.6255C7.24342 14.3173 7.10591 13.9994 6.98928 13.6716C6.49852 13.6376 6.16337 13.397 5.98383 12.9497C5.93542 12.3102 5.95259 11.6742 6.0354 11.042C6.25938 10.702 6.57735 10.5129 6.98928 10.4748C7.10189 10.1453 7.2394 9.8274 7.40176 9.52092C7.06285 9.12695 7.00273 8.68868 7.2213 8.20612C7.59239 7.81781 7.97909 7.44827 8.38143 7.09755C8.83723 6.93658 9.24116 7.01392 9.59311 7.32958C9.89959 7.16721 10.2175 7.0297 10.547 6.91709C10.5871 6.42184 10.8277 6.07809 11.2688 5.88587ZM11.5782 6.71084C11.5283 7.09121 11.3564 7.40919 11.0626 7.66472C10.5793 7.86793 10.0895 8.04839 9.59311 8.20612C9.31164 8.15981 9.05383 8.05669 8.8197 7.89675C8.52977 8.13501 8.25479 8.39282 7.99472 8.67017C8.11424 8.94612 8.20875 9.23832 8.2783 9.54671C8.26067 9.66875 8.23489 9.78904 8.20096 9.90763C8.02823 10.2873 7.85638 10.6654 7.68535 11.042C7.43337 11.2796 7.14123 11.4343 6.80881 11.506C6.77442 11.8841 6.77442 12.2623 6.80881 12.6404C7.04579 12.7109 7.27781 12.8055 7.50489 12.924C7.61879 13.0205 7.7133 13.1323 7.78847 13.2591C7.89582 13.5983 8.03329 13.9248 8.20096 14.2388C8.22674 14.3677 8.25252 14.4966 8.2783 14.6255C8.232 14.9069 8.12888 15.1648 7.96894 15.3989C8.2072 15.6888 8.46501 15.9638 8.74235 16.2239C9.01831 16.1044 9.31051 16.0098 9.61889 15.9403C10.1042 16.1054 10.5855 16.2859 11.0626 16.4817C11.33 16.7417 11.5019 17.0511 11.5782 17.4098C11.9563 17.4442 12.3345 17.4442 12.7126 17.4098C12.7889 17.0511 12.9608 16.7417 13.2282 16.4817C13.7115 16.2785 14.2013 16.098 14.6977 15.9403C14.9791 15.9866 15.2369 16.0897 15.4711 16.2496C15.761 16.0114 16.036 15.7536 16.2961 15.4762C16.1765 15.2003 16.082 14.9081 16.0125 14.5997C16.1776 14.1143 16.3581 13.6331 16.5539 13.156C16.8018 12.8676 17.1112 12.6957 17.482 12.6404C17.5164 12.2623 17.5164 11.8841 17.482 11.506C17.1233 11.4297 16.8139 11.2578 16.5539 10.9904C16.3512 10.5079 16.1707 10.018 16.0125 9.52092C16.0302 9.2708 16.1247 9.05595 16.2961 8.87641C16.3304 8.80768 16.3304 8.7389 16.2961 8.67017C16.0469 8.42097 15.7976 8.17173 15.5484 7.92253C15.2789 8.03457 14.9953 8.12908 14.6977 8.20612C14.1766 8.04442 13.6696 7.84674 13.1766 7.61316C12.939 7.36118 12.7843 7.06904 12.7126 6.73662C12.3348 6.71084 11.9567 6.70229 11.5782 6.71084Z" fill="url(#paint1_linear_1984_1208)"/>
<path opacity="0.939" fill-rule="evenodd" clip-rule="evenodd" d="M11.5291 8.37482C13.4386 8.20766 14.805 8.98108 15.6282 10.6951C16.2224 12.5734 15.7326 14.0944 14.1588 15.2582C12.3137 16.2134 10.6724 15.947 9.23467 14.459C8.38922 13.3076 8.2002 12.053 8.6675 10.6951C9.22503 9.42481 10.1789 8.65139 11.5291 8.37482ZM11.7354 9.04511C10.8655 9.23553 9.99757 9.92305 9.54404 10.6951C8.9384 11.9973 9.23467 13.4313 10.3175 14.4075C10.3346 14.0294 10.2487 13.445 10.2659 13.0669C10.3723 12.5651 10.6731 12.2472 11.1682 12.113C11.0724 12.0327 10.995 11.9382 10.9362 11.8294C10.6081 10.9743 10.8401 10.3298 11.6323 9.89587C12.4373 9.65854 13.0303 9.90778 13.4111 10.6435C13.5844 11.191 13.4899 11.6808 13.1275 12.113C13.5401 12.2163 13.8237 12.4655 13.9783 12.8606C14.0407 13.3044 14.0751 13.8544 14.0814 14.3043C14.8249 13.5832 15.2202 12.5004 15.0611 11.4685C14.5964 9.78708 13.4878 8.91054 11.7354 9.04511ZM11.9932 10.6951C11.8933 10.7689 11.7988 10.8548 11.7096 10.9529C11.6752 11.0904 11.6752 11.2279 11.7096 11.3654C11.9443 11.7248 12.2192 11.7592 12.5346 11.4685C12.7113 10.9658 12.5309 10.708 11.9932 10.6951ZM11.4776 12.761C11.2993 12.7924 11.052 12.9673 11.0393 13.2216C11.0135 13.7369 11.005 14.3556 11.0135 14.8715C11.7096 15.2102 12.6377 15.2102 13.2822 14.8715C13.3056 14.3162 13.2798 13.6631 13.2049 13.1184C13.1619 13.0755 13.2049 12.8606 12.9471 12.761C12.4693 12.6895 11.9932 12.6704 11.4776 12.761Z" fill="url(#paint2_linear_1984_1208)"/>
<defs>
<linearGradient id="paint0_linear_1984_1208" x1="-0.306303" y1="-9.36907e-07" x2="29.8636" y2="13.8814" gradientUnits="userSpaceOnUse">
<stop offset="0.11" stop-color="#60D7AD"/>
<stop offset="0.76" stop-color="#213C3A"/>
</linearGradient>
<linearGradient id="paint1_linear_1984_1208" x1="5.80877" y1="5.87793" x2="20.7249" y2="12.3161" gradientUnits="userSpaceOnUse">
<stop offset="0.11" stop-color="#60D7AD"/>
<stop offset="0.76" stop-color="#213C3A"/>
</linearGradient>
<linearGradient id="paint2_linear_1984_1208" x1="8.32867" y1="8.35254" x2="17.3154" y2="12.2277" gradientUnits="userSpaceOnUse">
<stop offset="0.11" stop-color="#60D7AD"/>
<stop offset="0.76" stop-color="#213C3A"/>
</linearGradient>
</defs>
</svg>
