<svg width="25" height="24" viewBox="0 0 25 24" fill="none" xmlns="http://www.w3.org/2000/svg">
<path opacity="0.949" fill-rule="evenodd" clip-rule="evenodd" d="M16.2653 0C16.4215 0 16.5778 0 16.734 0C16.8798 0.102452 16.9814 0.243077 17.0387 0.421875C17.4085 1.45824 17.7913 2.48949 18.1871 3.51563C19.2196 3.94583 20.2665 4.34426 21.3278 4.71094C21.7473 4.87013 21.8645 5.15916 21.6793 5.57813C21.6224 5.65074 21.5521 5.70539 21.4684 5.74219C20.3676 6.14288 19.2738 6.55697 18.1871 6.98438C17.7749 8.05706 17.3764 9.13519 16.9918 10.2188C16.7791 10.5278 16.5057 10.5981 16.1715 10.4297C16.0989 10.3728 16.0442 10.3025 16.0074 10.2188C15.6228 9.13519 15.2244 8.05706 14.8121 6.98438C13.7254 6.55697 12.6317 6.14288 11.5309 5.74219C11.3221 5.64511 11.2284 5.48105 11.2496 5.25C11.2245 4.99556 11.3338 4.8315 11.5778 4.75781C12.6666 4.3663 13.7447 3.95224 14.8121 3.51563C15.228 2.38513 15.6577 1.26013 16.1012 0.140625C16.1549 0.0873572 16.2096 0.0404823 16.2653 0ZM16.4528 2.10938C16.5113 2.113 16.5504 2.14425 16.5699 2.20313C16.8137 2.9507 17.1028 3.67726 17.4371 4.38281C18.1924 4.67094 18.9424 4.96781 19.6871 5.27344C18.9227 5.53074 18.1727 5.81981 17.4371 6.14063C17.3733 6.21225 17.3186 6.29039 17.2731 6.375C17.0289 7.06842 16.7711 7.75589 16.4996 8.4375C16.2281 7.75589 15.9703 7.06842 15.7262 6.375C15.6806 6.29039 15.6259 6.21225 15.5621 6.14063C14.8266 5.81981 14.0766 5.53074 13.3121 5.27344C13.9878 4.98267 14.6753 4.71703 15.3746 4.47656C15.4725 4.43943 15.5584 4.38474 15.6324 4.3125C15.9293 3.58607 16.2027 2.8517 16.4528 2.10938Z" fill="url(#paint0_linear_1984_1190)"/>
<path opacity="0.949" fill-rule="evenodd" clip-rule="evenodd" d="M20.7593 0.748388C21.0989 0.663764 21.3411 0.773142 21.4859 1.07651C21.5093 1.29471 21.5171 1.51346 21.5093 1.73276C21.8029 1.70333 22.0841 1.74239 22.3531 1.84995C22.465 1.95804 22.5119 2.09085 22.4937 2.24839C22.5148 2.43277 22.4523 2.5812 22.3062 2.6937C22.0463 2.7595 21.7807 2.78294 21.5093 2.76401C21.5388 3.05756 21.4997 3.33881 21.3921 3.60776C21.1001 3.85349 20.8188 3.83786 20.5484 3.56089C20.4851 3.29972 20.4616 3.03409 20.4781 2.76401C20.2067 2.78294 19.9411 2.7595 19.6812 2.6937C19.5029 2.50193 19.4481 2.27536 19.5171 2.01401C19.5758 1.87898 19.6773 1.79304 19.8218 1.7562C20.04 1.7328 20.2588 1.72499 20.4781 1.73276C20.4703 1.51346 20.4781 1.29471 20.5015 1.07651C20.5469 0.930235 20.6328 0.820857 20.7593 0.748388Z" fill="url(#paint1_linear_1984_1190)"/>
<path opacity="0.951" fill-rule="evenodd" clip-rule="evenodd" d="M18.8906 24C12.9688 24 7.04686 24 1.125 24C0.547284 23.8285 0.172283 23.4535 0 22.875C0 16.4531 0 10.0313 0 3.60938C0.204202 3.02252 0.610453 2.65533 1.21875 2.50781C5.12499 2.47656 9.03127 2.47656 12.9375 2.50781C13.2947 2.73165 13.3572 3.02072 13.125 3.375C13.0704 3.4258 13.0079 3.46486 12.9375 3.49219C9.09375 3.50781 5.25 3.52344 1.40625 3.53906C1.24514 3.59086 1.12795 3.69242 1.05469 3.84375C1.02344 7.125 1.02344 10.4063 1.05469 13.6875C1.92188 12.8203 2.78906 11.9531 3.65625 11.0859C3.85026 10.9521 4.05339 10.9364 4.26563 11.0391C5.10089 11.8352 5.92899 12.6399 6.75 13.4531C8.40038 11.8106 10.0566 10.1777 11.7188 8.55469C12.0006 8.43366 12.2505 8.48053 12.4688 8.69531C14.6328 10.8594 16.7969 13.0234 18.9609 15.1875C18.9765 14.3906 18.9922 13.5938 19.0078 12.7969C19.3359 12.3594 19.6641 12.3594 19.9922 12.7969C20.0235 16.1406 20.0235 19.4844 19.9922 22.8281C19.8231 23.4111 19.4559 23.8017 18.8906 24ZM11.9531 9.79688C14.3086 12.082 16.6445 14.3945 18.9609 16.7344C19.0071 18.7372 18.9914 20.7372 18.9141 22.7344C18.8417 22.8224 18.7558 22.8927 18.6563 22.9453C12.875 22.9766 7.09374 22.9766 1.3125 22.9453C1.17747 22.8867 1.09153 22.7851 1.05469 22.6406C1.02344 22 1.02344 21.3594 1.05469 20.7188C4.69694 17.0843 8.32974 13.4437 11.9531 9.79688ZM3.9375 12.2813C4.63724 12.9028 5.30911 13.5591 5.95313 14.25C4.32877 15.8978 2.69596 17.5384 1.05469 19.1719C1.02344 17.8438 1.02344 16.5156 1.05469 15.1875C2.02508 14.2249 2.98602 13.2562 3.9375 12.2813Z" fill="url(#paint2_linear_1984_1190)"/>
<path opacity="0.946" fill-rule="evenodd" clip-rule="evenodd" d="M6.56911 5.2503C7.79241 5.12318 8.59711 5.6388 8.98317 6.79718C9.144 8.0096 8.65181 8.81426 7.50661 9.21124C6.43059 9.41149 5.64155 9.02866 5.13942 8.0628C4.82334 7.15868 5.00302 6.36958 5.67849 5.69562C5.95402 5.49532 6.25092 5.34691 6.56911 5.2503ZM6.75661 6.28155C7.35581 6.21762 7.75425 6.4676 7.95192 7.03155C8.02345 7.73196 7.71094 8.13822 7.01442 8.2503C6.17283 8.06721 5.89158 7.56719 6.17067 6.7503C6.32025 6.53172 6.51558 6.37544 6.75661 6.28155Z" fill="url(#paint3_linear_1984_1190)"/>
<path opacity="0.952" fill-rule="evenodd" clip-rule="evenodd" d="M24.0114 9.28217C24.0114 9.42279 24.0114 9.56342 24.0114 9.70404C23.9266 9.82775 23.8172 9.92932 23.6833 10.0087C23.164 10.187 22.6484 10.3745 22.1364 10.5712C21.883 11.128 21.6564 11.6983 21.4567 12.2822C21.2183 12.5454 20.9449 12.5845 20.6364 12.3994C20.3797 11.8251 20.1453 11.2392 19.9333 10.6415C19.3463 10.3872 18.7525 10.145 18.152 9.91498C17.8982 9.61826 17.9138 9.33701 18.1989 9.07123C18.7697 8.83671 19.3478 8.62578 19.9333 8.43842C20.1206 7.85295 20.3316 7.27484 20.5661 6.70404C20.8303 6.41075 21.1115 6.39509 21.4098 6.65717C21.6479 7.2544 21.89 7.84812 22.1364 8.43842C22.6695 8.62911 23.2007 8.82443 23.7302 9.02436C23.8484 9.08811 23.9422 9.17403 24.0114 9.28217ZM20.9645 8.57904C21.0802 8.79879 21.2052 9.01756 21.3395 9.23529C21.5353 9.33453 21.7384 9.4205 21.9489 9.49311C21.7668 9.57997 21.5793 9.65811 21.3864 9.72748C21.3317 9.78218 21.277 9.83684 21.2223 9.89154C21.153 10.0844 21.0748 10.2719 20.988 10.454C20.9229 10.2457 20.8447 10.0426 20.7536 9.84467C20.5362 9.70972 20.3096 9.59253 20.0739 9.49311C20.602 9.41032 20.8989 9.10564 20.9645 8.57904Z" fill="url(#paint4_linear_1984_1190)"/>
<defs>
<linearGradient id="paint0_linear_1984_1190" x1="11.1201" y1="-4.10631e-07" x2="23.7944" y2="5.4733" gradientUnits="userSpaceOnUse">
<stop offset="0.11" stop-color="#60D7AD"/>
<stop offset="0.76" stop-color="#213C3A"/>
</linearGradient>
<linearGradient id="paint1_linear_1984_1190" x1="19.4522" y1="0.720703" x2="23.0974" y2="2.26871" gradientUnits="userSpaceOnUse">
<stop offset="0.11" stop-color="#60D7AD"/>
<stop offset="0.76" stop-color="#213C3A"/>
</linearGradient>
<linearGradient id="paint2_linear_1984_1190" x1="-0.23977" y1="2.48437" x2="24.3996" y2="12.3834" gradientUnits="userSpaceOnUse">
<stop offset="0.11" stop-color="#60D7AD"/>
<stop offset="0.76" stop-color="#213C3A"/>
</linearGradient>
<linearGradient id="paint3_linear_1984_1190" x1="4.94007" y1="5.23145" x2="9.79213" y2="7.32335" gradientUnits="userSpaceOnUse">
<stop offset="0.11" stop-color="#60D7AD"/>
<stop offset="0.76" stop-color="#213C3A"/>
</linearGradient>
<linearGradient id="paint4_linear_1984_1190" x1="17.9003" y1="6.47168" x2="25.1781" y2="9.61285" gradientUnits="userSpaceOnUse">
<stop offset="0.11" stop-color="#60D7AD"/>
<stop offset="0.76" stop-color="#213C3A"/>
</linearGradient>
</defs>
</svg>
