<svg width="25" height="25" viewBox="0 0 25 25" fill="none" xmlns="http://www.w3.org/2000/svg">
<path opacity="0.939" fill-rule="evenodd" clip-rule="evenodd" d="M12.1582 0C12.3861 0 12.6139 0 12.8418 0C13.0403 0.0912798 13.2356 0.197074 13.4277 0.317383C15.9017 2.01009 18.3756 3.7028 20.8496 5.39551C21.6846 5.88208 21.888 6.55752 21.46 7.42188C20.9415 7.98164 20.3474 8.0793 19.6777 7.71484C19.6208 8.46299 19.6126 9.21172 19.6533 9.96094C21.0854 9.39673 22.5258 8.85151 23.9746 8.3252C24.4383 8.26406 24.7801 8.43496 25 8.83789C25 12.5163 25 16.1947 25 19.873C24.8129 20.2862 24.4874 20.4815 24.0234 20.459C23.5012 20.4785 23.0861 20.2832 22.7783 19.873C22.514 19.3606 22.2374 18.8561 21.9482 18.3594C21.1136 18.7237 20.2754 19.0818 19.4336 19.4336C19.4173 19.458 19.401 19.4824 19.3848 19.5068C19.6445 20.4521 19.3352 21.1356 18.457 21.5576C18.1076 21.7022 17.7576 21.7104 17.4072 21.582C17.1596 22.4509 16.5818 22.8904 15.6738 22.9004C15.474 23.7417 14.9369 24.1242 14.0625 24.0479C13.907 24.5207 13.5978 24.838 13.1348 25C12.8581 25 12.5814 25 12.3047 25C11.798 24.7253 11.3342 24.3835 10.9131 23.9746C10.3549 24.5914 9.72832 24.6646 9.0332 24.1943C8.90024 24.0451 8.78633 23.8823 8.69141 23.7061C7.87588 23.8435 7.27368 23.5505 6.88477 22.8271C6.06372 22.9933 5.44521 22.7166 5.0293 21.9971C3.72012 22.1202 3.12604 21.5261 3.24707 20.2148C3.0414 20.1242 2.83795 20.0266 2.63672 19.9219C2.47001 20.2391 2.29098 20.5483 2.09961 20.8496C1.6328 21.2604 1.09569 21.3825 0.488281 21.2158C0.246939 21.113 0.0841792 20.9421 0 20.7031C0 16.7643 0 12.8255 0 8.88672C0.184882 8.46768 0.510403 8.28052 0.976562 8.3252C2.44174 8.88286 3.89844 9.46064 5.34668 10.0586C5.38735 9.27686 5.3792 8.49561 5.32227 7.71484C4.62264 8.08784 4.01229 7.97393 3.49121 7.37305C3.12533 6.51758 3.34505 5.8584 4.15039 5.39551C6.62437 3.7028 9.09829 2.01009 11.5723 0.317383C11.7644 0.197074 11.9597 0.0912798 12.1582 0ZM12.3535 0.878906C12.5308 0.862324 12.6936 0.903013 12.8418 1.00098C15.4212 2.78713 18.0091 4.56122 20.6055 6.32324C20.8659 6.55112 20.8659 6.77895 20.6055 7.00684C20.4524 7.04541 20.306 7.02915 20.166 6.95801C17.692 5.26528 15.2181 3.57259 12.7441 1.87988C12.5814 1.78223 12.4186 1.78223 12.2559 1.87988C9.71577 3.63802 7.16045 5.37144 4.58984 7.08008C4.15272 6.92295 4.08762 6.67065 4.39453 6.32324C7.0562 4.51515 9.70923 2.70038 12.3535 0.878906ZM12.4023 2.83203C12.5801 2.86377 12.7428 2.93701 12.8906 3.05176C14.8313 4.40056 16.7764 5.74331 18.7256 7.08008C18.7582 8.18686 18.7582 9.2936 18.7256 10.4004C18.2966 10.8182 18.199 11.3064 18.4326 11.8652C18.5709 12.1094 18.7093 12.3535 18.8477 12.5977C18.3586 12.8383 17.8459 13.0011 17.3096 13.0859C17.0081 13.0939 16.7396 13.0044 16.5039 12.8174C15.8941 12.3417 15.2757 11.8778 14.6484 11.4258C14.6078 10.5962 14.5833 9.76611 14.5752 8.93555C14.4643 8.61299 14.2445 8.40952 13.916 8.3252C12.972 8.29263 12.028 8.29263 11.084 8.3252C10.7555 8.40952 10.5357 8.61299 10.4248 8.93555C10.4085 9.92837 10.3922 10.9212 10.376 11.9141C10.2417 12.1012 10.1196 12.2965 10.0098 12.5C9.32881 12.6362 8.64522 12.7664 7.95898 12.8906C7.41777 12.8388 6.90508 12.6923 6.4209 12.4512C6.55005 12.1418 6.6396 11.8163 6.68945 11.4746C6.67158 11.0972 6.53325 10.7716 6.27441 10.498C6.24185 9.35874 6.24185 8.21939 6.27441 7.08008C8.33306 5.68101 10.3757 4.26501 12.4023 2.83203ZM11.2793 9.17969C12.0931 9.17969 12.9069 9.17969 13.7207 9.17969C13.7369 9.71777 13.7207 10.2549 13.6719 10.791C12.847 10.4395 12.0576 10.5045 11.3037 10.9863C11.2793 10.3843 11.2711 9.78213 11.2793 9.17969ZM24.0723 9.17969C24.1292 12.6383 24.1373 16.1051 24.0967 19.5801C23.8644 19.5802 23.669 19.4988 23.5107 19.3359C22.0513 16.6694 20.6109 13.992 19.1895 11.3037C19.2179 11.1817 19.283 11.084 19.3848 11.0107C20.957 10.4113 22.5195 9.80093 24.0723 9.17969ZM0.878906 9.22852C2.50742 9.85562 4.11875 10.5229 5.71289 11.2305C5.75913 11.3066 5.79165 11.388 5.81055 11.4746C4.38427 14.376 2.94384 17.2731 1.48926 20.166C1.33183 20.3569 1.12837 20.4383 0.878906 20.4102C0.878906 16.683 0.878906 12.9557 0.878906 9.22852ZM12.4023 11.4746C12.766 11.4475 13.1078 11.5208 13.4277 11.6943C14.2741 12.3128 15.1205 12.9313 15.9668 13.5498C16.5538 13.9894 17.2048 14.1196 17.9199 13.9404C18.376 13.7885 18.8235 13.6176 19.2627 13.4277C20.0195 14.8112 20.7764 16.1947 21.5332 17.5781C20.6425 17.9619 19.7473 18.3362 18.8477 18.7012C16.8203 16.9467 14.8021 15.1808 12.793 13.4033C12.3371 13.236 12.1011 13.3907 12.085 13.8672C12.1579 14.0019 12.223 14.1321 12.2803 14.2578C11.7594 14.8438 11.2386 15.4297 10.7178 16.0156C10.3462 16.2967 10.0044 16.2642 9.69238 15.918C9.62559 15.7599 9.60933 15.5971 9.64355 15.4297C10.0045 14.5938 10.3789 13.7637 10.7666 12.9395C11.0296 12.4812 11.3633 12.0824 11.7676 11.7432C11.9747 11.6285 12.1863 11.539 12.4023 11.4746ZM5.95703 13.2324C6.679 13.596 7.44399 13.7669 8.25195 13.7451C8.65811 13.6639 9.06499 13.5906 9.47266 13.5254C9.26729 14.0503 9.04756 14.5711 8.81348 15.0879C8.61099 16.4316 9.18877 17.0908 10.5469 17.0654C10.698 17.0306 10.8445 16.9817 10.9863 16.9189C11.2533 16.7008 11.5056 16.4648 11.7432 16.2109C12.1488 15.7157 12.5802 15.2437 13.0371 14.7949C14.8022 16.3402 16.56 17.8946 18.3105 19.458C18.6559 19.791 18.6884 20.1491 18.4082 20.5322C18.1839 20.7311 17.9234 20.7962 17.627 20.7275C16.6867 19.9829 15.7753 19.2016 14.8926 18.3838C14.354 18.1899 14.118 18.3771 14.1846 18.9453C14.8699 19.5819 15.5698 20.2004 16.2842 20.8008C16.6334 21.4046 16.4706 21.7952 15.7959 21.9727C15.7037 21.9582 15.6142 21.9338 15.5273 21.8994C14.8777 21.2986 14.243 20.6802 13.623 20.0439C13.3511 19.8686 13.1151 19.9093 12.915 20.166C12.8751 20.3352 12.8915 20.4979 12.9639 20.6543C13.5335 21.224 14.1032 21.7936 14.6729 22.3633C14.8935 22.8413 14.7389 23.0773 14.209 23.0713C13.8687 22.7799 13.5432 22.4707 13.2324 22.1436C12.7352 21.9125 12.4829 22.067 12.4756 22.6074C12.7035 22.8678 12.9313 23.1283 13.1592 23.3887C13.213 23.9695 12.9607 24.1729 12.4023 23.999C12.0513 23.7049 11.6932 23.4201 11.3281 23.1445C11.7278 22.5457 11.7685 21.9272 11.4502 21.2891C11.1287 20.9456 10.7299 20.7666 10.2539 20.752C9.98105 19.9437 9.41138 19.5531 8.54492 19.5801C8.24463 18.6078 7.5936 18.2253 6.5918 18.4326C6.39668 18.5138 6.21763 18.6196 6.05469 18.75C5.28408 18.1258 4.55982 18.1747 3.88184 18.8965C3.80324 19.0704 3.71372 19.2331 3.61328 19.3848C3.40435 19.3128 3.20904 19.2152 3.02734 19.0918C4.00456 17.1374 4.9811 15.1842 5.95703 13.2324ZM4.93164 19.1895C5.25981 19.192 5.45513 19.3548 5.51758 19.6777C5.34331 20.181 5.09917 20.6448 4.78516 21.0693C4.29824 21.1961 4.07852 21.0089 4.12598 20.5078C4.2917 20.1275 4.47073 19.7532 4.66309 19.3848C4.75157 19.3126 4.84109 19.2476 4.93164 19.1895ZM6.93359 19.2383C7.47925 19.2548 7.71528 19.5315 7.6416 20.0684C7.3812 20.6217 7.12075 21.1751 6.86035 21.7285C6.48086 22.0724 6.13906 22.0399 5.83496 21.6309C5.77393 21.505 5.75762 21.3749 5.78613 21.2402C6.03315 20.6647 6.2936 20.0951 6.56738 19.5312C6.67061 19.4033 6.79268 19.3056 6.93359 19.2383ZM8.59375 20.5078C9.1709 20.4583 9.42319 20.7187 9.35059 21.2891C9.16821 21.8085 8.91592 22.2887 8.59375 22.7295C8.28848 22.8874 8.01992 22.8305 7.78809 22.5586C7.72788 22.4431 7.68721 22.321 7.66602 22.1924C7.84897 21.7205 8.05244 21.2566 8.27637 20.8008C8.3771 20.6917 8.48286 20.594 8.59375 20.5078ZM10.3027 21.6797C10.7023 21.6815 10.857 21.8768 10.7666 22.2656C10.5838 22.68 10.3885 23.0869 10.1807 23.4863C9.80874 23.6909 9.57275 23.5851 9.47266 23.1689C9.65273 22.7518 9.83989 22.3367 10.0342 21.9238C10.1028 21.8143 10.1923 21.7329 10.3027 21.6797Z" fill="url(#paint0_linear_1985_1236)"/>
<defs>
<linearGradient id="paint0_linear_1985_1236" x1="-0.299479" y1="-9.75945e-07" x2="29.8246" y2="13.0095" gradientUnits="userSpaceOnUse">
<stop offset="0.11" stop-color="#60D7AD"/>
<stop offset="0.76" stop-color="#213C3A"/>
</linearGradient>
</defs>
</svg>
