<svg width="24" height="24" viewBox="0 0 24 24" fill="none" xmlns="http://www.w3.org/2000/svg">
<path opacity="0.946" fill-rule="evenodd" clip-rule="evenodd" d="M11.5714 0C11.8571 0 12.1429 0 12.4286 0C12.4286 0.57143 12.4286 1.14286 12.4286 1.71429C16.1844 1.94394 19.0326 3.65823 20.9732 6.85714C21.7948 8.32238 22.2324 9.89379 22.2857 11.5714C22.8572 11.5714 23.4286 11.5714 24 11.5714C24 11.8571 24 12.1429 24 12.4286C23.4286 12.4286 22.8572 12.4286 22.2857 12.4286C22.0561 16.1844 20.3418 19.0326 17.1429 20.9732C15.6815 21.8086 14.1101 22.2461 12.4286 22.2857C12.4286 22.8572 12.4286 23.4286 12.4286 24C12.1429 24 11.8571 24 11.5714 24C11.5714 23.4286 11.5714 22.8572 11.5714 22.2857C7.81564 22.0561 4.96741 20.3418 3.02679 17.1429C2.19143 15.6815 1.75393 14.1101 1.71429 12.4286C1.14286 12.4286 0.57143 12.4286 0 12.4286C0 12.1429 0 11.8571 0 11.5714C0.57143 11.5714 1.14286 11.5714 1.71429 11.5714C1.94394 7.81564 3.65823 4.96741 6.85714 3.02679C8.32238 2.20514 9.89379 1.76764 11.5714 1.71429C11.5714 1.14286 11.5714 0.57143 11.5714 0ZM10.9286 2.625C11.1429 2.625 11.3571 2.625 11.5714 2.625C11.5714 3.17857 11.5714 3.73216 11.5714 4.28571C11.8571 4.28571 12.1429 4.28571 12.4286 4.28571C12.4286 3.73216 12.4286 3.17857 12.4286 2.625C16.1066 2.90346 18.7941 4.67132 20.4911 7.92857C21.0382 9.08159 21.3329 10.2959 21.375 11.5714C20.8214 11.5714 20.2678 11.5714 19.7143 11.5714C19.7143 11.8571 19.7143 12.1429 19.7143 12.4286C20.2678 12.4286 20.8214 12.4286 21.375 12.4286C21.0426 16.4474 19.0247 19.2421 15.3214 20.8125C14.3879 21.1617 13.4237 21.3492 12.4286 21.375C12.4286 20.8214 12.4286 20.2678 12.4286 19.7143C12.1429 19.7143 11.8571 19.7143 11.5714 19.7143C11.5714 20.2678 11.5714 20.8214 11.5714 21.375C7.89343 21.0965 5.20591 19.3287 3.50893 16.0714C2.96174 14.9184 2.6671 13.7041 2.625 12.4286C3.17857 12.4286 3.73216 12.4286 4.28571 12.4286C4.28571 12.1429 4.28571 11.8571 4.28571 11.5714C3.73216 11.5714 3.17857 11.5714 2.625 11.5714C2.88217 8.04032 4.54286 5.40637 7.60714 3.66964C8.661 3.13074 9.76816 2.78253 10.9286 2.625Z" fill="url(#paint0_linear_1984_1188)"/>
<path opacity="0.933" fill-rule="evenodd" clip-rule="evenodd" d="M11.4898 7.7136C13.0787 7.55632 14.1054 8.23491 14.5701 9.74932C14.7534 11.3393 14.0837 12.3661 12.5612 12.8297C10.9712 13.0129 9.94444 12.3433 9.48083 10.8207C9.30399 9.22619 9.97364 8.1905 11.4898 7.7136ZM11.9719 8.57075C11.1768 8.66134 10.65 9.08991 10.3915 9.85646C10.2357 10.8758 10.6375 11.5632 11.5969 11.919C12.6465 12.0777 13.334 11.6581 13.6594 10.66C13.779 9.41348 13.2165 8.71705 11.9719 8.57075Z" fill="url(#paint1_linear_1984_1188)"/>
<path opacity="0.932" fill-rule="evenodd" clip-rule="evenodd" d="M11.1965 5.57078C14.042 5.34621 16.2116 6.43548 17.7054 8.83864C18.5337 10.4459 18.7123 12.1245 18.2411 13.8744C17.3543 16.4297 15.5775 17.9385 12.9108 18.4011C10.1981 18.6561 8.08201 17.6651 6.56257 15.4279C5.57996 13.762 5.34784 11.9941 5.86614 10.1244C6.7656 7.57291 8.54241 6.05507 11.1965 5.57078ZM11.8394 6.42792C11.3391 6.48471 10.8391 6.58296 10.3394 6.72257C8.22639 7.51451 6.96746 9.02341 6.56257 11.2494C6.35948 13.1588 6.94876 14.7659 8.33042 16.0708C8.849 14.4941 9.92932 13.5745 11.5715 13.3119C13.6717 13.1818 15.0735 14.1014 15.7769 16.0708C15.9846 15.8893 16.181 15.6929 16.3661 15.4815C17.6505 13.757 17.9183 11.882 17.1697 9.8565C16.1027 7.62991 14.3259 6.48707 11.8394 6.42792ZM11.6786 14.1958C10.3073 14.4867 9.45017 15.317 9.10721 16.6869C11.0715 17.8654 13.0358 17.8654 15.0001 16.6869C14.5484 14.9874 13.4412 14.157 11.6786 14.1958Z" fill="url(#paint2_linear_1984_1188)"/>
<defs>
<linearGradient id="paint0_linear_1984_1188" x1="-0.2875" y1="-9.36907e-07" x2="28.6316" y2="12.4891" gradientUnits="userSpaceOnUse">
<stop offset="0.11" stop-color="#60D7AD"/>
<stop offset="0.76" stop-color="#213C3A"/>
</linearGradient>
<linearGradient id="paint1_linear_1984_1188" x1="9.39147" y1="7.69141" x2="15.6009" y2="10.362" gradientUnits="userSpaceOnUse">
<stop offset="0.11" stop-color="#60D7AD"/>
<stop offset="0.76" stop-color="#213C3A"/>
</linearGradient>
<linearGradient id="paint2_linear_1984_1188" x1="5.44313" y1="5.54199" x2="20.9863" y2="12.2553" gradientUnits="userSpaceOnUse">
<stop offset="0.11" stop-color="#60D7AD"/>
<stop offset="0.76" stop-color="#213C3A"/>
</linearGradient>
</defs>
</svg>
