<svg width="25" height="24" viewBox="0 0 25 24" fill="none" xmlns="http://www.w3.org/2000/svg">
<path opacity="0.925" fill-rule="evenodd" clip-rule="evenodd" d="M10.8705 0C11.4642 0 12.0579 0 12.6517 0C15.7787 0.470914 17.9662 2.15842 19.2142 5.0625C21.5327 5.26561 23.1655 6.42183 24.1126 8.53125C24.2677 8.94905 24.3849 9.37092 24.4642 9.79687C24.4642 10.2812 24.4642 10.7656 24.4642 11.25C24.2822 12.4286 23.7823 13.452 22.9642 14.3203C22.5386 14.471 22.3432 14.3226 22.3783 13.875C23.706 12.3928 24.0497 10.7053 23.4095 8.8125C22.802 7.42369 21.7786 6.49401 20.3392 6.02344C19.8088 5.91548 19.2775 5.82173 18.7455 5.74219C18.7064 5.70314 18.6673 5.66405 18.6283 5.625C17.381 2.54327 15.0919 0.902644 11.7611 0.703125C9.53541 0.777094 7.69167 1.64428 6.22983 3.30469C5.73764 3.4375 5.55797 3.25781 5.69077 2.76562C7.07512 1.21008 8.80167 0.288201 10.8705 0Z" fill="url(#paint0_linear_1767_1105)"/>
<path opacity="0.948" fill-rule="evenodd" clip-rule="evenodd" d="M0.460938 12.3755C0.460938 11.938 0.460938 11.5004 0.460938 11.063C0.83903 9.23151 1.93278 8.05963 3.74219 7.54733C3.83822 6.33487 4.17416 5.19426 4.75 4.12546C5.00507 3.918 5.22381 3.94925 5.40625 4.21921C5.43752 4.31296 5.43752 4.40671 5.40625 4.50046C4.84188 5.53747 4.54501 6.64682 4.51562 7.82858C4.48432 8.01604 4.38276 8.14883 4.21094 8.22702C2.32641 8.63474 1.32641 9.79883 1.21094 11.7192C1.31525 13.6237 2.29962 14.7721 4.16406 15.1645C9.21109 15.1856 14.258 15.2012 19.3047 15.2114C19.6877 15.1973 20.0627 15.1348 20.4297 15.0239C20.7509 14.883 21.079 14.7658 21.4141 14.6723C21.699 14.6997 21.8162 14.8559 21.7656 15.1411C21.6355 15.3356 21.4558 15.4685 21.2266 15.5395C20.4023 15.8934 19.543 16.0262 18.6484 15.938C18.6283 16.597 18.6518 17.2532 18.7187 17.9067C18.7886 17.9772 18.8746 18.0163 18.9766 18.0239C19.1791 18.0473 19.3822 18.0551 19.5859 18.0473C19.7145 17.5828 20.0114 17.2781 20.4766 17.1333C21.4633 16.9958 22.0102 17.4177 22.1172 18.3989C22.0102 19.3801 21.4633 19.802 20.4766 19.6645C20.0114 19.5197 19.7145 19.215 19.5859 18.7505C19.273 18.7582 18.9605 18.7505 18.6484 18.727C18.2969 18.6254 18.0703 18.3989 17.9687 18.0473C17.9453 17.3444 17.9375 16.6413 17.9453 15.938C17.2109 15.938 16.4766 15.938 15.7422 15.938C15.7344 17.4068 15.7422 18.8755 15.7656 20.3442C15.7733 20.4462 15.8123 20.5321 15.8828 20.602C16.1447 20.6624 16.4104 20.6859 16.6797 20.6723C16.8083 20.2078 17.1051 19.9031 17.5703 19.7583C18.557 19.6208 19.1039 20.0427 19.2109 21.0239C19.1039 22.0051 18.557 22.427 17.5703 22.2895C17.1051 22.1447 16.8083 21.84 16.6797 21.3755C16.3163 21.394 15.9569 21.3706 15.6016 21.3051C15.3207 21.1805 15.141 20.9696 15.0625 20.6723C15.0391 19.0943 15.0312 17.5161 15.0391 15.938C14.2891 15.938 13.5391 15.938 12.7891 15.938C12.7969 17.0474 12.7891 18.1568 12.7656 19.2661C12.5469 19.5161 12.3281 19.5161 12.1094 19.2661C12.0859 18.1568 12.0781 17.0474 12.0859 15.938C11.3359 15.938 10.5859 15.938 9.83594 15.938C9.84372 16.2977 9.83594 16.6571 9.8125 17.0161C9.59373 17.2661 9.37502 17.2661 9.15625 17.0161C9.13281 16.6571 9.12503 16.2977 9.13281 15.938C8.39842 15.938 7.66408 15.938 6.92969 15.938C6.93752 16.6413 6.92969 17.3444 6.90625 18.0473C6.80467 18.3989 6.57812 18.6254 6.22656 18.727C5.91447 18.7505 5.60195 18.7582 5.28906 18.7505C5.16048 19.215 4.86361 19.5197 4.39844 19.6645C3.4117 19.802 2.86482 19.3801 2.75781 18.3989C2.86482 17.4177 3.4117 16.9958 4.39844 17.1333C4.86361 17.2781 5.16048 17.5828 5.28906 18.0473C5.55836 18.0609 5.824 18.0374 6.08594 17.977C6.11528 17.9419 6.13872 17.9028 6.15625 17.8598C6.22403 17.2227 6.24747 16.582 6.22656 15.938C5.4123 15.9565 4.59978 15.9331 3.78906 15.8676C1.94865 15.3945 0.839276 14.2305 0.460938 12.3755ZM3.83594 17.8598C4.38996 17.8123 4.63215 18.0622 4.5625 18.6098C4.40674 18.9102 4.16455 19.0118 3.83594 18.9145C3.53556 18.7588 3.43399 18.5166 3.53125 18.188C3.61066 18.054 3.71222 17.9446 3.83594 17.8598ZM20.6172 17.8598C21.1712 17.8123 21.4134 18.0622 21.3437 18.6098C21.188 18.9102 20.9458 19.0118 20.6172 18.9145C20.3168 18.7588 20.2152 18.5166 20.3125 18.188C20.3919 18.054 20.4935 17.9446 20.6172 17.8598ZM17.7109 20.4848C18.265 20.4373 18.5072 20.6872 18.4375 21.2348C18.2817 21.5352 18.0396 21.6368 17.7109 21.5395C17.4106 21.3838 17.309 21.1416 17.4062 20.813C17.4857 20.679 17.5872 20.5696 17.7109 20.4848Z" fill="url(#paint1_linear_1767_1105)"/>
<path opacity="0.948" fill-rule="evenodd" clip-rule="evenodd" d="M9.32031 18.0944C9.52698 18.053 9.69105 18.1156 9.8125 18.2819C9.85745 19.1287 9.84184 19.9725 9.76562 20.8131C9.66405 21.0397 9.49998 21.2037 9.27344 21.3053C8.91812 21.3707 8.55873 21.3942 8.19531 21.3756C8.06673 21.8402 7.76987 22.1449 7.30469 22.2897C6.31797 22.4272 5.77108 22.0053 5.66406 21.0241C5.77108 20.0428 6.31797 19.621 7.30469 19.7584C7.76987 19.9032 8.06673 20.2079 8.19531 20.6725C8.46461 20.686 8.73025 20.6626 8.99219 20.6022C9.02153 20.567 9.04497 20.5279 9.0625 20.485C9.12283 19.7537 9.15409 19.0194 9.15625 18.2819C9.20791 18.214 9.26261 18.1515 9.32031 18.0944ZM6.74219 20.485C7.2962 20.4374 7.53841 20.6874 7.46875 21.235C7.31298 21.5354 7.07083 21.637 6.74219 21.5397C6.44181 21.3839 6.34023 21.1418 6.4375 20.8131C6.51691 20.6792 6.61848 20.5698 6.74219 20.485Z" fill="url(#paint2_linear_1767_1105)"/>
<path opacity="0.939" fill-rule="evenodd" clip-rule="evenodd" d="M12.7894 23.9996C12.555 23.9996 12.3206 23.9996 12.0863 23.9996C11.1524 23.5656 10.9102 22.8782 11.3597 21.9371C11.5389 21.6797 11.7811 21.5235 12.0863 21.4684C12.0785 21.1555 12.0863 20.843 12.1097 20.5309C12.3263 20.2814 12.545 20.2814 12.7659 20.5309C12.7894 20.843 12.7972 21.1555 12.7894 21.4684C13.4116 21.6456 13.7241 22.0597 13.7269 22.7106C13.7111 23.3588 13.3986 23.7885 12.7894 23.9996ZM12.2269 22.1715C12.7809 22.1239 13.0231 22.3739 12.9534 22.9215C12.7977 23.2219 12.5555 23.3235 12.2269 23.2262C11.9265 23.0704 11.8249 22.8283 11.9222 22.4996C12.0016 22.3657 12.1032 22.2563 12.2269 22.1715Z" fill="url(#paint3_linear_1767_1105)"/>
<defs>
<linearGradient id="paint0_linear_1767_1105" x1="5.42304" y1="-5.61256e-07" x2="25.8112" y2="11.5231" gradientUnits="userSpaceOnUse">
<stop offset="0.11" stop-color="#60D7AD"/>
<stop offset="0.76" stop-color="#213C3A"/>
</linearGradient>
<linearGradient id="paint1_linear_1767_1105" x1="0.201514" y1="3.99023" x2="24.7649" y2="16.5269" gradientUnits="userSpaceOnUse">
<stop offset="0.11" stop-color="#60D7AD"/>
<stop offset="0.76" stop-color="#213C3A"/>
</linearGradient>
<linearGradient id="paint2_linear_1767_1105" x1="5.61407" y1="18.082" x2="10.6651" y2="20.2327" gradientUnits="userSpaceOnUse">
<stop offset="0.11" stop-color="#60D7AD"/>
<stop offset="0.76" stop-color="#213C3A"/>
</linearGradient>
<linearGradient id="paint3_linear_1767_1105" x1="11.1096" y1="20.3437" x2="14.4916" y2="21.377" gradientUnits="userSpaceOnUse">
<stop offset="0.11" stop-color="#60D7AD"/>
<stop offset="0.76" stop-color="#213C3A"/>
</linearGradient>
</defs>
</svg>
