<svg width="27" height="24" viewBox="0 0 27 24" fill="none" xmlns="http://www.w3.org/2000/svg">
<path opacity="0.927" fill-rule="evenodd" clip-rule="evenodd" d="M9.74475 0.0191955C12.6031 -0.163108 14.7815 0.953114 16.2801 3.36787C17.9122 2.54469 19.4605 2.67971 20.925 3.77295C21.7281 4.48784 22.2142 5.37902 22.3833 6.44649C24.6345 6.81636 26.0838 8.09463 26.7312 10.2813C27.1148 12.4083 26.4576 14.1277 24.7598 15.4393C23.6746 16.1698 22.4864 16.4398 21.1951 16.2495C20.8875 15.9329 20.9235 15.6628 21.3031 15.4393C23.3167 15.5539 24.766 14.7167 25.651 12.9278C26.3085 10.9761 25.8315 9.36481 24.2197 8.09382C23.4239 7.60681 22.5598 7.33675 21.6271 7.28366C21.5614 7.19465 21.5164 7.09565 21.4921 6.9866C21.412 5.46668 20.6648 4.43151 19.2507 3.88097C18.1691 3.57088 17.1789 3.75092 16.2801 4.42108C16.136 4.45711 15.992 4.45711 15.848 4.42108C15.5216 3.92132 15.1886 3.42622 14.8488 2.93578C12.7962 0.760927 10.4286 0.337844 7.74635 1.66653C5.78132 2.97668 4.81813 4.82206 4.85677 7.20264C4.7912 7.28631 4.71018 7.34928 4.61372 7.39168C2.79985 7.62128 1.60262 8.6025 1.02199 10.3353C0.625445 12.0804 1.12055 13.5117 2.50729 14.6291C3.47403 15.2624 4.53624 15.5505 5.69393 15.4933C5.87233 15.6983 5.89934 15.9234 5.77495 16.1685C3.30219 16.5343 1.50183 15.5982 0.373862 13.3599C-0.447104 11.0172 0.0840032 9.04582 1.96718 7.44569C2.57704 7.00226 3.25217 6.7052 3.99259 6.55451C4.31875 2.96144 6.23615 0.783001 9.74475 0.0191955Z" fill="url(#paint0_linear_1768_1129)"/>
<path opacity="0.951" fill-rule="evenodd" clip-rule="evenodd" d="M7.5317 10.9839C8.75607 10.9748 9.98033 10.9839 11.2044 11.0109C11.2855 11.0558 11.3485 11.1189 11.3935 11.1999C11.4205 13.0182 11.4295 14.8366 11.4205 16.655C11.8889 16.646 12.357 16.655 12.8248 16.682C13.0157 16.8282 13.0787 17.0172 13.0138 17.2491C11.904 18.9737 10.7608 20.6751 9.58411 22.3531C9.38189 22.4033 9.19286 22.3763 9.017 22.2721C7.91879 20.6158 6.82053 18.9595 5.72233 17.3031C5.68631 17.1591 5.68631 17.0151 5.72233 16.871C5.74934 16.772 5.81237 16.709 5.91137 16.682C6.3791 16.655 6.84722 16.646 7.31565 16.655C7.30663 14.8366 7.31565 13.0182 7.34266 11.1999C7.37993 11.1 7.4429 11.0279 7.5317 10.9839ZM8.17983 11.848C8.972 11.848 9.76413 11.848 10.5563 11.848C10.5473 13.6665 10.5563 15.4848 10.5833 17.3031C10.6463 17.3662 10.7093 17.4291 10.7724 17.4922C11.0979 17.5013 11.422 17.5284 11.7445 17.5732C10.9651 18.7548 10.1729 19.925 9.36807 21.0839C8.56325 19.925 7.77107 18.7548 6.99159 17.5732C7.2961 17.5284 7.60213 17.5013 7.90977 17.4922C8.02681 17.4472 8.10783 17.3662 8.15282 17.2491C8.17983 15.4488 8.18885 13.6485 8.17983 11.848Z" fill="url(#paint1_linear_1768_1129)"/>
<path opacity="0.941" fill-rule="evenodd" clip-rule="evenodd" d="M17.2513 12.6025C17.4542 12.5793 17.6432 12.6153 17.8184 12.7105C18.9771 14.4181 20.1024 16.1465 21.1941 17.8956C21.1635 18.0747 21.0735 18.2098 20.924 18.3007C20.4743 18.3277 20.0242 18.3366 19.5737 18.3277C19.5996 20.1494 19.5726 21.9678 19.4927 23.7828C19.4657 23.8818 19.4027 23.9448 19.3037 23.9718C18.0794 24.0078 16.8552 24.0078 15.6309 23.9718C15.5679 23.9088 15.5049 23.8458 15.4419 23.7828C15.4149 21.9645 15.4059 20.1461 15.4149 18.3277C14.9465 18.3366 14.4784 18.3277 14.0106 18.3007C13.8197 18.1545 13.7567 17.9654 13.8216 17.7335C14.9386 16.003 16.0818 14.2927 17.2513 12.6025ZM17.4133 13.8988C17.4671 13.8941 17.5121 13.9122 17.5483 13.9528C18.3029 15.1123 19.068 16.2646 19.8438 17.4095C19.5212 17.4543 19.1972 17.4813 18.8716 17.4905C18.7879 17.5561 18.725 17.6371 18.6826 17.7335C18.6556 19.5338 18.6465 21.3342 18.6556 23.1346C17.8634 23.1346 17.0713 23.1346 16.2791 23.1346C16.2881 21.3162 16.2791 19.4978 16.2521 17.6795C16.189 17.6165 16.1261 17.5535 16.063 17.4905C15.7375 17.4813 15.4134 17.4543 15.0908 17.4095C15.879 16.2469 16.6531 15.0767 17.4133 13.8988Z" fill="url(#paint2_linear_1768_1129)"/>
<defs>
<linearGradient id="paint0_linear_1768_1129" x1="-0.321487" y1="-6.36647e-07" x2="25.172" y2="18.1175" gradientUnits="userSpaceOnUse">
<stop offset="0.11" stop-color="#60D7AD"/>
<stop offset="0.76" stop-color="#213C3A"/>
</linearGradient>
<linearGradient id="paint1_linear_1768_1129" x1="5.60735" y1="10.9805" x2="15.3515" y2="13.6918" gradientUnits="userSpaceOnUse">
<stop offset="0.11" stop-color="#60D7AD"/>
<stop offset="0.76" stop-color="#213C3A"/>
</linearGradient>
<linearGradient id="paint2_linear_1768_1129" x1="13.7083" y1="12.5957" x2="23.5144" y2="15.3429" gradientUnits="userSpaceOnUse">
<stop offset="0.11" stop-color="#60D7AD"/>
<stop offset="0.76" stop-color="#213C3A"/>
</linearGradient>
</defs>
</svg>
