<svg width="23" height="24" viewBox="0 0 23 24" fill="none" xmlns="http://www.w3.org/2000/svg">
<path opacity="0.928" fill-rule="evenodd" clip-rule="evenodd" d="M13.8071 12.6357C12.2447 12.6123 10.6822 12.6045 9.11965 12.6123C9.02707 12.666 8.95676 12.7442 8.90871 12.8467C8.86249 14.4444 8.87815 16.0382 8.95559 17.6279C8.99791 17.6842 9.05257 17.7233 9.11965 17.7451C10.7174 17.7913 12.3111 17.7757 13.9009 17.6982C13.9572 17.6559 13.9963 17.6013 14.0181 17.5342C14.0643 15.9365 14.0486 14.3427 13.9712 12.7529C13.9289 12.6966 13.8742 12.6575 13.8071 12.6357ZM13.4082 13.2207H9.4707V17.1582H13.4082V13.2207Z" fill="url(#paint0_linear_1767_1109)"/>
<path opacity="0.923" fill-rule="evenodd" clip-rule="evenodd" d="M8.72444 0H10.1307C11.797 0.246909 13.0626 1.09066 13.9276 2.53125C15.5164 1.80393 16.9305 2.05393 18.1698 3.28125C18.8276 4.06875 19.1089 4.97498 19.0135 6C21.2115 6.74611 22.3599 8.2852 22.4588 10.6172C22.413 12.4284 21.6474 13.8346 20.1619 14.8359C19.5902 15.1515 18.9808 15.3547 18.3338 15.4453C17.4589 15.4688 16.584 15.4766 15.7088 15.4688V16.5938C16.3697 16.572 17.0259 16.5954 17.6776 16.6641L17.8416 16.8281L18.2635 18C19.1962 18.2091 19.4462 18.7403 19.0135 19.5938C18.5001 20.0414 18.0001 20.0257 17.5135 19.5469C17.2537 19.0599 17.3084 18.6146 17.6776 18.2109C17.5606 17.876 17.4513 17.54 17.3494 17.2031H15.7088C15.7308 17.9264 15.7073 18.6451 15.6385 19.3594C15.6033 19.3887 15.5643 19.4122 15.5213 19.4297C14.834 19.4531 14.1465 19.461 13.4588 19.4531C13.4438 19.996 13.4594 20.535 13.5057 21.0703L14.4666 21.4219C14.8476 21.0728 15.2773 21.0025 15.7557 21.2109C16.2981 21.7283 16.3138 22.2596 15.8026 22.8047C14.959 23.172 14.4433 22.9063 14.2557 22.0078L13.2244 21.6328C13.1025 21.5914 13.0009 21.5211 12.9198 21.4219C12.8511 20.7702 12.8276 20.114 12.8494 19.4531H11.7713C11.7635 20.3595 11.7713 21.2658 11.7948 22.1719C12.3623 22.4996 12.5186 22.9684 12.2635 23.5781C12.1304 23.7575 11.9663 23.8981 11.7713 24H11.1151C10.4898 23.6475 10.3414 23.1474 10.6698 22.5C10.7973 22.362 10.9458 22.2526 11.1151 22.1719C11.1619 21.2662 11.1775 20.3599 11.1619 19.4531H10.0369C10.0587 20.114 10.0353 20.7702 9.96663 21.4219C9.88549 21.5211 9.78391 21.5914 9.66194 21.6328L8.63069 22.0078C8.46447 22.8332 7.98006 23.1144 7.17756 22.8516C6.68847 22.4807 6.58689 22.0198 6.87288 21.4688C7.37997 20.9845 7.90342 20.9689 8.44319 21.4219C8.75388 21.3001 9.06639 21.1829 9.38069 21.0703C9.427 20.535 9.44261 19.996 9.42756 19.4531C8.70428 19.4751 7.98555 19.4516 7.27131 19.3828C7.24197 19.3477 7.21853 19.3086 7.201 19.2656C7.17756 18.5783 7.16974 17.8908 7.17756 17.2031H5.53694C5.45589 17.54 5.34653 17.8681 5.20881 18.1875C5.57552 18.6038 5.63017 19.0568 5.37288 19.5469C4.85725 20.0469 4.34163 20.0469 3.826 19.5469C3.45935 18.702 3.72498 18.1864 4.62288 18L5.04475 16.8281L5.20881 16.6641C5.86047 16.5954 6.51672 16.572 7.17756 16.5938V15.4688C6.31806 15.4766 5.45866 15.4688 4.59944 15.4453C2.0135 14.9844 0.490062 13.461 0.0291263 10.875C-0.15205 8.9025 0.512014 7.28531 2.02131 6.02344C2.65369 5.55103 3.35681 5.23073 4.13069 5.0625C4.27745 2.76094 5.41811 1.175 7.55256 0.304688C7.94341 0.179685 8.33406 0.0781228 8.72444 0ZM8.81819 0.609375C10.9777 0.43488 12.5637 1.29426 13.576 3.1875C13.6811 3.27103 13.7983 3.29447 13.9276 3.25781C15.3289 2.42495 16.6023 2.58901 17.7479 3.75C18.325 4.47898 18.5202 5.29931 18.3338 6.21094C18.3431 6.37036 18.4212 6.47972 18.5682 6.53906C20.5318 7.03542 21.6178 8.29327 21.826 10.3125C21.9 11.9522 21.2829 13.2569 19.9744 14.2266C19.4568 14.5502 18.8943 14.7533 18.2869 14.8359C17.4277 14.8594 16.5683 14.8672 15.7088 14.8594V13.7812C16.3697 13.803 17.0259 13.7796 17.6776 13.7109L17.8416 13.5469L18.2635 12.375C18.9646 12.2677 19.2771 11.8614 19.201 11.1562C18.9684 10.5517 18.5387 10.3407 17.9119 10.5234C17.4494 10.769 17.2697 11.1518 17.3729 11.6719C17.4454 11.8564 17.5469 12.0204 17.6776 12.1641C17.5444 12.4931 17.4351 12.829 17.3494 13.1719H15.7088C15.7308 12.4486 15.7073 11.7299 15.6385 11.0156C15.6033 10.9863 15.5643 10.9628 15.5213 10.9453C14.834 10.9219 14.1465 10.914 13.4588 10.9219V9.28125C13.7957 9.17944 14.1317 9.07008 14.4666 8.95312C14.8704 9.32086 15.3157 9.37556 15.8026 9.11719C16.3168 8.57058 16.3012 8.03934 15.7557 7.52344C14.9232 7.22081 14.4232 7.50206 14.2557 8.36719L13.0838 8.78906L12.9198 8.95312C12.8511 9.60478 12.8276 10.261 12.8494 10.9219H11.7713V8.15625C12.0829 8.07108 12.2783 7.86797 12.3573 7.54688C12.4215 6.64556 12.0074 6.26273 11.1151 6.39844C10.5245 6.70092 10.3605 7.16184 10.6229 7.78125C10.741 7.98863 10.9129 8.12925 11.1385 8.20312C11.1619 9.10922 11.1698 10.0155 11.1619 10.9219H10.0369C10.0587 10.261 10.0353 9.60478 9.96663 8.95312L9.80256 8.78906L8.63069 8.36719C8.44431 7.4693 7.92869 7.20366 7.08381 7.57031C6.5838 8.08594 6.5838 8.60156 7.08381 9.11719C7.57202 9.37687 8.01733 9.32222 8.41975 8.95312C8.75472 9.07008 9.09067 9.17944 9.42756 9.28125V10.9219C8.70428 10.8999 7.98555 10.9234 7.27131 10.9922C7.24197 11.0273 7.21853 11.0664 7.201 11.1094C7.17756 11.7967 7.16974 12.4842 7.17756 13.1719C6.6347 13.1869 6.09564 13.1713 5.56038 13.125L5.20881 12.1641C5.55785 11.7831 5.62816 11.3534 5.41975 10.875C5.02863 10.4185 4.5677 10.3326 4.03694 10.6172C3.64233 10.9821 3.55639 11.4118 3.77913 11.9062C3.98683 12.1975 4.26808 12.3538 4.62288 12.375L4.99788 13.4062C5.03927 13.5282 5.10958 13.6298 5.20881 13.7109C5.86047 13.7796 6.51672 13.803 7.17756 13.7812V14.8594C6.33367 14.8672 5.48992 14.8594 4.64631 14.8359C2.40473 14.4068 1.06879 13.0709 0.638501 10.8281C0.471415 8.51292 1.43235 6.86447 3.52131 5.88281C3.84144 5.76047 4.16955 5.66672 4.50569 5.60156C4.57277 5.57977 4.62742 5.54067 4.66975 5.48438C4.80058 2.78389 6.18339 1.15889 8.81819 0.609375ZM7.78694 11.5312H15.0994V18.8438H7.78694V11.5312ZM11.3033 6.93751C11.6625 6.89841 11.8266 7.0547 11.7955 7.40626C11.6813 7.6277 11.5016 7.69801 11.2564 7.6172C10.9988 7.36796 11.0144 7.14141 11.3033 6.93751ZM7.99829 8.48438C8.0439 8.14706 7.89545 7.97522 7.55298 7.96875C7.33309 8.09208 7.26278 8.27958 7.34204 8.53125C7.58406 8.79197 7.80278 8.77636 7.99829 8.48438ZM15.0996 7.96875C15.492 7.97723 15.6404 8.16473 15.5449 8.53125C15.3052 8.79258 15.0864 8.77697 14.8887 8.48438C14.8574 8.39062 14.8574 8.29688 14.8887 8.20312C14.9527 8.11584 15.023 8.03775 15.0996 7.96875ZM4.95134 11.5312C4.98322 11.2112 4.83481 11.0393 4.50603 11.0156C4.30962 11.1116 4.2237 11.2678 4.24822 11.4844C4.46286 11.8406 4.69723 11.8562 4.95134 11.5312ZM18.1914 11.0156C18.4953 11.0304 18.6438 11.1866 18.6367 11.4844C18.4268 11.8396 18.1924 11.8552 17.9336 11.5312C17.9023 11.4375 17.9023 11.3438 17.9336 11.25C18.0147 11.1608 18.1006 11.0827 18.1914 11.0156ZM4.95024 19.0781C4.98136 18.7266 4.8173 18.5703 4.45805 18.6094C4.1685 18.8155 4.15289 19.042 4.41118 19.2891C4.65638 19.3699 4.8361 19.2996 4.95024 19.0781ZM18.147 18.6097C18.4907 18.5863 18.6548 18.7425 18.6392 19.0785C18.5251 19.2999 18.3454 19.3702 18.1002 19.2894C17.8425 19.0402 17.8581 18.8136 18.147 18.6097ZM7.99774 22.1717C8.05202 21.7962 7.88795 21.6243 7.50555 21.6561C7.33024 21.8034 7.27553 21.9909 7.34149 22.2186C7.57464 22.4733 7.79341 22.4577 7.99774 22.1717ZM15.0997 21.6562C15.3368 21.6195 15.5009 21.7132 15.5919 21.9374C15.5997 22.2421 15.4513 22.3906 15.1466 22.3827C14.7878 22.1602 14.7722 21.9181 15.0997 21.6562ZM11.8181 23.0854C11.7597 22.77 11.5722 22.6528 11.2556 22.7338C11.0453 22.9176 11.0219 23.1207 11.1853 23.3432C11.5074 23.5219 11.7183 23.436 11.8181 23.0854Z" fill="url(#paint1_linear_1767_1109)"/>
<defs>
<linearGradient id="paint0_linear_1767_1109" x1="8.82099" y1="12.6094" x2="15.0402" y2="15.295" gradientUnits="userSpaceOnUse">
<stop offset="0.11" stop-color="#60D7AD"/>
<stop offset="0.76" stop-color="#213C3A"/>
</linearGradient>
<linearGradient id="paint1_linear_1767_1109" x1="-0.269038" y1="-9.36907e-07" x2="27.3324" y2="11.1546" gradientUnits="userSpaceOnUse">
<stop offset="0.11" stop-color="#60D7AD"/>
<stop offset="0.76" stop-color="#213C3A"/>
</linearGradient>
</defs>
</svg>
