<svg width="22" height="22" viewBox="0 0 22 22" fill="none" xmlns="http://www.w3.org/2000/svg">
<path opacity="0.938" fill-rule="evenodd" clip-rule="evenodd" d="M13.8783 0C14.4083 0 14.9382 0 15.4682 0C18.1616 0.437182 20.045 1.91244 21.1186 4.42578C22.039 7.09612 21.6236 9.53103 19.8725 11.7305C18.7265 13.009 17.3013 13.7753 15.5971 14.0293C14.1944 14.0901 12.7908 14.1116 11.3861 14.0938C11.3861 14.7383 11.3861 15.3828 11.3861 16.0273C13.3341 16.0202 15.282 16.0273 17.2299 16.0488C17.5872 16.1482 17.8379 16.3702 17.9818 16.7148C18.0421 17.2856 18.0636 17.8585 18.0463 18.4336C18.39 18.4027 18.7194 18.4529 19.0346 18.584C19.2567 18.7347 19.3928 18.9423 19.4428 19.207C19.4714 19.8945 19.4714 20.582 19.4428 21.2695C19.3496 21.6132 19.1419 21.8567 18.8197 22C18.0463 22 17.2729 22 16.4994 22C16.2099 21.8751 16.0166 21.6602 15.9193 21.3555C15.8907 20.5963 15.8907 19.8373 15.9193 19.0781C16.0541 18.7283 16.3048 18.5206 16.6713 18.4551C16.8857 18.4336 17.1005 18.4265 17.3158 18.4336C17.323 17.9607 17.3158 17.4881 17.2943 17.0156C17.2649 16.9058 17.2005 16.827 17.101 16.7793C15.1961 16.7578 13.2912 16.7506 11.3861 16.7578C11.3861 17.3164 11.3861 17.875 11.3861 18.4336C11.8915 18.3501 12.3141 18.4933 12.6537 18.8633C12.7138 18.9863 12.7568 19.1152 12.7826 19.25C12.8113 19.9088 12.8113 20.5677 12.7826 21.2266C12.7073 21.5951 12.4997 21.8529 12.1596 22C11.3861 22 10.6127 22 9.83927 22C9.56801 21.8791 9.37465 21.6786 9.25919 21.3984C9.17325 20.625 9.17325 19.8516 9.25919 19.0781C9.39398 18.7283 9.64462 18.5206 10.0111 18.4551C10.2255 18.4336 10.4404 18.4265 10.6557 18.4336C10.6557 17.875 10.6557 17.3164 10.6557 16.7578C8.73635 16.7506 6.81706 16.7578 4.89786 16.7793C4.79861 16.8496 4.73415 16.9428 4.70451 17.0586C4.68302 17.5167 4.67585 17.975 4.68302 18.4336C5.0055 18.4116 5.32063 18.4474 5.62833 18.541C5.84081 18.6676 5.9912 18.8466 6.07951 19.0781C6.16544 19.8516 6.16544 20.625 6.07951 21.3984C5.96405 21.6786 5.77069 21.8791 5.49943 22C4.72599 22 3.95255 22 3.17911 22C2.83779 21.8518 2.6301 21.594 2.55607 21.2266C2.52742 20.5677 2.52742 19.9088 2.55607 19.25C2.64917 18.8131 2.91414 18.5482 3.35099 18.4551C3.551 18.4336 3.75152 18.4265 3.95255 18.4336C3.93534 17.8728 3.95682 17.3142 4.01701 16.7578C4.14288 16.3885 4.39353 16.1521 4.76896 16.0488C6.73113 16.0273 8.69338 16.0202 10.6557 16.0273C10.6557 15.3828 10.6557 14.7383 10.6557 14.0938C8.97891 14.1126 7.30313 14.0911 5.62833 14.0293C3.41414 13.6342 1.91739 12.3809 1.1381 10.2695C0.396664 7.69837 1.01971 5.52845 3.00724 3.75977C4.50449 2.66012 6.16596 2.31637 7.99161 2.72852C8.33085 2.80813 8.65312 2.92987 8.95841 3.09375C10.0931 1.26223 11.7331 0.230984 13.8783 0ZM13.9213 0.730469C16.6866 0.555199 18.7563 1.65806 20.1303 4.03906C21.2983 6.55132 21.0548 8.9146 19.3998 11.1289C18.2477 12.4534 16.7939 13.191 15.0385 13.3418C11.9296 13.3834 8.82151 13.369 5.71427 13.2988C3.58129 12.8703 2.2421 11.6027 1.69669 9.49609C1.27418 7.06905 2.09775 5.19991 4.1674 3.88867C5.40528 3.26991 6.69434 3.14101 8.03458 3.50195C9.2469 3.94809 10.1779 4.72871 10.8276 5.84375C11.2789 6.01597 11.4723 5.85845 11.4076 5.37109C10.9623 4.6249 10.3822 4.00186 9.66739 3.50195C9.62653 3.47112 9.6194 3.43531 9.64591 3.39453C10.6577 1.8461 12.0828 0.958083 13.9213 0.730469ZM3.43693 19.1641C4.03866 19.1569 4.64022 19.1641 5.24161 19.1855C5.28097 19.2016 5.31681 19.2231 5.34904 19.25C5.3777 19.8945 5.3777 20.5391 5.34904 21.1836C5.32755 21.2051 5.30607 21.2266 5.28458 21.248C4.65436 21.2767 4.02417 21.2767 3.39396 21.248C3.37247 21.2266 3.35099 21.2051 3.32951 21.1836C3.25943 20.5861 3.24511 19.9845 3.28654 19.3789C3.29759 19.2755 3.34772 19.2039 3.43693 19.1641ZM10.0971 19.1641C10.6988 19.1569 11.3004 19.1641 11.9018 19.1855C11.9411 19.2016 11.977 19.2231 12.0092 19.25C12.0786 19.8629 12.0929 20.4788 12.0522 21.0977C12.0322 21.1591 11.9963 21.2092 11.9447 21.248C11.3145 21.2767 10.6843 21.2767 10.0541 21.248C10.0326 21.2266 10.0111 21.2051 9.98966 21.1836C9.961 20.5391 9.961 19.8945 9.98966 19.25C10.0324 19.2257 10.0682 19.197 10.0971 19.1641ZM16.8002 19.1641C17.3876 19.1569 17.9748 19.1641 18.5619 19.1855C18.6013 19.2016 18.6371 19.2231 18.6693 19.25C18.7181 19.5751 18.7396 19.9046 18.7338 20.2383C18.7266 20.5391 18.7195 20.8398 18.7123 21.1406C18.6962 21.18 18.6748 21.2158 18.6479 21.248C18.0033 21.2767 17.3588 21.2767 16.7143 21.248C16.6928 21.2266 16.6713 21.2051 16.6498 21.1836C16.6212 20.5534 16.6212 19.9232 16.6498 19.293C16.699 19.2442 16.7492 19.2012 16.8002 19.1641Z" fill="url(#paint0_linear_1768_1128)"/>
<defs>
<linearGradient id="paint0_linear_1768_1128" x1="0.587271" y1="-8.58831e-07" x2="26.0391" y2="10.3714" gradientUnits="userSpaceOnUse">
<stop offset="0.11" stop-color="#60D7AD"/>
<stop offset="0.76" stop-color="#213C3A"/>
</linearGradient>
</defs>
</svg>
