<svg width="26" height="24" viewBox="0 0 26 24" fill="none" xmlns="http://www.w3.org/2000/svg">
<path fill-rule="evenodd" clip-rule="evenodd" d="M20.5597 5.5782C20.2058 5.5782 19.8519 5.5782 19.4979 5.5782C19.4979 5.91441 19.4979 6.25067 19.4979 6.58687C19.4197 6.89159 19.2251 7.00663 18.914 6.93194C18.7958 6.8668 18.7162 6.76944 18.6751 6.63996C18.6485 6.2865 18.6397 5.93256 18.6485 5.5782C18.2765 5.58702 17.9049 5.5782 17.5337 5.55166C17.3815 5.47771 17.3108 5.35386 17.3213 5.18005C17.316 4.9781 17.4045 4.83652 17.5868 4.75535C17.9402 4.7288 18.2942 4.71999 18.6485 4.7288C18.6397 4.37444 18.6485 4.02051 18.6751 3.66705C18.9147 3.33541 19.1802 3.31771 19.4714 3.61396C19.4979 3.98515 19.5067 4.35676 19.4979 4.7288C19.8933 4.70603 20.2826 4.73257 20.6659 4.80843C20.9706 5.11576 20.9352 5.37233 20.5597 5.5782Z" fill="url(#paint0_linear_1768_1165)"/>
<path opacity="0.965" fill-rule="evenodd" clip-rule="evenodd" d="M13.3406 0.00436343C14.8308 -0.0503647 16.1314 0.409725 17.2425 1.38464C19.4695 0.826357 21.2921 1.44571 22.7105 3.24271C23.1321 3.8735 23.4063 4.56364 23.5334 5.31313C24.8132 5.80005 25.583 6.72022 25.8427 8.07369C26.0085 9.89295 25.2741 11.1936 23.6396 11.9756C23.3647 12.0797 23.0816 12.1505 22.7902 12.188C21.9233 12.2145 21.0562 12.2234 20.1889 12.2145C20.2786 14.362 19.2877 15.6981 17.216 16.2227C16.2429 16.2492 15.2696 16.2581 14.2961 16.2492V20.1777H15.6764C15.9665 19.2444 16.6035 18.8286 17.5876 18.9301C18.7591 19.2823 19.1926 20.052 18.8882 21.2394C18.3514 22.2444 17.5462 22.5364 16.4727 22.1154C16.073 21.8733 15.8076 21.5282 15.6764 21.0802C15.0391 21.089 14.4021 21.0802 13.7653 21.0536C13.6063 21.0321 13.4913 20.9524 13.4202 20.8147C13.3937 19.293 13.3848 17.7712 13.3937 16.2492H10.8454V20.6555C11.6305 20.9054 12.0552 21.4452 12.1195 22.2747C12.005 23.3094 11.4298 23.8845 10.3942 24C9.35904 23.885 8.78389 23.3099 8.66885 22.2747C8.73404 21.4425 9.15874 20.9028 9.94295 20.6555V16.2492H7.39474C7.40361 17.7712 7.39474 19.293 7.3682 20.8147C7.29711 20.9524 7.18207 21.0321 7.02313 21.0536C6.38533 21.0625 5.74828 21.089 5.11197 21.1333C4.6389 22.1571 3.86028 22.5022 2.77611 22.1685C1.77458 21.5504 1.53569 20.7098 2.05943 19.6468C2.7409 18.8506 3.54606 18.7001 4.47492 19.1956C4.81561 19.4443 5.02793 19.7717 5.11197 20.1777H6.49225V16.2492C5.51883 16.2581 4.54554 16.2492 3.57243 16.2227C1.95325 15.8776 0.97113 14.8955 0.62606 13.2763C0.43976 11.614 1.05912 10.3575 2.48413 9.50706C2.62559 7.10681 3.78467 5.41687 5.96137 4.43719C6.74787 4.13209 7.56191 4.0171 8.40341 4.09212C9.00611 1.99419 10.3687 0.675848 12.4912 0.137083C12.7825 0.0959875 13.0656 0.0517442 13.3406 0.00436343ZM21.6795 3.09473C21.9806 3.53442 22.2411 4.00144 22.4613 4.49572C22.58 4.84699 22.6609 5.20619 22.7039 5.57341C22.7825 5.5698 22.8544 5.58774 22.9195 5.62729C22.9771 5.76605 23.067 5.88281 23.1891 5.97754C23.6339 6.07389 24.0113 6.28042 24.3213 6.59721C24.9886 7.44185 25.1953 8.39382 24.9413 9.45308C24.8015 9.82192 24.6487 10.1811 24.483 10.5308C24.0453 10.9921 23.5061 11.2705 22.8656 11.366C21.9491 11.4019 21.0325 11.4019 20.116 11.366C19.6857 10.397 18.9758 9.72347 17.9864 9.34531C17.504 7.17485 16.1831 5.81874 14.0237 5.27705C13.6665 5.22392 13.307 5.19697 12.9454 5.19622C12.4699 5.18986 12.0026 5.23475 11.5437 5.33093C10.8705 4.77005 10.1157 4.36592 9.2793 4.11853C9.90702 2.29672 11.165 1.19209 13.0533 0.804648C14.6059 0.651358 15.9538 1.1004 17.0968 2.15176C17.6467 2.04617 18.2038 1.96534 18.7682 1.90928C19.8972 1.93762 20.8677 2.33277 21.6795 3.09473ZM16.5727 8.28107C16.3449 7.81624 16.1217 7.5113 15.7291 7.17064C14.7258 6.3001 13.5579 5.95503 12.2253 6.13543C11.8975 6.25689 11.5613 6.30998 11.2166 6.29469C9.96227 5.12856 8.49355 4.72154 6.81035 5.07367C4.48091 5.89945 3.32183 7.55404 3.3331 10.0374C2.51596 10.4121 1.93199 11.0138 1.58121 11.8424C1.23368 13.6692 1.95037 14.8459 3.73126 15.3727C8.13754 15.4081 12.5438 15.4081 16.9501 15.3727C17.5261 15.2881 18.2871 15.0492 18.702 14.656C19.5684 13.315 19.5507 11.9878 18.6489 10.6744C18.2922 10.372 17.6198 10.1508 17.1624 10.0108C17.0743 9.93183 17.0212 9.83452 17.0032 9.71885C16.9949 9.66582 16.9938 9.66048 16.9896 9.63957C16.9846 9.61487 16.9752 9.56843 16.9443 9.39592C16.9174 9.09571 16.7929 8.8034 16.6718 8.51898C16.6377 8.43906 16.604 8.35975 16.5727 8.28107Z" fill="url(#paint1_linear_1768_1165)"/>
<path fill-rule="evenodd" clip-rule="evenodd" d="M3.20276 19.8058C3.93811 19.716 4.30088 20.0345 4.29106 20.7614C4.1013 21.3208 3.72083 21.5243 3.14968 21.3719C2.6575 21.0627 2.54248 20.6469 2.80461 20.1244C2.91684 19.9852 3.04956 19.879 3.20276 19.8058Z" fill="white"/>
<path fill-rule="evenodd" clip-rule="evenodd" d="M17.0038 19.806C17.7996 19.7259 18.1623 20.0798 18.0921 20.8678C17.847 21.3488 17.4666 21.5169 16.9508 21.3721C16.4552 21.027 16.3579 20.5934 16.6588 20.0715C16.7823 19.9883 16.8972 19.8999 17.0038 19.806Z" fill="white"/>
<path fill-rule="evenodd" clip-rule="evenodd" d="M10.1565 21.4506C10.865 21.4248 11.2101 21.761 11.1917 22.4593C11.0089 22.9712 10.6462 23.1747 10.1034 23.0698C9.58094 22.7772 9.44822 22.3613 9.70527 21.8222C9.83485 21.6654 9.9853 21.5415 10.1565 21.4506Z" fill="white"/>
<defs>
<linearGradient id="paint0_linear_1768_1165" x1="17.2778" y1="3.4043" x2="21.5555" y2="5.25202" gradientUnits="userSpaceOnUse">
<stop offset="0.11" stop-color="#60D7AD"/>
<stop offset="0.76" stop-color="#213C3A"/>
</linearGradient>
<linearGradient id="paint1_linear_1768_1165" x1="0.291014" y1="-9.36907e-07" x2="30.2307" y2="13.6151" gradientUnits="userSpaceOnUse">
<stop offset="0.11" stop-color="#60D7AD"/>
<stop offset="0.76" stop-color="#213C3A"/>
</linearGradient>
</defs>
</svg>
