<svg width="25" height="24" viewBox="0 0 25 24" fill="none" xmlns="http://www.w3.org/2000/svg">
<path opacity="0.935" fill-rule="evenodd" clip-rule="evenodd" d="M13.6659 0.0128392C16.0869 -0.127601 17.8247 0.884102 18.8795 3.04795C19.091 3.58332 19.2134 4.13813 19.2466 4.71236C21.473 4.78467 23.0477 5.82899 23.9706 7.84538C24.6782 9.93481 24.2621 11.7706 22.7223 13.3526C21.8728 14.1093 20.8774 14.5336 19.7361 14.6254C18.3982 14.6499 17.0601 14.6581 15.722 14.6499C15.722 15.9064 15.722 17.1628 15.722 18.4193C16.9947 18.4193 18.2675 18.4193 19.5403 18.4193C19.7636 17.5514 20.3021 16.9721 21.1558 16.6815C22.3332 16.4048 23.2715 16.7556 23.9706 17.734C24.3949 18.5825 24.3949 19.431 23.9706 20.2795C23.2791 21.2771 22.3408 21.628 21.1558 21.332C20.1754 20.988 19.6043 20.3026 19.4424 19.276C17.9901 19.2597 16.5379 19.2433 15.0856 19.227C15.0448 19.1863 15.004 19.1454 14.9632 19.1047C14.8905 17.624 14.8661 16.1391 14.8897 14.6499C14.1228 14.6499 13.3559 14.6499 12.5889 14.6499C12.5726 16.1515 12.5889 17.6528 12.6379 19.1536C14.092 19.5969 14.7202 20.576 14.5226 22.0908C14.1789 23.279 13.3875 23.9154 12.1484 24C10.6632 23.8529 9.84731 23.037 9.70069 21.5523C9.79262 20.237 10.478 19.4374 11.7567 19.1536C11.7567 17.6524 11.7567 16.1512 11.7567 14.6499C10.9735 14.6499 10.1902 14.6499 9.40697 14.6499C9.43066 16.1391 9.40619 17.624 9.33354 19.1047C9.29276 19.1454 9.25193 19.1863 9.21116 19.227C7.75886 19.2433 6.3066 19.2597 4.8543 19.276C4.44316 20.9587 3.38251 21.644 1.67233 21.332C0.402273 20.8243 -0.144374 19.8861 0.0323959 18.5172C0.263999 17.5187 0.875917 16.8905 1.86815 16.6325C3.11372 16.4271 4.03567 16.8759 4.63401 17.9787C4.70402 18.1184 4.7448 18.2653 4.7564 18.4193C6.02919 18.4193 7.30197 18.4193 8.57476 18.4193C8.57476 17.1628 8.57476 15.9064 8.57476 14.6499C7.00698 14.671 5.44047 14.6465 3.87524 14.5765C1.73422 14.0999 0.453278 12.7863 0.0323959 10.6357C-0.177229 8.25532 0.79368 6.56643 2.94512 5.56905C3.48295 5.37338 4.03775 5.25913 4.60954 5.22638C5.3737 3.22457 6.826 2.35973 8.96639 2.63185C9.23607 2.69726 9.49719 2.78701 9.74964 2.90109C10.5653 1.26987 11.8707 0.307118 13.6659 0.0128392ZM13.7149 0.845047C15.6379 0.708947 17.0657 1.47588 17.9983 3.14586C18.3081 3.8464 18.455 4.58073 18.4389 5.34876C18.5337 5.53899 18.6887 5.6206 18.9039 5.59353C20.9667 5.50277 22.4108 6.40023 23.2363 8.28596C23.7874 10.071 23.3713 11.5967 21.988 12.8631C21.3297 13.3878 20.5791 13.6978 19.7361 13.7932C14.596 13.8259 9.45592 13.8259 4.31582 13.7932C2.43642 13.4803 1.28601 12.3952 0.864604 10.5378C0.696615 8.51457 1.53698 7.1031 3.3857 6.30335C3.65766 6.21494 3.93507 6.14969 4.21791 6.10754C4.54952 6.10372 4.87589 6.07107 5.19698 6.00963C5.36954 5.50903 5.58983 5.02762 5.85785 4.5655C7.00576 3.27954 8.33567 3.05925 9.84755 3.90463C9.98251 3.93321 10.113 3.91689 10.2392 3.85568C10.5281 3.1144 10.9524 2.46169 11.512 1.89754C12.1559 1.35402 12.8902 1.00319 13.7149 0.845047ZM2.25978 17.3913C3.31621 17.4197 3.90365 17.9582 4.0221 19.0068C3.92772 19.9741 3.39739 20.5126 2.43111 20.6222C1.26743 20.4539 0.74526 19.7849 0.864604 18.6151C1.09788 17.9326 1.56293 17.5246 2.25978 17.3913ZM21.6943 17.3913C22.753 17.4222 23.3404 17.9607 23.4566 19.0068C23.3646 19.9718 22.8342 20.5103 21.8656 20.6222C20.9108 20.5159 20.3805 19.9856 20.2746 19.0312C20.3456 18.1276 20.8188 17.5809 21.6943 17.3913ZM11.9525 19.9369C13.0129 19.9686 13.6167 20.5071 13.7638 21.5523C13.6332 22.4988 13.0947 23.0373 12.1484 23.1678C11.2006 23.036 10.6621 22.4975 10.5329 21.5523C10.6347 20.6755 11.108 20.137 11.9525 19.9369Z" fill="url(#paint0_linear_2009_1142)"/>
<path opacity="0.927" fill-rule="evenodd" clip-rule="evenodd" d="M13.7153 2.41211C15.6448 2.43767 16.8361 3.3841 17.2889 5.25141C17.1799 5.66589 16.9351 5.77193 16.5546 5.5696C16.2472 4.11055 15.3496 3.33545 13.8622 3.24432C13.5785 3.27201 13.3011 3.32912 13.03 3.41565C12.7289 3.5788 12.4352 3.75014 12.1488 3.92966C11.8005 3.85354 11.6781 3.64141 11.7817 3.29327C12.3143 2.75364 12.9588 2.45992 13.7153 2.41211Z" fill="url(#paint1_linear_2009_1142)"/>
<path opacity="0.924" fill-rule="evenodd" clip-rule="evenodd" d="M3.18701 7.55192C3.72477 7.50086 3.89611 7.72932 3.70102 8.23726C2.96154 9.00911 2.79836 9.89027 3.21149 10.8807C3.40555 11.2049 3.634 11.4986 3.89683 11.7619C3.98533 12.2774 3.78136 12.465 3.28492 12.3249C2.20411 11.306 1.90223 10.0903 2.37928 8.67784C2.57818 8.24559 2.84742 7.87026 3.18701 7.55192Z" fill="url(#paint2_linear_2009_1142)"/>
<defs>
<linearGradient id="paint0_linear_2009_1142" x1="-0.291151" y1="-9.36907e-07" x2="28.8781" y2="12.7571" gradientUnits="userSpaceOnUse">
<stop offset="0.11" stop-color="#60D7AD"/>
<stop offset="0.76" stop-color="#213C3A"/>
</linearGradient>
<linearGradient id="paint1_linear_2009_1142" x1="11.6797" y1="2.41211" x2="16.8251" y2="6.19366" gradientUnits="userSpaceOnUse">
<stop offset="0.11" stop-color="#60D7AD"/>
<stop offset="0.76" stop-color="#213C3A"/>
</linearGradient>
<linearGradient id="paint2_linear_2009_1142" x1="2.13911" y1="7.54492" x2="4.59015" y2="7.93033" gradientUnits="userSpaceOnUse">
<stop offset="0.11" stop-color="#60D7AD"/>
<stop offset="0.76" stop-color="#213C3A"/>
</linearGradient>
</defs>
</svg>
