<svg width="24" height="24" viewBox="0 0 24 24" fill="none" xmlns="http://www.w3.org/2000/svg">
<path opacity="0.957" fill-rule="evenodd" clip-rule="evenodd" d="M9.32965 0.0279751C11.3087 -0.150632 12.9198 0.525999 14.1627 2.05787C16.4615 1.70055 18.0242 2.60272 18.8508 4.76439C20.5273 5.25678 21.5665 6.35229 21.9681 8.05088C22.2623 10.0552 21.5615 11.5937 19.8657 12.6665C19.4082 12.9049 18.9249 13.066 18.4158 13.1498C16.4021 13.1739 14.3883 13.182 12.3745 13.1739C12.3745 13.6895 12.3745 14.205 12.3745 14.7205C13.1479 14.7124 13.9212 14.7205 14.6944 14.7447C15.303 14.8942 15.6736 15.2728 15.806 15.8805C16.8254 15.8574 17.8403 15.8816 18.8508 15.9529C18.8811 15.9892 18.9052 16.0295 18.9233 16.0738C18.9475 16.9113 18.9555 17.7491 18.9475 18.587C18.6897 18.587 18.4319 18.587 18.1742 18.587C18.1742 17.9426 18.1742 17.2981 18.1742 16.6537C17.3848 16.6537 16.5954 16.6537 15.806 16.6537C15.6736 17.2614 15.303 17.64 14.6944 17.7895C12.89 17.8218 11.0857 17.8218 9.28132 17.7895C8.67264 17.64 8.30209 17.2614 8.16971 16.6537C7.38033 16.6537 6.59089 16.6537 5.80151 16.6537C5.80151 17.2981 5.80151 17.9426 5.80151 18.587C5.54376 18.587 5.28596 18.587 5.02822 18.587C5.02014 17.7491 5.02822 16.9113 5.05238 16.0738C5.07046 16.0295 5.09462 15.9892 5.12488 15.9529C6.13538 15.8816 7.15032 15.8574 8.16971 15.8805C8.30209 15.2728 8.67264 14.8942 9.28132 14.7447C10.0545 14.7205 10.8278 14.7124 11.6012 14.7205C11.6012 14.205 11.6012 13.6895 11.6012 13.1739C9.57126 13.182 7.54137 13.1739 5.51152 13.1498C3.25403 12.6402 2.04577 11.2306 1.88672 8.92083C2.00768 6.83536 3.05485 5.466 5.02822 4.81272C5.19636 2.67896 6.25963 1.18876 8.21804 0.342125C8.5884 0.213488 8.95891 0.10877 9.32965 0.0279751ZM9.76463 0.801267C10.8589 0.780552 11.8416 1.0947 12.7128 1.74372C13.1056 2.10389 13.46 2.49054 13.7761 2.90365C14.1151 2.88113 14.4534 2.8328 14.791 2.75866C16.5327 2.73943 17.6363 3.56911 18.1017 5.24769C18.1396 5.33401 18.196 5.40651 18.2708 5.46518C20.1412 5.8628 21.1561 7.01471 21.3157 8.92083C21.1228 10.9905 19.9951 12.1424 17.9325 12.3765C14.0016 12.4087 10.0707 12.4087 6.13982 12.3765C4.31547 12.2115 3.1958 11.2368 2.78084 9.45247C2.65004 7.39247 3.57639 6.07946 5.55985 5.51351C5.64617 5.47557 5.71867 5.41922 5.77734 5.34435C5.90368 2.76186 7.23277 1.2475 9.76463 0.801267ZM9.66797 15.4938C11.2146 15.4857 12.7612 15.4938 14.3077 15.518C14.8801 15.6072 15.1137 15.9375 15.0085 16.5088C14.8828 16.8255 14.6492 16.9946 14.3077 17.0162C12.7611 17.0485 11.2145 17.0485 9.66797 17.0162C8.99887 16.8622 8.79753 16.4675 9.06383 15.8321C9.23125 15.648 9.43264 15.5352 9.66797 15.4938Z" fill="url(#paint0_linear_1768_1166)"/>
<path opacity="0.934" fill-rule="evenodd" clip-rule="evenodd" d="M9.47016 1.57422C9.66348 1.57422 9.8568 1.57422 10.0501 1.57422C10.0501 1.84809 10.0501 2.12197 10.0501 2.39584C8.92909 2.42996 8.11554 2.94549 7.60942 3.94242C7.45244 4.29646 7.37995 4.667 7.39193 5.05403C7.11804 5.05403 6.8442 5.05403 6.57031 5.05403C6.67732 3.17509 7.64393 2.01515 9.47016 1.57422Z" fill="url(#paint1_linear_1768_1166)"/>
<path opacity="0.997" fill-rule="evenodd" clip-rule="evenodd" d="M0.193323 19.3604C3.80205 19.3524 7.41074 19.3604 11.0194 19.3846C11.108 19.4088 11.1644 19.4652 11.1886 19.5538C11.2208 20.9715 11.2208 22.3892 11.1886 23.8069C11.1644 23.8955 11.108 23.9519 11.0194 23.976C7.4107 24.0083 3.80202 24.0083 0.193323 23.976C0.104717 23.9519 0.0483308 23.8955 0.0241655 23.8069C-0.00805516 22.3892 -0.00805516 20.9715 0.0241655 19.5538C0.0575002 19.4644 0.113886 19.3999 0.193323 19.3604ZM0.773292 20.1337C3.99534 20.1337 7.21737 20.1337 10.4394 20.1337C10.4394 21.1648 10.4394 22.1959 10.4394 23.2269C7.21737 23.2269 3.99534 23.2269 0.773292 23.2269C0.773292 22.1959 0.773292 21.1648 0.773292 20.1337Z" fill="url(#paint2_linear_1768_1166)"/>
<path opacity="0.997" fill-rule="evenodd" clip-rule="evenodd" d="M12.9511 19.3604C16.5599 19.3524 20.1686 19.3604 23.7772 19.3846C23.8658 19.4088 23.9222 19.4652 23.9464 19.5538C23.9786 20.9715 23.9786 22.3892 23.9464 23.8069C23.9222 23.8955 23.8658 23.9519 23.7772 23.976C20.1685 24.0083 16.5599 24.0083 12.9511 23.976C12.8626 23.9519 12.8062 23.8955 12.782 23.8069C12.7498 22.3892 12.7498 20.9715 12.782 19.5538C12.8153 19.4644 12.8717 19.3999 12.9511 19.3604ZM13.5311 20.1337C16.7532 20.1337 19.9752 20.1337 23.1973 20.1337C23.1973 21.1648 23.1973 22.1959 23.1973 23.2269C19.9752 23.2269 16.7532 23.2269 13.5311 23.2269C13.5311 22.1959 13.5311 21.1648 13.5311 20.1337Z" fill="url(#paint3_linear_1768_1166)"/>
<path fill-rule="evenodd" clip-rule="evenodd" d="M3.3125 21.293C4.85908 21.293 6.40567 21.293 7.95225 21.293C7.95225 21.5507 7.95225 21.8085 7.95225 22.0663C6.40567 22.0663 4.85908 22.0663 3.3125 22.0663C3.3125 21.8085 3.3125 21.5507 3.3125 21.293Z" fill="url(#paint4_linear_1768_1166)"/>
<path fill-rule="evenodd" clip-rule="evenodd" d="M16.0703 21.3184C17.6169 21.3184 19.1635 21.3184 20.7101 21.3184C20.7101 21.5761 20.7101 21.8339 20.7101 22.0917C19.1635 22.0917 17.6169 22.0917 16.0703 22.0917C16.0703 21.8339 16.0703 21.5761 16.0703 21.3184Z" fill="url(#paint5_linear_1768_1166)"/>
<path opacity="0.93" fill-rule="evenodd" clip-rule="evenodd" d="M11.6654 5.9595C12.9249 5.88433 13.5074 6.47421 13.413 7.72919C13.1318 8.56705 12.5493 8.91364 11.6654 8.76888C10.8276 8.48772 10.481 7.90519 10.6257 7.02131C10.7735 6.46802 11.1201 6.11408 11.6654 5.9595ZM11.7982 6.71162C11.6705 6.77263 11.5599 6.86111 11.4663 6.97707C11.2815 7.33464 11.3331 7.65172 11.6212 7.92828C11.9788 8.11308 12.2958 8.06149 12.5724 7.77343C12.8201 7.0548 12.562 6.70087 11.7982 6.71162Z" fill="url(#paint6_linear_1768_1166)"/>
<path opacity="0.931" fill-rule="evenodd" clip-rule="evenodd" d="M11.2876 3.8465C11.3539 3.83893 11.4184 3.84699 11.4809 3.87067C11.6529 3.98682 11.8302 4.09153 12.0125 4.18482C12.2363 4.08124 12.4538 3.96847 12.665 3.8465C13.1444 3.94718 13.5875 4.13245 13.9941 4.40231C14.0521 4.44592 14.0924 4.5023 14.1149 4.57146C14.0692 5.11373 14.3189 5.35539 14.864 5.29642C15.218 5.71468 15.4436 6.19799 15.5407 6.74635C15.4449 6.96939 15.3321 7.17886 15.2023 7.37464C15.3035 7.59701 15.4162 7.8145 15.5407 8.02711C15.44 8.50655 15.2547 8.9496 14.9849 9.3562C14.9412 9.41425 14.8849 9.45456 14.8157 9.47703C14.2921 9.42063 14.0585 9.65426 14.1149 10.1778C14.0924 10.247 14.0521 10.3033 13.9941 10.347C13.5934 10.6117 13.1584 10.797 12.6891 10.9028C12.4383 10.8199 12.2046 10.7071 11.9884 10.5645C11.7793 10.6766 11.5699 10.7894 11.3601 10.9028C10.8806 10.8021 10.4376 10.6169 10.031 10.347C9.97291 10.3033 9.93261 10.247 9.91013 10.1778C9.9558 9.63556 9.70613 9.3939 9.16101 9.45287C8.80703 9.03461 8.58147 8.5513 8.48438 8.00294C8.58017 7.7799 8.69292 7.57043 8.82269 7.37464C8.72158 7.15228 8.60883 6.93479 8.48438 6.72218C8.59409 6.18078 8.8196 5.69747 9.16101 5.27226C9.69298 5.3363 9.94266 5.10271 9.91013 4.57146C10.1102 4.33781 10.3599 4.16866 10.6593 4.06399C10.8758 3.99458 11.0852 3.92208 11.2876 3.8465ZM11.0942 4.76479C10.9741 4.82095 10.8533 4.88542 10.7318 4.95811C10.6251 5.58032 10.2626 5.9428 9.64431 6.04555C9.51865 6.19219 9.43809 6.36134 9.40266 6.55302C9.72488 7.10075 9.72488 7.64854 9.40266 8.19627C9.44021 8.36803 9.50464 8.52912 9.59598 8.67957C10.2078 8.80804 10.5783 9.17854 10.7076 9.79118C10.8746 9.87871 11.0437 9.95928 11.2151 10.0328C11.2987 9.93052 11.4035 9.85802 11.5292 9.81535C11.9901 9.68403 12.4251 9.74043 12.8341 9.9845C13.0015 9.9529 13.1546 9.88847 13.2933 9.79118C13.3999 9.16897 13.7624 8.80649 14.3807 8.70374C14.5064 8.5571 14.587 8.38795 14.6224 8.19627C14.3002 7.64854 14.3002 7.10075 14.6224 6.55302C14.5908 6.38565 14.5263 6.23259 14.4291 6.09388C13.8068 5.98722 13.4444 5.62473 13.3416 5.00644C13.195 4.88078 13.0258 4.80021 12.8341 4.76479C12.6686 4.86038 12.4913 4.93288 12.3025 4.98227C12.1092 5.01451 11.9159 5.01451 11.7225 4.98227C11.5158 4.89504 11.3064 4.82254 11.0942 4.76479Z" fill="url(#paint7_linear_1768_1166)"/>
<defs>
<linearGradient id="paint0_linear_1768_1166" x1="1.64538" y1="-7.25594e-07" x2="25.272" y2="11.0597" gradientUnits="userSpaceOnUse">
<stop offset="0.11" stop-color="#60D7AD"/>
<stop offset="0.76" stop-color="#213C3A"/>
</linearGradient>
<linearGradient id="paint1_linear_1768_1166" x1="6.52863" y1="1.57422" x2="10.7217" y2="3.38504" gradientUnits="userSpaceOnUse">
<stop offset="0.11" stop-color="#60D7AD"/>
<stop offset="0.76" stop-color="#213C3A"/>
</linearGradient>
<linearGradient id="paint2_linear_1768_1166" x1="-0.134319" y1="19.3574" x2="7.54393" y2="27.3657" gradientUnits="userSpaceOnUse">
<stop offset="0.11" stop-color="#60D7AD"/>
<stop offset="0.76" stop-color="#213C3A"/>
</linearGradient>
<linearGradient id="paint3_linear_1768_1166" x1="12.6235" y1="19.3574" x2="20.3017" y2="27.3657" gradientUnits="userSpaceOnUse">
<stop offset="0.11" stop-color="#60D7AD"/>
<stop offset="0.76" stop-color="#213C3A"/>
</linearGradient>
<linearGradient id="paint4_linear_1768_1166" x1="3.25692" y1="21.293" x2="4.11682" y2="23.5211" gradientUnits="userSpaceOnUse">
<stop offset="0.11" stop-color="#60D7AD"/>
<stop offset="0.76" stop-color="#213C3A"/>
</linearGradient>
<linearGradient id="paint5_linear_1768_1166" x1="16.0147" y1="21.3184" x2="16.8746" y2="23.5465" gradientUnits="userSpaceOnUse">
<stop offset="0.11" stop-color="#60D7AD"/>
<stop offset="0.76" stop-color="#213C3A"/>
</linearGradient>
<linearGradient id="paint6_linear_1768_1166" x1="10.5599" y1="5.95312" x2="13.9759" y2="7.41873" gradientUnits="userSpaceOnUse">
<stop offset="0.11" stop-color="#60D7AD"/>
<stop offset="0.76" stop-color="#213C3A"/>
</linearGradient>
<linearGradient id="paint7_linear_1768_1166" x1="8.39985" y1="3.84375" x2="16.9035" y2="7.51472" gradientUnits="userSpaceOnUse">
<stop offset="0.11" stop-color="#60D7AD"/>
<stop offset="0.76" stop-color="#213C3A"/>
</linearGradient>
</defs>
</svg>
