<svg width="20" height="22" viewBox="0 0 20 22" fill="none" xmlns="http://www.w3.org/2000/svg">
<path opacity="0.944" fill-rule="evenodd" clip-rule="evenodd" d="M1.20313 0C4.86978 0 8.53647 0 12.2031 0C13.3058 1.0526 14.3729 2.14114 15.4043 3.26562C15.4115 5.35691 15.433 7.44807 15.4688 9.53906C16.7243 10.0737 17.9847 10.5965 19.25 11.1074C19.3954 11.1667 19.4741 11.2741 19.4863 11.4297C19.515 13.1341 19.515 14.8385 19.4863 16.543C19.4236 17.1895 19.2231 17.7911 18.8848 18.3477C17.8078 19.9763 16.3827 21.1938 14.6094 22C14.4805 22 14.3516 22 14.2227 22C12.5865 21.2606 11.1112 20.1649 10.0547 18.7129C7.06119 18.6986 4.19663 18.6842 1.20313 18.6699C0.495298 18.449 0.10142 17.9691 0.0214855 17.2305C-0.00716182 11.974 -0.00716182 6.71743 0.0214855 1.46094C0.101154 0.711915 0.495035 0.224937 1.20313 0ZM1.58985 0.6875C4.94141 0.6875 8.29297 0.6875 11.6445 0.6875C11.245 3.12392 12.262 4.14085 14.6953 3.73828C14.6953 5.55728 14.6953 7.37632 14.6953 9.19531C14.5066 9.1312 14.3204 9.13838 14.1367 9.2168C12.6185 9.84702 11.1002 10.4772 9.58203 11.1074C9.50529 11.1412 9.26896 11.1913 9.2168 11.2578C9.1459 13.0456 9.13159 14.836 9.17383 16.6289C9.22045 17.0949 9.44243 17.5317 9.66797 17.9395C6.86069 17.9681 4.13931 17.9681 1.33203 17.9395C0.978232 17.8117 0.784873 17.561 0.751954 17.1875C0.723307 11.9596 0.723307 6.73179 0.751954 1.50391C0.82953 1.01805 1.10883 0.745916 1.58985 0.6875ZM12.375 1.24609C12.9679 1.8175 13.5551 2.39757 14.1367 2.98633C13.7643 3.01498 13.3919 3.01498 13.0195 2.98633C12.6604 2.88491 12.4527 2.64859 12.3965 2.27734C12.375 1.93389 12.3679 1.59014 12.375 1.24609ZM14.3086 9.92578C14.3816 9.91891 14.4532 9.92604 14.5234 9.94727C15.933 10.5519 17.351 11.132 18.7773 11.6875C18.7845 13.2917 18.7773 14.8959 18.7559 16.5C18.6339 17.2309 18.3474 17.8898 17.8965 18.4766C16.966 19.6934 15.8059 20.6244 14.416 21.2695C10.3956 19.2989 9.47461 17.7891 10.0547 11.6875C11.4898 11.1344 12.9078 10.5472 14.3086 9.92578Z" fill="url(#paint0_linear_1768_1175)"/>
<path opacity="0.936" fill-rule="evenodd" clip-rule="evenodd" d="M2.23688 2.66284C4.24215 2.65568 6.24737 2.66284 8.25251 2.68433C8.53868 2.79133 8.61744 2.98469 8.48884 3.2644C8.45304 3.30021 8.41721 3.33602 8.38142 3.37183C6.29026 3.40047 4.19914 3.40047 2.10798 3.37183C1.91429 3.19767 1.88565 2.99714 2.02204 2.77026C2.10001 2.73775 2.17162 2.70194 2.23688 2.66284Z" fill="url(#paint1_linear_1768_1175)"/>
<path opacity="0.936" fill-rule="evenodd" clip-rule="evenodd" d="M2.10412 4.76832C4.86847 4.76114 7.63282 4.76832 10.3971 4.7898C10.6036 4.92253 10.6537 5.10158 10.5475 5.32691C10.4908 5.41229 10.412 5.46243 10.3112 5.4773C7.60412 5.50596 4.89709 5.50596 2.19006 5.4773C1.94965 5.37615 1.87088 5.1971 1.95373 4.94019C2.01284 4.88841 2.06297 4.83114 2.10412 4.76832Z" fill="url(#paint2_linear_1768_1175)"/>
<path opacity="0.935" fill-rule="evenodd" clip-rule="evenodd" d="M2.14685 6.83082C4.9112 6.82364 7.67555 6.83082 10.4398 6.8523C10.6188 6.89463 10.7048 7.00922 10.6976 7.19605C10.7019 7.3595 10.6303 7.4741 10.4828 7.5398C7.70412 7.56846 4.92551 7.56846 2.14685 7.5398C1.9218 7.39912 1.87167 7.20576 1.99646 6.95972C2.04566 6.91091 2.09579 6.86794 2.14685 6.83082Z" fill="url(#paint3_linear_1768_1175)"/>
<path opacity="0.936" fill-rule="evenodd" clip-rule="evenodd" d="M2.23688 8.89332C4.24215 8.88614 6.24737 8.89332 8.25251 8.9148C8.53868 9.02179 8.61744 9.21515 8.48884 9.49488C8.45304 9.53067 8.41721 9.56651 8.38142 9.6023C6.29026 9.63096 4.19914 9.63096 2.10798 9.6023C1.91429 9.42815 1.88565 9.22761 2.02204 9.00074C2.10001 8.96821 2.17162 8.93242 2.23688 8.89332Z" fill="url(#paint4_linear_1768_1175)"/>
<path opacity="0.922" fill-rule="evenodd" clip-rule="evenodd" d="M16.6277 13.3192C17.0509 13.2908 17.2157 13.477 17.1218 13.8778C16.0906 15.1669 15.0593 16.456 14.0281 17.745C13.8472 17.8791 13.6682 17.8863 13.4909 17.7665C12.8913 16.9898 12.2969 16.2092 11.7077 15.4247C11.5919 14.9911 11.7566 14.812 12.2019 14.8876C12.7231 15.5371 13.2388 16.1887 13.7488 16.8427C14.7081 15.6684 15.6677 14.494 16.6277 13.3192Z" fill="url(#paint5_linear_1768_1175)"/>
<defs>
<linearGradient id="paint0_linear_1768_1175" x1="-0.233687" y1="-8.58831e-07" x2="24.0897" y2="9.31445" gradientUnits="userSpaceOnUse">
<stop offset="0.11" stop-color="#60D7AD"/>
<stop offset="0.76" stop-color="#213C3A"/>
</linearGradient>
<linearGradient id="paint1_linear_1768_1175" x1="1.8583" y1="2.66016" x2="2.44301" y2="4.93715" gradientUnits="userSpaceOnUse">
<stop offset="0.11" stop-color="#60D7AD"/>
<stop offset="0.76" stop-color="#213C3A"/>
</linearGradient>
<linearGradient id="paint2_linear_1768_1175" x1="1.8179" y1="4.76562" x2="2.27515" y2="7.10338" gradientUnits="userSpaceOnUse">
<stop offset="0.11" stop-color="#60D7AD"/>
<stop offset="0.76" stop-color="#213C3A"/>
</linearGradient>
<linearGradient id="paint3_linear_1768_1175" x1="1.82465" y1="6.82812" x2="2.27761" y2="9.16761" gradientUnits="userSpaceOnUse">
<stop offset="0.11" stop-color="#60D7AD"/>
<stop offset="0.76" stop-color="#213C3A"/>
</linearGradient>
<linearGradient id="paint4_linear_1768_1175" x1="1.8583" y1="8.89062" x2="2.44303" y2="11.1677" gradientUnits="userSpaceOnUse">
<stop offset="0.11" stop-color="#60D7AD"/>
<stop offset="0.76" stop-color="#213C3A"/>
</linearGradient>
<linearGradient id="paint5_linear_1768_1175" x1="11.6063" y1="13.3164" x2="17.7611" y2="16.5258" gradientUnits="userSpaceOnUse">
<stop offset="0.11" stop-color="#60D7AD"/>
<stop offset="0.76" stop-color="#213C3A"/>
</linearGradient>
</defs>
</svg>
