<svg width="20" height="20" viewBox="0 0 20 20" fill="none" xmlns="http://www.w3.org/2000/svg">
<path opacity="0.938" fill-rule="evenodd" clip-rule="evenodd" d="M9.14062 0C9.71355 0 10.2864 0 10.8594 0C14.7759 0.489855 17.5689 2.52111 19.2383 6.09375C19.6342 7.06551 19.8881 8.06809 20 9.10156C20 9.6875 20 10.2734 20 10.8594C19.5123 14.7776 17.4811 17.5706 13.9062 19.2383C12.9225 19.6405 11.9069 19.8944 10.8594 20C10.2734 20 9.6875 20 9.10156 20C5.20418 19.4941 2.42424 17.4629 0.761719 13.9062C0.365802 12.9345 0.111895 11.9319 0 10.8984C0 10.2995 0 9.70051 0 9.10156C0.383085 5.81023 1.95861 3.26466 4.72656 1.46484C6.0907 0.643375 7.56203 0.155094 9.14062 0ZM9.17969 0.703125C11.9066 0.53123 14.2764 1.35154 16.2891 3.16406C16.0417 3.4375 15.7812 3.69792 15.5078 3.94531C15.2958 3.76131 15.0484 3.66365 14.7656 3.65234C11.5886 3.6263 8.41145 3.6263 5.23438 3.65234C4.58102 3.73283 4.17086 4.0909 4.00391 4.72656C3.97785 5.35156 3.97785 5.97656 4.00391 6.60156C4.07387 6.87996 4.21059 7.12086 4.41406 7.32422C4.20094 7.53555 4.06422 7.78945 4.00391 8.08594C3.97785 8.69793 3.97785 9.30988 4.00391 9.92188C4.05949 10.2154 4.19621 10.4628 4.41406 10.6641C4.19621 10.8653 4.05949 11.1127 4.00391 11.4062C3.97785 12.0182 3.97785 12.6302 4.00391 13.2422C4.13957 13.8466 4.51066 14.2177 5.11719 14.3555C4.47211 15.0071 3.82107 15.6516 3.16406 16.2891C1.08499 13.9498 0.32327 11.2285 0.878906 8.125C1.65852 4.82727 3.61815 2.54211 6.75781 1.26953C7.54773 0.982812 8.35504 0.794012 9.17969 0.703125ZM16.7969 3.71094C16.87 3.72495 16.9286 3.76402 16.9727 3.82812C19.0752 6.33125 19.7522 9.18281 19.0039 12.3828C17.991 15.7833 15.784 17.9903 12.3828 19.0039C9.63277 19.6741 7.0807 19.2314 4.72656 17.6758C4.36996 17.4168 4.03145 17.1368 3.71094 16.8359C4.52418 16.0031 5.34449 15.1763 6.17188 14.3555C7.33066 14.3359 8.48949 14.3294 9.64844 14.3359C9.64844 14.5703 9.64844 14.8047 9.64844 15.0391C9.16668 15.1823 8.85418 15.4948 8.71094 15.9766C7.8775 15.97 7.04418 15.9766 6.21094 15.9961C5.91488 16.1979 5.90187 16.4193 6.17188 16.6602C7.01812 16.6797 7.86449 16.6862 8.71094 16.6797C8.80074 17.0866 9.03512 17.3796 9.41406 17.5586C10.1556 17.8235 10.748 17.6347 11.1914 16.9922C11.2438 16.8937 11.2763 16.7895 11.2891 16.6797C12.1355 16.6862 12.9819 16.6797 13.8281 16.6602C14.0981 16.4193 14.0851 16.1979 13.7891 15.9961C12.9558 15.9766 12.1225 15.97 11.2891 15.9766C11.1507 15.5126 10.8512 15.2001 10.3906 15.0391C10.3517 14.8061 10.3387 14.5718 10.3516 14.3359C11.9011 14.3425 13.4506 14.3359 15 14.3164C15.5476 14.1594 15.8796 13.8013 15.9961 13.2422C16.0221 12.6302 16.0221 12.0182 15.9961 11.4062C15.9405 11.1127 15.8038 10.8653 15.5859 10.6641C15.8038 10.4628 15.9405 10.2154 15.9961 9.92188C16.0221 9.30988 16.0221 8.69793 15.9961 8.08594C15.9358 7.78945 15.7991 7.53555 15.5859 7.32422C15.8075 7.11578 15.9442 6.86188 15.9961 6.5625C16.0221 5.96355 16.0221 5.36457 15.9961 4.76562C15.9854 4.70309 15.9659 4.64449 15.9375 4.58984C16.2319 4.30203 16.5183 4.00906 16.7969 3.71094ZM5.27344 4.33594C8.41148 4.32941 11.5495 4.33594 14.6875 4.35547C14.8146 4.36523 14.9318 4.4043 15.0391 4.47266C14.7656 4.74609 14.4922 5.01953 14.2188 5.29297C13.5547 5.30598 12.8906 5.31902 12.2266 5.33203C12.008 5.42398 11.9364 5.58676 12.0117 5.82031C12.0443 5.90496 12.1029 5.96355 12.1875 5.99609C12.6042 6.0091 13.0208 6.02215 13.4375 6.03516C13.125 6.34766 12.8125 6.66016 12.5 6.97266C10.0781 6.99871 7.65625 6.99871 5.23438 6.97266C5.01512 6.92258 4.85234 6.79887 4.74609 6.60156C4.70238 6.29191 4.68285 5.97941 4.6875 5.66406C4.68285 5.34871 4.70238 5.03621 4.74609 4.72656C4.86566 4.51441 5.04145 4.38418 5.27344 4.33594ZM15.2734 5.23438C15.6333 6.71703 15.0604 7.29648 13.5547 6.97266C14.1355 6.3984 14.7084 5.81895 15.2734 5.23438ZM5.15625 7.69531C7.3568 7.68879 9.55734 7.69531 11.7578 7.71484C10.904 8.58156 10.0577 9.44094 9.21875 10.293C7.87762 10.319 6.53645 10.319 5.19531 10.293C4.9284 10.2344 4.76562 10.0716 4.70703 9.80469C4.68098 9.27082 4.68098 8.73699 4.70703 8.20312C4.7702 7.95148 4.91992 7.78223 5.15625 7.69531ZM12.8125 7.69531C13.4897 7.68879 14.1668 7.69531 14.8438 7.71484C15.0875 7.78937 15.2372 7.95215 15.293 8.20312C15.319 8.73699 15.319 9.27082 15.293 9.80469C15.2344 10.0716 15.0716 10.2344 14.8047 10.293C13.2812 10.319 11.7578 10.319 10.2344 10.293C11.1016 9.43223 11.961 8.56637 12.8125 7.69531ZM5.19531 11.0156C6.27613 11.0091 7.35684 11.0156 8.4375 11.0352C7.57812 11.8945 6.71875 12.7539 5.85938 13.6133C5.625 13.6393 5.39062 13.6393 5.15625 13.6133C4.92941 13.5427 4.77965 13.393 4.70703 13.1641C4.68098 12.6172 4.68098 12.0703 4.70703 11.5234C4.79895 11.2818 4.96172 11.1126 5.19531 11.0156ZM9.49219 11.0156C11.3044 10.9967 13.1143 11.0162 14.9219 11.0742C15.1033 11.1774 15.227 11.3271 15.293 11.5234C15.319 12.0703 15.319 12.6172 15.293 13.1641C15.2204 13.393 15.0706 13.5427 14.8438 13.6133C12.2005 13.6393 9.5573 13.6393 6.91406 13.6133C7.78133 12.7525 8.6407 11.8867 9.49219 11.0156ZM9.80469 15.7031C10.2791 15.6571 10.5656 15.8654 10.6641 16.3281C10.6123 16.7184 10.391 16.9398 10 16.9922C9.45309 16.8694 9.2643 16.5439 9.43359 16.0156C9.54043 15.8879 9.6641 15.7837 9.80469 15.7031Z" fill="url(#paint0_linear_2009_1122)"/>
<path opacity="0.896" fill-rule="evenodd" clip-rule="evenodd" d="M5.54798 5.31095C5.77415 5.29517 5.99548 5.3147 6.21204 5.36955C6.43228 5.60845 6.40622 5.81677 6.13392 5.99455C5.9081 6.02982 5.68677 6.01681 5.46986 5.95548C5.24716 5.70982 5.27318 5.49498 5.54798 5.31095Z" fill="url(#paint1_linear_2009_1122)"/>
<path opacity="0.897" fill-rule="evenodd" clip-rule="evenodd" d="M7.22659 5.31064C7.4712 5.28611 7.70558 5.31865 7.92972 5.4083C8.02511 5.56658 8.03163 5.72935 7.94925 5.89658C7.91398 5.94349 7.86843 5.97607 7.81253 5.99424C7.57378 6.02974 7.33941 6.01674 7.10941 5.95517C6.99933 5.82478 6.96679 5.67506 7.01175 5.50595C7.06456 5.4181 7.13616 5.35299 7.22659 5.31064Z" fill="url(#paint2_linear_2009_1122)"/>
<path opacity="0.901" fill-rule="evenodd" clip-rule="evenodd" d="M5.62537 8.63165C5.84303 8.61173 6.05135 8.64427 6.25037 8.72931C6.41604 8.94895 6.38998 9.14427 6.17225 9.31524C5.92053 9.35099 5.67315 9.33794 5.43006 9.27618C5.22936 8.9731 5.29448 8.75825 5.62537 8.63165Z" fill="url(#paint3_linear_2009_1122)"/>
<path opacity="0.91" fill-rule="evenodd" clip-rule="evenodd" d="M7.26425 8.63168C7.46343 8.61899 7.65875 8.63852 7.85019 8.69027C8.01769 8.83758 8.05023 9.01336 7.94785 9.21762C7.91258 9.26453 7.86703 9.29711 7.81113 9.31527C7.57238 9.35078 7.338 9.33777 7.108 9.27621C6.91246 8.99441 6.96453 8.77957 7.26425 8.63168Z" fill="url(#paint4_linear_2009_1122)"/>
<path opacity="0.932" fill-rule="evenodd" clip-rule="evenodd" d="M12.2715 8.63233C12.9748 8.62581 13.6779 8.63233 14.3809 8.65186C14.6808 8.73764 14.7654 8.92643 14.6348 9.21827C14.5995 9.26518 14.554 9.29776 14.4981 9.31592C13.7298 9.34198 12.9616 9.34198 12.1934 9.31592C12.0116 9.20276 11.953 9.04003 12.0176 8.82764C12.0881 8.73678 12.1728 8.6717 12.2715 8.63233Z" fill="url(#paint5_linear_2009_1122)"/>
<path opacity="0.899" fill-rule="evenodd" clip-rule="evenodd" d="M5.50935 11.9917C5.73107 11.9852 5.95243 11.9917 6.17341 12.0112C6.43958 12.2673 6.41353 12.4886 6.09529 12.6753C5.88353 12.7081 5.67521 12.695 5.47029 12.6362C5.25806 12.4063 5.27107 12.1914 5.50935 11.9917Z" fill="url(#paint6_linear_2009_1122)"/>
<path opacity="0.932" fill-rule="evenodd" clip-rule="evenodd" d="M12.1904 11.9917C12.9587 11.9852 13.727 11.9917 14.4951 12.0112C14.6882 12.1466 14.7337 12.3224 14.6318 12.5386C14.5803 12.6162 14.5087 12.6618 14.417 12.6753C13.6878 12.7014 12.9587 12.7014 12.2295 12.6753C11.9907 12.5467 11.9321 12.3578 12.0537 12.1089C12.0984 12.0645 12.144 12.0255 12.1904 11.9917Z" fill="url(#paint7_linear_2009_1122)"/>
<defs>
<linearGradient id="paint0_linear_2009_1122" x1="-0.239583" y1="-7.80756e-07" x2="23.8597" y2="10.4076" gradientUnits="userSpaceOnUse">
<stop offset="0.11" stop-color="#60D7AD"/>
<stop offset="0.76" stop-color="#213C3A"/>
</linearGradient>
<linearGradient id="paint1_linear_2009_1122" x1="5.30786" y1="5.30566" x2="6.36801" y2="5.97764" gradientUnits="userSpaceOnUse">
<stop offset="0.11" stop-color="#60D7AD"/>
<stop offset="0.76" stop-color="#213C3A"/>
</linearGradient>
<linearGradient id="paint2_linear_2009_1122" x1="6.98004" y1="5.30273" x2="8.0312" y2="5.95036" gradientUnits="userSpaceOnUse">
<stop offset="0.11" stop-color="#60D7AD"/>
<stop offset="0.76" stop-color="#213C3A"/>
</linearGradient>
<linearGradient id="paint3_linear_2009_1122" x1="5.30393" y1="8.62598" x2="6.36551" y2="9.29942" gradientUnits="userSpaceOnUse">
<stop offset="0.11" stop-color="#60D7AD"/>
<stop offset="0.76" stop-color="#213C3A"/>
</linearGradient>
<linearGradient id="paint4_linear_2009_1122" x1="6.98004" y1="8.62793" x2="8.02762" y2="9.2769" gradientUnits="userSpaceOnUse">
<stop offset="0.11" stop-color="#60D7AD"/>
<stop offset="0.76" stop-color="#213C3A"/>
</linearGradient>
<linearGradient id="paint5_linear_2009_1122" x1="11.9598" y1="8.62988" x2="12.9941" y2="10.3404" gradientUnits="userSpaceOnUse">
<stop offset="0.11" stop-color="#60D7AD"/>
<stop offset="0.76" stop-color="#213C3A"/>
</linearGradient>
<linearGradient id="paint6_linear_2009_1122" x1="5.30791" y1="11.9893" x2="6.36216" y2="12.6589" gradientUnits="userSpaceOnUse">
<stop offset="0.11" stop-color="#60D7AD"/>
<stop offset="0.76" stop-color="#213C3A"/>
</linearGradient>
<linearGradient id="paint7_linear_2009_1122" x1="11.9599" y1="11.9893" x2="12.9959" y2="13.6965" gradientUnits="userSpaceOnUse">
<stop offset="0.11" stop-color="#60D7AD"/>
<stop offset="0.76" stop-color="#213C3A"/>
</linearGradient>
</defs>
</svg>
