<svg width="25" height="25" viewBox="0 0 25 25" fill="none" xmlns="http://www.w3.org/2000/svg">
<path opacity="0.911" fill-rule="evenodd" clip-rule="evenodd" d="M6.88941 0.00330221C7.03473 -0.00557321 7.17898 0.00344283 7.32209 0.0303449C7.4116 0.108461 7.44768 0.207615 7.43026 0.327815C9.9461 0.444996 11.9202 1.52671 13.3526 3.57294C14.4279 5.26225 14.7614 7.08308 14.3532 9.03557C14.1467 9.19193 13.9574 9.17387 13.7853 8.98148C14.1254 6.57663 13.4494 4.5124 11.7571 2.7887C10.5474 1.69754 9.12313 1.11162 7.48435 1.03093C7.48884 1.26985 7.37163 1.39605 7.13279 1.40952C6.78632 1.29038 6.46181 1.12813 6.15925 0.922755C6.05108 0.778525 6.05108 0.634301 6.15925 0.490071C6.4015 0.319843 6.64489 0.157586 6.88941 0.00330221Z" fill="url(#paint0_linear_1746_1337)"/>
<path opacity="0.909" fill-rule="evenodd" clip-rule="evenodd" d="M4.6728 0.759766C5.07942 0.780724 5.21463 0.979039 5.07844 1.35471C2.32565 2.52238 0.856331 4.60465 0.670482 7.60157C0.706892 8.65765 0.959288 9.65823 1.42768 10.6033C1.56868 10.6476 1.71291 10.6746 1.86036 10.6844C1.90543 10.7295 1.95051 10.7746 1.99558 10.8197C2.03769 11.1802 2.05571 11.5408 2.04966 11.9014C1.95118 12.0902 1.79794 12.1532 1.58993 12.0907C1.29255 11.933 1.00409 11.7618 0.724568 11.5769C0.632904 11.3694 0.668962 11.1891 0.832738 11.036C-0.41405 8.40755 -0.260804 5.86554 1.29246 3.40995C2.17447 2.21224 3.30125 1.32884 4.6728 0.759766Z" fill="url(#paint1_linear_1746_1337)"/>
<path opacity="0.909" fill-rule="evenodd" clip-rule="evenodd" d="M6.77867 2.92223C8.95414 2.83856 10.5317 3.75801 11.5111 5.68058C12.3646 8.00993 11.8327 9.94798 9.91562 11.4948C7.97347 12.6604 6.08048 12.5883 4.23665 11.2784C2.65835 9.82423 2.1806 8.06645 2.80339 6.0051C3.54332 4.21617 4.86842 3.18854 6.77867 2.92223ZM6.77867 3.62534C9.04333 3.58944 10.4946 4.65312 11.1325 6.81638C11.4023 8.79179 10.6722 10.2611 8.94208 11.2243C7.07316 11.9647 5.45963 11.5951 4.10144 10.1156C3.05422 8.6396 2.96408 7.10719 3.83101 5.51833C4.53753 4.45744 5.52004 3.82646 6.77867 3.62534Z" fill="url(#paint2_linear_1746_1337)"/>
<path opacity="0.896" fill-rule="evenodd" clip-rule="evenodd" d="M7.75538 5.79088C8.16967 5.70954 8.34096 5.87179 8.26919 6.27765C7.78242 7.28726 7.29565 8.29682 6.80888 9.30643C6.62959 9.50141 6.43126 9.51948 6.21394 9.36052C6.10577 9.19826 6.10577 9.03601 6.21394 8.87375C6.70244 7.83077 7.21625 6.80314 7.75538 5.79088Z" fill="url(#paint3_linear_1746_1337)"/>
<path opacity="0.889" fill-rule="evenodd" clip-rule="evenodd" d="M5.42944 5.95243C5.82859 5.92771 5.98181 6.10798 5.88916 6.49328C5.47395 6.8635 5.06831 7.2421 4.67224 7.62908C5.06972 8.01757 5.47536 8.39617 5.88916 8.76487C5.92897 9.27246 5.72166 9.40768 5.26718 9.17051C4.8345 8.77391 4.40182 8.37724 3.96913 7.98063C3.81959 7.81865 3.77453 7.62935 3.83392 7.41274C4.36012 6.91326 4.89199 6.42649 5.42944 5.95243Z" fill="url(#paint4_linear_1746_1337)"/>
<path opacity="0.892" fill-rule="evenodd" clip-rule="evenodd" d="M8.72806 5.95338C8.81995 5.94473 8.91011 5.9537 8.99849 5.98042C9.54648 6.43815 10.0783 6.91588 10.594 7.41369C10.7022 7.55793 10.7022 7.70212 10.594 7.84637C10.0982 8.3061 9.60246 8.76582 9.10666 9.22555C8.79626 9.35881 8.59793 9.25968 8.51172 8.92808C8.52356 8.8503 8.55061 8.77821 8.59285 8.71174C8.99 8.35959 9.37763 7.999 9.75568 7.63003C9.37849 7.27095 8.99989 6.91037 8.61989 6.54832C8.47326 6.32008 8.50934 6.12175 8.72806 5.95338Z" fill="url(#paint5_linear_1746_1337)"/>
<path opacity="0.911" fill-rule="evenodd" clip-rule="evenodd" d="M16.0312 10.3337C18.2624 10.1426 20.2094 10.7827 21.8725 12.2538C22.0713 12.1952 22.2606 12.2222 22.4404 12.3349C23.0011 13.6311 22.6496 13.9646 21.3857 13.3355C21.2414 13.1552 21.2414 12.9749 21.3857 12.7946C19.32 11.0078 16.9943 10.5751 14.4087 11.4966C13.4427 11.9215 12.5954 12.5165 11.8667 13.2814C9.73045 14.8694 7.38671 15.266 4.83555 14.4713C4.02108 14.1815 3.28192 13.7668 2.61805 13.2273C2.37072 13.0242 2.35269 12.8079 2.56396 12.5783C2.70819 12.5422 2.85242 12.5422 2.99665 12.5783C5.01263 14.2036 7.24814 14.5822 9.70324 13.7141C10.3064 13.4578 10.8653 13.1333 11.3799 12.7405C12.6567 11.408 14.2072 10.6058 16.0312 10.3337Z" fill="url(#paint6_linear_1746_1337)"/>
<path opacity="0.919" fill-rule="evenodd" clip-rule="evenodd" d="M16.1425 12.7661C16.6837 12.7571 17.2246 12.7661 17.7651 12.7931C17.8823 12.8382 17.9634 12.9193 18.0085 13.0365C18.0178 13.2908 18.0448 13.5432 18.0896 13.7937C18.4092 13.8882 18.7156 14.0144 19.009 14.1723C19.2021 13.9701 19.4184 13.7989 19.6581 13.6585C19.7691 13.6409 19.8773 13.659 19.9826 13.7126C20.3921 14.0858 20.7617 14.4914 21.0913 14.9295C21.1052 15.0656 21.0692 15.1918 20.9832 15.3081C20.8139 15.4232 20.6607 15.5584 20.5234 15.7137C20.7033 16.0106 20.8476 16.3261 20.9561 16.6602C21.2066 16.705 21.459 16.732 21.7133 16.7413C21.7907 16.7665 21.8538 16.8116 21.9026 16.8766C21.9618 17.1787 21.9888 17.4852 21.9837 17.796C21.9888 18.1068 21.9618 18.4133 21.9026 18.7155C21.8393 18.7908 21.7582 18.8359 21.6592 18.8507C21.4228 18.86 21.1885 18.887 20.9561 18.9318C20.8449 19.2445 20.7187 19.5509 20.5775 19.8513C20.7797 20.0443 20.9509 20.2606 21.0913 20.5003C21.1089 20.6113 21.0909 20.7195 21.0373 20.8248C20.6857 21.1763 20.3341 21.5279 19.9826 21.8795C19.836 21.9771 19.6917 21.9771 19.5499 21.8795C19.3786 21.7082 19.2074 21.5369 19.0361 21.3656C18.7394 21.5459 18.4238 21.6902 18.0896 21.7983C18.0448 22.0489 18.0178 22.3012 18.0085 22.5555C17.9833 22.6329 17.9382 22.696 17.8733 22.7448C17.5711 22.804 17.2646 22.831 16.9538 22.8259C16.643 22.831 16.3365 22.804 16.0343 22.7448C16.0073 22.7178 15.9803 22.6907 15.9532 22.6637C15.9262 22.3758 15.9172 22.0874 15.9262 21.7983C15.5735 21.7258 15.24 21.5996 14.9256 21.4197C14.7388 21.5522 14.5676 21.7055 14.4118 21.8795C14.3065 21.9331 14.1983 21.9511 14.0873 21.9335C13.6652 21.5657 13.2596 21.178 12.8704 20.7707C12.8343 20.6445 12.8343 20.5183 12.8704 20.3921C13.0416 20.2208 13.2129 20.0496 13.3842 19.8783C13.2035 19.5797 13.0593 19.2642 12.9515 18.9318C12.0489 19.0566 11.7244 18.678 11.9779 17.796C11.987 17.4895 11.996 17.1831 12.005 16.8766C12.0683 16.8012 12.1494 16.7561 12.2484 16.7413C12.4827 16.7233 12.7171 16.7053 12.9515 16.6873C13.0535 16.3453 13.1978 16.0208 13.3842 15.7137C13.2129 15.5424 13.0416 15.3712 12.8704 15.1999C12.8343 15.0737 12.8343 14.9475 12.8704 14.8213C13.2596 14.414 13.6652 14.0264 14.0873 13.6585C14.2234 13.6446 14.3496 13.6806 14.4659 13.7666C14.6037 13.9227 14.757 14.0579 14.9256 14.1723C15.2463 14.0083 15.5799 13.8822 15.9262 13.7937C15.9172 13.5047 15.9262 13.2162 15.9532 12.9283C16.0151 12.8669 16.0783 12.8128 16.1425 12.7661ZM16.5752 13.4692C16.8276 13.4692 17.08 13.4692 17.3324 13.4692C17.3234 13.7402 17.3325 14.0106 17.3594 14.2805C17.3865 14.3075 17.4135 14.3345 17.4406 14.3616C18.0186 14.506 18.5685 14.7134 19.0902 14.9836C19.3482 14.8892 19.5646 14.7269 19.7392 14.4968C19.9105 14.6681 20.0817 14.8393 20.253 15.0106C20.0312 15.196 19.8509 15.4123 19.7122 15.6596C20.0323 16.1691 20.2577 16.7189 20.3882 17.3092C20.4288 17.3431 20.4739 17.3701 20.5234 17.3904C20.7752 17.4174 21.0276 17.4264 21.2806 17.4174C21.2806 17.6698 21.2806 17.9222 21.2806 18.1746C21.0096 18.1656 20.7392 18.1747 20.4694 18.2016C20.4423 18.2287 20.4153 18.2557 20.3882 18.2828C20.2438 18.8608 20.0365 19.4107 19.7662 19.9324C19.8606 20.1904 20.0229 20.4068 20.253 20.5814C20.0817 20.7527 19.9105 20.9239 19.7392 21.0952C19.5532 20.8727 19.3369 20.6924 19.0902 20.5544C18.5817 20.8743 18.0318 21.0997 17.4406 21.2304C17.4135 21.2575 17.3865 21.2845 17.3594 21.3116C17.3325 21.5814 17.3234 21.8518 17.3324 22.1228C17.08 22.1228 16.8276 22.1228 16.5752 22.1228C16.5842 21.8518 16.5752 21.5814 16.5482 21.3116C15.9593 21.1119 15.3914 20.8595 14.8445 20.5544C14.5813 20.6817 14.356 20.8621 14.1684 21.0952C13.9971 20.9239 13.8259 20.7527 13.6546 20.5814C13.8878 20.3938 14.0681 20.1685 14.1954 19.9053C13.8701 19.4074 13.6447 18.8665 13.5194 18.2828C13.4923 18.2557 13.4653 18.2287 13.4382 18.2016C13.1684 18.1747 12.898 18.1656 12.627 18.1746C12.627 17.9222 12.627 17.6698 12.627 17.4174C12.88 17.4264 13.1324 17.4174 13.3842 17.3904C13.4337 17.3701 13.4788 17.3431 13.5194 17.3092C13.6556 16.7126 13.881 16.1537 14.1954 15.6326C14.0939 15.3957 13.9407 15.1974 13.7357 15.0376C13.8303 14.833 13.9745 14.6528 14.1684 14.4968C14.343 14.7269 14.5594 14.8892 14.8174 14.9836C15.1213 14.8724 15.4187 14.7371 15.7098 14.5779C16.0007 14.4988 16.2802 14.3997 16.5482 14.2805C16.5752 14.0106 16.5842 13.7402 16.5752 13.4692Z" fill="url(#paint7_linear_1746_1337)"/>
<path opacity="0.908" fill-rule="evenodd" clip-rule="evenodd" d="M23.1138 14.3907C23.2763 14.3773 23.4115 14.4314 23.5194 14.5529C24.6603 17.3887 24.2817 20.0028 22.3836 22.3953C21.4737 23.4126 20.365 24.1248 19.0574 24.5317C19.0163 24.9328 18.7999 25.077 18.4083 24.9644C18.1069 24.918 17.8275 24.8189 17.57 24.6669C17.534 24.5407 17.534 24.4145 17.57 24.2883C17.7564 24.1019 17.9457 23.9126 18.1379 23.7204C18.4222 23.5212 18.6656 23.5662 18.8681 23.8556C21.7408 22.757 23.2823 20.6658 23.4924 17.5817C23.4587 16.5928 23.2423 15.6463 22.8434 14.7422C22.8857 14.5833 22.9759 14.4662 23.1138 14.3907Z" fill="url(#paint8_linear_1746_1337)"/>
<path opacity="0.911" fill-rule="evenodd" clip-rule="evenodd" d="M10.2428 14.6633C10.4216 14.6396 10.5839 14.6757 10.7296 14.7714C10.9134 15.1752 10.9585 15.5899 10.8648 16.0154C10.7529 16.0567 10.6357 16.0838 10.5132 16.0965C9.96311 19.0885 10.9367 21.4503 13.4338 23.1817C14.4041 23.7516 15.4498 24.0941 16.5708 24.2093C16.7258 24.4226 16.7077 24.6209 16.5167 24.8043C13.5845 24.5869 11.4842 23.1536 10.2157 20.5045C9.61096 19.0291 9.47575 17.5147 9.81011 15.9613C9.78047 15.8501 9.7174 15.76 9.62081 15.6909C9.58473 15.5647 9.58473 15.4385 9.62081 15.3123C9.83915 15.103 10.0465 14.8867 10.2428 14.6633Z" fill="url(#paint9_linear_1746_1337)"/>
<path opacity="0.909" fill-rule="evenodd" clip-rule="evenodd" d="M16.5684 15.2536C18.1007 15.1853 19.0652 15.8884 19.462 17.3629C19.5948 18.8199 18.9728 19.7844 17.596 20.2565C16.2214 20.5021 15.2208 20.0063 14.5943 18.7691C14.1801 17.5059 14.4956 16.4693 15.5408 15.6592C15.8658 15.46 16.2083 15.3247 16.5684 15.2536ZM16.6225 15.9567C15.9344 16.1487 15.4566 16.5814 15.1892 17.2547C14.9801 18.4865 15.4759 19.2707 16.6766 19.6074C17.7726 19.6767 18.4668 19.1809 18.7589 18.1201C18.8026 16.6584 18.0905 15.9373 16.6225 15.9567Z" fill="url(#paint10_linear_1746_1337)"/>
<defs>
<linearGradient id="paint0_linear_1746_1337" x1="5.97698" y1="-3.56833e-07" x2="16.3914" y2="4.15458" gradientUnits="userSpaceOnUse">
<stop offset="0.11" stop-color="#60D7AD"/>
<stop offset="0.76" stop-color="#213C3A"/>
</linearGradient>
<linearGradient id="paint1_linear_1746_1337" x1="-0.0614494" y1="0.759765" x2="7.00352" y2="2.13821" gradientUnits="userSpaceOnUse">
<stop offset="0.11" stop-color="#60D7AD"/>
<stop offset="0.76" stop-color="#213C3A"/>
</linearGradient>
<linearGradient id="paint2_linear_1746_1337" x1="2.42686" y1="2.91699" x2="13.7261" y2="7.77872" gradientUnits="userSpaceOnUse">
<stop offset="0.11" stop-color="#60D7AD"/>
<stop offset="0.76" stop-color="#213C3A"/>
</linearGradient>
<linearGradient id="paint3_linear_1746_1337" x1="6.10703" y1="5.77051" x2="9.00119" y2="6.49813" gradientUnits="userSpaceOnUse">
<stop offset="0.11" stop-color="#60D7AD"/>
<stop offset="0.76" stop-color="#213C3A"/>
</linearGradient>
<linearGradient id="paint4_linear_1746_1337" x1="3.78336" y1="5.9502" x2="6.58657" y2="6.71527" gradientUnits="userSpaceOnUse">
<stop offset="0.11" stop-color="#60D7AD"/>
<stop offset="0.76" stop-color="#213C3A"/>
</linearGradient>
<linearGradient id="paint5_linear_1746_1337" x1="8.4858" y1="5.9502" x2="11.3535" y2="6.75413" gradientUnits="userSpaceOnUse">
<stop offset="0.11" stop-color="#60D7AD"/>
<stop offset="0.76" stop-color="#213C3A"/>
</linearGradient>
<linearGradient id="paint6_linear_1746_1337" x1="2.17502" y1="10.3008" x2="8.37576" y2="22.1896" gradientUnits="userSpaceOnUse">
<stop offset="0.11" stop-color="#60D7AD"/>
<stop offset="0.76" stop-color="#213C3A"/>
</linearGradient>
<linearGradient id="paint7_linear_1746_1337" x1="11.7737" y1="12.7627" x2="23.9217" y2="18.0225" gradientUnits="userSpaceOnUse">
<stop offset="0.11" stop-color="#60D7AD"/>
<stop offset="0.76" stop-color="#213C3A"/>
</linearGradient>
<linearGradient id="paint8_linear_1746_1337" x1="17.4637" y1="14.3887" x2="26.2867" y2="16.7651" gradientUnits="userSpaceOnUse">
<stop offset="0.11" stop-color="#60D7AD"/>
<stop offset="0.76" stop-color="#213C3A"/>
</linearGradient>
<linearGradient id="paint9_linear_1746_1337" x1="9.50892" y1="14.6562" x2="18.79" y2="17.4531" gradientUnits="userSpaceOnUse">
<stop offset="0.11" stop-color="#60D7AD"/>
<stop offset="0.76" stop-color="#213C3A"/>
</linearGradient>
<linearGradient id="paint10_linear_1746_1337" x1="14.3573" y1="15.249" x2="20.4589" y2="17.8805" gradientUnits="userSpaceOnUse">
<stop offset="0.11" stop-color="#60D7AD"/>
<stop offset="0.76" stop-color="#213C3A"/>
</linearGradient>
</defs>
</svg>
