<svg width="21" height="20" viewBox="0 0 21 20" fill="none" xmlns="http://www.w3.org/2000/svg">
<path opacity="0.93" fill-rule="evenodd" clip-rule="evenodd" d="M10.8214 0.0159703C12.9239 -0.127057 14.5234 0.690611 15.6198 2.46897C15.8844 2.95421 16.0493 3.47062 16.1147 4.01824C18.1239 3.98588 19.5513 4.87528 20.3967 6.68642C21.0503 8.59787 20.6415 10.2403 19.1702 11.6139C18.8731 11.7366 18.787 11.9518 18.912 12.2595C18.7986 14.7093 17.6222 16.4164 15.3831 17.3807C13.0947 18.1228 11.0936 17.6566 9.37968 15.982C8.52311 15.0288 8.05691 13.9099 7.98104 12.6253C7.00556 12.6253 6.03013 12.6253 5.05465 12.6253C5.05465 13.4142 5.05465 14.2032 5.05465 14.9922C6.11628 14.985 7.17783 14.9922 8.23925 15.0137C8.30083 15.0337 8.35101 15.0696 8.38987 15.1213C8.43898 15.8781 8.47482 16.6384 8.49746 17.4022C9.40623 17.8404 9.64293 18.5146 9.20754 19.4248C8.80353 19.9515 8.27996 20.1165 7.63676 19.9197C6.9639 19.5853 6.69855 19.0474 6.84061 18.3059C6.997 17.8698 7.2911 17.5685 7.72283 17.4022C7.76582 16.8291 7.78019 16.2553 7.76586 15.6808C6.86212 15.6808 5.95839 15.6808 5.05465 15.6808C5.06179 15.9394 5.0546 16.1976 5.03313 16.4554C5.01312 16.517 4.97723 16.5672 4.92554 16.606C4.16873 16.6551 3.40845 16.691 2.64468 16.7136C2.27141 17.534 1.65457 17.7994 0.794166 17.5098C0.0480873 17.0355 -0.131223 16.3971 0.256227 15.5947C0.813265 14.9326 1.46596 14.825 2.21433 15.2719C2.4389 15.4604 2.58235 15.6971 2.64468 15.982C3.21848 15.982 3.7923 15.982 4.36609 15.982C4.36609 14.8631 4.36609 13.7442 4.36609 12.6253C3.90681 12.6325 3.44778 12.6253 2.98896 12.6038C1.62851 12.4481 0.688915 11.738 0.170157 10.4735C-0.258104 8.9795 0.122039 7.73863 1.31059 6.75097C1.73937 6.46849 2.20558 6.27483 2.70923 6.17C2.68624 4.7158 3.3246 3.67577 4.6243 3.04995C5.39716 2.74517 6.1718 2.738 6.94819 3.02843C7.7017 1.32763 8.99275 0.323478 10.8214 0.0159703ZM11.2517 0.704533C12.9302 0.714952 14.1997 1.4322 15.0603 2.85629C15.3456 3.4108 15.5177 3.99892 15.5767 4.62073C15.6594 4.7226 15.767 4.77996 15.8995 4.79287C17.8754 4.61475 19.2167 5.44675 19.9233 7.28891C20.2627 8.76665 19.8754 10.0147 18.7613 11.033C18.3671 9.50638 17.4993 8.33729 16.1577 7.5256C14.5479 6.67816 12.8982 6.59209 11.2087 7.26739C9.26297 8.21709 8.18709 9.77355 7.98104 11.9367C6.33129 11.9439 4.68162 11.9367 3.03199 11.9152C1.60213 11.683 0.813158 10.8438 0.665061 9.39763C0.813519 7.85052 1.65987 6.997 3.20414 6.83704C3.26876 6.81195 3.32614 6.7761 3.37628 6.72945C3.23653 5.67793 3.55212 4.79571 4.32305 4.08279C5.16873 3.46003 6.0581 3.38829 6.99123 3.86762C7.15235 3.9076 7.30298 3.88608 7.4431 3.80306C8.05867 1.95786 9.32821 0.925019 11.2517 0.704533ZM12.887 7.50409C14.9565 7.38746 16.5273 8.20513 17.5994 9.95709C18.5932 12.0268 18.335 13.9203 16.8248 15.6377C15.0914 17.1805 13.1763 17.4459 11.0796 16.4339C9.03518 15.1052 8.2964 13.2475 8.86326 10.8608C9.38007 9.33988 10.3914 8.29985 11.8972 7.74078C12.2284 7.6418 12.5583 7.56287 12.887 7.50409ZM1.31059 15.7238C1.9551 15.7792 2.1631 16.1091 1.9346 16.7136C1.57729 17.0671 1.233 17.0528 0.901754 16.6706C0.719208 16.218 0.855483 15.9024 1.31059 15.7238ZM8.02407 18.0477C8.66986 18.1061 8.87785 18.436 8.64808 19.0375C8.33057 19.3629 8.00062 19.3773 7.65827 19.0805C7.40858 18.6031 7.5305 18.2588 8.02407 18.0477Z" fill="url(#paint0_linear_2009_1114)"/>
<path opacity="0.917" fill-rule="evenodd" clip-rule="evenodd" d="M10.8635 1.60912C11.1077 1.60197 11.3516 1.60915 11.5951 1.63064C11.7742 1.7803 11.8101 1.95962 11.7027 2.16858C11.619 2.22725 11.5257 2.26311 11.4229 2.27617C10.6467 2.30208 10.0084 2.61049 9.50787 3.20142C9.35183 3.44887 9.2012 3.69994 9.056 3.95454C8.64054 4.08416 8.46126 3.93354 8.51806 3.50267C8.97893 2.46633 9.76075 1.83515 10.8635 1.60912Z" fill="url(#paint1_linear_2009_1114)"/>
<path opacity="0.927" fill-rule="evenodd" clip-rule="evenodd" d="M13.177 12.4058C13.7598 12.3206 14.183 12.5358 14.4465 13.0513C14.6247 13.6723 14.4311 14.1313 13.8655 14.4285C13.6719 14.493 13.7364 14.4715 13.6073 14.493C13.4782 14.5145 13.4997 14.493 13.3706 14.493C13.1555 14.45 13.263 14.4715 13.1339 14.4285C12.6575 14.2876 12.4136 13.9648 12.4023 13.4602C12.4261 12.9307 12.6843 12.5792 13.177 12.4058ZM13.3491 13.0513C13.1567 13.1493 13.0778 13.3071 13.1124 13.5247C13.2926 13.8276 13.5077 13.8563 13.758 13.6108C13.8754 13.244 13.7391 13.0576 13.3491 13.0513Z" fill="url(#paint2_linear_2009_1114)"/>
<path opacity="0.937" fill-rule="evenodd" clip-rule="evenodd" d="M13.083 8.17285C14.6497 8.1768 15.3954 8.99868 15.32 10.6384C15.7328 10.5697 16.0124 10.7341 16.1589 11.1315C16.1876 12.4913 16.1876 13.8511 16.1589 15.2109C16.0801 15.4425 15.9295 15.5994 15.7072 15.6816C14.1728 15.7115 12.6385 15.7115 11.1041 15.6816C10.918 15.6111 10.7818 15.484 10.6954 15.3005C10.6247 13.9136 10.6104 12.5239 10.6524 11.1315C10.8 10.7325 11.0796 10.5681 11.4913 10.6384C11.3943 9.35775 11.9249 8.53592 13.083 8.17285ZM13.1691 8.8901C12.4123 9.19543 12.0825 9.77819 12.1796 10.6384C12.997 10.6384 13.8144 10.6384 14.6317 10.6384C14.6398 10.352 14.6183 10.0681 14.5672 9.78667C14.3175 9.12949 13.8514 8.83066 13.1691 8.8901ZM11.3192 11.3557C11.3192 12.566 11.3192 13.7764 11.3192 14.9867C12.7102 14.9867 14.1012 14.9867 15.4921 14.9867C15.4921 13.7764 15.4921 12.566 15.4921 11.3557C14.1012 11.3557 12.7102 11.3557 11.3192 11.3557Z" fill="url(#paint3_linear_2009_1114)"/>
<defs>
<linearGradient id="paint0_linear_2009_1114" x1="-0.247948" y1="-7.80756e-07" x2="24.4173" y2="11.0239" gradientUnits="userSpaceOnUse">
<stop offset="0.11" stop-color="#60D7AD"/>
<stop offset="0.76" stop-color="#213C3A"/>
</linearGradient>
<linearGradient id="paint1_linear_2009_1114" x1="8.46882" y1="1.60645" x2="11.9288" y2="3.63903" gradientUnits="userSpaceOnUse">
<stop offset="0.11" stop-color="#60D7AD"/>
<stop offset="0.76" stop-color="#213C3A"/>
</linearGradient>
<linearGradient id="paint2_linear_2009_1114" x1="12.3771" y1="12.3877" x2="14.9199" y2="13.4824" gradientUnits="userSpaceOnUse">
<stop offset="0.11" stop-color="#60D7AD"/>
<stop offset="0.76" stop-color="#213C3A"/>
</linearGradient>
<linearGradient id="paint3_linear_2009_1114" x1="10.5624" y1="8.17285" x2="17.7691" y2="10.4671" gradientUnits="userSpaceOnUse">
<stop offset="0.11" stop-color="#60D7AD"/>
<stop offset="0.76" stop-color="#213C3A"/>
</linearGradient>
</defs>
</svg>
