<svg width="21" height="20" viewBox="0 0 21 20" fill="none" xmlns="http://www.w3.org/2000/svg">
<path opacity="0.929" fill-rule="evenodd" clip-rule="evenodd" d="M3.78146 0.01987C5.70171 -0.13359 7.16567 0.601852 8.1733 2.22619C8.72034 3.28729 8.84523 4.39738 8.54795 5.55649C7.96361 7.30652 6.76329 8.34029 4.94707 8.65784C3.02562 8.83147 1.56168 8.10297 0.555236 6.47233C0.00798437 5.41142 -0.116902 4.3013 0.180577 3.14203C0.320079 2.62008 0.562916 2.15522 0.90908 1.74746C1.20011 1.65714 1.3805 1.76121 1.45025 2.05968C1.29241 2.37536 1.13283 2.69452 0.971523 3.01714C0.427323 4.71938 0.836675 6.14171 2.19957 7.28409C3.28588 8.02308 4.45148 8.17573 5.69639 7.742C7.36004 6.96167 8.11631 5.65037 7.96515 3.80809C7.53246 1.8838 6.33218 0.843083 4.36427 0.68593C3.57049 0.716935 2.84893 0.959768 2.19957 1.41443C1.81398 1.44078 1.66828 1.26733 1.76247 0.894074C2.05984 0.62521 2.39981 0.424006 2.78237 0.290457C3.11388 0.173001 3.44691 0.0828044 3.78146 0.01987Z" fill="url(#paint0_linear_1767_1102)"/>
<path opacity="0.934" fill-rule="evenodd" clip-rule="evenodd" d="M4.32538 1.31055C4.46658 1.31959 4.58451 1.3751 4.67922 1.47706C4.69999 1.67084 4.70694 1.8651 4.70003 2.05986C5.20965 2.18786 5.53577 2.50702 5.67831 3.01733C5.72036 3.22787 5.69954 3.42908 5.61587 3.62094C5.48257 3.68268 5.34378 3.69658 5.19958 3.66257C5.12327 3.64176 5.07469 3.59318 5.05388 3.51687C5.04347 3.05575 4.81451 2.77823 4.367 2.6843C3.87758 2.77805 3.67638 3.06945 3.76339 3.5585C3.83969 3.74583 3.97153 3.87767 4.15886 3.95397C5.2594 4.01263 5.7659 4.58852 5.67831 5.68157C5.52195 6.17791 5.19587 6.49707 4.70003 6.63903C4.70694 6.81995 4.69999 7.00032 4.67922 7.1802C4.61557 7.30575 4.5115 7.36124 4.367 7.34672C4.22251 7.36124 4.11844 7.30575 4.05479 7.1802C4.03402 7.00032 4.02706 6.81995 4.03397 6.63903C3.30091 6.4084 2.97482 5.90886 3.0557 5.14039C3.26384 4.91839 3.47199 4.91839 3.68013 5.14039C3.72513 5.85308 4.07898 6.0959 4.74166 5.86889C5.07469 5.522 5.07469 5.17507 4.74166 4.82818C4.52003 4.71557 4.28416 4.66008 4.03397 4.66166C3.26111 4.3867 2.93502 3.83858 3.0557 3.01733C3.18446 2.49305 3.51056 2.1739 4.03397 2.05986C4.02706 1.8651 4.03402 1.67084 4.05479 1.47706C4.12939 1.38848 4.21956 1.33297 4.32538 1.31055Z" fill="url(#paint1_linear_1767_1102)"/>
<path opacity="0.934" fill-rule="evenodd" clip-rule="evenodd" d="M15.5206 1.35221C16.5198 1.34527 17.5189 1.35221 18.5179 1.37302C18.6259 1.42877 18.6883 1.51896 18.7052 1.64361C18.733 2.55944 18.733 3.47528 18.7052 4.39111C18.6321 4.6602 18.4587 4.75036 18.1849 4.6617C18.1086 4.64088 18.06 4.5923 18.0392 4.51599C18.0253 3.89156 18.0114 3.26713 17.9975 2.6427C15.6641 5.44931 12.9096 7.73194 9.73422 9.49063C7.47095 10.7168 5.05648 11.4384 2.49082 11.6553C2.04678 11.6831 1.60274 11.6831 1.1587 11.6553C0.936683 11.4472 0.936683 11.239 1.1587 11.0309C4.06643 10.9666 6.80006 10.245 9.35956 8.8662C12.5019 7.11912 15.2216 4.85036 17.5188 2.0599C16.8532 2.02523 16.1871 2.00441 15.5206 1.99746C15.3951 1.93382 15.3396 1.82975 15.3541 1.68524C15.3558 1.54546 15.4113 1.43445 15.5206 1.35221Z" fill="url(#paint2_linear_1767_1102)"/>
<path opacity="0.971" fill-rule="evenodd" clip-rule="evenodd" d="M15.5211 8.00932C16.5517 7.98929 17.5785 8.01011 18.6016 8.07176C18.6523 8.14036 18.687 8.21667 18.7057 8.30072C18.7335 8.7725 18.7335 9.24432 18.7057 9.7161C18.6326 9.98518 18.4591 10.0754 18.1853 9.98668C18.109 9.96587 18.0605 9.91729 18.0396 9.84098C18.0188 9.45271 18.0119 9.06415 18.0188 8.67538C17.3666 8.67538 16.7145 8.67538 16.0623 8.67538C16.0623 12.2277 16.0623 15.78 16.0623 19.3323C16.7145 19.3323 17.3666 19.3323 18.0188 19.3323C18.0119 16.5015 18.0188 13.6708 18.0396 10.8401C18.1946 10.6312 18.3819 10.5965 18.6016 10.736C18.6523 10.8046 18.687 10.8809 18.7057 10.965C18.7265 13.754 18.7335 16.5432 18.7265 19.3323C19.1153 19.3254 19.5039 19.3323 19.8921 19.3532C20.1141 19.5613 20.1141 19.7694 19.8921 19.9776C13.3148 20.0053 6.73744 20.0053 0.160097 19.9776C-0.0384474 19.7948 -0.0523223 19.6005 0.118468 19.3948C0.516468 19.3345 0.918881 19.3137 1.3257 19.3323C1.31877 18.3332 1.3257 17.3341 1.34652 16.3351C1.35139 16.1931 1.41383 16.089 1.53385 16.0229C2.53294 15.9951 3.53203 15.9951 4.53112 16.0229C4.56925 16.0384 4.60397 16.0592 4.63519 16.0853C4.69688 17.1639 4.7177 18.2463 4.69763 19.3323C5.14168 19.3323 5.5857 19.3323 6.02975 19.3323C6.0228 17.3896 6.02975 15.4469 6.05056 13.5043C6.07138 13.428 6.11996 13.3794 6.19627 13.3586C7.19536 13.3308 8.19445 13.3308 9.19353 13.3586C9.26984 13.3794 9.31842 13.428 9.33924 13.5043C9.36005 15.4469 9.367 17.3896 9.36005 19.3323C9.7902 19.3323 10.2204 19.3323 10.6505 19.3323C10.6436 16.5571 10.6505 13.7818 10.6714 11.0066C10.6762 10.8646 10.7387 10.7605 10.8587 10.6944C11.8578 10.6666 12.8569 10.6666 13.856 10.6944C13.9323 10.7152 13.9808 10.7638 14.0017 10.8401C14.0225 13.6708 14.0294 16.5015 14.0225 19.3323C14.4665 19.3323 14.9105 19.3323 15.3546 19.3323C15.3476 15.6135 15.3546 11.8947 15.3754 8.17583C15.4041 8.09882 15.4527 8.04329 15.5211 8.00932ZM11.3582 11.3396C12.0243 11.3396 12.6904 11.3396 13.3564 11.3396C13.3564 14.0039 13.3564 16.6681 13.3564 19.3323C12.6904 19.3323 12.0243 19.3323 11.3582 19.3323C11.3582 16.6681 11.3582 14.0039 11.3582 11.3396ZM6.73744 14.0039C7.38964 14.0039 8.04179 14.0039 8.69399 14.0039C8.69399 15.78 8.69399 17.5562 8.69399 19.3323C8.04179 19.3323 7.38964 19.3323 6.73744 19.3323C6.73744 17.5562 6.73744 15.78 6.73744 14.0039ZM2.03339 16.6681C2.69945 16.6681 3.36551 16.6681 4.03157 16.6681C4.03157 17.5562 4.03157 18.4443 4.03157 19.3323C3.36551 19.3323 2.69945 19.3323 2.03339 19.3323C2.03339 18.4443 2.03339 17.5562 2.03339 16.6681Z" fill="url(#paint3_linear_1767_1102)"/>
<defs>
<linearGradient id="paint0_linear_1767_1102" x1="-0.0805597" y1="-3.38961e-07" x2="10.3809" y2="4.51719" gradientUnits="userSpaceOnUse">
<stop offset="0.11" stop-color="#60D7AD"/>
<stop offset="0.76" stop-color="#213C3A"/>
</linearGradient>
<linearGradient id="paint1_linear_1767_1102" x1="2.99929" y1="1.31055" x2="6.67991" y2="2.0129" gradientUnits="userSpaceOnUse">
<stop offset="0.11" stop-color="#60D7AD"/>
<stop offset="0.76" stop-color="#213C3A"/>
</linearGradient>
<linearGradient id="paint2_linear_1767_1102" x1="0.779751" y1="1.34961" x2="17.1368" y2="13.4807" gradientUnits="userSpaceOnUse">
<stop offset="0.11" stop-color="#60D7AD"/>
<stop offset="0.76" stop-color="#213C3A"/>
</linearGradient>
<linearGradient id="paint3_linear_1767_1102" x1="-0.240285" y1="8.00195" x2="18.609" y2="21.613" gradientUnits="userSpaceOnUse">
<stop offset="0.11" stop-color="#60D7AD"/>
<stop offset="0.76" stop-color="#213C3A"/>
</linearGradient>
</defs>
</svg>
