<svg width="20" height="20" viewBox="0 0 20 20" fill="none" xmlns="http://www.w3.org/2000/svg">
<path opacity="0.911" fill-rule="evenodd" clip-rule="evenodd" d="M5.51618 0.00264165C5.63244 -0.00445838 5.74783 0.00275414 5.86232 0.0242749C5.93392 0.0867646 5.96278 0.166085 5.94885 0.26224C7.96143 0.355981 9.54066 1.22131 10.6865 2.85823C11.5467 4.20961 11.8135 5.66622 11.487 7.22814C11.3218 7.35322 11.1703 7.33877 11.0327 7.18487C11.3048 5.26107 10.7639 3.60976 9.41016 2.23086C8.44242 1.35797 7.30309 0.889253 5.99211 0.824704C5.99571 1.01584 5.90195 1.11679 5.71088 1.12757C5.43372 1.03226 5.17412 0.902463 4.93209 0.738171C4.84555 0.622793 4.84555 0.507418 4.93209 0.39204C5.12588 0.255863 5.32058 0.126064 5.51618 0.00264165Z" fill="url(#paint0_linear_2009_1131)"/>
<path opacity="0.909" fill-rule="evenodd" clip-rule="evenodd" d="M3.73808 0.609375C4.06336 0.626141 4.17152 0.784786 4.06258 1.08531C1.86044 2.0194 0.685034 3.68514 0.536362 6.08258C0.565489 6.9274 0.767396 7.72783 1.14209 8.48387C1.25489 8.51926 1.37027 8.54089 1.48822 8.54877C1.52428 8.58481 1.56034 8.62089 1.59639 8.65693C1.63008 8.94539 1.6445 9.23385 1.63966 9.52226C1.56088 9.6733 1.43829 9.72375 1.27189 9.67369C1.034 9.54757 0.803238 9.41059 0.579628 9.26266C0.506301 9.09669 0.535146 8.95244 0.666161 8.83C-0.331225 6.72734 -0.208634 4.69381 1.03393 2.72943C1.7395 1.7713 2.64088 1.06462 3.73808 0.609375Z" fill="url(#paint1_linear_2009_1131)"/>
<path opacity="0.896" fill-rule="evenodd" clip-rule="evenodd" d="M6.20034 4.63348C6.53176 4.56841 6.66878 4.69821 6.61137 5.02288C6.22197 5.83054 5.83257 6.63815 5.44317 7.4458C5.29975 7.60178 5.14109 7.61623 4.96724 7.48907C4.88071 7.35927 4.88071 7.22947 4.96724 7.09967C5.35803 6.26532 5.76906 5.44326 6.20034 4.63348Z" fill="url(#paint2_linear_2009_1131)"/>
<path opacity="0.889" fill-rule="evenodd" clip-rule="evenodd" d="M4.34349 4.76058C4.6628 4.7408 4.78537 4.88501 4.71126 5.19324C4.3791 5.4894 4.0546 5.79227 3.73776 6.10184C4.05573 6.41262 4.38023 6.71548 4.71126 7.01043C4.7431 7.41649 4.57726 7.52465 4.21369 7.33493C3.86756 7.01766 3.52143 6.70034 3.1753 6.38307C3.05567 6.25349 3.01963 6.10205 3.06713 5.92877C3.48807 5.52921 3.91356 5.13981 4.34349 4.76058Z" fill="url(#paint3_linear_2009_1131)"/>
<path opacity="0.892" fill-rule="evenodd" clip-rule="evenodd" d="M6.98557 4.76036C7.05908 4.75344 7.1312 4.76062 7.2019 4.78199C7.64027 5.14816 8.06571 5.53033 8.47826 5.92855C8.56479 6.04394 8.56479 6.15929 8.47826 6.27468C8.08163 6.64245 7.68505 7.01021 7.28843 7.37798C7.04012 7.48459 6.88147 7.40528 6.8125 7.14001C6.82198 7.0778 6.84361 7.02012 6.8774 6.96695C7.19511 6.68524 7.5052 6.39678 7.80763 6.10162C7.50589 5.81437 7.20302 5.52592 6.89903 5.23629C6.78174 5.05371 6.8106 4.89505 6.98557 4.76036Z" fill="url(#paint4_linear_2009_1131)"/>
<path opacity="0.911" fill-rule="evenodd" clip-rule="evenodd" d="M12.8198 8.26661C14.6046 8.1137 16.1622 8.62572 17.4926 9.80256C17.6516 9.75571 17.8031 9.77734 17.9469 9.86746C18.3955 10.9043 18.1142 11.1712 17.1032 10.6679C16.9878 10.5237 16.9878 10.3794 17.1032 10.2352C15.4507 8.80584 13.5902 8.4597 11.5218 9.19683C10.7491 9.53678 10.0712 10.0127 9.48831 10.6246C7.77941 11.895 5.9045 12.2122 3.86367 11.5765C3.21212 11.3447 2.62082 11.0129 2.08975 10.5814C1.89189 10.4189 1.87747 10.2458 2.04648 10.0622C2.16186 10.0333 2.27723 10.0333 2.39261 10.0622C4.00532 11.3624 5.79366 11.6652 7.75765 10.9708C8.24016 10.7658 8.68727 10.5062 9.09891 10.192C10.1203 9.12601 11.3606 8.48424 12.8198 8.26661Z" fill="url(#paint5_linear_2009_1131)"/>
<path opacity="0.919" fill-rule="evenodd" clip-rule="evenodd" d="M13.0217 10.927C13.3778 10.9211 13.7337 10.927 14.0894 10.9448C14.1665 10.9745 14.2199 11.0278 14.2495 11.105C14.2556 11.2723 14.2734 11.4383 14.3029 11.6032C14.5132 11.6654 14.7148 11.7484 14.9079 11.8523C15.0349 11.7193 15.1773 11.6066 15.335 11.5142C15.408 11.5027 15.4792 11.5145 15.5485 11.5498C15.818 11.7954 16.0611 12.0623 16.278 12.3505C16.2872 12.4401 16.2634 12.5231 16.2069 12.5997C16.0955 12.6754 15.9947 12.7644 15.9044 12.8666C16.0227 13.0619 16.1176 13.2695 16.1891 13.4894C16.3539 13.5188 16.52 13.5366 16.6873 13.5427C16.7382 13.5593 16.7797 13.589 16.8119 13.6317C16.8508 13.8305 16.8686 14.0322 16.8652 14.2367C16.8686 14.4412 16.8508 14.6429 16.8119 14.8417C16.7702 14.8913 16.7168 14.921 16.6517 14.9307C16.4962 14.9368 16.342 14.9546 16.1891 14.9841C16.1159 15.1898 16.0328 15.3914 15.94 15.5891C16.073 15.7161 16.1857 15.8584 16.278 16.0161C16.2896 16.0892 16.2777 16.1604 16.2425 16.2296C16.0111 16.461 15.7798 16.6923 15.5485 16.9236C15.452 16.9879 15.3571 16.9879 15.2638 16.9236C15.1511 16.8109 15.0384 16.6982 14.9257 16.5855C14.7305 16.7041 14.5228 16.7991 14.3029 16.8702C14.2734 17.0351 14.2556 17.2011 14.2495 17.3685C14.233 17.4194 14.2033 17.4609 14.1605 17.493C13.9617 17.532 13.76 17.5498 13.5556 17.5464C13.3511 17.5498 13.1494 17.532 12.9506 17.493C12.9328 17.4752 12.915 17.4574 12.8972 17.4396C12.8794 17.2502 12.8735 17.0604 12.8794 16.8702C12.6473 16.8225 12.4279 16.7395 12.221 16.6211C12.0981 16.7083 11.9854 16.8091 11.8829 16.9236C11.8136 16.9589 11.7424 16.9708 11.6694 16.9592C11.3917 16.7171 11.1248 16.4621 10.8687 16.1941C10.8449 16.111 10.8449 16.028 10.8687 15.9449C10.9814 15.8322 11.094 15.7196 11.2067 15.6069C11.0878 15.4104 10.993 15.2028 10.922 14.9841C10.3281 15.0662 10.1146 14.817 10.2814 14.2367C10.2874 14.035 10.2933 13.8334 10.2992 13.6317C10.3409 13.5821 10.3943 13.5525 10.4594 13.5427C10.6136 13.5309 10.7678 13.519 10.922 13.5072C10.9892 13.2822 11.0841 13.0686 11.2067 12.8666C11.094 12.7539 10.9814 12.6412 10.8687 12.5285C10.8449 12.4455 10.8449 12.3624 10.8687 12.2794C11.1248 12.0114 11.3917 11.7563 11.6694 11.5142C11.759 11.5051 11.842 11.5288 11.9185 11.5854C12.0092 11.6881 12.11 11.777 12.221 11.8523C12.432 11.7444 12.6515 11.6614 12.8794 11.6032C12.8735 11.413 12.8794 11.2232 12.8972 11.0338C12.9379 10.9934 12.9795 10.9578 13.0217 10.927ZM13.3064 11.3897C13.4725 11.3897 13.6386 11.3897 13.8047 11.3897C13.7988 11.568 13.8047 11.7459 13.8225 11.9235C13.8403 11.9413 13.8581 11.9591 13.8758 11.9769C14.2562 12.0719 14.618 12.2083 14.9613 12.3861C15.1311 12.324 15.2734 12.2173 15.3883 12.0658C15.501 12.1785 15.6137 12.2912 15.7264 12.4039C15.5805 12.5259 15.4619 12.6682 15.3705 12.831C15.5812 13.1662 15.7295 13.528 15.8154 13.9164C15.8421 13.9387 15.8718 13.9565 15.9044 13.9698C16.07 13.9876 16.2361 13.9935 16.4026 13.9876C16.4026 14.1537 16.4026 14.3197 16.4026 14.4858C16.2243 14.4799 16.0463 14.4859 15.8688 14.5036C15.851 14.5214 15.8332 14.5392 15.8154 14.557C15.7203 14.9374 15.5839 15.2992 15.4061 15.6424C15.4682 15.8122 15.575 15.9546 15.7264 16.0695C15.6137 16.1822 15.501 16.2949 15.3883 16.4076C15.266 16.2612 15.1236 16.1426 14.9613 16.0517C14.6267 16.2622 14.2649 16.4105 13.8758 16.4966C13.8581 16.5144 13.8403 16.5321 13.8225 16.5499C13.8047 16.7275 13.7988 16.9054 13.8047 17.0838C13.6386 17.0838 13.4725 17.0838 13.3064 17.0838C13.3123 16.9054 13.3064 16.7275 13.2886 16.5499C12.9012 16.4186 12.5275 16.2525 12.1676 16.0517C11.9945 16.1355 11.8462 16.2542 11.7228 16.4076C11.6101 16.2949 11.4974 16.1822 11.3847 16.0695C11.5381 15.9461 11.6567 15.7978 11.7406 15.6246C11.5265 15.297 11.3782 14.9411 11.2957 14.557C11.2779 14.5392 11.2601 14.5214 11.2423 14.5036C11.0648 14.4859 10.8868 14.4799 10.7085 14.4858C10.7085 14.3197 10.7085 14.1537 10.7085 13.9876C10.875 13.9935 11.0411 13.9876 11.2067 13.9698C11.2393 13.9565 11.269 13.9387 11.2957 13.9164C11.3854 13.5238 11.5336 13.1561 11.7406 12.8132C11.6738 12.6573 11.5729 12.5268 11.4381 12.4217C11.5003 12.2871 11.5951 12.1685 11.7228 12.0658C11.8377 12.2173 11.98 12.324 12.1498 12.3861C12.3498 12.313 12.5455 12.224 12.737 12.1192C12.9284 12.0672 13.1123 12.002 13.2886 11.9235C13.3064 11.7459 13.3123 11.568 13.3064 11.3897Z" fill="url(#paint6_linear_2009_1131)"/>
<path opacity="0.908" fill-rule="evenodd" clip-rule="evenodd" d="M18.4877 11.5123C18.6177 11.5016 18.7259 11.5449 18.8122 11.6421C19.7249 13.9107 19.422 16.0019 17.9036 17.9158C17.1757 18.7296 16.2888 19.2993 15.2427 19.6248C15.2098 19.9457 15.0368 20.061 14.7235 19.9709C14.4824 19.9338 14.2588 19.8545 14.0529 19.733C14.024 19.632 14.024 19.531 14.0529 19.4301C14.202 19.281 14.3534 19.1296 14.5072 18.9758C14.7346 18.8164 14.9293 18.8525 15.0913 19.084C17.3894 18.2051 18.6225 16.5322 18.7906 14.065C18.7636 13.274 18.5905 12.5168 18.2714 11.7936C18.3052 11.6664 18.3774 11.5727 18.4877 11.5123Z" fill="url(#paint7_linear_2009_1131)"/>
<path opacity="0.911" fill-rule="evenodd" clip-rule="evenodd" d="M8.1989 11.7283C8.34198 11.7094 8.47178 11.7382 8.58829 11.8148C8.7354 12.1378 8.77144 12.4696 8.69646 12.8099C8.60694 12.843 8.51318 12.8646 8.41523 12.8748C7.97516 15.2683 8.75396 17.1576 10.7516 18.5427C11.5278 18.9986 12.3643 19.2726 13.2611 19.3648C13.3851 19.5354 13.3706 19.6941 13.2178 19.8407C10.8721 19.6668 9.19195 18.5202 8.17726 16.401C7.69346 15.2208 7.58529 14.0093 7.85276 12.7667C7.82905 12.6777 7.77861 12.6056 7.70133 12.5503C7.67247 12.4494 7.67247 12.3484 7.70133 12.2475C7.876 12.0801 8.04184 11.907 8.1989 11.7283Z" fill="url(#paint8_linear_2009_1131)"/>
<path opacity="0.909" fill-rule="evenodd" clip-rule="evenodd" d="M13.2822 12.5499C14.2904 12.5049 14.9251 12.9676 15.1861 13.9378C15.2735 14.8965 14.8643 15.5311 13.9584 15.8418C13.0538 16.0034 12.3954 15.6771 11.9832 14.8631C11.7107 14.0319 11.9183 13.3498 12.606 12.8168C12.8199 12.6857 13.0452 12.5967 13.2822 12.5499ZM13.3178 13.0125C12.865 13.1388 12.5506 13.4235 12.3747 13.8666C12.2371 14.6771 12.5633 15.1931 13.3534 15.4147C14.0745 15.4603 14.5313 15.1341 14.7235 14.436C14.7523 13.4742 14.2837 12.9997 13.3178 13.0125Z" fill="url(#paint9_linear_2009_1131)"/>
<defs>
<linearGradient id="paint0_linear_2009_1131" x1="4.78627" y1="-2.85454e-07" x2="13.1174" y2="3.32352" gradientUnits="userSpaceOnUse">
<stop offset="0.11" stop-color="#60D7AD"/>
<stop offset="0.76" stop-color="#213C3A"/>
</linearGradient>
<linearGradient id="paint1_linear_2009_1131" x1="-0.0491574" y1="0.609375" x2="5.60257" y2="1.71208" gradientUnits="userSpaceOnUse">
<stop offset="0.11" stop-color="#60D7AD"/>
<stop offset="0.76" stop-color="#213C3A"/>
</linearGradient>
<linearGradient id="paint2_linear_2009_1131" x1="4.88172" y1="4.61719" x2="7.19695" y2="5.19926" gradientUnits="userSpaceOnUse">
<stop offset="0.11" stop-color="#60D7AD"/>
<stop offset="0.76" stop-color="#213C3A"/>
</linearGradient>
<linearGradient id="paint3_linear_2009_1131" x1="3.02669" y1="4.75879" x2="5.26916" y2="5.37082" gradientUnits="userSpaceOnUse">
<stop offset="0.11" stop-color="#60D7AD"/>
<stop offset="0.76" stop-color="#213C3A"/>
</linearGradient>
<linearGradient id="paint4_linear_2009_1131" x1="6.79177" y1="4.75781" x2="9.08579" y2="5.40093" gradientUnits="userSpaceOnUse">
<stop offset="0.11" stop-color="#60D7AD"/>
<stop offset="0.76" stop-color="#213C3A"/>
</linearGradient>
<linearGradient id="paint5_linear_2009_1131" x1="1.73534" y1="8.24023" x2="6.69571" y2="17.7509" gradientUnits="userSpaceOnUse">
<stop offset="0.11" stop-color="#60D7AD"/>
<stop offset="0.76" stop-color="#213C3A"/>
</linearGradient>
<linearGradient id="paint6_linear_2009_1131" x1="10.147" y1="10.9248" x2="18.1404" y2="14.3858" gradientUnits="userSpaceOnUse">
<stop offset="0.11" stop-color="#60D7AD"/>
<stop offset="0.76" stop-color="#213C3A"/>
</linearGradient>
<linearGradient id="paint7_linear_2009_1131" x1="13.9678" y1="11.5107" x2="21.0259" y2="13.4118" gradientUnits="userSpaceOnUse">
<stop offset="0.11" stop-color="#60D7AD"/>
<stop offset="0.76" stop-color="#213C3A"/>
</linearGradient>
<linearGradient id="paint8_linear_2009_1131" x1="7.61183" y1="11.7227" x2="15.0364" y2="13.96" gradientUnits="userSpaceOnUse">
<stop offset="0.11" stop-color="#60D7AD"/>
<stop offset="0.76" stop-color="#213C3A"/>
</linearGradient>
<linearGradient id="paint9_linear_2009_1131" x1="11.8273" y1="12.5469" x2="15.8421" y2="14.2784" gradientUnits="userSpaceOnUse">
<stop offset="0.11" stop-color="#60D7AD"/>
<stop offset="0.76" stop-color="#213C3A"/>
</linearGradient>
</defs>
</svg>
