<svg width="22" height="22" viewBox="0 0 22 22" fill="none" xmlns="http://www.w3.org/2000/svg">
<path opacity="0.939" fill-rule="evenodd" clip-rule="evenodd" d="M8.49367 0.0231919C10.1979 -0.124841 11.5744 0.435791 12.6232 1.70509C14.4218 1.38366 15.767 1.98167 16.6589 3.49911C17.8946 3.51406 19.1303 3.52902 20.366 3.54396C20.8695 3.68129 21.2058 3.98777 21.375 4.4634C21.4063 8.99331 21.4063 13.5232 21.375 18.0531C21.2121 18.6123 20.8288 18.9338 20.2253 19.0174C17.7537 19.0249 15.2822 19.0473 12.8109 19.0847C12.9831 19.5251 13.2646 19.8914 13.6556 20.1835C14.0026 20.1903 14.3468 20.2202 14.688 20.2732C15.1854 20.5188 15.3653 20.9 15.2276 21.4169C15.1259 21.6935 14.9304 21.8804 14.641 21.9776C11.9193 22.0075 9.19757 22.0075 6.47584 21.9776C5.83755 21.6553 5.68898 21.1843 6.03004 20.5648C6.13628 20.4332 6.26927 20.336 6.42891 20.2732C6.77012 20.2202 7.11423 20.1903 7.46129 20.1835C7.8657 19.8802 8.14726 19.4989 8.30597 19.0398C5.9283 19.0473 3.55073 19.0398 1.17316 19.0174C0.569973 18.9342 0.18674 18.6128 0.0234644 18.0531C-0.00782145 13.5382 -0.00782145 9.02323 0.0234644 4.50825C0.172066 4.00742 0.508369 3.68599 1.03238 3.54396C2.26811 3.52902 3.50385 3.51406 4.73956 3.49911C5.21826 1.56889 6.4696 0.410248 8.49367 0.0231919ZM9.00986 0.695951C9.85923 0.714882 10.6257 0.961561 11.3093 1.43599C11.6906 1.77023 12.0347 2.12903 12.3416 2.5124C12.7592 2.43907 13.1816 2.37179 13.6086 2.31057C14.3602 2.35955 14.9937 2.64361 15.5092 3.16273C15.7105 3.45046 15.9061 3.74199 16.0957 4.03732C17.4524 4.57477 18.0233 5.53905 17.8086 6.93019C17.4689 7.95659 16.7415 8.56207 15.6265 8.74663C15.2357 8.76906 14.8447 8.77651 14.4533 8.76906C14.0338 7.13484 12.9545 6.17055 11.2154 5.8762C9.53262 5.73483 8.24215 6.34031 7.34398 7.69265C7.14384 8.03001 7.01089 8.38882 6.9451 8.76906C5.96486 8.90998 5.08888 8.69322 4.31723 8.11873C3.49254 7.28424 3.31265 6.33488 3.77757 5.27071C4.15369 4.64236 4.70118 4.20879 5.42 3.97005C5.77593 2.02244 6.97255 0.931076 9.00986 0.695951ZM1.12623 4.23915C1.95541 4.23166 2.78445 4.23915 3.61333 4.26157C3.41638 4.45102 3.25995 4.66783 3.14407 4.91191C2.75395 4.94922 2.36289 4.97165 1.97091 4.97918C1.72227 5.04188 1.54239 5.18393 1.43126 5.40526C1.39997 8.8737 1.39997 12.3422 1.43126 15.8106C1.5533 16.1045 1.78012 16.2615 2.11169 16.2815C7.85233 16.3115 13.593 16.3115 19.3337 16.2815C19.6963 16.219 19.9232 16.0171 20.0141 15.6761C20.0454 12.402 20.0454 9.12786 20.0141 5.85377C19.9338 5.37333 19.6444 5.0818 19.146 4.97918C18.8476 4.9716 18.5503 4.94918 18.2544 4.91191C18.1384 4.66783 17.982 4.45102 17.7851 4.26157C18.6497 4.21793 19.51 4.23287 20.366 4.30642C20.4795 4.38101 20.5655 4.47816 20.6241 4.59795C20.6554 9.03816 20.6554 13.4784 20.6241 17.9186C20.5492 18.1249 20.4005 18.2519 20.1783 18.2998C13.8589 18.3297 7.53952 18.3297 1.22009 18.2998C0.997876 18.2519 0.849279 18.1249 0.774286 17.9186C0.743 13.4784 0.743 9.03816 0.774286 4.59795C0.869462 4.45479 0.986778 4.33517 1.12623 4.23915ZM2.11169 5.67437C2.36245 5.66692 2.61273 5.67441 2.86251 5.69679C2.59857 7.0633 3.05219 8.15465 4.22337 8.97089C5.03698 9.41226 5.91296 9.58418 6.85125 9.48667C6.92727 11.3297 7.88142 12.5332 9.71376 13.0971C11.7693 13.464 13.2788 12.7688 14.2422 11.0116C14.4493 10.5224 14.551 10.014 14.5472 9.48667C16.0199 9.66778 17.2009 9.20434 18.0901 8.0963C18.5859 7.35353 18.7345 6.55371 18.5359 5.69679C18.708 5.66688 18.88 5.66688 19.0521 5.69679C19.1193 5.71765 19.174 5.75505 19.2163 5.80892C19.2863 9.06548 19.3098 12.3246 19.2867 15.5864C13.5617 15.5864 7.8367 15.5864 2.11169 15.5864C2.11169 12.2823 2.11169 8.97838 2.11169 5.67437ZM10.2299 6.57138C11.6491 6.46087 12.7206 6.98414 13.4444 8.14115C14.1451 9.74626 13.7619 11.0544 12.2947 12.0656C10.8444 12.7779 9.5383 12.591 8.37636 11.5049C7.57889 10.5789 7.39119 9.54735 7.81324 8.41026C8.29794 7.40574 9.10353 6.79281 10.2299 6.57138ZM9.10372 19.0398C10.074 19.0249 11.0438 19.0398 12.0132 19.0847C12.1322 19.4843 12.32 19.8506 12.5763 20.1835C11.2308 20.2209 9.88556 20.2135 8.5406 20.1611C8.81639 19.8283 9.00409 19.4545 9.10372 19.0398ZM6.71047 20.9236C9.27584 20.9161 11.8411 20.9236 14.4064 20.946C14.5529 21.1141 14.5216 21.2337 14.3125 21.3048C11.8098 21.3347 9.30705 21.3347 6.80432 21.3048C6.59208 21.2257 6.56078 21.0986 6.71047 20.9236Z" fill="url(#paint0_linear_1769_1248)"/>
<path opacity="0.914" fill-rule="evenodd" clip-rule="evenodd" d="M10.5582 7.64844C11.6063 7.65682 12.2868 8.13525 12.5995 9.08366C12.9874 9.14936 13.1125 9.35864 12.9749 9.71157C12.8263 9.85361 12.6777 9.9956 12.5291 10.1376C12.4082 10.1937 12.283 10.2087 12.1537 10.1825C11.9597 10.0421 11.7799 9.88509 11.614 9.71157C11.4794 9.44426 11.5498 9.24243 11.8252 9.10608C11.5745 8.59828 11.1521 8.34412 10.5582 8.34362C10.3535 8.24378 10.2831 8.08681 10.347 7.87269C10.3951 7.7746 10.4655 7.69984 10.5582 7.64844Z" fill="url(#paint1_linear_1769_1248)"/>
<path opacity="0.917" fill-rule="evenodd" clip-rule="evenodd" d="M8.96643 8.95206C9.09877 8.94076 9.22387 8.96318 9.34184 9.01934C9.49046 9.16138 9.63903 9.30337 9.78764 9.44542C9.91247 9.68676 9.85771 9.88114 9.6234 10.0285C9.90022 10.49 10.3226 10.7217 10.8904 10.7237C11.1683 11.0105 11.1213 11.2347 10.7496 11.3964C9.99051 11.3887 9.40393 11.0823 8.9899 10.477C8.90224 10.3377 8.84747 10.1882 8.82565 10.0285C8.40984 10.011 8.27685 9.81669 8.42678 9.44542C8.60177 9.27059 8.78164 9.10612 8.96643 8.95206Z" fill="url(#paint2_linear_1769_1248)"/>
<path opacity="0.909" fill-rule="evenodd" clip-rule="evenodd" d="M9.80918 17.1581C10.31 17.1506 10.8105 17.1581 11.3108 17.1805C11.5882 17.4696 11.5413 17.6938 11.17 17.8533C10.7633 17.8832 10.3567 17.8832 9.94996 17.8533C9.57554 17.686 9.52861 17.4543 9.80918 17.1581Z" fill="url(#paint3_linear_1769_1248)"/>
<defs>
<linearGradient id="paint0_linear_1769_1248" x1="-0.256335" y1="-8.58831e-07" x2="25.7485" y2="10.9235" gradientUnits="userSpaceOnUse">
<stop offset="0.11" stop-color="#60D7AD"/>
<stop offset="0.76" stop-color="#213C3A"/>
</linearGradient>
<linearGradient id="paint1_linear_1769_1248" x1="10.2918" y1="7.64844" x2="13.4866" y2="9.11384" gradientUnits="userSpaceOnUse">
<stop offset="0.11" stop-color="#60D7AD"/>
<stop offset="0.76" stop-color="#213C3A"/>
</linearGradient>
<linearGradient id="paint2_linear_1769_1248" x1="8.33483" y1="8.94922" x2="11.4819" y2="10.4496" gradientUnits="userSpaceOnUse">
<stop offset="0.11" stop-color="#60D7AD"/>
<stop offset="0.76" stop-color="#213C3A"/>
</linearGradient>
<linearGradient id="paint3_linear_1769_1248" x1="9.60663" y1="17.1553" x2="10.7921" y2="18.477" gradientUnits="userSpaceOnUse">
<stop offset="0.11" stop-color="#60D7AD"/>
<stop offset="0.76" stop-color="#213C3A"/>
</linearGradient>
</defs>
</svg>
