<svg width="15" height="20" viewBox="0 0 15 20" fill="none" xmlns="http://www.w3.org/2000/svg">
<path opacity="0.946" fill-rule="evenodd" clip-rule="evenodd" d="M7.07047 0.00268366C7.28039 -0.0105818 7.48149 0.0253315 7.67383 0.110428C8.53579 0.455209 10.2788 1.27138 11.1407 1.61616C11.0115 2.00404 11.033 1.91785 10.9253 2.17643C10.8391 2.20517 10.0442 1.86307 9.95801 1.83433C9.05296 1.468 8.14791 1.10167 7.24286 0.735344C5.07535 1.6087 2.90607 2.47783 0.735109 3.34275C0.684943 5.38683 0.677789 7.43397 0.71356 9.48417C0.82458 13.2237 2.39764 16.1616 5.43275 18.2976C5.9738 18.6329 6.53407 18.9345 7.11356 19.2027C7.19976 19.2314 7.28595 19.2314 7.37215 19.2027C10.4545 17.7722 12.4729 15.4233 13.4274 12.1562C13.5792 11.576 13.6797 10.987 13.7291 10.3892C13.7966 8.04807 13.811 5.70644 13.7722 3.3643C13.3371 3.17916 12.0561 2.63057 11.6148 2.45657C11.7725 2.10811 11.6579 2.39192 11.7657 2.11179C11.8185 1.97452 11.8303 1.93671 11.8519 1.8532C12.3259 2.03995 13.7506 2.55263 14.2247 2.73939C14.3349 2.76892 14.4139 2.83357 14.4617 2.93333C14.4905 5.43299 14.4905 7.93265 14.4617 10.4323C14.0364 14.2378 12.2191 17.1613 9.00986 19.2027C8.45114 19.5396 7.86213 19.8054 7.24286 20C5.90248 19.5312 4.71009 18.8201 3.66575 17.8667C1.53948 15.8623 0.325569 13.3986 0.0239975 10.4754C-0.0187511 7.92912 -0.00438666 5.38636 0.0670951 2.84713C2.40342 1.89382 4.73785 0.945674 7.07047 0.00268366Z" fill="url(#paint0_linear_1855_1454)"/>
<path fill-rule="evenodd" clip-rule="evenodd" d="M7.56565 11.0364C7.87274 10.8855 8.08409 10.5697 8.08409 10.2046C8.08409 9.69305 7.66914 9.27832 7.15728 9.27832C6.64542 9.27832 6.23047 9.69305 6.23047 10.2046C6.23047 10.5989 6.4769 10.9356 6.82421 11.0693V12.9836H7.56565V11.0364Z" fill="url(#paint1_linear_1855_1454)"/>
<path fill-rule="evenodd" clip-rule="evenodd" d="M7.20312 14.3737C9.12261 14.3737 10.6787 12.8185 10.6787 10.9C10.6787 8.98154 9.12261 7.42632 7.20312 7.42632C5.28364 7.42632 3.72759 8.98154 3.72759 10.9C3.72759 12.8185 5.28364 14.3737 7.20312 14.3737ZM7.20312 15.3C9.63447 15.3 11.6055 13.3301 11.6055 10.9C11.6055 8.46995 9.63447 6.5 7.20312 6.5C4.77178 6.5 2.80078 8.46995 2.80078 10.9C2.80078 13.3301 4.77178 15.3 7.20312 15.3Z" fill="url(#paint2_linear_1855_1454)"/>
<defs>
<linearGradient id="paint0_linear_1855_1454" x1="-0.173497" y1="-7.80756e-07" x2="18.6884" y2="5.89887" gradientUnits="userSpaceOnUse">
<stop offset="0.11" stop-color="#60D7AD"/>
<stop offset="0.76" stop-color="#213C3A"/>
</linearGradient>
<linearGradient id="paint1_linear_1855_1454" x1="6.20826" y1="9.27832" x2="8.7402" y2="9.82534" gradientUnits="userSpaceOnUse">
<stop offset="0.11" stop-color="#60D7AD"/>
<stop offset="0.76" stop-color="#213C3A"/>
</linearGradient>
<linearGradient id="paint2_linear_1855_1454" x1="2.69531" y1="6.5" x2="13.3029" y2="11.0835" gradientUnits="userSpaceOnUse">
<stop offset="0.11" stop-color="#60D7AD"/>
<stop offset="0.76" stop-color="#213C3A"/>
</linearGradient>
</defs>
</svg>
