<svg width="22" height="24" viewBox="0 0 22 24" fill="none" xmlns="http://www.w3.org/2000/svg">
<path opacity="0.935" fill-rule="evenodd" clip-rule="evenodd" d="M9.5625 0C10.2969 0 11.0312 0 11.7656 0C12.6188 0.0815367 13.4625 0.245599 14.2969 0.492188C14.8732 0.650831 15.3497 0.955519 15.7266 1.40625C15.7863 1.51019 15.8332 1.61956 15.8672 1.73438C15.8985 3.875 15.8985 6.01561 15.8672 8.15625C15.7283 8.56083 15.4705 8.86552 15.0938 9.07031C14.3995 9.4275 13.6651 9.66187 12.8906 9.77344C12.3149 9.85556 11.7368 9.91027 11.1563 9.9375C11.1484 10.6408 11.1563 11.3439 11.1797 12.0469C11.75 12.6172 12.3203 13.1875 12.8906 13.7578C13.7342 13.7812 14.578 13.7891 15.4219 13.7812C15.3251 13.218 15.5126 12.7882 15.9844 12.4922C16.872 12.4159 17.7626 12.4002 18.6563 12.4453C18.968 12.6776 18.968 12.912 18.6563 13.1484C17.875 13.164 17.0938 13.1797 16.3125 13.1953C16.2746 13.2098 16.2434 13.2332 16.2188 13.2656C16.1884 13.5603 16.1728 13.8571 16.1719 14.1562C16.1658 14.4735 16.1893 14.7861 16.2422 15.0938C17.731 15.1482 19.2232 15.156 20.7188 15.1172C20.7422 15.0938 20.7656 15.0703 20.7891 15.0469C20.8203 14.4531 20.8203 13.8594 20.7891 13.2656C20.7656 13.2422 20.7422 13.2188 20.7188 13.1953C20.4479 13.1909 20.1823 13.1596 19.9219 13.1016C19.7862 12.9652 19.7472 12.8011 19.8047 12.6094C19.9805 12.4462 20.1915 12.3837 20.4375 12.4219C20.9937 12.3676 21.3609 12.602 21.5391 13.125C21.5703 13.8125 21.5703 14.5 21.5391 15.1875C21.4565 15.5356 21.2456 15.7622 20.9063 15.8672C20.2346 15.8906 19.5627 15.8985 18.8906 15.8906C18.8985 17.8907 18.8906 19.8907 18.8672 21.8906C18.8063 22.1704 18.6423 22.3657 18.375 22.4766C16.4687 22.4922 14.5625 22.5078 12.6563 22.5234C12.4446 23.2897 11.9602 23.7819 11.2031 24C10.9219 24 10.6406 24 10.3594 24C9.16622 23.5826 8.7053 22.7545 8.97656 21.5156C9.21656 20.8302 9.69314 20.424 10.4063 20.2969C10.4141 18.953 10.4063 17.6093 10.3828 16.2656C9.81249 15.6953 9.2422 15.125 8.67188 14.5547C7.82827 14.5312 6.98452 14.5234 6.14063 14.5312C6.20658 14.9953 6.08156 15.3938 5.76563 15.7266C5.67188 15.7734 5.57813 15.8203 5.48438 15.8672C4.79705 15.8906 4.10953 15.8985 3.42188 15.8906C3.42188 16.5469 3.42188 17.2031 3.42188 17.8594C4.40189 18.0821 4.91752 18.6993 4.96875 19.7109C4.73827 21.2062 3.87886 21.8 2.39063 21.4922C1.48749 21.0691 1.08906 20.3582 1.19531 19.3594C1.36628 18.54 1.85847 18.04 2.67188 17.8594C2.67188 17.2031 2.67188 16.5469 2.67188 15.8906C1.99982 15.8985 1.32795 15.8906 0.656251 15.8672C0.332781 15.7468 0.121843 15.5202 0.0234387 15.1875C-0.00781289 14.5 -0.00781289 13.8125 0.0234387 13.125C0.125003 12.7734 0.351564 12.5469 0.703126 12.4453C2.26562 12.414 3.82814 12.414 5.39063 12.4453C5.82145 12.5478 6.06366 12.8212 6.11719 13.2656C6.14058 13.4368 6.14836 13.6087 6.14063 13.7812C6.98452 13.7891 7.82827 13.7812 8.67188 13.7578C9.2422 13.1875 9.81249 12.6172 10.3828 12.0469C10.4063 11.3439 10.4141 10.6408 10.4063 9.9375C9.40336 9.91097 8.41899 9.76252 7.45313 9.49219C6.97641 9.34758 6.53892 9.12881 6.14063 8.83594C5.93545 8.64642 5.787 8.41988 5.69531 8.15625C5.66405 6.03127 5.66405 3.90625 5.69531 1.78125C5.85005 1.36081 6.12347 1.0405 6.51563 0.820312C6.80372 0.630394 7.11624 0.536644 7.45313 0.539062C7.68788 0.688692 7.73475 0.884006 7.59375 1.125C7.35267 1.26906 7.10264 1.40187 6.84375 1.52344C6.30286 1.81583 6.2872 2.12833 6.79688 2.46094C7.8592 2.98285 8.9842 3.24848 10.1719 3.25781C11.3443 3.31693 12.5005 3.20755 13.6406 2.92969C14.1499 2.79612 14.6108 2.56956 15.0234 2.25C15.1883 1.99102 15.1336 1.78008 14.8594 1.61719C14.1803 1.21664 13.446 0.966637 12.6563 0.867188C12.0424 0.777497 11.4253 0.738436 10.8047 0.75C10.1078 0.757491 9.41245 0.780928 8.71875 0.820312C8.58441 0.75502 8.52192 0.645647 8.53125 0.492188C8.52694 0.360285 8.57381 0.25091 8.67188 0.164062C8.97342 0.0982894 9.27033 0.043602 9.5625 0ZM6.42188 3.14062C7.36425 3.60814 8.36424 3.88158 9.42188 3.96094C10.8247 4.09845 12.2153 4.02033 13.5938 3.72656C14.122 3.60002 14.622 3.40471 15.0938 3.14062C15.1483 3.45196 15.1561 3.76446 15.1172 4.07812C14.8773 4.37454 14.5726 4.58548 14.2031 4.71094C12.1281 5.35406 10.0343 5.41655 7.92188 4.89844C7.52536 4.79395 7.15036 4.63769 6.79688 4.42969C6.64842 4.34375 6.53124 4.22656 6.44531 4.07812C6.42188 3.76602 6.4141 3.45352 6.42188 3.14062ZM6.42188 5.10938C7.36158 5.58656 8.36156 5.86003 9.42188 5.92969C11.1107 6.10594 12.767 5.9497 14.3906 5.46094C14.6381 5.36845 14.8725 5.25127 15.0938 5.10938C15.1483 5.42072 15.1561 5.73319 15.1172 6.04688C14.8773 6.34331 14.5726 6.55425 14.2031 6.67969C12.128 7.32281 10.0343 7.3853 7.92188 6.86719C7.47094 6.74325 7.04906 6.55575 6.65625 6.30469C6.56911 6.23166 6.4988 6.14573 6.44531 6.04688C6.42188 5.73478 6.4141 5.42227 6.42188 5.10938ZM6.42188 7.07812C7.36294 7.55564 8.36292 7.82906 9.42188 7.89844C11.1108 8.07469 12.7671 7.91845 14.3906 7.42969C14.6421 7.3313 14.8843 7.21411 15.1172 7.07812C15.1485 7.39064 15.1485 7.70311 15.1172 8.01562C14.9647 8.22886 14.7694 8.39292 14.5313 8.50781C13.3292 8.98875 12.0792 9.2153 10.7813 9.1875C9.60914 9.20198 8.46853 9.02231 7.35938 8.64844C7.11755 8.53537 6.88317 8.41036 6.65625 8.27344C6.56822 8.20111 6.49791 8.11519 6.44531 8.01562C6.42188 7.70353 6.4141 7.39102 6.42188 7.07812ZM10.7344 12.75C11.2465 13.184 11.7309 13.6527 12.1875 14.1562C11.7344 14.6406 11.2656 15.1094 10.7813 15.5625C10.2969 15.1094 9.82814 14.6406 9.375 14.1562C9.82913 13.6865 10.2823 13.2178 10.7344 12.75ZM0.843751 13.1719C2.31258 13.164 3.78131 13.1719 5.25 13.1953C5.3047 13.2188 5.34375 13.2578 5.36719 13.3125C5.39845 13.875 5.39845 14.4375 5.36719 15C5.34966 15.0429 5.32622 15.082 5.29688 15.1172C3.81249 15.1485 2.32813 15.1485 0.843751 15.1172C0.820314 15.0938 0.796876 15.0703 0.773439 15.0469C0.742187 14.4531 0.742187 13.8594 0.773439 13.2656C0.807057 13.2401 0.830495 13.2089 0.843751 13.1719ZM12.8906 14.5312C13.7344 14.5312 14.5781 14.5312 15.4219 14.5312C15.3559 14.9953 15.4809 15.3938 15.7969 15.7266C15.8906 15.7734 15.9844 15.8203 16.0781 15.8672C16.7655 15.8906 17.453 15.8985 18.1406 15.8906C18.1406 17.8438 18.1406 19.7969 18.1406 21.75C16.3125 21.7578 14.4843 21.75 12.6563 21.7266C12.4527 20.937 11.9528 20.4605 11.1563 20.2969C11.1484 18.953 11.1563 17.6093 11.1797 16.2656C11.7595 15.6937 12.3298 15.1155 12.8906 14.5312ZM2.8125 18.5625C3.72609 18.5309 4.18702 18.9684 4.19531 19.875C4.01869 20.5362 3.58899 20.8565 2.90625 20.8359C2.17534 20.6638 1.85502 20.2029 1.94531 19.4531C2.08675 19.0071 2.37582 18.7102 2.8125 18.5625ZM10.5469 21C11.5376 20.9829 11.9829 21.4673 11.8828 22.4531C11.5801 23.1709 11.0567 23.413 10.3125 23.1797C9.612 22.7415 9.4636 22.1556 9.86719 21.4219C10.0572 21.214 10.2837 21.0734 10.5469 21Z" fill="url(#paint0_linear_1851_1257)"/>
<defs>
<linearGradient id="paint0_linear_1851_1257" x1="-0.258301" y1="-9.36907e-07" x2="26.5358" y2="10.3962" gradientUnits="userSpaceOnUse">
<stop offset="0.11" stop-color="#60D7AD"/>
<stop offset="0.76" stop-color="#213C3A"/>
</linearGradient>
</defs>
</svg>
