<svg width="20" height="19" viewBox="0 0 20 19" fill="none" xmlns="http://www.w3.org/2000/svg">
<path opacity="0.935" fill-rule="evenodd" clip-rule="evenodd" d="M17.4943 10.7957C18.1755 10.7235 18.7603 10.9212 19.2487 11.3888C19.7448 12.1357 19.6541 12.8028 18.9769 13.3902C16.9087 15.0091 14.8496 16.64 12.7995 18.2827C12.4432 18.5096 12.056 18.6332 11.6382 18.6533C9.41939 18.1605 7.19554 17.6828 4.9666 17.2202C4.72499 17.2348 4.50261 17.309 4.29945 17.4426C4.00955 17.6418 3.71304 17.8312 3.4099 18.0109C3.419 18.4129 3.25429 18.7177 2.91572 18.9251C2.16064 19.0043 1.40289 19.0208 0.642447 18.9746C0.34749 18.9104 0.141576 18.7375 0.0247107 18.4557C-0.00823689 16.3636 -0.00823689 14.2715 0.0247107 12.1795C0.112607 11.9763 0.252626 11.8198 0.444771 11.71C0.853688 11.6555 1.26552 11.6308 1.68024 11.6359C2.09497 11.6308 2.50677 11.6555 2.91572 11.71C3.2231 11.8705 3.40432 12.1258 3.45932 12.476C4.17422 12.0492 4.88254 11.6127 5.58434 11.1664C5.86756 11.0339 6.16407 10.9845 6.47388 11.0181C6.77835 11.0702 7.07486 11.1525 7.36342 11.2652C9.10954 11.8912 10.8557 12.5171 12.6018 13.1431C12.7132 13.2112 12.8203 13.2853 12.923 13.3655C14.1379 12.6387 15.3487 11.9056 16.5553 11.1664C16.857 10.9975 17.17 10.874 17.4943 10.7957ZM17.4943 11.6853C17.8589 11.6452 18.2048 11.7029 18.5321 11.8582C18.7151 12.0261 18.7727 12.232 18.7051 12.476C16.6586 14.061 14.6406 15.6837 12.6512 17.3437C12.3846 17.5718 12.0798 17.7283 11.737 17.8132C9.48497 17.3101 7.22816 16.8324 4.9666 16.3801C4.37866 16.4434 3.85151 16.6575 3.3852 17.0225C3.35223 15.82 3.35223 14.6174 3.3852 13.4149C4.24592 12.8898 5.11075 12.3709 5.97969 11.8582C6.19382 11.7594 6.408 11.7594 6.62213 11.8582C8.54053 12.5306 10.4514 13.2225 12.3547 13.9338C12.83 14.3977 12.8135 14.8425 12.3053 15.2681C12.0418 15.367 11.7782 15.367 11.5146 15.2681C10.4493 14.8426 9.37857 14.4308 8.30238 14.0327C7.81427 14.0109 7.65776 14.2333 7.8329 14.6998C9.002 15.1884 10.1798 15.6579 11.3663 16.1083C12.4768 16.3893 13.1934 15.9858 13.5161 14.8975C13.555 14.6362 13.5303 14.3809 13.4419 14.1315C13.4491 14.0934 13.4656 14.0604 13.4914 14.0327C14.8157 13.2227 16.15 12.4402 17.4943 11.6853ZM0.790704 12.476C1.38373 12.476 1.97676 12.476 2.56978 12.476C2.56978 14.3704 2.56978 16.2648 2.56978 18.1592C1.97676 18.1592 1.38373 18.1592 0.790704 18.1592C0.790704 16.2648 0.790704 14.3704 0.790704 12.476Z" fill="url(#paint0_linear_1853_1387)"/>
<path opacity="0.952" fill-rule="evenodd" clip-rule="evenodd" d="M10.8523 0.00727943C12.0061 -0.0292384 13.1452 0.0716396 14.2697 0.309913C14.8531 0.437383 15.365 0.686228 15.8053 1.05641C15.8858 1.15277 15.9435 1.26034 15.9784 1.37922C16.0072 4.1231 16.0072 6.86698 15.9784 9.61086C15.8787 9.87875 15.6985 10.0872 15.4376 10.2363C14.5293 10.6735 13.5632 10.9156 12.5394 10.9626C11.2388 11.0604 9.95543 10.9663 8.68945 10.6802C8.12516 10.5415 7.62769 10.2927 7.19706 9.93367C7.11656 9.83731 7.0589 9.72974 7.02403 9.61086C6.98121 6.82433 6.99561 4.0401 7.06729 1.25817C7.3149 0.906667 7.65378 0.657821 8.08384 0.511669C8.98702 0.220737 9.90983 0.0526342 10.8523 0.00727943ZM11.4579 0.652898C10.8117 0.675535 10.1628 0.736062 9.51135 0.834479C8.97971 0.923574 8.47507 1.08498 7.99733 1.31869C7.76733 1.41763 7.70244 1.5723 7.80267 1.78273C8.14774 2.02024 8.52983 2.18838 8.949 2.28712C10.6504 2.69063 12.3519 2.69063 14.0534 2.28712C15.6676 1.84064 15.6676 1.39677 14.0534 0.955532C13.1991 0.766931 12.3339 0.666053 11.4579 0.652898ZM7.69453 2.5494C7.6873 3.10104 7.69453 3.65248 7.71615 4.2038C7.85864 4.43025 8.06771 4.58496 8.34339 4.66784C9.36431 5.00663 10.4169 5.17473 11.5012 5.17223C12.5511 5.16969 13.5749 5.01502 14.5725 4.70819C14.8815 4.62188 15.1194 4.45378 15.2862 4.2038C15.3151 3.65232 15.3151 3.10088 15.2862 2.5494C15.1383 2.62853 14.9869 2.7025 14.832 2.77134C13.4242 3.19276 11.9823 3.34073 10.5063 3.2152C9.51671 3.17465 8.57949 2.95271 7.69453 2.5494ZM7.69453 5.13188C7.6873 5.68352 7.69453 6.23496 7.71615 6.78628C7.85864 7.01273 8.06771 7.16744 8.34339 7.25032C9.36431 7.58911 10.4169 7.75721 11.5012 7.75471C12.5511 7.75216 13.5749 7.5975 14.5725 7.29067C14.8815 7.20436 15.1194 7.03625 15.2862 6.78628C15.3151 6.2348 15.3151 5.68336 15.2862 5.13188C15.1383 5.21101 14.9869 5.28497 14.832 5.35381C13.4242 5.77524 11.9823 5.92321 10.5063 5.79767C9.51671 5.75712 8.57949 5.53519 7.69453 5.13188ZM7.69453 7.71436C7.6873 8.266 7.69453 8.81744 7.71615 9.36875C7.85864 9.5952 8.06771 9.74991 8.34339 9.83279C9.36431 10.1716 10.4169 10.3397 11.5012 10.3372C12.5511 10.3346 13.5749 10.18 14.5725 9.87314C14.8815 9.78683 15.1194 9.61873 15.2862 9.36875C15.3151 8.81727 15.3151 8.26583 15.2862 7.71436C15.1383 7.79348 14.9869 7.86745 14.832 7.93629C13.4242 8.35771 11.9823 8.50568 10.5063 8.38015C9.51671 8.3396 8.57949 8.11767 7.69453 7.71436Z" fill="url(#paint1_linear_1853_1387)"/>
<defs>
<linearGradient id="paint0_linear_1853_1387" x1="-0.234351" y1="10.7812" x2="13.3649" y2="24.7607" gradientUnits="userSpaceOnUse">
<stop offset="0.11" stop-color="#60D7AD"/>
<stop offset="0.76" stop-color="#213C3A"/>
</linearGradient>
<linearGradient id="paint1_linear_1853_1387" x1="6.89219" y1="-4.29416e-07" x2="18.3313" y2="4.04192" gradientUnits="userSpaceOnUse">
<stop offset="0.11" stop-color="#60D7AD"/>
<stop offset="0.76" stop-color="#213C3A"/>
</linearGradient>
</defs>
</svg>
