<svg width="21" height="18" viewBox="0 0 21 18" fill="none" xmlns="http://www.w3.org/2000/svg">
<path opacity="0.934" fill-rule="evenodd" clip-rule="evenodd" d="M15.5206 0.35221C16.5198 0.345275 17.5189 0.35221 18.5179 0.373024C18.6259 0.428765 18.6883 0.518958 18.7052 0.643611C18.733 1.55944 18.733 2.47528 18.7052 3.39111C18.6321 3.6602 18.4587 3.75036 18.1849 3.6617C18.1086 3.64088 18.06 3.5923 18.0392 3.51599C18.0253 2.89156 18.0114 2.26713 17.9975 1.6427C15.6641 4.44931 12.9096 6.73194 9.73422 8.49063C7.47095 9.71685 5.05648 10.4384 2.49082 10.6553C2.04678 10.6831 1.60274 10.6831 1.1587 10.6553C0.936683 10.4472 0.936683 10.239 1.1587 10.0309C4.06643 9.96658 6.80006 9.24498 9.35956 7.8662C12.5019 6.11912 15.2216 3.85036 17.5188 1.0599C16.8532 1.02523 16.1871 1.00441 15.5206 0.997456C15.3951 0.933822 15.3396 0.82975 15.3541 0.68524C15.3558 0.545463 15.4113 0.434452 15.5206 0.35221Z" fill="url(#paint0_linear_1853_1406)"/>
<path opacity="0.971" fill-rule="evenodd" clip-rule="evenodd" d="M15.5211 6.00932C16.5517 5.98929 17.5785 6.01011 18.6016 6.07176C18.6523 6.14036 18.687 6.21667 18.7057 6.30072C18.7335 6.7725 18.7335 7.24432 18.7057 7.7161C18.6326 7.98518 18.4591 8.07535 18.1853 7.98668C18.109 7.96587 18.0605 7.91729 18.0396 7.84098C18.0188 7.45271 18.0119 7.06415 18.0188 6.67538C17.3666 6.67538 16.7145 6.67538 16.0623 6.67538C16.0623 10.2277 16.0623 13.78 16.0623 17.3323C16.7145 17.3323 17.3666 17.3323 18.0188 17.3323C18.0119 14.5015 18.0188 11.6708 18.0396 8.84007C18.1946 8.63118 18.3819 8.5965 18.6016 8.736C18.6523 8.8046 18.687 8.88091 18.7057 8.96496C18.7265 11.754 18.7335 14.5432 18.7265 17.3323C19.1153 17.3254 19.5039 17.3323 19.8921 17.3532C20.1141 17.5613 20.1141 17.7694 19.8921 17.9776C13.3148 18.0053 6.73744 18.0053 0.160097 17.9776C-0.0384474 17.7948 -0.0523223 17.6005 0.118468 17.3948C0.516468 17.3345 0.918881 17.3137 1.3257 17.3323C1.31877 16.3332 1.3257 15.3341 1.34652 14.3351C1.35139 14.1931 1.41383 14.089 1.53385 14.0229C2.53294 13.9951 3.53203 13.9951 4.53112 14.0229C4.56925 14.0384 4.60397 14.0592 4.63519 14.0853C4.69688 15.1639 4.7177 16.2463 4.69763 17.3323C5.14168 17.3323 5.5857 17.3323 6.02975 17.3323C6.0228 15.3896 6.02975 13.4469 6.05056 11.5043C6.07138 11.428 6.11996 11.3794 6.19627 11.3586C7.19536 11.3308 8.19445 11.3308 9.19353 11.3586C9.26984 11.3794 9.31842 11.428 9.33924 11.5043C9.36005 13.4469 9.367 15.3896 9.36005 17.3323C9.7902 17.3323 10.2204 17.3323 10.6505 17.3323C10.6436 14.5571 10.6505 11.7818 10.6714 9.00659C10.6762 8.86459 10.7387 8.76052 10.8587 8.69437C11.8578 8.6666 12.8569 8.6666 13.856 8.69437C13.9323 8.71518 13.9808 8.76377 14.0017 8.84007C14.0225 11.6708 14.0294 14.5015 14.0225 17.3323C14.4665 17.3323 14.9105 17.3323 15.3546 17.3323C15.3476 13.6135 15.3546 9.89465 15.3754 6.17583C15.4041 6.09882 15.4527 6.04329 15.5211 6.00932ZM11.3582 9.33962C12.0243 9.33962 12.6904 9.33962 13.3564 9.33962C13.3564 12.0039 13.3564 14.6681 13.3564 17.3323C12.6904 17.3323 12.0243 17.3323 11.3582 17.3323C11.3582 14.6681 11.3582 12.0039 11.3582 9.33962ZM6.73744 12.0039C7.38964 12.0039 8.04179 12.0039 8.69399 12.0039C8.69399 13.78 8.69399 15.5562 8.69399 17.3323C8.04179 17.3323 7.38964 17.3323 6.73744 17.3323C6.73744 15.5562 6.73744 13.78 6.73744 12.0039ZM2.03339 14.6681C2.69945 14.6681 3.36551 14.6681 4.03157 14.6681C4.03157 15.5562 4.03157 16.4443 4.03157 17.3323C3.36551 17.3323 2.69945 17.3323 2.03339 17.3323C2.03339 16.4443 2.03339 15.5562 2.03339 14.6681Z" fill="url(#paint1_linear_1853_1406)"/>
<path opacity="0.932" fill-rule="evenodd" clip-rule="evenodd" d="M3.72194 1.94708C4.90346 1.86933 5.68761 2.38625 6.07432 3.49781C6.27985 4.69468 5.82867 5.53137 4.72071 6.00789C3.73461 6.27496 2.93296 6.00773 2.31577 5.20624C1.84266 4.41773 1.84266 3.62922 2.31577 2.84072C2.66526 2.35547 3.13397 2.0576 3.72194 1.94708ZM3.7745 2.3939C3.33843 2.49167 2.9836 2.71947 2.71002 3.07727C2.2274 3.897 2.32815 4.63733 3.01228 5.29823C3.65549 5.75609 4.31258 5.78237 4.98355 5.37708C5.63128 4.86185 5.82841 4.20912 5.57493 3.41896C5.21558 2.66215 4.61545 2.32046 3.7745 2.3939Z" fill="url(#paint2_linear_1853_1406)"/>
<path opacity="0.934" fill-rule="evenodd" clip-rule="evenodd" d="M3.54828 0.00164642C3.87257 -0.00274294 4.19672 0.00164642 4.52077 0.0147882C4.54485 0.0246183 4.56677 0.03776 4.58648 0.0542136C4.66983 0.251787 4.75307 0.448914 4.83618 0.645594C5.1966 0.746996 5.53829 0.891555 5.86124 1.07927C6.02769 1.00481 6.19417 0.930324 6.36062 0.855862C6.443 0.835098 6.52185 0.843851 6.59718 0.882146C6.7943 1.07927 6.99143 1.2764 7.18856 1.47353C7.21878 1.53277 7.22756 1.59409 7.21484 1.65751C7.13515 1.83535 7.06069 2.01494 6.99143 2.19632C7.16995 2.52579 7.31012 2.87186 7.41197 3.23452C7.62665 3.30473 7.83253 3.39233 8.02963 3.49736C8.03838 3.52364 8.04716 3.54993 8.05591 3.57621C8.07344 3.88286 8.07344 4.18949 8.05591 4.49614C8.04369 4.53375 8.02177 4.56439 7.9902 4.58813C7.78745 4.66143 7.59033 4.74467 7.39882 4.83782C7.30859 5.17854 7.17717 5.50272 7.00457 5.81031C6.98704 5.84535 6.98704 5.88041 7.00457 5.91545C7.07467 6.07315 7.14474 6.23085 7.21484 6.38855C7.2334 6.4535 7.22464 6.51485 7.18856 6.57254C6.98268 6.77842 6.77677 6.98432 6.57089 7.1902C6.50079 7.20773 6.43072 7.20773 6.36062 7.1902C6.19417 7.11574 6.02769 7.04125 5.86124 6.96679C5.53839 7.15475 5.19671 7.2993 4.83618 7.40047C4.7603 7.55788 4.69459 7.71997 4.63905 7.88672C4.62105 7.95392 4.58162 8.00213 4.52077 8.03128C4.19662 8.04881 3.87244 8.04881 3.54828 8.03128C3.52421 8.02145 3.50229 8.0083 3.48257 7.99185C3.39923 7.79428 3.31599 7.59715 3.23288 7.40047C2.87235 7.2993 2.53066 7.15475 2.20782 6.96679C2.04137 7.04125 1.87489 7.11574 1.70843 7.1902C1.63833 7.20773 1.56826 7.20773 1.49816 7.1902C1.27394 6.97476 1.05928 6.75135 0.854217 6.51997C0.837763 6.46181 0.842152 6.40485 0.867358 6.34913C0.942582 6.1848 1.01265 6.01835 1.07763 5.84974C0.894877 5.53226 0.75907 5.19496 0.670232 4.83782C0.477836 4.74446 0.280709 4.66122 0.0788513 4.58813C0.0472743 4.56439 0.0253696 4.53375 0.0131424 4.49614C-0.00438081 4.18073 -0.00438081 3.86533 0.0131424 3.54993C0.0253696 3.51232 0.0472743 3.48167 0.0788513 3.45794C0.281603 3.38463 0.478729 3.30139 0.670232 3.20824C0.758597 2.85189 0.894404 2.51459 1.07763 2.19632C0.999538 2.01823 0.925051 1.83863 0.854217 1.65751C0.83566 1.59256 0.844413 1.53122 0.8805 1.47353C1.08638 1.26765 1.29228 1.06174 1.49816 0.855862C1.56826 0.838331 1.63833 0.838331 1.70843 0.855862C1.87489 0.930324 2.04137 1.00481 2.20782 1.07927C2.53066 0.891319 2.87235 0.746759 3.23288 0.645594C3.30198 0.485395 3.36769 0.323305 3.43001 0.159348C3.45114 0.0898015 3.49056 0.0372344 3.54828 0.00164642ZM3.81112 0.422183C3.96109 0.413536 4.11001 0.422315 4.25794 0.448467C4.3334 0.638734 4.41225 0.827108 4.49449 1.01356C4.93513 1.12243 5.34689 1.29766 5.72982 1.53923C5.92694 1.54192 6.11093 1.48935 6.28177 1.38153C6.33295 1.35549 6.38551 1.34671 6.43947 1.35525C6.54064 1.45203 6.63702 1.55277 6.72859 1.65751C6.63868 1.84168 6.55983 2.03003 6.49204 2.22261C6.5732 2.4068 6.6652 2.58642 6.76802 2.76142C6.87024 3.02602 6.96223 3.29322 7.044 3.56307C7.23253 3.6507 7.42527 3.72516 7.62223 3.78648C7.63088 3.94515 7.62213 4.10286 7.59595 4.25958C7.40179 4.32574 7.21345 4.40459 7.03085 4.49614C6.92724 4.94729 6.75204 5.36783 6.50518 5.75775C6.48765 5.80156 6.48765 5.84535 6.50518 5.88916C6.58645 6.06345 6.65652 6.23868 6.71545 6.41484C6.61789 6.52123 6.51275 6.61761 6.40005 6.70396C6.24521 6.64187 6.09187 6.57616 5.94009 6.50683C5.86999 6.4893 5.79992 6.4893 5.72982 6.50683C5.38603 6.74123 5.00928 6.89893 4.59962 6.97993C4.55807 6.99852 4.51864 7.02041 4.48135 7.04564C4.40689 7.22963 4.3324 7.41361 4.25794 7.5976C4.10899 7.63263 3.96007 7.63263 3.81112 7.5976C3.73408 7.41466 3.65962 7.23068 3.58771 7.04564C3.55041 7.02041 3.51099 6.99852 3.46943 6.97993C3.05978 6.89893 2.68303 6.74123 2.33924 6.50683C2.26914 6.4893 2.19907 6.4893 2.12897 6.50683C1.97718 6.57616 1.82384 6.64187 1.66901 6.70396C1.5563 6.61761 1.45117 6.52123 1.3536 6.41484C1.40738 6.23661 1.47748 6.06138 1.56387 5.88916C1.5814 5.84535 1.5814 5.80156 1.56387 5.75775C1.31657 5.36815 1.14134 4.94761 1.0382 4.49614C0.85561 4.40459 0.667261 4.32574 0.473105 4.25958C0.446926 4.10286 0.438174 3.94515 0.446821 3.78648C0.60652 3.73738 0.764222 3.68045 0.919925 3.61564C0.987132 3.59763 1.03534 3.55821 1.06449 3.49736C1.1048 3.30983 1.15737 3.12584 1.22219 2.94541C1.33074 2.69766 1.44901 2.45674 1.57701 2.22261C1.49727 2.02435 1.42281 1.82722 1.3536 1.63123C1.45117 1.52483 1.5563 1.42845 1.66901 1.34211C1.82384 1.40419 1.97718 1.4699 2.12897 1.53923C2.19907 1.55677 2.26914 1.55677 2.33924 1.53923C2.68303 1.30484 3.05978 1.14714 3.46943 1.06613C3.51099 1.04755 3.55041 1.02565 3.58771 1.00042C3.66493 0.808079 3.73939 0.615341 3.81112 0.422183Z" fill="url(#paint3_linear_1853_1406)"/>
<defs>
<linearGradient id="paint0_linear_1853_1406" x1="0.779751" y1="0.349609" x2="17.1368" y2="12.4807" gradientUnits="userSpaceOnUse">
<stop offset="0.11" stop-color="#60D7AD"/>
<stop offset="0.76" stop-color="#213C3A"/>
</linearGradient>
<linearGradient id="paint1_linear_1853_1406" x1="-0.240285" y1="6.00195" x2="18.609" y2="19.613" gradientUnits="userSpaceOnUse">
<stop offset="0.11" stop-color="#60D7AD"/>
<stop offset="0.76" stop-color="#213C3A"/>
</linearGradient>
<linearGradient id="paint2_linear_1853_1406" x1="1.91108" y1="1.93945" x2="6.92831" y2="4.10261" gradientUnits="userSpaceOnUse">
<stop offset="0.11" stop-color="#60D7AD"/>
<stop offset="0.76" stop-color="#213C3A"/>
</linearGradient>
<linearGradient id="paint3_linear_1853_1406" x1="-0.0966605" y1="-3.14037e-07" x2="9.6169" y2="4.20778" gradientUnits="userSpaceOnUse">
<stop offset="0.11" stop-color="#60D7AD"/>
<stop offset="0.76" stop-color="#213C3A"/>
</linearGradient>
</defs>
</svg>
