<svg width="23" height="24" viewBox="0 0 23 24" fill="none" xmlns="http://www.w3.org/2000/svg">
<path opacity="0.935" fill-rule="evenodd" clip-rule="evenodd" d="M13.9665 0.0135936C16.6254 -0.137672 18.5409 0.973491 19.713 3.34707C19.9963 4.08354 20.1456 4.84644 20.1608 5.63573C21.7454 6.41546 22.5829 7.69248 22.6733 9.46674C22.4928 11.778 21.2655 13.1462 18.9916 13.5714C18.6603 13.5963 18.3286 13.6045 17.9965 13.5963C18.0048 16.2332 17.9965 18.8702 17.9716 21.5071C17.7256 22.1017 17.3192 22.5578 16.7527 22.8753C15.7048 23.4151 14.5936 23.7468 13.4192 23.8703C11.423 24.1227 9.44947 24.0066 7.49854 23.5221C6.84633 23.3435 6.23272 23.0781 5.65767 22.726C5.20203 22.4202 4.87863 22.0139 4.68748 21.5071C4.6626 18.8702 4.65429 16.2332 4.6626 13.5963C2.892 13.7019 1.52378 13.0219 0.557946 11.5564C-0.261283 9.97805 -0.178359 8.45227 0.806713 6.97907C1.98947 5.54279 3.49036 5.04525 5.3094 5.48647C5.59354 5.09391 5.90863 4.72076 6.25471 4.36702C7.21933 3.55903 8.33052 3.21076 9.58819 3.32219C10.4762 1.46051 11.9356 0.357638 13.9665 0.0135936ZM14.464 0.759894C16.2339 0.778109 17.6187 1.50782 18.6184 2.94904C19.1883 3.95163 19.4537 5.02963 19.4145 6.18301C21.5256 7.07171 22.2553 8.61407 21.6036 10.8101C20.8448 12.2555 19.6425 12.9354 17.9965 12.85C18.0048 11.9045 17.9965 10.9592 17.9716 10.014C17.8317 9.5752 17.5747 9.21862 17.2005 8.94433C16.3986 8.40266 15.5196 8.03782 14.5635 7.84975C12.3376 7.40575 10.1153 7.42232 7.89657 7.89951C6.7413 8.11628 5.75454 8.63869 4.93624 9.46674C4.83967 9.64326 4.75678 9.82566 4.68748 10.014C4.6626 10.9592 4.65429 11.9045 4.6626 12.85C2.57902 12.908 1.29373 11.9296 0.806713 9.91452C0.680713 8.20091 1.40214 6.99857 2.97099 6.3074C3.79062 6.00047 4.60325 6.01704 5.4089 6.35715C5.60239 6.41387 5.76822 6.37243 5.90644 6.23277C6.51766 4.89022 7.56248 4.17707 9.0409 4.09337C9.30887 4.10486 9.57426 4.13804 9.83695 4.19288C9.92646 4.18905 10.0094 4.16417 10.0857 4.11825C10.8801 2.12034 12.3396 1.00089 14.464 0.759894ZM10.1355 8.32241C11.8048 8.20957 13.4467 8.36709 15.0611 8.79507C15.6641 8.9805 16.2279 9.24583 16.7527 9.59112C17.0688 9.82228 17.2263 10.1291 17.2253 10.5116C17.0554 10.9303 16.7652 11.2371 16.3546 11.432C15.115 12.0349 13.8048 12.3666 12.4241 12.4271C10.493 12.59 8.61894 12.3412 6.802 11.6808C6.3583 11.5019 5.96858 11.2448 5.63279 10.9096C5.39139 10.632 5.3582 10.3335 5.53329 10.014C5.70971 9.75466 5.9336 9.54734 6.20496 9.39211C6.8914 9.00851 7.62114 8.74312 8.39411 8.59605C8.97846 8.48306 9.55893 8.39187 10.1355 8.32241ZM5.4089 11.8051C6.6091 12.5452 7.91926 12.9847 9.33942 13.1236C11.0748 13.3289 12.7996 13.2626 14.5138 12.9246C15.4931 12.7395 16.3887 12.3664 17.2005 11.8051C17.2585 12.5675 17.2668 13.3304 17.2253 14.0938C17.0748 14.4766 16.8178 14.7669 16.4542 14.9645C15.2183 15.5844 13.9082 15.9327 12.5236 16.0093C10.5971 16.1799 8.72307 15.9477 6.9015 15.3128C6.41506 15.1321 5.99216 14.8584 5.63279 14.4918C5.5402 14.373 5.47388 14.2404 5.43378 14.0938C5.4089 13.3311 5.40059 12.5682 5.4089 11.8051ZM5.4089 15.3874C6.24123 15.9389 7.15341 16.3121 8.14534 16.5068C10.2682 16.9381 12.3909 16.9381 14.5138 16.5068C15.4926 16.3219 16.3881 15.9487 17.2005 15.3874C17.2585 16.1497 17.2668 16.9126 17.2253 17.676C17.0748 18.0589 16.8178 18.3491 16.4542 18.5467C15.3945 19.0988 14.2667 19.4306 13.0709 19.5418C10.9657 19.8056 8.9092 19.59 6.9015 18.895C6.39457 18.7025 5.95505 18.4123 5.58304 18.0243C5.5196 17.914 5.46985 17.7979 5.43378 17.676C5.4089 16.9133 5.40059 16.1505 5.4089 15.3874ZM5.4089 18.9696C6.71204 19.7881 8.13827 20.2442 9.68769 20.3379C11.3257 20.4947 12.951 20.4118 14.5635 20.0891C15.5319 19.899 16.4192 19.5258 17.2253 18.9696C17.2585 19.7325 17.2585 20.4954 17.2253 21.2583C17.0581 21.6579 16.7844 21.9647 16.4044 22.1787C15.3867 22.6948 14.3087 23.0099 13.1704 23.124C11.3948 23.3373 9.6368 23.2378 7.89657 22.8255C7.2058 22.6397 6.559 22.3577 5.95619 21.9797C5.70354 21.7938 5.5294 21.5533 5.43378 21.2583C5.4089 20.4956 5.40059 19.7327 5.4089 18.9696Z" fill="url(#paint0_linear_1851_1347)"/>
<path opacity="0.914" fill-rule="evenodd" clip-rule="evenodd" d="M14.4638 1.45605C16.5746 1.5033 17.9429 2.53153 18.5684 4.54077C18.7593 5.06561 18.5852 5.30612 18.046 5.26219C18.0046 5.22074 17.9631 5.17925 17.9216 5.13781C17.4927 3.27448 16.3235 2.27941 14.414 2.1526C14.2113 1.90826 14.2278 1.67608 14.4638 1.45605Z" fill="url(#paint1_linear_1851_1347)"/>
<defs>
<linearGradient id="paint0_linear_1851_1347" x1="-0.271607" y1="-9.36907e-07" x2="27.5185" y2="11.3381" gradientUnits="userSpaceOnUse">
<stop offset="0.11" stop-color="#60D7AD"/>
<stop offset="0.76" stop-color="#213C3A"/>
</linearGradient>
<linearGradient id="paint1_linear_1851_1347" x1="14.2211" y1="1.45605" x2="19.2385" y2="3.94048" gradientUnits="userSpaceOnUse">
<stop offset="0.11" stop-color="#60D7AD"/>
<stop offset="0.76" stop-color="#213C3A"/>
</linearGradient>
</defs>
</svg>
