<svg width="25" height="24" viewBox="0 0 25 24" fill="none" xmlns="http://www.w3.org/2000/svg">
<path opacity="0.942" fill-rule="evenodd" clip-rule="evenodd" d="M6.98438 0C7.93748 0 8.89064 0 9.84375 0C11.4243 0.102149 12.9712 0.406837 14.4844 0.914062C15.3143 1.19969 16.0097 1.67625 16.5703 2.34375C16.6854 2.5327 16.7635 2.73583 16.8047 2.95312C16.8281 5.70309 16.836 8.45306 16.8281 11.2031C19.4436 10.9995 21.5139 11.9527 23.0391 14.0625C23.4932 14.7929 23.8135 15.5741 24 16.4062C24.1576 17.1094 24.2104 17.9766 24 18.8438C23.3193 21.6495 21.5693 23.3682 18.75 24C18.0156 24 17.2813 24 16.5469 24C14.4435 23.5734 12.881 22.4172 11.8594 20.5312C9.29133 20.9348 6.72886 20.8958 4.17188 20.4141C3.11296 20.2122 2.11296 19.8528 1.17188 19.3359C0.619819 19.0265 0.229195 18.5812 0 18C0 12.9375 0 7.875 0 2.8125C0.161532 2.40553 0.411532 2.05397 0.75 1.75781C1.77697 1.07283 2.90197 0.619711 4.125 0.398438C5.07802 0.214953 6.03117 0.0821405 6.98438 0ZM6.98438 0.84375C9.07406 0.726239 11.1366 0.905925 13.1719 1.38281C13.9575 1.58043 14.6918 1.89293 15.375 2.32031C16.1373 2.8483 16.1686 3.4108 15.4688 4.00781C14.7352 4.4916 13.9383 4.83534 13.0781 5.03906C9.83602 5.78367 6.60164 5.75241 3.375 4.94531C2.59163 4.72641 1.87288 4.38268 1.21875 3.91406C0.687258 3.35289 0.734133 2.83726 1.35938 2.36719C2.3826 1.73895 3.49198 1.3327 4.6875 1.14844C5.45653 1.01916 6.22214 0.917597 6.98438 0.84375ZM15.9375 4.6875C15.992 5.82014 15.9998 6.9608 15.9609 8.10938C15.8055 8.46825 15.5632 8.75733 15.2344 8.97656C13.9732 9.64359 12.6294 10.0499 11.2031 10.1953C8.59772 10.53 6.01959 10.3894 3.46875 9.77344C2.6898 9.57136 1.97105 9.24323 1.3125 8.78906C1.11008 8.63367 0.96165 8.43839 0.867188 8.20312C0.828131 7.04658 0.835945 5.89031 0.890625 4.73438C1.72622 5.2762 2.63247 5.65898 3.60938 5.88281C6.66492 6.56362 9.72745 6.59484 12.7969 5.97656C13.791 5.78067 14.7285 5.43694 15.6094 4.94531C15.7275 4.86577 15.8369 4.77984 15.9375 4.6875ZM0.84375 9.51562C1.79204 10.1221 2.82329 10.5362 3.9375 10.7578C6.98775 11.3644 10.0346 11.3488 13.0781 10.7109C14.1087 10.4901 15.0618 10.0916 15.9375 9.51562C16 10.1406 16 10.7656 15.9375 11.3906C14.031 11.9377 12.6403 13.1018 11.7656 14.8828C9.37359 15.2952 6.98297 15.2796 4.59375 14.8359C3.5751 14.6517 2.60635 14.3235 1.6875 13.8516C1.35028 13.6394 1.07684 13.3659 0.867188 13.0312C0.84375 11.8595 0.835941 10.6876 0.84375 9.51562ZM17.5312 12C20.0398 12.1168 21.7976 13.3199 22.8047 15.6094C23.5938 18.0704 23.0391 20.172 21.1406 21.9141C19.6592 23.0573 18.003 23.4166 16.1719 22.9922C13.8745 22.2572 12.5073 20.7026 12.0703 18.3281C11.8804 15.5895 13.0132 13.6285 15.4688 12.4453C16.1387 12.1849 16.8262 12.0364 17.5312 12ZM0.84375 14.2969C1.75659 14.9062 2.75659 15.3203 3.84375 15.5391C6.35447 16.0767 8.87794 16.1626 11.4141 15.7969C11.0513 17.1012 11.0903 18.3981 11.5312 19.6875C11.5066 19.7199 11.4754 19.7434 11.4375 19.7578C8.77162 20.1403 6.13102 20.0153 3.51562 19.3828C2.69633 19.183 1.94632 18.8392 1.26562 18.3516C1.09279 18.2011 0.959972 18.0214 0.867188 17.8125C0.84375 16.6407 0.835941 15.4688 0.84375 14.2969Z" fill="url(#paint0_linear_1851_1346)"/>
<path opacity="0.898" fill-rule="evenodd" clip-rule="evenodd" d="M1.8735 6.84375C2.18583 6.87497 2.46708 6.98437 2.71725 7.17187C2.90135 7.63594 2.74509 7.86248 2.2485 7.85156C2.03622 7.78059 1.84091 7.67902 1.66256 7.54687C1.51834 7.23933 1.58865 7.00495 1.8735 6.84375Z" fill="url(#paint1_linear_1851_1346)"/>
<path opacity="0.895" fill-rule="evenodd" clip-rule="evenodd" d="M3.88955 7.5C4.14501 7.52766 4.39501 7.58236 4.63955 7.66406C4.89727 7.93041 4.88166 8.18039 4.59268 8.41406C4.28327 8.45006 3.9864 8.40319 3.70205 8.27344C3.48298 7.93964 3.54548 7.68183 3.88955 7.5Z" fill="url(#paint2_linear_1851_1346)"/>
<path opacity="0.918" fill-rule="evenodd" clip-rule="evenodd" d="M19.8753 14.7656C20.1972 14.7283 20.3847 14.8689 20.4378 15.1875C20.4127 15.302 20.3736 15.4114 20.3206 15.5156C19.2438 17.1314 18.1579 18.7408 17.0628 20.3438C16.8695 20.4751 16.682 20.4673 16.5003 20.3203C15.9612 19.7813 15.4222 19.2422 14.8831 18.7031C14.7156 18.443 14.7547 18.2164 15.0003 18.0235C15.1627 17.9852 15.319 18.0008 15.469 18.0703C15.8831 18.4844 16.2972 18.8985 16.7112 19.3125C17.676 17.8987 18.6291 16.4769 19.5706 15.0469C19.652 14.9262 19.7536 14.8325 19.8753 14.7656Z" fill="url(#paint3_linear_1851_1346)"/>
<defs>
<linearGradient id="paint0_linear_1851_1346" x1="-0.289161" y1="-9.36907e-07" x2="28.7442" y2="12.6109" gradientUnits="userSpaceOnUse">
<stop offset="0.11" stop-color="#60D7AD"/>
<stop offset="0.76" stop-color="#213C3A"/>
</linearGradient>
<linearGradient id="paint1_linear_1851_1346" x1="1.57544" y1="6.84375" x2="2.93388" y2="7.54324" gradientUnits="userSpaceOnUse">
<stop offset="0.11" stop-color="#60D7AD"/>
<stop offset="0.76" stop-color="#213C3A"/>
</linearGradient>
<linearGradient id="paint2_linear_1851_1346" x1="3.55927" y1="7.5" x2="4.89166" y2="8.27541" gradientUnits="userSpaceOnUse">
<stop offset="0.11" stop-color="#60D7AD"/>
<stop offset="0.76" stop-color="#213C3A"/>
</linearGradient>
<linearGradient id="paint3_linear_1851_1346" x1="14.7135" y1="14.7598" x2="21.5371" y2="17.696" gradientUnits="userSpaceOnUse">
<stop offset="0.11" stop-color="#60D7AD"/>
<stop offset="0.76" stop-color="#213C3A"/>
</linearGradient>
</defs>
</svg>
