<svg width="26" height="24" viewBox="0 0 26 24" fill="none" xmlns="http://www.w3.org/2000/svg">
<path opacity="0.927" fill-rule="evenodd" clip-rule="evenodd" d="M6.43143 0.00313409C7.66772 -0.0484632 8.37031 0.537034 8.5392 1.75962C8.51175 2.12109 8.40366 2.45437 8.21493 2.75946C8.50235 3.07393 8.7996 3.38019 9.10668 3.67823C9.17873 3.82237 9.25082 3.96646 9.32286 4.1106C9.4022 6.10812 9.42923 8.10781 9.40393 10.1097C9.76426 10.1097 10.1245 10.1097 10.4848 10.1097C10.4758 9.19072 10.4848 8.27195 10.5119 7.35333C10.7881 7.0623 11.0403 7.0803 11.2685 7.40738C11.2955 8.30794 11.3046 9.20872 11.2955 10.1097C11.6559 10.1097 12.0161 10.1097 12.3764 10.1097C12.3944 7.91152 12.3764 5.71364 12.3224 3.5161C11.5322 3.22482 11.0998 2.65735 11.0253 1.81366C11.2014 0.556626 11.922 -0.0198623 13.1871 0.0842025C14.341 0.473385 14.7644 1.25705 14.4572 2.43519C14.2344 2.97328 13.8471 3.33359 13.2952 3.5161C13.2412 5.71364 13.2232 7.91152 13.2412 10.1097C13.6015 10.1097 13.9618 10.1097 14.3221 10.1097C14.3131 9.19072 14.3221 8.27195 14.3491 7.35333C14.6036 7.07316 14.8558 7.07316 15.1057 7.35333C15.1328 8.27195 15.1418 9.19072 15.1328 10.1097C15.4931 10.1097 15.8534 10.1097 16.2137 10.1097C16.1884 8.10781 16.2154 6.10812 16.2947 4.1106C16.3668 3.96646 16.4389 3.82237 16.5109 3.67823C16.818 3.38019 17.1153 3.07393 17.4027 2.75946C16.8954 1.82763 17.0395 1.00794 17.835 0.300385C18.7292 -0.186031 19.5309 -0.0689357 20.2401 0.651681C20.7085 1.39031 20.7085 2.12893 20.2401 2.86755C19.6404 3.51058 18.9288 3.67272 18.1053 3.35396C17.7818 3.6504 17.4665 3.95668 17.1595 4.27274C17.0794 6.21503 17.0524 8.16067 17.0784 10.1097C17.4387 10.1097 17.799 10.1097 18.1593 10.1097C18.1503 9.47889 18.1593 8.84834 18.1863 8.21806C18.3531 7.93422 18.5783 7.88017 18.8619 8.05593C18.9205 8.11889 18.9655 8.19093 18.997 8.27211C19.024 8.88434 19.0331 9.49689 19.024 10.1097C19.3663 10.1097 19.7086 10.1097 20.0509 10.1097C20.0419 8.84845 20.0509 7.58741 20.0779 6.32647C20.1532 5.60274 20.5406 5.14336 21.2399 4.94831C21.5457 4.92134 21.8519 4.91231 22.1587 4.92128C22.5023 3.87518 23.2229 3.45184 24.3205 3.65121C25.3514 4.02834 25.7568 4.75796 25.5365 5.84006C25.1169 6.89211 24.3513 7.27945 23.2396 7.00204C22.7015 6.77921 22.3412 6.39192 22.1587 5.84006C21.8479 5.76418 21.5416 5.7732 21.2399 5.86708C21.0991 5.97182 21 6.10693 20.9427 6.27242C20.9156 7.55136 20.9066 8.83045 20.9156 10.1097C22.375 10.1006 23.8342 10.1097 25.2933 10.1367C25.3922 10.1514 25.4733 10.1965 25.5365 10.2718C25.6232 10.9165 25.6412 11.5651 25.5906 12.2174C25.5065 12.6797 25.2453 12.995 24.8069 13.1632C24.1249 13.3159 23.4404 13.451 22.7532 13.5686C22.5216 14.6326 22.1252 15.6325 21.5642 16.5681C21.8933 17.1315 22.2446 17.681 22.6181 18.2165C22.8363 18.7351 22.7822 19.2215 22.4559 19.6757C22.0129 20.1368 21.5535 20.5782 21.0778 20.9998C20.6717 21.2226 20.2574 21.2406 19.8347 21.0539C19.2836 20.6739 18.7251 20.3047 18.1593 19.946C17.2368 20.5179 16.2459 20.9322 15.1868 21.189C15.0214 21.9531 14.8323 22.7097 14.6193 23.4589C14.4615 23.653 14.2723 23.8062 14.0519 23.9183C13.6407 23.9775 13.2264 24.0046 12.8088 23.9994C12.3912 24.0046 11.9769 23.9775 11.5658 23.9183C11.1273 23.7501 10.8661 23.4348 10.7821 22.9725C10.6544 22.3613 10.5373 21.7488 10.4308 21.135C9.36297 20.8893 8.35415 20.493 7.40425 19.946C6.83498 20.3259 6.25853 20.6952 5.67479 21.0539C5.21405 21.2001 4.78168 21.1461 4.37769 20.8918C3.89863 20.4307 3.43924 19.9534 2.99953 19.4595C2.81116 19.1139 2.77513 18.7536 2.89144 18.3786C3.26526 17.757 3.65259 17.1444 4.05342 16.5411C3.4954 15.6151 3.09006 14.6243 2.83739 13.5686C2.1465 13.4128 1.45292 13.2597 0.75664 13.1092C0.349547 12.9185 0.106341 12.6033 0.0270241 12.1634C-0.00900805 11.5869 -0.00900805 11.0104 0.0270241 10.4339C0.0540469 10.2628 0.153129 10.1637 0.324275 10.1367C1.78339 10.1097 3.24262 10.1006 4.70197 10.1097C4.71099 8.83045 4.70197 7.55136 4.67494 6.27242C4.53799 5.88864 4.26778 5.72651 3.86426 5.78601C3.72915 5.80401 3.59403 5.82206 3.45892 5.84006C2.98762 6.94026 2.17694 7.30956 1.02687 6.94799C0.0385683 6.34284 -0.22265 5.50514 0.243206 4.43487C0.918095 3.54318 1.7558 3.35402 2.75633 3.86739C3.13138 4.12525 3.36558 4.47654 3.45892 4.92128C4.17687 4.7913 4.78039 4.98949 5.26945 5.51578C5.42439 5.7645 5.51449 6.03473 5.53967 6.32647C5.5667 7.58741 5.57572 8.84845 5.5667 10.1097C5.90897 10.1097 6.25129 10.1097 6.59356 10.1097C6.58454 9.49689 6.59356 8.88434 6.62059 8.27211C6.76624 7.96956 6.99145 7.88849 7.29616 8.0289C7.36106 8.07771 7.40614 8.14072 7.43127 8.21806C7.45829 8.84834 7.46732 9.47889 7.45829 10.1097C7.81861 10.1097 8.17888 10.1097 8.5392 10.1097C8.54823 8.21795 8.5392 6.32636 8.51218 4.43487C8.22709 4.03256 7.89379 3.67223 7.51234 3.35396C6.3048 3.74547 5.48509 3.34912 5.05326 2.16496C4.91577 1.05252 5.37516 0.33191 6.43143 0.00313409ZM6.53952 0.867863C7.31037 0.824286 7.67966 1.18459 7.64745 1.94878C7.38447 2.60705 6.92508 2.79621 6.26929 2.51625C5.8386 2.15457 5.75753 1.73121 6.02608 1.24618C6.16277 1.06324 6.33393 0.937139 6.53952 0.867863ZM18.5917 0.867863C19.2582 0.804695 19.6545 1.10195 19.7807 1.75962C19.5589 2.60917 19.0545 2.84337 18.2674 2.46221C17.7641 1.80232 17.8722 1.27087 18.5917 0.867863ZM12.5386 0.921909C13.2077 0.861897 13.604 1.15915 13.7276 1.81366C13.5856 2.55033 13.1532 2.82056 12.4305 2.62435C11.8151 2.20505 11.743 1.70963 12.2143 1.13809C12.3259 1.06477 12.434 0.992709 12.5386 0.921909ZM1.56732 4.43487C2.5231 4.4934 2.83836 4.96182 2.51312 5.84006C2.043 6.39138 1.55659 6.40943 1.05389 5.8941C0.715127 5.22588 0.886268 4.73947 1.56732 4.43487ZM23.672 4.43487C24.2976 4.43006 24.6579 4.73634 24.7529 5.35365C24.6815 5.8934 24.3753 6.19962 23.8341 6.27242C23.0421 6.05764 22.7989 5.57123 23.1045 4.81319C23.2665 4.63819 23.4557 4.5121 23.672 4.43487ZM0.864731 10.9744C2.86442 10.9744 4.8641 10.9744 6.86379 10.9744C6.87309 13.5124 7.99005 15.3769 10.2146 16.5681C12.9545 17.6704 15.3415 17.1569 17.3757 15.0278C18.3136 13.8446 18.773 12.4934 18.7538 10.9744C20.7535 10.9744 22.7532 10.9744 24.7529 10.9744C24.7619 11.3531 24.7529 11.7315 24.7259 12.1093C24.7007 12.1867 24.6557 12.2497 24.5907 12.2985C23.8055 12.506 23.0128 12.6862 22.2127 12.839C22.1497 12.902 22.0866 12.965 22.0236 13.0281C21.7761 14.2575 21.3077 15.3925 20.6184 16.433C20.5776 16.5845 20.5956 16.7286 20.6724 16.8654C21.0554 17.4692 21.4517 18.0637 21.8614 18.6489C21.9022 18.8004 21.8842 18.9445 21.8074 19.0812C21.42 19.4686 21.0328 19.8559 20.6454 20.2432C20.4833 20.3513 20.3211 20.3513 20.159 20.2432C19.513 19.7861 18.8465 19.3628 18.1593 18.9731C17.0418 19.6757 15.8348 20.1711 14.5383 20.4594C14.4734 20.5082 14.4283 20.5712 14.4031 20.6485C14.2504 21.4486 14.0702 22.2413 13.8627 23.0266C13.8222 23.0604 13.7771 23.0874 13.7276 23.1076C13.1151 23.1437 12.5025 23.1437 11.89 23.1076C11.8127 23.0825 11.7497 23.0374 11.7009 22.9725C11.5113 22.2412 11.3492 21.5025 11.2145 20.7566C11.1933 20.5969 11.1122 20.4798 10.9713 20.4053C9.71718 20.0976 8.5372 19.6202 7.43127 18.9731C7.30583 18.9952 7.18877 19.0403 7.07997 19.1082C6.45375 19.5366 5.81423 19.942 5.16135 20.3243C4.66176 19.9331 4.19338 19.5007 3.75617 19.0272C3.64988 18.8381 3.66789 18.6579 3.81021 18.4867C4.25034 17.8674 4.6557 17.2278 5.02624 16.5681C4.7225 15.9877 4.42525 15.4022 4.13449 14.8116C3.89443 14.1935 3.69626 13.563 3.53999 12.92C3.49121 12.8551 3.42816 12.81 3.35083 12.7849C2.57176 12.6309 1.7971 12.4598 1.02687 12.2715C0.981831 12.2174 0.93679 12.1634 0.891753 12.1093C0.864752 11.7315 0.855743 11.3531 0.864731 10.9744ZM7.72852 10.9744C11.1154 10.9744 14.5022 10.9744 17.8891 10.9744C17.8844 13.183 16.9116 14.7954 14.9706 15.8115C12.3409 16.805 10.188 16.1835 8.51218 13.9469C7.94768 13.0369 7.68647 12.0461 7.72852 10.9744Z" fill="url(#paint0_linear_1851_1304)"/>
<defs>
<linearGradient id="paint0_linear_1851_1304" x1="-0.306889" y1="-9.36907e-07" x2="29.9006" y2="13.9253" gradientUnits="userSpaceOnUse">
<stop offset="0.11" stop-color="#60D7AD"/>
<stop offset="0.76" stop-color="#213C3A"/>
</linearGradient>
</defs>
</svg>
