<svg width="25" height="24" viewBox="0 0 25 24" fill="none" xmlns="http://www.w3.org/2000/svg">
<path d="M10.9041 0.127689C9.8349 0.432152 8.73034 1.3243 8.24886 2.27309L8.00104 2.74748L7.45584 2.705C5.33169 2.54215 3.57572 4.16359 3.57572 6.28774V6.69841L3.09424 6.74089C1.52237 6.86834 0.269117 8.04371 0.0354599 9.59434C-0.212358 11.2229 0.863881 12.8443 2.47824 13.2691C2.81102 13.3541 3.34914 13.3753 5.06263 13.3753H7.22219L7.44876 13.8781L7.68242 14.3808L7.3992 14.7844C6.98145 15.3791 7.00269 15.5491 7.56205 16.1155C8.12141 16.6678 8.29842 16.6961 8.90735 16.2854L9.3251 16.0093L9.89154 16.2713L10.458 16.5262L10.4155 17.128C10.3943 17.4608 10.3376 18.8132 10.2881 20.1443C10.2102 22.3888 10.2102 22.58 10.3235 22.8774C10.6987 23.8545 11.8599 24.2864 12.7875 23.7979C13.2477 23.5571 13.5947 23.1323 13.6867 22.6721C13.7575 22.3676 13.7292 21.3976 13.538 17.0926L13.5168 16.5191L14.069 16.2642L14.6284 16.0022L15.0603 16.2854C15.6976 16.6961 15.9241 16.6536 16.526 15.9951C16.9083 15.5703 16.9154 15.3296 16.5401 14.7702L16.2711 14.3595L16.5118 13.8639L16.7526 13.3753H18.9971C21.4469 13.3753 21.7443 13.3399 22.4382 12.9647C23.2596 12.5186 23.9393 11.5415 24.1092 10.5502C24.4349 8.61723 22.8206 6.71965 20.8522 6.71965H20.569L20.5619 6.23818C20.5477 4.13526 18.7988 2.54215 16.6818 2.705L16.1295 2.74748L15.9241 2.30849C15.6338 1.6854 14.7488 0.800339 14.0832 0.467554C13.8071 0.325943 13.3893 0.163092 13.1557 0.106447C12.5821 -0.042244 11.4563 -0.035162 10.9041 0.127689ZM13.0707 0.67289C14.0832 0.97027 14.9683 1.69956 15.4214 2.61295C15.5701 2.89617 15.6834 3.17231 15.6834 3.22188C15.6834 3.40597 15.9171 3.45553 16.3207 3.34933C17.2907 3.10151 18.3244 3.37765 19.075 4.09986C19.7618 4.75835 20.0308 5.5018 19.9884 6.64177L19.9671 7.3215H20.7106C21.3974 7.3215 21.4894 7.33566 21.9284 7.54807C22.7993 7.95874 23.3728 8.68804 23.5428 9.61559C23.734 10.6281 23.2029 11.7822 22.2824 12.377C21.6877 12.7593 21.3124 12.8089 19.2591 12.8018C17.9563 12.7947 17.4889 12.7735 17.666 12.731C17.8005 12.6885 17.9846 12.5823 18.0766 12.4832C18.2112 12.3274 18.2324 12.2283 18.2324 11.7043C18.2324 11.1379 18.2182 11.0883 18.0341 10.8972C17.8854 10.7555 17.7368 10.6847 17.4465 10.6493C16.9367 10.5785 16.8446 10.5219 16.788 10.2458C16.7667 10.1183 16.6393 9.79968 16.5047 9.5377L16.2711 9.0633L16.5401 8.65263C16.7455 8.34817 16.8163 8.17116 16.8163 7.95874C16.8163 7.71092 16.7667 7.64012 16.3915 7.27193C15.8533 6.74089 15.6338 6.72673 15.032 7.15156C14.6213 7.43478 14.6142 7.44186 14.4302 7.3215C14.331 7.25069 14.0053 7.10908 13.7079 7.00287L13.1698 6.80462L13.0778 6.39395C12.9008 5.57969 12.745 5.44516 11.9803 5.44516C11.2085 5.44516 11.0032 5.61509 10.897 6.37979C10.8474 6.76213 10.8049 6.80462 10.4084 6.93207C10.2526 6.98163 9.94819 7.10908 9.72869 7.22237L9.33218 7.42062L8.91443 7.1374C8.29842 6.72673 8.12141 6.74797 7.56205 7.30733C7.01685 7.85962 6.99561 8.00123 7.3992 8.61723L7.67534 9.04914L7.42752 9.58018C7.29299 9.87756 7.16554 10.2103 7.1443 10.3236C7.10182 10.5148 7.05933 10.5431 6.69823 10.6139C5.86273 10.7768 5.69987 10.9538 5.69987 11.7114C5.69987 12.0371 5.84149 12.5965 5.92645 12.5965C5.94061 12.5965 6.07514 12.646 6.23091 12.7027C6.49289 12.7947 6.37252 12.8018 4.77941 12.8089C2.83935 12.8089 2.44992 12.7523 1.86223 12.377C0.927605 11.7751 0.45321 10.7414 0.608982 9.62975C0.736431 8.72344 1.31703 7.9729 2.21626 7.54807C2.65525 7.33566 2.7473 7.3215 3.43411 7.3215H4.17756L4.15632 6.64885C4.11384 5.5372 4.37582 4.80083 5.03431 4.14234C5.79192 3.38473 6.79736 3.10151 7.83819 3.34933C8.32675 3.46261 8.38339 3.42721 8.5604 2.94574C8.94983 1.89074 9.96943 0.97027 11.0881 0.67289C11.605 0.531279 12.5892 0.531279 13.0707 0.67289ZM12.4193 6.16737C12.4476 6.25942 12.4972 6.48599 12.5255 6.67717C12.5892 7.09492 12.7875 7.31441 13.2123 7.4277C13.3822 7.47727 13.7433 7.62596 14.0124 7.76049C14.593 8.05079 14.7275 8.04371 15.294 7.66844L15.6905 7.40646L15.9666 7.67552C16.1224 7.83129 16.2498 7.97998 16.2498 8.01539C16.2498 8.05079 16.1366 8.23488 16.002 8.42606C15.6409 8.92877 15.6338 9.04206 15.9171 9.63683C16.0516 9.92005 16.2144 10.3166 16.2782 10.5219C16.349 10.7201 16.4481 10.9255 16.5047 10.975C16.5614 11.0175 16.8375 11.1096 17.1208 11.1733L17.6305 11.2937V11.7114V12.1362L17.1703 12.2283C16.5685 12.3487 16.4269 12.4478 16.2782 12.8939C16.2144 13.0992 16.0516 13.4886 15.9171 13.7648C15.7896 14.0338 15.6834 14.31 15.6834 14.3737C15.6834 14.4374 15.8109 14.6852 15.9666 14.926C16.1224 15.1667 16.2498 15.3862 16.2498 15.4145C16.2498 15.4499 16.1224 15.5915 15.9666 15.7473L15.6905 16.0164L15.2515 15.7261C15.0108 15.5632 14.7346 15.4287 14.6497 15.4287C14.5576 15.4287 14.2744 15.5278 14.0266 15.6553C13.7717 15.7827 13.5522 15.8677 13.538 15.8464C13.5238 15.8323 13.4884 15.5703 13.4672 15.2729L13.4318 14.7206L13.8141 14.4657C15.563 13.3045 15.8392 10.8901 14.3877 9.36069C13.9628 8.90753 13.6159 8.68096 13.4035 8.71636C13.2406 8.7376 13.2406 8.75884 13.2052 9.90589L13.1698 11.0671L12.5821 11.3786L11.9874 11.6902L11.3926 11.3857L10.7978 11.0742V9.97669C10.7978 8.82257 10.7695 8.7022 10.4863 8.7022C10.281 8.7022 9.57292 9.27572 9.27554 9.67931C8.97107 10.09 8.75158 10.6423 8.65953 11.237C8.47544 12.4124 9.11977 13.8214 10.1181 14.4374L10.5217 14.6852L10.4934 15.2375C10.4792 15.5349 10.4438 15.804 10.4155 15.8323C10.3943 15.8606 10.1535 15.7756 9.88446 15.6411C9.31802 15.372 9.16933 15.3862 8.66661 15.7544C8.48252 15.8889 8.30551 15.9951 8.2701 15.9951C8.2347 15.9951 8.08601 15.8677 7.93732 15.719L7.66118 15.4358L7.95148 14.9826C8.11433 14.7348 8.24886 14.4516 8.24886 14.3525C8.24886 14.2533 8.14973 13.9843 8.03645 13.7648C7.91608 13.5453 7.77447 13.1912 7.71782 12.9859C7.56913 12.4903 7.39212 12.3487 6.79736 12.2283L6.30172 12.1292V11.7114V11.2866L6.76195 11.1945C7.38504 11.0742 7.54789 10.9396 7.7249 10.3944C7.80279 10.1466 7.95856 9.77844 8.05769 9.5731C8.16389 9.36777 8.24886 9.12703 8.24886 9.03498C8.24886 8.94293 8.11433 8.66679 7.95148 8.42606L7.66118 7.98706L7.93024 7.71092C8.08601 7.55515 8.2347 7.4277 8.2701 7.4277C8.30551 7.4277 8.49668 7.54099 8.68785 7.67552C9.17641 8.02955 9.34634 8.05079 9.84906 7.79589C10.0756 7.6826 10.4509 7.52683 10.6704 7.45603C11.1944 7.29317 11.3501 7.13032 11.4351 6.60636C11.5484 5.99036 11.5271 6.0116 11.9661 6.0116C12.306 6.0116 12.3697 6.03284 12.4193 6.16737ZM11.1094 11.8814L11.952 12.3416L12.7592 11.9309C13.1981 11.7114 13.6088 11.4778 13.6655 11.4211C13.7504 11.3362 13.7717 11.1167 13.7717 10.4157L13.7787 9.51646L14.0336 9.79968C15.1524 11.0458 14.9116 13.0426 13.538 13.9347C13.2973 14.0905 13.0424 14.2604 12.9716 14.31C12.8512 14.3949 12.8583 14.5861 13.0211 18.3954C13.1273 20.9515 13.1627 22.4809 13.1203 22.6225C12.9999 23.0544 12.4759 23.4297 11.9732 23.4297C11.4917 23.4297 10.9324 23.0261 10.8191 22.5942C10.7978 22.488 10.8474 20.6116 10.9324 18.4237C11.0244 16.2429 11.074 14.4162 11.0457 14.3737C11.0244 14.3312 10.8828 14.2321 10.7341 14.1613C9.99067 13.7789 9.38174 12.9293 9.24013 12.0867C9.11268 11.2937 9.39591 10.3803 9.9411 9.81384L10.196 9.54478L10.2314 10.4865L10.2668 11.4282L11.1094 11.8814Z" fill="url(#paint0_linear_1866_1054)"/>
<path d="M11.1858 1.22513C10.2158 1.53667 9.42987 2.25888 9.10417 3.12979C9.04044 3.29264 9.0546 3.34928 9.16789 3.46257C9.36614 3.66083 9.48651 3.57586 9.74141 3.10147C10.1521 2.33677 10.9309 1.79865 11.7523 1.71368C12.1771 1.6712 12.3046 1.57207 12.2692 1.32426C12.2479 1.17557 12.2054 1.1614 11.8585 1.14724C11.6461 1.14016 11.3416 1.17557 11.1858 1.22513Z" fill="url(#paint1_linear_1866_1054)"/>
<path d="M16.548 3.85935C16.3356 3.90892 16.2223 4.12841 16.3214 4.31251C16.3922 4.43995 16.4418 4.44703 16.8808 4.41163C17.9358 4.31251 18.5306 4.82938 18.7996 6.08263C18.8988 6.53579 18.9412 6.61367 19.0758 6.63492C19.3661 6.6774 19.4581 6.52163 19.4156 6.04723C19.3236 4.86479 18.3536 3.916 17.1853 3.85227C16.9233 3.83811 16.6401 3.84519 16.548 3.85935Z" fill="url(#paint2_linear_1866_1054)"/>
<defs>
<linearGradient id="paint0_linear_1866_1054" x1="-0.289311" y1="24" x2="28.7543" y2="11.3781" gradientUnits="userSpaceOnUse">
<stop offset="0.11" stop-color="#60D7AD"/>
<stop offset="0.76" stop-color="#213C3A"/>
</linearGradient>
<linearGradient id="paint1_linear_1866_1054" x1="9.02797" y1="3.5625" x2="12.4798" y2="1.58301" gradientUnits="userSpaceOnUse">
<stop offset="0.11" stop-color="#60D7AD"/>
<stop offset="0.76" stop-color="#213C3A"/>
</linearGradient>
<linearGradient id="paint2_linear_1866_1054" x1="16.2475" y1="6.6416" x2="19.8826" y2="4.87908" gradientUnits="userSpaceOnUse">
<stop offset="0.11" stop-color="#60D7AD"/>
<stop offset="0.76" stop-color="#213C3A"/>
</linearGradient>
</defs>
</svg>
