<svg width="18" height="20" viewBox="0 0 18 20" fill="none" xmlns="http://www.w3.org/2000/svg">
<path opacity="0.952" fill-rule="evenodd" clip-rule="evenodd" d="M7.70466 0.0132353C10.0122 -0.0531607 12.2905 0.130254 14.5394 0.563479C15.7062 0.795241 16.73 1.24769 17.6107 1.92075C17.7717 2.09594 17.887 2.29154 17.9567 2.50767C18.0144 7.49655 18.0144 12.4854 17.9567 17.4743C17.7575 17.9614 17.3971 18.3405 16.8753 18.6115C15.0586 19.4063 13.1264 19.8465 11.0788 19.932C8.4775 20.1099 5.91086 19.9387 3.3789 19.4185C2.25031 19.1663 1.25538 18.714 0.394125 18.0612C0.233121 17.886 0.117796 17.6904 0.0480644 17.4743C-0.0375857 12.4079 -0.00877611 7.34563 0.13458 2.28758C0.629793 1.64849 1.30755 1.19604 2.16769 0.930308C3.97404 0.40134 5.81967 0.0956985 7.70466 0.0132353ZM8.91588 1.18709C7.62343 1.22825 6.3257 1.33829 5.02269 1.51723C3.95942 1.67923 2.95013 1.97269 1.99466 2.39762C1.53466 2.57752 1.40488 2.85873 1.60534 3.24133C2.29547 3.67316 3.05966 3.97888 3.89799 4.1584C7.3009 4.89206 10.7039 4.89206 14.1068 4.1584C17.3351 3.34661 17.3351 2.53959 14.1068 1.73733C12.3982 1.39442 10.6679 1.21101 8.91588 1.18709ZM1 4.63528C0.985552 5.63826 1 6.64088 1.04326 7.64328C1.32824 8.05501 2.13542 8.33629 2.68678 8.48698C4.72863 9.10296 6.8338 9.40861 9.00239 9.40406C11.1022 9.39944 13.1498 9.11822 15.145 8.56035C15.763 8.40342 16.6663 8.09778 17 7.64328C17.0577 6.64059 17.0577 5.63797 17 4.63528C16.704 4.77915 15.9737 4.91363 15.6641 5.03879C12.8484 5.80502 9.96453 6.07406 7.01254 5.84582C5.03342 5.77208 2.76993 5.36857 1 4.63528ZM1 9.33069C0.985552 10.3337 1 11.3363 1.04326 12.3387C1.32824 12.7504 2.13542 13.0317 2.68678 13.1824C4.72863 13.7984 6.8338 14.104 9.00239 14.0995C11.1022 14.0948 13.1498 13.8136 15.145 13.2558C15.763 13.0988 16.6663 12.7932 17 12.3387C17.0577 11.336 17.0577 10.3334 17 9.33069C16.704 9.47456 15.9737 9.60904 15.6641 9.7342C12.8484 10.5004 9.96453 10.7695 7.01254 10.5412C5.03342 10.4675 2.76993 10.064 1 9.33069ZM1 14.0261C0.985552 15.0291 1 16.0317 1.04326 17.0341C1.32824 17.4458 2.13542 17.7271 2.68678 17.8778C4.72863 18.4938 6.8338 18.7994 9.00239 18.7949C11.1022 18.7903 13.1498 18.509 15.145 17.9512C15.763 17.7942 16.6663 17.4886 17 17.0341C17.0577 16.0314 17.0577 15.0288 17 14.0261C16.704 14.17 15.9737 14.3045 15.6641 14.4296C12.8484 15.1958 9.96453 15.4649 7.01254 15.2366C5.03342 15.1629 2.76993 14.7594 1 14.0261Z" fill="url(#paint0_linear_1863_1592)"/>
<defs>
<linearGradient id="paint0_linear_1863_1592" x1="-0.215625" y1="-7.80756e-07" x2="22.1415" y2="8.68968" gradientUnits="userSpaceOnUse">
<stop offset="0.11" stop-color="#60D7AD"/>
<stop offset="0.76" stop-color="#213C3A"/>
</linearGradient>
</defs>
</svg>
