<svg width="27" height="24" viewBox="0 0 27 24" fill="none" xmlns="http://www.w3.org/2000/svg">
<path opacity="0.965" fill-rule="evenodd" clip-rule="evenodd" d="M26.7073 9.65526C26.7073 10.8724 26.7073 12.0895 26.7073 13.3066C26.6305 13.3919 26.5436 13.4701 26.4465 13.5414C25.6167 13.5505 24.7908 13.5766 23.9687 13.6196C23.6968 14.6763 23.2882 15.6761 22.7429 16.619C23.1666 17.095 23.61 17.5557 24.0731 18.0013C24.2469 18.2447 24.2469 18.4881 24.0731 18.7316C23.0733 19.7314 22.0735 20.7311 21.0737 21.7309C20.8303 21.9048 20.5869 21.9048 20.3434 21.7309C19.8827 21.2702 19.4219 20.8094 18.9611 20.3486C18.0231 20.9541 17.0059 21.3714 15.9096 21.6005C15.9183 22.3136 15.9096 23.0265 15.8835 23.7392C15.8227 23.8348 15.7444 23.913 15.6488 23.9739C14.1013 24.0087 12.5538 24.0087 11.0063 23.9739C10.9107 23.913 10.8325 23.8348 10.7716 23.7392C10.7455 23.0265 10.7368 22.3136 10.7455 21.6005C9.66564 21.3594 8.64846 20.9595 7.69399 20.4008C7.19907 20.8609 6.70353 21.3216 6.20736 21.7831C5.98003 21.8391 5.77138 21.8044 5.5814 21.6787C4.54535 20.6601 3.52818 19.6255 2.52989 18.5751C2.45052 18.3834 2.46791 18.1922 2.58205 18.0013C3.03488 17.5572 3.47826 17.1051 3.9122 16.6451C3.33556 15.6832 2.91826 14.6573 2.6603 13.5675C1.86028 13.5762 1.06045 13.5675 0.260813 13.5414C0.163704 13.4701 0.0767663 13.3919 0 13.3066C0 12.0895 0 10.8724 0 9.65526C0.0767663 9.57002 0.163704 9.49178 0.260813 9.42052C2.29516 9.38573 4.3295 9.38573 6.36384 9.42052C6.56853 9.54274 6.67285 9.72531 6.67682 9.96823C6.39305 12.7792 7.39286 15.0048 9.67617 16.6451C9.71096 15.2019 9.71096 13.7587 9.67617 12.3156C9.1535 11.976 8.64925 11.6108 8.16346 11.2201C8.15474 8.85524 8.12866 6.49055 8.08521 4.12602C6.93007 3.69073 6.43452 2.85613 6.59858 1.62221C6.99882 0.400012 7.84213 -0.13031 9.12846 0.0312479C10.3507 0.431502 10.881 1.2748 10.7194 2.56114C10.5183 3.36215 10.0227 3.88377 9.23279 4.12602C9.17192 6.29927 9.16326 8.47268 9.20671 10.6463C9.72938 10.9859 10.2336 11.3511 10.7194 11.7418C10.7455 13.5674 10.7542 15.393 10.7455 17.2188C11.1367 17.5057 12.2843 18.0013 12.7538 18.1839C12.8953 18.6311 12.7388 18.9093 12.2843 19.0185C9.53132 18.1781 6.71453 15.8917 5.81614 13.1502C5.55965 12.2637 5.46399 11.3596 5.52924 10.4377C4.03391 10.4377 2.53858 10.4377 1.04325 10.4377C1.04325 11.1332 1.04325 11.8287 1.04325 12.5242C1.80851 12.5155 2.57355 12.5242 3.33841 12.5503C3.41304 12.5745 3.4739 12.618 3.52098 12.6807C3.82902 14.0092 4.35065 15.2437 5.08586 16.3842C5.20116 16.6376 5.18377 16.881 5.0337 17.1145C4.62509 17.5231 4.21648 17.9317 3.80787 18.3403C4.52946 19.0619 5.25106 19.7835 5.97262 20.5051C6.39864 20.0791 6.8246 19.6531 7.25061 19.2271C7.3528 19.1785 7.45712 19.1351 7.56358 19.0967C8.20477 19.4173 8.84809 19.739 9.4936 20.0617C10.1554 20.3229 10.8335 20.5315 11.5279 20.6877C11.6236 20.7485 11.7018 20.8268 11.7627 20.9224C11.7888 21.6003 11.7975 22.2784 11.7888 22.9567C12.8146 22.9567 13.8405 22.9567 14.8664 22.9567C14.8576 22.2784 14.8664 21.6003 14.8924 20.9224C14.9533 20.8268 15.0316 20.7485 15.1272 20.6877C16.4424 20.4123 17.6596 19.9081 18.7786 19.1749C18.9959 19.0674 19.2046 19.0848 19.4045 19.2271C19.8218 19.6444 20.2391 20.0617 20.6564 20.479C20.6912 20.5138 20.7259 20.5138 20.7607 20.479C21.4657 19.7828 22.1611 19.0786 22.8472 18.3664C22.4307 17.9238 22.0047 17.4891 21.5693 17.0624C21.5207 16.9602 21.4772 16.8558 21.4389 16.7494C21.7768 16.0734 22.1159 15.3953 22.456 14.715C22.697 14.0641 22.9056 13.4034 23.082 12.7329C23.1453 12.6521 23.2235 12.5912 23.3167 12.5503C24.0989 12.5242 24.8814 12.5155 25.664 12.5242C25.664 11.8287 25.664 11.1332 25.664 10.4377C24.1861 10.4377 22.7081 10.4377 21.2302 10.4377C21.2334 14.0067 19.6511 16.5887 16.4834 18.1839C16.137 18.3283 14.8677 19.0151 14.5012 19.0967C14.0467 18.9876 13.8902 18.7094 14.0318 18.2621C14.3263 18.0149 15.5445 17.6622 15.9618 17.2188C15.9531 15.393 15.9618 13.5674 15.9879 11.7418C16.4736 11.3511 16.9779 10.9859 17.5006 10.6463C17.544 8.47268 17.5354 6.29927 17.4745 4.12602C16.1657 3.61229 15.705 2.67336 16.0922 1.30923C16.5858 0.301565 17.3943 -0.124426 18.5177 0.0312479C19.5374 0.340426 20.0764 1.02724 20.1348 2.09167C20.0995 3.11867 19.5952 3.79678 18.6221 4.12602C18.5786 6.49055 18.5525 8.85524 18.5438 11.2201C18.058 11.6108 17.5538 11.976 17.0311 12.3156C16.9877 13.7416 16.9963 15.1674 17.0572 16.5929C18.6331 15.4938 19.6155 13.9985 20.0044 12.1069C20.0979 11.2926 20.1501 10.4754 20.1609 9.65526C20.2217 9.55964 20.3 9.4814 20.3956 9.42052C22.4126 9.38573 24.4295 9.38573 26.4465 9.42052C26.5436 9.49178 26.6305 9.57002 26.7073 9.65526ZM8.34602 1.10058C9.29267 1.03004 9.71868 1.46473 9.62401 2.40465C9.30629 3.0632 8.81074 3.24577 8.13737 2.95236C7.72148 2.6674 7.57365 2.27618 7.69399 1.7787C7.81673 1.45609 8.03409 1.23005 8.34602 1.10058ZM17.7353 1.10058C18.6819 1.03004 19.108 1.46473 19.0133 2.40465C18.6956 3.0632 18.2 3.24577 17.5267 2.95236C17.1108 2.6674 16.9629 2.27618 17.0833 1.7787C17.206 1.45609 17.4234 1.23005 17.7353 1.10058Z" fill="url(#paint0_linear_1855_1422)"/>
<path opacity="0.964" fill-rule="evenodd" clip-rule="evenodd" d="M12.9122 6.26482C14.8127 6.22643 15.6385 7.14799 15.3899 9.02944C15.1398 9.72295 14.6616 10.175 13.9555 10.3857C13.912 12.4024 13.8859 14.4194 13.8772 16.4365C13.6866 16.6856 13.4345 16.7639 13.1209 16.6713C13.0252 16.6104 12.947 16.5322 12.8861 16.4365C12.8774 14.4194 12.8513 12.4024 12.8079 10.3857C11.4991 9.87198 11.0384 8.93305 11.4256 7.56889C11.717 6.89782 12.2126 6.46315 12.9122 6.26482ZM13.0687 7.36024C12.7568 7.48971 12.5394 7.71573 12.4167 8.03835C12.2963 8.53583 12.4442 8.92705 12.86 9.21201C13.5334 9.50543 14.029 9.32286 14.3467 8.66431C14.4414 7.72439 14.0153 7.28972 13.0687 7.36024Z" fill="url(#paint1_linear_1855_1422)"/>
<defs>
<linearGradient id="paint0_linear_1855_1422" x1="-0.319931" y1="-9.36907e-07" x2="30.6993" y2="14.9072" gradientUnits="userSpaceOnUse">
<stop offset="0.11" stop-color="#60D7AD"/>
<stop offset="0.76" stop-color="#213C3A"/>
</linearGradient>
<linearGradient id="paint1_linear_1855_1422" x1="11.2434" y1="6.26367" x2="16.994" y2="7.24803" gradientUnits="userSpaceOnUse">
<stop offset="0.11" stop-color="#60D7AD"/>
<stop offset="0.76" stop-color="#213C3A"/>
</linearGradient>
</defs>
</svg>
