<svg width="20" height="24" viewBox="0 0 20 24" fill="none" xmlns="http://www.w3.org/2000/svg">
<path opacity="0.972" fill-rule="evenodd" clip-rule="evenodd" d="M8.74312 0.0258434C10.2728 -0.0548346 11.7878 0.0533837 13.2882 0.350493C14.1106 0.491147 14.8182 0.849095 15.4109 1.42434C15.4828 1.51297 15.5327 1.61286 15.5608 1.72401C15.6101 4.64042 15.5935 7.55397 15.5108 10.4646C15.1123 10.9621 14.6045 11.3034 13.9875 11.4885C12.8149 11.842 11.6162 12.0169 10.3913 12.0129C10.3913 12.5457 10.3913 13.0784 10.3913 13.6112C12.2923 13.5871 14.1903 13.6121 16.0852 13.6861C16.4173 13.8516 16.6421 14.1097 16.7595 14.4603C16.7844 14.9761 16.7927 15.4922 16.7844 16.0086C17.5671 16.0003 18.3496 16.0086 19.1319 16.0336C19.4825 16.151 19.7406 16.3758 19.9061 16.7079C19.9885 18.8526 20.0052 21.0003 19.956 23.1509C19.8145 23.5588 19.5398 23.8335 19.1319 23.975C17.0342 24.0083 14.9364 24.0083 12.8387 23.975C12.4308 23.8335 12.1561 23.5588 12.0146 23.1509C11.9813 21.0532 11.9813 18.9554 12.0146 16.8577C12.1561 16.4498 12.4308 16.1751 12.8387 16.0336C13.8874 16.0086 14.9363 16.0003 15.9853 16.0086C15.9936 15.6087 15.9853 15.2091 15.9603 14.8099C15.9354 14.5851 15.8105 14.4603 15.5857 14.4353C11.8564 14.402 8.12714 14.402 4.39781 14.4353C4.17305 14.4603 4.04818 14.5851 4.02321 14.8099C3.99824 15.2091 3.98995 15.6087 3.99824 16.0086C5.04726 16.0003 6.09612 16.0086 7.14484 16.0336C7.55275 16.1751 7.82746 16.4498 7.96896 16.8577C8.00227 18.9554 8.00227 21.0532 7.96896 23.1509C7.82746 23.5588 7.55275 23.8335 7.14484 23.975C5.04711 24.0083 2.94937 24.0083 0.851631 23.975C0.443736 23.8335 0.169032 23.5588 0.0275197 23.1509C-0.0216073 21.0003 -0.0049603 18.8526 0.0774658 16.7079C0.242992 16.3758 0.501049 16.151 0.851631 16.0336C1.63394 16.0086 2.41644 16.0003 3.1991 16.0086C3.19081 15.4922 3.1991 14.9761 3.22407 14.4603C3.3415 14.1097 3.56625 13.8516 3.89835 13.6861C5.79325 13.6121 7.6912 13.5871 9.5922 13.6112C9.5922 13.0784 9.5922 12.5457 9.5922 12.0129C8.36713 12.0169 7.16842 11.842 5.99608 11.4885C5.43719 11.33 4.9627 11.0386 4.57262 10.6144C4.50075 10.5258 4.4508 10.4259 4.42278 10.3147C4.37343 7.39834 4.39007 4.48478 4.47273 1.57417C4.85516 1.0536 5.36292 0.712308 5.99608 0.550278C6.90076 0.281038 7.81647 0.106227 8.74312 0.0258434ZM9.89188 0.824981C11.1267 0.831934 12.3421 0.990093 13.538 1.29947C13.9839 1.41 14.3751 1.61811 14.7117 1.9238C14.745 1.99039 14.745 2.05699 14.7117 2.12358C14.3751 2.42927 13.9839 2.63738 13.538 2.74791C11.2424 3.3306 8.9449 3.34725 6.64538 2.79785C6.12374 2.69652 5.66594 2.47176 5.27186 2.12358C5.23855 2.05699 5.23855 1.99039 5.27186 1.9238C5.5638 1.64868 5.90513 1.45722 6.29576 1.34942C7.47893 1.01853 8.67764 0.843716 9.89188 0.824981ZM5.19694 3.17245C6.72879 3.80763 8.32707 4.09066 9.99177 4.02153C11.298 4.05596 12.5799 3.8978 13.8376 3.54705C14.1474 3.44655 14.4471 3.32168 14.7367 3.17245C14.7949 4.12099 14.8032 5.06995 14.7616 6.01938C14.6701 6.17756 14.5452 6.30242 14.387 6.39398C13.3855 6.8341 12.3366 7.08383 11.2404 7.14317C9.56598 7.29326 7.91776 7.14342 6.29576 6.69365C6.05447 6.61324 5.82142 6.51335 5.59651 6.39398C5.43833 6.30242 5.31347 6.17756 5.22192 6.01938C5.19694 5.07055 5.1886 4.12157 5.19694 3.17245ZM5.19694 7.16814C6.72879 7.80331 8.32707 8.08635 9.99177 8.01722C11.298 8.05164 12.5799 7.89351 13.8376 7.54274C14.1474 7.44225 14.4471 7.31738 14.7367 7.16814C14.7949 8.11667 14.8032 9.06564 14.7616 10.0151C14.6701 10.1732 14.5452 10.2981 14.387 10.3897C13.3855 10.8298 12.3366 11.0795 11.2404 11.1389C9.56598 11.2889 7.91776 11.1391 6.29576 10.6893C6.05447 10.6089 5.82142 10.509 5.59651 10.3897C5.43833 10.2981 5.31347 10.1732 5.22192 10.0151C5.19694 9.06624 5.1886 8.11727 5.19694 7.16814ZM1.20125 16.8077C3.06599 16.7994 4.93063 16.8077 6.79522 16.8327C7.01998 16.8577 7.14484 16.9826 7.16982 17.2073C7.20313 19.072 7.20313 20.9366 7.16982 22.8013C7.14484 23.026 7.01998 23.1509 6.79522 23.1759C4.93058 23.2092 3.06589 23.2092 1.20125 23.1759C0.976496 23.1509 0.851631 23.026 0.826658 22.8013C0.793359 20.9366 0.793359 19.072 0.826658 17.2073C0.860641 16.982 0.985507 16.8489 1.20125 16.8077ZM13.1883 16.8077C15.0531 16.7994 16.9177 16.8077 18.7823 16.8327C19.0071 16.8577 19.1319 16.9826 19.1569 17.2073C19.1902 19.072 19.1902 20.9366 19.1569 22.8013C19.1319 23.026 19.0071 23.1509 18.7823 23.1759C16.9177 23.2092 15.053 23.2092 13.1883 23.1759C12.9636 23.1509 12.8387 23.026 12.8137 22.8013C12.7804 20.9366 12.7804 19.072 12.8137 17.2073C12.8477 16.982 12.9726 16.8489 13.1883 16.8077Z" fill="url(#paint0_linear_1851_1348)"/>
<path opacity="0.892" fill-rule="evenodd" clip-rule="evenodd" d="M9.79102 5.21998C10.3584 5.18052 10.5249 5.42191 10.2905 5.9442C9.76424 6.14383 9.53949 5.96902 9.6162 5.41976C9.65067 5.32736 9.7089 5.26073 9.79102 5.21998Z" fill="url(#paint1_linear_1851_1348)"/>
<path opacity="0.892" fill-rule="evenodd" clip-rule="evenodd" d="M9.79102 9.21607C10.3584 9.17661 10.5249 9.418 10.2905 9.94029C9.76424 10.1399 9.53949 9.96511 9.6162 9.41586C9.65067 9.32346 9.7089 9.25683 9.79102 9.21607Z" fill="url(#paint2_linear_1851_1348)"/>
<path opacity="0.967" fill-rule="evenodd" clip-rule="evenodd" d="M2.1986 18.0061C2.86473 17.9977 3.53071 18.0061 4.19644 18.031C4.28799 18.056 4.34628 18.1143 4.37125 18.2058C4.40457 18.339 4.40457 18.4722 4.37125 18.6054C4.34628 18.697 4.28799 18.7553 4.19644 18.7802C3.53051 18.8135 2.86453 18.8135 2.1986 18.7802C2.04796 18.7039 1.98136 18.579 1.99881 18.4056C1.98794 18.2275 2.05454 18.0944 2.1986 18.0061Z" fill="url(#paint3_linear_1851_1348)"/>
<path opacity="0.967" fill-rule="evenodd" clip-rule="evenodd" d="M14.1869 18.0061C14.853 17.9977 15.519 18.0061 16.1847 18.031C16.2763 18.056 16.3346 18.1143 16.3595 18.2058C16.3928 18.339 16.3928 18.4722 16.3595 18.6054C16.3346 18.697 16.2763 18.7553 16.1847 18.7802C15.5188 18.8135 14.8528 18.8135 14.1869 18.7802C14.0362 18.7039 13.9697 18.579 13.9871 18.4056C13.9762 18.2275 14.0428 18.0944 14.1869 18.0061Z" fill="url(#paint4_linear_1851_1348)"/>
<path opacity="0.98" fill-rule="evenodd" clip-rule="evenodd" d="M2.1986 19.6047C3.3974 19.5964 4.59611 19.6047 5.79472 19.6297C5.88627 19.6546 5.94456 19.7129 5.96953 19.8045C6.00284 19.9377 6.00284 20.0708 5.96953 20.204C5.94456 20.2956 5.88627 20.3539 5.79472 20.3789C4.59601 20.4122 3.3973 20.4122 2.1986 20.3789C2.04796 20.3025 1.98136 20.1776 1.99881 20.0043C1.98794 19.8262 2.05454 19.693 2.1986 19.6047Z" fill="url(#paint5_linear_1851_1348)"/>
<path opacity="0.98" fill-rule="evenodd" clip-rule="evenodd" d="M14.1869 19.6047C15.3857 19.5964 16.5844 19.6047 17.783 19.6297C17.8745 19.6546 17.9328 19.7129 17.9578 19.8045C17.9911 19.9377 17.9911 20.0708 17.9578 20.204C17.9328 20.2956 17.8745 20.3539 17.783 20.3789C16.5843 20.4122 15.3856 20.4122 14.1869 20.3789C14.0362 20.3025 13.9697 20.1776 13.9871 20.0043C13.9762 19.8262 14.0428 19.693 14.1869 19.6047Z" fill="url(#paint6_linear_1851_1348)"/>
<path opacity="0.98" fill-rule="evenodd" clip-rule="evenodd" d="M2.1986 21.2033C3.3974 21.195 4.59611 21.2033 5.79472 21.2283C5.88627 21.2533 5.94456 21.3116 5.96953 21.4031C6.00284 21.5363 6.00284 21.6695 5.96953 21.8027C5.94456 21.8942 5.88627 21.9525 5.79472 21.9775C4.59601 22.0108 3.3973 22.0108 2.1986 21.9775C2.04796 21.9011 1.98136 21.7763 1.99881 21.6029C1.98794 21.4248 2.05454 21.2916 2.1986 21.2033Z" fill="url(#paint7_linear_1851_1348)"/>
<path opacity="0.98" fill-rule="evenodd" clip-rule="evenodd" d="M14.1869 21.2033C15.3857 21.195 16.5844 21.2033 17.783 21.2283C17.8745 21.2533 17.9328 21.3116 17.9578 21.4031C17.9911 21.5363 17.9911 21.6695 17.9578 21.8027C17.9328 21.8942 17.8745 21.9525 17.783 21.9775C16.5843 22.0108 15.3856 22.0108 14.1869 21.9775C14.0362 21.9011 13.9697 21.7763 13.9871 21.6029C13.9762 21.4248 14.0428 21.2916 14.1869 21.2033Z" fill="url(#paint8_linear_1851_1348)"/>
<defs>
<linearGradient id="paint0_linear_1851_1348" x1="-0.239386" y1="-9.36907e-07" x2="25.0597" y2="9.09732" gradientUnits="userSpaceOnUse">
<stop offset="0.11" stop-color="#60D7AD"/>
<stop offset="0.76" stop-color="#213C3A"/>
</linearGradient>
<linearGradient id="paint1_linear_1851_1348" x1="9.59208" y1="5.21582" x2="10.5522" y2="5.62198" gradientUnits="userSpaceOnUse">
<stop offset="0.11" stop-color="#60D7AD"/>
<stop offset="0.76" stop-color="#213C3A"/>
</linearGradient>
<linearGradient id="paint2_linear_1851_1348" x1="9.59208" y1="9.21191" x2="10.5522" y2="9.61807" gradientUnits="userSpaceOnUse">
<stop offset="0.11" stop-color="#60D7AD"/>
<stop offset="0.76" stop-color="#213C3A"/>
</linearGradient>
<linearGradient id="paint3_linear_1851_1348" x1="1.96734" y1="18.0029" x2="3.25291" y2="19.6639" gradientUnits="userSpaceOnUse">
<stop offset="0.11" stop-color="#60D7AD"/>
<stop offset="0.76" stop-color="#213C3A"/>
</linearGradient>
<linearGradient id="paint4_linear_1851_1348" x1="13.9556" y1="18.0029" x2="15.2412" y2="19.6639" gradientUnits="userSpaceOnUse">
<stop offset="0.11" stop-color="#60D7AD"/>
<stop offset="0.76" stop-color="#213C3A"/>
</linearGradient>
<linearGradient id="paint5_linear_1851_1348" x1="1.9482" y1="19.6016" x2="2.96311" y2="21.786" gradientUnits="userSpaceOnUse">
<stop offset="0.11" stop-color="#60D7AD"/>
<stop offset="0.76" stop-color="#213C3A"/>
</linearGradient>
<linearGradient id="paint6_linear_1851_1348" x1="13.9365" y1="19.6016" x2="14.9514" y2="21.786" gradientUnits="userSpaceOnUse">
<stop offset="0.11" stop-color="#60D7AD"/>
<stop offset="0.76" stop-color="#213C3A"/>
</linearGradient>
<linearGradient id="paint7_linear_1851_1348" x1="1.9482" y1="21.2002" x2="2.96311" y2="23.3846" gradientUnits="userSpaceOnUse">
<stop offset="0.11" stop-color="#60D7AD"/>
<stop offset="0.76" stop-color="#213C3A"/>
</linearGradient>
<linearGradient id="paint8_linear_1851_1348" x1="13.9365" y1="21.2002" x2="14.9514" y2="23.3846" gradientUnits="userSpaceOnUse">
<stop offset="0.11" stop-color="#60D7AD"/>
<stop offset="0.76" stop-color="#213C3A"/>
</linearGradient>
</defs>
</svg>
