<svg width="61" height="60" viewBox="0 0 61 60" fill="none" xmlns="http://www.w3.org/2000/svg">
<circle cx="30.5" cy="30" r="30" fill="url(#paint0_linear_1296_199)"/>
<path d="M24.7969 38.3906C23.401 38.3906 22.1979 38.0599 21.1875 37.3984C20.1771 36.7318 19.3984 35.776 18.8516 34.5313C18.3047 33.2812 18.0339 31.7786 18.0391 30.0234C18.0443 28.2682 18.3177 26.7786 18.8594 25.5547C19.4063 24.3255 20.1823 23.3906 21.1875 22.75C22.1979 22.1042 23.401 21.7812 24.7969 21.7812C26.1927 21.7812 27.3958 22.1042 28.4063 22.75C29.4219 23.3906 30.2031 24.3255 30.75 25.5547C31.2969 26.7839 31.5677 28.2734 31.5625 30.0234C31.5625 31.7839 31.2891 33.2891 30.7422 34.5391C30.1953 35.7891 29.4167 36.7448 28.4063 37.4062C27.401 38.0625 26.1979 38.3906 24.7969 38.3906ZM24.7969 35.2266C25.6302 35.2266 26.3047 34.8021 26.8203 33.9531C27.3359 33.099 27.5911 31.7891 27.5859 30.0234C27.5859 28.8672 27.4688 27.9141 27.2344 27.1641C27 26.4089 26.6745 25.8464 26.2578 25.4766C25.8411 25.1068 25.3542 24.9219 24.7969 24.9219C23.9688 24.9219 23.2995 25.3411 22.7891 26.1797C22.2786 27.013 22.0208 28.2943 22.0156 30.0234C22.0104 31.1953 22.1224 32.1667 22.3516 32.9375C22.5859 33.7083 22.9141 34.2839 23.3359 34.6641C23.7578 35.0391 24.2448 35.2266 24.7969 35.2266ZM41.1758 22V38H37.3164V25.6094H37.2227L33.6445 27.7969V24.4531L37.5898 22H41.1758Z" fill="white"/>
<defs>
<linearGradient id="paint0_linear_1296_199" x1="-0.22" y1="-3.84089e-07" x2="72.0775" y2="31.2225" gradientUnits="userSpaceOnUse">
<stop offset="0.11" stop-color="#60D7AD"/>
<stop offset="0.76" stop-color="#213C3A"/>
</linearGradient>
</defs>
</svg>
