<svg width="61" height="60" viewBox="0 0 61 60" fill="none" xmlns="http://www.w3.org/2000/svg">
<g clip-path="url(#clip0_3046_661)">
<path d="M30.5 0C47.0685 0 60.5 13.4315 60.5 30C60.5 46.5685 47.0685 60 30.5 60C13.9315 60 0.5 46.5685 0.5 30C0.5 13.4315 13.9315 0 30.5 0Z" fill="url(#paint0_linear_3046_661)"/>
<path d="M22.7969 38.3906C21.401 38.3906 20.1979 38.0599 19.1875 37.3984C18.1771 36.7318 17.3984 35.776 16.8516 34.5313C16.3047 33.2812 16.0339 31.7786 16.0391 30.0234C16.0443 28.2682 16.3177 26.7786 16.8594 25.5547C17.4063 24.3255 18.1823 23.3906 19.1875 22.75C20.1979 22.1042 21.401 21.7812 22.7969 21.7812C24.1927 21.7812 25.3958 22.1042 26.4063 22.75C27.4219 23.3906 28.2031 24.3255 28.75 25.5547C29.2969 26.7839 29.5677 28.2734 29.5625 30.0234C29.5625 31.7839 29.2891 33.2891 28.7422 34.5391C28.1953 35.7891 27.4167 36.7448 26.4063 37.4062C25.401 38.0625 24.1979 38.3906 22.7969 38.3906ZM22.7969 35.2266C23.6302 35.2266 24.3047 34.8021 24.8203 33.9531C25.3359 33.099 25.5911 31.7891 25.5859 30.0234C25.5859 28.8672 25.4688 27.9141 25.2344 27.1641C25 26.4089 24.6745 25.8464 24.2578 25.4766C23.8411 25.1068 23.3542 24.9219 22.7969 24.9219C21.9688 24.9219 21.2995 25.3411 20.7891 26.1797C20.2786 27.013 20.0208 28.2943 20.0156 30.0234C20.0104 31.1953 20.1224 32.1667 20.3516 32.9375C20.5859 33.7083 20.9141 34.2839 21.3359 34.6641C21.7578 35.0391 22.2448 35.2266 22.7969 35.2266ZM37.9023 38.2187C36.7357 38.2187 35.6992 38.0078 34.793 37.5859C33.8867 37.1641 33.1706 36.5833 32.6445 35.8437C32.1237 35.1042 31.8529 34.2552 31.832 33.2969H35.582C35.6133 33.8854 35.8529 34.3594 36.3008 34.7187C36.7487 35.0729 37.2826 35.25 37.9023 35.25C38.3867 35.25 38.8164 35.1432 39.1914 34.9297C39.5664 34.7161 39.8607 34.4167 40.0742 34.0312C40.2878 33.6406 40.3919 33.1927 40.3867 32.6875C40.3919 32.1719 40.2852 31.7214 40.0664 31.3359C39.8529 30.9505 39.556 30.651 39.1758 30.4375C38.8008 30.2187 38.3685 30.1094 37.8789 30.1094C37.4154 30.1042 36.9753 30.2057 36.5586 30.4141C36.1471 30.6224 35.8346 30.9062 35.6211 31.2656L32.207 30.625L32.9023 22H43.168V25.1172H36.082L35.7148 28.8906H35.8086C36.0742 28.4479 36.5013 28.0833 37.0898 27.7969C37.6836 27.5052 38.3581 27.3594 39.1133 27.3594C40.0716 27.3594 40.9258 27.5833 41.6758 28.0312C42.431 28.474 43.0247 29.0885 43.457 29.875C43.8945 30.6615 44.1133 31.5625 44.1133 32.5781C44.1133 33.6771 43.8529 34.651 43.332 35.5C42.8164 36.349 42.0924 37.0156 41.1602 37.5C40.2331 37.9792 39.1471 38.2187 37.9023 38.2187Z" fill="white"/>
</g>
<defs>
<linearGradient id="paint0_linear_3046_661" x1="-0.22" y1="60" x2="72.0775" y2="28.7775" gradientUnits="userSpaceOnUse">
<stop offset="0.11" stop-color="#60D7AD"/>
<stop offset="0.76" stop-color="#213C3A"/>
</linearGradient>
<clipPath id="clip0_3046_661">
<rect width="61" height="60" fill="white"/>
</clipPath>
</defs>
</svg>
