<svg width="32" height="24" viewBox="0 0 32 24" fill="none" xmlns="http://www.w3.org/2000/svg">
<g clip-path="url(#clip0_1495_26290)">
<path d="M1.83544 0.0283203H31.5963C32.6079 0.0283203 33.4317 0.85215 33.4317 1.86376V21.4479C33.4317 22.4595 32.6079 23.2833 31.5963 23.2833H1.83544C0.82383 23.2894 0 22.4656 0 21.454V1.86376C0 0.85215 0.82383 0.0283203 1.83544 0.0283203Z" fill="#B22234"/>
<path d="M0.0121075 1.68164H33.4317C33.4378 1.74222 33.4439 1.80279 33.4439 1.86943V3.65035H-7.62939e-06V1.86337C-7.62939e-06 1.80279 0.00604994 1.74222 0.0121075 1.68164ZM33.4378 5.27984V7.24249H-7.62939e-06V5.27984H33.4378ZM33.4378 8.87804V10.8407H-7.62939e-06V8.87804H33.4378ZM33.4378 12.4762V14.4389H-7.62939e-06V12.4762H33.4378ZM33.4378 16.0744V18.0371H-7.62939e-06V16.0744H33.4378ZM33.4378 19.6726V21.4475C33.4378 21.5081 33.4317 21.5747 33.4257 21.6353H0.0121075C0.00604994 21.5808 -7.62939e-06 21.5141 -7.62939e-06 21.4536V19.6787H33.4378V19.6726Z" fill="white"/>
<path d="M12.5998 0.0283203V12.5554H0V1.86376C0 0.85215 0.82383 0.0283203 1.83544 0.0283203H12.5998Z" fill="#3C3B6E"/>
<path d="M0.74506 1.76123L1.16303 3.06361L0.0605545 2.25795H1.42957L0.32103 3.06361L0.74506 1.76123Z" fill="white"/>
<path d="M0.74506 4.28027L1.16303 5.58265L0.0605545 4.77699H1.42957L0.32103 5.58265L0.74506 4.28027Z" fill="white"/>
<path d="M0.74506 6.80029L1.16303 8.10267L0.0605545 7.29701H1.42957L0.32103 8.10267L0.74506 6.80029Z" fill="white"/>
<path d="M0.74506 9.3208L1.16303 10.6232L0.0605545 9.81752H1.42957L0.32103 10.6232L0.74506 9.3208Z" fill="white"/>
<path d="M2.2231 0.500488L2.64713 1.80287L1.53859 0.997209H2.91366L1.79907 1.80287L2.2231 0.500488Z" fill="white"/>
<path d="M2.2231 3.02051L2.64713 4.32289L1.53859 3.51723H2.91366L1.79907 4.32289L2.2231 3.02051Z" fill="white"/>
<path d="M2.2231 5.54102L2.64713 6.84339L1.53859 6.03774H2.91366L1.79907 6.84339L2.2231 5.54102Z" fill="white"/>
<path d="M2.2231 8.06055L2.64713 9.36292L1.53859 8.55727H2.91366L1.79907 9.36292L2.2231 8.06055Z" fill="white"/>
<path d="M2.2231 10.5806L2.64713 11.8829L1.53859 11.0773H2.91366L1.79907 11.8829L2.2231 10.5806Z" fill="white"/>
<path d="M3.70726 1.76123L4.13129 3.06361L3.02275 2.25795H4.39176L3.28323 3.06361L3.70726 1.76123Z" fill="white"/>
<path d="M3.70726 4.28027L4.13129 5.58265L3.02275 4.77699H4.39176L3.28323 5.58265L3.70726 4.28027Z" fill="white"/>
<path d="M3.70726 6.80029L4.13129 8.10267L3.02275 7.29701H4.39176L3.28323 8.10267L3.70726 6.80029Z" fill="white"/>
<path d="M3.70726 9.3208L4.13129 10.6232L3.02275 9.81752H4.39176L3.28323 10.6232L3.70726 9.3208Z" fill="white"/>
<path d="M5.19124 0.500488L5.60922 1.80287L4.50674 0.997209H5.87575L4.76721 1.80287L5.19124 0.500488Z" fill="white"/>
<path d="M5.19124 3.02051L5.60922 4.32289L4.50674 3.51723H5.87575L4.76721 4.32289L5.19124 3.02051Z" fill="white"/>
<path d="M5.19124 5.54102L5.60922 6.84339L4.50674 6.03774H5.87575L4.76721 6.84339L5.19124 5.54102Z" fill="white"/>
<path d="M5.19124 8.06055L5.60922 9.36292L4.50674 8.55727H5.87575L4.76721 9.36292L5.19124 8.06055Z" fill="white"/>
<path d="M5.19124 10.5806L5.60922 11.8829L4.50674 11.0773H5.87575L4.76721 11.8829L5.19124 10.5806Z" fill="white"/>
<path d="M6.66945 1.76123L7.09348 3.06361L5.98494 2.25795H7.35395L6.24542 3.06361L6.66945 1.76123Z" fill="white"/>
<path d="M6.66945 4.28027L7.09348 5.58265L5.98494 4.77699H7.35395L6.24542 5.58265L6.66945 4.28027Z" fill="white"/>
<path d="M6.66945 6.80029L7.09348 8.10267L5.98494 7.29701H7.35395L6.24542 8.10267L6.66945 6.80029Z" fill="white"/>
<path d="M6.66945 9.3208L7.09348 10.6232L5.98494 9.81752H7.35395L6.24542 10.6232L6.66945 9.3208Z" fill="white"/>
<path d="M8.15344 0.500488L8.57747 1.80287L7.46893 0.997209H8.83794L7.72941 1.80287L8.15344 0.500488Z" fill="white"/>
<path d="M8.15344 3.02051L8.57747 4.32289L7.46893 3.51723H8.83794L7.72941 4.32289L8.15344 3.02051Z" fill="white"/>
<path d="M8.15344 5.54102L8.57747 6.84339L7.46893 6.03774H8.83794L7.72941 6.84339L8.15344 5.54102Z" fill="white"/>
<path d="M8.15344 8.06055L8.57747 9.36292L7.46893 8.55727H8.83794L7.72941 9.36292L8.15344 8.06055Z" fill="white"/>
<path d="M8.15344 10.5806L8.57747 11.8829L7.46893 11.0773H8.83794L7.72941 11.8829L8.15344 10.5806Z" fill="white"/>
<path d="M9.63164 1.76123L10.0557 3.06361L8.94714 2.25795H10.3161L9.21367 3.06361L9.63164 1.76123Z" fill="white"/>
<path d="M9.63164 4.28027L10.0557 5.58265L8.94714 4.77699H10.3161L9.21367 5.58265L9.63164 4.28027Z" fill="white"/>
<path d="M9.63164 6.80029L10.0557 8.10267L8.94714 7.29701H10.3161L9.21367 8.10267L9.63164 6.80029Z" fill="white"/>
<path d="M9.63164 9.3208L10.0557 10.6232L8.94714 9.81752H10.3161L9.21367 10.6232L9.63164 9.3208Z" fill="white"/>
<path d="M11.1156 0.500488L11.5397 1.80287L10.4311 0.997209H11.8001L10.6916 1.80287L11.1156 0.500488Z" fill="white"/>
<path d="M11.1156 3.02051L11.5397 4.32289L10.4311 3.51723H11.8001L10.6916 4.32289L11.1156 3.02051Z" fill="white"/>
<path d="M11.1156 5.54102L11.5397 6.84339L10.4311 6.03774H11.8001L10.6916 6.84339L11.1156 5.54102Z" fill="white"/>
<path d="M11.1156 8.06055L11.5397 9.36292L10.4311 8.55727H11.8001L10.6916 9.36292L11.1156 8.06055Z" fill="white"/>
<path d="M11.1156 10.5806L11.5397 11.8829L10.4311 11.0773H11.8001L10.6916 11.8829L11.1156 10.5806Z" fill="white"/>
</g>
<defs>
<clipPath id="clip0_1495_26290">
<rect width="32" height="23.2551" fill="white" transform="translate(0 0.0283203)"/>
</clipPath>
</defs>
</svg>
