<svg width="61" height="60" viewBox="0 0 61 60" fill="none" xmlns="http://www.w3.org/2000/svg">
<g clip-path="url(#clip0_2568_20779)">
<path d="M30.5 0C47.0685 0 60.5 13.4315 60.5 30C60.5 46.5685 47.0685 60 30.5 60C13.9315 60 0.5 46.5685 0.5 30C0.5 13.4315 13.9315 0 30.5 0Z" fill="url(#paint0_linear_2568_20779)"/>
<path d="M22.7969 38.3906C21.401 38.3906 20.1979 38.0599 19.1875 37.3984C18.1771 36.7318 17.3984 35.776 16.8516 34.5313C16.3047 33.2812 16.0339 31.7786 16.0391 30.0234C16.0443 28.2682 16.3177 26.7786 16.8594 25.5547C17.4063 24.3255 18.1823 23.3906 19.1875 22.75C20.1979 22.1042 21.401 21.7812 22.7969 21.7812C24.1927 21.7812 25.3958 22.1042 26.4063 22.75C27.4219 23.3906 28.2031 24.3255 28.75 25.5547C29.2969 26.7839 29.5677 28.2734 29.5625 30.0234C29.5625 31.7839 29.2891 33.2891 28.7422 34.5391C28.1953 35.7891 27.4167 36.7448 26.4063 37.4062C25.401 38.0625 24.1979 38.3906 22.7969 38.3906ZM22.7969 35.2266C23.6302 35.2266 24.3047 34.8021 24.8203 33.9531C25.3359 33.099 25.5911 31.7891 25.5859 30.0234C25.5859 28.8672 25.4688 27.9141 25.2344 27.1641C25 26.4089 24.6745 25.8464 24.2578 25.4766C23.8411 25.1068 23.3542 24.9219 22.7969 24.9219C21.9688 24.9219 21.2995 25.3411 20.7891 26.1797C20.2786 27.013 20.0208 28.2943 20.0156 30.0234C20.0104 31.1953 20.1224 32.1667 20.3516 32.9375C20.5859 33.7083 20.9141 34.2839 21.3359 34.6641C21.7578 35.0391 22.2448 35.2266 22.7969 35.2266ZM31.582 35.3437V32.3281L38.1367 22H40.8164V26.0937H39.2617L35.4258 32.1719V32.2969H44.918V35.3437H31.582ZM39.3086 38V34.4219L39.3867 33.1016V22H43.0039V38H39.3086Z" fill="white"/>
</g>
<defs>
<linearGradient id="paint0_linear_2568_20779" x1="-0.22" y1="60" x2="72.0775" y2="28.7775" gradientUnits="userSpaceOnUse">
<stop offset="0.11" stop-color="#60D7AD"/>
<stop offset="0.76" stop-color="#213C3A"/>
</linearGradient>
<clipPath id="clip0_2568_20779">
<rect width="61" height="60" fill="white"/>
</clipPath>
</defs>
</svg>
