<svg width="61" height="60" viewBox="0 0 61 60" fill="none" xmlns="http://www.w3.org/2000/svg">
<circle cx="30" cy="30" r="30" transform="matrix(-1 0 0 1 60.5 0)" fill="url(#paint0_linear_1296_217)"/>
<path d="M22.2969 38.3906C20.901 38.3906 19.6979 38.0599 18.6875 37.3984C17.6771 36.7318 16.8984 35.776 16.3516 34.5313C15.8047 33.2812 15.5339 31.7786 15.5391 30.0234C15.5443 28.2682 15.8177 26.7786 16.3594 25.5547C16.9063 24.3255 17.6823 23.3906 18.6875 22.75C19.6979 22.1042 20.901 21.7812 22.2969 21.7812C23.6927 21.7812 24.8958 22.1042 25.9063 22.75C26.9219 23.3906 27.7031 24.3255 28.25 25.5547C28.7969 26.7839 29.0677 28.2734 29.0625 30.0234C29.0625 31.7839 28.7891 33.2891 28.2422 34.5391C27.6953 35.7891 26.9167 36.7448 25.9063 37.4062C24.901 38.0625 23.6979 38.3906 22.2969 38.3906ZM22.2969 35.2266C23.1302 35.2266 23.8047 34.8021 24.3203 33.9531C24.8359 33.099 25.0911 31.7891 25.0859 30.0234C25.0859 28.8672 24.9688 27.9141 24.7344 27.1641C24.5 26.4089 24.1745 25.8464 23.7578 25.4766C23.3411 25.1068 22.8542 24.9219 22.2969 24.9219C21.4688 24.9219 20.7995 25.3411 20.2891 26.1797C19.7786 27.013 19.5208 28.2943 19.5156 30.0234C19.5104 31.1953 19.6224 32.1667 19.8516 32.9375C20.0859 33.7083 20.4141 34.2839 20.8359 34.6641C21.2578 35.0391 21.7448 35.2266 22.2969 35.2266ZM37.3633 38.2187C36.1445 38.2187 35.0638 38.0104 34.1211 37.5937C33.1836 37.1719 32.444 36.5911 31.9023 35.8516C31.3607 35.112 31.0846 34.2604 31.0742 33.2969H34.9648C34.9805 33.6458 35.0924 33.9557 35.3008 34.2266C35.5091 34.4922 35.793 34.7005 36.1523 34.8516C36.5117 35.0026 36.9206 35.0781 37.3789 35.0781C37.8372 35.0781 38.2409 34.9974 38.5898 34.8359C38.944 34.6693 39.2201 34.4427 39.418 34.1562C39.6159 33.8646 39.7122 33.5312 39.707 33.1562C39.7122 32.7812 39.6055 32.4479 39.3867 32.1562C39.168 31.8646 38.8581 31.638 38.457 31.4766C38.0612 31.3151 37.5924 31.2344 37.0508 31.2344H35.4961V28.4844H37.0508C37.5247 28.4844 37.9414 28.4062 38.3008 28.25C38.6654 28.0937 38.9492 27.875 39.1523 27.5937C39.3555 27.3073 39.4544 26.9792 39.4492 26.6094C39.4544 26.25 39.3685 25.9349 39.1914 25.6641C39.0195 25.388 38.7773 25.1745 38.4648 25.0234C38.1576 24.8724 37.8008 24.7969 37.3945 24.7969C36.9674 24.7969 36.5794 24.8724 36.2305 25.0234C35.8867 25.1745 35.6133 25.388 35.4102 25.6641C35.207 25.9401 35.1003 26.2604 35.0898 26.625H31.3945C31.4049 25.6719 31.6706 24.8333 32.1914 24.1094C32.7122 23.3802 33.4206 22.8099 34.3164 22.3984C35.2174 21.987 36.2435 21.7812 37.3945 21.7812C38.5404 21.7812 39.5482 21.9818 40.418 22.3828C41.2878 22.7839 41.9648 23.3307 42.4492 24.0234C42.9336 24.7109 43.1758 25.4896 43.1758 26.3594C43.181 27.2604 42.8867 28.0026 42.293 28.5859C41.7044 29.1693 40.9466 29.5286 40.0195 29.6641V29.7891C41.2591 29.9349 42.194 30.3359 42.8242 30.9922C43.4596 31.6484 43.7747 32.4687 43.7695 33.4531C43.7695 34.3802 43.4961 35.2031 42.9492 35.9219C42.4076 36.6354 41.6523 37.1979 40.6836 37.6094C39.7201 38.0156 38.6133 38.2187 37.3633 38.2187Z" fill="white"/>
<defs>
<linearGradient id="paint0_linear_1296_217" x1="-0.72" y1="-3.84089e-07" x2="71.5775" y2="31.2225" gradientUnits="userSpaceOnUse">
<stop offset="0.11" stop-color="#60D7AD"/>
<stop offset="0.76" stop-color="#213C3A"/>
</linearGradient>
</defs>
</svg>
