<svg width="32" height="23" viewBox="0 0 32 23" fill="none" xmlns="http://www.w3.org/2000/svg">
<g clip-path="url(#clip0_1495_26339)">
<path d="M1.7474 0.283203H30.2526C31.2161 0.288411 32 1.07747 32 2.04102V20.7858C32 21.752 31.2083 22.5436 30.2422 22.5436H1.7474C0.786458 22.5384 0 21.7493 0 20.7858V2.04102C0 1.07747 0.783854 0.288411 1.7474 0.283203Z" fill="#FF9933"/>
<path d="M0 7.70264H32V15.1245H0V7.70264Z" fill="white"/>
<path d="M0 15.1245H32V20.786C32 21.7521 31.2083 22.5438 30.2422 22.5438H1.7474C0.786458 22.5386 0 21.7495 0 20.786V15.1245Z" fill="#128807"/>
<path d="M18.9688 11.4136C18.9688 9.77295 17.6406 8.44482 16 8.44482C14.3594 8.44482 13.0313 9.77295 13.0313 11.4136C13.0313 13.0516 14.3594 14.3823 16 14.3823C17.6406 14.3823 18.9688 13.0542 18.9688 11.4136Z" fill="#000088"/>
<path d="M18.5963 11.4132C18.5963 9.97835 17.4349 8.81689 16 8.81689C14.5651 8.81689 13.4036 9.97835 13.4036 11.4132C13.4036 12.8481 14.5651 14.0096 16 14.0096C17.4349 14.0096 18.5963 12.8481 18.5963 11.4132Z" fill="white"/>
<path d="M16.5182 11.4134C16.5182 11.127 16.2864 10.8926 16 10.8926C15.7135 10.8926 15.4818 11.1243 15.4818 11.4134C15.4818 11.6999 15.7135 11.9316 16 11.9316C16.2864 11.9316 16.5182 11.6999 16.5182 11.4134Z" fill="#000088"/>
<path d="M18.7031 11.7702C18.7136 11.6999 18.6615 11.6348 18.5912 11.6244C18.5208 11.614 18.4557 11.666 18.4453 11.7364C18.4349 11.8067 18.487 11.8718 18.5573 11.8822C18.6302 11.89 18.6953 11.8405 18.7031 11.7702Z" fill="#000088"/>
<path d="M16 14.0099L16.0885 12.4526L16 11.7104L15.9115 12.4526L16 14.0099Z" fill="#000088"/>
<path d="M18.5182 12.4579C18.5469 12.3927 18.513 12.3146 18.4479 12.2886C18.3828 12.2599 18.3047 12.2938 18.2787 12.3589C18.25 12.424 18.2839 12.5021 18.349 12.5282C18.4167 12.5542 18.4922 12.523 18.5182 12.4579Z" fill="black"/>
<path d="M15.3281 13.9211L15.8177 12.4393L15.9245 11.6997L15.6458 12.395L15.3281 13.9211Z" fill="black"/>
<path d="M18.1641 13.0749C18.2083 13.0177 18.1979 12.9369 18.1406 12.8927C18.0833 12.8484 18.0026 12.8588 17.9583 12.9161C17.9141 12.9734 17.9245 13.0541 17.9818 13.0984C18.0391 13.1427 18.1198 13.1296 18.1641 13.0749Z" fill="black"/>
<path d="M14.7005 13.6636L15.5573 12.3589L15.8515 11.6714L15.4036 12.2677L14.7005 13.6636Z" fill="black"/>
<path d="M17.6589 13.5774C17.7162 13.5331 17.7266 13.4524 17.6823 13.3951C17.638 13.3378 17.5573 13.3274 17.5 13.3717C17.4427 13.4159 17.4323 13.4967 17.4766 13.554C17.5208 13.6086 17.6042 13.6217 17.6589 13.5774Z" fill="black"/>
<path d="M14.1641 13.2495L15.3281 12.2104L15.7891 11.6245L15.2031 12.0854L14.1641 13.2495Z" fill="black"/>
<path d="M17.0443 13.9344C17.1094 13.9058 17.1432 13.8302 17.1146 13.7651C17.0859 13.7 17.0104 13.6662 16.9453 13.6948C16.8802 13.7209 16.8464 13.799 16.875 13.8641C16.901 13.9292 16.9766 13.9605 17.0443 13.9344Z" fill="black"/>
<path d="M13.75 12.7131L15.1458 12.0099L15.7422 11.562L15.0547 11.8563L13.75 12.7131Z" fill="black"/>
<path d="M16.3568 14.1165C16.4271 14.1061 16.4765 14.041 16.4687 13.9707C16.4583 13.9004 16.3932 13.8509 16.3229 13.8587C16.2526 13.8691 16.2031 13.9342 16.2109 14.0046C16.2187 14.0775 16.2838 14.1269 16.3568 14.1165Z" fill="black"/>
<path d="M13.4922 12.0854L15.0208 11.7677L15.7136 11.4917L14.974 11.5959L13.4922 12.0854Z" fill="black"/>
<path d="M15.6432 14.1166C15.7135 14.127 15.7786 14.0749 15.789 14.0046C15.7995 13.9343 15.7474 13.8692 15.6771 13.8588C15.6068 13.8483 15.5417 13.9004 15.5312 13.9707C15.5234 14.0436 15.5729 14.1088 15.6432 14.1166Z" fill="black"/>
<path d="M13.4036 11.4132L14.9609 11.5018L15.7031 11.4132L14.9609 11.3247L13.4036 11.4132Z" fill="black"/>
<path d="M14.9557 13.9344C15.0208 13.9631 15.099 13.9292 15.125 13.8641C15.151 13.799 15.1198 13.7209 15.0547 13.6948C14.9896 13.6662 14.9115 13.7 14.8854 13.7651C14.8594 13.8302 14.8906 13.9058 14.9557 13.9344Z" fill="black"/>
<path d="M13.4922 10.7417L14.974 11.2313L15.7136 11.3381L15.0208 11.0594L13.4922 10.7417Z" fill="black"/>
<path d="M14.3385 13.5774C14.3958 13.6217 14.4765 13.6112 14.5208 13.554C14.5651 13.4967 14.5547 13.4159 14.4974 13.3717C14.4401 13.3274 14.3594 13.3378 14.3151 13.3951C14.2734 13.4524 14.2838 13.5331 14.3385 13.5774Z" fill="black"/>
<path d="M13.75 10.1138L15.0547 10.9705L15.7422 11.2648L15.1458 10.8169L13.75 10.1138Z" fill="black"/>
<path d="M13.8359 13.0749C13.8802 13.1322 13.9609 13.1427 14.0182 13.0984C14.0755 13.0541 14.0859 12.9734 14.0417 12.9161C13.9974 12.8588 13.9167 12.8484 13.8594 12.8927C13.8047 12.9343 13.7917 13.0177 13.8359 13.0749Z" fill="black"/>
<path d="M14.1641 9.57764L15.2031 10.7417L15.7891 11.2052L15.3281 10.6167L14.1641 9.57764Z" fill="black"/>
<path d="M13.4792 12.4579C13.5078 12.523 13.5833 12.5568 13.6484 12.5282C13.7135 12.4995 13.7474 12.424 13.7187 12.3589C13.6901 12.2938 13.6146 12.2599 13.5495 12.2886C13.4844 12.3146 13.4531 12.3901 13.4792 12.4579Z" fill="black"/>
<path d="M14.7005 9.16357L15.4036 10.5594L15.8515 11.1558L15.5573 10.4709L14.7005 9.16357Z" fill="black"/>
<path d="M13.2969 11.7702C13.3073 11.8405 13.3724 11.89 13.4427 11.8822C13.513 11.8717 13.5625 11.8066 13.5547 11.7363C13.5443 11.666 13.4792 11.6165 13.4089 11.6243C13.3359 11.6322 13.2865 11.6973 13.2969 11.7702Z" fill="black"/>
<path d="M15.3281 8.90576L15.6458 10.4344L15.9245 11.1271L15.8177 10.3875L15.3281 8.90576Z" fill="black"/>
<path d="M13.2969 11.0566C13.2865 11.127 13.3386 11.1921 13.4089 11.2025C13.4792 11.2129 13.5443 11.1608 13.5547 11.0905C13.5651 11.0202 13.513 10.9551 13.4427 10.9447C13.3698 10.9368 13.3047 10.9863 13.2969 11.0566Z" fill="black"/>
<path d="M16 8.81689L15.9115 10.3742L16 11.1164L16.0885 10.3742L16 8.81689Z" fill="black"/>
<path d="M13.4818 10.369C13.4531 10.4341 13.487 10.5123 13.5521 10.5383C13.6172 10.5644 13.6953 10.5331 13.7214 10.468C13.75 10.4029 13.7161 10.3248 13.651 10.2987C13.5833 10.2727 13.5078 10.3039 13.4818 10.369Z" fill="black"/>
<path d="M16.6719 8.90576L16.1823 10.3875L16.0755 11.1271L16.3542 10.4344L16.6719 8.90576Z" fill="black"/>
<path d="M13.8359 9.75447C13.7917 9.81176 13.8021 9.89249 13.8594 9.93676C13.9167 9.98103 13.9974 9.97062 14.0417 9.91333C14.0859 9.85603 14.0755 9.7753 14.0182 9.73103C13.9609 9.68676 13.8802 9.69718 13.8359 9.75447Z" fill="black"/>
<path d="M17.2995 9.16357L16.4427 10.4709L16.1484 11.1558L16.5964 10.5594L17.2995 9.16357Z" fill="black"/>
<path d="M14.3412 9.24946C14.2839 9.29373 14.2734 9.37446 14.3177 9.43175C14.362 9.48904 14.4427 9.49946 14.5 9.45519C14.5573 9.41092 14.5677 9.33019 14.5234 9.2729C14.4792 9.21561 14.3958 9.20779 14.3412 9.24946Z" fill="black"/>
<path d="M17.8359 9.57764L16.6719 10.6167L16.2109 11.2052L16.7969 10.7417L17.8359 9.57764Z" fill="black"/>
<path d="M14.9557 8.89539C14.8906 8.92403 14.8594 8.99955 14.8854 9.06466C14.9141 9.12976 14.9896 9.16362 15.0547 9.13497C15.1198 9.10632 15.1536 9.0308 15.125 8.9657C15.099 8.89799 15.0234 8.86674 14.9557 8.89539Z" fill="black"/>
<path d="M18.25 10.1138L16.8542 10.8169L16.2578 11.2648L16.9453 10.9705L18.25 10.1138Z" fill="black"/>
<path d="M15.6432 8.71031C15.5729 8.72073 15.5234 8.78583 15.5312 8.85615C15.5417 8.92646 15.6068 8.97594 15.6771 8.96813C15.7474 8.95771 15.7995 8.89261 15.789 8.82229C15.7812 8.75198 15.7161 8.6999 15.6432 8.71031Z" fill="black"/>
<path d="M18.5078 10.7417L16.9792 11.0594L16.2865 11.3381L17.0261 11.2313L18.5078 10.7417Z" fill="black"/>
<path d="M16.3568 8.71031C16.2865 8.6999 16.2213 8.75198 16.2109 8.82229C16.2005 8.89261 16.2526 8.95771 16.3229 8.96813C16.3932 8.97854 16.4583 8.92646 16.4687 8.85615C16.4766 8.78583 16.4271 8.71813 16.3568 8.71031Z" fill="black"/>
<path d="M18.5963 11.4132L17.039 11.3247L16.2969 11.4132L17.039 11.5018L18.5963 11.4132Z" fill="black"/>
<path d="M17.0443 8.89503C16.9792 8.86638 16.901 8.90023 16.875 8.96534C16.8464 9.03044 16.8802 9.10857 16.9453 9.13461C17.0104 9.16065 17.0885 9.1294 17.1146 9.0643C17.1406 8.99659 17.1094 8.92107 17.0443 8.89503Z" fill="black"/>
<path d="M18.5078 12.0854L17.0261 11.5959L16.2865 11.4917L16.9792 11.7677L18.5078 12.0854Z" fill="black"/>
<path d="M17.6589 9.24959C17.6016 9.20532 17.5208 9.21573 17.4766 9.27303C17.4323 9.33032 17.4427 9.41105 17.5 9.45532C17.5573 9.49959 17.638 9.48917 17.6823 9.43188C17.7266 9.37459 17.7162 9.29386 17.6589 9.24959Z" fill="black"/>
<path d="M18.25 12.7131L16.9453 11.8563L16.2578 11.562L16.8542 12.0099L18.25 12.7131Z" fill="black"/>
<path d="M18.1641 9.75447C18.1198 9.69718 18.0391 9.68676 17.9818 9.73103C17.9245 9.7753 17.9141 9.85603 17.9583 9.91333C18.0026 9.97062 18.0833 9.98103 18.1406 9.93676C18.1953 9.89249 18.2083 9.80916 18.1641 9.75447Z" fill="black"/>
<path d="M17.8359 13.2495L16.7969 12.0854L16.2109 11.6245L16.6719 12.2104L17.8359 13.2495Z" fill="black"/>
<path d="M18.5208 10.3691C18.4922 10.304 18.4167 10.2702 18.3516 10.2988C18.2865 10.3275 18.2526 10.403 18.2813 10.4681C18.3099 10.5332 18.3854 10.5645 18.4505 10.5384C18.5156 10.5124 18.5469 10.4369 18.5208 10.3691Z" fill="black"/>
<path d="M17.2995 13.6636L16.5964 12.2677L16.1484 11.6714L16.4427 12.3589L17.2995 13.6636Z" fill="black"/>
<path d="M18.7031 11.0566C18.6927 10.9863 18.6276 10.9368 18.5573 10.9447C18.487 10.9551 18.4375 11.0202 18.4453 11.0905C18.4557 11.1608 18.5208 11.2103 18.5911 11.2025C18.6641 11.1947 18.7135 11.1296 18.7031 11.0566Z" fill="black"/>
<path d="M16.6719 13.9211L16.3542 12.395L16.0755 11.6997L16.1823 12.4393L16.6719 13.9211Z" fill="black"/>
</g>
<defs>
<clipPath id="clip0_1495_26339">
<rect width="32" height="22.2604" fill="white" transform="translate(0 0.283203)"/>
</clipPath>
</defs>
</svg>
