<svg width="61" height="61" viewBox="0 0 61 61" fill="none" xmlns="http://www.w3.org/2000/svg">
<rect x="0.333374" y="0.0283203" width="60" height="60" rx="30" fill="black"/>
<circle cx="30" cy="30" r="30" fill="url(#paint0_linear_1467_4765)"/>
<g clip-path="url(#clip0_1467_4765)">
<path d="M27.3333 25.3363C27.5683 24.6685 28.032 24.1053 28.6423 23.7466C29.2527 23.3879 29.9703 23.2568 30.668 23.3765C31.3657 23.4962 31.9987 23.8589 32.4545 24.4005C32.9105 24.9421 33.16 25.6276 33.1589 26.3356C33.1589 28.3341 30.1612 29.3333 30.1612 29.3333M30.1999 33.3333H30.2132M27.2 39.6L29.1467 42.1956C29.4361 42.5816 29.5809 42.7745 29.7584 42.8436C29.9137 42.904 30.0863 42.904 30.2416 42.8436C30.4191 42.7745 30.5639 42.5816 30.8533 42.1956L32.8 39.6C33.1908 39.0788 33.3863 38.8183 33.6247 38.6193C33.9425 38.3541 34.3177 38.1664 34.7207 38.0713C35.0228 38 35.3485 38 36 38C37.8637 38 38.7956 38 39.5308 37.6955C40.5108 37.2896 41.2896 36.5108 41.6955 35.5308C42 34.7956 42 33.8637 42 32V24.4C42 22.1598 42 21.0397 41.564 20.184C41.1805 19.4314 40.5687 18.8195 39.816 18.436C38.9603 18 37.8403 18 35.6 18H24.4C22.1598 18 21.0397 18 20.184 18.436C19.4314 18.8195 18.8195 19.4314 18.436 20.184C18 21.0397 18 22.1598 18 24.4V32C18 33.8637 18 34.7956 18.3045 35.5308C18.7105 36.5108 19.4892 37.2896 20.4693 37.6955C21.2043 38 22.1362 38 24 38C24.6514 38 24.9772 38 25.2793 38.0713C25.6823 38.1664 26.0575 38.3541 26.3753 38.6193C26.6137 38.8183 26.8091 39.0788 27.2 39.6Z" stroke="white" stroke-width="2" stroke-linecap="round" stroke-linejoin="round"/>
</g>
<defs>
<linearGradient id="paint0_linear_1467_4765" x1="-9.69863" y1="-12.9" x2="72.214" y2="49.1855" gradientUnits="userSpaceOnUse">
<stop stop-color="#60D7AD"/>
<stop offset="1" stop-color="#213C3A" stop-opacity="0.08"/>
</linearGradient>
<clipPath id="clip0_1467_4765">
<rect width="32" height="32" fill="white" transform="translate(14 14)"/>
</clipPath>
</defs>
</svg>
