<svg width="61" height="61" viewBox="0 0 61 61" fill="none" xmlns="http://www.w3.org/2000/svg">
<rect x="0.666504" y="0.0283203" width="60" height="60" rx="30" fill="black"/>
<circle cx="30" cy="30" r="30" fill="url(#paint0_linear_1467_4770)"/>
<path d="M43.3334 42V39.3333C43.3334 36.8483 41.6337 34.7601 39.3334 34.168M34.6667 18.3877C36.6213 19.1789 38.0001 21.0951 38.0001 23.3333C38.0001 25.5716 36.6213 27.4879 34.6667 28.2789M36.6667 42C36.6667 39.5149 36.6667 38.2725 36.2607 37.2924C35.7194 35.9856 34.6811 34.9473 33.3743 34.406C32.3942 34 31.1518 34 28.6667 34H24.6667C22.1817 34 20.9392 34 19.9591 34.406C18.6523 34.9473 17.614 35.9856 17.0727 37.2924C16.6667 38.2725 16.6667 39.5149 16.6667 42M32.0001 23.3333C32.0001 26.2789 29.6122 28.6667 26.6667 28.6667C23.7212 28.6667 21.3334 26.2789 21.3334 23.3333C21.3334 20.3878 23.7212 18 26.6667 18C29.6122 18 32.0001 20.3878 32.0001 23.3333Z" stroke="white" stroke-width="2" stroke-linecap="round" stroke-linejoin="round"/>
<defs>
<linearGradient id="paint0_linear_1467_4770" x1="-9.69863" y1="-12.9" x2="72.214" y2="49.1855" gradientUnits="userSpaceOnUse">
<stop stop-color="#60D7AD"/>
<stop offset="1" stop-color="#213C3A" stop-opacity="0.08"/>
</linearGradient>
</defs>
</svg>
