<svg width="61" height="60" viewBox="0 0 61 60" fill="none" xmlns="http://www.w3.org/2000/svg">
<circle cx="30" cy="30" r="30" transform="matrix(1 0 0 -1 0.5 60)" fill="url(#paint0_linear_1296_205)"/>
<path d="M23.2969 38.3906C21.901 38.3906 20.6979 38.0599 19.6875 37.3984C18.6771 36.7318 17.8984 35.776 17.3516 34.5313C16.8047 33.2812 16.5339 31.7786 16.5391 30.0234C16.5443 28.2682 16.8177 26.7786 17.3594 25.5547C17.9063 24.3255 18.6823 23.3906 19.6875 22.75C20.6979 22.1042 21.901 21.7812 23.2969 21.7812C24.6927 21.7812 25.8958 22.1042 26.9063 22.75C27.9219 23.3906 28.7031 24.3255 29.25 25.5547C29.7969 26.7839 30.0677 28.2734 30.0625 30.0234C30.0625 31.7839 29.7891 33.2891 29.2422 34.5391C28.6953 35.7891 27.9167 36.7448 26.9063 37.4062C25.901 38.0625 24.6979 38.3906 23.2969 38.3906ZM23.2969 35.2266C24.1302 35.2266 24.8047 34.8021 25.3203 33.9531C25.8359 33.099 26.0911 31.7891 26.0859 30.0234C26.0859 28.8672 25.9688 27.9141 25.7344 27.1641C25.5 26.4089 25.1745 25.8464 24.7578 25.4766C24.3411 25.1068 23.8542 24.9219 23.2969 24.9219C22.4688 24.9219 21.7995 25.3411 21.2891 26.1797C20.7786 27.013 20.5208 28.2943 20.5156 30.0234C20.5104 31.1953 20.6224 32.1667 20.8516 32.9375C21.0859 33.7083 21.4141 34.2839 21.8359 34.6641C22.2578 35.0391 22.7448 35.2266 23.2969 35.2266ZM32.2773 38V35.2188L38.1133 30.1094C38.5508 29.7135 38.9232 29.3516 39.2305 29.0234C39.5378 28.6901 39.7721 28.3568 39.9336 28.0234C40.0951 27.6849 40.1758 27.3177 40.1758 26.9219C40.1758 26.4792 40.0794 26.1016 39.8867 25.7891C39.694 25.4714 39.4284 25.2266 39.0898 25.0547C38.7513 24.8828 38.3633 24.7969 37.9258 24.7969C37.4831 24.7969 37.0951 24.888 36.7617 25.0703C36.4284 25.2474 36.168 25.5052 35.9805 25.8438C35.7982 26.1823 35.707 26.5937 35.707 27.0781H32.043C32.043 25.9896 32.2878 25.0495 32.7773 24.2578C33.2669 23.4661 33.9544 22.8568 34.8398 22.4297C35.7305 21.9974 36.7643 21.7812 37.9414 21.7812C39.1549 21.7812 40.2096 21.9844 41.1055 22.3906C42.0013 22.7969 42.694 23.3646 43.1836 24.0937C43.6784 24.8177 43.9258 25.6589 43.9258 26.6172C43.9258 27.2266 43.8034 27.8307 43.5586 28.4297C43.3138 29.0286 42.8737 29.6901 42.2383 30.4141C41.6081 31.138 40.7122 32.0052 39.5508 33.0156L37.6367 34.7812V34.8828H44.1211V38H32.2773Z" fill="white"/>
<defs>
<linearGradient id="paint0_linear_1296_205" x1="-0.72" y1="-3.84089e-07" x2="71.5775" y2="31.2225" gradientUnits="userSpaceOnUse">
<stop offset="0.11" stop-color="#60D7AD"/>
<stop offset="0.76" stop-color="#213C3A"/>
</linearGradient>
</defs>
</svg>
