<svg width="23" height="24" viewBox="0 0 23 24" fill="none" xmlns="http://www.w3.org/2000/svg">
<path opacity="0.934" fill-rule="evenodd" clip-rule="evenodd" d="M9.61232 0.00324485C10.6166 -0.00540851 11.6209 0.00324485 12.6249 0.0292153C12.9928 0.139237 13.2438 0.372971 13.378 0.730418C13.4368 1.26354 13.4628 1.80027 13.4559 2.34059C13.4628 2.88091 13.4368 3.41763 13.378 3.95076C13.2309 4.23643 13.0144 4.45287 12.7288 4.60002C12.2995 4.67118 11.8667 4.69715 11.4303 4.67793C11.4389 5.24954 11.4303 5.82089 11.4043 6.39198C11.2138 6.53051 11.0234 6.53051 10.8329 6.39198C10.807 5.82089 10.7983 5.24954 10.807 4.67793C10.3705 4.69715 9.93768 4.67118 9.50844 4.60002C9.16308 4.42788 8.92935 4.15951 8.80723 3.79493C8.77259 2.82537 8.77259 1.85581 8.80723 0.886241C8.92441 0.448971 9.19279 0.154637 9.61232 0.00324485ZM10.0278 0.626536C10.8441 0.604742 11.6579 0.630712 12.4691 0.704447C12.5618 0.745195 12.6397 0.805794 12.7028 0.886241C12.7879 1.79914 12.8052 2.71676 12.7547 3.63911C12.6965 3.74942 12.6186 3.84465 12.521 3.92478C11.6254 4.00986 10.7252 4.02716 9.82008 3.97673C9.70976 3.91846 9.61455 3.84055 9.53441 3.74299C9.44928 2.83009 9.43198 1.91247 9.48247 0.990122C9.6037 0.769903 9.78549 0.64871 10.0278 0.626536Z" fill="url(#paint0_linear_1746_1343)"/>
<path opacity="0.913" fill-rule="evenodd" clip-rule="evenodd" d="M19.4261 4.83333C20.1015 4.82466 20.7768 4.83333 21.4518 4.8593C21.8362 4.94937 22.0872 5.1831 22.2049 5.5605C22.2542 6.32585 22.2369 7.08767 22.153 7.84591C22.0248 8.13101 21.8084 8.3128 21.5037 8.39129C20.7939 8.42593 20.084 8.42593 19.3742 8.39129C18.9787 8.29016 18.745 8.03913 18.673 7.63814C18.647 7.41371 18.6384 7.18865 18.647 6.96291C18.2657 6.95429 17.8848 6.96291 17.5043 6.98888C17.0007 7.50985 16.4813 8.01196 15.9461 8.49517C15.5184 8.56991 15.3712 8.40541 15.5046 8.00173C16.0499 7.45635 16.5953 6.91097 17.1407 6.36559C17.6373 6.29038 18.1394 6.26441 18.647 6.28768C18.5039 5.56882 18.7636 5.084 19.4261 4.83333ZM19.5819 5.50856C20.1708 5.49989 20.7595 5.50856 21.3479 5.53453C21.3955 5.55396 21.4388 5.57993 21.4778 5.61245C21.5622 6.24805 21.5795 6.88869 21.5297 7.53426C21.5056 7.60859 21.4622 7.66915 21.3999 7.71605C20.7593 7.7507 20.1186 7.7507 19.478 7.71605C19.4521 7.69008 19.4261 7.66411 19.4001 7.63814C19.3157 7.00254 19.2984 6.3619 19.3482 5.71633C19.4208 5.63478 19.4987 5.56549 19.5819 5.50856Z" fill="url(#paint1_linear_1746_1343)"/>
<path opacity="0.923" fill-rule="evenodd" clip-rule="evenodd" d="M0.623292 4.93685C1.35067 4.92817 2.07785 4.93685 2.80481 4.96282C3.06961 5.03725 3.2514 5.20175 3.35019 5.45626C3.41974 5.72822 3.44571 6.00527 3.4281 6.28731C4.0048 6.26373 4.57615 6.2897 5.14215 6.36522C5.68753 6.9106 6.23291 7.45598 6.77829 8.00136C6.88233 8.39918 6.73518 8.56367 6.33679 8.4948C5.80159 8.01159 5.28219 7.50948 4.77857 6.98851C4.32876 6.96254 3.87859 6.95392 3.4281 6.96254C3.46872 7.32868 3.40811 7.67497 3.24631 8.00136C3.14565 8.13672 3.01577 8.23193 2.85675 8.28704C2.18446 8.36957 1.50923 8.38687 0.831056 8.33898C0.401307 8.2901 0.132944 8.05637 0.0259718 7.63778C-0.00865725 6.96254 -0.00865725 6.28731 0.0259718 5.61208C0.144033 5.31238 0.343139 5.08732 0.623292 4.93685ZM0.934938 5.56014C1.45464 5.55152 1.97405 5.56014 2.49317 5.58611C2.55892 5.60216 2.61952 5.62813 2.67496 5.66402C2.7335 5.98761 2.75947 6.31655 2.75287 6.6509C2.98101 7.56547 2.63473 7.91176 1.71405 7.68972C1.43704 7.68104 1.16001 7.67242 0.882997 7.66375C0.835409 7.64432 0.792121 7.61835 0.753145 7.58583C0.668834 6.98488 0.651517 6.37894 0.701204 5.7679C0.748293 5.65836 0.826205 5.58912 0.934938 5.56014Z" fill="url(#paint2_linear_1746_1343)"/>
<path opacity="0.911" fill-rule="evenodd" clip-rule="evenodd" d="M10.0765 7.01497C10.7692 7.0063 11.4618 7.01497 12.1541 7.04094C12.2265 7.10177 12.2698 7.17968 12.284 7.27468C12.2928 7.57053 12.3188 7.86483 12.3619 8.15767C12.7924 8.27522 13.1993 8.44833 13.5825 8.67708C13.799 8.46064 14.0153 8.24426 14.2318 8.02782C14.3774 7.98861 14.5159 8.0059 14.6473 8.07976C15.0542 8.48661 15.4611 8.89352 15.8679 9.30037C15.9483 9.44487 15.9483 9.5834 15.8679 9.7159C15.649 9.91733 15.4499 10.1338 15.2706 10.3652C15.4847 10.7504 15.6492 11.1573 15.764 11.5858C16.0801 11.628 16.4004 11.6539 16.7249 11.6637C16.8201 11.6897 16.8808 11.7503 16.9067 11.8455C16.9414 12.5034 16.9414 13.1613 16.9067 13.8192C16.8635 13.8625 16.8201 13.9058 16.7769 13.9491C16.4479 13.9664 16.1189 13.9837 15.79 14.001C15.6597 14.4347 15.4866 14.8502 15.2706 15.2476C15.4499 15.479 15.649 15.6954 15.8679 15.8969C15.9483 16.0294 15.9483 16.1679 15.8679 16.3124C15.4437 16.7366 15.0196 17.1607 14.5954 17.585C14.4742 17.6196 14.353 17.6196 14.2318 17.585C14.0153 17.3685 13.799 17.1521 13.5825 16.9357C13.1915 17.1874 12.7673 17.3605 12.31 17.4551C12.3295 17.8061 12.3036 18.1524 12.232 18.4939C12.1851 18.5563 12.1246 18.5996 12.0503 18.6238C11.7386 18.6324 11.427 18.6411 11.1153 18.6497C10.0764 18.892 9.67816 18.4938 9.92068 17.4551C9.46334 17.3605 9.03914 17.1874 8.64812 16.9357C8.44717 17.1192 8.26537 17.3183 8.10274 17.533C7.95388 17.6087 7.79806 17.626 7.63528 17.585C7.21107 17.1607 6.78693 16.7366 6.36272 16.3124C6.34184 16.2411 6.31587 16.1719 6.28481 16.1046C6.31587 16.0374 6.34184 15.9681 6.36272 15.8969C6.57132 15.697 6.77041 15.4892 6.96004 15.2736C6.75025 14.8628 6.57708 14.4387 6.44063 14.001C6.11169 13.9837 5.7827 13.9664 5.45376 13.9491C5.41049 13.9058 5.36717 13.8625 5.3239 13.8192C5.31523 13.4903 5.30661 13.1613 5.29793 12.8324C5.29113 12.4635 5.3171 12.0999 5.37585 11.7416C5.4148 11.7091 5.45812 11.6831 5.5057 11.6637C5.81734 11.6464 6.12899 11.629 6.44063 11.6117C6.57282 11.1808 6.746 10.7653 6.96004 10.3652C6.74433 10.1147 6.5279 9.86367 6.31078 9.61202C6.29743 9.48128 6.33208 9.36011 6.41466 9.24843C6.82308 8.82262 7.24728 8.41577 7.68722 8.02782C7.81556 7.99115 7.93679 8.00845 8.0508 8.07976C8.25067 8.28836 8.45844 8.48745 8.6741 8.67708C9.05254 8.46199 9.45077 8.28882 9.86874 8.15767C9.91185 7.86483 9.93782 7.57053 9.94665 7.27468C9.96566 7.17329 10.0089 7.08675 10.0765 7.01497ZM10.5959 7.63826C10.9422 7.63826 11.2884 7.63826 11.6347 7.63826C11.6261 7.95038 11.6348 8.26202 11.6607 8.5732C11.6767 8.61517 11.7027 8.64981 11.7386 8.67708C12.0901 8.77364 12.4364 8.88614 12.7774 9.0147C13.054 9.18325 13.3397 9.33045 13.6345 9.4562C13.719 9.4497 13.7969 9.42373 13.8682 9.37828C14.05 9.19649 14.2318 9.0147 14.4136 8.8329C14.6213 9.04067 14.8291 9.24843 15.0369 9.4562C14.9318 9.71912 14.7587 9.94418 14.5174 10.1314C14.4828 10.2526 14.4828 10.3738 14.5174 10.495C14.8635 10.9787 15.0886 11.5154 15.1927 12.1052C15.2187 12.2004 15.2793 12.261 15.3745 12.287C15.6683 12.3129 15.9627 12.3216 16.2575 12.3129C16.2575 12.6419 16.2575 12.9709 16.2575 13.2998C15.9799 13.2912 15.7029 13.2999 15.4264 13.3258C15.3229 13.3556 15.245 13.4162 15.1927 13.5076C15.1341 13.77 15.0648 14.0297 14.9849 14.2867C14.8048 14.6294 14.6404 14.9756 14.4915 15.3255C14.4955 15.419 14.5214 15.5055 14.5694 15.5852C14.7252 15.741 14.881 15.8969 15.0369 16.0527C14.8749 16.3281 14.6585 16.5705 14.3876 16.7799C14.1893 16.6075 13.9988 16.4257 13.8162 16.2345C13.7556 16.2258 13.6951 16.2172 13.6345 16.2085C13.2277 16.3814 12.8208 16.5632 12.4138 16.7539C12.2061 16.8058 11.9983 16.8578 11.7906 16.9097C11.7473 16.953 11.704 16.9963 11.6607 17.0396C11.6348 17.3507 11.6261 17.6624 11.6347 17.9745C11.2884 17.9745 10.9422 17.9745 10.5959 17.9745C10.6045 17.6624 10.5959 17.3507 10.5699 17.0396C10.5267 16.9963 10.4834 16.953 10.4401 16.9097C10.2323 16.8578 10.0246 16.8058 9.8168 16.7539C9.39623 16.5905 8.98932 16.4087 8.59618 16.2085C8.53557 16.2172 8.47501 16.2258 8.41439 16.2345C8.23182 16.4257 8.04135 16.6075 7.84304 16.7799C7.57217 16.5705 7.35578 16.3281 7.19378 16.0527C7.3496 15.8969 7.50542 15.741 7.66125 15.5852C7.70919 15.5055 7.73516 15.419 7.73916 15.3255C7.58827 14.9747 7.42382 14.6284 7.24572 14.2867C7.16033 14.049 7.09104 13.8066 7.03796 13.5595C6.99469 13.447 6.91678 13.3691 6.80422 13.3258C6.52774 13.2999 6.25074 13.2912 5.97317 13.2998C5.97317 12.9709 5.97317 12.6419 5.97317 12.3129C6.26798 12.3216 6.56233 12.3129 6.85616 12.287C6.95137 12.261 7.01199 12.2004 7.03796 12.1052C7.0792 11.8948 7.13114 11.6871 7.19378 11.4819C7.37703 11.081 7.55882 10.6828 7.73916 10.2873C7.66332 10.0805 7.53347 9.90736 7.3496 9.76784C7.26639 9.67076 7.21445 9.56688 7.19378 9.4562C7.40154 9.24843 7.60931 9.04067 7.81707 8.8329C7.99886 9.0147 8.18066 9.19649 8.36245 9.37828C8.43376 9.42373 8.51168 9.4497 8.59618 9.4562C8.93473 9.29996 9.27235 9.13546 9.60903 8.96276C9.89746 8.85508 10.1918 8.7685 10.492 8.70305C10.5245 8.6641 10.5505 8.62078 10.5699 8.5732C10.5959 8.26202 10.6045 7.95038 10.5959 7.63826Z" fill="url(#paint3_linear_1746_1343)"/>
<path opacity="0.908" fill-rule="evenodd" clip-rule="evenodd" d="M10.5984 9.56083C11.9903 9.43892 13.0897 9.94104 13.8967 11.0671C14.7304 12.7048 14.4794 14.1505 13.1435 15.4042C11.7931 16.3391 10.4426 16.3391 9.09215 15.4042C7.92317 14.3557 7.58555 13.0832 8.0793 11.5865C8.58905 10.4963 9.42878 9.82111 10.5984 9.56083ZM10.7023 10.2361C9.01284 10.7397 8.32893 11.8651 8.65065 13.6122C9.27093 15.0174 10.3357 15.5801 11.845 15.3003C13.0092 14.877 13.6325 14.046 13.7149 12.8071C13.4844 11.0444 12.4802 10.1874 10.7023 10.2361Z" fill="url(#paint4_linear_1746_1343)"/>
<path opacity="0.914" fill-rule="evenodd" clip-rule="evenodd" d="M6.33763 17.092C6.72095 17.0683 6.8681 17.2414 6.77913 17.6114C6.21645 18.1741 5.65372 18.7368 5.09105 19.2995C4.5373 19.3255 3.98325 19.3341 3.42894 19.3255C3.51786 19.7999 3.39668 20.2067 3.06535 20.5461C2.93772 20.6272 2.7992 20.6791 2.64982 20.7019C2.04384 20.7365 1.43787 20.7365 0.83189 20.7019C0.482374 20.653 0.231328 20.4712 0.0787465 20.1565C0.0208427 19.7708 -0.00512775 19.3812 0.000835066 18.9878C-0.00512775 18.5944 0.0208427 18.2049 0.0787465 17.8192C0.2113 17.6 0.393093 17.4355 0.624126 17.3257C1.3513 17.2911 2.07847 17.2911 2.80565 17.3257C3.07044 17.4002 3.25223 17.5647 3.35102 17.8192C3.42057 18.0911 3.44654 18.3682 3.42894 18.6502C3.87942 18.6588 4.32959 18.6502 4.7794 18.6242C5.29336 18.1016 5.81277 17.5908 6.33763 17.092ZM0.83189 17.975C1.45071 17.9583 2.06535 17.9756 2.67579 18.0269C2.73434 18.3505 2.76031 18.6795 2.7537 19.0138C2.98184 19.9284 2.63556 20.2747 1.71489 20.0526C1.43787 20.0439 1.16085 20.0353 0.883831 20.0267C0.836243 20.0072 0.792955 19.9813 0.753979 19.9487C0.669668 19.3478 0.652351 18.7418 0.702038 18.1308C0.738287 18.0689 0.781575 18.017 0.83189 17.975Z" fill="url(#paint5_linear_1746_1343)"/>
<path opacity="0.913" fill-rule="evenodd" clip-rule="evenodd" d="M15.6898 17.0909C15.8017 17.0842 15.9056 17.1102 16.0014 17.1688C16.4862 17.6535 16.971 18.1384 17.4558 18.6231C17.8536 18.6491 18.2518 18.6577 18.6504 18.6491C18.5561 18.1443 18.6946 17.7202 19.0659 17.3765C19.1935 17.2954 19.3321 17.2435 19.4815 17.2207C20.1394 17.1861 20.7973 17.1861 21.4552 17.2207C21.7646 17.305 21.9984 17.4868 22.1564 17.7661C22.2144 18.1692 22.2404 18.576 22.2343 18.9867C22.2404 19.3974 22.2144 19.8043 22.1564 20.2073C22.0353 20.5015 21.8188 20.6833 21.5071 20.7527C20.7418 20.802 19.98 20.7847 19.2217 20.7008C18.988 20.6055 18.8235 20.4411 18.7283 20.2073C18.6581 19.9179 18.6322 19.6236 18.6504 19.3243C18.1255 19.3476 17.6061 19.3217 17.0922 19.2464C16.5814 18.7357 16.0706 18.2249 15.5599 17.7142C15.3719 17.4561 15.4152 17.2483 15.6898 17.0909ZM19.5853 17.87C20.1742 17.8613 20.7629 17.87 21.3513 17.8959C21.3989 17.9154 21.4422 17.9413 21.4812 17.9739C21.5657 18.6268 21.583 19.2847 21.5331 19.9476C21.4899 19.9909 21.4465 20.0342 21.4033 20.0775C20.7627 20.1121 20.122 20.1121 19.4815 20.0775C19.4555 20.0515 19.4295 20.0255 19.4035 19.9996C19.3191 19.364 19.3018 18.7233 19.3516 18.0777C19.4242 17.9962 19.5021 17.9269 19.5853 17.87Z" fill="url(#paint6_linear_1746_1343)"/>
<path opacity="0.938" fill-rule="evenodd" clip-rule="evenodd" d="M10.958 18.9625C11.1382 18.93 11.2854 18.982 11.3995 19.1183C11.4255 19.6028 11.4341 20.0876 11.4255 20.5727C11.8916 20.5137 12.2984 20.6348 12.6461 20.9362C12.7123 21.0514 12.7642 21.1726 12.8019 21.2998C12.8365 21.9751 12.8365 22.6503 12.8019 23.3255C12.7273 23.6564 12.5282 23.8728 12.2046 23.9748C11.4774 24.0094 10.7502 24.0094 10.023 23.9748C9.69941 23.8728 9.50032 23.6564 9.42573 23.3255C9.37654 22.5948 9.39384 21.8676 9.47767 21.144C9.57288 20.9103 9.73737 20.7458 9.97111 20.6506C10.244 20.5846 10.521 20.5586 10.8022 20.5727C10.7935 20.0876 10.8022 19.6028 10.8281 19.1183C10.8824 19.073 10.9257 19.021 10.958 18.9625ZM10.2828 21.2479C10.8371 21.2392 11.3911 21.2479 11.9449 21.2739C12.0192 21.298 12.0798 21.3413 12.1267 21.4037C12.1613 21.9924 12.1613 22.5811 12.1267 23.1697C12.1072 23.2173 12.0813 23.2606 12.0487 23.2996C11.4812 23.3825 10.9098 23.3999 10.3347 23.3515C10.2689 23.3354 10.2083 23.3095 10.1529 23.2736C10.0685 22.6553 10.0512 22.032 10.101 21.4037C10.1604 21.3447 10.221 21.2928 10.2828 21.2479Z" fill="url(#paint7_linear_1746_1343)"/>
<defs>
<linearGradient id="paint0_linear_1746_1343" x1="8.72524" y1="-2.53585e-07" x2="14.8211" y2="1.89494" gradientUnits="userSpaceOnUse">
<stop offset="0.11" stop-color="#60D7AD"/>
<stop offset="0.76" stop-color="#213C3A"/>
</linearGradient>
<linearGradient id="paint1_linear_1746_1343" x1="15.3759" y1="4.83008" x2="21.3138" y2="9.54805" gradientUnits="userSpaceOnUse">
<stop offset="0.11" stop-color="#60D7AD"/>
<stop offset="0.76" stop-color="#213C3A"/>
</linearGradient>
<linearGradient id="paint2_linear_1746_1343" x1="-0.0815853" y1="4.93359" x2="5.727" y2="9.71054" gradientUnits="userSpaceOnUse">
<stop offset="0.11" stop-color="#60D7AD"/>
<stop offset="0.76" stop-color="#213C3A"/>
</linearGradient>
<linearGradient id="paint3_linear_1746_1343" x1="5.15749" y1="7.01172" x2="19.2049" y2="13.0416" gradientUnits="userSpaceOnUse">
<stop offset="0.11" stop-color="#60D7AD"/>
<stop offset="0.76" stop-color="#213C3A"/>
</linearGradient>
<linearGradient id="paint4_linear_1746_1343" x1="7.7813" y1="9.54297" x2="15.6519" y2="12.9189" gradientUnits="userSpaceOnUse">
<stop offset="0.11" stop-color="#60D7AD"/>
<stop offset="0.76" stop-color="#213C3A"/>
</linearGradient>
<linearGradient id="paint5_linear_1746_1343" x1="-0.0815094" y1="17.0898" x2="5.80566" y2="21.845" gradientUnits="userSpaceOnUse">
<stop offset="0.11" stop-color="#60D7AD"/>
<stop offset="0.76" stop-color="#213C3A"/>
</linearGradient>
<linearGradient id="paint6_linear_1746_1343" x1="15.364" y1="17.0898" x2="21.3143" y2="21.8181" gradientUnits="userSpaceOnUse">
<stop offset="0.11" stop-color="#60D7AD"/>
<stop offset="0.76" stop-color="#213C3A"/>
</linearGradient>
<linearGradient id="paint7_linear_1746_1343" x1="9.35736" y1="18.9531" x2="13.8718" y2="20.2777" gradientUnits="userSpaceOnUse">
<stop offset="0.11" stop-color="#60D7AD"/>
<stop offset="0.76" stop-color="#213C3A"/>
</linearGradient>
</defs>
</svg>
