<svg width="19" height="22" viewBox="0 0 19 22" fill="none" xmlns="http://www.w3.org/2000/svg">
<path opacity="0.924" fill-rule="evenodd" clip-rule="evenodd" d="M8.83936 0.0029529C9.39152 -0.00492426 9.94349 0.00295763 10.4952 0.026608C10.9495 0.149738 11.2255 0.441486 11.3231 0.901848C11.3389 1.16994 11.3547 1.43803 11.3705 1.70612C11.4099 1.74555 11.4493 1.78497 11.4887 1.8244C12.2 2.02246 12.8781 2.29844 13.5231 2.65233C13.8025 2.39645 14.1022 2.16778 14.422 1.96633C14.7672 1.85292 15.0984 1.88445 15.4155 2.06095C15.8019 2.44732 16.1882 2.83368 16.5746 3.22005C16.8055 3.65573 16.7898 4.08152 16.5273 4.49743C16.3696 4.65511 16.2119 4.81285 16.0542 4.97053C16.0226 5.0809 16.0226 5.19133 16.0542 5.3017C16.3997 5.89824 16.6677 6.52902 16.8584 7.19411C16.9139 7.26002 16.9848 7.29947 17.0713 7.31239C17.4063 7.31778 17.7374 7.34934 18.0649 7.40701C18.3347 7.56635 18.5161 7.795 18.6089 8.09301C18.6405 8.67648 18.6405 9.26001 18.6089 9.84349C18.5115 10.2406 18.2671 10.5008 17.8756 10.6241C17.5918 10.6399 17.3079 10.6557 17.024 10.6714C16.9395 10.7086 16.8686 10.7637 16.8111 10.837C16.6428 11.5002 16.3826 12.1231 16.0305 12.7058C16.978 12.7842 17.3643 13.281 17.1896 14.196C17.0596 14.4208 16.894 14.618 16.6929 14.7874C15.4118 15.9425 14.1029 17.0622 12.7661 18.1464C12.0179 18.7257 11.1979 19.1831 10.306 19.5184C9.55564 19.7236 8.79077 19.8261 8.01143 19.826C7.38741 19.7894 6.76452 19.7658 6.14268 19.755C6.0244 19.8733 5.90613 19.9915 5.78785 20.1098C5.79566 20.3957 5.73259 20.6638 5.59861 20.9141C5.33992 21.2201 5.06396 21.5119 4.77068 21.7893C4.372 22.0535 3.96201 22.0692 3.54061 21.8366C2.44325 20.7235 1.33148 19.6275 0.205241 18.5486C-0.00757988 18.242 -0.0548901 17.9108 0.0633098 17.5551C0.337359 17.2021 0.629107 16.863 0.93855 16.5379C1.20405 16.339 1.50368 16.2444 1.83744 16.254C2.22383 15.8676 2.61016 15.4813 2.99655 15.0949C3.0281 15.0634 3.0281 15.0319 2.99655 15.0003C2.5417 14.6001 2.44708 14.127 2.71268 13.581C2.96617 13.3756 3.16327 13.1311 3.30406 12.8477C3.17396 12.5165 3.02417 12.1932 2.85461 11.8778C2.71898 11.5181 2.5928 11.1554 2.47613 10.7897C2.43341 10.7329 2.37825 10.6934 2.31055 10.6714C1.97564 10.666 1.64447 10.6345 1.31703 10.5768C1.03827 10.44 0.841152 10.2271 0.725653 9.93811C0.694112 9.30732 0.694112 8.67648 0.725653 8.0457C0.804889 7.7457 0.986248 7.53281 1.26972 7.40701C1.58135 7.34967 1.89677 7.31811 2.21593 7.31239C2.31145 7.2911 2.39817 7.25169 2.47613 7.19411C2.68775 6.47996 2.96376 5.79397 3.30406 5.13612C3.29815 5.05914 3.27449 4.98818 3.2331 4.92322C3.02645 4.73242 2.8372 4.52742 2.66537 4.30819C2.49113 3.88713 2.53844 3.49288 2.8073 3.12543C3.14638 2.78637 3.4854 2.44732 3.82447 2.10826C4.24043 1.84683 4.66622 1.83106 5.10185 2.06095C5.30495 2.30393 5.54151 2.50105 5.81151 2.65233C6.44674 2.31106 7.10908 2.03508 7.79854 1.8244C7.88526 1.80074 7.94047 1.74555 7.96412 1.65881C7.97988 1.37495 7.99568 1.09109 8.01143 0.807227C8.12772 0.367564 8.40368 0.0994706 8.83936 0.0029529ZM8.93398 0.712607C9.45927 0.691104 9.97968 0.714759 10.4952 0.783572C10.5611 0.838977 10.6006 0.909943 10.6135 0.996468C10.6293 1.28033 10.6451 1.56419 10.6608 1.84805C10.7595 2.13282 10.9409 2.34571 11.2049 2.48674C11.9003 2.67689 12.5627 2.94498 13.1919 3.29102C13.5246 3.37755 13.84 3.33024 14.1381 3.14909C14.2958 2.99139 14.4535 2.83368 14.6112 2.67598C14.7531 2.58136 14.8951 2.58136 15.037 2.67598C15.3775 3.00071 15.7009 3.33977 16.0069 3.69315C16.0384 3.78777 16.0384 3.88239 16.0069 3.97701C15.7665 4.18561 15.5615 4.42216 15.3918 4.68667C15.3206 4.93486 15.3048 5.18716 15.3445 5.44363C15.7085 6.12457 16.0082 6.83422 16.2434 7.57259C16.3514 7.71774 16.4855 7.83602 16.6456 7.92742C16.9572 7.98476 17.2726 8.01632 17.5918 8.02204C17.7334 8.04125 17.8359 8.11222 17.8993 8.23494C17.9308 8.7396 17.9308 9.24421 17.8993 9.74887C17.8441 9.80408 17.7889 9.85924 17.7337 9.91445C17.3995 9.92202 17.0684 9.95358 16.7402 10.0091C16.5616 10.0707 16.4118 10.1732 16.2907 10.3166C15.9835 11.1594 15.6445 11.9873 15.2736 12.8004C13.9173 13.5258 12.5611 14.2512 11.2049 14.9766C10.9224 15.0302 10.6385 15.0459 10.3533 15.024C10.4371 14.8049 10.4686 14.5762 10.4479 14.338C12.1136 14.0832 13.3988 13.2474 14.3037 11.8305C15.2143 10.1979 15.3247 8.51057 14.6349 6.76832C13.4117 4.3976 11.4641 3.34888 8.79205 3.62219C6.24591 4.16555 4.73988 5.71888 4.27392 8.28225C4.08426 10.1427 4.65988 11.7119 6.00075 12.9896C5.45635 13.0396 4.96749 13.2288 4.53413 13.5573C4.21871 13.8728 3.90334 14.1881 3.58792 14.5035C3.31229 14.4194 3.22553 14.238 3.32772 13.9595C3.56805 13.7509 3.7731 13.5143 3.94275 13.2498C4.00865 13.0324 4.02441 12.8117 3.99006 12.5875C3.64318 11.9568 3.37507 11.2945 3.18579 10.6005C3.06751 10.3245 2.87037 10.1273 2.59441 10.0091C2.26622 9.95358 1.93505 9.92202 1.60089 9.91445C1.51416 9.8908 1.45896 9.83559 1.43531 9.74887C1.40377 9.22845 1.40377 8.70804 1.43531 8.18763C1.509 8.08033 1.61151 8.02516 1.74282 8.02204C2.01093 8.00629 2.27899 7.99049 2.5471 7.97473C2.75015 7.90869 2.91574 7.79041 3.04386 7.6199C3.21323 7.25401 3.35516 6.87552 3.46965 6.48446C3.64313 6.12173 3.81657 5.75905 3.99006 5.39632C4.04726 5.0942 3.99995 4.81034 3.84813 4.54474C3.59649 4.34083 3.39939 4.09638 3.25675 3.81143C3.58556 3.37219 3.96404 2.97794 4.3922 2.62867C4.47106 2.59713 4.54988 2.59713 4.62875 2.62867C4.8653 2.83368 5.10185 3.0387 5.3384 3.24371C5.60249 3.36134 5.8706 3.37711 6.14268 3.29102C6.82503 2.92615 7.53469 2.62652 8.27164 2.39212C8.42596 2.26949 8.54424 2.11968 8.62646 1.94267C8.68196 1.61448 8.71352 1.28331 8.72109 0.949158C8.76958 0.845691 8.84054 0.766843 8.93398 0.712607ZM9.21784 4.26088C11.2519 4.20131 12.7895 5.0371 13.8306 6.76832C14.7863 8.86293 14.4787 10.7475 12.908 12.4219C12.1552 13.1058 11.2721 13.5237 10.2587 13.6756C10.1272 13.5528 9.98531 13.4345 9.83288 13.3208C9.72799 13.2605 9.61757 13.2132 9.50171 13.1789C8.73201 13.0886 7.9593 13.0256 7.1835 12.9896C5.52973 11.8816 4.79642 10.3282 4.98358 8.32956C5.47939 6.01216 6.89079 4.65592 9.21784 4.26088ZM11.2049 7.52528C11.5203 7.52528 12.0722 7.52528 12.3876 7.52528C12.3876 8.72379 12.3876 10.8686 12.3876 12.0671C12.0722 12.0671 11.5203 12.0671 11.2049 12.0671C11.2049 10.8686 11.2049 8.72379 11.2049 7.52528ZM9.31246 8.70804C9.61208 8.70804 10.1483 8.70804 10.4479 8.70804C10.4479 9.51231 10.4479 11.2628 10.4479 12.0671C10.1483 12.0671 9.61208 12.0671 9.31246 12.0671C9.31246 11.2628 9.31246 9.51231 9.31246 8.70804ZM7.51467 9.79618C7.81429 9.79618 8.30319 9.79618 8.60281 9.79618C8.60281 10.2377 8.60281 11.6255 8.60281 12.0671C8.30319 12.0671 7.81429 12.0671 7.51467 12.0671C7.51467 11.6255 7.51467 10.2377 7.51467 9.79618ZM15.794 13.3918C16.0684 13.3849 16.3128 13.4638 16.5273 13.6283C16.5588 13.7229 16.5588 13.8175 16.5273 13.9122C15.1225 15.2701 13.648 16.5396 12.1038 17.7206C10.8768 18.6764 9.48112 19.1416 7.91681 19.1163C7.24628 19.075 6.57609 19.0514 5.90613 19.0453C5.71059 19.1935 5.52925 19.359 5.36206 19.5421C4.37777 18.6051 3.40791 17.6511 2.45248 16.6798C3.24237 15.9057 4.01509 15.1173 4.77068 14.3143C5.31115 13.822 5.94984 13.6091 6.68674 13.6756C7.5319 13.7086 8.37563 13.7639 9.21784 13.8412C9.72851 14.0508 9.86259 14.4056 9.61998 14.9057C9.57726 14.9625 9.5221 15.002 9.45439 15.024C8.55332 15.091 7.65443 15.1699 6.75771 15.2605C6.56771 15.7108 6.7254 15.9237 7.23081 15.8992C8.60309 15.8329 9.97509 15.7619 11.3468 15.6863C11.4766 15.6483 11.6028 15.601 11.7253 15.5444C12.8923 14.8978 14.0592 14.2512 15.2262 13.6047C15.4123 13.5087 15.6015 13.4377 15.794 13.3918ZM1.50627 16.9873C1.58666 16.9798 1.66551 16.9876 1.74282 17.011C2.85329 18.0741 3.94933 19.1544 5.03089 20.2517C5.06093 20.3528 5.04513 20.4474 4.98358 20.5356C4.73912 20.7801 4.49472 21.0245 4.25027 21.2689C4.1714 21.3005 4.09258 21.3005 4.01372 21.2689C2.90325 20.2058 1.80721 19.1255 0.725653 18.0282C0.695625 17.9272 0.711394 17.8325 0.772964 17.7443C1.02701 17.4982 1.27144 17.2459 1.50627 16.9873Z" fill="url(#paint0_linear_1889_1114)"/>
<path opacity="0.914" fill-rule="evenodd" clip-rule="evenodd" d="M9.60485 5.49023C9.99345 5.54871 10.3719 5.65123 10.7403 5.79775C10.8665 5.89237 10.9295 6.01855 10.9295 6.17623C10.9087 6.51961 10.8693 6.85864 10.8113 7.1934C10.6517 7.3536 10.4703 7.37725 10.2672 7.26437C10.1931 7.12575 10.1536 6.97592 10.1489 6.81492C9.33674 7.37474 8.52461 7.93461 7.71244 8.49444C7.38973 8.64853 7.20049 8.5539 7.14471 8.21057C7.14183 8.10361 7.17338 8.00899 7.23933 7.92671C8.08335 7.37068 8.91913 6.80295 9.74678 6.22354C9.41125 6.14378 9.30873 5.94668 9.43926 5.63217C9.49343 5.57842 9.54864 5.53111 9.60485 5.49023Z" fill="url(#paint1_linear_1889_1114)"/>
<defs>
<linearGradient id="paint0_linear_1889_1114" x1="-0.223203" y1="-8.58831e-07" x2="23.2725" y2="8.59381" gradientUnits="userSpaceOnUse">
<stop offset="0.11" stop-color="#60D7AD"/>
<stop offset="0.76" stop-color="#213C3A"/>
</linearGradient>
<linearGradient id="paint1_linear_1889_1114" x1="7.09919" y1="5.49023" x2="11.3188" y2="7.73273" gradientUnits="userSpaceOnUse">
<stop offset="0.11" stop-color="#60D7AD"/>
<stop offset="0.76" stop-color="#213C3A"/>
</linearGradient>
</defs>
</svg>
