<svg width="23" height="20" viewBox="0 0 23 20" fill="none" xmlns="http://www.w3.org/2000/svg">
<path opacity="0.936" fill-rule="evenodd" clip-rule="evenodd" d="M13.0362 0.00374688C15.1579 -0.0655842 16.7204 0.827246 17.7235 2.68223C17.9785 3.25584 18.1248 3.85619 18.1623 4.48327C20.5389 4.55887 22.086 5.72881 22.8034 7.99301C23.2403 10.2513 22.4937 11.9985 20.5637 13.2345C19.5155 13.7549 18.4072 13.9473 17.2386 13.8118C17.2464 15.5667 17.2386 17.3216 17.2156 19.0764C17.1051 19.5409 16.8204 19.841 16.3612 19.9769C13.0978 20.0077 9.83435 20.0077 6.5709 19.9769C6.11173 19.841 5.82698 19.5409 5.71656 19.0764C5.69347 17.3216 5.68576 15.5667 5.69347 13.8118C4.26976 14.0191 2.96131 13.7343 1.76811 12.9574C0.334729 11.7903 -0.227135 10.2894 0.0825136 8.45481C0.693724 6.30496 2.11763 5.12736 4.35423 4.92199C5.05959 3.08317 6.39883 2.26731 8.37195 2.47441C8.65033 2.53129 8.9197 2.61595 9.18011 2.72841C9.99991 1.1621 11.2853 0.25388 13.0362 0.00374688ZM13.0824 0.788819C14.9456 0.723016 16.2771 1.52348 17.077 3.19022C17.2945 3.8203 17.4176 4.46683 17.4465 5.1298C17.4849 5.16827 17.5234 5.20679 17.5619 5.24526C19.2502 5.10076 20.5818 5.70882 21.5565 7.06939C22.2551 8.31442 22.3167 9.59206 21.7413 10.9024C21.0955 12.0859 20.1026 12.7863 18.7626 13.0036C18.2548 13.0267 17.7469 13.0344 17.2386 13.0267C17.2233 12.5178 17.2387 12.0098 17.2848 11.5027C17.6963 11.2989 17.9657 10.9757 18.093 10.5329C18.1238 9.67089 18.1238 8.80888 18.093 7.94683C17.936 7.32796 17.5434 6.96623 16.9154 6.86158C13.2825 6.83078 9.64963 6.83078 6.01673 6.86158C5.38868 6.96623 4.99614 7.32796 4.83913 7.94683C4.80832 8.80888 4.80832 9.67089 4.83913 10.5329C4.96497 10.9745 5.23439 11.2977 5.64729 11.5027C5.69342 12.0098 5.7088 12.5178 5.69347 13.0267C5.10831 13.0344 4.52334 13.0267 3.9386 13.0036C2.21081 12.6766 1.17174 11.653 0.821405 9.9326C0.660396 8.07581 1.42238 6.75966 3.10735 5.98415C3.67682 5.79721 4.26177 5.70485 4.86222 5.70706C5.04135 5.5228 5.14142 5.29961 5.16239 5.03744C5.80236 3.58982 6.90299 3.01256 8.46431 3.30567C8.74416 3.39175 9.00582 3.51487 9.24938 3.67511C9.43434 3.72582 9.59597 3.68735 9.73428 3.55966C10.3188 1.98137 11.4348 1.05776 13.0824 0.788819ZM6.10909 7.62356C9.68043 7.61585 13.2517 7.62356 16.823 7.64665C17.0573 7.71158 17.2189 7.85779 17.3079 8.08537C17.3387 8.85506 17.3387 9.62471 17.3079 10.3944C17.2035 10.6581 17.0111 10.8043 16.7307 10.8331C13.1423 10.8786 9.55561 10.8632 5.97055 10.7869C5.80624 10.6996 5.69079 10.5687 5.6242 10.3944C5.59339 9.62471 5.59339 8.85506 5.6242 8.08537C5.72145 7.8571 5.88309 7.70318 6.10909 7.62356ZM6.47854 11.6413C9.80355 11.6413 13.1286 11.6413 16.4536 11.6413C16.4762 14.1081 16.4532 16.5711 16.3843 19.0302C16.3304 19.0841 16.2766 19.1379 16.2227 19.1918C13.0516 19.2226 9.88053 19.2226 6.70944 19.1918C6.65555 19.1379 6.6017 19.0841 6.54781 19.0302C6.47896 16.5711 6.45587 14.1081 6.47854 11.6413Z" fill="url(#paint0_linear_1746_1340)"/>
<path opacity="0.922" fill-rule="evenodd" clip-rule="evenodd" d="M12.6205 2.31237C13.894 2.1643 14.9331 2.57993 15.7377 3.55925C16.029 3.98652 16.2214 4.45599 16.3149 4.96776C16.2219 5.32215 16.0064 5.42989 15.6684 5.29103C15.5121 4.85351 15.3196 4.43017 15.0911 4.02106C14.3463 3.18279 13.4304 2.91342 12.3434 3.2129C12.0725 3.33029 11.8262 3.48421 11.6045 3.6747C11.1789 3.71059 11.0173 3.51815 11.1196 3.09745C11.5363 2.66977 12.0367 2.40808 12.6205 2.31237Z" fill="url(#paint1_linear_1746_1340)"/>
<path opacity="0.957" fill-rule="evenodd" clip-rule="evenodd" d="M9.08611 12.6103C10.6563 12.6026 12.2265 12.6103 13.7965 12.6334C14.0581 12.7411 14.2197 12.9335 14.2814 13.2107C14.3236 13.6298 14.3082 14.0454 14.2353 14.4575C14.1506 14.6654 14.0044 14.8116 13.7965 14.8963C12.2264 14.9271 10.6563 14.9271 9.08611 14.8963C8.8783 14.8116 8.73205 14.6654 8.6474 14.4575C8.55503 13.9957 8.55503 13.5339 8.6474 13.0721C8.74077 12.8634 8.88703 12.7095 9.08611 12.6103ZM9.40938 13.3492C9.36541 13.6067 9.34999 13.8683 9.3632 14.1343C10.7486 14.1343 12.134 14.1343 13.5195 14.1343C13.5336 13.876 13.5182 13.622 13.4733 13.3723C12.1188 13.3492 10.7641 13.3415 9.40938 13.3492Z" fill="url(#paint2_linear_1746_1340)"/>
<path opacity="0.939" fill-rule="evenodd" clip-rule="evenodd" d="M9.35609 15.7968C10.8512 15.7754 12.3444 15.7985 13.8356 15.866C14.0972 15.9737 14.2588 16.1662 14.3205 16.4433C14.3627 16.8624 14.3473 17.2781 14.2743 17.6902C14.1853 17.9178 14.0237 18.064 13.7894 18.1289C12.2011 18.1741 10.6156 18.1587 9.03283 18.0827C8.81813 17.9693 8.68726 17.7923 8.64029 17.5516C8.60949 17.1822 8.60949 16.8127 8.64029 16.4433C8.74383 16.07 8.98244 15.8545 9.35609 15.7968ZM9.40227 16.5818C9.40227 16.8436 9.40227 17.1052 9.40227 17.3669C10.7877 17.3669 12.1731 17.3669 13.5585 17.3669C13.5585 17.1052 13.5585 16.8436 13.5585 16.5818C12.1731 16.5818 10.7877 16.5818 9.40227 16.5818Z" fill="url(#paint3_linear_1746_1340)"/>
<defs>
<linearGradient id="paint0_linear_1746_1340" x1="-0.274614" y1="-7.80756e-07" x2="26.0499" y2="13.0309" gradientUnits="userSpaceOnUse">
<stop offset="0.11" stop-color="#60D7AD"/>
<stop offset="0.76" stop-color="#213C3A"/>
</linearGradient>
<linearGradient id="paint1_linear_1746_1340" x1="11.0273" y1="2.2832" x2="15.8734" y2="5.8493" gradientUnits="userSpaceOnUse">
<stop offset="0.11" stop-color="#60D7AD"/>
<stop offset="0.76" stop-color="#213C3A"/>
</linearGradient>
<linearGradient id="paint2_linear_1746_1340" x1="8.50953" y1="12.6074" x2="12.3277" y2="16.6917" gradientUnits="userSpaceOnUse">
<stop offset="0.11" stop-color="#60D7AD"/>
<stop offset="0.76" stop-color="#213C3A"/>
</linearGradient>
<linearGradient id="paint3_linear_1746_1340" x1="8.54859" y1="15.7891" x2="12.4596" y2="19.8786" gradientUnits="userSpaceOnUse">
<stop offset="0.11" stop-color="#60D7AD"/>
<stop offset="0.76" stop-color="#213C3A"/>
</linearGradient>
</defs>
</svg>
