<svg width="23" height="24" viewBox="0 0 23 24" fill="none" xmlns="http://www.w3.org/2000/svg">
<path opacity="0.913" fill-rule="evenodd" clip-rule="evenodd" d="M11.7467 0.00453441C14.5701 -0.084516 16.589 1.13806 17.8034 3.67228C18.1805 4.58381 18.3494 5.53293 18.3101 6.5196C20.3217 6.54446 21.6006 7.52572 22.1467 9.46345C22.4578 11.0398 22.0154 12.367 20.8196 13.4449C19.9118 14.0942 18.8983 14.3596 17.7792 14.2412C17.7712 14.8527 17.7792 15.464 17.8034 16.075C18.8203 16.4198 19.1902 17.1115 18.9133 18.1502C18.4528 18.9742 17.7691 19.2397 16.8623 18.9465C16.0413 18.5027 15.7759 17.8351 16.066 16.9437C16.3045 16.5045 16.6665 16.2149 17.1518 16.075C17.2001 15.4646 17.2161 14.8533 17.2001 14.2412C15.9936 14.2412 14.7871 14.2412 13.5806 14.2412C13.5726 15.1422 13.5806 16.043 13.6048 16.9437C14.0952 17.205 14.5778 17.4784 15.0525 17.7641C15.0767 18.1338 15.0847 18.5038 15.0767 18.8741C15.8539 19.0404 16.2722 19.523 16.3314 20.3219C16.1725 21.4372 15.529 21.9278 14.401 21.7938C13.4329 21.4261 13.0871 20.7424 13.3635 19.7428C13.5825 19.2418 13.9605 18.9523 14.4976 18.8741C14.5134 18.6147 14.4973 18.3573 14.4493 18.102C13.9828 17.8526 13.5163 17.6033 13.0498 17.3539C13.0196 17.3177 12.9954 17.2775 12.9774 17.2333C12.9532 16.236 12.9452 15.2387 12.9532 14.2412C12.4385 14.2412 11.9237 14.2412 11.4089 14.2412C11.4089 16.5094 11.4089 18.7776 11.4089 21.0458C12.4032 21.3119 12.7973 21.9553 12.5913 22.9762C12.145 23.9029 11.4292 24.2005 10.4437 23.869C9.535 23.283 9.34998 22.5188 9.88875 21.5767C10.129 21.2676 10.4427 21.0906 10.8298 21.0458C10.8298 18.7776 10.8298 16.5094 10.8298 14.2412C10.315 14.2412 9.80029 14.2412 9.2855 14.2412C9.29356 15.2387 9.2855 16.236 9.26137 17.2333C9.18309 17.3494 9.07852 17.4378 8.94768 17.4987C8.55403 17.6875 8.16795 17.8885 7.78945 18.102C7.74143 18.3573 7.72536 18.6147 7.74119 18.8741C8.73544 19.1402 9.12957 19.7837 8.92355 20.8045C8.47729 21.7312 7.76141 22.0288 6.77599 21.6973C6.00996 21.2501 5.76061 20.5986 6.02797 19.7428C6.24702 19.2418 6.62504 18.9523 7.16207 18.8741C7.15406 18.5038 7.16207 18.1338 7.1862 17.7641C7.66098 17.4784 8.14358 17.205 8.63399 16.9437C8.65812 16.043 8.66618 15.1422 8.65812 14.2412C7.45163 14.2412 6.24513 14.2412 5.03864 14.2412C5.02262 14.8533 5.03869 15.4646 5.0869 16.075C6.045 16.3985 6.42302 17.0581 6.221 18.0537C5.82547 18.8909 5.17396 19.2045 4.26648 18.9948C3.42328 18.6517 3.09351 18.0324 3.27716 17.1368C3.4798 16.5801 3.86588 16.2262 4.43539 16.075C4.45952 15.4479 4.46758 14.8205 4.45952 14.1929C2.62295 13.93 1.29581 12.9648 0.478092 11.2973C-0.385083 9.13519 -0.079439 7.15654 1.39503 5.36137C2.90625 3.85752 4.67578 3.43927 6.7036 4.10662C7.61344 1.78274 9.29448 0.41538 11.7467 0.00453441ZM12.3259 0.583652C14.6524 0.746442 16.3013 1.88859 17.2725 4.0101C17.6344 4.99262 17.7872 6.00607 17.731 7.05046C17.7563 7.08386 17.7885 7.10799 17.8275 7.12285C19.6788 6.96635 20.9094 7.76263 21.5194 9.51171C21.8403 11.0269 21.3818 12.2414 20.1439 13.1553C19.7828 13.3669 19.3967 13.5117 18.9857 13.5897C14.1437 13.6219 9.30157 13.6219 4.45952 13.5897C2.19443 13.11 0.915542 11.7185 0.622871 9.41519C0.538378 7.29089 1.43118 5.73857 3.30129 4.75812C4.46729 4.26156 5.62553 4.27765 6.77599 4.80638C6.89177 4.84069 7.00436 4.83264 7.11381 4.78225C7.49111 3.56096 8.16674 2.53946 9.14072 1.71776C10.092 1.01735 11.1537 0.639315 12.3259 0.583652ZM4.65256 16.6542C5.57095 16.7699 5.85245 17.2525 5.49711 18.102C5.02788 18.5318 4.54528 18.5478 4.04932 18.1502C3.66222 17.4124 3.86332 16.9137 4.65256 16.6542ZM17.3449 16.6542C18.2223 16.7214 18.536 17.1718 18.2859 18.0054C17.9064 18.4733 17.4479 18.5617 16.9105 18.2709C16.4455 17.7725 16.4615 17.2899 16.9588 16.8231C17.0871 16.7517 17.2158 16.6954 17.3449 16.6542ZM7.21033 19.4532C8.10256 19.422 8.46451 19.8403 8.29618 20.708C7.94417 21.2323 7.4857 21.353 6.92077 21.0699C6.44758 20.6333 6.4154 20.1668 6.82425 19.6704C6.94968 19.5838 7.07839 19.5114 7.21033 19.4532ZM14.5458 19.4532C15.5066 19.4401 15.8524 19.8905 15.5834 20.8045C14.9983 21.404 14.4513 21.3718 13.9426 20.708C13.7701 20.104 13.9712 19.6857 14.5458 19.4532ZM10.8781 21.6249C11.7703 21.5937 12.1322 22.012 11.9639 22.8797C11.6119 23.404 11.1534 23.5247 10.5885 23.2416C10.1153 22.805 10.0831 22.3385 10.492 21.8421C10.6174 21.7555 10.7461 21.6831 10.8781 21.6249Z" fill="url(#paint0_linear_1746_1339)"/>
<path opacity="0.9" fill-rule="evenodd" clip-rule="evenodd" d="M4.50741 5.02253C4.73321 5.01452 4.95839 5.02258 5.18304 5.04666C5.37092 5.22744 5.37092 5.40436 5.18304 5.57751C3.02573 5.80448 1.89163 7.00296 1.78073 9.17287C1.65721 9.31036 1.50439 9.35061 1.32226 9.29352C1.21409 9.19767 1.16583 9.07702 1.17748 8.93157C1.33987 6.80756 2.44984 5.50455 4.50741 5.02253Z" fill="url(#paint1_linear_1746_1339)"/>
<path opacity="0.894" fill-rule="evenodd" clip-rule="evenodd" d="M20.5796 10.0921C20.8755 10.0186 21.0364 10.1312 21.0622 10.4299C20.9393 11.9359 20.1351 12.8046 18.6492 13.0359C18.4113 13.0703 18.2665 12.9738 18.2148 12.7464C18.2316 12.6403 18.2799 12.5519 18.3596 12.4809C19.6986 12.3396 20.3984 11.5916 20.4589 10.2369C20.5094 10.1947 20.5496 10.1465 20.5796 10.0921Z" fill="url(#paint2_linear_1746_1339)"/>
<path opacity="0.929" fill-rule="evenodd" clip-rule="evenodd" d="M13.7495 5.24326C14.3128 5.2352 14.8758 5.24326 15.4386 5.26739C15.4966 5.31097 15.5368 5.36724 15.5593 5.4363C15.5834 7.68834 15.5915 9.94048 15.5834 12.1927C15.7771 12.1847 15.9702 12.1927 16.1625 12.2168C16.3549 12.396 16.3549 12.573 16.1625 12.7477C12.3661 12.7798 8.56967 12.7798 4.77322 12.7477C4.5808 12.573 4.5808 12.396 4.77322 12.2168C4.96558 12.1927 5.15862 12.1847 5.35233 12.1927C5.33148 11.8173 5.35561 11.4472 5.42472 11.0827C5.46492 11.0425 5.50517 11.0022 5.54537 10.962C6.07623 10.9299 6.60709 10.9299 7.13794 10.962C7.18215 10.9801 7.2224 11.0042 7.25859 11.0344C7.32785 11.4152 7.35198 11.8012 7.33098 12.1927C7.58835 12.1927 7.84577 12.1927 8.10314 12.1927C8.09508 11.1952 8.10314 10.1978 8.12727 9.20056C8.16747 9.16036 8.20772 9.12011 8.24792 9.07991C8.82704 9.04772 9.40615 9.04772 9.98527 9.07991C10.0094 9.10404 10.0335 9.12817 10.0577 9.1523C10.0818 10.1656 10.0898 11.1791 10.0818 12.1927C10.3392 12.1927 10.5966 12.1927 10.8539 12.1927C10.8459 10.4713 10.8539 8.75005 10.8781 7.02887C10.9346 6.96164 11.007 6.92139 11.0952 6.90822C11.5939 6.87603 12.0926 6.87603 12.5913 6.90822C12.6874 6.93592 12.7598 6.99224 12.8085 7.07713C12.8326 8.78224 12.8407 10.4874 12.8326 12.1927C13.09 12.1927 13.3474 12.1927 13.6048 12.1927C13.5967 9.92441 13.6048 7.6562 13.6289 5.38804C13.6793 5.34591 13.7195 5.29765 13.7495 5.24326ZM14.2321 5.82237C14.2321 7.9458 14.2321 10.0692 14.2321 12.1927C14.4734 12.1927 14.7147 12.1927 14.956 12.1927C14.956 10.0692 14.956 7.9458 14.956 5.82237C14.7147 5.82237 14.4734 5.82237 14.2321 5.82237ZM11.4331 7.51147C11.4331 9.07185 11.4331 10.6323 11.4331 12.1927C11.6904 12.1927 11.9479 12.1927 12.2052 12.1927C12.2052 10.6323 12.2052 9.07185 12.2052 7.51147C11.9479 7.51147 11.6904 7.51147 11.4331 7.51147ZM8.73052 9.6349C8.73052 10.4875 8.73052 11.3401 8.73052 12.1927C8.98789 12.1927 9.2453 12.1927 9.50267 12.1927C9.50267 11.3401 9.50267 10.4875 9.50267 9.6349C9.2453 9.6349 8.98789 9.6349 8.73052 9.6349ZM5.97971 11.5653C5.97971 11.7744 5.97971 11.9836 5.97971 12.1927C6.22101 12.1927 6.46231 12.1927 6.70361 12.1927C6.70361 11.9836 6.70361 11.7744 6.70361 11.5653C6.46231 11.5653 6.22101 11.5653 5.97971 11.5653Z" fill="url(#paint3_linear_1746_1339)"/>
<defs>
<linearGradient id="paint0_linear_1746_1339" x1="-0.266453" y1="-9.36907e-07" x2="27.1434" y2="10.9707" gradientUnits="userSpaceOnUse">
<stop offset="0.11" stop-color="#60D7AD"/>
<stop offset="0.76" stop-color="#213C3A"/>
</linearGradient>
<linearGradient id="paint1_linear_1746_1339" x1="1.12609" y1="5.01953" x2="6.17928" y2="7.1252" gradientUnits="userSpaceOnUse">
<stop offset="0.11" stop-color="#60D7AD"/>
<stop offset="0.76" stop-color="#213C3A"/>
</linearGradient>
<linearGradient id="paint2_linear_1746_1339" x1="18.1807" y1="10.0703" x2="21.6567" y2="11.5083" gradientUnits="userSpaceOnUse">
<stop offset="0.11" stop-color="#60D7AD"/>
<stop offset="0.76" stop-color="#213C3A"/>
</linearGradient>
<linearGradient id="paint3_linear_1746_1339" x1="4.48901" y1="5.24023" x2="16.0162" y2="12.9591" gradientUnits="userSpaceOnUse">
<stop offset="0.11" stop-color="#60D7AD"/>
<stop offset="0.76" stop-color="#213C3A"/>
</linearGradient>
</defs>
</svg>
