<svg width="20" height="18" viewBox="0 0 20 18" fill="none" xmlns="http://www.w3.org/2000/svg">
<path opacity="0.926" fill-rule="evenodd" clip-rule="evenodd" d="M5.05608 0.00570878C5.65304 -0.0105861 6.24788 0.00800263 6.8406 0.0614751C7.1675 0.256122 7.31621 0.547345 7.28673 0.935148C7.5305 1.02915 7.77216 1.12829 8.01169 1.23257C8.1152 1.1664 8.20814 1.08585 8.29053 0.990914C8.57029 0.857517 8.84291 0.869909 9.10843 1.02809C9.46162 1.38128 9.81481 1.73447 10.168 2.08765C10.3876 2.4866 10.3256 2.83359 9.9821 3.12862C10.0517 3.39277 10.1446 3.65301 10.2609 3.90935C10.968 3.94144 11.284 4.31321 11.209 5.02468C12.4888 4.41266 13.7714 3.80544 15.0568 3.20298C15.0983 3.15751 15.1045 3.10794 15.0754 3.05427C14.9018 2.74441 14.7593 2.42221 14.6479 2.08765C14.7032 1.82421 14.8644 1.73127 15.1312 1.80882C16.3339 2.00308 17.536 2.20136 18.7374 2.40366C18.8595 2.45558 18.9215 2.54852 18.9233 2.68249C18.901 2.80154 18.8577 2.91308 18.7932 3.01709C18.1721 4.06732 17.5462 5.1145 16.9157 6.15859C16.7474 6.24819 16.6049 6.21722 16.4882 6.06565C16.3169 5.73559 16.1558 5.40099 16.0049 5.06186C13.808 6.09521 11.6083 7.1238 9.40585 8.14759C9.1059 8.06666 9.03155 7.88698 9.18279 7.60852C11.4969 6.5026 13.8205 5.41828 16.1536 4.35548C16.2609 4.37047 16.3477 4.42002 16.4138 4.50419C16.5237 4.75986 16.6476 5.00773 16.7856 5.24774C17.2333 4.47018 17.6856 3.69562 18.1426 2.92415C17.2554 2.767 16.3693 2.61209 15.4844 2.45943C15.6048 2.74443 15.7225 3.03566 15.8376 3.3331C15.8214 3.4192 15.7843 3.49356 15.726 3.55617C10.8062 5.86738 5.88636 8.17856 0.966547 10.4898C1.01772 10.7779 1.12925 11.0505 1.30115 11.3077C3.60117 10.2041 5.91239 9.12599 8.23476 8.07324C8.51779 8.16637 8.58594 8.34605 8.43924 8.61231C6.03507 9.74002 3.63094 10.8678 1.22679 11.9955C1.081 12.0311 0.963272 11.9877 0.873603 11.8653C0.625242 11.3813 0.408375 10.8855 0.222996 10.3782C0.21941 10.2881 0.244196 10.2075 0.297351 10.1366C0.954156 9.82679 1.61096 9.51695 2.26776 9.20715C1.97212 8.94892 1.71807 8.65771 1.50562 8.33348C1.48084 8.17239 1.48084 8.01126 1.50562 7.85017C1.59715 7.69678 1.70249 7.55428 1.82163 7.42263C1.68932 7.18046 1.59018 6.92638 1.52421 6.66049C1.09497 6.72789 0.791355 6.56677 0.61336 6.17718C0.588574 5.60714 0.588574 5.03706 0.61336 4.46702C0.663015 4.24391 0.793136 4.08899 1.00372 4.0023C1.1757 3.96579 1.34919 3.93478 1.52421 3.90935C1.59435 3.66179 1.69349 3.42634 1.82163 3.20298C1.47588 2.90298 1.39533 2.5436 1.57998 2.12483C1.97143 1.72095 2.37419 1.33059 2.78825 0.953736C2.95837 0.898848 3.13186 0.886453 3.30873 0.916559C3.48361 0.992256 3.63852 1.09759 3.77345 1.23257C4.01299 1.12829 4.25464 1.02915 4.49841 0.935148C4.46886 0.48482 4.65475 0.175008 5.05608 0.00570878ZM5.16761 0.60055C5.63869 0.594356 6.10962 0.600553 6.58036 0.619138C6.59895 0.637727 6.61754 0.656316 6.63612 0.674905C6.6485 0.873184 6.66092 1.07147 6.6733 1.26975C6.69059 1.32294 6.7216 1.36631 6.76625 1.39987C7.21699 1.53849 7.65074 1.71818 8.06746 1.93894C8.28956 1.84735 8.47545 1.70484 8.62512 1.5114C8.6623 1.48661 8.69948 1.48661 8.73666 1.5114C9.05267 1.82741 9.36867 2.14342 9.68468 2.45943C9.70948 2.49661 9.70948 2.53378 9.68468 2.57096C9.57315 2.68249 9.46162 2.79403 9.35009 2.90556C9.28001 2.99531 9.25521 3.09445 9.27573 3.20298C9.49995 3.59067 9.67346 3.99962 9.79622 4.42984C9.82979 4.47449 9.87314 4.50549 9.92634 4.52278C10.1246 4.53516 10.3229 4.54758 10.5212 4.55996C10.5398 4.57855 10.5584 4.59714 10.5769 4.61573C10.6078 4.85214 10.6016 5.08762 10.5584 5.3221C10.1404 5.51561 9.72521 5.71388 9.31291 5.91694C9.47772 4.03323 8.69082 2.7382 6.95213 2.03189C5.45637 1.63004 4.19854 2.00801 3.17861 3.1658C2.39396 4.25934 2.24525 5.43664 2.73248 6.69767C3.03854 7.38791 3.51565 7.92698 4.16382 8.31489C3.73344 8.51461 3.3059 8.71909 2.88119 8.92832C2.60072 8.66031 2.33429 8.38148 2.08187 8.09183C2.18537 7.95104 2.3031 7.82091 2.43506 7.70146C2.47068 7.6383 2.48927 7.57011 2.49083 7.49699C2.28808 7.07249 2.12078 6.63257 1.98893 6.17718C1.93616 6.14149 1.88039 6.11052 1.82163 6.08424C1.61407 6.07714 1.4096 6.05855 1.2082 6.02847C1.18342 5.54516 1.18342 5.06186 1.2082 4.57855C1.42202 4.54843 1.63888 4.52985 1.85881 4.52278C1.93936 4.49181 1.99513 4.43605 2.02611 4.35548C2.16173 3.93616 2.31664 3.5272 2.49083 3.12862C2.48463 3.07905 2.47844 3.02948 2.47224 2.97991C2.34831 2.85599 2.22439 2.73206 2.10046 2.60814C2.07568 2.55857 2.07568 2.509 2.10046 2.45943C2.41647 2.14342 2.73248 1.82741 3.04849 1.5114C3.08567 1.48661 3.12285 1.48661 3.16002 1.5114C3.30887 1.69794 3.48857 1.84045 3.6991 1.93894C4.12348 1.72373 4.56344 1.54404 5.0189 1.39987C5.06355 1.36631 5.09456 1.32294 5.11184 1.26975C5.11961 1.04368 5.1382 0.820615 5.16761 0.60055ZM5.61374 2.45943C7.15096 2.4437 8.16092 3.16247 8.64371 4.61573C8.78633 5.17811 8.75532 5.7296 8.55077 6.27013C7.34056 6.84426 6.12612 7.40813 4.90737 7.96171C4.2623 7.7105 3.7604 7.28916 3.40168 6.69767C2.75803 5.31113 2.99968 4.10286 4.12664 3.07286C4.57009 2.73318 5.06582 2.5287 5.61374 2.45943Z" fill="url(#paint0_linear_1909_1147)"/>
<path opacity="0.922" fill-rule="evenodd" clip-rule="evenodd" d="M5.76522 3.35088C5.85285 3.34482 5.93958 3.35099 6.02546 3.36947C6.09361 3.38806 6.13699 3.43145 6.15558 3.49959C6.17417 4.00755 6.18038 4.51562 6.17417 5.02387C6.42233 5.0177 6.67019 5.02387 6.91772 5.04246C6.98587 5.06105 7.02926 5.10444 7.04784 5.17258C7.11461 5.40505 7.03409 5.54756 6.80619 5.60013C6.48397 5.62492 6.16179 5.62492 5.83957 5.60013C5.75228 5.58726 5.68413 5.54388 5.6351 5.47C5.57472 4.84048 5.56234 4.20846 5.59792 3.57395C5.62019 3.47156 5.67595 3.39721 5.76522 3.35088Z" fill="url(#paint1_linear_1909_1147)"/>
<path opacity="0.938" fill-rule="evenodd" clip-rule="evenodd" d="M19.0349 17.5537C19.0349 17.6529 19.0349 17.752 19.0349 17.8511C18.9788 17.9008 18.9168 17.9442 18.849 17.9813C12.628 18.006 6.40692 18.006 0.185888 17.9813C0.118111 17.9442 0.0561481 17.9008 0 17.8511C0 17.752 0 17.6529 0 17.5537C0.0303531 17.4926 0.0799232 17.4492 0.14871 17.4236C0.681446 17.405 1.21432 17.3988 1.74735 17.405C1.72979 16.1515 1.74838 14.8999 1.80311 13.6501C1.85888 13.4951 1.96421 13.3898 2.11912 13.3341C2.94942 13.3093 3.77973 13.3093 4.61002 13.3341C4.76494 13.3898 4.87026 13.4951 4.92603 13.6501C4.94461 14.9016 4.95082 16.1533 4.94461 17.405C5.25442 17.405 5.56425 17.405 5.87405 17.405C5.86785 15.5461 5.87405 13.6872 5.89264 11.8284C5.96079 11.6611 6.07853 11.5433 6.24583 11.4752C7.06374 11.4504 7.88164 11.4504 8.69955 11.4752C8.88276 11.5468 9.00046 11.6769 9.05273 11.8655C9.07132 13.712 9.07753 15.5585 9.07132 17.405C9.36874 17.405 9.66616 17.405 9.96358 17.405C9.95738 14.7034 9.96358 12.0018 9.98217 9.30029C10.0379 9.09582 10.1681 8.9657 10.3725 8.90993C11.1656 8.88513 11.9588 8.88513 12.7519 8.90993C12.9405 8.9622 13.0706 9.0799 13.1423 9.26312C13.1609 11.977 13.1671 14.691 13.1609 17.405C13.4707 17.405 13.7805 17.405 14.0903 17.405C14.0841 14.1953 14.0903 10.9857 14.1089 7.77601C14.1646 7.62109 14.27 7.51577 14.4249 7.46C15.2552 7.43521 16.0855 7.43521 16.9158 7.46C17.1384 7.55154 17.2561 7.71883 17.269 7.9619C17.2938 9.25074 17.2938 10.5395 17.269 11.8284C17.1861 12.0872 17.0188 12.1554 16.7671 12.0328C16.7438 12.005 16.7252 11.974 16.7113 11.9399C16.6927 10.6388 16.6865 9.33754 16.6927 8.03626C16.0235 8.03626 15.3543 8.03626 14.6851 8.03626C14.6851 11.1592 14.6851 14.2821 14.6851 17.405C15.3543 17.405 16.0235 17.405 16.6927 17.405C16.6865 15.9179 16.6927 14.4308 16.7113 12.9437C16.7631 12.8371 16.8498 12.7876 16.9716 12.795C17.1526 12.7902 17.2518 12.877 17.269 13.0552C17.2876 14.5051 17.2938 15.955 17.2876 17.405C17.8206 17.3988 18.3535 17.405 18.8862 17.4236C18.955 17.4492 19.0046 17.4926 19.0349 17.5537ZM10.5584 9.48618C11.2276 9.48618 11.8968 9.48618 12.566 9.48618C12.566 12.1258 12.566 14.7654 12.566 17.405C11.8968 17.405 11.2276 17.405 10.5584 17.405C10.5584 14.7654 10.5584 12.1258 10.5584 9.48618ZM6.46889 12.0514C7.13809 12.0514 7.80729 12.0514 8.47648 12.0514C8.47648 13.836 8.47648 15.6205 8.47648 17.405C7.80729 17.405 7.13809 17.405 6.46889 17.405C6.46889 15.6205 6.46889 13.836 6.46889 12.0514ZM2.34219 13.9103C3.01138 13.9103 3.68058 13.9103 4.34977 13.9103C4.34977 15.0752 4.34977 16.2401 4.34977 17.405C3.68058 17.405 3.01138 17.405 2.34219 17.405C2.34219 16.2401 2.34219 15.0752 2.34219 13.9103Z" fill="url(#paint2_linear_1909_1147)"/>
<defs>
<linearGradient id="paint0_linear_1909_1147" x1="-0.00136168" y1="-4.68748e-07" x2="18.4073" y2="12.3815" gradientUnits="userSpaceOnUse">
<stop offset="0.11" stop-color="#60D7AD"/>
<stop offset="0.76" stop-color="#213C3A"/>
</linearGradient>
<linearGradient id="paint1_linear_1909_1147" x1="5.56025" y1="3.34863" x2="7.53479" y2="3.90924" gradientUnits="userSpaceOnUse">
<stop offset="0.11" stop-color="#60D7AD"/>
<stop offset="0.76" stop-color="#213C3A"/>
</linearGradient>
<linearGradient id="paint2_linear_1909_1147" x1="-0.228022" y1="7.44141" x2="16.7155" y2="20.6331" gradientUnits="userSpaceOnUse">
<stop offset="0.11" stop-color="#60D7AD"/>
<stop offset="0.76" stop-color="#213C3A"/>
</linearGradient>
</defs>
</svg>
