<svg width="19" height="20" viewBox="0 0 19 20" fill="none" xmlns="http://www.w3.org/2000/svg">
<path opacity="0.909" fill-rule="evenodd" clip-rule="evenodd" d="M10.2384 2.21015C11.9463 2.14471 13.1847 2.86385 13.9536 4.36758C14.6236 6.18946 14.206 7.70529 12.701 8.9151C11.1764 9.82681 9.69031 9.77042 8.24283 8.74589C7.0038 7.6085 6.62875 6.23367 7.11766 4.62139C7.69854 3.22219 8.7388 2.41844 10.2384 2.21015ZM10.2384 2.76008C12.0163 2.73201 13.1556 3.56396 13.6564 5.25593C13.8682 6.80099 13.295 7.95018 11.9368 8.70359C10.4696 9.28267 9.20292 8.99362 8.13668 7.83639C7.31458 6.68195 7.24381 5.48339 7.92439 4.24067C8.47903 3.41091 9.25035 2.91739 10.2384 2.76008Z" fill="url(#paint0_linear_1871_1146)"/>
<path opacity="0.896" fill-rule="evenodd" clip-rule="evenodd" d="M11.0042 4.45246C11.3295 4.38883 11.464 4.51574 11.4076 4.83318C11.0255 5.62284 10.6433 6.41246 10.2612 7.20212C10.1205 7.35462 9.96476 7.36875 9.79416 7.24443C9.70924 7.11752 9.70924 6.99061 9.79416 6.8637C10.1776 6.04794 10.581 5.24419 11.0042 4.45246Z" fill="url(#paint1_linear_1871_1146)"/>
<path opacity="0.889" fill-rule="evenodd" clip-rule="evenodd" d="M9.18258 4.5789C9.49593 4.55956 9.61622 4.70056 9.54349 5.00192C9.21753 5.29148 8.89908 5.5876 8.58815 5.89028C8.90019 6.19414 9.21863 6.49025 9.54349 6.77863C9.57474 7.17564 9.41199 7.2814 9.05521 7.0959C8.71553 6.78569 8.37586 6.47545 8.03619 6.16524C7.91879 6.03855 7.88342 5.89049 7.93004 5.72107C8.34312 5.3304 8.76067 4.94968 9.18258 4.5789Z" fill="url(#paint2_linear_1871_1146)"/>
<path opacity="0.892" fill-rule="evenodd" clip-rule="evenodd" d="M11.7675 4.57964C11.8396 4.57287 11.9104 4.57989 11.9798 4.60079C12.41 4.9588 12.8275 5.33245 13.2323 5.72181C13.3173 5.83463 13.3173 5.94741 13.2323 6.06023C12.8431 6.4198 12.4539 6.77937 12.0647 7.13894C11.821 7.24318 11.6653 7.16564 11.5977 6.90628C11.607 6.84545 11.6282 6.78906 11.6613 6.73707C11.9731 6.46164 12.2774 6.17961 12.5742 5.89102C12.2781 5.61017 11.9809 5.32814 11.6826 5.04497C11.5675 4.86645 11.5958 4.71133 11.7675 4.57964Z" fill="url(#paint3_linear_1871_1146)"/>
<path opacity="0.949" fill-rule="evenodd" clip-rule="evenodd" d="M9.41882 0.0020188C10.1913 -0.00336493 10.9637 0.0020188 11.736 0.0181764C11.8287 0.0585899 11.8877 0.128607 11.913 0.228226C11.9184 0.465934 11.9345 0.702911 11.9613 0.939162C12.3593 1.05983 12.7402 1.2214 13.1038 1.42389C13.2593 1.26771 13.4149 1.1115 13.5704 0.95532C13.7099 0.890689 13.8493 0.890689 13.9888 0.95532C14.4769 1.44545 14.965 1.93554 15.4531 2.42567C15.5604 2.58724 15.5604 2.74882 15.4531 2.91039C15.3083 3.05581 15.1635 3.20123 15.0186 3.34665C15.2203 3.71172 15.3812 4.09414 15.5014 4.49384C15.7367 4.5207 15.9727 4.53685 16.2094 4.54232C16.3616 4.58743 16.442 4.68974 16.4508 4.84931C16.4816 5.58342 16.4708 6.31591 16.4186 7.04675C16.371 7.14896 16.2905 7.2082 16.1772 7.22448C15.9512 7.22995 15.7259 7.2461 15.5014 7.27296C15.3811 7.67305 15.2202 8.05544 15.0186 8.42015C15.1967 8.58813 15.363 8.76586 15.5175 8.95335C15.5521 9.09418 15.5306 9.22344 15.4531 9.34114C14.9757 9.82047 14.4983 10.2998 14.021 10.7792C13.8601 10.8869 13.6991 10.8869 13.5382 10.7792C13.3934 10.6337 13.2486 10.4883 13.1038 10.3429C12.7401 10.5443 12.3593 10.7059 11.9613 10.8276C11.9345 11.0639 11.9184 11.3009 11.913 11.5386C11.8877 11.6382 11.8287 11.7082 11.736 11.7486C10.9636 11.7702 10.1912 11.7702 9.41882 11.7486C9.32611 11.7082 9.26711 11.6382 9.24182 11.5386C9.23638 11.3009 9.22029 11.0639 9.19355 10.8276C8.79551 10.7059 8.41469 10.5443 8.05106 10.3429C7.88245 10.5339 7.69473 10.7009 7.48786 10.8438C7.36067 10.8733 7.24266 10.8517 7.13385 10.7792C6.62336 10.2773 6.12453 9.76569 5.63735 9.24419C5.61041 9.12155 5.62113 9.00309 5.66953 8.88872C5.82507 8.73254 5.98064 8.57633 6.13618 8.42015C5.93562 8.05502 5.7747 7.67263 5.65344 7.27296C5.39425 7.2537 5.13679 7.22675 4.88105 7.19217C4.76994 7.13633 4.71094 7.04475 4.70405 6.91749C4.69975 6.185 4.71048 5.45251 4.73623 4.72005C4.77648 4.62695 4.84621 4.56772 4.94542 4.54232C5.18215 4.53685 5.41816 4.5207 5.65344 4.49384C5.77361 4.09414 5.93452 3.71172 6.13618 3.34665C5.99136 3.20123 5.84653 3.05581 5.70171 2.91039C5.61115 2.76478 5.60043 2.61397 5.66953 2.45798C6.18001 1.9346 6.70031 1.42295 7.23039 0.923004C7.35253 0.895956 7.47051 0.906717 7.58441 0.95532C7.73994 1.1115 7.89552 1.26771 8.05106 1.42389C8.41462 1.2214 8.79548 1.05983 9.19355 0.939162C9.22029 0.702911 9.23638 0.465934 9.24182 0.228226C9.27294 0.127383 9.33193 0.0519782 9.41882 0.0020188ZM9.90157 0.648324C10.3521 0.648324 10.8027 0.648324 11.2532 0.648324C11.2479 0.87479 11.2532 1.101 11.2693 1.32695C11.3054 1.39558 11.3537 1.45482 11.4142 1.50468C11.6413 1.56275 11.8666 1.62738 12.09 1.69857C12.4544 1.84929 12.8084 2.01626 13.152 2.19946C13.2189 2.19325 13.2832 2.1771 13.3451 2.15099C13.4899 2.00557 13.6348 1.86015 13.7796 1.71473C14.096 2.03249 14.4125 2.35027 14.729 2.66803C14.5842 2.81345 14.4393 2.95887 14.2945 3.10429C14.2476 3.1969 14.2369 3.29385 14.2623 3.39512C14.5848 3.90293 14.8101 4.45229 14.9382 5.0432C14.9878 5.10389 15.0468 5.15236 15.1152 5.18862C15.3402 5.20478 15.5655 5.21014 15.791 5.20478C15.791 5.65719 15.791 6.10961 15.791 6.56202C15.5655 6.55666 15.3402 6.56202 15.1152 6.57818C15.0367 6.60319 14.9777 6.65166 14.9382 6.7236C14.8105 7.31384 14.5852 7.8632 14.2623 8.37168C14.2369 8.47295 14.2476 8.5699 14.2945 8.66251C14.4393 8.80793 14.5842 8.95335 14.729 9.09877C14.4125 9.41653 14.096 9.73432 13.7796 10.0521C13.6348 9.90665 13.4899 9.76123 13.3451 9.61582C13.2529 9.56873 13.1563 9.55797 13.0555 9.5835C12.5451 9.89799 11.998 10.1242 11.4142 10.2621C11.3425 10.3018 11.2942 10.361 11.2693 10.4399C11.2532 10.6658 11.2479 10.892 11.2532 11.1185C10.8027 11.1185 10.3521 11.1185 9.90157 11.1185C9.90691 10.892 9.90157 10.6658 9.88548 10.4399C9.86057 10.361 9.81229 10.3018 9.74065 10.2621C9.15682 10.1242 8.60972 9.89799 8.09933 9.5835C7.99847 9.55797 7.90192 9.56873 7.80968 9.61582C7.66486 9.76123 7.52004 9.90665 7.37522 10.0521C7.05876 9.73432 6.74228 9.41653 6.42582 9.09877C6.57065 8.95335 6.71547 8.80793 6.86029 8.66251C6.90718 8.5699 6.9179 8.47295 6.89248 8.37168C6.56959 7.8632 6.34431 7.31384 6.21664 6.7236C6.17715 6.65166 6.11813 6.60319 6.03963 6.57818C5.81461 6.56202 5.58933 6.55666 5.36379 6.56202C5.3627 6.10925 5.37342 5.65684 5.39598 5.20478C5.6108 5.21014 5.82536 5.20478 6.03963 5.18862C6.10799 5.15236 6.16698 5.10389 6.21664 5.0432C6.34469 4.45229 6.56997 3.90293 6.89248 3.39512C6.9179 3.29385 6.90718 3.1969 6.86029 3.10429C6.71547 2.95887 6.57065 2.81345 6.42582 2.66803C6.74228 2.35027 7.05876 2.03249 7.37522 1.71473C7.52004 1.86015 7.66486 2.00557 7.80968 2.15099C7.87157 2.1771 7.93594 2.19325 8.00278 2.19946C8.34637 2.01626 8.70038 1.84929 9.06481 1.69857C9.28836 1.62732 9.51364 1.56269 9.74065 1.50468C9.80109 1.45482 9.84937 1.39558 9.88548 1.32695C9.90157 1.101 9.90691 0.87479 9.90157 0.648324Z" fill="url(#paint4_linear_1871_1146)"/>
<path opacity="0.935" fill-rule="evenodd" clip-rule="evenodd" d="M16.723 12.1564C17.3742 12.0874 17.9332 12.2764 18.4 12.7233C18.8742 13.4373 18.7876 14.075 18.1402 14.6365C16.1632 16.1841 14.1949 17.743 12.2352 19.3133C11.8946 19.5302 11.5245 19.6483 11.125 19.6676C9.0041 19.1965 6.87829 18.7398 4.74763 18.2976C4.51667 18.3116 4.30409 18.3825 4.10989 18.5102C3.83278 18.7006 3.54934 18.8817 3.25956 19.0535C3.26826 19.4378 3.11081 19.7291 2.78716 19.9274C2.06538 20.0031 1.34104 20.0188 0.614122 19.9747C0.33217 19.9133 0.135334 19.748 0.0236212 19.4786C-0.00787374 17.4788 -0.00787374 15.479 0.0236212 13.4791C0.107642 13.2849 0.241488 13.1353 0.425162 13.0304C0.81605 12.9783 1.20972 12.9546 1.60616 12.9595C2.00261 12.9546 2.39625 12.9783 2.78716 13.0304C3.081 13.1838 3.25423 13.4278 3.30681 13.7626C3.99018 13.3547 4.66727 12.9374 5.33813 12.5107C5.60886 12.3841 5.8923 12.3369 6.18845 12.369C6.47949 12.4188 6.76294 12.4975 7.03877 12.6052C8.7079 13.2036 10.3771 13.8019 12.0462 14.4003C12.1527 14.4654 12.255 14.5362 12.3533 14.6129C13.5146 13.9181 14.672 13.2174 15.8254 12.5107C16.1138 12.3493 16.4129 12.2312 16.723 12.1564ZM16.723 13.0067C17.0715 12.9684 17.4022 13.0236 17.715 13.1721C17.89 13.3325 17.945 13.5294 17.8804 13.7626C15.9241 15.2778 13.9951 16.8288 12.0935 18.4157C11.8385 18.6337 11.5472 18.7834 11.2195 18.8645C9.06679 18.3836 6.90947 17.9269 4.74763 17.4946C4.18561 17.5551 3.6817 17.7598 3.23594 18.1087C3.20444 16.9592 3.20444 15.8096 3.23594 14.6601C4.05872 14.1582 4.88543 13.6622 5.71605 13.1721C5.92074 13.0776 6.12548 13.0776 6.33017 13.1721C8.16398 13.8148 9.99061 14.4762 11.81 15.1562C12.2643 15.5996 12.2486 16.0248 11.7628 16.4317C11.5108 16.5261 11.2589 16.5261 11.0069 16.4317C9.98863 16.0249 8.96508 15.6312 7.93633 15.2507C7.46974 15.2298 7.32013 15.4424 7.48755 15.8884C8.60511 16.3555 9.73103 16.8042 10.8652 17.2347C11.9267 17.5034 12.6117 17.1176 12.9202 16.0774C12.9574 15.8275 12.9338 15.5835 12.8493 15.3451C12.8561 15.3087 12.8719 15.2772 12.8965 15.2507C14.1625 14.4763 15.438 13.7283 16.723 13.0067ZM0.755842 13.7626C1.32272 13.7626 1.8896 13.7626 2.45648 13.7626C2.45648 15.5734 2.45648 17.3843 2.45648 19.1952C1.8896 19.1952 1.32272 19.1952 0.755842 19.1952C0.755842 17.3843 0.755842 15.5734 0.755842 13.7626Z" fill="url(#paint5_linear_1871_1146)"/>
<defs>
<linearGradient id="paint0_linear_1871_1146" x1="6.82207" y1="2.20605" x2="15.6822" y2="6.03241" gradientUnits="userSpaceOnUse">
<stop offset="0.11" stop-color="#60D7AD"/>
<stop offset="0.76" stop-color="#213C3A"/>
</linearGradient>
<linearGradient id="paint1_linear_1871_1146" x1="9.71023" y1="4.43652" x2="11.9813" y2="5.0096" gradientUnits="userSpaceOnUse">
<stop offset="0.11" stop-color="#60D7AD"/>
<stop offset="0.76" stop-color="#213C3A"/>
</linearGradient>
<linearGradient id="paint2_linear_1871_1146" x1="7.89034" y1="4.57715" x2="10.0898" y2="5.17967" gradientUnits="userSpaceOnUse">
<stop offset="0.11" stop-color="#60D7AD"/>
<stop offset="0.76" stop-color="#213C3A"/>
</linearGradient>
<linearGradient id="paint3_linear_1871_1146" x1="11.5773" y1="4.57715" x2="13.8273" y2="5.21027" gradientUnits="userSpaceOnUse">
<stop offset="0.11" stop-color="#60D7AD"/>
<stop offset="0.76" stop-color="#213C3A"/>
</linearGradient>
<linearGradient id="paint4_linear_1871_1146" x1="4.56219" y1="-4.59271e-07" x2="18.7383" y2="6.12216" gradientUnits="userSpaceOnUse">
<stop offset="0.11" stop-color="#60D7AD"/>
<stop offset="0.76" stop-color="#213C3A"/>
</linearGradient>
<linearGradient id="paint5_linear_1871_1146" x1="-0.224019" y1="12.1426" x2="12.7756" y2="25.5057" gradientUnits="userSpaceOnUse">
<stop offset="0.11" stop-color="#60D7AD"/>
<stop offset="0.76" stop-color="#213C3A"/>
</linearGradient>
</defs>
</svg>
