<svg width="24" height="24" viewBox="0 0 24 24" fill="none" xmlns="http://www.w3.org/2000/svg">
<path opacity="0.924" fill-rule="evenodd" clip-rule="evenodd" d="M8.00915 0.0355974C11.2508 -0.213101 13.9748 0.841333 16.181 3.1989C18.0103 5.45946 18.4337 7.95976 17.4511 10.6998C19.8337 10.7047 21.7269 11.6554 23.1307 13.5515C24.0463 15.049 24.222 16.6307 23.6579 18.2965C22.8782 20.1304 21.5282 21.3206 19.6079 21.8672C19.2001 21.9855 18.7847 22.0574 18.3618 22.0828C18.2427 22.6546 18.1388 23.2297 18.0502 23.8083C18.0263 23.8961 17.9703 23.9521 17.8825 23.976C17.7547 24.008 17.6269 24.008 17.4991 23.976C16.7467 23.2396 15.9798 22.5206 15.1985 21.8192C14.7192 21.5476 14.2399 21.2761 13.7606 21.0044C12.2606 19.9462 11.4058 18.5004 11.1964 16.6669C10.4855 17.3459 9.77452 18.0249 9.06359 18.7039C8.84796 18.8173 8.66425 18.7773 8.51241 18.584C8.41291 17.9588 8.30109 17.3357 8.17691 16.7148C8.14096 16.4704 8.06907 16.2387 7.96123 16.0198C6.30998 15.861 4.80823 15.3098 3.45592 14.3663C3.30571 14.0437 3.40157 13.836 3.74349 13.7432C4.36856 14.1197 5.02357 14.4472 5.70857 14.7258C6.59473 15.0436 7.50538 15.2513 8.44051 15.3488C8.58751 15.5069 8.69133 15.6906 8.75205 15.9C8.88769 16.4585 9.01552 17.0177 9.13548 17.5775C10.0543 16.6677 11.0048 15.797 11.9872 14.9654C12.7698 14.5422 13.5367 14.0949 14.2878 13.6234C16.8231 11.6412 17.6938 9.09303 16.8999 5.97877C15.9063 3.47195 14.109 1.85036 11.508 1.114C8.47819 0.329986 5.73028 0.889152 3.2642 2.7915C0.881239 4.92376 0.202247 7.50396 1.22723 10.532C1.59151 11.3732 2.08677 12.1241 2.71302 12.7847C2.78994 13.2349 2.6062 13.4026 2.16184 13.2879C0.0217693 10.9652 -0.529412 8.30518 0.5083 5.30776C1.60912 2.92917 3.40645 1.32355 5.90029 0.490921C6.59856 0.285867 7.30153 0.134092 8.00915 0.0355974ZM17.0677 11.4906C19.0384 11.3623 20.7079 12.0013 22.0763 13.4077C23.6418 15.4214 23.6418 17.4344 22.0763 19.4468C20.9379 20.6429 19.54 21.3059 17.8825 21.4358C17.758 21.6171 17.6701 21.8168 17.6189 22.0349C17.561 22.3082 17.4971 22.5798 17.4272 22.8497C16.759 22.1652 16.048 21.5341 15.2943 20.9565C13.4797 20.2124 12.3854 18.8784 12.0112 16.9545C11.9792 16.619 11.9792 16.2835 12.0112 15.948C12.245 15.7301 12.4926 15.5303 12.7541 15.3488C14.6541 14.5749 16.092 13.2888 17.0677 11.4906Z" fill="url(#paint0_linear_1752_1073)"/>
<path opacity="0.908" fill-rule="evenodd" clip-rule="evenodd" d="M14.2896 14.9893C16.4944 14.9813 18.6991 14.9893 20.9038 15.0133C21.2633 15.117 21.3511 15.3327 21.1674 15.6603C21.1315 15.6903 21.0915 15.7143 21.0476 15.7322C18.763 15.7642 16.4784 15.7642 14.1938 15.7322C13.9451 15.5926 13.8891 15.3929 14.026 15.1331C14.1159 15.08 14.2038 15.032 14.2896 14.9893Z" fill="url(#paint1_linear_1752_1073)"/>
<path opacity="0.893" fill-rule="evenodd" clip-rule="evenodd" d="M14.1911 17.3848C15.006 17.3768 15.8208 17.3848 16.6355 17.4088C16.8784 17.5518 16.9343 17.7514 16.8032 18.0079C16.7471 18.0747 16.6752 18.1146 16.5875 18.1277C15.8047 18.1597 15.0219 18.1597 14.239 18.1277C13.954 18.0111 13.8821 17.8114 14.0234 17.5286C14.0782 17.4742 14.1342 17.4262 14.1911 17.3848Z" fill="url(#paint2_linear_1752_1073)"/>
<path opacity="0.901" fill-rule="evenodd" clip-rule="evenodd" d="M17.4997 17.3858C18.6661 17.3778 19.8324 17.3858 20.9985 17.4098C21.3803 17.6472 21.3803 17.8868 20.9985 18.1287C19.8323 18.1607 18.666 18.1607 17.4997 18.1287C17.1251 17.88 17.1251 17.6324 17.4997 17.3858Z" fill="url(#paint3_linear_1752_1073)"/>
<path opacity="0.924" fill-rule="evenodd" clip-rule="evenodd" d="M8.68779 6.02343C10.1647 5.8931 11.121 6.53064 11.5568 7.9361C11.7433 9.46887 11.0983 10.4548 9.62189 10.8941C8.42473 11.0553 7.52773 10.6179 6.9308 9.58189C6.41518 8.26793 6.71912 7.193 7.84266 6.35703C8.11417 6.20504 8.39586 6.09384 8.68779 6.02343ZM8.9102 6.69064C7.98504 6.91945 7.46608 7.51251 7.35337 8.46987C7.48881 9.5246 8.08187 10.1177 9.1326 10.2491C10.2278 10.1399 10.8209 9.53941 10.9118 8.44763C10.7677 7.27329 10.1005 6.68766 8.9102 6.69064Z" fill="url(#paint4_linear_1752_1073)"/>
<path opacity="0.923" fill-rule="evenodd" clip-rule="evenodd" d="M8.3957 3.06821C8.87039 3.0608 9.34487 3.06821 9.81908 3.09045C10.1141 3.11874 10.2994 3.27442 10.3751 3.55749C10.3973 3.76454 10.4047 3.97212 10.3973 4.18023C10.6915 4.24554 10.9732 4.34933 11.2425 4.49159C11.4012 4.32533 11.5791 4.18447 11.7762 4.06902C12.0301 3.99221 12.2674 4.03669 12.4879 4.20247C12.7919 4.50642 13.0959 4.81037 13.3998 5.11432C13.587 5.37205 13.6019 5.63893 13.4443 5.91498C13.3101 6.0417 13.1841 6.17515 13.0662 6.31531C13.198 6.58486 13.3166 6.85917 13.422 7.1382C14.3482 7.09706 14.704 7.53444 14.4896 8.45039C14.4945 8.76513 14.4722 9.0765 14.4228 9.38448C14.3533 9.52807 14.2421 9.62446 14.0892 9.67361C13.8654 9.68121 13.643 9.70345 13.422 9.74033C13.3207 10.0293 13.2022 10.311 13.0662 10.5855C13.1841 10.7256 13.3101 10.8591 13.4443 10.9858C13.6043 11.2863 13.5746 11.568 13.3553 11.8309C13.0187 12.1973 12.6555 12.5309 12.2655 12.8317C12.1024 12.8614 11.9394 12.8614 11.7762 12.8317C11.5791 12.7163 11.4012 12.5754 11.2425 12.4092C10.9738 12.551 10.6922 12.6548 10.3973 12.7205C10.4047 12.9287 10.3973 13.1362 10.3751 13.3433C10.2994 13.6264 10.1141 13.782 9.81908 13.8103C9.35946 13.84 8.8998 13.84 8.44018 13.8103C8.17009 13.7826 7.98474 13.6417 7.88417 13.3878C7.86935 13.1802 7.8545 12.9726 7.83968 12.765C7.5551 12.6553 7.2734 12.5367 6.99455 12.4092C6.82454 12.5494 6.65405 12.6903 6.48302 12.8317C6.24869 12.8793 6.02629 12.8496 5.81581 12.7428C5.41984 12.3766 5.05656 11.9837 4.72603 11.564C4.6919 11.3819 4.70672 11.204 4.77051 11.0303C4.89714 10.8741 5.02316 10.7184 5.14859 10.5632C5.01293 10.2846 4.90912 9.99552 4.83723 9.69585C3.90636 9.79597 3.55051 9.38083 3.76969 8.45039C3.55746 7.53773 3.9133 7.09292 4.83723 7.11596C4.93486 6.85397 5.03864 6.59451 5.14859 6.33755C4.97248 6.16154 4.83162 5.96137 4.72603 5.73705C4.68123 5.53195 4.71089 5.33917 4.81499 5.1588C5.1796 4.77934 5.55768 4.41609 5.94925 4.06902C6.0407 4.0552 6.12966 4.03296 6.21613 4.0023C6.30261 4.03296 6.39157 4.0552 6.48302 4.06902C6.65405 4.21048 6.82454 4.35134 6.99455 4.49159C7.2617 4.36299 7.53601 4.25179 7.81744 4.15799C7.85325 3.94675 7.87549 3.73177 7.88417 3.51301C7.98247 3.27337 8.15296 3.1251 8.3957 3.06821ZM8.52914 3.7799C8.53652 4.04719 8.52909 4.31408 8.5069 4.58055C8.49026 4.62131 8.46802 4.65838 8.44018 4.69176C7.91815 4.85327 7.414 5.05343 6.92783 5.29225C6.84781 5.28882 6.77366 5.26658 6.70542 5.22553C6.54907 5.06175 6.38596 4.90605 6.21613 4.75848C5.94249 5.00987 5.6756 5.26934 5.41548 5.53689C5.57116 5.69257 5.72685 5.84826 5.88253 6.00394C5.92514 6.07951 5.94738 6.16109 5.94925 6.24858C5.74837 6.68774 5.57788 7.13994 5.43772 7.60525C5.40725 7.71899 5.34053 7.80056 5.23756 7.84989C4.97108 7.87209 4.7042 7.87952 4.4369 7.87213C4.4369 8.25765 4.4369 8.64312 4.4369 9.02864C4.7042 9.02125 4.97108 9.02868 5.23756 9.05088C5.2783 9.06751 5.3154 9.08975 5.34876 9.1176C5.48118 9.58909 5.67391 10.0339 5.92701 10.452C5.96335 10.6061 5.94849 10.7544 5.88253 10.8968C5.72685 11.0525 5.57116 11.2082 5.41548 11.3639C5.66755 11.616 5.91958 11.868 6.17165 12.1201C6.20132 12.1497 6.23095 12.1497 6.26062 12.1201C6.40887 11.9718 6.55717 11.8235 6.70542 11.6752C6.77366 11.6342 6.84781 11.6119 6.92783 11.6085C7.21331 11.7228 7.495 11.8489 7.77296 11.9866C7.96365 12.0528 8.15639 12.1121 8.35121 12.1645C8.43275 12.1868 8.48466 12.2387 8.5069 12.3202C8.52909 12.5867 8.53652 12.8536 8.52914 13.1209C8.91465 13.1209 9.30012 13.1209 9.68564 13.1209C9.67826 12.8832 9.68568 12.646 9.70788 12.4092C9.72327 12.3047 9.77518 12.2232 9.86356 12.1645C10.0267 12.1201 10.1897 12.0756 10.3529 12.0311C10.6717 11.8826 10.9905 11.7418 11.3092 11.6085C11.3967 11.6104 11.4783 11.6326 11.5538 11.6752C11.7095 11.8309 11.8652 11.9866 12.0209 12.1423C12.273 11.8902 12.525 11.6382 12.7771 11.3861C12.8067 11.3565 12.8067 11.3268 12.7771 11.2972C12.6288 11.1489 12.4805 11.0006 12.3322 10.8523C12.3055 10.7795 12.2833 10.7054 12.2655 10.6299C12.4994 10.1915 12.6848 9.73192 12.8215 9.25104C12.8586 9.15465 12.9253 9.08793 13.0217 9.05088C13.2733 9.02868 13.5254 9.02125 13.7779 9.02864C13.7779 8.64312 13.7779 8.25765 13.7779 7.87213C13.5254 7.87952 13.2733 7.87209 13.0217 7.84989C12.958 7.82921 12.9062 7.79211 12.866 7.73869C12.709 7.22258 12.5088 6.72591 12.2655 6.24858C12.2711 6.17621 12.2933 6.10949 12.3322 6.04842C12.496 5.89207 12.6517 5.72896 12.7993 5.55913C12.5479 5.28549 12.2884 5.0186 12.0209 4.75848C11.8652 4.91416 11.7095 5.06984 11.5538 5.22553C11.4856 5.26658 11.4115 5.28882 11.3314 5.29225C11.0401 5.19114 10.7584 5.06513 10.4863 4.91416C10.2956 4.84796 10.1029 4.78865 9.90804 4.73624C9.84439 4.71554 9.79253 4.67847 9.75236 4.62503C9.69142 4.3474 9.66918 4.06569 9.68564 3.7799C9.30012 3.7799 8.91465 3.7799 8.52914 3.7799Z" fill="url(#paint5_linear_1752_1073)"/>
<defs>
<linearGradient id="paint0_linear_1752_1073" x1="-0.287266" y1="-9.36907e-07" x2="28.6158" y2="12.472" gradientUnits="userSpaceOnUse">
<stop offset="0.11" stop-color="#60D7AD"/>
<stop offset="0.76" stop-color="#213C3A"/>
</linearGradient>
<linearGradient id="paint1_linear_1752_1073" x1="13.8656" y1="14.9863" x2="14.4524" y2="17.3919" gradientUnits="userSpaceOnUse">
<stop offset="0.11" stop-color="#60D7AD"/>
<stop offset="0.76" stop-color="#213C3A"/>
</linearGradient>
<linearGradient id="paint2_linear_1752_1073" x1="13.9182" y1="17.3818" x2="15.0518" y2="19.2382" gradientUnits="userSpaceOnUse">
<stop offset="0.11" stop-color="#60D7AD"/>
<stop offset="0.76" stop-color="#213C3A"/>
</linearGradient>
<linearGradient id="paint3_linear_1752_1073" x1="17.17" y1="17.3828" x2="18.1073" y2="19.5206" gradientUnits="userSpaceOnUse">
<stop offset="0.11" stop-color="#60D7AD"/>
<stop offset="0.76" stop-color="#213C3A"/>
</linearGradient>
<linearGradient id="paint4_linear_1752_1073" x1="6.62879" y1="6.00684" x2="12.5411" y2="8.55023" gradientUnits="userSpaceOnUse">
<stop offset="0.11" stop-color="#60D7AD"/>
<stop offset="0.76" stop-color="#213C3A"/>
</linearGradient>
<linearGradient id="paint5_linear_1752_1073" x1="3.57714" y1="3.06543" x2="16.6136" y2="8.73507" gradientUnits="userSpaceOnUse">
<stop offset="0.11" stop-color="#60D7AD"/>
<stop offset="0.76" stop-color="#213C3A"/>
</linearGradient>
</defs>
</svg>
