<svg width="20" height="18" viewBox="0 0 20 18" fill="none" xmlns="http://www.w3.org/2000/svg">
<path opacity="0.95" fill-rule="evenodd" clip-rule="evenodd" d="M1.42071 0.00296048C7.07201 -0.00493393 12.7233 0.00296048 18.3745 0.026639C19.0875 0.187118 19.5374 0.62122 19.7242 1.32896C19.8 2.93791 19.8158 4.54805 19.7715 6.15937C19.6932 6.5172 19.4801 6.63559 19.1322 6.51454C19.0589 6.45705 19.0036 6.38602 18.9665 6.30144C18.9507 4.72289 18.9349 3.14429 18.9191 1.56574C18.8323 1.16321 18.5876 0.918527 18.1851 0.831707C12.6601 0.800134 7.13513 0.800134 1.61014 0.831707C1.20633 0.919801 0.961651 1.16448 0.876105 1.56574C0.852427 4.07561 0.844532 6.58553 0.852427 9.0955C6.88253 9.0955 12.9127 9.0955 18.9428 9.0955C18.9216 8.63268 18.9453 8.17493 19.0138 7.72215C19.2045 7.50615 19.4176 7.48247 19.6531 7.65111C19.7177 7.74322 19.7572 7.84584 19.7715 7.95893C19.8155 9.25471 19.7997 10.5491 19.7242 11.8422C19.5233 12.5639 19.0576 13.0138 18.3271 13.1919C16.5592 13.2156 14.7912 13.2235 13.0232 13.2156C13.0705 13.847 13.1179 14.4784 13.1652 15.1098C14.346 15.017 15.0958 15.5379 15.4147 16.6726C15.4463 17.0357 15.4463 17.3987 15.4147 17.7618C15.3622 17.8715 15.2753 17.9425 15.1542 17.9749C13.3704 17.9828 11.5867 17.9907 9.80289 17.9986C7.98363 18.0062 6.16825 17.9826 4.35684 17.9276C4.28349 17.8701 4.22827 17.799 4.19109 17.7145C4.01047 16.8199 4.25512 16.0701 4.92513 15.465C5.38255 15.1534 5.8877 15.035 6.44055 15.1098C6.48824 14.4825 6.55136 13.859 6.62998 13.2392C4.90936 13.2235 3.18869 13.2076 1.46807 13.1919C0.572968 12.9599 0.0915043 12.3837 0.0236797 11.4633C-0.00789322 8.2273 -0.00789322 4.99121 0.0236797 1.75517C0.100071 0.851001 0.565746 0.266933 1.42071 0.00296048ZM0.852427 9.90057C6.88253 9.90057 12.9127 9.90057 18.9428 9.90057C18.9507 10.4849 18.9428 11.0689 18.9191 11.6528C18.8238 11.9692 18.6264 12.198 18.3271 12.3394C15.5194 12.3943 12.7095 12.418 9.89761 12.4105C7.08569 12.418 4.27586 12.3943 1.46807 12.3394C1.16877 12.198 0.971449 11.9692 0.876105 11.6528C0.852431 11.0689 0.844542 10.4849 0.852427 9.90057ZM7.43505 13.2156C9.0136 13.2156 10.5922 13.2156 12.1707 13.2156C12.231 13.8472 12.2942 14.4787 12.3602 15.1098C10.6552 15.1177 8.95037 15.1098 7.24562 15.0862C7.32423 14.4664 7.38736 13.8428 7.43505 13.2156ZM5.87226 15.9149C8.49272 15.907 11.1132 15.9149 13.7335 15.9386C14.3518 16.1245 14.6517 16.5428 14.6333 17.1935C11.413 17.1935 8.19276 17.1935 4.97248 17.1935C4.96372 16.5408 5.26363 16.1146 5.87226 15.9149Z" fill="url(#paint0_linear_1752_1034)"/>
<path opacity="0.866" fill-rule="evenodd" clip-rule="evenodd" d="M9.75789 10.7051C10.2843 10.7302 10.4263 10.9749 10.1841 11.4391C9.64537 11.6247 9.43227 11.4431 9.54479 10.8945C9.61094 10.8202 9.68198 10.757 9.75789 10.7051Z" fill="url(#paint1_linear_1752_1034)"/>
<defs>
<linearGradient id="paint0_linear_1752_1034" x1="-0.23714" y1="-7.0268e-07" x2="22.8558" y2="10.9681" gradientUnits="userSpaceOnUse">
<stop offset="0.11" stop-color="#60D7AD"/>
<stop offset="0.76" stop-color="#213C3A"/>
</linearGradient>
<linearGradient id="paint1_linear_1752_1034" x1="9.50625" y1="10.7051" x2="10.4576" y2="11.105" gradientUnits="userSpaceOnUse">
<stop offset="0.11" stop-color="#60D7AD"/>
<stop offset="0.76" stop-color="#213C3A"/>
</linearGradient>
</defs>
</svg>
