<svg width="24" height="20" viewBox="0 0 24 20" fill="none" xmlns="http://www.w3.org/2000/svg">
<path opacity="0.939" fill-rule="evenodd" clip-rule="evenodd" d="M23.4769 9.5407C23.4769 9.78524 23.4769 10.0298 23.4769 10.2744C23.1159 11.1964 22.4434 11.5555 21.4593 11.3519C20.9763 11.1822 20.6554 10.8536 20.4964 10.3661C19.5491 10.3126 18.6015 10.3049 17.6535 10.3431C17.4373 11.0911 17.1622 11.8171 16.8282 12.5212C17.9589 12.5594 19.09 12.5823 20.2213 12.5899C20.329 12.6058 20.413 12.6593 20.4735 12.7504C20.5263 14.1682 20.5646 15.5897 20.5881 17.0148C21.4761 17.3845 21.8047 18.0417 21.574 18.9865C21.1959 19.8441 20.5463 20.1575 19.6252 19.9265C18.677 19.4669 18.3942 18.7409 18.7769 17.7484C18.9709 17.4028 19.2537 17.1583 19.6252 17.0148C19.6711 15.823 19.6863 14.6308 19.6711 13.4382C18.5552 13.4306 17.4394 13.4382 16.3238 13.4612C15.1738 15.114 13.6453 16.268 11.7384 16.9231C9.81545 16.2988 8.28702 15.1525 7.15312 13.4841C6.06836 13.4382 4.98315 13.423 3.89753 13.4382C3.88226 14.6308 3.89754 15.823 3.94338 17.0148C4.77819 17.3697 5.10682 17.9964 4.92923 18.8948C4.53904 19.8578 3.84359 20.1865 2.8429 19.8806C2.02833 19.4396 1.76084 18.7748 2.04047 17.886C2.22256 17.4548 2.5359 17.1643 2.98046 17.0148C3.0044 15.5908 3.04261 14.1694 3.0951 12.7504C3.17762 12.6671 3.27697 12.6136 3.39314 12.5899C4.47834 12.5747 5.56352 12.5594 6.64873 12.5441C6.29658 11.8315 6.02146 11.0902 5.82337 10.3202C4.87526 10.3049 3.92761 10.3202 2.98046 10.3661C2.59622 11.2307 1.93898 11.5593 1.00877 11.3519C0.48721 11.1592 0.150951 10.8 0 10.2744C0 10.0298 0 9.78524 0 9.5407C0.361401 8.5803 1.0492 8.22113 2.0634 8.46315C2.51993 8.6522 2.82562 8.98079 2.98046 9.44899C3.85114 9.49485 4.72234 9.51012 5.5941 9.49485C5.45288 8.73556 5.3459 7.97133 5.27313 7.20218C4.60044 7.20984 3.92793 7.20218 3.25558 7.17926C3.15351 7.12299 3.08473 7.0389 3.04924 6.92706C3.0416 5.61236 3.01867 4.29788 2.98046 2.98368C2.07278 2.57409 1.75945 1.88629 2.04047 0.920279C2.40013 0.216922 2.9733 -0.0811248 3.75997 0.0261399C4.5294 0.222699 4.94207 0.719446 4.99801 1.51637C4.93826 2.21719 4.58671 2.70629 3.94338 2.98368C3.89754 4.11433 3.88226 5.24535 3.89753 6.37682C4.32549 6.37682 4.75347 6.37682 5.18142 6.37682C5.0932 5.6766 5.05501 4.97353 5.06679 4.26757C5.15391 4.13455 5.27616 4.05811 5.43362 4.0383C7.84857 4.50197 9.85846 3.80652 11.4633 1.95198C11.6544 1.85634 11.8378 1.87162 12.0136 1.99783C12.9378 3.05902 14.0842 3.76208 15.4526 4.10708C16.3133 4.26734 17.1692 4.24441 18.0203 4.0383C18.3329 4.09099 18.4705 4.2744 18.433 4.58854C18.3893 5.18505 18.3435 5.78114 18.2955 6.37682C18.754 6.37682 19.2125 6.37682 19.6711 6.37682C19.6863 5.24535 19.6711 4.11433 19.6252 2.98368C18.717 2.54498 18.419 1.84189 18.7311 0.874426C19.2027 0.0774681 19.8829 -0.174725 20.7715 0.117846C21.4768 0.496778 21.7595 1.08523 21.6198 1.8832C21.4731 2.43502 21.1292 2.80184 20.5881 2.98368C20.5645 4.34768 20.5263 5.70801 20.4735 7.06462C20.4321 7.11969 20.3786 7.15793 20.313 7.17926C19.6101 7.20218 18.907 7.20984 18.2038 7.20218C18.1241 7.95835 18.0019 8.70727 17.8369 9.44899C18.7234 9.51012 19.6099 9.51012 20.4964 9.44899C20.8803 8.54637 21.5528 8.21779 22.514 8.46315C23.0083 8.6743 23.3292 9.03347 23.4769 9.5407ZM3.34729 0.828573C3.88826 0.872578 4.14046 1.16298 4.10387 1.69979C3.8861 2.16466 3.5422 2.29458 3.07217 2.08954C2.74902 1.79946 2.69552 1.47084 2.91168 1.10369C3.04203 0.981599 3.18723 0.889892 3.34729 0.828573ZM20.0379 0.828573C20.5789 0.872578 20.8311 1.16298 20.7945 1.69979C20.488 2.2654 20.0906 2.34181 19.6023 1.92905C19.3513 1.40675 19.4966 1.03992 20.0379 0.828573ZM11.6926 2.93782C12.6712 3.87071 13.8175 4.52031 15.1316 4.88659C15.9354 5.05015 16.7454 5.08834 17.5618 5.00122C17.4532 6.5424 17.2469 8.07087 16.9428 9.58655C16.5594 11.5692 15.6347 13.2428 14.1687 14.6075C13.4385 15.2211 12.6208 15.6873 11.7155 16.006C9.45449 15.1512 7.89548 13.5922 7.03848 11.329C6.64685 10.2267 6.37173 9.09569 6.21312 7.93583C6.08047 6.96076 5.98111 5.98253 5.91508 5.00122C7.84711 5.22531 9.57426 4.74385 11.0965 3.55684C11.3045 3.35651 11.5032 3.15017 11.6926 2.93782ZM1.32975 9.21973C1.82318 9.19364 2.11359 9.4229 2.20096 9.90753C2.08473 10.4392 1.76376 10.6455 1.23804 10.5265C0.842211 10.2867 0.742865 9.95815 0.939993 9.5407C1.05078 9.40667 1.1807 9.29965 1.32975 9.21973ZM21.8262 9.21973C22.3001 9.21193 22.5752 9.4412 22.6515 9.90753C22.595 10.2927 22.3734 10.522 21.9867 10.5953C21.3928 10.462 21.1941 10.1105 21.3906 9.5407C21.5065 9.38549 21.6517 9.27851 21.8262 9.21973ZM3.30144 17.7943C3.77768 17.7873 4.0528 18.0165 4.1268 18.4821C3.97745 19.1146 3.61063 19.2904 3.02632 19.0094C2.73828 18.7224 2.70007 18.4091 2.91168 18.0694C3.01815 17.9367 3.14807 17.845 3.30144 17.7943ZM19.992 17.7943C20.4547 17.7882 20.7298 18.0098 20.8174 18.4592C20.6805 19.1084 20.3137 19.2918 19.7169 19.0094C19.4289 18.7224 19.3907 18.4091 19.6023 18.0694C19.7088 17.9367 19.8387 17.845 19.992 17.7943Z" fill="url(#paint0_linear_1746_1342)"/>
<path opacity="0.939" fill-rule="evenodd" clip-rule="evenodd" d="M11.5561 7.24805C12.6304 7.25254 13.2265 7.78747 13.3444 8.85291C13.2967 9.62151 12.9146 10.1412 12.1981 10.4119C12.1599 11.0227 12.1369 11.6341 12.1293 12.2461C11.9964 12.4595 11.8054 12.5283 11.5561 12.4524C11.4612 12.4089 11.3924 12.3401 11.3498 12.2461C11.3421 11.6341 11.3192 11.0227 11.281 10.4119C10.3006 10.0012 9.95675 9.28279 10.2493 8.25682C10.5063 7.68205 10.9419 7.34581 11.5561 7.24805ZM11.5103 8.11926C11.0925 8.32817 10.932 8.66441 11.0288 9.12803C11.4163 9.72559 11.8596 9.77145 12.3585 9.26559C12.599 8.50424 12.3163 8.12215 11.5103 8.11926Z" fill="url(#paint1_linear_1746_1342)"/>
<defs>
<linearGradient id="paint0_linear_1746_1342" x1="-0.281233" y1="-7.80756e-07" x2="26.4214" y2="13.5366" gradientUnits="userSpaceOnUse">
<stop offset="0.11" stop-color="#60D7AD"/>
<stop offset="0.76" stop-color="#213C3A"/>
</linearGradient>
<linearGradient id="paint1_linear_1746_1342" x1="10.1102" y1="7.24805" x2="14.3823" y2="8.37458" gradientUnits="userSpaceOnUse">
<stop offset="0.11" stop-color="#60D7AD"/>
<stop offset="0.76" stop-color="#213C3A"/>
</linearGradient>
</defs>
</svg>
