<svg width="22" height="22" viewBox="0 0 22 22" fill="none" xmlns="http://www.w3.org/2000/svg">
<path opacity="0.945" fill-rule="evenodd" clip-rule="evenodd" d="M10.0117 0C10.6706 0 11.3294 0 11.9883 0C12.311 0.0530421 12.6405 0.103172 12.9766 0.150391C13.431 0.178411 13.61 0.414739 13.5137 0.859375C13.4474 0.940083 13.3686 1.00454 13.2773 1.05273C12.5127 0.97894 11.7465 0.914487 10.9785 0.859375C7.10067 1.02833 4.16446 2.76141 2.16992 6.05859C0.799567 8.6093 0.527433 11.2734 1.35352 14.0508C1.7206 15.1934 2.27204 16.2319 3.00781 17.166C3.95102 16.7927 4.74594 17.0004 5.39258 17.7891C5.91332 18.7745 5.74862 19.6267 4.89844 20.3457C3.9088 20.8575 3.05659 20.6928 2.3418 19.8516C1.97834 19.1819 1.97118 18.5087 2.32031 17.832C0.999169 16.1032 0.225731 14.1553 0 11.9883C0 11.3294 0 10.6706 0 10.0117C0.551998 5.67746 2.81502 2.6052 6.78906 0.794922C7.83406 0.386846 8.90828 0.121872 10.0117 0ZM3.82422 17.875C4.40563 17.9264 4.73503 18.2416 4.8125 18.8203C4.6435 19.621 4.17085 19.886 3.39453 19.6152C2.91686 19.2223 2.83809 18.7568 3.1582 18.2187C3.3456 18.0284 3.5676 17.9138 3.82422 17.875Z" fill="url(#paint0_linear_1746_1344)"/>
<path opacity="0.945" fill-rule="evenodd" clip-rule="evenodd" d="M21.9916 10.0117C21.9916 10.6706 21.9916 11.3294 21.9916 11.9883C21.4588 16.1843 19.296 19.2136 15.5034 21.0762C14.3694 21.5601 13.1949 21.868 11.9799 22C11.3211 22 10.6622 22 10.0034 22C9.56181 21.9398 9.11781 21.861 8.67132 21.7637C8.37716 21.4742 8.39147 21.2021 8.71429 20.9473C12.108 21.5527 15.1158 20.7507 17.7377 18.541C20.3701 16.0586 21.4514 13.015 20.9819 9.41016C20.7062 7.70782 20.0402 6.18243 18.9838 4.83399C18.0406 5.20725 17.2457 4.99959 16.5991 4.21094C16.0783 3.2255 16.243 2.37329 17.0932 1.6543C17.7807 1.2819 18.4682 1.2819 19.1557 1.6543C19.988 2.35085 20.1598 3.18874 19.6713 4.16797C20.9925 5.89677 21.7659 7.84468 21.9916 10.0117ZM17.8666 2.27734C18.7037 2.21921 19.0833 2.60593 19.0053 3.4375C18.8557 3.84592 18.5621 4.07509 18.1244 4.125C17.5659 4.05338 17.2508 3.73828 17.1791 3.17969C17.234 2.73841 17.4631 2.43763 17.8666 2.27734Z" fill="url(#paint1_linear_1746_1344)"/>
<path opacity="0.949" fill-rule="evenodd" clip-rule="evenodd" d="M9.4524 3.17847C10.4837 3.17131 11.515 3.17847 12.5461 3.19995C12.6699 3.25369 12.7487 3.34679 12.7825 3.47925C12.7897 3.79532 12.8112 4.11042 12.8469 4.42456C13.3784 4.585 13.8869 4.79985 14.3723 5.06909C14.58 4.86142 14.7877 4.65371 14.9954 4.44604C15.1816 4.36011 15.3678 4.36011 15.554 4.44604C16.2057 5.09775 16.8573 5.74941 17.509 6.40112C17.6523 6.61597 17.6523 6.83081 17.509 7.04565C17.3157 7.23901 17.1223 7.43237 16.929 7.62573C17.1982 8.11115 17.413 8.61964 17.5735 9.15112C17.8876 9.18683 18.2027 9.20831 18.5188 9.21557C18.722 9.27556 18.8294 9.4116 18.8411 9.62378C18.8822 10.5999 18.8679 11.5739 18.7981 12.5457C18.7345 12.6816 18.6271 12.7603 18.4758 12.782C18.174 12.7892 17.8732 12.8107 17.5735 12.8464C17.4129 13.3784 17.1981 13.8869 16.929 14.3718C17.1667 14.5952 17.3887 14.8315 17.595 15.0808C17.6412 15.2681 17.6125 15.4399 17.509 15.5964C16.8717 16.2338 16.2343 16.8712 15.5969 17.5085C15.3821 17.6518 15.1672 17.6518 14.9524 17.5085C14.759 17.3152 14.5657 17.1218 14.3723 16.9285C13.8868 17.1962 13.3784 17.4111 12.8469 17.573C12.8112 17.8871 12.7897 18.2022 12.7825 18.5183C12.7487 18.6508 12.6699 18.7439 12.5461 18.7976C11.5149 18.8263 10.4836 18.8263 9.4524 18.7976C9.32861 18.7439 9.24984 18.6508 9.21607 18.5183C9.20881 18.2022 9.18733 17.8871 9.15162 17.573C8.62018 17.4111 8.11173 17.1962 7.62623 16.9285C7.40111 17.1824 7.15048 17.4044 6.87427 17.5945C6.70446 17.6337 6.5469 17.605 6.40162 17.5085C5.72005 16.8413 5.05403 16.161 4.40357 15.4675C4.36761 15.3045 4.38192 15.1469 4.44654 14.9949C4.65421 14.7872 4.86192 14.5795 5.06959 14.3718C4.80181 13.8863 4.58696 13.3779 4.42506 12.8464C4.079 12.8208 3.73525 12.785 3.39381 12.739C3.24545 12.6648 3.16668 12.543 3.15748 12.3738C3.15175 11.3998 3.16607 10.4258 3.20045 9.4519C3.25418 9.32811 3.34728 9.24935 3.47974 9.21557C3.79582 9.20831 4.11092 9.18683 4.42506 9.15112C4.5855 8.61964 4.80035 8.11115 5.06959 7.62573C4.87623 7.43237 4.68287 7.23901 4.48951 7.04565C4.3686 6.85204 4.35429 6.6515 4.44654 6.44409C5.12811 5.74817 5.82279 5.06784 6.53052 4.40307C6.69359 4.36711 6.85111 4.38142 7.00318 4.44604C7.21085 4.65371 7.41856 4.86142 7.62623 5.06909C8.11165 4.79985 8.62014 4.585 9.15162 4.42456C9.18733 4.11042 9.20881 3.79532 9.21607 3.47925C9.25762 3.34516 9.33638 3.2449 9.4524 3.17847ZM10.0969 4.03784C10.6985 4.03784 11.3001 4.03784 11.9016 4.03784C11.8945 4.33897 11.9016 4.63975 11.9231 4.94018C11.9713 5.03145 12.0358 5.11021 12.1165 5.17651C12.4197 5.25373 12.7205 5.33966 13.0188 5.43432C13.5054 5.63473 13.978 5.85675 14.4368 6.10034C14.526 6.09209 14.612 6.07061 14.6946 6.03589C14.8879 5.84253 15.0813 5.64917 15.2747 5.45581C15.6972 5.87832 16.1197 6.30088 16.5422 6.72339C16.3489 6.91675 16.1555 7.11011 15.9622 7.30347C15.8996 7.42661 15.8852 7.55552 15.9192 7.69018C16.3498 8.36539 16.6506 9.09586 16.8215 9.88159C16.8878 9.96229 16.9666 10.0267 17.0579 10.0749C17.3583 10.0964 17.6591 10.1036 17.9602 10.0964C17.9602 10.698 17.9602 11.2996 17.9602 11.9011C17.6591 11.894 17.3583 11.9011 17.0579 11.9226C16.9531 11.9559 16.8743 12.0203 16.8215 12.116C16.6511 12.9008 16.3503 13.6313 15.9192 14.3074C15.8852 14.442 15.8996 14.5709 15.9622 14.6941C16.1555 14.8874 16.3489 15.0808 16.5422 15.2742C16.1197 15.6967 15.6972 16.1192 15.2747 16.5417C15.0813 16.3484 14.8879 16.155 14.6946 15.9617C14.5714 15.8991 14.4425 15.8848 14.3079 15.9187C13.6264 16.3369 12.896 16.6377 12.1165 16.821C12.0208 16.8738 11.9564 16.9526 11.9231 17.0574C11.9016 17.3578 11.8945 17.6586 11.9016 17.9597C11.3001 17.9597 10.6985 17.9597 10.0969 17.9597C10.1041 17.6586 10.0969 17.3578 10.0754 17.0574C10.0422 16.9526 9.97774 16.8738 9.88209 16.821C9.10259 16.6377 8.37212 16.3369 7.69068 15.9187C7.55602 15.8848 7.42711 15.8991 7.30396 15.9617C7.1106 16.155 6.91724 16.3484 6.72388 16.5417C6.30137 16.1192 5.87882 15.6967 5.45631 15.2742C5.64967 15.0808 5.84303 14.8874 6.03638 14.6941C6.09899 14.5709 6.1133 14.442 6.07935 14.3074C5.64825 13.6313 5.34747 12.9008 5.17701 12.116C5.12429 12.0203 5.04548 11.9559 4.94068 11.9226C4.64024 11.9011 4.33946 11.894 4.03834 11.9011C4.03687 11.2991 4.0512 10.6975 4.08131 10.0964C4.36812 10.1036 4.6546 10.0964 4.94068 10.0749C5.03195 10.0267 5.11071 9.96229 5.17701 9.88159C5.34798 9.09586 5.64876 8.36539 6.07935 7.69018C6.1133 7.55552 6.09899 7.42661 6.03638 7.30347C5.84303 7.11011 5.64967 6.91675 5.45631 6.72339C5.87882 6.30088 6.30137 5.87832 6.72388 5.45581C6.91724 5.64917 7.1106 5.84253 7.30396 6.03589C7.38659 6.07061 7.47253 6.09209 7.56177 6.10034C8.02051 5.85675 8.49317 5.63473 8.97974 5.43432C9.2782 5.33958 9.57899 5.25364 9.88209 5.17651C9.96278 5.11021 10.0272 5.03145 10.0754 4.94018C10.0969 4.63975 10.1041 4.33897 10.0969 4.03784Z" fill="url(#paint2_linear_1746_1344)"/>
<path opacity="0.944" fill-rule="evenodd" clip-rule="evenodd" d="M10.5757 7.43411C12.456 7.35311 13.7379 8.18383 14.4214 9.92629C14.8408 11.6718 14.318 13.0539 12.8531 14.0728C11.4134 14.8144 10.0384 14.7141 8.72807 13.772C7.57251 12.724 7.19297 11.4421 7.5894 9.92629C8.09969 8.50592 9.09511 7.67521 10.5757 7.43411ZM10.6187 8.33645C10.3091 8.40396 10.0083 8.51138 9.71635 8.65872C8.36825 9.57468 8.01732 10.785 8.66361 12.2896C9.57958 13.6377 10.7899 13.9886 12.2945 13.3423C13.4388 12.603 13.8613 11.5646 13.5621 10.2271C13.0378 8.89479 12.0567 8.26456 10.6187 8.33645Z" fill="url(#paint3_linear_1746_1344)"/>
<defs>
<linearGradient id="paint0_linear_1746_1344" x1="-0.162185" y1="-8.05589e-07" x2="17.756" y2="5.07687" gradientUnits="userSpaceOnUse">
<stop offset="0.11" stop-color="#60D7AD"/>
<stop offset="0.76" stop-color="#213C3A"/>
</linearGradient>
<linearGradient id="paint1_linear_1746_1344" x1="8.29885" y1="1.375" x2="26.2063" y2="6.44847" gradientUnits="userSpaceOnUse">
<stop offset="0.11" stop-color="#60D7AD"/>
<stop offset="0.76" stop-color="#213C3A"/>
</linearGradient>
<linearGradient id="paint2_linear_1746_1344" x1="2.96808" y1="3.17578" x2="21.8708" y2="11.3728" gradientUnits="userSpaceOnUse">
<stop offset="0.11" stop-color="#60D7AD"/>
<stop offset="0.76" stop-color="#213C3A"/>
</linearGradient>
<linearGradient id="paint3_linear_1746_1344" x1="7.35216" y1="7.42871" x2="15.9401" y2="11.1322" gradientUnits="userSpaceOnUse">
<stop offset="0.11" stop-color="#60D7AD"/>
<stop offset="0.76" stop-color="#213C3A"/>
</linearGradient>
</defs>
</svg>
