<svg width="19" height="20" viewBox="0 0 19 20" fill="none" xmlns="http://www.w3.org/2000/svg">
<path opacity="0.932" fill-rule="evenodd" clip-rule="evenodd" d="M7.12802 0C7.55771 0 7.98739 0 8.41707 0C9.79596 0.22753 10.9027 0.898083 11.7373 2.01166C12.1372 1.90052 12.5474 1.8289 12.9678 1.79682C14.6072 1.91282 15.6098 2.77217 15.9756 4.37487C16.0069 4.68928 16.0004 5.00177 15.956 5.31234C17.6866 5.97385 18.4223 7.22381 18.163 9.06223C17.9035 9.98576 17.3632 10.6953 16.542 11.1911C16.341 11.2797 16.1327 11.3449 15.917 11.3864C15.279 11.4124 14.6409 11.4124 14.0029 11.3864C13.7946 11.1911 13.7946 10.9958 14.0029 10.8005C14.6128 10.7508 15.2248 10.7248 15.8388 10.7223C16.3459 10.5671 16.7561 10.2741 17.0693 9.84346C17.7843 8.79607 17.7582 7.76743 16.9912 6.75761C16.5672 6.28841 16.0398 6.00846 15.4092 5.91779C15.2867 5.86834 15.2216 5.77721 15.2139 5.64436C15.5612 4.26929 15.1055 3.26671 13.8467 2.63664C13.1332 2.37125 12.4431 2.42333 11.7764 2.79289C11.643 2.82778 11.5193 2.80825 11.4053 2.73429C10.5643 1.40845 9.35342 0.70535 7.77255 0.624982C5.90831 0.729557 4.59326 1.62797 3.82729 3.32021C3.53991 4.06961 3.46827 4.83779 3.61245 5.62483C3.59272 5.72983 3.54065 5.81448 3.4562 5.87873C2.69627 5.85862 2.0192 6.07998 1.42498 6.54278C0.666181 7.34197 0.477383 8.25991 0.858581 9.2966C1.16507 10.0199 1.69241 10.4951 2.44059 10.7223C3.01615 10.7243 3.58905 10.7503 4.15932 10.8005C4.41908 10.9975 4.41908 11.1928 4.15932 11.3864C3.56038 11.4124 2.96141 11.4124 2.36247 11.3864C1.39599 11.1364 0.699388 10.557 0.272651 9.64815C-0.166358 8.56026 -0.0752149 7.51861 0.546085 6.52325C1.12801 5.7537 1.90274 5.33707 2.87027 5.27328C2.80316 3.16063 3.67553 1.57864 5.48742 0.527328C6.01511 0.275424 6.56198 0.0996475 7.12802 0Z" fill="url(#paint0_linear_1889_1115)"/>
<path opacity="0.907" fill-rule="evenodd" clip-rule="evenodd" d="M8.69536 3.51608C9.14691 3.45296 9.30968 3.63525 9.18363 4.06294C9.1282 4.10044 9.06961 4.13298 9.00785 4.1606C8.83801 4.18298 8.66875 4.20903 8.50005 4.23872C8.06755 4.3011 7.91783 4.12532 8.05083 3.71139C8.09658 3.65697 8.15517 3.62442 8.22661 3.61374C8.38931 3.58618 8.54555 3.55363 8.69536 3.51608Z" fill="url(#paint1_linear_1889_1115)"/>
<path opacity="0.922" fill-rule="evenodd" clip-rule="evenodd" d="M9.94611 3.55469C11.7283 3.78265 13.0304 4.68758 13.8523 6.26945C13.7916 6.55163 13.6224 6.65581 13.3445 6.58194C13.1297 6.28898 12.9148 5.99602 12.7 5.70306C11.9407 4.85777 10.9967 4.34349 9.86798 4.16014C9.65623 3.92901 9.68228 3.72718 9.94611 3.55469Z" fill="url(#paint2_linear_1889_1115)"/>
<path opacity="0.928" fill-rule="evenodd" clip-rule="evenodd" d="M9.42741 20.0002C9.21909 20.0002 9.01074 20.0002 8.80242 20.0002C8.32161 19.8644 8.01563 19.5519 7.88446 19.0627C7.84114 18.3608 7.82161 17.6577 7.82587 16.9534C7.82161 16.2492 7.84114 15.5461 7.88446 14.8441C8.01817 14.3914 8.31114 14.1049 8.76336 13.9848C8.76336 13.7634 8.76336 13.5421 8.76336 13.3207C6.91084 13.0765 5.70645 12.0609 5.15013 10.2739C4.76763 8.36431 5.37309 6.86045 6.96651 5.76236C8.4316 4.94531 9.88994 4.95832 11.3414 5.80142C12.8794 6.91158 13.4588 8.40244 13.0797 10.2739C12.5259 12.058 11.3214 13.0736 9.46647 13.3207C9.45362 13.5436 9.46667 13.7649 9.50553 13.9848C9.96139 14.1605 10.2413 14.486 10.3454 14.9613C10.3519 15.6319 10.3584 16.3024 10.3649 16.973C10.3704 17.6976 10.3509 18.4202 10.3063 19.1409C10.1468 19.5673 9.85385 19.8538 9.42741 20.0002ZM8.84148 5.82095C10.4119 5.80829 11.5512 6.49839 12.2594 7.8912C12.8462 9.58767 12.436 10.9874 11.029 12.0903C9.84037 12.8 8.62945 12.8391 7.39619 12.2075C6.06265 11.3304 5.52231 10.0999 5.77512 8.51618C6.22164 6.95607 7.24377 6.05766 8.84148 5.82095ZM8.91961 14.6098C9.29276 14.5476 9.54667 14.6908 9.68131 15.0394C9.70737 16.3154 9.70737 17.5914 9.68131 18.8674C9.51651 19.3305 9.2105 19.4542 8.76336 19.2385C8.66156 19.1628 8.58996 19.0652 8.54852 18.9456C8.52246 17.6305 8.52246 16.3154 8.54852 15.0004C8.6275 14.8238 8.75121 14.6936 8.91961 14.6098Z" fill="url(#paint3_linear_1889_1115)"/>
<path opacity="0.927" fill-rule="evenodd" clip-rule="evenodd" d="M8.99292 6.21095C9.626 6.20966 10.2119 6.37242 10.7507 6.69921C10.9632 6.91178 10.9502 7.10709 10.7116 7.28513C10.6075 7.31119 10.5033 7.31119 10.3992 7.28513C9.40659 6.71249 8.45609 6.77761 7.54763 7.48044C7.00893 7.97874 6.74202 8.5972 6.74686 9.33585C6.65491 9.5544 6.49214 9.626 6.25859 9.55069C6.213 9.50511 6.16745 9.45956 6.12187 9.41398C6.09425 7.87926 6.80385 6.85718 8.25075 6.34766C8.50098 6.28665 8.7484 6.24106 8.99292 6.21095Z" fill="url(#paint4_linear_1889_1115)"/>
<defs>
<linearGradient id="paint0_linear_1889_1115" x1="-0.218185" y1="-4.45262e-07" x2="17.4291" y2="12.1701" gradientUnits="userSpaceOnUse">
<stop offset="0.11" stop-color="#60D7AD"/>
<stop offset="0.76" stop-color="#213C3A"/>
</linearGradient>
<linearGradient id="paint1_linear_1889_1115" x1="7.98928" y1="3.50391" x2="9.15445" y2="4.32631" gradientUnits="userSpaceOnUse">
<stop offset="0.11" stop-color="#60D7AD"/>
<stop offset="0.76" stop-color="#213C3A"/>
</linearGradient>
<linearGradient id="paint2_linear_1889_1115" x1="9.67714" y1="3.55469" x2="14.0751" y2="6.12367" gradientUnits="userSpaceOnUse">
<stop offset="0.11" stop-color="#60D7AD"/>
<stop offset="0.76" stop-color="#213C3A"/>
</linearGradient>
<linearGradient id="paint3_linear_1889_1115" x1="4.9414" y1="5.15918" x2="15.9767" y2="7.77729" gradientUnits="userSpaceOnUse">
<stop offset="0.11" stop-color="#60D7AD"/>
<stop offset="0.76" stop-color="#213C3A"/>
</linearGradient>
<linearGradient id="paint4_linear_1889_1115" x1="6.06384" y1="6.21094" x2="11.032" y2="9.25527" gradientUnits="userSpaceOnUse">
<stop offset="0.11" stop-color="#60D7AD"/>
<stop offset="0.76" stop-color="#213C3A"/>
</linearGradient>
</defs>
</svg>
