<svg width="22" height="22" viewBox="0 0 22 22" fill="none" xmlns="http://www.w3.org/2000/svg">
<path opacity="0.936" fill-rule="evenodd" clip-rule="evenodd" d="M8.76459 0C10.2549 0 11.7451 0 13.2354 0C13.2207 0.723605 13.2355 1.44661 13.2797 2.16901C14.1111 2.39444 14.9006 2.71905 15.6479 3.14286C16.179 2.66334 16.6881 2.16166 17.1751 1.63783C17.4695 1.91014 17.7572 2.19049 18.0382 2.47887C18.1741 2.90385 18.0192 3.0883 17.5734 3.03219C17.4349 2.938 17.3095 2.82733 17.1972 2.7002C16.7244 3.18038 16.2449 3.65254 15.7586 4.1167C14.7627 3.44038 13.6708 2.99772 12.4829 2.78873C12.4829 2.10999 12.4829 1.43125 12.4829 0.752515C11.4943 0.752515 10.5057 0.752515 9.5171 0.752515C9.5171 1.43125 9.5171 2.10999 9.5171 2.78873C8.32968 3.01741 7.23043 3.46007 6.21932 4.1167C5.74713 3.64453 5.275 3.17237 4.80282 2.7002C4.10195 3.40107 3.40107 4.10195 2.7002 4.80282C3.17237 5.275 3.64453 5.74713 4.1167 6.21932C3.43668 7.20378 2.99403 8.28829 2.78873 9.47284C2.10999 9.47284 1.43125 9.47284 0.752515 9.47284C0.752515 10.4762 0.752515 11.4795 0.752515 12.4829C1.43125 12.4829 2.10999 12.4829 2.78873 12.4829C3.03253 13.6573 3.47519 14.7492 4.1167 15.7586C3.65929 16.2307 3.20188 16.7029 2.74447 17.1751C3.43863 17.8766 4.12474 18.5848 4.80282 19.2998C5.27562 18.8196 5.75515 18.3475 6.24145 17.8833C7.22118 18.5574 8.29829 19.0001 9.47284 19.2113C9.47284 19.89 9.47284 20.5688 9.47284 21.2475C10.4762 21.2475 11.4795 21.2475 12.4829 21.2475C12.4829 20.5688 12.4829 19.89 12.4829 19.2113C13.6636 18.985 14.7555 18.5423 15.7586 17.8833C16.2227 18.3253 16.6801 18.7753 17.1308 19.2334C17.1603 19.2629 17.1898 19.2629 17.2193 19.2334C17.898 18.5547 18.5768 17.8759 19.2555 17.1972C18.7815 16.7379 18.3241 16.2658 17.8833 15.7807C18.5269 14.7808 18.9695 13.6963 19.2113 12.5272C19.8894 12.4829 20.5681 12.4682 21.2475 12.4829C21.2475 11.4795 21.2475 10.4762 21.2475 9.47284C20.5686 9.48023 19.8899 9.47284 19.2113 9.4507C18.9573 8.31959 18.522 7.2646 17.9054 6.28571C17.8759 6.24145 17.8759 6.19718 17.9054 6.15292C18.3555 5.70287 18.8055 5.25287 19.2555 4.80282C18.9521 4.52824 18.9669 4.27738 19.2998 4.0503C19.3883 4.02079 19.4769 4.02079 19.5654 4.0503C19.8463 4.27216 20.0971 4.52301 20.3179 4.80282C19.831 5.31926 19.3441 5.83567 18.8571 6.35211C19.2665 7.10445 19.5838 7.89388 19.8089 8.72032C20.521 8.76419 21.2367 8.77897 21.9557 8.76459C21.9557 10.2549 21.9557 11.7451 21.9557 13.2354C21.2367 13.221 20.521 13.2358 19.8089 13.2797C19.6041 14.1155 19.2868 14.9049 18.8571 15.6479C19.3201 16.1551 19.7996 16.6494 20.2958 17.1308C20.3253 17.1751 20.3253 17.2193 20.2958 17.2636C19.2623 18.3044 18.2221 19.3373 17.1751 20.3622C16.6586 19.8605 16.1422 19.3588 15.6258 18.8571C14.8791 19.2683 14.097 19.5929 13.2797 19.831C13.2355 20.5534 13.2207 21.2764 13.2354 22C11.7451 22 10.2549 22 8.76459 22C8.76459 21.277 8.76459 20.554 8.76459 19.831C7.90424 19.6279 7.09272 19.3032 6.32998 18.8571C5.81415 19.3508 5.3051 19.8525 4.80282 20.3622C3.73181 19.306 2.67681 18.2362 1.63783 17.1529C2.14751 16.6506 2.64919 16.1416 3.14286 15.6258C2.72742 14.8834 2.41018 14.1014 2.19115 13.2797C1.46419 13.2358 0.733808 13.221 0 13.2354C0 11.7451 0 10.2549 0 8.76459C0.723003 8.76459 1.44601 8.76459 2.16901 8.76459C2.3581 7.89942 2.68272 7.08785 3.14286 6.32998C2.65656 5.82155 2.16227 5.31988 1.65996 4.82495C1.63045 4.79542 1.63045 4.76594 1.65996 4.73642C2.7217 3.71158 3.7767 2.67871 4.82495 1.63783C5.3414 2.1395 5.8578 2.64118 6.37425 3.14286C7.12539 2.70559 7.92217 2.38098 8.76459 2.16901C8.76459 1.44601 8.76459 0.723003 8.76459 0Z" fill="url(#paint0_linear_1746_1341)"/>
<path opacity="0.918" fill-rule="evenodd" clip-rule="evenodd" d="M19.4315 2.12367C19.8389 2.11066 19.9938 2.30248 19.8962 2.69912C16.553 6.05715 13.1962 9.3992 9.82582 12.7253C9.7963 12.7548 9.76682 12.7548 9.73729 12.7253C8.87411 11.9211 8.01093 11.117 7.14775 10.3128C7.03147 9.99936 7.13474 9.80751 7.45761 9.73735C7.54468 9.73921 7.62587 9.76134 7.70107 9.80375C8.3798 10.4235 9.05857 11.0432 9.73729 11.6629C9.76682 11.6924 9.7963 11.6924 9.82582 11.6629C13.0095 8.45705 16.2114 5.27732 19.4315 2.12367Z" fill="url(#paint1_linear_1746_1341)"/>
<path opacity="0.93" fill-rule="evenodd" clip-rule="evenodd" d="M10.5368 4.73598C11.9638 4.66343 13.277 5.01016 14.4764 5.77622C14.5988 5.90879 14.6357 6.06372 14.5871 6.24101C14.4746 6.44326 14.3049 6.50966 14.078 6.4402C12.1512 5.24149 10.1888 5.18248 8.19071 6.26314C6.03736 7.70075 5.18897 9.7001 5.64544 12.2611C6.44908 14.9087 8.23449 16.3252 11.0016 16.5106C13.6201 16.3405 15.3759 15.0272 16.2692 12.571C16.6165 11.3759 16.5722 10.1955 16.1364 9.02974C15.9444 8.62391 15.76 8.21818 15.5831 7.81244C15.6532 7.48956 15.8451 7.38629 16.1585 7.50258C16.6776 8.20932 17.0096 8.99875 17.1545 9.87079C17.5179 12.5004 16.64 14.603 14.5207 16.1786C12.2975 17.5494 10.04 17.6084 7.74805 16.3557C5.43872 14.7863 4.47227 12.6099 4.84866 9.82652C5.4265 7.30533 6.95366 5.6749 9.43015 4.93517C9.80264 4.85372 10.1715 4.78733 10.5368 4.73598Z" fill="url(#paint2_linear_1746_1341)"/>
<defs>
<linearGradient id="paint0_linear_1746_1341" x1="-0.263011" y1="-8.58831e-07" x2="26.2096" y2="11.4095" gradientUnits="userSpaceOnUse">
<stop offset="0.11" stop-color="#60D7AD"/>
<stop offset="0.76" stop-color="#213C3A"/>
</linearGradient>
<linearGradient id="paint1_linear_1746_1341" x1="6.94795" y1="2.12305" x2="21.3643" y2="9.6373" gradientUnits="userSpaceOnUse">
<stop offset="0.11" stop-color="#60D7AD"/>
<stop offset="0.76" stop-color="#213C3A"/>
</linearGradient>
<linearGradient id="paint2_linear_1746_1341" x1="4.62021" y1="4.72656" x2="19.663" y2="11.191" gradientUnits="userSpaceOnUse">
<stop offset="0.11" stop-color="#60D7AD"/>
<stop offset="0.76" stop-color="#213C3A"/>
</linearGradient>
</defs>
</svg>
