<svg width="18" height="19" viewBox="0 0 18 19" fill="none" xmlns="http://www.w3.org/2000/svg">
<path opacity="0.935" fill-rule="evenodd" clip-rule="evenodd" d="M15.887 11.5493C16.5057 11.4837 17.0367 11.6632 17.4802 12.0878C17.9307 12.7661 17.8484 13.372 17.2334 13.9054C15.3552 15.3756 13.4853 16.8566 11.6235 18.3484C11.3 18.5545 10.9484 18.6667 10.5689 18.685C8.55399 18.2374 6.53445 17.8036 4.5103 17.3835C4.29088 17.3968 4.08893 17.4641 3.90443 17.5855C3.64118 17.7664 3.37191 17.9384 3.09662 18.1016C3.10488 18.4666 2.9553 18.7434 2.64784 18.9318C1.96214 19.0037 1.274 19.0187 0.583422 18.9767C0.315565 18.9184 0.128569 18.7614 0.0224404 18.5055C-0.00748013 16.6056 -0.00748013 14.7057 0.0224404 12.8059C0.102261 12.6213 0.229416 12.4793 0.403908 12.3795C0.775256 12.33 1.14925 12.3076 1.52587 12.3122C1.9025 12.3076 2.27647 12.33 2.64784 12.3795C2.92698 12.5253 3.09155 12.7572 3.1415 13.0752C3.79071 12.6876 4.43396 12.2912 5.07128 11.8859C5.32848 11.7656 5.59775 11.7207 5.87909 11.7512C6.15559 11.7985 6.42486 11.8733 6.68691 11.9756C8.2726 12.5441 9.85834 13.1125 11.444 13.681C11.5452 13.7428 11.6424 13.8101 11.7357 13.883C12.839 13.2229 13.9385 12.5572 15.0343 11.8859C15.3083 11.7325 15.5925 11.6203 15.887 11.5493ZM15.887 12.3571C16.2181 12.3207 16.5322 12.3731 16.8295 12.5142C16.9956 12.6666 17.048 12.8536 16.9865 13.0752C15.1281 14.5146 13.2955 15.9881 11.4889 17.4957C11.2467 17.7028 10.97 17.8449 10.6587 17.922C8.61354 17.4651 6.56407 17.0313 4.5103 16.6206C3.97638 16.6781 3.49766 16.8725 3.07418 17.204C3.04425 16.112 3.04425 15.0199 3.07418 13.9279C3.85583 13.451 4.64121 12.9797 5.43031 12.5142C5.62476 12.4244 5.81927 12.4244 6.01373 12.5142C7.75587 13.1248 9.49119 13.7531 11.2196 14.3991C11.6512 14.8204 11.6363 15.2243 11.1748 15.6108C10.9354 15.7006 10.696 15.7006 10.4567 15.6108C9.4893 15.2243 8.51692 14.8504 7.5396 14.4888C7.09633 14.469 6.9542 14.671 7.11325 15.0947C8.17494 15.5384 9.24458 15.9648 10.3221 16.3737C11.3305 16.629 11.9812 16.2625 12.2743 15.2742C12.3096 15.0369 12.2872 14.805 12.207 14.5786C12.2135 14.5439 12.2284 14.514 12.2518 14.4888C13.4545 13.7532 14.6663 13.0426 15.887 12.3571ZM0.718058 13.0752C1.2566 13.0752 1.79514 13.0752 2.33369 13.0752C2.33369 14.7955 2.33369 16.5159 2.33369 18.2362C1.79514 18.2362 1.2566 18.2362 0.718058 18.2362C0.718058 16.5159 0.718058 14.7955 0.718058 13.0752Z" fill="url(#paint0_linear_1889_1117)"/>
<path opacity="0.948" fill-rule="evenodd" clip-rule="evenodd" d="M9.50213 0.00147115C9.84825 -0.00245299 10.1943 0.0014735 10.5402 0.0132483C10.6566 0.0220835 10.7719 0.0377871 10.8862 0.0603567C10.9562 0.0956881 11.0098 0.146723 11.0469 0.213459C11.1121 0.439269 11.1821 0.663034 11.2569 0.884755C11.6536 0.998965 12.0326 1.15207 12.3939 1.34406C12.6163 1.23022 12.8387 1.11637 13.0612 1.00253C13.1353 0.986822 13.2095 0.986822 13.2836 1.00253C13.7399 1.31958 14.1395 1.69252 14.4823 2.12135C14.5195 2.20471 14.5277 2.29106 14.507 2.38045C14.3876 2.59244 14.2681 2.80443 14.1487 3.01641C14.3467 3.34313 14.4992 3.68858 14.6059 4.0528C14.6183 4.08029 14.6388 4.09991 14.6677 4.11168C14.889 4.17815 15.1114 4.24097 15.335 4.30012C15.405 4.33545 15.4586 4.38649 15.4957 4.45322C15.578 5.00281 15.578 5.55243 15.4957 6.10202C15.4205 6.24577 15.3011 6.29679 15.1373 6.25512C15.0673 6.21979 15.0137 6.16875 14.9766 6.10202C14.9922 5.82792 15.0045 5.55313 15.0137 5.27762C15.0147 5.10384 15.0024 4.93109 14.9766 4.75943C14.744 4.68815 14.5092 4.62142 14.2722 4.55922C14.2281 4.54073 14.191 4.51326 14.161 4.47678C14.0314 3.99422 13.8337 3.53885 13.5678 3.11063C13.5514 3.04781 13.5514 2.98502 13.5678 2.9222C13.6858 2.7209 13.797 2.51676 13.9015 2.30979C13.6936 2.04478 13.4546 1.80532 13.1848 1.59138C13.1518 1.57568 13.1188 1.57568 13.0859 1.59138C12.8708 1.7292 12.6401 1.83519 12.3939 1.90936C12.3609 1.90543 12.3279 1.90152 12.295 1.89759C11.8638 1.64805 11.4024 1.46746 10.9109 1.35584C10.8491 1.32836 10.8038 1.28518 10.775 1.22629C10.7097 1.00048 10.6397 0.776716 10.5649 0.554996C10.2024 0.507887 9.83992 0.507887 9.47742 0.554996C9.40263 0.776716 9.33261 1.00048 9.26733 1.22629C9.23849 1.28518 9.19319 1.32836 9.1314 1.35584C8.64161 1.47148 8.18027 1.65206 7.74732 1.89759C7.68141 1.9133 7.61551 1.9133 7.5496 1.89759C7.35187 1.79553 7.15415 1.69344 6.95642 1.59138C6.92348 1.57568 6.89051 1.57568 6.85756 1.59138C6.58769 1.80532 6.34877 2.04478 6.14081 2.30979C6.24607 2.51631 6.35729 2.72045 6.47447 2.9222C6.49095 2.98502 6.49095 3.04781 6.47447 3.11063C6.20863 3.53885 6.01091 3.99422 5.88129 4.47678C5.8607 4.4964 5.8401 4.51604 5.81951 4.53566C5.5681 4.61221 5.31682 4.68679 5.06568 4.75943C5.0165 5.17179 5.02062 5.58399 5.07804 5.99602C5.04048 6.23776 4.90043 6.31627 4.65787 6.23157C4.62904 6.20408 4.6002 6.17661 4.57137 6.14913C4.52695 6.02756 4.50223 5.90192 4.49722 5.77226C4.4698 5.33064 4.48628 4.89098 4.54665 4.45322C4.58372 4.38649 4.63728 4.33545 4.7073 4.30012C4.94425 4.23791 5.17904 4.17118 5.4117 4.09991C5.53154 3.72186 5.69219 3.36068 5.89365 3.01641C5.77419 2.80443 5.65473 2.59244 5.53528 2.38045C5.49887 2.24388 5.53182 2.12611 5.63414 2.02714C5.96144 1.63668 6.33628 1.29513 6.7587 1.00253C6.83285 0.986822 6.90699 0.986822 6.98114 1.00253C7.20358 1.11637 7.42602 1.23022 7.64846 1.34406C8.00021 1.15375 8.37095 1.00458 8.76066 0.896532C8.85839 0.657791 8.94489 0.414398 9.02018 0.166351C9.05831 0.122109 9.10362 0.0867775 9.15611 0.0603567C9.27512 0.0414333 9.39044 0.0218055 9.50213 0.00147115Z" fill="url(#paint1_linear_1889_1117)"/>
<path opacity="0.944" fill-rule="evenodd" clip-rule="evenodd" d="M9.67912 2.0019C11.0491 1.92674 12.1572 2.39782 13.0034 3.41515C13.3967 3.91957 13.6192 4.48487 13.6707 5.11106C13.5941 5.26727 13.4664 5.31831 13.2876 5.26416C13.2522 5.25321 13.2234 5.23356 13.2011 5.20527C13.0512 4.38132 12.6434 3.70218 11.9777 3.16783C10.6766 2.30424 9.37492 2.30424 8.0726 3.16783C7.40691 3.70211 6.9991 4.38127 6.84918 5.20527C6.73007 5.28453 6.60237 5.29631 6.46609 5.2406C6.39889 5.17529 6.36592 5.09678 6.36723 5.00506C6.6341 3.62017 7.45795 2.678 8.83879 2.17855C9.1178 2.09953 9.39793 2.04064 9.67912 2.0019Z" fill="url(#paint2_linear_1889_1117)"/>
<path opacity="0.945" fill-rule="evenodd" clip-rule="evenodd" d="M6.24717 6.03208C6.50394 6.02336 6.75935 6.03514 7.01335 6.06741C7.49417 6.19656 7.9473 6.38499 8.37271 6.63271C8.75906 6.86196 9.12567 7.11715 9.47255 7.39822C9.55201 7.67586 9.44079 7.8054 9.13889 7.78687C8.72755 7.48872 8.29915 7.21393 7.85368 6.96247C7.522 6.77338 7.16772 6.63989 6.79091 6.56205C6.10459 6.51426 5.54849 6.74589 5.12261 7.2569C4.6194 8.0096 4.65236 8.73978 5.22147 9.44744C5.95179 10.1411 6.74682 10.2157 7.60652 9.67121C8.10155 9.38041 8.5794 9.06636 9.04003 8.72904C9.82712 8.07296 10.6427 7.4527 11.4869 6.86825C11.918 6.57639 12.3793 6.33298 12.8709 6.13807C13.987 5.88288 14.8644 6.20871 15.5032 7.11557C15.9893 8.00074 15.9399 8.85656 15.3549 9.68298C14.5721 10.5437 13.6205 10.7675 12.5002 10.3543C11.7976 10.057 11.1591 9.6684 10.5848 9.18834C10.5053 8.91071 10.6165 8.78116 10.9184 8.7997C11.3298 9.09785 11.7582 9.37263 12.2036 9.6241C12.5353 9.81319 12.8896 9.94667 13.2664 10.0245C14.1254 10.0688 14.7474 9.72724 15.1324 8.99991C15.4698 8.08798 15.2267 7.35389 14.4033 6.79759C13.8255 6.47085 13.2489 6.47085 12.6732 6.79759C11.9154 7.22152 11.1987 7.70045 10.523 8.2344C9.67475 8.97207 8.76027 9.62374 7.77953 10.1894C6.60905 10.805 5.58335 10.6362 4.70244 9.68298C4.11672 8.85658 4.06728 8.00079 4.55415 7.11557C4.95527 6.5221 5.51961 6.16094 6.24717 6.03208Z" fill="url(#paint3_linear_1889_1117)"/>
<defs>
<linearGradient id="paint0_linear_1889_1117" x1="-0.212821" y1="11.5361" x2="12.137" y2="24.2312" gradientUnits="userSpaceOnUse">
<stop offset="0.11" stop-color="#60D7AD"/>
<stop offset="0.76" stop-color="#213C3A"/>
</linearGradient>
<linearGradient id="paint1_linear_1889_1117" x1="4.35173" y1="-2.44735e-07" x2="14.3597" y2="7.634" gradientUnits="userSpaceOnUse">
<stop offset="0.11" stop-color="#60D7AD"/>
<stop offset="0.76" stop-color="#213C3A"/>
</linearGradient>
<linearGradient id="paint2_linear_1889_1117" x1="6.2797" y1="1.99414" x2="11.7221" y2="7.21034" gradientUnits="userSpaceOnUse">
<stop offset="0.11" stop-color="#60D7AD"/>
<stop offset="0.76" stop-color="#213C3A"/>
</linearGradient>
<linearGradient id="paint3_linear_1889_1117" x1="4.08356" y1="6.0293" x2="11.5361" y2="14.2863" gradientUnits="userSpaceOnUse">
<stop offset="0.11" stop-color="#60D7AD"/>
<stop offset="0.76" stop-color="#213C3A"/>
</linearGradient>
</defs>
</svg>
