<svg width="18" height="18" viewBox="0 0 18 18" fill="none" xmlns="http://www.w3.org/2000/svg">
<path opacity="0.909" fill-rule="evenodd" clip-rule="evenodd" d="M8.6575 5.4044C10.3298 5.34032 11.5425 6.04451 12.2955 7.51698C12.9515 9.30099 12.5426 10.7853 11.0689 11.97C9.57597 12.8627 8.12079 12.8075 6.70341 11.8043C5.49014 10.6905 5.12288 9.34428 5.60163 7.76552C6.17043 6.39541 7.18906 5.60836 8.6575 5.4044ZM8.6575 5.9429C10.3984 5.91541 11.514 6.73006 12.0044 8.38686C12.2118 9.8998 11.6505 11.0251 10.3206 11.7628C8.88389 12.3299 7.64354 12.0468 6.59947 10.9137C5.79445 9.78324 5.72516 8.6096 6.39158 7.39271C6.9347 6.58019 7.68998 6.09694 8.6575 5.9429Z" fill="url(#paint0_linear_1871_1179)"/>
<path opacity="0.931" fill-rule="evenodd" clip-rule="evenodd" d="M8.16475 0.0295124C10.3927 -0.139267 12.4142 0.415878 14.2291 1.69495C14.2108 1.5369 14.1746 1.38001 14.1205 1.22428C14.0222 0.876678 14.1489 0.713756 14.5006 0.735511C14.6066 0.781122 14.673 0.859568 14.6998 0.970844C14.8534 1.50708 15.0043 2.04412 15.1523 2.58197C15.1315 2.73545 15.047 2.83199 14.8989 2.87161C14.2956 2.90596 13.6923 2.91803 13.0886 2.90781C12.8711 2.73873 12.859 2.5577 13.0524 2.36474C13.3635 2.3197 13.6773 2.29556 13.9938 2.29233C11.5747 0.579562 8.95587 0.193373 6.13727 1.13377C3.29895 2.25839 1.51886 4.30399 0.797022 7.27052C0.478392 8.87408 0.599078 10.443 1.15907 11.9772C1.36651 12.4461 1.5777 12.9108 1.79266 13.3711C1.7351 13.6654 1.56615 13.7499 1.28579 13.6245C0.224461 11.842 -0.179829 9.91712 0.072921 7.84981C0.585588 4.59591 2.3174 2.24863 5.26835 0.807921C6.19846 0.400477 7.16394 0.141006 8.16475 0.0295124Z" fill="url(#paint1_linear_1871_1179)"/>
<path opacity="0.927" fill-rule="evenodd" clip-rule="evenodd" d="M7.98422 2.20246C8.66017 2.19642 9.33597 2.20246 10.0117 2.22056C10.1081 2.28575 10.1745 2.37626 10.2108 2.4921C10.3061 2.77904 10.4208 3.05661 10.5548 3.32481C11.0391 3.45841 11.4977 3.65153 11.9306 3.90409C12.2564 3.76532 12.5823 3.62651 12.9081 3.48774C12.9955 3.47021 13.0799 3.48231 13.1615 3.52394C13.602 3.96445 14.0425 4.40492 14.483 4.84543C14.5247 4.92703 14.5368 5.0115 14.5192 5.09886C14.3805 5.42471 14.2416 5.75055 14.1029 6.0764C14.3554 6.50923 14.5486 6.96784 14.6822 7.45219C15.0294 7.60628 15.3794 7.75711 15.7321 7.90475C15.7548 7.93191 15.7729 7.9621 15.7864 7.99527C15.8106 8.67111 15.8106 9.34691 15.7864 10.0228C15.7212 10.1192 15.6307 10.1856 15.5149 10.2219C15.2279 10.3172 14.9504 10.4318 14.6822 10.5658C14.5486 11.0502 14.3554 11.5088 14.1029 11.9416C14.2416 12.2675 14.3805 12.5933 14.5192 12.9192C14.5368 13.0065 14.5247 13.091 14.483 13.1726C14.0425 13.6131 13.602 14.0536 13.1615 14.4941C13.0799 14.5357 12.9955 14.5478 12.9081 14.5303C12.5823 14.3915 12.2564 14.2527 11.9306 14.1139C11.4977 14.3665 11.0391 14.5596 10.5548 14.6932C10.4007 15.0404 10.2499 15.3904 10.1022 15.7432C10.0751 15.7658 10.0449 15.7839 10.0117 15.7975C9.33586 15.8216 8.66006 15.8216 7.98422 15.7975C7.8878 15.7323 7.8214 15.6417 7.78509 15.5259C7.6898 15.239 7.57514 14.9614 7.44114 14.6932C6.95679 14.5596 6.49818 14.3665 6.06535 14.1139C5.7395 14.2527 5.41366 14.3915 5.08781 14.5303C5.00045 14.5478 4.91598 14.5357 4.83438 14.4941C4.39387 14.0536 3.9534 13.6131 3.51289 13.1726C3.47126 13.091 3.45916 13.0065 3.47669 12.9192C3.61546 12.5933 3.75427 12.2675 3.89305 11.9416C3.64048 11.5088 3.44736 11.0502 3.31376 10.5658C2.96651 10.4117 2.61653 10.2609 2.26382 10.1133C2.24116 10.0861 2.22306 10.0559 2.20951 10.0228C2.18537 9.34691 2.18537 8.67111 2.20951 7.99527C2.2747 7.89885 2.36521 7.83245 2.48105 7.79614C2.76799 7.70085 3.04556 7.58619 3.31376 7.45219C3.44736 6.96784 3.64048 6.50923 3.89305 6.0764C3.75427 5.75055 3.61546 5.42471 3.47669 5.09886C3.45916 5.0115 3.47126 4.92703 3.51289 4.84543C3.9534 4.40492 4.39387 3.96445 4.83438 3.52394C4.91598 3.48231 5.00045 3.47021 5.08781 3.48774C5.41366 3.62651 5.7395 3.76532 6.06535 3.90409C6.49818 3.65153 6.95679 3.45841 7.44114 3.32481C7.57514 3.05661 7.6898 2.77904 7.78509 2.4921C7.82597 2.37285 7.89233 2.2763 7.98422 2.20246ZM8.31006 2.81794C8.76867 2.81794 9.22725 2.81794 9.68586 2.81794C9.78524 3.18284 9.93006 3.5268 10.1203 3.84979C10.7139 3.98726 11.269 4.21658 11.7857 4.53768C11.9099 4.56306 12.0306 4.55101 12.1478 4.50148C12.3979 4.39149 12.6453 4.27683 12.89 4.15753C13.2098 4.47733 13.5296 4.79716 13.8494 5.11696C13.6882 5.43177 13.5555 5.75761 13.4512 6.0945C13.6299 6.4824 13.8049 6.87461 13.9762 7.27117C14.0365 7.47634 14.0968 7.68148 14.1572 7.88665C14.4802 8.07691 14.8241 8.22173 15.189 8.32111C15.189 8.77972 15.189 9.2383 15.189 9.6969C14.8241 9.79629 14.4802 9.94111 14.1572 10.1314C14.0197 10.7249 13.7904 11.2801 13.4693 11.7968C13.4439 11.9209 13.456 12.0416 13.5055 12.1588C13.6155 12.409 13.7301 12.6564 13.8494 12.9011C13.5296 13.2209 13.2098 13.5407 12.89 13.8605C12.5752 13.6993 12.2494 13.5665 11.9125 13.4622C11.5246 13.641 11.1324 13.816 10.7358 13.9872C10.5306 14.0476 10.3255 14.1079 10.1203 14.1682C9.93006 14.4912 9.78524 14.8352 9.68586 15.2001C9.22725 15.2001 8.76867 15.2001 8.31006 15.2001C8.21068 14.8352 8.06586 14.4912 7.8756 14.1682C7.28202 14.0308 6.72689 13.8014 6.21017 13.4803C6.08606 13.455 5.96535 13.467 5.84812 13.5165C5.59798 13.6265 5.35059 13.7412 5.10591 13.8605C4.78612 13.5407 4.46628 13.2209 4.14648 12.9011C4.3077 12.5863 4.44047 12.2604 4.54474 11.9235C4.42196 11.6235 4.28315 11.3278 4.12838 11.0365C4.01509 10.7403 3.91857 10.4386 3.83874 10.1314C3.51575 9.94111 3.17179 9.79629 2.80689 9.6969C2.80689 9.2383 2.80689 8.77972 2.80689 8.32111C3.17179 8.22173 3.51575 8.07691 3.83874 7.88665C3.97621 7.29307 4.20553 6.73794 4.52663 6.22122C4.55201 6.09711 4.53996 5.9764 4.49043 5.85917C4.38044 5.60903 4.26578 5.36164 4.14648 5.11696C4.46628 4.79716 4.78612 4.47733 5.10591 4.15753C5.42072 4.31875 5.74656 4.45151 6.08345 4.55579C6.38348 4.43301 6.67913 4.2942 6.97048 4.13943C7.26663 4.02614 7.56833 3.92962 7.8756 3.84979C8.06586 3.5268 8.21068 3.18284 8.31006 2.81794Z" fill="url(#paint2_linear_1871_1179)"/>
<path opacity="0.931" fill-rule="evenodd" clip-rule="evenodd" d="M16.3844 4.33814C16.5298 4.31642 16.6566 4.35262 16.7646 4.44676C18.0508 6.74172 18.3283 9.15537 17.5973 11.6878C16.55 14.7264 14.4923 16.7237 11.4244 17.6797C9.05122 18.293 6.78239 18.0275 4.6178 16.8832C4.3249 16.7096 4.04127 16.5226 3.76698 16.322C3.7853 16.4801 3.8215 16.637 3.87559 16.7927C3.96013 17.1909 3.80927 17.3418 3.42303 17.2452C3.39287 17.2151 3.36269 17.1849 3.33252 17.1547C3.16226 16.5836 2.99933 16.0104 2.84375 15.435C2.86455 15.2815 2.94902 15.185 3.09719 15.1454C3.70043 15.111 4.30383 15.0989 4.90744 15.1091C5.12499 15.2782 5.13705 15.4593 4.94364 15.6522C4.63261 15.6973 4.31882 15.7214 4.00231 15.7246C6.22863 17.3115 8.66647 17.7581 11.3157 17.0642C13.9846 16.2057 15.837 14.4739 16.8732 11.8688C17.7192 9.40366 17.5019 7.03824 16.2215 4.7726C16.1663 4.58213 16.2206 4.43731 16.3844 4.33814Z" fill="url(#paint3_linear_1871_1179)"/>
<path fill-rule="evenodd" clip-rule="evenodd" d="M8.77667 6.66016C8.99688 6.66016 9.13874 6.79964 9.13874 6.9717V8.73712L10.1171 8.73712C10.244 8.73712 10.3469 8.8766 10.3469 9.04866C10.3469 9.22072 10.244 9.3602 10.1171 9.3602H8.54688V6.9717C8.54688 6.79964 8.64976 6.66016 8.77667 6.66016Z" fill="url(#paint4_linear_1871_1179)"/>
<defs>
<linearGradient id="paint0_linear_1871_1179" x1="5.31219" y1="5.40039" x2="13.9881" y2="9.1472" gradientUnits="userSpaceOnUse">
<stop offset="0.11" stop-color="#60D7AD"/>
<stop offset="0.76" stop-color="#213C3A"/>
</linearGradient>
<linearGradient id="paint1_linear_1871_1179" x1="-0.181512" y1="-5.34063e-07" x2="17.4482" y2="8.43266" gradientUnits="userSpaceOnUse">
<stop offset="0.11" stop-color="#60D7AD"/>
<stop offset="0.76" stop-color="#213C3A"/>
</linearGradient>
<linearGradient id="paint2_linear_1871_1179" x1="2.02833" y1="2.20019" x2="18.4325" y2="9.28338" gradientUnits="userSpaceOnUse">
<stop offset="0.11" stop-color="#60D7AD"/>
<stop offset="0.76" stop-color="#213C3A"/>
</linearGradient>
<linearGradient id="paint3_linear_1871_1179" x1="2.66225" y1="4.33203" x2="20.2852" y2="12.7681" gradientUnits="userSpaceOnUse">
<stop offset="0.11" stop-color="#60D7AD"/>
<stop offset="0.76" stop-color="#213C3A"/>
</linearGradient>
<linearGradient id="paint4_linear_1871_1179" x1="8.52531" y1="6.66016" x2="10.9018" y2="7.34438" gradientUnits="userSpaceOnUse">
<stop offset="0.11" stop-color="#60D7AD"/>
<stop offset="0.76" stop-color="#213C3A"/>
</linearGradient>
</defs>
</svg>
