<svg width="24" height="24" viewBox="0 0 24 24" fill="none" xmlns="http://www.w3.org/2000/svg">
<g clip-path="url(#clip0_3394_2)">
<path d="M13.0388 0.247739C13.4799 0.552858 13.811 0.97012 13.9219 1.5C13.9257 1.58464 13.927 1.66942 13.9265 1.75415C13.9263 1.80219 13.9262 1.85022 13.926 1.89972C13.9256 1.94957 13.9253 1.99942 13.9248 2.05078C13.9246 2.10135 13.9244 2.15193 13.9242 2.20404C13.9237 2.32874 13.9229 2.45343 13.9219 2.57812C13.9698 2.60435 14.0176 2.63057 14.0669 2.65759C14.5312 2.91316 14.9905 3.17637 15.4478 3.44415C15.7959 3.64796 16.1447 3.85037 16.4942 4.05175C16.5446 4.08079 16.5949 4.10982 16.6468 4.13973C16.7492 4.19875 16.8517 4.25777 16.9541 4.31678C17.2159 4.4676 17.4776 4.61856 17.7393 4.76953C17.8146 4.81299 17.8146 4.81299 17.8915 4.85733C18.3342 5.11275 18.7766 5.36873 19.2188 5.625C19.2431 5.60619 19.2675 5.58738 19.2926 5.56801C19.8469 5.14508 20.346 4.96236 21.0469 5.01562C21.5948 5.10971 22.0359 5.41337 22.3594 5.85937C22.676 6.3645 22.7386 6.86823 22.6407 7.45312C22.4998 7.97228 22.1954 8.36642 21.7383 8.64843C21.5212 8.7705 21.3461 8.85937 21.0938 8.85937C21.0938 10.9322 21.0938 13.005 21.0938 15.1406C21.2021 15.1561 21.3104 15.1716 21.4219 15.1875C21.9587 15.4033 22.2977 15.7478 22.5381 16.2678C22.7476 16.7888 22.7305 17.2837 22.5469 17.8125C22.3708 18.1872 21.8951 19 21 19C20.8243 19.0256 21 18.5 21 18.5C20.8594 18.4687 20.4579 18.3865 20.467 18.2161C20.6077 18.3411 21.3872 17.9956 21.5397 17.8694C21.7926 17.6443 21.8746 17.3754 21.8951 17.0429C21.8831 16.7133 21.7776 16.4342 21.5508 16.1938C21.2768 15.9638 20.9633 15.8733 20.6109 15.8774C20.2869 15.9112 20.0352 16.064 19.8282 16.3125C19.5823 16.6539 19.5585 16.9294 19.5938 17.3437C19.6869 17.6619 19.9018 17.8522 20.1446 18.0674C20.2685 18.2085 21 18.3131 21 18.5C20.9001 18.714 21.1345 18.9327 21 19C20.7858 19.0366 19.7356 18.7318 19.5616 18.6152C19.4939 18.5668 19.4265 18.518 19.3594 18.4687C19.313 18.4378 19.2666 18.4069 19.2188 18.375C18.5441 18.7591 17.8704 19.1446 17.2003 19.5366C16.7081 19.8244 16.214 20.1091 15.7199 20.3937C15.5564 20.4879 15.3929 20.5824 15.2295 20.6768C15.1743 20.7087 15.1192 20.7405 15.064 20.7724C14.9601 20.8325 14.8561 20.8925 14.7522 20.9527C14.4769 21.1117 14.2005 21.2686 13.9219 21.4219C13.9229 21.4518 13.9239 21.4818 13.9249 21.5127C13.9626 22.837 13.9626 22.837 13.4532 23.3906C13.0728 23.7817 12.6816 24.0005 12.1316 24.0137C11.4971 24.0191 11.0495 23.8832 10.5878 23.4342C10.2632 23.0911 10.0709 22.7225 10.0736 22.2458C10.0737 22.1978 10.0739 22.1498 10.074 22.1003C10.0744 22.0504 10.0748 22.0006 10.0752 21.9492C10.0754 21.8986 10.0757 21.8481 10.0759 21.796C10.0764 21.6713 10.0772 21.5466 10.0782 21.4219C10.0064 21.3825 10.0064 21.3825 9.93315 21.3424C9.46889 21.0868 9.00955 20.8236 8.55224 20.5558C8.20418 20.352 7.85536 20.1496 7.5059 19.9482C7.43035 19.9047 7.43035 19.9047 7.35327 19.8603C7.25084 19.8012 7.1484 19.7422 7.04596 19.6832C6.78418 19.5324 6.52248 19.3814 6.26078 19.2305C6.18544 19.187 6.18544 19.187 6.10858 19.1427C5.66588 18.8872 5.2235 18.6313 4.78129 18.375C4.75694 18.3938 4.73259 18.4126 4.7075 18.432C4.17255 18.8401 3.67805 19.0385 3.00004 18.9844C2.48988 18.9015 2.00376 18.6511 1.68754 18.2344C1.36078 17.7008 1.23282 17.1672 1.36528 16.5527C1.4995 16.0554 1.77436 15.6361 2.22276 15.3757C2.6678 15.1406 2.6678 15.1406 2.90629 15.1406C2.90629 13.0678 2.90629 10.995 2.90629 8.85937C2.79801 8.8439 2.68973 8.82843 2.57817 8.8125C2.04137 8.59673 1.7026 8.25222 1.46196 7.73236C1.25647 7.22065 1.26044 6.69946 1.46196 6.1864C1.72324 5.62265 2.09853 5.30197 2.67302 5.07129C3.16557 4.92165 3.70953 4.99565 4.17192 5.20312C4.35334 5.31748 4.51994 5.44471 4.68754 5.57812C4.71848 5.59359 4.74942 5.60906 4.78129 5.625C4.90157 5.57062 4.90157 5.57062 5.03801 5.48858C5.09112 5.45798 5.14423 5.42737 5.19896 5.39584C5.25701 5.36188 5.31505 5.32792 5.37309 5.29394C5.43295 5.25927 5.49282 5.22464 5.55272 5.19003C5.73336 5.0855 5.9136 4.98029 6.09379 4.875C6.19084 4.81841 6.28788 4.76184 6.38493 4.70526C6.521 4.62587 6.65705 4.54643 6.793 4.46684C7.17981 4.24062 7.56875 4.01824 7.9581 3.79643C8.40241 3.54325 8.84492 3.28712 9.28596 3.02829C9.54812 2.87464 9.81178 2.72432 10.0782 2.57812C10.0772 2.54816 10.0762 2.5182 10.0752 2.48734C10.0375 1.16298 10.0375 1.16298 10.5469 0.609372C11.2026 -0.0648832 12.2114 -0.244525 13.0388 0.247739ZM10.9999 1.25079C10.7794 1.55782 10.7963 1.88483 10.8282 2.25C10.9084 2.58222 11.168 2.80637 11.4375 3C11.7378 3.1531 12.118 3.14449 12.4411 3.06646C12.7397 2.93649 12.9883 2.66059 13.1346 2.37378C13.2257 2.07187 13.2319 1.68117 13.1045 1.38867C12.9325 1.10353 12.6486 0.846684 12.3282 0.749997C11.7154 0.687039 11.3988 0.793938 10.9999 1.25079ZM10.1952 3.37372C10.1164 3.41905 10.1164 3.41905 10.0361 3.46529C9.97883 3.49866 9.92156 3.53204 9.8643 3.56543C9.80504 3.59969 9.74576 3.63392 9.68646 3.66813C9.56421 3.73871 9.44206 3.80946 9.32 3.88035C9.15432 3.97653 8.98833 4.07218 8.82225 4.16766C8.28986 4.47384 7.75889 4.78238 7.22882 5.09254C6.96926 5.24412 6.70901 5.39441 6.44792 5.54333C6.4184 5.56017 6.38888 5.57701 6.35847 5.59435C6.21467 5.67633 6.07079 5.75818 5.92682 5.83986C5.65047 5.99706 5.3774 6.15702 5.10942 6.32812C5.11685 6.35894 5.12428 6.38975 5.13194 6.42151C5.24157 7.05619 5.15764 7.60529 4.8018 8.14453C4.4914 8.54839 4.13362 8.70026 3.65629 8.85937C3.65629 10.9322 3.65629 13.005 3.65629 15.1406C3.95793 15.2566 3.95793 15.2566 4.26567 15.375C4.68532 15.644 4.99273 16.0283 5.13633 16.5128C5.19519 16.8897 5.18971 17.3 5.10942 17.6719C5.83796 18.0979 6.56798 18.5213 7.29931 18.9426C7.55379 19.0892 7.80816 19.236 8.06254 19.3828C8.34741 19.5472 8.63228 19.7115 8.91721 19.8758C8.99927 19.9231 9.08132 19.9704 9.16337 20.0177C9.26554 20.0766 9.36771 20.1355 9.46989 20.1944C9.54023 20.235 9.54023 20.235 9.61198 20.2764C9.65765 20.3025 9.70331 20.3287 9.75036 20.3556C9.84919 20.4133 9.94718 20.4724 10.0445 20.5325C10.0944 20.563 10.1443 20.5936 10.1957 20.625C10.2406 20.653 10.2855 20.6811 10.3318 20.71C10.447 20.7753 10.447 20.7753 10.5583 20.7547C10.6554 20.7123 10.7143 20.6608 10.7901 20.5869C11.2288 20.1936 11.7577 20.1715 12.3194 20.1947C12.7534 20.2303 13.1053 20.4647 13.4063 20.7656C13.5928 20.7496 13.7277 20.6789 13.8873 20.5851C13.9353 20.5571 13.9832 20.5292 14.0326 20.5004C14.0841 20.47 14.1355 20.4395 14.1885 20.4082C14.243 20.3763 14.2974 20.3445 14.3519 20.3127C14.4651 20.2466 14.5782 20.1804 14.6912 20.1141C14.9496 19.9626 15.2092 19.8135 15.4688 19.6641C15.5704 19.6055 15.6719 19.5469 15.7735 19.4883C16.3829 19.1367 16.3829 19.1367 16.5354 19.0487C16.6363 18.9905 16.7372 18.9323 16.838 18.8741C17.0743 18.7377 17.3106 18.6015 17.547 18.4655C17.6306 18.4175 17.714 18.3695 17.7975 18.3214C17.9021 18.2613 18.0067 18.2011 18.1114 18.1411C18.3745 17.9896 18.6344 17.8347 18.8907 17.6719C18.8795 17.6256 18.8795 17.6256 18.8681 17.5785C18.7585 16.9438 18.8424 16.3947 19.1983 15.8555C19.5087 15.4516 19.8665 15.2997 20.3438 15.1406C20.3438 13.0678 20.3438 10.995 20.3438 8.85937C20.1427 8.78203 19.9416 8.70468 19.7344 8.625C19.3148 8.35599 19.0073 7.97172 18.8638 7.48718C18.8049 7.11029 18.8104 6.69999 18.8907 6.32812C18.1621 5.90206 17.4321 5.47866 16.7008 5.05739C16.4463 4.91077 16.1919 4.76397 15.9375 4.61718C15.6527 4.45282 15.3678 4.28846 15.0829 4.1242C15.0008 4.07689 14.9188 4.02958 14.8367 3.98227C14.7345 3.92336 14.6324 3.86446 14.5302 3.80557C14.4599 3.76501 14.4599 3.76501 14.3881 3.72363C14.3196 3.68438 14.3196 3.68438 14.2497 3.64435C14.1509 3.58669 14.0529 3.52759 13.9556 3.46747C13.9057 3.43695 13.8558 3.40644 13.8044 3.375C13.7595 3.34696 13.7146 3.31892 13.6683 3.29004C13.553 3.22473 13.553 3.22473 13.4418 3.2453C13.3446 3.28769 13.2858 3.33917 13.21 3.41308C12.7713 3.80641 12.2423 3.82845 11.6807 3.80527C11.2467 3.76972 10.8947 3.53532 10.5938 3.23437C10.4191 3.23437 10.346 3.28633 10.1952 3.37372ZM2.29692 6.23437C2.09175 6.52373 2.02969 6.84989 2.07994 7.19897C2.16292 7.53502 2.336 7.79824 2.63109 7.98504C2.93765 8.14256 3.22604 8.21302 3.56822 8.13299C3.91723 8.01257 4.17916 7.82712 4.35942 7.5C4.502 7.19344 4.50538 6.82031 4.3975 6.50097C4.24038 6.14618 4.00348 5.96839 3.65629 5.8125C3.14147 5.65486 2.64942 5.83883 2.29692 6.23437ZM19.8282 6.14062C19.5642 6.51031 19.5076 6.81059 19.5469 7.26562C19.5902 7.40678 19.6513 7.51924 19.7344 7.64062C19.7605 7.68219 19.7866 7.72377 19.8135 7.7666C20.062 8.0151 20.3768 8.15875 20.7276 8.1709C21.0804 8.16568 21.3773 8.0036 21.6327 7.7666C21.8676 7.50296 21.9497 7.19293 21.9375 6.84375C21.8864 6.48843 21.7358 6.23736 21.4688 6C20.9487 5.62537 20.2823 5.68649 19.8282 6.14062ZM2.29692 16.3125C2.09175 16.6019 2.02969 16.928 2.07994 17.2771C2.16292 17.6131 2.336 17.8764 2.63109 18.0632C2.94798 18.226 3.24196 18.2992 3.59239 18.199C3.98271 18.0503 4.21641 17.8583 4.40629 17.4844C4.50964 17.1666 4.49266 16.794 4.35777 16.4894C4.1822 16.1667 3.91295 15.9692 3.56181 15.8617C3.06854 15.7665 2.62982 15.939 2.29692 16.3125ZM10.9999 21.407C10.7794 21.7141 10.7963 22.0411 10.8282 22.4062C10.9084 22.7385 11.168 22.9626 11.4375 23.1562C11.7378 23.3094 12.118 23.3007 12.4411 23.2227C12.7397 23.0927 12.9883 22.8168 13.1346 22.53C13.2257 22.2281 13.2319 21.8374 13.1045 21.5449C12.9325 21.2598 12.6486 21.0029 12.3282 20.9062C11.7154 20.8433 11.3988 20.9502 10.9999 21.407Z" fill="url(#paint0_linear_3394_2)"/>
<path d="M13.1718 5.83493C13.2715 5.89393 13.3713 5.95288 13.471 6.01181C13.5222 6.04213 13.5733 6.07245 13.626 6.10369C13.8778 6.25229 14.1313 6.39809 14.3847 6.54392C14.4871 6.60293 14.5896 6.66196 14.692 6.72098C14.7428 6.75028 14.7937 6.77958 14.8461 6.80976C14.9991 6.89792 15.1521 6.98613 15.305 7.07437C15.3553 7.10339 15.4056 7.1324 15.4574 7.1623C15.5581 7.22043 15.6588 7.2786 15.7595 7.33682C15.9966 7.4739 16.234 7.6105 16.4725 7.74537C16.5846 7.80887 16.6966 7.87265 16.8087 7.93645C16.8875 7.98118 16.9665 8.02551 17.0455 8.06983C17.4006 8.27231 17.7517 8.49267 17.8874 8.90567C17.9106 9.03154 17.9133 9.1512 17.9145 9.27923C17.9154 9.36112 17.9154 9.36112 17.9163 9.44468C17.9167 9.50347 17.917 9.56226 17.9174 9.62284C17.9177 9.6834 17.9181 9.74396 17.9185 9.80636C17.9192 9.93446 17.9197 10.0626 17.92 10.1907C17.9206 10.3545 17.9222 10.5183 17.924 10.6821C17.9256 10.8388 17.9258 10.9954 17.9262 11.1521C17.927 11.2108 17.9278 11.2695 17.9286 11.33C17.9284 11.4121 17.9284 11.4121 17.9282 11.4959C17.9285 11.5439 17.9206 13.6503 17.9209 13.6998C17.892 13.8666 17.6164 12.8873 17.5 13.0078C17.4062 13.0373 17.625 13.1008 17.5312 13.0977C17.5 14.2457 17.5631 13.1796 17.5312 13.1797C17.3845 13.1381 17.2222 13.8959 17.1319 13.7703C17.1021 13.5972 17.1278 11.4749 17.1276 11.2995C17.1269 11.2488 17.1261 11.1981 17.1253 11.1458C17.123 10.9839 17.122 10.822 17.121 10.6601C17.1197 10.5503 17.1183 10.4405 17.1168 10.3307C17.1134 10.0616 17.1109 9.79253 17.1093 9.52341C16.5295 9.66542 16.5295 9.66542 16.0798 10.0384C15.7878 10.6054 15.9404 11.5221 15.9799 12.1373C15.9953 12.4184 15.9826 12.6041 15.8437 12.8515C15.7088 12.9902 15.5404 13.0806 15.375 13.1797C15.3397 13.201 15.3045 13.2224 15.2682 13.2444C15.1473 13.3169 15.0255 13.3877 14.9033 13.458C14.864 13.4813 14.8247 13.5046 14.7842 13.5286C14.5283 13.6718 14.3106 13.7493 14.0156 13.6953C13.8476 13.5952 13.7541 13.5027 13.6875 13.3203C13.6747 13.1808 13.6766 13.042 13.6783 12.9021C13.6784 12.8618 13.6786 12.8214 13.6787 12.7799C13.6792 12.6514 13.6804 12.523 13.6816 12.3945C13.6821 12.3073 13.6825 12.2201 13.6829 12.1328C13.6839 11.9193 13.6855 11.7057 13.6875 11.4922C13.651 11.5135 13.6146 11.5348 13.5771 11.5567C13.4421 11.6355 13.307 11.7141 13.1719 11.7926C13.1134 11.8266 13.0549 11.8607 12.9965 11.8949C12.9126 11.9439 12.8285 11.9927 12.7445 12.0415C12.6939 12.0709 12.6433 12.1004 12.5912 12.1307C12.4687 12.1953 12.4687 12.1953 12.375 12.1953C12.3904 14.0051 12.4059 15.815 12.4218 17.6797C12.824 17.4476 13.2262 17.2156 13.6406 16.9765C13.8417 16.8605 14.0428 16.7445 14.25 16.625C14.3501 16.5671 14.4503 16.5093 14.5535 16.4497C14.7602 16.3305 14.967 16.2115 15.1739 16.0927C15.6564 15.8154 16.1383 15.5374 16.6171 15.2539C16.6564 15.2309 16.6956 15.208 16.736 15.1844C16.7717 15.1631 16.8074 15.1418 16.8442 15.1198C16.8752 15.1015 16.9062 15.0831 16.9382 15.0642C17.0295 15.0045 17.0295 15.0045 17.1093 14.8672C17.1189 14.7369 17.1234 14.6109 17.1238 14.4806C17.125 14.4029 17.1262 14.3252 17.1274 14.2474C17.1287 14.125 17.1298 14.0026 17.1307 13.8802C17.1317 13.762 17.1336 13.6438 17.1355 13.5255C17.1355 13.489 17.1355 13.4525 17.1355 13.4149C17.1383 13.2631 17.1459 13.1517 17.2194 13.0172C17.3349 12.9099 17.4223 12.9015 17.5781 12.8984C17.7435 12.9736 17.8044 13.0269 17.9062 13.1797C17.916 13.3147 17.9205 13.4451 17.9203 13.5801C17.9205 13.6196 17.9207 13.6591 17.9209 13.6998C17.9212 13.7834 17.9212 13.8671 17.921 13.9507C17.9209 14.0778 17.9219 14.2048 17.9231 14.3319C17.9232 14.4133 17.9233 14.4948 17.9232 14.5762C17.9237 14.6138 17.9241 14.6514 17.9245 14.6902C17.922 14.9993 17.8655 15.2594 17.666 15.5058C17.3328 15.7811 16.9564 15.9908 16.581 16.2026C16.4351 16.2849 16.2895 16.3678 16.1438 16.4507C16.1144 16.4674 16.0849 16.4841 16.0546 16.5014C15.7799 16.6576 15.5069 16.8167 15.2343 16.9765C14.7172 17.2793 14.1973 17.577 13.6766 17.8736C13.472 17.9901 13.2678 18.1074 13.064 18.2255C12.996 18.2648 12.996 18.2648 12.9266 18.3048C12.8425 18.3534 12.7585 18.4022 12.6747 18.4512C12.6376 18.4725 12.6006 18.4939 12.5625 18.5159C12.5305 18.5344 12.4986 18.553 12.4658 18.5721C12.2287 18.6897 11.9607 18.7095 11.708 18.632C11.3972 18.5079 11.1147 18.3526 10.8281 18.1806C10.7284 18.1216 10.6286 18.0627 10.5289 18.0038C10.4777 17.9734 10.4266 17.9431 10.3739 17.9119C10.1221 17.7633 9.86864 17.6175 9.61519 17.4717C9.51277 17.4126 9.41035 17.3536 9.30793 17.2946C9.23164 17.2506 9.23164 17.2506 9.15381 17.2058C9.00081 17.1177 8.84784 17.0294 8.6949 16.9412C8.6446 16.9122 8.5943 16.8832 8.54247 16.8533C8.44176 16.7951 8.34108 16.737 8.24042 16.6787C8.00326 16.5417 7.76587 16.4051 7.52745 16.2702C7.41527 16.2067 7.30325 16.1429 7.19125 16.0791C7.11245 16.0344 7.03342 15.9901 6.95439 15.9457C6.5993 15.7433 6.24654 15.5222 6.11242 15.1084C6.09048 14.9905 6.0875 14.88 6.08712 14.76C6.08685 14.7098 6.08658 14.6596 6.08631 14.6079C6.08625 14.553 6.0862 14.4982 6.08615 14.4417C6.0858 14.3547 6.0858 14.3547 6.08544 14.2661C6.08488 14.1072 6.08453 13.9484 6.08432 13.7895C6.08418 13.6902 6.08399 13.5909 6.08378 13.4915C6.08314 13.1804 6.08268 12.8692 6.0825 12.5581C6.08229 12.1995 6.08147 11.8409 6.08011 11.4823C6.0791 11.2047 6.07863 10.9272 6.07856 10.6496C6.07851 10.484 6.07824 10.3185 6.0774 10.1529C6.07648 9.96797 6.07669 9.78307 6.07699 9.59816C6.07656 9.5437 6.07613 9.48924 6.07568 9.43313C6.0775 9.07923 6.10365 8.7942 6.33394 8.50974C6.66557 8.23578 7.04004 8.02661 7.41359 7.81565C7.52911 7.7504 7.64442 7.68479 7.75975 7.61921C7.81946 7.58526 7.87918 7.55133 7.93891 7.51741C8.2347 7.34941 8.52956 7.1798 8.82417 7.00974C8.87416 6.9809 8.92414 6.95205 8.97564 6.92234C9.26844 6.7532 9.56065 6.5831 9.85249 6.41232C10.2819 6.16108 10.7122 5.91137 11.1445 5.66501C11.19 5.63887 11.2355 5.61273 11.2824 5.58579C11.3246 5.56184 11.3668 5.53789 11.4104 5.51322C11.4659 5.48156 11.4659 5.48156 11.5225 5.44926C12.1119 5.15663 12.6706 5.53422 13.1718 5.83493ZM11.6623 6.23483C11.6164 6.26233 11.5705 6.28982 11.5231 6.31815C11.4755 6.34721 11.4279 6.37628 11.3789 6.40622C11.3305 6.43529 11.2822 6.46435 11.2324 6.4943C11.113 6.56614 10.9939 6.63835 10.875 6.71091C10.9874 6.83539 11.1077 6.91153 11.2531 6.99436C11.3013 7.022 11.3496 7.04965 11.3993 7.07814C11.4515 7.10777 11.5038 7.13741 11.5576 7.16794C11.6124 7.19928 11.6672 7.23065 11.7221 7.26204C11.8361 7.32729 11.9501 7.39244 12.0642 7.4575C12.3265 7.60717 12.588 7.75818 12.8496 7.90915C12.8998 7.93813 12.9501 7.96711 13.0019 7.99696C13.298 8.1678 13.5936 8.33945 13.8887 8.51201C13.9821 8.56656 14.0755 8.62098 14.169 8.67528C14.3998 8.80927 14.6293 8.94477 14.8573 9.08341C14.9459 9.13633 15.0344 9.18924 15.123 9.24216C15.1633 9.26725 15.2035 9.29233 15.245 9.31818C15.459 9.4489 15.459 9.4489 15.7016 9.46042C15.7485 9.4348 15.7954 9.40918 15.8437 9.38278C15.8783 9.36448 15.913 9.34617 15.9487 9.3273C16.0695 9.26224 16.188 9.19406 16.3066 9.12497C16.3478 9.10159 16.389 9.0782 16.4315 9.05411C16.4704 9.03157 16.5093 9.00903 16.5494 8.98581C16.5849 8.9653 16.6204 8.94478 16.657 8.92365C16.6825 8.90501 16.708 8.88636 16.7343 8.86716C16.7343 8.83622 16.7343 8.80528 16.7343 8.77341C16.7047 8.75697 16.6751 8.74052 16.6446 8.72358C16.0001 8.3652 15.3595 8.00103 14.7233 7.62808C14.3753 7.4242 14.0259 7.22296 13.6762 7.0221C13.4158 6.87233 13.1564 6.72121 12.8983 6.56754C12.8468 6.53702 12.7953 6.50651 12.7423 6.47507C12.644 6.41676 12.546 6.35811 12.4482 6.2991C12.4043 6.27312 12.3605 6.24714 12.3153 6.22037C12.2769 6.19735 12.2385 6.17433 12.1989 6.15062C11.9816 6.04924 11.8518 6.12026 11.6623 6.23483ZM9.67378 7.3906C9.64067 7.41072 9.60755 7.43084 9.57344 7.45157C9.49154 7.50137 9.40979 7.55143 9.32808 7.60153C9.54625 7.79353 9.79297 7.92451 10.0458 8.06442C10.4308 8.27965 10.8138 8.49772 11.1943 8.72067C11.6395 8.98141 12.0857 9.24039 12.5336 9.49655C12.7852 9.64085 13.0344 9.78765 13.2806 9.94089C13.3275 9.96974 13.3744 9.99859 13.4227 10.0283C13.511 10.0829 13.5989 10.1383 13.6862 10.1945C13.9104 10.3385 13.9104 10.3385 14.1676 10.3468C14.3051 10.2687 14.4401 10.1905 14.5722 10.1035C14.6175 10.0739 14.6629 10.0443 14.7095 10.0138C14.7435 9.99117 14.7775 9.96857 14.8125 9.94528C14.6949 9.8132 14.564 9.73635 14.4105 9.64993C14.3576 9.61993 14.3046 9.58993 14.25 9.55901C14.2219 9.5432 14.1937 9.52739 14.1647 9.51109C14.0151 9.42704 13.8658 9.34222 13.7166 9.25754C13.6863 9.24038 13.656 9.22321 13.6247 9.20553C13.3454 9.04723 13.068 8.88588 12.791 8.7236C12.3472 8.46393 11.9024 8.20615 11.4567 7.94969C11.2187 7.81267 10.9809 7.67527 10.744 7.53635C10.7026 7.5121 10.6611 7.48785 10.6184 7.46287C10.5414 7.41781 10.4646 7.3726 10.3878 7.32721C10.0613 7.13634 9.98177 7.20137 9.67378 7.3906ZM8.2278 8.21219C8.17791 8.24159 8.12803 8.27098 8.07664 8.30127C8.02459 8.33236 7.97253 8.36345 7.9189 8.39548C7.81582 8.45647 7.71273 8.51744 7.60963 8.5784C7.56389 8.60565 7.51814 8.6329 7.47101 8.66097C7.40369 8.70049 7.3354 8.7385 7.26558 8.77341C7.26558 8.80435 7.26558 8.83528 7.26558 8.86716C7.29518 8.8836 7.32479 8.90004 7.3553 8.91699C7.99985 9.27537 8.64037 9.63954 9.27662 10.0125C9.6246 10.2164 9.97398 10.4179 10.3239 10.6184C10.5839 10.7676 10.8422 10.919 11.0983 11.0747C11.1494 11.1054 11.2005 11.1361 11.2531 11.1678C11.3503 11.2264 11.4471 11.2856 11.5435 11.3456C11.587 11.3717 11.6306 11.3979 11.6755 11.4248C11.7134 11.448 11.7513 11.4713 11.7903 11.4953C11.9443 11.5534 12.0297 11.536 12.1875 11.4922C12.3253 11.4277 12.3253 11.4277 12.461 11.344C12.5109 11.3146 12.5607 11.2851 12.6121 11.2548C12.6634 11.2239 12.7147 11.1929 12.7675 11.1611C12.8461 11.1145 12.8461 11.1145 12.9263 11.0669C13.0552 10.9903 13.184 10.9133 13.3125 10.8359C13.1527 10.7025 12.9921 10.593 12.8109 10.4908C12.7587 10.4611 12.7065 10.4315 12.6528 10.401C12.6114 10.3777 12.6114 10.3777 12.5692 10.354C12.4516 10.2878 12.3342 10.2211 12.2168 10.1544C12.1561 10.12 12.0953 10.0855 12.0346 10.0511C11.737 9.88249 11.4406 9.71201 11.1445 9.54099C11.0698 9.49789 11.0698 9.49789 10.9937 9.45392C10.648 9.25417 10.3028 9.0536 9.95796 8.85251C9.91177 8.82561 9.86558 8.7987 9.81799 8.77098C9.60442 8.6464 9.39135 8.52113 9.17939 8.39383C9.14239 8.3717 9.10538 8.34958 9.06725 8.32678C8.99912 8.28596 8.93114 8.2449 8.86334 8.20353C8.59168 8.04101 8.495 8.05353 8.2278 8.21219ZM6.8437 9.47653C6.83713 10.1814 6.83217 10.8863 6.82913 11.5913C6.82768 11.9186 6.8257 12.2459 6.82248 12.5732C6.81938 12.889 6.81775 13.2048 6.81702 13.5206C6.8165 13.6411 6.81548 13.7617 6.81396 13.8823C6.81193 14.051 6.81164 14.2196 6.81177 14.3883C6.81076 14.4383 6.80975 14.4883 6.80871 14.5398C6.80497 14.7826 6.80497 14.7826 6.90408 14.9956C6.98638 15.0691 6.98638 15.0691 7.12495 15.1484C7.18656 15.188 7.18656 15.188 7.24942 15.2284C7.31216 15.264 7.31216 15.264 7.37617 15.3004C7.44787 15.3414 7.44787 15.3414 7.52101 15.3832C7.5976 15.4265 7.5976 15.4265 7.67573 15.4707C7.75777 15.5175 7.8398 15.5643 7.92182 15.6112C8.00658 15.6596 8.09141 15.7078 8.17625 15.7561C8.43588 15.9039 8.69442 16.0536 8.95308 16.2031C9.05408 16.2614 9.1551 16.3197 9.25612 16.378C9.33142 16.4214 9.33142 16.4214 9.40825 16.4657C9.56612 16.5568 9.72404 16.6477 9.88197 16.7387C9.98738 16.7994 10.0928 16.8601 10.1982 16.9209C10.274 16.9645 10.274 16.9645 10.3513 17.009C10.6864 17.2024 11.0205 17.3974 11.3527 17.5957C11.4807 17.6864 11.4807 17.6864 11.625 17.7265C11.625 15.9012 11.625 14.0759 11.625 12.1953C11.2382 11.9787 10.8515 11.7622 10.4531 11.539C9.83674 11.1808 9.83674 11.1808 9.61354 11.0498C9.21751 10.8177 8.81964 10.5889 8.42189 10.3598C8.23121 10.25 8.04067 10.14 7.85031 10.0296C7.73656 9.9636 7.62277 9.89771 7.50898 9.83183C7.42796 9.78488 7.34701 9.73783 7.26606 9.69078C7.2175 9.66268 7.16894 9.63458 7.11891 9.60562C7.07585 9.58064 7.0328 9.55566 6.98843 9.52992C6.9023 9.47279 6.9023 9.47279 6.8437 9.47653ZM14.5072 10.9424C14.2849 11.2005 14.3704 11.6257 14.3935 11.9404C14.397 12.0243 14.4002 12.1082 14.4031 12.1921C14.4108 12.3966 14.4229 12.6005 14.4375 12.8047C14.5176 12.7619 14.5977 12.7189 14.6777 12.6758C14.7223 12.6518 14.7669 12.6279 14.8128 12.6032C14.8591 12.5769 14.9054 12.5506 14.9531 12.5234C15.0046 12.4975 15.0561 12.4717 15.1092 12.445C15.2525 12.3431 15.2525 12.3431 15.2663 12.1554C15.2662 12.083 15.2646 12.0106 15.2618 11.9382C15.2614 11.9 15.261 11.8617 15.2606 11.8224C15.259 11.7005 15.2555 11.5788 15.2519 11.457C15.2505 11.3743 15.2492 11.2916 15.2481 11.2089C15.245 11.0064 15.2401 10.804 15.2343 10.6015C14.9794 10.6015 14.7004 10.7853 14.5072 10.9424Z" fill="url(#paint1_linear_3394_2)"/>
</g>
<defs>
<linearGradient id="paint0_linear_3394_2" x1="1.0532" y1="-0.0321617" x2="27.693" y2="10.1974" gradientUnits="userSpaceOnUse">
<stop offset="0.11" stop-color="#60D7AD"/>
<stop offset="0.76" stop-color="#213C3A"/>
</linearGradient>
<linearGradient id="paint1_linear_3394_2" x1="5.93369" y1="5.34375" x2="20.7034" y2="11.0135" gradientUnits="userSpaceOnUse">
<stop offset="0.11" stop-color="#60D7AD"/>
<stop offset="0.76" stop-color="#213C3A"/>
</linearGradient>
<clipPath id="clip0_3394_2">
<rect width="24" height="24" fill="white"/>
</clipPath>
</defs>
</svg>
