<svg width="24" height="24" viewBox="0 0 24 24" fill="none" xmlns="http://www.w3.org/2000/svg">
<path d="M12.1875 1.6875C12.3223 1.75836 12.4324 1.8526 12.5479 1.95117C12.6177 2.00752 12.6878 2.0636 12.7581 2.11944C12.8132 2.1633 12.8132 2.1633 12.8693 2.20804C14.7625 3.66932 17.1046 4.57139 19.4497 4.96087C19.4843 4.96678 19.5189 4.97269 19.5546 4.97877C19.6449 4.99387 19.7354 5.00782 19.826 5.02166C19.9962 5.07035 20.0488 5.10997 20.1563 5.25C20.1843 5.38132 20.2015 5.49799 20.2116 5.63067C20.215 5.66799 20.2185 5.7053 20.222 5.74374C20.2324 5.86035 20.2414 5.97699 20.25 6.09375C20.2527 6.12887 20.2554 6.16398 20.2582 6.20017C20.2765 6.44676 20.2905 6.69347 20.3028 6.94043C20.3047 6.97908 20.3067 7.01774 20.3087 7.05756C20.4724 10.3778 20.5333 14.4138 18.4688 17.2031C18.4328 17.2518 18.3969 17.3004 18.3598 17.3505C17.9765 17.8613 17.57 18.3538 17.1094 18.7969C16.9911 18.9144 16.8737 19.0326 16.7575 19.1521C16.4685 19.4471 16.168 19.7122 15.8438 19.9687C15.7896 20.013 15.7354 20.0574 15.6814 20.1019C14.7736 20.8446 13.7782 21.4763 12.7453 22.0301C12.6672 22.0722 12.5898 22.1156 12.5125 22.1592C12.4532 22.1916 12.4532 22.1916 12.3926 22.2246C12.3611 22.2421 12.3295 22.2597 12.297 22.2777C12.011 22.3686 11.8149 22.3254 11.5509 22.199C11.453 22.1479 11.3557 22.0958 11.2588 22.043C11.2072 22.0154 11.1556 21.9879 11.1025 21.9595C10.6374 21.708 10.1895 21.4343 9.75003 21.1406C9.71676 21.1185 9.68349 21.0964 9.64921 21.0736C8.85728 20.545 8.12274 19.9559 7.4191 19.3149C7.31967 19.2252 7.21833 19.1384 7.11624 19.0518C6.96464 18.9194 6.83372 18.7782 6.70407 18.6246C6.61226 18.5189 6.5163 18.4182 6.41929 18.3173C5.79689 17.6638 5.29761 16.9204 4.87503 16.125C4.84877 16.0759 4.84877 16.0759 4.82198 16.0259C3.43184 13.3853 3.55063 9.84144 3.6973 6.94043C3.70005 6.88512 3.70005 6.88512 3.70285 6.82869C3.71544 6.58344 3.73132 6.3386 3.75003 6.09375C3.75284 6.05561 3.75564 6.01747 3.75853 5.97817C3.76749 5.86222 3.77777 5.74647 3.78848 5.63067C3.79118 5.59526 3.79387 5.55985 3.79664 5.52337C3.81287 5.36349 3.83321 5.26382 3.93173 5.1349C4.07169 5.0331 4.19118 5.02169 4.36234 4.99804C4.43488 4.98661 4.50739 4.97494 4.57987 4.96307C4.63955 4.95338 4.63955 4.95338 4.70044 4.9435C6.16141 4.69608 7.5826 4.22664 8.90628 3.5625C8.94732 3.54254 8.98835 3.52259 9.03063 3.50203C9.93318 3.06306 10.7775 2.51253 11.5542 1.87683C11.764 1.70648 11.9174 1.63535 12.1875 1.6875ZM11.7188 2.77441C11.0938 3.29374 10.3729 3.69971 9.65628 4.07812C9.62664 4.09397 9.59701 4.10981 9.56647 4.12614C8.05837 4.92797 6.42111 5.46312 4.73836 5.74476C4.64163 5.75615 4.64163 5.75615 4.59378 5.8125C4.56974 5.96471 4.55989 6.11895 4.54691 6.27246C4.54284 6.32052 4.53876 6.36859 4.53457 6.41811C4.23965 10.1035 4.21731 14.4541 6.72659 17.4258C8.07154 18.99 9.68572 20.2191 11.4815 21.2256C11.5444 21.2618 11.6063 21.2996 11.6671 21.3393C11.7958 21.4216 11.8864 21.4683 12.0405 21.4715C12.2482 21.4014 12.4293 21.3007 12.6182 21.1904C12.6603 21.1661 12.7025 21.1417 12.7459 21.1166C13.5431 20.6478 14.3307 20.1325 15.0469 19.5469C15.0911 19.5116 15.1352 19.4763 15.1808 19.4399C15.4735 19.2041 15.7535 18.9563 16.0313 18.7031C16.1123 18.6308 16.1934 18.5586 16.2744 18.4863C16.5904 18.2015 16.883 17.9042 17.1563 17.5781C17.1764 17.5542 17.1965 17.5303 17.2173 17.5056C19.1001 15.2541 19.496 12.5151 19.5469 9.65625C19.5484 9.57344 19.5484 9.57344 19.55 9.48896C19.563 8.65671 19.5406 7.82751 19.503 6.99609C19.5009 6.95039 19.4989 6.9047 19.4968 6.85762C19.4909 6.72725 19.4846 6.5969 19.4782 6.46655C19.4764 6.42755 19.4746 6.38856 19.4728 6.34838C19.4633 6.16545 19.4493 5.99134 19.4063 5.8125C19.3516 5.79987 19.3516 5.79987 19.2957 5.78699C19.1881 5.76214 19.0804 5.73728 18.9728 5.71241C18.861 5.68664 18.7492 5.66101 18.6373 5.63555C17.1674 5.30002 15.7645 4.82704 14.4276 4.12211C14.3421 4.07726 14.2562 4.03351 14.1702 3.98986C13.5178 3.65524 12.9095 3.25595 12.3364 2.79881C12.0907 2.60701 11.9567 2.56225 11.7188 2.77441Z" fill="url(#paint0_linear_3389_5)"/>
<path d="M12.2408 6.88067C12.2868 6.90681 12.2868 6.90681 12.3337 6.93348C12.3692 6.95334 12.4048 6.97321 12.4415 6.99367C12.4795 7.01574 12.5175 7.03781 12.5567 7.06055C12.5974 7.08359 12.6382 7.10663 12.6802 7.13036C12.8133 7.20596 12.9458 7.28253 13.0782 7.35938C13.1224 7.38496 13.1666 7.41053 13.2121 7.43688C13.4446 7.5716 13.6766 7.70712 13.9084 7.84314C14.1611 7.99134 14.4148 8.13775 14.6688 8.2837C15.1001 8.53156 15.5306 8.78071 15.9581 9.03516C15.9969 9.0581 16.0357 9.08104 16.0758 9.10467C16.1113 9.12596 16.1468 9.14726 16.1835 9.16919C16.2142 9.18755 16.245 9.2059 16.2767 9.22481C16.3655 9.2854 16.4313 9.33896 16.5001 9.42188C16.5181 9.51906 16.5181 9.51906 16.5189 9.63296C16.5195 9.6762 16.5201 9.71945 16.5207 9.764C16.5206 9.81134 16.5205 9.85868 16.5205 9.90745C16.521 9.95739 16.5214 10.0073 16.5219 10.0588C16.5233 10.2243 16.5235 10.3898 16.5237 10.5553C16.5241 10.6701 16.5246 10.785 16.5251 10.8998C16.5259 11.1408 16.5262 11.3817 16.5261 11.6226C16.5261 11.9315 16.528 12.2404 16.5304 12.5493C16.532 12.7865 16.5323 13.0238 16.5322 13.2611C16.5324 13.3749 16.533 13.4888 16.5341 13.6027C16.5355 13.762 16.5351 13.9212 16.5342 14.0804C16.5354 14.1512 16.5354 14.1512 16.5366 14.2233C16.5324 14.5354 16.5324 14.5354 16.4396 14.658C16.3652 14.7214 16.3652 14.7214 16.2188 14.8125C16.1772 14.8391 16.1357 14.8658 16.0929 14.8932C16.0504 14.9173 16.008 14.9413 15.9643 14.9661C15.916 14.9937 15.8677 15.0213 15.818 15.0497C15.7666 15.0788 15.7151 15.1078 15.6622 15.1377C15.6076 15.1688 15.5531 15.1999 15.4987 15.231C15.4148 15.2789 15.3309 15.3268 15.247 15.3746C14.976 15.529 14.7067 15.6862 14.4376 15.8438C14.0348 16.0791 13.6315 16.3135 13.2276 16.5469C13.1534 16.5898 13.1534 16.5898 13.0777 16.6337C12.9833 16.6882 12.8887 16.7425 12.7939 16.7965C12.7008 16.8496 12.6082 16.9034 12.516 16.958C12.4712 16.9838 12.4265 17.0096 12.3804 17.0361C12.3212 17.0709 12.3212 17.0709 12.2609 17.1063C12.0855 17.1792 11.9382 17.1853 11.7593 17.1193C11.7287 17.1019 11.698 17.0845 11.6664 17.0665C11.6309 17.0467 11.5953 17.0268 11.5587 17.0063C11.5206 16.9843 11.4826 16.9622 11.4434 16.9395C11.4027 16.9164 11.3619 16.8934 11.3199 16.8696C11.1868 16.7941 11.0543 16.7175 10.9219 16.6406C10.8556 16.6023 10.8556 16.6023 10.788 16.5631C10.5555 16.4284 10.3235 16.2929 10.0917 16.1569C9.83903 16.0087 9.58534 15.8623 9.33133 15.7163C8.90001 15.4685 8.46952 15.2193 8.04205 14.9648C8.00321 14.9419 7.96437 14.919 7.92436 14.8953C7.88881 14.874 7.85327 14.8528 7.81665 14.8308C7.78586 14.8125 7.75508 14.7941 7.72336 14.7752C7.63461 14.7146 7.56882 14.661 7.50006 14.5781C7.48197 14.481 7.48197 14.481 7.48125 14.367C7.48065 14.3238 7.48005 14.2806 7.47944 14.236C7.4795 14.1887 7.47956 14.1413 7.47963 14.0926C7.47892 14.0177 7.47892 14.0177 7.4782 13.9412C7.47686 13.7757 7.47659 13.6102 7.47644 13.4447C7.47598 13.3299 7.47551 13.215 7.47502 13.1002C7.47417 12.8593 7.47391 12.6183 7.474 12.3774C7.47401 12.0685 7.47209 11.7596 7.46967 11.4507C7.46811 11.2135 7.46782 10.9762 7.4679 10.739C7.46773 10.6251 7.46711 10.5112 7.46602 10.3973C7.46465 10.238 7.46505 10.0788 7.4659 9.91958C7.46471 9.84886 7.46471 9.84886 7.4635 9.7767C7.46773 9.46455 7.46773 9.46455 7.56058 9.34199C7.63504 9.27859 7.63504 9.27859 7.78131 9.18751C7.82238 9.16111 7.86345 9.13471 7.90577 9.10751C7.9476 9.08376 7.98943 9.06 8.03253 9.03553C8.08033 9.00818 8.12813 8.98084 8.17739 8.95266C8.25396 8.90939 8.25396 8.90939 8.33209 8.86524C8.41402 8.81846 8.49596 8.77168 8.57788 8.72487C8.6626 8.6765 8.74739 8.62826 8.83219 8.58003C9.09386 8.43109 9.35455 8.28044 9.61529 8.12989C9.66522 8.10111 9.71515 8.07233 9.76659 8.04267C10.1655 7.81255 10.5634 7.58063 10.9605 7.34728C11.0879 7.27263 11.2159 7.1988 11.3438 7.12501C11.389 7.09818 11.4342 7.07136 11.4808 7.04373C11.5479 7.00502 11.5479 7.00502 11.6165 6.96552C11.6564 6.94214 11.6963 6.91876 11.7374 6.89467C11.9137 6.8211 12.0608 6.81429 12.2408 6.88067ZM11.6642 7.86347C11.6161 7.89159 11.568 7.91971 11.5184 7.94868C11.4666 7.97948 11.4148 8.01027 11.3614 8.042C11.3071 8.07388 11.2528 8.10571 11.1985 8.13751C11.0851 8.20386 10.9719 8.2704 10.8588 8.33705C10.6407 8.4653 10.4212 8.59118 10.2018 8.71715C9.81477 8.93941 9.42805 9.16229 9.044 9.38965C9.01553 9.40629 8.98706 9.42293 8.95772 9.44008C8.81293 9.52293 8.81293 9.52293 8.71881 9.65626C8.74934 9.67387 8.77988 9.69149 8.81134 9.70964C8.85465 9.73462 8.89795 9.75961 8.94256 9.78534C9.01567 9.82752 9.01567 9.82752 9.09025 9.87055C9.1994 9.93352 9.30856 9.9965 9.41771 10.0595C9.69902 10.2218 9.98038 10.3841 10.2618 10.5461C10.3137 10.576 10.3655 10.6059 10.4189 10.6367C10.5214 10.6957 10.6239 10.7546 10.7265 10.8134C10.9536 10.9439 11.1794 11.0756 11.4017 11.2141C11.4384 11.2367 11.4751 11.2593 11.5129 11.2826C11.5795 11.3239 11.6457 11.3659 11.7113 11.4086C11.8782 11.513 11.8782 11.513 12.0685 11.5084C12.1275 11.4733 12.1275 11.4733 12.1876 11.4375C12.2435 11.4079 12.2995 11.3784 12.3555 11.3489C12.4217 11.3122 12.4878 11.2753 12.5538 11.2383C12.5903 11.2179 12.6267 11.1975 12.6643 11.1765C13.066 10.9511 13.4636 10.7186 13.8608 10.4854C14.0659 10.365 14.2718 10.2461 14.4782 10.1279C14.5303 10.098 14.5823 10.0681 14.6359 10.0373C14.7366 9.97939 14.8375 9.9218 14.9385 9.86449C14.9834 9.83855 15.0284 9.81262 15.0748 9.78589C15.1347 9.75166 15.1347 9.75166 15.1959 9.71673C15.2241 9.69677 15.2523 9.67682 15.2813 9.65626C15.2813 9.62532 15.2813 9.59438 15.2813 9.56251C15.2517 9.54606 15.2221 9.52962 15.1916 9.51268C14.6346 9.20301 14.0794 8.89112 13.5294 8.56934C13.4833 8.54244 13.4372 8.51553 13.3898 8.48781C13.1669 8.35743 12.9445 8.22632 12.7226 8.09418C12.6816 8.06999 12.6407 8.0458 12.5985 8.02088C12.522 7.9757 12.4457 7.93019 12.3697 7.88431C12.3359 7.86444 12.3022 7.84457 12.2674 7.8241C12.2382 7.80668 12.2091 7.78925 12.179 7.7713C11.9729 7.68199 11.8412 7.75902 11.6642 7.86347ZM8.25006 10.3125C8.25006 11.5809 8.25006 12.8494 8.25006 14.1563C8.89974 14.5275 8.89974 14.5275 9.56256 14.9063C10.8399 15.6412 10.8399 15.6412 11.3528 15.9473C11.4808 16.038 11.5391 16.1167 11.6833 16.1569C11.7095 15.6672 11.6712 15.0989 11.6833 14.6086C11.6892 14.3809 11.6705 14.1311 11.6833 13.9036C11.6568 12.9775 11.6833 13.2686 11.6445 12.2344C11.3826 12.0056 11 12 10.6346 11.676C10.458 11.6133 10.3167 11.4796 10.1582 11.38C10.0661 11.3269 9.97402 11.2738 9.88189 11.2207C9.83223 11.1921 9.78256 11.1635 9.73139 11.134C9.58139 11.0476 9.43135 10.9613 9.28131 10.875C9.23226 10.8467 9.18321 10.8185 9.13267 10.7894C8.9938 10.7094 8.85485 10.6296 8.71588 10.5498C8.67402 10.5257 8.63217 10.5016 8.58904 10.4767C8.55108 10.455 8.51311 10.4332 8.47399 10.4108C8.44076 10.3917 8.40752 10.3727 8.37327 10.353C8.30443 10.3088 8.30443 10.3088 8.25006 10.3125ZM15.5023 10.4227C15.4596 10.4468 15.4169 10.4709 15.373 10.4958C15.3029 10.5356 15.3029 10.5356 15.2315 10.5762C15.1832 10.6036 15.1348 10.631 15.085 10.6592C14.3755 11.0573 14.5223 10.986 13.8276 11.4086C13.6791 11.4973 12.962 11.8767 13.2167 11.676C12.516 12.2344 12.6643 12.0834 12.3555 12.2344C12.3359 12.8272 12.438 13.5232 12.3804 14.0845C12.392 14.3119 12.3747 14.5382 12.3804 14.7658C12.3924 15.2109 12.3566 15.7122 12.3804 16.1569C13.7299 15.4228 13.7246 15.3441 15.0474 14.5633C15.1876 14.4844 15.1876 14.4844 15.334 14.4284C15.5049 14.3554 15.619 14.2891 15.7501 14.1563C15.8306 13.8655 15.8158 13.5828 15.805 13.2834C15.8039 13.1977 15.8031 13.112 15.8026 13.0263C15.8004 12.8014 15.7949 12.5767 15.7887 12.3519C15.7829 12.1222 15.7804 11.8925 15.7775 11.6628C15.7715 11.2126 15.7619 10.7626 15.7501 10.3125C15.6599 10.3125 15.5785 10.3797 15.5023 10.4227Z" fill="url(#paint1_linear_3389_5)"/>
<defs>
<linearGradient id="paint0_linear_3389_5" x1="3.41193" y1="1.67072" x2="24.7612" y2="9.15548" gradientUnits="userSpaceOnUse">
<stop offset="0.11" stop-color="#60D7AD"/>
<stop offset="0.76" stop-color="#213C3A"/>
</linearGradient>
<linearGradient id="paint1_linear_3389_5" x1="7.35481" y1="6.8349" x2="18.6951" y2="11.1364" gradientUnits="userSpaceOnUse">
<stop offset="0.11" stop-color="#60D7AD"/>
<stop offset="0.76" stop-color="#213C3A"/>
</linearGradient>
</defs>
</svg>
