<svg width="128" height="31" viewBox="0 0 128 31" fill="none" xmlns="http://www.w3.org/2000/svg">
<g clip-path="url(#clip0_696_1307)">
<path d="M74.24 16.5011C74.24 13.4702 72.9426 10.7922 68.5547 10.7922C66.3034 10.7922 64.5151 11.4339 63.5455 11.9955L64.2562 14.4271C65.1489 13.8671 66.5733 13.4059 67.9177 13.4059C70.1392 13.4027 70.5031 14.6593 70.5031 15.4673V15.6618C65.654 15.6539 62.5886 17.3294 62.5886 20.7415C62.5886 22.8265 64.1448 24.7812 66.8651 24.7812C68.5249 24.7812 69.9274 24.1113 70.7651 23.054H70.8467C70.8467 23.054 71.399 25.3648 74.4534 24.4816C74.2981 23.5136 74.24 22.4939 74.24 21.2545V16.5011ZM70.6224 19.7014C70.6224 19.9462 70.602 20.2003 70.5298 20.4184C70.2505 21.3518 69.2874 22.1331 68.0887 22.1331C67.0769 22.1331 66.2831 21.5605 66.2831 20.3603C66.2831 18.5248 68.3099 18.0197 70.6224 18.0322" fill="#AFCECB"/>
<path d="M0 6.66833C0 6.66833 3.16737 19.6266 3.67098 21.7256C4.26397 24.1793 5.32605 25.086 8.3915 24.482L10.3713 16.4466C10.8718 14.4558 11.2122 13.0282 11.5354 10.9998H11.5902C11.8146 13.0486 12.1378 14.4558 12.5472 16.4529C12.5472 16.4529 13.3551 20.1035 13.774 22.0159C14.1819 23.9282 15.3302 25.1346 18.3377 24.482L23.0503 6.66833H19.246L17.6286 14.3743C17.2003 16.6067 16.8112 18.3653 16.5084 20.411H16.4535C16.1806 18.3873 15.8339 16.7008 15.3883 14.5139L13.7129 6.66833H9.7438L7.95535 14.3131C7.44547 16.6475 6.96858 18.519 6.66892 20.5004H6.61717C6.30813 18.6414 5.88926 16.2741 5.44526 14.0276C5.44526 14.0276 4.38318 8.55403 4.00827 6.66833" fill="#AFCECB"/>
<path d="M33.6523 16.5011C33.6523 13.4702 32.3517 10.7922 27.9638 10.7922C25.7189 10.7922 23.9273 11.4339 22.9578 11.9955L23.6685 14.4271C24.558 13.8671 25.9809 13.4059 27.3301 13.4059C29.5515 13.4027 29.9154 14.6593 29.9154 15.4673V15.6618C25.0663 15.6539 21.9977 17.3294 21.9977 20.7415C21.9977 22.8265 23.5603 24.7812 26.268 24.7812C27.9434 24.7812 29.3334 24.1113 30.1712 23.054H30.2558C30.2558 23.054 30.8112 25.3648 33.8625 24.4816C33.7056 23.5136 33.6523 22.4939 33.6523 21.2545V16.5011ZM30.0316 19.7014C30.0316 19.9462 30.0112 20.2003 29.9421 20.4184C29.6597 21.3518 28.6965 22.1331 27.4948 22.1331C26.4892 22.1331 25.6922 21.5605 25.6922 20.3603C25.6922 18.5248 27.7191 18.0197 30.0316 18.0322" fill="#AFCECB"/>
<path d="M35.6265 6.66833V24.4757H39.2472V20.6996V6.66833H35.6265Z" fill="#AFCECB"/>
<path d="M85.3528 6.66833V19.807C85.3528 21.6205 85.6932 22.885 86.4258 23.66C87.069 24.3393 88.1216 24.7817 89.3751 24.7817C90.4514 24.7817 91.504 24.5746 92.0013 24.3942L91.9574 21.5656C91.5855 21.6519 91.1604 21.7256 90.5768 21.7256C89.3406 21.7256 88.9327 20.9428 88.9327 19.3144V14.2848H92.086V10.8821H88.9327V6.66833" fill="#AFCECB"/>
<path d="M75.9943 11.1013V24.4816H79.7374V17.6291C79.7374 17.2604 79.7608 16.9419 79.819 16.647C80.0982 15.2021 81.1947 14.2875 82.7745 14.2875C83.2154 14.2875 83.515 14.3362 83.8476 14.3879V10.8801C83.5683 10.8299 83.3785 10.8032 83.035 10.8032C81.634 10.8032 80.0464 11.6927 79.3765 13.6302H79.284V11.1013" fill="#AFCECB"/>
<path d="M41.3499 11.1013V24.4816H44.9972V16.6282C44.9972 16.2595 45.038 15.883 45.1682 15.5426C45.4648 14.7472 46.2005 13.8263 47.3818 13.8263C48.8502 13.8263 49.5436 15.0656 49.5436 16.8541V24.4816H53.1817V16.534C53.1817 16.1873 53.2303 15.7622 53.3322 15.4547C53.6241 14.5526 54.421 13.8263 55.5223 13.8263C57.0064 13.8263 57.7249 15.039 57.7249 17.1474V24.4816H61.3598V16.5921C61.3598 12.4473 59.2513 10.8032 56.8573 10.8032C55.8047 10.8032 54.967 11.0621 54.2139 11.5264C53.577 11.9171 53.0185 12.4677 52.518 13.1878H52.4632C51.8874 11.7476 50.5351 10.8032 48.7686 10.8032C46.5033 10.8032 45.4742 11.9469 44.8686 12.9133H44.8137V11.1013" fill="#AFCECB"/>
<path d="M111.675 10.5008C112.391 10.5008 112.993 10.1274 113.071 9.64737L113.781 1.61513C113.781 0.819753 112.844 0.168701 111.675 0.168701C110.5 0.168701 109.57 0.819753 109.57 1.61513L110.285 9.64737C110.361 10.1274 110.96 10.5008 111.675 10.5008Z" fill="#AFCECB"/>
<path d="M107.324 13.0142C107.679 12.3867 107.659 11.6901 107.276 11.3795L100.655 6.75C99.9668 6.3484 98.936 6.82688 98.3462 7.84032C97.7579 8.85219 97.8771 9.988 98.5517 10.3818L105.881 13.7798C106.35 13.9555 106.964 13.6292 107.324 13.0079" fill="#AFCECB"/>
<path d="M116.025 13.0075C116.4 13.6288 117.013 13.9551 117.47 13.7888L124.799 10.3814C125.48 9.97976 125.582 8.85492 125.006 7.84305C124.418 6.82961 123.381 6.35426 122.694 6.74803L116.072 11.3728C115.705 11.6882 115.678 12.3879 116.033 13.0138" fill="#AFCECB"/>
<path d="M111.675 20.5341C112.391 20.5341 112.993 20.9074 113.071 21.3875L113.781 29.4197C113.781 30.2151 112.844 30.8599 111.675 30.8599C110.5 30.8599 109.57 30.2151 109.57 29.4197L110.285 21.3875C110.361 20.9074 110.96 20.5341 111.675 20.5341Z" fill="#AFCECB"/>
<path d="M116.025 18.0277C116.4 17.4049 117.013 17.0723 117.47 17.2527L124.799 20.6539C125.48 21.0476 125.582 22.1819 125.006 23.1953C124.418 24.2009 123.381 24.6794 122.694 24.2856L116.072 19.6546C115.705 19.3424 115.678 18.6458 116.033 18.0277" fill="#AFCECB"/>
<path d="M107.324 18.0208C107.679 18.6467 107.659 19.3417 107.276 19.6555L100.655 24.2787C99.9668 24.6803 98.936 24.2003 98.3462 23.1947C97.7579 22.1828 97.8771 21.047 98.5517 20.6532L105.881 17.2521C106.35 17.0732 106.964 17.4027 107.324 18.0208Z" fill="#AFCECB"/>
<path d="M126.944 23.5808H127.035C127.159 23.5808 127.209 23.62 127.223 23.7188C127.25 23.8286 127.264 23.9024 127.291 23.9338H127.526C127.506 23.9102 127.479 23.8506 127.465 23.7126C127.438 23.5933 127.377 23.5259 127.291 23.5023V23.4804C127.41 23.4537 127.479 23.3737 127.479 23.2749C127.479 23.1854 127.438 23.1211 127.397 23.0803C127.319 23.0427 127.244 23.0129 127.077 23.0129C126.93 23.0129 126.822 23.0254 126.735 23.0458V23.9338H126.944V23.5808ZM126.95 23.176L127.057 23.1619C127.183 23.1619 127.25 23.22 127.25 23.3015C127.25 23.3925 127.159 23.4349 127.043 23.4349H126.95V23.176ZM127.084 22.5736C126.569 22.5736 126.161 22.9752 126.161 23.4678C126.161 23.973 126.569 24.3746 127.084 24.3746C127.605 24.3746 128 23.973 128 23.4678C128 22.9752 127.605 22.5736 127.084 22.5736ZM127.084 22.754C127.479 22.754 127.772 23.0741 127.772 23.4678C127.772 23.8647 127.479 24.1942 127.084 24.1879C126.688 24.1879 126.389 23.8647 126.389 23.4678C126.389 23.0741 126.688 22.754 127.077 22.754" fill="#AFCECB"/>
</g>
<defs>
<clipPath id="clip0_696_1307">
<rect width="128" height="30.6912" fill="white" transform="translate(0 0.168701)"/>
</clipPath>
</defs>
</svg>
