<svg width="139" height="18" viewBox="0 0 139 18" fill="none" xmlns="http://www.w3.org/2000/svg">
<g clip-path="url(#clip0_1709_274)">
<path d="M29.9524 3.40857H34.3437L36.0261 11.5193H36.0635L37.6676 3.40857H42.079L42.8489 16.5157H39.8412L39.4489 6.9225H39.4114L37.3167 16.5157H34.6432L32.5311 6.9225H32.4749L32.102 16.5157H29.1858L29.9524 3.40857Z" fill="#FF3670"/>
<path d="M43.3669 11.4441C43.3669 8.25238 45.4229 6.22485 48.4694 6.22485C51.6282 6.22485 53.628 8.40277 52.9369 12.345H46.3927C46.7483 13.5092 47.7763 14.0161 49.1217 14.0161C50.1497 14.0161 51.2713 13.7341 52.1495 13.1151V15.9872C51.1777 16.4377 50 16.6257 48.9533 16.6257C45.4209 16.6257 43.3669 14.5605 43.3669 11.4441ZM50.2827 10.1859C50.1491 9.19095 49.367 8.66527 48.3945 8.66527C47.3853 8.66527 46.6942 9.24734 46.3947 10.1859H50.2827Z" fill="#FF3670"/>
<path d="M53.7849 6.33766H56.3248V7.1433H56.3622C56.8107 6.53907 57.4838 6.24233 58.3246 6.24233C58.5763 6.24157 58.8274 6.26722 59.0739 6.31886V9.26482C58.7195 9.11065 58.3384 9.02785 57.9523 9.02111C57.2231 9.02111 56.6623 9.4152 56.6623 10.3726V16.5156H53.7849V6.33766Z" fill="#FF3670"/>
<path d="M59.8967 6.33764H62.4366V7.16342H62.474C63.0909 6.50616 63.8389 6.22351 64.7546 6.22351C65.8387 6.22351 66.6982 6.6176 67.2403 7.36886H67.2777C67.9134 6.5988 68.7729 6.22351 69.8176 6.22351C71.7613 6.22351 72.9951 7.48098 72.9951 9.54677V16.5156H70.1351V10.2611C70.1351 9.43533 69.724 8.94724 69.0142 8.94724C68.3224 8.94724 67.8926 9.43533 67.8926 10.2611V16.5156H65.0139V10.2611C65.0139 9.43533 64.6028 8.94724 63.8923 8.94724C63.1818 8.94724 62.7715 9.43533 62.7715 10.2611V16.5156H59.8967V6.33764Z" fill="#FF3670"/>
<path d="M73.6567 13.2648C73.6567 11.1997 74.9654 9.94221 76.8342 9.94221C77.5635 9.94221 78.1991 10.1295 78.7224 10.4679H78.7599V10.1671C78.7599 9.15335 78.0868 8.57128 76.8884 8.57128C76.0288 8.57128 75.2061 8.87205 74.5898 9.20975V6.73173C75.5078 6.3745 76.4834 6.18994 77.4679 6.18726C80.122 6.18726 81.6359 7.57631 81.6359 10.1483V16.5156H78.9624V15.9113H78.925C78.4016 16.3618 77.655 16.6062 76.8129 16.6062C74.9467 16.6069 73.6567 15.3299 73.6567 13.2648ZM77.6945 14.5015C78.3856 14.5015 78.8715 13.9946 78.8715 13.2057C78.8715 12.4363 78.3856 11.9301 77.6945 11.9301C77.0033 11.9301 76.4793 12.437 76.4793 13.2057C76.4793 13.9744 77.0027 14.5015 77.6945 14.5015Z" fill="#FF3670"/>
<path d="M83.8811 2.56396C84.8904 2.56396 85.5441 3.14604 85.5441 4.08461C85.5441 5.02318 84.8904 5.60525 83.8811 5.60525C82.8906 5.60525 82.2175 5.02318 82.2175 4.08461C82.2175 3.14604 82.8719 2.56396 83.8811 2.56396ZM82.4414 6.33771H85.3202V16.5156H82.4414V6.33771Z" fill="#FF3670"/>
<path d="M85.9651 11.4253C85.9651 8.26986 87.8713 6.22488 90.4319 6.22488C91.3677 6.22488 92.2265 6.48738 92.8989 6.97547H92.9364V3.0144H95.8151V16.5156H93.1616V15.6119H93.1242C92.4324 16.288 91.4231 16.5881 90.4326 16.5881C87.8145 16.5881 85.9651 14.5418 85.9651 11.4253ZM91.0114 13.8281C92.1704 13.8281 93.0674 12.9459 93.0674 11.4065C93.0674 9.84824 92.1704 8.96607 91.0114 8.96607C89.815 8.96607 88.9554 9.88584 88.9554 11.4065C88.9554 12.9271 89.815 13.8301 91.0114 13.8301V13.8281Z" fill="#FF3670"/>
<path d="M99.5903 9.96104C99.5903 5.90599 102.282 3.27759 106.151 3.27759C106.786 3.28309 107.418 3.35213 108.039 3.4837V6.78816C107.457 6.5501 106.836 6.42284 106.207 6.41287C104.3 6.41287 102.899 7.72673 102.899 9.96104C102.899 12.1953 104.302 13.5092 106.207 13.5092C106.836 13.499 107.457 13.3717 108.039 13.1339V16.4377C107.418 16.5695 106.786 16.6388 106.151 16.6445C102.282 16.6445 99.5903 14.0161 99.5903 9.96104Z" fill="#FF3670"/>
<path d="M108.902 3.0144H111.781V7.03186H111.818C112.342 6.50618 113.051 6.22622 113.93 6.22622C115.78 6.22622 116.995 7.50182 116.995 9.54948V16.5156H114.136V10.2611C114.136 9.43535 113.687 8.94727 112.958 8.94727C112.229 8.94727 111.781 9.43535 111.781 10.2611V16.5156H108.902V3.0144Z" fill="#FF3670"/>
<path d="M117.625 13.2648C117.625 11.1997 118.933 9.94221 120.802 9.94221C121.531 9.94221 122.166 10.1295 122.69 10.4679H122.727V10.1671C122.727 9.15335 122.055 8.57128 120.855 8.57128C119.996 8.57128 119.173 8.87205 118.556 9.20975V6.73173C119.474 6.37456 120.45 6.19 121.435 6.18726C124.089 6.18726 125.603 7.57631 125.603 10.1483V16.5156H122.929V15.9113H122.892C122.369 16.3618 121.622 16.6062 120.78 16.6062C118.915 16.6069 117.625 15.3299 117.625 13.2648ZM121.662 14.5041C122.353 14.5041 122.839 13.9973 122.839 13.2084C122.839 12.439 122.353 11.9328 121.662 11.9328C120.97 11.9328 120.447 12.4397 120.447 13.2084C120.447 13.9771 120.971 14.5015 121.662 14.5015L121.662 14.5041Z" fill="#FF3670"/>
<path d="M126.685 6.33768H129.224V7.14332H129.262C129.71 6.53909 130.383 6.24234 131.224 6.24234C131.476 6.24124 131.726 6.26644 131.972 6.31754V9.26484C131.618 9.1106 131.237 9.0278 130.851 9.02113C130.122 9.02113 129.561 9.41522 129.561 10.3726V16.5156H126.683L126.685 6.33768Z" fill="#FF3670"/>
<path d="M133.488 13.5656V8.87211H132.498V7.10709C133.638 6.7318 134.161 6.13093 134.31 4.79826L134.366 4.31018H136.366V6.33771H138.217V8.87211H136.366V13.0588C136.366 13.663 136.666 13.8644 137.114 13.8644C137.464 13.8536 137.807 13.7706 138.123 13.6207V16.3988C137.565 16.5629 136.986 16.6452 136.404 16.6432C134.479 16.6445 133.488 15.7247 133.488 13.5656Z" fill="#FF3670"/>
<path d="M22.5014 0.0101107C20.1541 -0.09091 17.836 0.562749 15.884 1.87605C13.932 3.18935 12.4479 5.09382 11.6475 7.31256C11.097 5.78334 10.2172 4.39505 9.07086 3.24677C7.99055 2.15933 6.69653 1.3099 5.27129 0.75263C3.84604 0.195363 2.32084 -0.0575165 0.7929 0.0101107C0.725573 1.54486 0.97733 3.07686 1.53212 4.50847C2.08692 5.94007 2.93257 7.23986 4.01519 8.32498C4.50447 8.81667 5.03813 9.26168 5.60929 9.65429C6.40551 10.2036 7.05621 10.9398 7.50488 11.7991C7.95356 12.6583 8.18665 13.6146 8.18392 14.5848V18H15.1104V14.5848C15.1078 13.6146 15.341 12.6584 15.7897 11.7992C16.2383 10.94 16.8889 10.2037 17.685 9.65429C18.2565 9.26202 18.7901 8.81699 19.2791 8.32498C20.3619 7.23996 21.2076 5.94018 21.7624 4.50856C22.3172 3.07693 22.5689 1.54488 22.5014 0.0101107Z" fill="#FF3670"/>
<path d="M6.00305 14.5848C6.00632 13.9712 5.86022 13.3662 5.5775 12.8223C5.29477 12.2784 4.88398 11.8122 4.38088 11.4642C3.69716 10.9953 3.05853 10.4633 2.47331 9.87512C1.84077 9.23881 1.2744 8.53944 0.782959 7.78784L0.782959 18H6.00305V14.5848Z" fill="#FF3670"/>
<path d="M17.292 14.5848C17.2888 13.9712 17.4349 13.3662 17.7176 12.8223C18.0003 12.2784 18.4111 11.8122 18.9142 11.4642C19.5978 10.9952 20.2364 10.4632 20.8218 9.87512C21.4543 9.23881 22.0207 8.53944 22.5121 7.78784V18H17.292V14.5848Z" fill="#FF3670"/>
</g>
<defs>
<clipPath id="clip0_1709_274">
<rect width="138" height="18" fill="white" transform="translate(0.5)"/>
</clipPath>
</defs>
</svg>
