<svg width="120" height="29" viewBox="0 0 120 29" fill="none" xmlns="http://www.w3.org/2000/svg">
<path d="M33.0614 14.0718H30.9839L33.7885 3.977H35.6692L36.7628 11.1154L40.1157 3.9725H41.9965L41.5864 14.0673H39.5659L39.8243 8.27028L37.23 14.0718H35.3703L34.6192 8.30633L33.0614 14.0718ZM44.765 14.0718H42.5913L47.5155 3.977H49.886L51.5249 14.0718H49.3978L49.0328 11.7974H45.8631L44.765 14.0718ZM48.8089 9.89716L48.3222 6.38803L46.6893 9.89716H48.8089ZM54.4076 14.0718L56.8502 10.7955L58.3734 14.0718H60.6372L58.2968 9.16259L62.3407 3.977H59.9462L57.4391 7.31939L55.8903 3.977H53.6115L55.9669 8.93425L52.0221 14.0718H54.4076ZM63.7663 14.0718L65.3677 3.977H63.2901L61.6903 14.0718H63.7663ZM68.5929 6.75907C68.6515 6.39404 68.7837 6.14618 68.9849 6.02149C69.1862 5.89681 69.5483 5.81269 69.9914 5.81269C71.1105 5.81269 72.0765 5.84724 72.8591 5.91634L73.0694 5.93437L73.3293 4.2519L73.125 4.20534C72.6371 4.0985 72.1429 4.02274 71.6453 3.9785C71.0925 3.92593 70.5938 3.90039 70.1732 3.90039C69.1667 3.90039 68.357 4.09718 67.7697 4.48625C67.1823 4.87532 66.7812 5.57083 66.6325 6.52022L66.5003 7.32089C66.4736 7.509 66.4601 7.69873 66.4598 7.88872C66.4598 8.5542 66.6776 9.09048 67.1102 9.46904C67.5428 9.84759 68.1302 10.0354 68.8798 10.0354H69.7946C70.2573 10.0354 70.4781 10.115 70.5803 10.1856C70.6429 10.2317 70.692 10.2939 70.7224 10.3655C70.7528 10.4371 70.7634 10.5156 70.753 10.5927C70.756 10.6753 70.7494 10.7579 70.7335 10.839L70.6644 11.3017C70.6058 11.6683 70.4616 11.9026 70.2243 12.0348C69.9584 12.1775 69.5302 12.2496 68.9519 12.2496C67.8388 12.2496 66.8638 12.2151 66.0572 12.146L65.8469 12.1279L65.587 13.8089L65.7898 13.857C66.2567 13.9599 66.7299 14.0317 67.2063 14.0718C67.7682 14.1243 68.36 14.1514 68.9654 14.1514C70.077 14.1514 70.9318 13.9576 71.5071 13.5775C72.0825 13.1975 72.4685 12.5395 72.5992 11.6607L72.7495 10.7594C72.7763 10.5758 72.7903 10.3906 72.7915 10.2051C72.8044 9.90491 72.7494 9.60567 72.6305 9.3297C72.5116 9.05373 72.332 8.80816 72.105 8.61128C71.6634 8.23273 71.0249 8.04045 70.2077 8.04045H69.2523C68.8828 8.04045 68.71 7.96984 68.6304 7.90975C68.5944 7.88272 68.4802 7.80009 68.4802 7.49515C68.4811 7.402 68.4927 7.30926 68.5148 7.21874L68.5929 6.75907ZM29.7926 15.7632L29.4922 17.5809H32.4049L31.053 26.1509H33.0524L34.4044 17.5884H37.3156L37.6161 15.7708L29.7926 15.7632ZM41.02 15.7632C40.388 15.7425 39.7675 15.9363 39.2595 16.313C38.7833 16.6826 38.4798 17.2805 38.3582 18.0901L37.4283 23.8736C37.4007 24.0395 37.3861 24.2072 37.3847 24.3753C37.3847 25.0648 37.6131 25.5561 38.0652 25.8355C38.5294 26.1098 39.0615 26.2477 39.6005 26.2336C40.5739 26.2245 41.9334 26.1645 43.6414 26.0563L43.7616 26.0488L44.041 24.3468H40.2584C40.0459 24.3635 39.8335 24.3142 39.65 24.2056C39.5869 24.1501 39.5383 24.0801 39.5085 24.0015C39.4786 23.923 39.4684 23.8383 39.4788 23.7549C39.4788 23.7324 39.4788 23.6678 39.5043 23.4905L39.7462 21.8652L43.7916 21.769L44.0425 20.1512L40.0376 20.0415L40.2704 18.5588C40.2966 18.287 40.4117 18.0315 40.5979 17.8318C40.7965 17.6757 41.046 17.5992 41.298 17.617H45.0895L45.3494 15.9225L45.1841 15.9135C43.4476 15.8128 42.046 15.7632 41.02 15.7632ZM53.5619 16.1944C52.5169 15.8503 51.4233 15.6769 50.3232 15.6806C49.0418 15.6806 48.0458 16.1012 47.3638 16.932C46.6818 17.7627 46.2222 18.9975 45.9638 20.6469C45.849 21.3421 45.7892 22.0453 45.785 22.75C45.785 25.0618 46.8966 26.2351 49.0898 26.2351C50.2751 26.2351 51.274 26.1089 52.0597 25.8595L52.1483 25.831L52.4157 24.2116L52.2114 24.2416C51.7893 24.3047 51.3792 24.3498 50.9931 24.3768C50.6071 24.4039 50.1174 24.4174 49.5405 24.4174C48.8825 24.4174 48.4154 24.2897 48.1555 24.0358C47.8956 23.782 47.7634 23.3568 47.7634 22.7635C47.7719 22.1819 47.8292 21.602 47.9347 21.0299C48.0349 20.2787 48.2287 19.5429 48.5115 18.8397C48.7338 18.3425 49.0117 17.9925 49.3392 17.8002C49.7259 17.589 50.1622 17.4852 50.6026 17.4998C51.498 17.5073 52.3899 17.6116 53.263 17.8107L53.4132 17.8453L53.6791 16.2364L53.5619 16.1944ZM61.151 15.7632L60.4525 20.1196H56.5197L57.2167 15.7632H55.2173L53.5649 26.1509H55.5628L56.2328 21.9448H60.167L59.4971 26.1509H61.4965L63.1489 15.7632H61.151ZM69.5993 22.6298L66.3215 15.7632H64.7322L63.0798 26.1509H65.0792L66.1713 19.2709L69.4491 26.1509H71.04L72.6924 15.7632H70.6914L69.5993 22.6298ZM81.3721 17.0131C81.6635 17.5073 81.8107 18.2148 81.8107 19.0981C81.8006 19.8485 81.7313 20.5969 81.6034 21.3364C81.3916 22.6508 81.0851 23.6708 80.6901 24.3663C80.3467 25.0223 79.7905 25.5419 79.1128 25.84C78.4833 26.1014 77.6421 26.2336 76.6161 26.2336C75.9721 26.251 75.3297 26.1627 74.7143 25.9722C74.1979 25.7963 73.7636 25.4379 73.493 24.9642C73.2061 24.482 73.0619 23.806 73.0619 22.9528C73.077 22.1977 73.1458 21.4447 73.2677 20.6995C73.4705 19.4016 73.7754 18.3831 74.169 17.668C74.5204 16.9928 75.0819 16.4502 75.7689 16.1223C76.4133 15.8218 77.253 15.6716 78.264 15.6716C78.9017 15.6548 79.5373 15.7504 80.1418 15.954C80.6644 16.1501 81.1004 16.5254 81.3721 17.0131ZM79.0827 23.1165C79.3491 22.4508 79.5313 21.7544 79.625 21.0435C79.7358 20.4051 79.7991 19.7594 79.8143 19.1116C79.8339 18.7611 79.7679 18.411 79.622 18.0916C79.5039 17.8772 79.3083 17.716 79.0752 17.641C78.734 17.5408 78.3791 17.4951 78.0237 17.5058C77.5513 17.4844 77.0808 17.5793 76.6537 17.7822C76.3247 17.961 76.0528 18.2974 75.8305 18.7842C75.6081 19.2709 75.4098 20.028 75.2596 20.9939C75.1449 21.6184 75.0766 22.2506 75.0553 22.8852C75.037 23.2151 75.101 23.5445 75.2416 23.8436C75.3596 24.0524 75.5549 24.2067 75.7854 24.2732C76.1445 24.3706 76.5161 24.4142 76.888 24.4024C77.3639 24.4224 77.8369 24.3189 78.261 24.1019C78.632 23.8683 78.9196 23.5234 79.0827 23.1165ZM84.8587 24.1981C84.7987 24.146 84.7523 24.0801 84.7238 24.0059C84.6952 23.9318 84.6853 23.8518 84.6949 23.773C84.6924 23.6801 84.701 23.5873 84.7205 23.4966L85.9372 15.7632H83.9378L82.6865 23.6708C82.659 23.8699 82.6449 24.0707 82.6444 24.2717C82.6444 25.496 83.3625 26.1434 84.722 26.1434H88.6382L88.9161 24.3258H85.419C85.2235 24.3418 85.0279 24.2972 84.8587 24.1981ZM98.3935 17.0131C98.6834 17.5073 98.8306 18.2148 98.8306 19.0981C98.8212 19.8485 98.7519 20.597 98.6233 21.3364C98.413 22.6508 98.105 23.6708 97.7115 24.3663C97.3687 25.0199 96.8149 25.5382 96.1402 25.837C95.5092 26.0984 94.6695 26.2305 93.642 26.2305C92.9985 26.248 92.3566 26.1597 91.7417 25.9692C91.2255 25.7923 90.791 25.4342 90.5189 24.9612C90.2335 24.479 90.0878 23.803 90.0878 22.9498C90.1036 22.1947 90.1728 21.4417 90.2951 20.6965C90.4979 19.3986 90.8029 18.3801 91.1964 17.665C91.5482 16.9901 92.1096 16.4476 92.7963 16.1193C93.4422 15.8188 94.2819 15.6686 95.2914 15.6686C95.9291 15.6517 96.5647 15.7473 97.1692 15.951C97.6899 16.1493 98.1236 16.5255 98.3935 17.0131ZM96.1041 23.1165C96.3698 22.4505 96.552 21.7542 96.6464 21.0435C96.7565 20.405 96.8197 19.7593 96.8357 19.1116C96.8548 18.761 96.7883 18.4109 96.6419 18.0916C96.5247 17.877 96.3295 17.7156 96.0966 17.641C95.7554 17.5409 95.4005 17.4952 95.0451 17.5058C94.5722 17.4843 94.1012 17.5792 93.6736 17.7822C93.3446 17.961 93.0727 18.2974 92.8503 18.7842C92.628 19.2709 92.4327 20.0355 92.281 21.0014C92.169 21.6236 92.1032 22.2532 92.0842 22.8852C92.0655 23.215 92.129 23.5443 92.269 23.8436C92.3876 24.0525 92.5834 24.2067 92.8143 24.2732C93.1729 24.3705 93.544 24.414 93.9154 24.4024C94.3918 24.4224 94.8653 24.3189 95.2899 24.1019C95.6574 23.8668 95.9417 23.5221 96.1026 23.1165H96.1041ZM106.391 15.7843C105.757 15.6996 105.117 15.6604 104.477 15.6671C103.197 15.6671 102.18 16.0892 101.452 16.9214C100.723 17.7537 100.24 18.9674 99.9813 20.5658C99.8495 21.3459 99.7757 22.1347 99.7604 22.9257C99.7604 24.0584 99.9738 24.8996 100.396 25.4254C100.818 25.9511 101.539 26.2336 102.521 26.2336C103.041 26.2172 103.556 26.1251 104.049 25.9602C104.448 25.8437 104.837 25.6991 105.215 25.5275L105.337 26.1509H106.839L107.775 20.2533H107.606C107.186 20.2338 106.719 20.2248 106.218 20.2248C105.446 20.2197 104.675 20.2568 103.907 20.3359L103.791 20.3479L103.541 21.9613H105.578L105.257 24.0343C104.941 24.1251 104.621 24.1988 104.297 24.2552C103.906 24.3332 103.508 24.376 103.109 24.3828C102.637 24.3828 102.293 24.2597 102.087 24.0178C101.882 23.776 101.769 23.3674 101.769 22.8161C101.781 22.2051 101.839 21.5959 101.945 20.9939C102.037 20.282 102.208 19.5827 102.455 18.9088C102.611 18.4732 102.895 18.0943 103.268 17.8213C103.609 17.5884 104.076 17.4712 104.653 17.4712C105.652 17.4611 106.649 17.5461 107.632 17.7251L107.782 17.7552L108.032 16.1598L107.907 16.1223C107.41 15.9723 106.903 15.8593 106.39 15.7843H106.391ZM115.696 15.7632L112.765 20.6889L111.553 15.7632H109.375L111.43 22.9347L110.916 26.1509H112.915L113.415 22.9828L117.975 15.7723L115.696 15.7632Z" fill="#AFCECB"/>
<path d="M3.78586 8.37696C3.76676 8.3241 3.76491 8.26655 3.78057 8.21257C3.79622 8.1586 3.82857 8.11097 3.87299 8.07652C4.85392 7.29238 6.15933 6.89429 7.75617 6.89429C12.072 6.89429 17.4513 9.81907 18.9971 10.7144C19.0346 10.7372 19.0662 10.7685 19.0896 10.8056C19.1129 10.8428 19.1274 10.8848 19.1317 10.9285C19.1361 10.9722 19.1303 11.0163 19.1148 11.0573C19.0992 11.0983 19.0744 11.1352 19.0422 11.165C18.8589 11.3258 18.6696 11.488 18.4773 11.6457C18.4057 11.7044 18.3161 11.7367 18.2235 11.7374C18.1537 11.7376 18.0852 11.7189 18.0252 11.6833C16.1529 10.6116 14.1845 9.71737 12.1456 9.01239C10.2408 8.36945 8.51477 8.04498 7.01558 8.04498C6.03417 8.02842 5.05853 8.19817 4.14038 8.54521C4.10653 8.5588 4.07028 8.56536 4.03382 8.56449C3.99736 8.56363 3.96146 8.55536 3.9283 8.54018C3.89513 8.52501 3.8654 8.50324 3.84092 8.47622C3.81643 8.44919 3.7977 8.41746 3.78586 8.38297V8.37696ZM7.85681 18.0766L7.80874 18.0361C7.02009 17.4022 5.17239 15.9225 4.52043 14.198C4.43286 13.9809 4.37769 13.7521 4.35669 13.519C4.26806 12.1835 5.39471 11.5316 5.74322 11.3633C6.4132 11.0374 7.24542 10.8736 8.20833 10.8736C10.8897 10.8736 14.0534 12.1249 15.9461 13.196C16.0082 13.2329 16.079 13.2524 16.1512 13.2524C16.2234 13.2524 16.2942 13.2329 16.3562 13.196C16.6972 12.9812 17.0503 12.7454 17.4078 12.4855C17.4462 12.4574 17.4771 12.4201 17.4975 12.3771C17.518 12.3341 17.5274 12.2867 17.525 12.2391C17.5216 12.1914 17.506 12.1453 17.4797 12.1053C17.4534 12.0653 17.4172 12.0328 17.3747 12.0108C15.0929 10.7459 10.708 8.62332 6.98704 8.62332C5.50888 8.62332 4.27407 8.96732 3.31717 9.64482C2.93834 9.90656 2.62443 10.2515 2.39947 10.6533C2.1745 11.055 2.04445 11.5029 2.01928 11.9627C1.99286 12.6396 2.1101 13.3143 2.36328 13.9426C3.36524 16.4498 6.06619 17.8483 7.68106 18.673L7.74565 18.7061C7.81087 18.7413 7.88338 18.7608 7.95746 18.7632C8.00815 18.7661 8.05852 18.7533 8.10158 18.7264C8.14464 18.6994 8.17827 18.6598 8.19781 18.6129C8.21513 18.5488 8.21199 18.4809 8.18883 18.4187C8.16567 18.3565 8.12364 18.3031 8.06862 18.2659L7.85681 18.0766ZM7.75617 6.32196H7.7787C9.31394 6.32196 11.0835 6.65995 13.0574 7.32843C15.2992 8.11533 17.4578 9.12167 19.5018 10.3328C19.5636 10.3699 19.6341 10.3896 19.7061 10.3899C19.759 10.3902 19.8114 10.3799 19.8602 10.3595C19.909 10.3391 19.9531 10.3091 19.9901 10.2712C20.1207 10.139 20.2394 10.0159 20.3536 9.89268C20.3819 9.86183 20.4031 9.82508 20.4156 9.78509C20.428 9.74509 20.4315 9.70283 20.4257 9.66134C20.4199 9.61952 20.4048 9.57955 20.3814 9.54442C20.358 9.5093 20.3269 9.47994 20.2905 9.45854C18.3932 8.32589 13.5201 5.68953 9.26587 5.68953C8.74478 5.68734 8.22451 5.73108 7.7111 5.82022C7.64763 5.82995 7.59026 5.8635 7.55067 5.91404C7.51107 5.96458 7.49222 6.02831 7.49797 6.09226C7.50371 6.1562 7.53361 6.21556 7.58158 6.25823C7.62955 6.30091 7.69198 6.3237 7.75617 6.32196Z" fill="#AFCECB"/>
<path d="M26.0671 6.23599C26.0762 6.1723 26.1083 6.11413 26.1572 6.07237C26.2062 6.03062 26.2687 6.00814 26.333 6.00916C26.3983 6.0082 26.4618 6.0312 26.5113 6.07382C26.5609 6.11645 26.5931 6.17574 26.6019 6.2405C27.3951 11.4606 19.2652 16.5741 16.7535 18.0177C16.7149 18.0401 16.6715 18.0529 16.6269 18.0551C16.5824 18.0574 16.5379 18.049 16.4972 18.0306C16.4566 18.0123 16.4209 17.9845 16.3931 17.9496C16.3653 17.9147 16.3462 17.8737 16.3374 17.8299C16.2878 17.5896 16.2427 17.3432 16.2022 17.0984C16.1886 17.0186 16.1999 16.9366 16.2345 16.8635C16.2692 16.7904 16.3256 16.7297 16.396 16.6898C18.2613 15.6039 20.0215 14.3467 21.6537 12.9343C24.2735 10.6329 25.7562 8.37963 26.0671 6.23599ZM15.5352 4.81491C15.5865 4.81402 15.6373 4.80437 15.6854 4.78637L15.9438 4.68572L16.0039 4.66319C16.767 4.36275 18.5576 3.67625 20.1875 3.67625C20.45 3.67508 20.7122 3.69467 20.9717 3.73483C21.2043 3.76788 21.4307 3.83574 21.6431 3.93613C22.8449 4.52649 22.8449 5.8289 22.8164 6.21346C22.582 9.50177 18.3383 12.8321 16.1271 14.1345C16.0648 14.1706 16.0136 14.2229 15.9789 14.2859C15.9443 14.3489 15.9274 14.4202 15.9303 14.4921C15.9453 14.8947 15.9754 15.3198 16.0204 15.7569C16.0268 15.8265 16.059 15.8912 16.1108 15.9382C16.1625 15.9852 16.2299 16.0111 16.2998 16.0108C16.3525 16.0112 16.4043 15.9977 16.45 15.9717C19.3253 14.2427 25.9665 9.71358 25.5263 4.98015C25.49 4.52167 25.3492 4.07758 25.1149 3.68183C24.8806 3.28608 24.5589 2.94916 24.1743 2.69681C23.6011 2.33614 22.9582 2.10066 22.2876 2.0058C22.0203 1.96918 21.7507 1.95161 21.4809 1.95323C19.1029 1.95323 16.8677 3.39083 15.5307 4.25009L15.4706 4.28914C15.4044 4.32058 15.3503 4.37287 15.3167 4.43799C15.283 4.50311 15.2717 4.57747 15.2843 4.64967C15.3031 4.70032 15.3376 4.74366 15.3827 4.77338C15.4278 4.8031 15.4813 4.81765 15.5352 4.81491ZM26.3961 10.349C26.352 10.3488 26.3087 10.3604 26.2707 10.3826C26.2327 10.4048 26.2013 10.4367 26.1798 10.4752C25.4122 11.8121 24.2269 13.1882 22.6556 14.5627C20.854 16.1119 18.9031 17.4786 16.8316 18.6426C16.7543 18.6858 16.6936 18.7537 16.6593 18.8353C16.625 18.917 16.619 19.0078 16.6423 19.0933C16.6919 19.2736 16.74 19.4388 16.7925 19.5965C16.8051 19.6366 16.8264 19.6733 16.8549 19.7041C16.8835 19.7349 16.9185 19.7589 16.9575 19.7745C16.9965 19.79 17.0385 19.7967 17.0803 19.794C17.1222 19.7912 17.163 19.7792 17.1996 19.7588C19.519 18.4654 25.0817 14.9938 26.6394 10.684C26.6543 10.6466 26.6595 10.6061 26.6545 10.5662C26.6495 10.5262 26.6345 10.4882 26.6109 10.4557C26.5866 10.4217 26.5543 10.3941 26.5168 10.3755C26.4793 10.357 26.4379 10.3478 26.3961 10.349Z" fill="#AFCECB"/>
<path d="M24.203 18.2225C24.2902 20.0357 24.4359 23.0716 22.7654 25.1927C22.3482 25.7267 21.8224 26.166 21.2227 26.4816C20.8041 26.6952 20.3406 26.8059 19.8707 26.8046C19.4194 26.8034 18.9737 26.705 18.5638 26.5161C14.248 24.5302 13.6456 16.513 13.587 13.1601C13.5863 13.1225 13.5932 13.085 13.6074 13.0502C13.6216 13.0153 13.6428 12.9837 13.6696 12.9573C13.7102 12.9165 13.7623 12.8889 13.8188 12.8782C13.8754 12.8675 13.9339 12.8741 13.9866 12.8972C14.3877 13.0775 14.7723 13.2653 15.1268 13.453C15.1903 13.4869 15.2436 13.5373 15.2809 13.5989C15.3182 13.6605 15.3381 13.731 15.3386 13.803C15.3611 16.3688 16.1227 21.7091 18.8522 23.5553C19.2731 23.8497 19.7718 24.0128 20.2853 24.024C20.6872 24.0254 21.08 23.9049 21.412 23.6785C21.6051 23.545 21.7768 23.3829 21.9212 23.1978C23.0824 21.7737 23.4474 19.4318 23.6022 18.4313L23.6127 18.3682L23.6547 18.0933C23.6938 17.88 23.8275 17.8034 23.9296 17.8034C24.0558 17.8034 24.188 17.9116 24.2015 18.1504L24.203 18.2225ZM11.7033 19.238C11.2631 16.9033 11.0553 14.5308 11.0829 12.1551C11.0842 12.0655 11.0553 11.978 11.0008 11.9069C10.9463 11.8357 10.8693 11.785 10.7824 11.7631C10.6022 11.7165 10.4354 11.6759 10.2732 11.6384C10.2522 11.6362 10.2311 11.6362 10.2101 11.6384C10.1364 11.6384 10.0656 11.6673 10.013 11.7191C9.96047 11.7708 9.93035 11.8411 9.92917 11.9148C9.89162 14.5722 10.1184 21.1187 13.0688 24.6219C13.0916 24.6505 13.1206 24.6736 13.1537 24.6895C13.1867 24.7054 13.2229 24.7136 13.2595 24.7135C13.3047 24.7134 13.349 24.7014 13.388 24.6787C13.4271 24.656 13.4594 24.6235 13.4819 24.5843C13.504 24.5462 13.5157 24.5029 13.5157 24.4589C13.5157 24.4148 13.504 24.3715 13.4819 24.3334C12.7082 23.001 12.1104 21.2855 11.7033 19.238ZM13.6126 19.1899C13.2065 17.0693 13.0002 14.9152 12.9967 12.756C12.996 12.6752 12.971 12.5964 12.9249 12.5299C12.8788 12.4635 12.8138 12.4124 12.7383 12.3835C12.5054 12.2963 12.2711 12.2137 12.0383 12.1356C12.0093 12.1253 11.9788 12.1202 11.9481 12.1206C11.8736 12.121 11.8022 12.1506 11.7494 12.2032C11.6966 12.2558 11.6665 12.327 11.6657 12.4015C11.6657 15.2977 12.0262 24.8953 16.9429 26.8226C16.9751 26.8345 17.0092 26.8406 17.0436 26.8406C17.0998 26.84 17.1545 26.8221 17.2002 26.7893C17.2459 26.7566 17.2804 26.7105 17.299 26.6573C17.3179 26.6043 17.3195 26.5467 17.3036 26.4927C17.2876 26.4387 17.255 26.3912 17.2103 26.3569C15.5083 25.0154 14.2976 22.6044 13.6126 19.1899Z" fill="#AFCECB"/>
</svg>
