<svg width="118" height="36" viewBox="0 0 118 36" fill="none" xmlns="http://www.w3.org/2000/svg">
<path fill-rule="evenodd" clip-rule="evenodd" d="M0.290527 17.9928C0.290527 8.05249 8.35888 0 18.3189 0C28.2716 0 36.3472 8.05249 36.3472 17.9928C36.3472 27.9332 28.2788 35.9857 18.3189 35.9857C8.35888 35.9857 0.290527 27.9332 0.290527 17.9928ZM28.7007 12.8448C28.7153 12.8012 28.7153 12.7504 28.7153 12.6923L28.6426 12.7649C28.6644 12.7068 28.679 12.6415 28.679 12.5543C28.6862 12.4963 28.6862 12.4454 28.6644 12.4019V12.3656C28.628 12.2494 28.5989 12.1259 28.5771 12.0098C28.5625 11.8936 28.5843 11.7629 28.6499 11.6176C28.6486 11.6151 28.6473 11.6127 28.6461 11.6106C28.6404 11.6003 28.6366 11.5933 28.6426 11.5813C28.5625 11.3853 28.5116 11.1965 28.5044 11.0295C28.4898 10.8698 28.4607 10.7318 28.4316 10.6011C28.4025 10.4704 28.337 10.347 28.2351 10.2381C28.206 10.2017 28.1842 10.1582 28.1842 10.1219C28.1842 10.0856 28.1624 10.0347 28.1624 10.0347V9.99845C28.1479 9.96216 28.1406 9.92587 28.1333 9.88957C28.1316 9.88266 28.1299 9.87546 28.1281 9.86776C28.1222 9.84294 28.1153 9.81392 28.1042 9.78063C28.0928 9.73784 28.0825 9.69727 28.0728 9.65941C28.058 9.60087 28.0447 9.54875 28.0315 9.50469C28.0096 9.4321 27.9732 9.35945 27.9223 9.29414C27.8205 9.02547 27.6968 8.78583 27.5222 8.5608C27.4825 8.50961 27.4432 8.45877 27.4041 8.40836C27.2714 8.23702 27.1422 8.06996 27.0129 7.90725L26.9835 7.87474C26.7902 7.66119 26.6029 7.4542 26.409 7.25378C26.3145 7.15937 26.2271 7.07226 26.1471 6.97786C26.1111 6.93539 26.0751 6.89146 26.0384 6.84671C25.9936 6.792 25.9478 6.73608 25.8998 6.68016L25.8561 6.65838L25.7761 6.60754L25.5506 6.47685C25.3105 6.29533 25.0995 6.19367 24.9176 6.15736C24.8157 6.13558 24.7285 6.09928 24.6557 6.05571C24.5993 6.01632 24.5473 5.98565 24.4929 5.95357C24.4771 5.94425 24.4611 5.93481 24.4447 5.92501C24.3429 5.85966 24.2483 5.80883 24.1682 5.77252C24.0882 5.73622 24.0009 5.7217 23.899 5.73623C23.7972 5.75074 23.7099 5.73623 23.6371 5.69266C23.5644 5.64909 23.5135 5.59826 23.4917 5.54743C23.2734 5.32234 23.0042 5.23521 22.684 5.28604C22.6332 5.28604 22.5822 5.28604 22.5313 5.27152C22.4804 5.25699 22.4367 5.24974 22.4003 5.24974C22.3712 5.23521 22.3494 5.23521 22.3276 5.23521C22.2912 5.23521 22.2548 5.22795 22.2184 5.21343C22.2063 5.21101 22.1942 5.20778 22.182 5.20455C22.1578 5.1981 22.1336 5.19165 22.1093 5.19165C21.9711 5.14807 21.8547 5.11903 21.7456 5.11177C21.6364 5.10451 21.5418 5.1263 21.4545 5.18438C21.4109 5.22795 21.3599 5.24973 21.3017 5.24247C21.2881 5.24077 21.2752 5.23906 21.2631 5.23746C21.2235 5.2322 21.1913 5.22795 21.1635 5.22795L21.1199 5.20616C21.104 5.20458 21.0888 5.20335 21.0742 5.20215C21.0217 5.19787 20.9762 5.19416 20.9307 5.17712C20.8879 5.16112 20.8373 5.15295 20.7817 5.14399C20.7617 5.14075 20.7409 5.13741 20.7197 5.13356C20.4287 5.04643 20.1814 5.02464 19.9994 5.06094C19.8466 5.09725 19.7084 5.1263 19.5847 5.13356C19.4611 5.14808 19.3229 5.15534 19.1774 5.15534H18.93C18.8572 5.1626 18.7845 5.16986 18.719 5.18438C18.5225 5.21343 18.3334 5.22795 18.1588 5.23521C17.9842 5.24247 17.795 5.24247 17.5986 5.23521C17.5501 5.24005 17.4951 5.24489 17.4401 5.24974C17.4126 5.25215 17.3852 5.25457 17.3585 5.25699C17.2785 5.26425 17.1985 5.27152 17.1184 5.27152H17.0093C16.9729 5.28604 16.9365 5.28604 16.922 5.28604C16.9074 5.28604 16.8783 5.28604 16.8347 5.30056C16.7461 5.30736 16.6575 5.30141 16.5568 5.29467C16.5501 5.29421 16.5433 5.29376 16.5364 5.2933C16.4345 5.28604 16.3327 5.28604 16.2309 5.30056C16.0871 5.30739 15.9434 5.30137 15.7815 5.29458C15.7713 5.29416 15.761 5.29373 15.7507 5.2933C15.5761 5.28604 15.416 5.28604 15.2705 5.28604C15.2124 5.28604 15.1541 5.2933 15.1032 5.30782C15.0827 5.31037 15.0632 5.31381 15.0439 5.31721C15.0083 5.32349 14.9736 5.32961 14.9358 5.32961C14.8922 5.34412 14.8558 5.35139 14.8267 5.35139C14.8156 5.35415 14.8035 5.35586 14.7903 5.35772C14.7688 5.36075 14.7446 5.36417 14.7175 5.37317C14.6128 5.39279 14.502 5.40651 14.396 5.41965C14.3843 5.42111 14.3727 5.42255 14.3611 5.424C14.2447 5.43852 14.1283 5.45304 14.0046 5.47483C13.9463 5.48209 13.8882 5.48934 13.8227 5.50387C13.8161 5.50534 13.8095 5.50681 13.8031 5.50825C13.7455 5.52118 13.6931 5.53292 13.6408 5.53292L13.619 5.54017V5.57647L13.4953 5.69266L13.4807 5.71444C13.4225 5.75074 13.3716 5.78705 13.3352 5.82336C13.2043 5.85966 13.117 5.8887 13.066 5.91049C12.8696 5.93953 12.7314 6.00488 12.6514 6.10654C12.6004 6.16463 12.5495 6.20093 12.4986 6.20819C12.4476 6.21545 12.404 6.22271 12.3603 6.23724L12.3385 6.22271C12.2658 6.23723 12.193 6.23724 12.1275 6.23724H11.9457C11.6692 6.21545 11.4291 6.24449 11.2254 6.30258C10.978 6.43328 10.7816 6.52768 10.6361 6.57851C10.5779 6.60029 10.5342 6.61481 10.4978 6.62207C10.4327 6.63919 10.4435 6.64016 10.4861 6.64402C10.5338 6.64835 10.6216 6.65629 10.687 6.69468L10.7016 6.76004H10.8398C10.9271 6.6729 11.0508 6.62207 11.2108 6.61481C11.3636 6.60755 11.5091 6.63659 11.6401 6.69468L11.5746 6.7092H11.7638C11.7802 6.70686 11.7967 6.70528 11.8128 6.70371C11.8468 6.70043 11.8797 6.69725 11.9093 6.68741C11.9674 6.68016 12.0257 6.68742 12.0766 6.70195C12.1348 6.71646 12.3967 6.65838 12.3967 6.65838L12.4767 6.64385C12.8114 6.65111 12.8987 6.78181 12.7386 6.79633C12.6927 6.8005 12.6947 6.80048 12.7242 6.80023C12.7974 6.79959 13.0402 6.79747 13.1388 6.85442L13.2989 7.01417L13.6408 7.05047L13.7281 7.13763C13.91 7.13763 13.9755 7.33363 13.9027 7.34091C13.8714 7.34404 13.8376 7.36051 13.8021 7.37777C13.755 7.40066 13.7052 7.4249 13.6554 7.42076C13.5475 7.43873 13.4574 7.48857 13.3746 7.53442C13.2898 7.58133 13.2125 7.62411 13.1315 7.62411C13.0733 7.63139 13.0297 7.63139 12.986 7.62411H12.8405C12.6805 7.61684 12.5133 7.61684 12.3388 7.61684C12.1642 7.61684 11.9966 7.63859 11.822 7.68215C11.8241 7.69513 11.8231 7.70226 11.8215 7.70597C11.8243 7.7049 11.829 7.70397 11.8365 7.70397C11.8485 7.70397 11.8643 7.70269 11.8828 7.70126C11.9091 7.69919 11.9406 7.6967 11.9747 7.6967C12.2294 7.66041 12.4113 7.76208 12.5131 7.98711C12.5495 7.91453 12.5858 7.87823 12.615 7.85642C12.855 7.82012 13.1024 7.79838 13.3425 7.78383C13.5899 7.77656 13.8372 7.7911 14.0846 7.82739C14.1508 7.83003 14.2151 7.83367 14.2778 7.83716C14.3874 7.8433 14.4921 7.84921 14.5939 7.84921C14.7612 7.85641 14.9212 7.83467 15.0959 7.7911C15.1541 7.7911 15.2123 7.7911 15.2705 7.81285C15.3287 7.83467 15.3942 7.84921 15.4669 7.84921C15.5033 7.84194 15.5469 7.83467 15.576 7.84921C15.6052 7.86369 15.6415 7.86369 15.6852 7.84921C15.8088 7.8274 15.8889 7.83467 15.918 7.84921C15.9471 7.86369 15.9689 7.97991 15.9762 8.18319C15.9858 8.18162 15.9962 8.17962 16.0072 8.17756C16.0459 8.17021 16.0925 8.16144 16.1435 8.16144H16.3473C16.6965 8.16864 17.0602 8.17592 17.4385 8.17592C17.8169 8.18319 18.217 8.19773 18.6389 8.22675C18.799 8.23766 18.9591 8.25035 19.1191 8.26305C19.2792 8.27574 19.4393 8.2885 19.5993 8.29934C19.9267 8.32116 20.2468 8.35745 20.5669 8.40102L20.6979 8.42283C20.7634 8.42283 20.8361 8.43011 20.9016 8.44458C20.9224 8.44693 20.9432 8.44993 20.9643 8.45299C21.0094 8.45962 21.0556 8.4664 21.1053 8.4664C21.1223 8.47089 21.1391 8.47538 21.1557 8.47987C21.2458 8.50412 21.3299 8.52672 21.4036 8.53898C21.4909 8.55353 21.5855 8.5608 21.6728 8.5608C21.9419 8.53898 22.2112 8.55353 22.4876 8.61884C22.663 8.66027 22.8354 8.69884 23.003 8.73627C23.0996 8.75788 23.1947 8.77913 23.2879 8.80037C23.3825 8.82219 23.4698 8.84394 23.5644 8.88023C23.6589 8.9166 23.7463 8.93834 23.8263 8.95289C23.9645 8.98191 24.0882 9.01093 24.2192 9.06176C24.3501 9.1126 24.4811 9.15617 24.6193 9.19973C24.7066 9.21428 24.7939 9.2433 24.8885 9.27959C24.9831 9.31588 25.0777 9.34497 25.1795 9.36672C25.616 9.47567 25.9943 9.66448 26.3218 9.94034C26.6564 10.209 26.9692 10.4922 27.2748 10.7826C27.5076 11.0077 27.5513 11.2619 27.4203 11.5523L27.333 11.7048C27.3112 11.7556 27.2894 11.821 27.2748 11.9008C27.2238 12.0098 27.1803 12.1768 27.1439 12.3946C27.1074 12.6124 27.0566 12.7721 26.991 12.8811C26.5691 13.4184 26.0962 13.963 25.587 14.5148C25.536 14.5729 25.4851 14.631 25.4342 14.6818C25.3905 14.7326 25.325 14.7835 25.2595 14.8343C25.0922 14.9723 24.9686 15.0957 24.8957 15.2191C24.7721 15.4007 24.6411 15.5386 24.4956 15.6258C24.3501 15.7129 24.2046 15.7928 24.0518 15.8653C24.0373 15.8763 24.0227 15.8854 24.0082 15.8944C23.9936 15.9035 23.9791 15.9125 23.9645 15.9235C23.9421 15.9402 23.9155 15.9484 23.8845 15.9579C23.8752 15.9607 23.8655 15.9637 23.8554 15.967C23.7972 16.0033 23.7245 16.0469 23.6589 16.0832C23.5935 16.1195 23.5207 16.1704 23.4553 16.2211C23.368 16.3155 23.2879 16.3809 23.2297 16.4172C23.2006 16.4511 23.1715 16.4785 23.1424 16.506C23.1279 16.5197 23.1133 16.5334 23.0988 16.5479C23.0871 16.5575 23.0746 16.5682 23.061 16.5796C23.0237 16.6112 22.9795 16.6485 22.9314 16.6859C22.8878 16.6932 22.8587 16.7149 22.8296 16.744C22.8077 16.7657 22.7714 16.7876 22.7277 16.802C22.6986 16.802 22.6695 16.8093 22.655 16.8166C22.6404 16.8238 22.6259 16.8238 22.6113 16.8166C22.5749 16.8892 22.524 16.94 22.4658 16.9763C22.4367 16.9945 22.4076 17.0144 22.3785 17.0344C22.3494 17.0544 22.3203 17.0743 22.2912 17.0925C22.1748 17.1361 22.102 17.1869 22.0583 17.2595C22.0366 17.3539 21.9929 17.412 21.9347 17.441C21.886 17.4653 21.8423 17.4795 21.8037 17.4919C21.7963 17.4944 21.789 17.4967 21.7819 17.4991C21.7455 17.5063 21.7091 17.5209 21.6655 17.5427C21.6728 17.4846 21.6873 17.4265 21.7091 17.3684C21.731 17.3394 21.7528 17.3031 21.7674 17.2668C21.7674 17.1434 21.7747 17.0127 21.7892 16.8819C21.7908 16.8675 21.7924 16.8529 21.794 16.8383C21.807 16.7207 21.8207 16.5973 21.8401 16.4681C21.8459 16.139 21.7137 16.0256 21.6374 15.9602C21.6177 15.9433 21.6017 15.9296 21.5927 15.9162C21.5564 15.8509 21.4982 15.7928 21.4254 15.7419C21.3964 15.7129 21.36 15.6839 21.3236 15.6549C21.3381 15.6476 21.3527 15.6403 21.3599 15.6403C21.384 15.6289 21.4082 15.6174 21.4327 15.6057C21.549 15.5501 21.6703 15.4922 21.7965 15.4442C21.8838 15.3934 21.9201 15.3135 21.9056 15.2046C21.912 15.122 21.9169 15.0421 21.9217 14.9649C21.9279 14.866 21.9338 14.7717 21.9419 14.6818C21.9565 14.5221 21.9492 14.3623 21.9201 14.1881C21.8911 13.9267 21.8401 13.6798 21.7892 13.4402C21.7383 13.2006 21.6583 12.961 21.5418 12.7214C21.5255 12.6851 21.5091 12.6483 21.4928 12.6116C21.4437 12.5013 21.3945 12.391 21.3454 12.2929C21.28 12.1622 21.1999 12.0243 21.098 11.8936C20.9452 11.7048 20.8215 11.5959 20.7415 11.5741C20.6615 11.5523 20.5015 11.5813 20.2687 11.6685C20.225 11.6685 20.145 11.654 20.0359 11.6249C19.7594 11.5015 19.5557 11.5959 19.4247 11.9008C19.3519 12.0606 19.2501 12.2421 19.1118 12.4599C19.061 12.5325 19.0173 12.6051 18.9737 12.6777C18.9373 12.7503 18.879 12.8012 18.8063 12.8448C18.6681 12.9682 18.5517 13.0916 18.4571 13.2151C18.3625 13.3386 18.3262 13.4983 18.3479 13.7016C18.3479 13.7524 18.3334 13.7815 18.297 13.8032C18.2606 13.825 18.2315 13.8395 18.217 13.8468C18.2389 14.0138 18.3262 14.159 18.4644 14.2825C18.6026 14.4059 18.639 14.5657 18.5662 14.7689C18.559 14.798 18.5735 14.8271 18.6098 14.8488C18.6372 14.8625 18.6617 14.879 18.6851 14.8947C18.6991 14.9041 18.7127 14.9133 18.7262 14.9215C18.757 14.9385 18.7861 14.9539 18.8136 14.9685C18.8447 14.985 18.8738 15.0004 18.9009 15.0159C18.9518 15.0449 18.9954 15.0884 19.0246 15.1393C19.0294 15.1538 19.0342 15.1619 19.0391 15.1699C19.0415 15.1739 19.044 15.178 19.0464 15.1828C18.9809 15.2046 18.9227 15.2337 18.8718 15.27C18.7626 15.3498 18.7117 15.4805 18.7262 15.6621C18.7845 15.9816 18.799 16.3011 18.7626 16.6205C18.7335 16.94 18.7117 17.2522 18.6972 17.5717C18.6899 17.8985 18.6681 18.2179 18.6389 18.5302C18.6241 18.6439 18.616 18.7643 18.6077 18.887C18.6038 18.9444 18.6 19.0023 18.5953 19.0602C18.5808 19.0675 18.5444 19.082 18.5444 19.082L18.4789 19.0965C18.2681 19.1717 18.0607 19.2503 17.8568 19.3276C17.7652 19.3623 17.6742 19.3968 17.5841 19.4306C17.5576 19.4398 17.5312 19.449 17.5045 19.4584C17.2376 19.5518 16.9597 19.649 16.6819 19.7282C16.678 19.7302 16.6746 19.7322 16.6715 19.7339C16.6629 19.7389 16.6562 19.7428 16.6455 19.7428C16.6528 19.6992 16.6528 19.6484 16.6528 19.5975C16.6528 19.5031 16.6673 19.416 16.7037 19.3289C16.7253 19.2696 16.7549 19.2064 16.7836 19.1451C16.7936 19.1237 16.8035 19.1026 16.8129 19.082C16.8493 18.9804 16.8565 18.8715 16.8493 18.7408C16.842 18.61 16.8711 18.4939 16.9511 18.3777C16.9947 18.3123 17.0165 18.2397 17.0311 18.1671C17.0457 18.0945 17.0602 18.0219 17.0893 17.9421C17.1112 17.913 17.1329 17.8767 17.1475 17.8404C17.1475 17.7097 17.1548 17.579 17.1693 17.4483C17.172 17.4249 17.1745 17.401 17.1772 17.3769C17.1893 17.2656 17.2023 17.1464 17.2203 17.0271C17.2203 16.94 17.1693 16.8674 17.0602 16.8238C17.0583 16.8219 17.0553 16.8195 17.0518 16.8166C17.0419 16.8084 17.0273 16.7963 17.0165 16.7803C17.002 16.7585 17.002 16.7367 17.002 16.7149C17.0238 16.6133 17.0093 16.5334 16.9729 16.4681C16.9365 16.4027 16.8783 16.3446 16.8056 16.2938C16.7692 16.2647 16.731 16.232 16.6928 16.1994C16.6546 16.1667 16.6164 16.134 16.5801 16.105C16.5287 16.0538 16.4661 16.0195 16.4071 15.9872C16.3991 15.9828 16.3914 15.9786 16.3836 15.9743C16.4043 15.9595 16.4237 15.9472 16.4424 15.9354C16.47 15.9179 16.4959 15.9015 16.5218 15.8799C16.6746 15.7855 16.6528 15.6693 16.4637 15.5386C16.6237 15.5677 16.7183 15.5023 16.7546 15.3571C16.7764 15.2264 16.8129 15.0739 16.8565 14.9215C16.9074 14.7617 16.9438 14.602 16.9657 14.4422C16.9729 14.3987 16.9729 14.3478 16.9511 14.297L16.9478 14.2883C16.9278 14.2352 16.9147 14.2004 16.9147 14.159C16.9729 13.8468 16.9511 13.5636 16.8711 13.3022C16.8783 13.2805 16.8783 13.2514 16.8638 13.2151C16.8565 13.1861 16.8565 13.1498 16.8783 13.1135C16.9147 12.9392 16.8929 12.7504 16.8129 12.5398C16.7329 12.3292 16.6092 12.1695 16.4564 12.0606L16.3836 12.0461C16.3108 12.0315 16.2454 12.0243 16.1799 12.0243C16.1145 12.017 16.0562 11.9952 16.0053 11.9444C15.8452 11.8573 15.6779 11.8427 15.5106 11.9081C15.3796 11.9734 15.2487 12.0098 15.1104 12.0243C14.9649 12.0388 14.8704 12.1332 14.8194 12.3147C14.7975 12.3438 14.7758 12.3656 14.7467 12.3728C14.7175 12.3728 14.6884 12.3873 14.6593 12.4092C14.5284 12.5761 14.3902 12.6705 14.2447 12.7068L14.2228 12.7214C14.1937 12.7359 14.1864 12.7577 14.1937 12.7721C14.1614 12.9464 14.1176 13.1206 14.0725 13.2999C14.0668 13.3224 14.0612 13.3449 14.0555 13.3676C14.0046 13.5709 13.9827 13.7597 13.9973 13.9412C13.9827 14.1808 13.99 14.3987 14.0191 14.6165C14.0482 14.8343 14.0627 15.0522 14.0627 15.2845L14.121 15.3717C14.1791 15.437 14.2447 15.5023 14.3174 15.5604C14.3538 15.5968 14.3902 15.6475 14.4265 15.6984C14.3392 15.7274 14.2592 15.7565 14.1937 15.8073C14.0846 15.8872 14.0337 16.0251 14.0482 16.2067C14.1137 16.5334 14.1283 16.8601 14.0919 17.1869C14.0555 17.5136 14.0337 17.8404 14.0191 18.1599C14.0119 18.4939 13.99 18.8206 13.9609 19.1401C13.9318 19.4523 13.91 19.7864 13.8882 20.1203C13.8736 20.2874 13.8663 20.4544 13.8663 20.6286C13.7814 20.6529 13.6974 20.677 13.6141 20.7011C13.2978 20.7923 12.9914 20.8807 12.6805 20.9553C12.273 21.0497 11.8874 21.1297 11.5237 21.2023C11.1526 21.2676 10.7961 21.3402 10.4615 21.4128C10.1632 21.4709 9.82849 21.5072 9.46476 21.529C9.43561 21.529 9.40838 21.5326 9.38109 21.5362C9.35379 21.5399 9.32649 21.5435 9.29741 21.5435C9.26832 21.5435 9.24103 21.5471 9.21373 21.5508C9.18643 21.5544 9.15921 21.558 9.13005 21.558C9.07189 21.5653 8.99914 21.558 8.89724 21.5435C8.87545 21.5508 8.85358 21.5435 8.8245 21.529H8.61355V21.2894C8.60626 21.2676 8.56989 21.2313 8.51894 21.1877C8.46078 21.1369 8.43162 21.1078 8.4244 21.086C8.42712 21.0669 8.43091 21.0488 8.43455 21.0313C8.44055 21.0025 8.4462 20.9753 8.4462 20.9481C8.45091 20.9247 8.44956 20.8952 8.44798 20.8616C8.44713 20.8431 8.4462 20.8234 8.4462 20.8029C8.44691 20.795 8.44763 20.7867 8.44841 20.778C8.45527 20.6985 8.46506 20.5853 8.50436 20.4544C8.51101 20.439 8.51758 20.4238 8.52416 20.4087C8.56089 20.324 8.59612 20.243 8.62077 20.1566C8.64993 20.055 8.6863 19.9606 8.73718 19.8589C8.7892 19.7077 8.95455 19.4947 9.11669 19.2858C9.22702 19.1437 9.33585 19.0035 9.40652 18.886C9.58846 18.6028 9.75574 18.3486 9.9231 18.1381C10.2359 17.7387 10.5561 17.3756 10.8907 17.0417L11.9238 16.0106C11.9092 15.9816 11.8947 15.9525 11.8802 15.9307C11.8656 15.9017 11.8583 15.8872 11.8438 15.8799C11.7346 15.8146 11.6546 15.7928 11.5964 15.8146C11.5382 15.8363 11.5018 15.8509 11.4945 15.8653C11.1672 16.0832 10.8834 16.105 10.6506 15.909C10.6215 15.909 10.5924 15.9162 10.5779 15.9235C10.5633 15.938 10.5415 15.938 10.5051 15.938C10.476 15.9489 10.4487 15.9597 10.4214 15.9707C10.3941 15.9816 10.3669 15.9925 10.3378 16.0033C10.2796 16.0251 10.2214 16.0541 10.1632 16.0904C10.0104 16.1848 9.87944 16.2865 9.74845 16.3954C9.62483 16.5043 9.47927 16.6133 9.32649 16.7222C9.24646 16.7948 9.15921 16.8674 9.0646 16.9327C8.97727 16.9981 8.89002 17.0634 8.81721 17.1288C8.79541 17.1288 8.78084 17.1361 8.78084 17.1434C8.78084 17.1434 8.76633 17.1578 8.74446 17.1578C8.73732 17.1634 8.73003 17.1691 8.72267 17.1748C8.663 17.2213 8.59748 17.2723 8.52623 17.3176C8.4462 17.3757 8.34437 17.3902 8.22796 17.3757C8.21339 17.4047 8.21339 17.4265 8.21339 17.4482C8.19881 17.5281 8.17701 17.5935 8.14064 17.637C8.10427 17.6806 8.0679 17.717 8.03153 17.7533L8.01695 17.775C8.01388 17.7794 8.01087 17.7836 8.00787 17.7878C7.97557 17.833 7.94842 17.8713 7.91512 17.8912C7.90297 17.9009 7.89082 17.9098 7.87875 17.9186C7.85445 17.9364 7.83023 17.9541 7.80593 17.9784C7.68953 18.0509 7.63865 18.1381 7.65315 18.2397V18.3559C7.65315 18.4067 7.62407 18.4503 7.5659 18.4866C7.55733 18.5002 7.54961 18.5131 7.54232 18.5252C7.51846 18.5647 7.49916 18.5968 7.47129 18.6246C7.46686 18.6334 7.46243 18.642 7.45807 18.6504C7.44092 18.6835 7.4247 18.7148 7.41309 18.7553C7.31854 18.886 7.24581 19.0021 7.17308 19.1182C7.1322 19.1907 7.0884 19.2634 7.04362 19.3377C7.01668 19.3824 6.98935 19.4278 6.96202 19.4741C6.96202 19.5051 6.95672 19.5361 6.95063 19.5717C6.9496 19.5777 6.94853 19.5839 6.94747 19.5903V19.7355C6.93968 19.7705 6.93397 19.8076 6.92812 19.8457C6.92304 19.8786 6.91786 19.9123 6.9111 19.9461C6.89655 20.0114 6.86017 20.084 6.80924 20.1421C6.75104 20.2946 6.71466 20.4471 6.70011 20.5995C6.68556 20.7521 6.67101 20.9263 6.66373 21.1224C6.67101 21.1369 6.67101 21.1587 6.66373 21.1732V21.224C6.66373 21.3184 6.671 21.4128 6.68556 21.5145C6.69283 21.6162 6.71466 21.7178 6.74376 21.8267C6.77286 21.9719 6.80197 22.1171 6.82379 22.2696C6.84562 22.4221 6.84562 22.5819 6.82379 22.7488C6.83934 22.7985 6.85622 22.8482 6.8733 22.8984C6.89616 22.9657 6.91938 23.034 6.9402 23.1046C6.97657 23.2281 7.01295 23.3442 7.0566 23.4604C7.08167 23.523 7.10433 23.5879 7.12735 23.6539C7.14443 23.7027 7.16169 23.7522 7.18028 23.8017C7.20535 23.8642 7.22801 23.9292 7.25104 23.9951C7.26812 24.044 7.28538 24.0935 7.30397 24.1429C7.47129 24.477 7.66044 24.7238 7.88597 24.8691C7.95878 24.9054 8.36616 24.9489 8.45349 24.9272C8.47685 24.9213 8.49872 24.916 8.51901 24.9111C8.57432 24.8976 8.61798 24.887 8.64993 24.8763C8.72996 24.8691 8.8027 24.8618 8.86816 24.8545C8.93361 24.8473 9.00643 24.84 9.08639 24.8328C9.31963 24.7917 9.55287 24.7635 9.77997 24.7361L9.82127 24.7311C9.91195 24.7201 10.0047 24.7102 10.0988 24.7002C10.2537 24.6835 10.4122 24.6666 10.5706 24.644L11.3127 24.506C11.5237 24.4843 11.7346 24.4624 11.9602 24.4261C12.1857 24.3899 12.404 24.3463 12.6295 24.2736C12.9496 24.1865 13.2698 24.1066 13.5899 24.0341C13.6081 24.0304 13.6244 24.0268 13.6408 24.0232C13.6571 24.0195 13.6735 24.0159 13.6917 24.0122C13.6844 24.0631 13.6844 24.1139 13.6844 24.1648C13.6626 24.368 13.6554 24.5641 13.6481 24.7674C13.6335 24.9199 13.6335 25.0796 13.6335 25.2393C13.6263 25.3991 13.6044 26.1397 13.6117 26.2632C13.6141 26.3043 13.6166 26.3446 13.619 26.3849C13.6238 26.4656 13.6287 26.5464 13.6335 26.6335C13.6263 26.8223 13.6335 27.0329 13.6699 27.2579V27.287V27.3088C13.6699 27.3197 13.6735 27.3305 13.6772 27.3414C13.6808 27.3524 13.6844 27.3633 13.6844 27.3741L13.7718 28.1148C13.8081 28.4052 13.8518 28.6957 13.9027 28.9861C13.9245 29.1603 13.9755 29.3346 14.0482 29.5089C14.0773 29.5742 14.0991 29.6323 14.1209 29.6903C14.15 29.8065 14.1864 29.9228 14.2301 30.0389C14.2665 30.1623 14.3101 30.2567 14.3684 30.3221C14.4088 30.3726 14.5687 30.637 14.6723 30.8083C14.7177 30.8833 14.7523 30.9405 14.7612 30.9539C14.771 30.9684 14.8043 30.9952 14.8444 31.0274C14.9241 31.0913 15.0304 31.1766 15.0304 31.2297C15.0304 31.3256 15.097 31.3513 15.1524 31.3728C15.1768 31.3822 15.1989 31.3907 15.2123 31.404C15.276 31.4601 15.3069 31.4835 15.3378 31.5068C15.3669 31.5288 15.3959 31.5508 15.4524 31.6001C15.7143 31.8324 16.0126 31.9413 16.34 31.9413C16.3581 31.9458 16.4209 31.9392 16.4747 31.9334C16.5076 31.9299 16.5371 31.9268 16.5509 31.9268C16.5297 31.8971 16.4142 31.7784 16.3189 31.6803C16.2509 31.6104 16.1932 31.551 16.1872 31.542C16.1435 31.4476 16.0999 31.3531 16.0708 31.2515C16.0636 31.2267 16.0579 31.1996 16.0519 31.1722C16.0338 31.0875 16.0148 30.9995 15.9544 30.9611C15.9137 30.9326 15.9322 30.82 15.9564 30.6729C15.9755 30.5571 15.998 30.4201 15.998 30.2858C15.998 30.235 15.9908 30.1842 15.9762 30.1406C15.9471 29.9372 15.918 29.7558 15.8816 29.567C15.8452 29.3782 15.8161 29.1966 15.7943 29.0151C15.7797 28.8554 15.7797 28.7029 15.7943 28.5504C15.8088 28.3979 15.8234 28.2455 15.8452 28.1002C15.8452 28.0692 15.8506 28.0382 15.8566 28.0027C15.8576 27.9966 15.8587 27.9904 15.8598 27.9841C15.8608 27.9777 15.8619 27.9715 15.8629 27.9653C15.869 27.9299 15.8744 27.8989 15.8744 27.8679C15.8961 27.7081 15.8889 27.5412 15.8671 27.3814C15.8452 27.2217 15.8598 27.0619 15.9325 26.9167C15.9398 26.9022 15.9398 26.8804 15.9325 26.844V26.452V26.0599C15.937 25.8952 15.9551 25.7196 15.9735 25.5415C15.9851 25.429 15.9968 25.3155 16.0053 25.203C16.0053 25.1232 16.0126 25.0361 16.0271 24.9417C16.0416 24.8472 16.0562 24.7529 16.078 24.6512C16.0853 24.6004 16.0999 24.5568 16.1217 24.5205C16.1435 24.4843 16.1362 24.4261 16.1072 24.3536C16.0926 24.3317 16.0926 24.2954 16.1072 24.2519C16.1182 24.2186 16.1336 24.1896 16.1468 24.1648C16.1508 24.1571 16.1546 24.1499 16.158 24.1429C16.2527 23.9615 16.2527 23.8308 16.2309 23.7218C16.2214 23.6796 16.2151 23.6102 16.2078 23.5311C16.2038 23.4877 16.1996 23.4414 16.1944 23.3951C16.2598 23.3788 16.3251 23.364 16.3898 23.3493C16.4691 23.3312 16.5475 23.3134 16.6237 23.2934C16.8347 23.2426 17.0311 23.1772 17.2276 23.0901C17.6318 22.9325 18.0195 22.7749 18.3956 22.6221C18.4528 22.5989 18.5096 22.5758 18.5662 22.5528C18.559 22.6399 18.559 22.727 18.559 22.8142C18.559 22.9739 18.5444 23.1264 18.5298 23.2789C18.5298 23.3597 18.5335 23.4405 18.5372 23.5203C18.5408 23.5984 18.5444 23.6755 18.5444 23.7509C18.5444 23.9034 18.5517 24.0631 18.559 24.2229C18.5371 24.3536 18.5298 24.4843 18.5371 24.6004C18.5444 24.7162 18.5516 24.8391 18.5588 24.9622L18.559 24.9635C18.5517 25.145 18.559 25.3483 18.5953 25.5734V25.6024V25.6242C18.6026 25.646 18.6098 25.6678 18.6098 25.6895C18.6244 25.813 18.639 25.9346 18.6535 26.0562C18.6681 26.1779 18.6826 26.2995 18.6972 26.4229C18.7335 26.7061 18.7699 26.9893 18.8209 27.2798C18.8427 27.4468 18.8863 27.6137 18.9591 27.788C18.9882 27.8461 19.01 27.9042 19.0318 27.9623C19.061 28.0784 19.0973 28.1946 19.141 28.3035C19.1701 28.4197 19.2137 28.5141 19.2719 28.5795C19.3301 28.6448 19.4029 28.7101 19.4902 28.7828C19.512 28.7828 19.5338 28.8045 19.5484 28.8408C19.563 28.8771 19.563 28.9062 19.563 28.928C19.5193 28.9861 19.512 29.0296 19.5411 29.0732C19.5615 29.0987 19.582 29.1277 19.6048 29.1603C19.6146 29.1742 19.6248 29.1887 19.6357 29.2039C19.7521 29.2983 19.8685 29.4 19.9849 29.5089L20.3341 29.8138C20.5887 30.0389 20.8725 30.1479 21.1999 30.1479C21.2217 30.1551 21.2581 30.1479 21.2945 30.1406C21.3308 30.126 21.3672 30.126 21.4036 30.126C21.3672 30.0825 21.3454 30.0462 21.3308 30.0099C21.3163 29.9808 21.3017 29.9518 21.28 29.9228C21.2626 29.9098 21.2479 29.9019 21.2341 29.8947C21.2249 29.8898 21.216 29.885 21.2071 29.8792C21.1853 29.8647 21.1635 29.8501 21.1344 29.8356C21.1237 29.8196 21.109 29.8075 21.0992 29.7993C21.0956 29.7964 21.0927 29.794 21.0907 29.7921C21.0889 29.7901 21.0859 29.7877 21.0824 29.7848C21.0725 29.7766 21.0578 29.7645 21.0471 29.7485C21.0035 29.6541 20.9598 29.5597 20.9307 29.4653C20.9016 29.3636 20.8579 29.2693 20.8143 29.1822C20.807 29.1603 20.807 29.1313 20.8215 29.1095C20.8361 29.0878 20.8507 29.0659 20.8725 29.0659C20.9889 29.0296 21.0035 28.9571 20.9234 28.8627C20.9135 28.8478 20.907 28.8297 20.8993 28.8082C20.8956 28.7981 20.8917 28.7872 20.8871 28.7755C20.8725 28.7392 20.8725 28.7101 20.8725 28.6884C20.8579 28.6303 20.8507 28.5795 20.8507 28.5286C20.8486 28.5119 20.8471 28.4964 20.8457 28.4818C20.8422 28.4455 20.8392 28.4145 20.8288 28.3834C20.807 28.1874 20.7779 28.0058 20.7415 27.8243C20.7051 27.6355 20.6761 27.4612 20.6543 27.2798C20.6397 27.12 20.6397 26.9675 20.6543 26.8223C20.6688 26.6771 20.6833 26.5318 20.7051 26.3866C20.7051 26.3556 20.7105 26.3246 20.7166 26.289C20.7176 26.283 20.7186 26.2768 20.7197 26.2704C20.7208 26.2641 20.7219 26.2579 20.7229 26.2518C20.7289 26.2162 20.7343 26.1853 20.7343 26.1543C20.7561 26.0018 20.7488 25.842 20.727 25.6823C20.7051 25.5225 20.727 25.3701 20.7925 25.2249C20.7998 25.2103 20.7998 25.1886 20.7925 25.1523V24.7674V24.3826C20.7949 24.2944 20.7965 24.2054 20.7982 24.1158C20.8014 23.9399 20.8047 23.7619 20.8143 23.5839L20.8167 23.5403C20.8304 23.2854 20.8446 23.024 20.8652 22.7561C20.8652 22.6763 20.8725 22.5891 20.8871 22.502C20.8914 22.4785 20.8956 22.4537 20.9001 22.4279C20.9108 22.3659 20.9226 22.2978 20.938 22.2261C20.9452 22.1752 20.9598 22.1389 20.9816 22.1026C21.0035 22.0736 20.9962 22.0154 20.9671 21.9429C20.9525 21.9283 20.9525 21.892 20.9671 21.8485C20.9718 21.8346 20.969 21.8199 20.9649 21.7986C20.9563 21.7532 20.942 21.6775 20.9816 21.5145C20.9889 21.4999 20.9889 21.4782 20.9889 21.4782H20.9962C21.2435 21.3692 21.4909 21.2531 21.7383 21.1224C21.8638 21.0597 21.9875 20.997 22.1093 20.9354C22.2275 20.8755 22.3439 20.8165 22.4585 20.7593C22.6113 20.6634 22.764 20.5762 22.9133 20.4909C22.956 20.4665 22.9985 20.4422 23.0405 20.4181C23.0423 20.4164 23.044 20.4142 23.0458 20.4119C23.0517 20.4047 23.0585 20.3963 23.0696 20.3963C23.0842 20.3963 23.0915 20.389 23.0988 20.3745C23.1206 20.36 23.1424 20.3382 23.1569 20.3164C23.1636 20.2967 23.1821 20.2829 23.2073 20.2642C23.2098 20.2623 23.2125 20.2604 23.2152 20.2583C23.2661 20.2002 23.317 20.1421 23.3607 20.0986C23.4043 20.055 23.4625 20.0042 23.528 19.9533C23.6081 19.888 23.6881 19.8299 23.7753 19.7718C23.8699 19.7138 23.9571 19.6557 24.0445 19.5976C24.1059 19.5603 24.1654 19.5239 24.2233 19.4885C24.3231 19.4276 24.4181 19.3695 24.5101 19.3143C24.6557 19.2272 24.7866 19.1183 24.9176 18.9949C25.2232 18.719 25.5142 18.443 25.7906 18.1599C26.0744 17.8767 26.3363 17.5935 26.5982 17.3103C26.7437 17.1506 26.8965 16.9691 27.0347 16.7803C27.1136 16.6725 27.1948 16.5649 27.2771 16.4558C27.339 16.3737 27.4015 16.2909 27.4639 16.2067H27.5003C27.624 16.0251 27.7404 15.8363 27.8277 15.633L28.0896 15.0231C28.1042 14.9577 28.126 14.8996 28.1624 14.8488C28.1915 14.7908 28.2206 14.7326 28.2351 14.6745C28.3952 14.3478 28.5043 14.0502 28.5698 13.7887C28.6353 13.5273 28.6717 13.2659 28.6862 12.9972C28.6862 12.9464 28.6862 12.8956 28.7007 12.8448ZM111.727 9.76615H110.796V14.3188H108.082V2.83186H112.469C113.022 2.83186 113.56 2.89721 114.084 3.00613C114.608 3.11504 115.081 3.31109 115.495 3.57975C115.911 3.85567 116.245 4.21146 116.492 4.65438C116.74 5.09731 116.864 5.64914 116.864 6.3099C116.864 7.08684 116.652 7.74034 116.231 8.27039C115.808 8.80045 115.227 9.18526 114.477 9.41036L117.482 14.3261H114.23L111.727 9.76615ZM110.767 5.08279H112.251C112.455 5.08279 112.673 5.09731 112.899 5.13361C113.124 5.16992 113.32 5.22801 113.503 5.31514C113.684 5.40227 113.83 5.54023 113.939 5.70723C114.048 5.87424 114.113 6.09207 114.113 6.36073C114.113 6.65117 114.056 6.89079 113.924 7.07231C113.8 7.25385 113.64 7.39909 113.444 7.49342C113.247 7.58782 113.029 7.66048 112.789 7.69677C112.549 7.73306 112.316 7.75488 112.083 7.75488H110.759V5.07553L110.767 5.08279ZM50.4397 14.3258L55.2705 2.83883H57.9551L62.735 14.3258H59.6503L58.7554 12.0749H54.3029L53.459 14.3258H50.4397ZM56.5728 5.90299L55.1105 9.84572H58.0061L56.5728 5.90299ZM50.8324 6.38262C50.8324 5.72186 50.716 5.17002 50.4831 4.71984C50.2503 4.26965 49.9303 3.9066 49.5228 3.63068C49.1154 3.35476 48.6352 3.15145 48.0896 3.02801C47.5439 2.90458 46.9546 2.84649 46.3289 2.84649H42.102V14.3334H44.8812V9.99859H46.2635C46.8601 9.99859 47.4348 9.93328 47.9877 9.80259C48.5406 9.67189 49.0281 9.46854 49.4501 9.1854C49.872 8.90219 50.2067 8.53185 50.4541 8.07445C50.7014 7.61698 50.8251 7.05062 50.8251 6.38262H50.8324ZM47.8931 7.07241C47.784 7.24664 47.6312 7.39189 47.4421 7.50083C47.2529 7.60971 47.0419 7.68237 46.8018 7.72593C46.5617 7.7695 46.3144 7.79125 46.0525 7.79125H44.8812V5.08289H46.0961C46.3435 5.08289 46.5836 5.09741 46.8164 5.13371C47.0492 5.17002 47.2529 5.23537 47.4421 5.32976C47.624 5.43142 47.7694 5.56211 47.8786 5.73638C47.9877 5.91064 48.0459 6.12848 48.0459 6.40439C48.0459 6.67305 47.995 6.89815 47.8858 7.07967L47.8931 7.07241ZM87.2459 21.8556C87.1802 21.9209 87.1144 21.9862 87.0351 22.037L86.9908 22.0298C86.9108 22.0806 86.8457 22.1387 86.795 22.2259C86.7464 22.2833 86.6957 22.3375 86.6457 22.3907L86.6449 22.391L86.6078 22.4311L86.5928 22.447L86.5692 22.4727C86.4963 22.5526 86.4234 22.6325 86.3655 22.7341C86.0668 23.119 85.7982 23.4965 85.5581 23.8596C85.5288 23.9322 85.478 24.0048 85.4051 24.0701C85.3322 24.1427 85.318 24.2154 85.3544 24.3171C85.3544 24.3243 85.3394 24.3461 85.318 24.3678C85.2815 24.4331 85.2451 24.4839 85.2086 24.5347C85.1722 24.5854 85.1286 24.6438 85.0779 24.7019C85.0193 24.7745 84.9757 24.8543 84.9685 24.9414C84.9614 25.0286 84.8956 25.1012 84.7942 25.1593C84.7577 25.1811 84.7356 25.2246 84.7356 25.2755C84.7356 25.3263 84.7213 25.3772 84.6991 25.4279C84.6777 25.4788 84.6484 25.5223 84.6191 25.5586C84.5905 25.6022 84.5684 25.6386 84.5612 25.6894C84.4883 25.929 84.3354 26.1613 84.1103 26.3792C84.0081 26.4736 83.9138 26.568 83.8266 26.6696C83.7387 26.7712 83.7023 26.9019 83.7173 27.0545C83.7173 27.0762 83.7102 27.1052 83.6951 27.127C83.6737 27.1488 83.6737 27.1779 83.6737 27.1996L83.6694 27.2351C83.6637 27.2841 83.6587 27.3254 83.6587 27.3667V27.5119C83.5787 27.6051 83.4986 27.6923 83.4243 27.7733L83.4043 27.7951C83.375 27.9185 83.3386 28.0419 83.3028 28.1654C83.3314 28.1872 83.3314 28.2162 83.31 28.2525C83.3171 28.2743 83.2878 28.2816 83.2664 28.2816C83.2078 28.4776 83.1349 28.6736 83.0549 28.8697C82.9898 29.0294 82.9384 29.2037 82.8877 29.378C82.8805 29.3852 82.8805 29.3925 82.8805 29.3998C82.8662 29.4505 82.8441 29.5013 82.8226 29.5521C82.8176 29.557 82.8191 29.5619 82.8205 29.5668L82.8212 29.5692C82.8219 29.5708 82.8226 29.5724 82.8226 29.574C82.8133 29.6015 82.8026 29.6289 82.7919 29.6569C82.7776 29.6955 82.7619 29.7352 82.7497 29.7773C82.7497 29.8427 82.7426 29.9007 82.7204 29.9298C82.714 29.933 82.7076 29.9347 82.7019 29.9364C82.6983 29.9375 82.6947 29.9384 82.6919 29.9396C82.689 29.9408 82.6861 29.9423 82.684 29.9443C82.6111 30.1186 82.5382 30.2928 82.4803 30.4671C82.4582 30.8011 82.3639 31.1424 82.2474 31.4692C82.2181 31.5681 82.1938 31.6672 82.1702 31.7624L82.1531 31.8322C82.1166 31.9847 82.073 32.1154 82.0144 32.2533C82.0051 32.2824 81.9887 32.3049 81.973 32.3275L81.9723 32.3277C81.9644 32.339 81.9566 32.3502 81.9494 32.3623L81.9287 32.4307C81.8994 32.5292 81.8708 32.625 81.8472 32.7253H81.8694C81.8544 32.8632 81.8401 33.0012 81.8186 33.1464C81.8101 33.2306 81.8001 33.3081 81.7901 33.3838C81.7822 33.4453 81.7736 33.5058 81.7672 33.5676C81.7529 33.6257 81.7458 33.691 81.7458 33.7491C81.7386 33.8072 81.7386 33.8726 81.7386 33.9306C81.7386 34.054 81.7386 34.1703 81.7529 34.2864C81.7565 34.3407 81.7622 34.3969 81.7672 34.453C81.7729 34.5092 81.7786 34.566 81.7822 34.6205C81.7822 34.6285 81.7815 34.636 81.7808 34.6431L81.7794 34.6528L81.7779 34.6615C81.7765 34.6723 81.7743 34.6829 81.7743 34.693C81.8765 34.9472 82.0366 35.2086 82.211 35.3756H82.2181C82.2838 35.3683 82.3496 35.3611 82.4225 35.3465C82.451 35.7096 82.2981 35.9274 81.9637 36C81.8908 36 81.8472 35.9855 81.8329 35.9637C81.7386 35.8766 81.6364 35.833 81.5271 35.8185C81.4185 35.804 81.3092 35.7822 81.1927 35.7459C81.1562 35.7386 81.1198 35.7096 81.0833 35.666C81.054 35.6225 81.0183 35.5862 80.9747 35.5643C80.5817 35.3175 80.3052 35.0343 80.1594 34.693C80.0143 34.3518 79.9193 33.9887 79.8828 33.6039C79.8464 33.3861 79.8321 33.1682 79.825 32.9359C79.8178 32.7035 79.8178 32.4857 79.825 32.2679C79.825 32.1372 79.8392 32.0138 79.8614 31.8975C79.8828 31.7887 79.905 31.6652 79.9193 31.5273C79.9379 31.4256 79.9557 31.3221 79.9743 31.2187L79.9915 31.1188C80.0036 31.0488 80.0165 30.979 80.0286 30.91C80.0436 30.8386 80.0586 30.7663 80.0729 30.6938V30.693C80.0994 30.5593 80.1265 30.4244 80.1594 30.2928C80.2101 30.0823 80.2616 29.879 80.3266 29.6902C80.3923 29.5014 80.4502 29.3054 80.5017 29.1093C80.6253 28.7608 80.7418 28.405 80.8582 28.0492C80.974 27.6934 81.0984 27.3449 81.2291 26.9891C81.3742 26.5607 81.5342 26.1468 81.6943 25.733L81.7543 25.5791L81.7908 25.4828L81.8279 25.3873V25.3863L81.8301 25.3822C81.9451 25.0822 82.0616 24.7794 82.1824 24.4768C82.306 24.2008 82.4368 23.9249 82.5747 23.6635C82.7133 23.4021 82.8441 23.1262 82.9748 22.8503C83.0849 22.6482 83.1856 22.4502 83.2878 22.2502L83.2885 22.2491C83.3221 22.1836 83.3557 22.1178 83.39 22.0516C83.4265 21.9804 83.4636 21.9083 83.5008 21.8358C83.5737 21.6937 83.6473 21.5496 83.7244 21.4053C83.6687 21.4562 83.6123 21.5054 83.5558 21.5546L83.5551 21.5547C83.4422 21.6531 83.3293 21.7515 83.2228 21.8628C83.0191 22.0683 82.7998 22.264 82.5811 22.4599C82.1809 22.8174 81.7793 23.1759 81.4692 23.5982C81.4542 23.6199 81.4328 23.6345 81.4106 23.649C81.2634 23.809 81.1548 23.9958 81.0469 24.1812C80.969 24.3155 80.8911 24.4491 80.7997 24.5712C80.7511 24.6366 80.7018 24.7004 80.6525 24.7638C80.4888 24.9752 80.328 25.1823 80.2101 25.4279C80.1087 25.6313 79.97 25.7983 79.825 25.9653C79.8142 25.9798 79.805 25.9943 79.7957 26.0088C79.7914 26.0155 79.7871 26.0222 79.7828 26.0289C79.7778 26.0367 79.7728 26.0445 79.7664 26.0524C79.592 26.2702 79.4248 26.4736 79.2504 26.6696L79.1804 26.7586L79.1797 26.7588C79.0704 26.8982 78.9575 27.0417 78.8503 27.1852C78.7188 27.3594 78.588 27.5337 78.4501 27.7007C78.3336 27.8676 78.2172 28.0346 78.1078 28.1871C78.0064 28.3397 77.882 28.5067 77.7441 28.6591C77.6569 28.7608 77.5912 28.8842 77.5476 29.0004C77.504 29.1238 77.4604 29.2545 77.4168 29.3852C77.3661 29.5449 77.271 29.6902 77.1331 29.8209C76.9945 29.9588 76.8709 30.0968 76.7623 30.2421C76.6165 30.4453 76.4779 30.6559 76.3621 30.8664C76.2378 31.0771 76.2092 31.3239 76.2671 31.5998V31.6724C76.1584 31.7378 76.0634 31.8031 75.9762 31.8758C75.889 31.9484 75.7869 32.021 75.6854 32.0791H75.6632C75.6489 32.0863 75.6339 32.0918 75.6196 32.0972C75.6054 32.1027 75.5903 32.1081 75.5761 32.1154C75.5632 32.1218 75.5489 32.1268 75.5353 32.1317C75.5175 32.1377 75.501 32.1436 75.4889 32.1516C75.4596 32.1516 75.4453 32.1516 75.4381 32.1589C75.4381 32.1662 75.3867 32.1662 75.3867 32.1662V32.1154C75.198 32.0936 75.0523 31.9919 74.9501 31.8104C74.8851 31.7015 74.79 31.6144 74.6592 31.5563C74.4413 31.4256 74.2812 31.2658 74.179 31.0771C74.0776 30.8883 73.9897 30.6922 73.9175 30.4889C73.7281 29.8935 73.6846 29.2908 73.7939 28.6736V28.6712C73.8375 28.3526 73.8811 28.0339 73.9247 27.7007C73.9289 27.6389 73.9411 27.5825 73.954 27.5266C73.9618 27.4905 73.9697 27.4545 73.9754 27.4175C74.0047 27.2432 74.0411 27.0762 74.0776 26.9092C74.0847 26.8802 74.0897 26.8493 74.0954 26.8184C74.1012 26.7876 74.1062 26.7567 74.114 26.7277C74.1247 26.6841 74.1376 26.6406 74.1497 26.597C74.1626 26.5534 74.1755 26.5099 74.1862 26.4663C74.3756 25.7039 74.6521 24.9487 74.9794 24.2081V24.1936C75.0451 24.0338 75.1101 23.8886 75.183 23.7434C75.2774 23.5257 75.3867 23.3153 75.496 23.1049C75.5325 23.0323 75.5761 22.9592 75.6196 22.8866C75.8526 22.451 76.0998 22.0298 76.3542 21.6231C76.3835 21.5726 76.4121 21.5238 76.4414 21.4751L76.4421 21.4743C76.4707 21.4254 76.5 21.3762 76.5293 21.3255C76.7544 20.9334 76.9874 20.5486 77.2275 20.1637C77.4461 19.8152 77.6641 19.4739 77.897 19.1181L77.9928 18.97L78.0456 18.8877L78.0471 18.8855C78.2229 18.6126 78.3994 18.3381 78.5809 18.0725C78.821 17.695 79.0611 17.3173 79.3012 16.9325C79.5413 16.555 79.7814 16.1773 80.0215 15.7925C80.1594 15.5895 80.2902 15.3865 80.4209 15.1834L80.4216 15.1826C80.5453 14.9794 80.6689 14.7759 80.7782 14.5727C80.8432 14.4783 82.7205 15.2335 82.7933 15.3859C82.8584 15.5384 82.9241 15.6837 82.997 15.8361C83.0699 15.9886 83.0627 16.1483 82.9827 16.3153C82.9605 16.3371 82.9241 16.3662 82.8877 16.388C82.8441 16.4097 82.8076 16.4388 82.7862 16.4606C82.764 16.4824 82.7347 16.5114 82.7204 16.5332C82.714 16.5432 82.7069 16.5548 82.7004 16.5665C82.6926 16.5801 82.6847 16.594 82.6769 16.6058C82.6476 16.6929 82.6183 16.7728 82.5897 16.8527C82.5604 16.9325 82.5239 17.0052 82.4732 17.0778C82.411 17.1611 82.3517 17.2463 82.2917 17.3314L82.291 17.3319L82.2903 17.3328C82.2302 17.4176 82.1709 17.5029 82.1095 17.5861C82.083 17.6214 82.0573 17.6569 82.0309 17.6928C81.933 17.8264 81.8329 17.9626 81.7236 18.0943C81.6436 18.1887 81.5707 18.2831 81.4985 18.3848C81.4185 18.4791 81.3456 18.5735 81.2727 18.6752C81.2656 18.7042 81.2434 18.7115 81.2141 18.7042C81.1927 18.697 81.1705 18.7115 81.1562 18.7333C81.0984 18.7623 81.0326 18.8059 80.9597 18.8785C80.9383 18.9075 80.9161 18.9366 80.909 18.9801C80.9018 19.0164 80.8797 19.0455 80.8582 19.06C80.7632 19.0891 80.7125 19.1254 80.7053 19.1907C80.6982 19.2561 80.676 19.3142 80.6396 19.3722C80.6181 19.4231 80.5817 19.4666 80.5381 19.5102C80.4945 19.5538 80.4502 19.5973 80.4145 19.6482C80.3995 19.67 80.3923 19.6845 80.378 19.699C80.363 19.7063 80.363 19.728 80.363 19.7498C80.3488 19.9967 80.2251 20.2072 79.9922 20.3888C79.8543 20.4977 79.7521 20.6066 79.6942 20.7155C79.6792 20.7588 79.6649 20.8001 79.6506 20.8415V20.8426L79.6342 20.8896L79.6213 20.9264L79.6063 20.9697C79.5777 21.0495 79.512 21.1149 79.4026 21.1512C79.4176 21.1512 79.4026 21.1657 79.3662 21.202C79.3448 21.3327 79.294 21.4562 79.1918 21.5651C79.0825 21.6667 79.0025 21.7902 78.9303 21.9064L78.9296 21.9064C78.9224 21.9137 78.901 21.9354 78.886 21.9572C78.8646 21.9789 78.8646 21.9935 78.8789 21.9935C78.9589 22.0952 78.966 22.1605 78.901 22.204C78.8353 22.2476 78.7845 22.2839 78.7624 22.3057C78.5809 22.4001 78.4573 22.5381 78.4065 22.7051C78.3551 22.8721 78.2822 23.0318 78.1807 23.177C78.0421 23.3731 77.9335 23.5619 77.8313 23.7579C77.7298 23.954 77.6276 24.1573 77.5262 24.3606C77.5111 24.3824 77.5111 24.4114 77.5111 24.4477C77.5111 24.484 77.4969 24.5131 77.4747 24.5349C77.4533 24.5784 77.4311 24.6075 77.3947 24.6365C77.3661 24.6656 77.3368 24.7019 77.3146 24.7382C77.3003 24.7382 77.286 24.7382 77.271 24.7309C77.2568 24.7236 77.2425 24.7236 77.2275 24.7236C77.2639 24.7963 77.286 24.8543 77.286 24.9051C77.1767 24.9705 77.0895 25.0286 77.0381 25.0794C76.9945 25.1375 77.0238 25.2319 77.1474 25.3626C77.1381 25.3626 77.1274 25.364 77.1146 25.3655C77.0988 25.3675 77.081 25.3699 77.0602 25.3699C77.0309 25.3772 77.0024 25.3772 76.9731 25.3772C76.9731 25.3916 76.9731 25.3916 76.9659 25.3916C76.9581 25.3916 76.9581 25.3916 76.9581 25.4062C76.9659 25.4715 76.9731 25.5296 76.9874 25.5877L76.9888 25.5981C76.9952 25.6593 77.0016 25.7143 76.9945 25.7692C76.9874 25.8273 76.9731 25.8781 76.9366 25.9217C76.9073 25.9653 76.878 26.0161 76.8566 26.0742C76.843 26.1052 76.8273 26.1335 76.8116 26.1608L76.8109 26.1623L76.8044 26.1739L76.7966 26.1876C76.7923 26.1958 76.788 26.204 76.7837 26.2122C76.7623 26.2557 76.7037 26.2702 76.6022 26.2557C76.5729 26.2557 76.5436 26.2702 76.5293 26.2993C76.5072 26.3283 76.4857 26.3573 76.4636 26.3792L76.5 26.4155L76.5365 26.4517C76.6236 26.4082 76.7037 26.3646 76.7037 26.3646L76.7694 26.3792L76.7687 26.3794C76.7108 26.4738 76.6529 26.568 76.6022 26.6696C76.5507 26.764 76.4929 26.8729 76.42 27.0109C76.4421 27.0326 76.4343 27.1198 76.4057 27.2723C76.3857 27.4113 76.3478 27.5565 76.3078 27.7076L76.2964 27.7515C76.2528 27.9185 76.202 28.0783 76.1434 28.2234C76.0856 28.376 76.027 28.4485 75.9762 28.4631C75.9691 28.4992 75.9598 28.5355 75.9505 28.5716V28.5724C75.9455 28.5941 75.9398 28.6159 75.9348 28.6377L75.9291 28.6624L75.9255 28.6809C75.9033 28.7535 75.8962 28.8262 75.889 28.8987C75.8669 29.0222 75.8526 29.1384 75.8455 29.2545C75.8383 29.3125 75.8305 29.3723 75.8233 29.4321C75.8162 29.4919 75.809 29.5523 75.8019 29.6103C75.794 29.6756 75.7797 29.7265 75.7654 29.7773C75.7504 29.8282 75.7361 29.8863 75.729 29.9443C75.7068 30.0097 75.7068 30.075 75.7068 30.1404C75.714 30.2057 75.7068 30.2711 75.6854 30.3292V30.3437C75.7361 30.2711 75.7869 30.1984 75.8233 30.1186C75.8597 30.0387 75.9183 29.9661 75.9762 29.8935C76.0856 29.7337 76.202 29.5813 76.3257 29.4288C76.4493 29.2836 76.58 29.1311 76.718 28.9859C76.7473 28.9641 76.7766 28.9423 76.8059 28.935C76.8344 28.9278 76.8494 28.906 76.8494 28.8842C76.9366 28.6155 77.046 28.3687 77.1839 28.1363C77.3218 27.9039 77.4968 27.6934 77.7148 27.4974C77.8463 27.3739 77.9699 27.2505 78.0864 27.1343C78.21 27.0109 78.2972 26.8874 78.3551 26.7495C78.4065 26.5824 78.4787 26.4373 78.5809 26.3066C78.6823 26.1831 78.7917 26.0524 78.901 25.9362C78.981 25.8346 79.0904 25.7547 79.2061 25.6821C79.3226 25.6095 79.3741 25.486 79.3591 25.3191C79.4684 25.3191 79.5556 25.2972 79.5992 25.2537C79.6427 25.2101 79.6863 25.1593 79.7156 25.1085C79.7449 25.0577 79.7664 24.9923 79.7885 24.927C79.81 24.8616 79.8393 24.8035 79.8757 24.7527C80.0429 24.5495 80.2244 24.3391 80.4066 24.1287C80.5524 23.9544 80.7053 23.7797 80.8582 23.6127C80.8733 23.5911 80.8883 23.5695 80.9033 23.548L80.904 23.5479C80.9597 23.4681 81.0147 23.3893 81.0833 23.315C81.0876 23.3106 81.0926 23.3082 81.0962 23.3068C81.0984 23.3063 81.0998 23.3059 81.1012 23.3056C81.1033 23.3051 81.1055 23.3049 81.1076 23.3046C81.1126 23.304 81.1169 23.3035 81.1198 23.3004C81.4178 22.9087 81.7836 22.5752 82.1509 22.2403C82.3482 22.0599 82.5468 21.8791 82.7347 21.6885C83.2514 21.1802 83.7973 20.7155 84.3576 20.2581C84.379 20.2303 84.4011 20.201 84.4233 20.1712C84.4533 20.1309 84.484 20.0892 84.5176 20.0475C84.6262 19.9241 84.7649 19.8224 84.9178 19.7208C85.1429 19.5683 85.3615 19.5901 85.5866 19.7716C85.6159 19.7934 85.6524 19.8079 85.696 19.8079C85.8489 19.8297 85.9797 19.8805 86.0818 19.9604C86.1833 20.0403 86.2784 20.1347 86.3584 20.2436C86.4234 20.3307 86.5034 20.396 86.6056 20.4469C86.7071 20.4977 86.8021 20.5558 86.8893 20.6139C86.8972 20.6197 86.9043 20.6256 86.9108 20.631C86.9293 20.6457 86.9443 20.6574 86.9551 20.6574C86.9622 20.6574 86.9837 20.6793 86.9987 20.701C87.0637 20.7664 87.1223 20.8244 87.173 20.8971C87.2037 20.9409 87.2373 20.982 87.2681 21.0205C87.2888 21.0459 87.3088 21.0701 87.3259 21.0931C87.3402 21.1149 87.3545 21.1439 87.3545 21.1802C87.3624 21.2166 87.3695 21.2456 87.3838 21.2674C87.391 21.2892 87.3838 21.3109 87.3695 21.3109C87.3545 21.3109 87.3545 21.3327 87.3695 21.3545C87.406 21.4634 87.4131 21.5578 87.3838 21.6377C87.3545 21.7175 87.3109 21.7903 87.2459 21.8556ZM117.437 23.5183C117.43 23.6634 117.43 23.8087 117.444 23.9539L117.408 23.9103C117.408 23.9466 117.415 23.9902 117.43 23.9539L117.431 23.9608C117.438 24.0013 117.443 24.0357 117.43 24.0701C117.415 24.1342 117.407 24.2015 117.398 24.27C117.395 24.3023 117.391 24.3352 117.386 24.3678C117.371 24.4694 117.342 24.5638 117.298 24.6655C117.27 24.7599 117.233 24.847 117.19 24.9342C117.146 25.0213 117.16 25.1157 117.226 25.2246C117.306 25.3408 117.306 25.4424 117.233 25.5295C117.16 25.6094 117.095 25.6965 117.051 25.7982C116.998 25.8997 116.953 26.0011 116.911 26.0984L116.884 26.1613C116.873 26.1834 116.863 26.2055 116.853 26.2276C116.84 26.2554 116.828 26.283 116.816 26.3106L116.815 26.3121L116.815 26.3127V26.3136L116.814 26.3148C116.782 26.3859 116.75 26.4567 116.717 26.5243C116.695 26.5461 116.666 26.5752 116.651 26.5969C116.64 26.6078 116.63 26.6205 116.618 26.6332C116.613 26.6391 116.608 26.645 116.603 26.6507C116.597 26.6573 116.592 26.6637 116.586 26.6695C116.519 26.764 116.461 26.8584 116.404 26.9495C116.387 26.9775 116.37 27.0053 116.353 27.0326C116.287 27.156 116.207 27.2795 116.12 27.3956C116.054 27.4732 115.994 27.5508 115.929 27.6324L115.887 27.6861C115.807 27.7804 115.727 27.8749 115.654 27.9765C115.626 27.9983 115.618 28.0201 115.611 28.0637C115.603 28.1072 115.589 28.1435 115.567 28.1944C115.56 28.2016 115.502 28.2306 115.393 28.2815C115.415 28.3014 115.436 28.3199 115.456 28.3375C115.503 28.3777 115.544 28.4131 115.574 28.4485C115.436 28.5937 115.298 28.739 115.167 28.8769L115.137 28.9081L115.09 28.9582C115.054 28.9971 115.017 29.0366 114.981 29.0763L114.977 29.0799C114.909 29.1544 114.839 29.2298 114.767 29.3053C114.722 29.3616 114.677 29.4165 114.631 29.4719C114.564 29.5522 114.496 29.6331 114.432 29.7192C114.367 29.8053 114.3 29.8862 114.234 29.9665C114.188 30.0217 114.142 30.0769 114.098 30.133C114.053 30.177 114.009 30.2192 113.966 30.2604L113.965 30.2614C113.923 30.3013 113.882 30.3409 113.843 30.38C113.763 30.4598 113.668 30.5324 113.566 30.6051C113.526 30.6377 113.488 30.6704 113.45 30.7031C113.412 30.7357 113.373 30.7685 113.334 30.8011C113.261 30.8664 113.174 30.9318 113.086 30.9899C112.941 31.0987 112.788 31.2004 112.635 31.2875C112.482 31.382 112.344 31.4908 112.213 31.607C112.075 31.7305 111.915 31.8031 111.747 31.8176C111.573 31.8321 111.42 31.883 111.274 31.9701C111.217 31.9846 111.158 31.9919 111.078 31.9846C110.998 31.9774 110.926 31.9556 110.853 31.9338C110.663 31.8684 110.503 31.8031 110.358 31.7159C110.285 31.6724 110.198 31.6433 110.11 31.6361C110.016 31.6288 109.936 31.5925 109.863 31.5199C109.762 31.4255 109.645 31.3238 109.536 31.2294C109.486 31.1864 109.434 31.1432 109.382 31.0994C109.32 31.0473 109.257 30.9942 109.194 30.939C109.056 30.8229 108.946 30.6704 108.845 30.5034C108.798 30.4272 108.748 30.3527 108.699 30.2783C108.65 30.2038 108.601 30.1294 108.553 30.0532C108.459 29.9007 108.372 29.741 108.285 29.574C108.278 29.5576 108.271 29.5411 108.264 29.5246C108.24 29.4682 108.216 29.4107 108.205 29.3489C108.19 29.2691 108.168 29.1965 108.146 29.124C108.133 28.9665 108.114 28.8207 108.095 28.6709L108.088 28.6227C108.066 28.4557 108.059 28.2888 108.073 28.1218L108.075 28.1074V28.1063C108.089 27.944 108.104 27.7749 108.139 27.5989L108.145 27.5671C108.153 27.529 108.16 27.4912 108.167 27.4537C108.192 27.324 108.216 27.1981 108.248 27.0761C108.248 27.0544 108.262 27.0253 108.285 27.0108C108.306 26.9963 108.321 26.9817 108.321 26.9673C108.335 26.9091 108.335 26.8583 108.321 26.822C108.306 26.7857 108.306 26.7494 108.321 26.7131C108.415 26.3573 108.518 26.0088 108.641 25.682C108.678 25.5732 108.714 25.4641 108.758 25.3625C108.779 25.3117 108.803 25.2627 108.826 25.2137C108.85 25.1647 108.873 25.1157 108.896 25.0649C108.939 24.9705 108.976 24.8688 109.012 24.7671C109.041 24.6655 109.092 24.5711 109.15 24.4694C109.216 24.3097 109.281 24.1572 109.354 24.012C109.427 23.8668 109.507 23.7215 109.587 23.5763C109.783 23.1769 109.994 22.7921 110.205 22.4146C110.24 22.3538 110.275 22.2957 110.308 22.2403C110.33 22.2028 110.352 22.1665 110.373 22.1314L110.39 22.1023L110.406 22.0746L110.437 22.0222L110.438 22.0216L110.439 22.0194C110.471 21.9648 110.506 21.9078 110.54 21.8482C110.561 21.8264 110.576 21.7974 110.591 21.761C110.598 21.7247 110.598 21.703 110.583 21.6885C110.503 21.6013 110.416 21.5578 110.321 21.5578C110.28 21.5624 110.235 21.5729 110.189 21.5837L110.153 21.5921C110.144 21.5943 110.135 21.5963 110.125 21.5983L110.11 21.6013C110.038 21.6231 109.965 21.6449 109.9 21.6667C109.827 21.5795 109.74 21.5359 109.659 21.5287C109.579 21.5215 109.456 21.5505 109.296 21.6013C109.179 21.6449 109.034 21.6667 108.859 21.6667C108.822 21.6667 108.784 21.6572 108.747 21.6477C108.719 21.6406 108.691 21.6335 108.663 21.6303C108.656 21.6376 108.65 21.6467 108.645 21.6558C108.639 21.6649 108.633 21.6739 108.626 21.6812C108.543 21.801 108.458 21.9226 108.372 22.0443C108.286 22.1659 108.201 22.2875 108.117 22.4073C108.081 22.4509 108.052 22.5089 108.045 22.5598C108.03 22.6106 108.015 22.6614 107.993 22.7123C107.983 22.7389 107.973 22.765 107.963 22.7906C107.937 22.8558 107.912 22.9184 107.892 22.9809C107.862 23.0681 107.789 23.1407 107.688 23.1988C107.629 23.2351 107.601 23.2932 107.586 23.373C107.571 23.4529 107.549 23.5255 107.514 23.5836C107.484 23.678 107.448 23.7651 107.397 23.845C107.346 23.9249 107.295 24.0048 107.251 24.0919C107.193 24.179 107.157 24.2661 107.142 24.3533C107.128 24.4404 107.106 24.5275 107.069 24.6147C106.997 24.7454 106.982 24.8906 107.026 25.043C107.069 25.1883 107.048 25.3407 106.946 25.486C106.902 25.5586 106.888 25.6602 106.924 25.7765C106.953 25.8999 106.968 26.0233 106.968 26.1394V26.2557V26.3936C107.033 26.488 107.091 26.5896 107.149 26.6913C107.191 26.7796 107.241 26.8631 107.294 26.9495C107.306 26.9696 107.319 26.9903 107.331 27.0108C107.106 27.1561 106.873 27.1561 106.625 27.0108C106.073 26.6986 105.673 26.3137 105.426 25.8563C105.178 25.3988 105.033 24.9051 104.981 24.375C104.923 23.511 105.047 22.676 105.374 21.8482C105.426 21.7538 105.461 21.6522 105.483 21.5432C105.506 21.4343 105.527 21.3254 105.563 21.2165L105.498 21.1657L105.487 21.1739C105.46 21.1943 105.427 21.2192 105.389 21.2383C105.338 21.2601 105.301 21.2891 105.28 21.3109C105.141 21.4561 105.01 21.6013 104.887 21.7466C104.763 21.899 104.632 22.0515 104.494 22.204C104.436 22.2839 104.377 22.3782 104.334 22.4654C104.306 22.514 104.277 22.5648 104.247 22.6179C104.224 22.6601 104.199 22.7036 104.174 22.7486C104.137 22.8139 104.101 22.8647 104.057 22.9156C104.041 22.9346 104.025 22.9547 104.008 22.9754L103.999 22.9873L103.976 23.0144L103.956 23.0385C103.944 23.0531 103.932 23.0679 103.919 23.0825C103.81 23.2423 103.693 23.3948 103.577 23.5473C103.461 23.6998 103.352 23.8595 103.257 24.0265C103.002 24.4186 102.755 24.8107 102.515 25.2028C102.284 25.5914 102.046 25.987 101.808 26.3827L101.808 26.3841L101.802 26.3936C101.605 26.7494 101.417 27.1052 101.242 27.4682C101.067 27.8304 100.894 28.1854 100.719 28.5404L100.718 28.5429C100.565 28.8406 100.427 29.131 100.303 29.4287C100.18 29.7337 100.041 30.0242 99.889 30.3146C99.8233 30.4671 99.7361 30.5978 99.6489 30.7285C99.5539 30.8592 99.481 30.9899 99.4231 31.1206C99.3574 31.2875 99.2702 31.4182 99.1608 31.5345C99.0594 31.6433 98.9579 31.7739 98.8557 31.9045C98.6885 32.1877 98.4334 32.2315 98.0847 32.0354C97.9968 31.9846 97.9025 31.9483 97.8153 31.9266C97.721 31.8975 97.6409 31.8466 97.5609 31.745C97.3787 31.5417 97.2329 31.3238 97.1314 31.0915C97.0292 30.8592 96.9492 30.6195 96.8985 30.38C96.7892 29.7482 96.7749 29.1238 96.8549 28.5066C96.9056 28.0927 96.9856 27.6933 97.0728 27.294C96.9571 27.3956 96.8406 27.4973 96.7091 27.5989C96.6341 27.6552 96.5619 27.7145 96.4912 27.7729L96.4326 27.8206L96.404 27.8443L96.3904 27.8552L96.3747 27.8676L96.2075 28.0201L95.8216 28.4049C95.7909 28.4359 95.7602 28.4669 95.7294 28.4979C95.6387 28.5899 95.5486 28.681 95.4507 28.768L95.4386 28.7775C95.415 28.7956 95.3943 28.8115 95.3635 28.8115C95.3271 28.8115 95.2978 28.8334 95.2764 28.8551L95.2707 28.8607L95.2642 28.8672C95.2578 28.875 95.2506 28.8832 95.2435 28.8915C95.2328 28.9042 95.2213 28.9168 95.2106 28.9277C95.1885 28.9495 95.1449 29.0003 95.1449 29.0003L94.9705 29.1673C94.9705 29.1528 94.9484 29.1673 94.9127 29.2036C94.8176 29.3997 94.6868 29.5521 94.5125 29.6684C94.3446 29.7845 94.1774 29.9152 94.0244 30.0604C93.8722 30.1984 93.7122 30.3364 93.5442 30.4743C93.377 30.6195 93.2098 30.7575 93.0426 30.8882C93.0326 30.8933 93.0226 30.8976 93.014 30.9015C92.9983 30.9088 92.984 30.9151 92.9697 30.9245C92.959 30.9318 92.9461 30.9372 92.9333 30.9427C92.9283 30.9449 92.9233 30.9471 92.9183 30.9494C92.9104 30.9529 92.9033 30.9565 92.8968 30.9608C92.8196 30.9931 92.7303 31.0427 92.6188 31.1044L92.6181 31.1048L92.5767 31.1278C92.4459 31.2004 92.3151 31.2803 92.1765 31.3674C92.0386 31.4545 91.9078 31.5345 91.7763 31.6143C91.6456 31.6942 91.5441 31.7523 91.4784 31.7886C91.3405 31.8902 91.1875 31.9556 91.0275 32.0064C90.8603 32.0572 90.6923 32.0935 90.518 32.1153C90.3436 32.1371 90.1614 32.1516 89.987 32.1516C89.8127 32.1516 89.6376 32.0935 89.4775 31.9846C89.3611 31.912 89.2739 31.9193 89.216 32.021C89.1796 32.1081 89.121 32.1516 89.0481 32.1516C88.9759 32.1516 88.888 32.1516 88.808 32.1371C88.7208 32.1371 88.6479 32.1226 88.5829 32.0935C88.5171 32.0572 88.4735 31.9991 88.4521 31.8975C88.4435 31.8975 88.4371 31.9 88.4321 31.902C88.4285 31.9035 88.4257 31.9047 88.4228 31.9047C88.4157 31.912 88.4085 31.912 88.3935 31.912V31.9919V32.1081C88.3835 32.0987 88.3728 32.0896 88.3628 32.0808L88.3449 32.0649L88.3442 32.0644L88.3435 32.0637L88.3428 32.0635C88.2906 32.018 88.2449 31.978 88.212 31.9338C88.1684 31.8757 88.1098 31.8176 88.0519 31.7596C88.0519 31.7451 88.0441 31.7377 88.0298 31.7232C88.0298 31.7087 88.0084 31.6869 88.0084 31.6869V31.6724L87.9355 31.5635C87.8483 31.3457 87.724 31.1787 87.5789 31.0552C87.5132 31.0189 87.4696 30.968 87.4481 30.9172C87.4438 30.9092 87.4396 30.901 87.436 30.8929L87.4274 30.875L87.4203 30.8592C87.4024 30.8205 87.3845 30.7817 87.3602 30.7429C87.3352 30.7139 87.3095 30.6831 87.2845 30.6523C87.2588 30.6214 87.233 30.5905 87.208 30.5615C87.1494 30.5034 87.0987 30.438 87.0551 30.38C87.0044 30.3218 86.9679 30.2637 86.9458 30.1984C86.9243 30.133 86.895 30.0677 86.8586 29.9951C86.7857 29.8208 86.7278 29.6611 86.6764 29.4941C86.6256 29.327 86.6042 29.1601 86.6185 28.9931C86.6206 28.9609 86.6221 28.9287 86.6235 28.8967L86.6242 28.8788C86.6271 28.8013 86.6306 28.7249 86.6399 28.6518C86.6549 28.5501 86.6621 28.4267 86.6621 28.3105C86.6764 28.3033 86.6764 28.2815 86.6764 28.2597C86.6478 28.0491 86.6621 27.8604 86.7278 27.6861C86.7929 27.5119 86.8586 27.3375 86.9093 27.1705C86.9165 27.1342 86.9601 27.1052 87.0258 27.0834C86.8879 26.9454 86.9165 26.8366 87.1201 26.7785C87.1294 26.7741 87.1301 26.7697 87.1309 26.7654L87.1316 26.763V26.7616C87.1323 26.7599 87.1337 26.7583 87.1351 26.7566C87.128 26.6768 87.1423 26.6042 87.1644 26.5316C87.1644 26.5171 87.1716 26.4952 87.1787 26.4808C87.2152 26.3936 87.2588 26.3065 87.3166 26.2194C87.3531 26.1708 87.3795 26.1172 87.4045 26.067L87.4188 26.0378C87.4167 26.0361 87.4153 26.0343 87.4145 26.0325L87.4131 26.0303L87.4117 26.0269L87.411 26.0266C87.4095 26.0231 87.4074 26.0196 87.4045 26.016C87.3895 26.0015 87.4045 25.9652 87.4481 25.9144C87.4696 25.8926 87.4846 25.8781 87.506 25.8636C87.5132 25.8636 87.5132 25.849 87.5132 25.849C87.506 25.6602 87.5353 25.4787 87.7168 25.3625C87.7604 25.3335 87.7968 25.3263 87.8404 25.3263C87.8404 25.3211 87.8426 25.3168 87.844 25.3129C87.8476 25.3056 87.8504 25.2993 87.8404 25.29C87.9062 25.2246 87.9569 25.1665 88.0005 25.1157C88.0448 25.0577 88.0884 24.9995 88.1391 24.9414C88.1606 24.8978 88.1899 24.847 88.2192 24.7962C88.2485 24.7454 88.277 24.6873 88.2992 24.6292C88.3135 24.6292 88.3206 24.6292 88.3285 24.6219C88.3356 24.6147 88.3428 24.6147 88.3571 24.6147C88.3792 24.6074 88.3935 24.6001 88.4085 24.5928C88.4593 24.5057 88.5028 24.4113 88.5322 24.2952L88.5407 24.2671C88.5657 24.1863 88.5857 24.1199 88.6122 24.0483L88.5972 24.0338C88.6122 24.0192 88.6336 23.9975 88.6479 23.9757C88.6536 23.9645 88.6586 23.9533 88.6629 23.9418L88.6636 23.9412L88.6665 23.9329L88.6715 23.9208L88.6765 23.9109L88.6815 23.9005L88.6858 23.8922C88.6879 23.8887 88.6894 23.885 88.6922 23.8813C88.7072 23.861 88.7258 23.8513 88.7437 23.8424C88.7508 23.8386 88.7579 23.8348 88.7644 23.8305C88.8237 23.7534 88.8859 23.6763 88.9502 23.5958C88.9895 23.5472 89.0295 23.4974 89.0702 23.4456C89.0631 23.3876 89.0924 23.3295 89.1646 23.2932C89.2446 23.2496 89.3103 23.2133 89.3761 23.1697C89.3939 23.137 89.4125 23.108 89.4304 23.079C89.4482 23.0499 89.4668 23.0209 89.4847 22.9882V22.9446C89.4632 22.872 89.4997 22.7921 89.6012 22.6905C89.7033 22.5961 89.8048 22.5307 89.9141 22.5089C89.9141 22.5017 89.9177 22.4944 89.9213 22.4872C89.9249 22.4799 89.9284 22.4726 89.9284 22.4654C89.9342 22.4445 89.947 22.4348 89.9592 22.4257C89.9635 22.4221 89.9685 22.4187 89.972 22.4146C89.9649 22.3565 89.9727 22.3056 90.0235 22.2693C90.0964 22.2185 90.1471 22.1604 90.1835 22.1024C90.2779 21.9571 90.3872 21.8264 90.518 21.703C90.6487 21.5795 90.7724 21.4488 90.8967 21.3181C91.0203 21.1657 91.1582 21.035 91.304 20.9043C91.4491 20.7736 91.5727 20.6283 91.6677 20.4758C91.7914 20.2944 91.9293 20.1346 92.0822 19.9966C92.2351 19.8514 92.3952 19.7207 92.5767 19.5828C92.5831 19.5781 92.5895 19.573 92.596 19.5679C92.6196 19.5492 92.6446 19.5288 92.6789 19.5174C92.7024 19.508 92.726 19.4954 92.7518 19.4819C92.766 19.4746 92.7803 19.4668 92.7953 19.4593C92.8461 19.4375 92.919 19.4448 92.919 19.4448L93.4935 19.6626C93.5006 19.6626 93.5085 19.6644 93.5156 19.6663C93.5228 19.6681 93.5299 19.6699 93.5371 19.6699C93.5521 19.6771 93.5664 19.6771 93.5807 19.6771C93.6536 19.6989 93.7264 19.7208 93.7772 19.7498C93.8286 19.7788 93.8865 19.8224 93.9301 19.8805C93.9737 19.9313 94.0244 19.9749 94.083 20.0112C94.1409 20.0475 94.1995 20.0765 94.2574 20.0983C94.4174 20.1854 94.5339 20.2798 94.614 20.3887C94.694 20.4977 94.774 20.6211 94.8541 20.7518C94.8541 20.7663 94.8612 20.7736 94.8762 20.7881C94.9127 20.8607 94.9341 20.9406 94.9484 21.0277C94.9634 21.1148 94.9927 21.1947 95.0434 21.2818C95.1235 21.4198 95.1885 21.5505 95.2328 21.6667C95.2764 21.7901 95.3414 21.9136 95.4214 22.0297C95.5015 22.1604 95.5236 22.2984 95.48 22.4291C95.4364 22.5598 95.4507 22.6977 95.5165 22.8284C95.5165 22.8357 95.5165 22.8575 95.5015 22.872C95.4872 22.8938 95.48 22.9156 95.465 22.9374C95.5965 23.01 95.6401 23.0826 95.5886 23.1479C95.5379 23.2133 95.5015 23.2859 95.48 23.3585C95.4729 23.4311 95.465 23.5037 95.4579 23.569C95.4507 23.6344 95.4364 23.707 95.4143 23.7797C95.3929 23.845 95.3778 23.9031 95.3778 23.9539C95.3778 24.0048 95.3414 24.0556 95.2764 24.1064C95.2471 24.1282 95.2399 24.1572 95.2399 24.1863C95.2399 24.2153 95.2399 24.2443 95.2249 24.2661C95.167 24.3823 95.1013 24.4985 95.0284 24.6074C94.9269 24.7962 94.8105 24.9705 94.6869 25.1157L94.4689 25.4424L94.2502 25.7474C94.1845 25.849 94.1266 25.9289 94.0537 26.0015C93.9808 26.0741 93.9158 26.154 93.8572 26.2557C93.8065 26.321 93.77 26.3936 93.7336 26.4952C93.7122 26.5534 93.6829 26.5896 93.6393 26.6042C93.5085 26.6695 93.4063 26.7494 93.3406 26.851C93.2755 26.9527 93.1955 27.0471 93.1083 27.1488C93.0605 27.1963 93.0047 27.2363 92.9447 27.2797C92.9218 27.2958 92.899 27.3126 92.8754 27.3303C92.7882 27.3956 92.7082 27.4537 92.6281 27.5118C92.5624 27.5553 92.5045 27.6062 92.4459 27.657C92.4138 27.681 92.3823 27.7071 92.3487 27.7342C92.3216 27.7565 92.2937 27.7794 92.2644 27.8023C92.1915 27.8676 92.1115 27.9184 92.0243 27.9693C91.9364 28.0201 91.8492 28.0782 91.7621 28.1362C91.7406 28.1362 91.7185 28.1362 91.7042 28.1508C91.5291 28.2888 91.3254 28.3832 91.1146 28.434L91.1132 28.4344C90.8953 28.4923 90.6773 28.5503 90.4672 28.6083C90.3872 28.63 90.3286 28.6445 90.285 28.6445H90.2636C90.0885 28.6808 89.8484 28.7027 89.5504 28.7171C89.2524 28.7317 89.0123 28.7171 88.8301 28.6808L88.808 28.6663L88.6922 28.7171C88.7279 28.8406 88.6772 28.935 88.5322 29.0076C88.51 29.0148 88.4886 29.0366 88.4886 29.0584C88.4886 29.0802 88.4807 29.1092 88.4664 29.131C88.4443 29.1528 88.4228 29.1819 88.4228 29.1964C88.4228 29.2182 88.4007 29.2399 88.3792 29.2617C88.3135 29.3198 88.3063 29.3634 88.3571 29.3779C88.4007 29.3997 88.4443 29.4214 88.4735 29.4433C88.4521 29.5086 88.4371 29.5594 88.43 29.6248C88.4228 29.6901 88.4157 29.7482 88.4085 29.8063C88.3864 29.8499 88.3571 29.8789 88.3356 29.8935C88.2192 30.0096 88.2192 30.133 88.3285 30.2783C88.3792 30.3436 88.3792 30.409 88.3285 30.4816C88.277 30.5687 88.2992 30.6413 88.3864 30.6994C88.43 30.7067 88.4664 30.7575 88.5028 30.8446L88.5757 30.9536C88.5972 31.0189 88.6122 31.0841 88.6265 31.1494C88.6336 31.2221 88.6701 31.2875 88.7136 31.3457C88.808 31.4618 88.9323 31.5272 89.0845 31.5489C89.3611 31.5852 89.674 31.5635 90.0085 31.4836C90.3436 31.4037 90.6202 31.2948 90.8453 31.1641C90.9196 31.1226 91.0053 31.0694 91.1004 31.01C91.1554 30.976 91.2133 30.9398 91.2747 30.9027C91.3505 30.8565 91.4284 30.8073 91.5077 30.7571C91.602 30.6969 91.6992 30.6354 91.7985 30.576C91.9807 30.4671 92.1551 30.3509 92.3151 30.2347C92.4824 30.1185 92.6203 30.0242 92.7367 29.9515C93.0204 29.741 93.297 29.5304 93.5664 29.3126L94.3739 28.659C94.6068 28.4703 94.8248 28.2742 95.0434 28.0782C95.2614 27.8821 95.48 27.6788 95.6908 27.4755C95.8302 27.3671 95.9667 27.2513 96.0989 27.1387L96.0996 27.138L96.1003 27.1377L96.1346 27.1081C96.176 27.0727 96.2175 27.0378 96.2582 27.0035C96.4476 26.8438 96.6291 26.6768 96.8042 26.5098L96.8113 26.5036C96.8592 26.4627 96.9006 26.4275 96.9349 26.3791C96.9714 26.3355 97.0078 26.2847 97.0443 26.2338C97.0585 26.2121 97.095 26.1758 97.095 26.1758C97.1529 26.1032 97.2115 26.0306 97.2844 25.9725C97.3787 25.8418 97.4801 25.7185 97.5823 25.5951L97.6045 25.5289C97.6338 25.4401 97.6638 25.3479 97.6988 25.2609L97.7167 25.2127L97.7595 25.0977C97.8339 24.896 97.9096 24.691 97.9896 24.4912C98.099 24.2153 98.2083 23.9466 98.3248 23.678L98.3712 23.5659C98.4663 23.3383 98.5656 23.1015 98.6592 22.8647C98.7171 22.7486 98.7757 22.6324 98.8264 22.5235C98.8772 22.4218 98.9207 22.2984 98.95 22.1822C99.0008 21.9644 99.0887 21.761 99.2123 21.5723C99.3359 21.3835 99.4374 21.1874 99.5174 20.9841C99.5903 20.7736 99.6775 20.563 99.7868 20.3597C99.8961 20.1636 99.9976 19.9531 100.085 19.7498C100.165 19.4811 100.369 19.3141 100.696 19.2415C100.733 19.3141 100.777 19.365 100.827 19.3867C100.878 19.4157 100.922 19.423 100.973 19.4157C101.024 19.4157 101.082 19.4085 101.14 19.4013C101.198 19.394 101.249 19.394 101.293 19.4085L101.307 19.5755C101.46 19.5247 101.577 19.5319 101.671 19.5828C101.765 19.6408 101.868 19.7062 101.969 19.7933C102.086 19.8877 102.202 19.9821 102.333 20.0837C102.464 20.1782 102.566 20.3016 102.646 20.4468L102.654 20.4577C102.667 20.478 102.684 20.5034 102.697 20.5339L102.702 20.5451L102.706 20.5558C102.717 20.5821 102.726 20.6038 102.726 20.6211C102.689 20.7953 102.661 20.9841 102.653 21.1802C102.646 21.3762 102.566 21.5578 102.413 21.7103C102.336 21.7973 102.265 21.8843 102.194 21.9712C102.158 22.0148 102.122 22.0588 102.086 22.1024C101.977 22.2331 101.897 22.3855 101.846 22.5526C101.831 22.6106 101.802 22.6614 101.744 22.6977C101.685 22.734 101.649 22.7849 101.628 22.843C101.562 22.9737 101.489 23.1189 101.431 23.2713C101.373 23.4239 101.307 23.569 101.235 23.6998C101.23 23.7086 101.224 23.7174 101.219 23.7263L101.2 23.7605C101.17 23.8125 101.14 23.8633 101.104 23.9103C101.053 23.9757 101.002 24.0338 100.937 24.0846C100.754 24.1935 100.624 24.3315 100.551 24.484C100.471 24.6437 100.405 24.8107 100.354 24.9777C100.318 25.0793 100.274 25.1883 100.223 25.2754C100.165 25.3698 100.063 25.4279 99.9176 25.4497C100.013 25.5804 100.034 25.7038 99.9905 25.82C99.9469 25.9362 99.8811 26.0378 99.794 26.1394C99.7504 26.2048 99.6996 26.2701 99.6489 26.3355C99.5975 26.4009 99.5975 26.488 99.6339 26.5969C99.656 26.6405 99.6339 26.6913 99.576 26.7494C99.5174 26.8075 99.481 26.8656 99.4595 26.9237C99.4174 27.0035 99.3731 27.0808 99.3273 27.1601C99.2938 27.2177 99.2602 27.2763 99.2266 27.3375C99.1466 27.4828 99.0887 27.6207 99.0594 27.7514C99.0451 27.8821 99.0086 28.0128 98.9429 28.1435C98.885 28.2742 98.8922 28.4122 98.9722 28.5574C99.0008 28.5937 98.9936 28.6373 98.9429 28.7026C98.8922 28.768 98.8557 28.8261 98.8336 28.8841C98.7971 28.9568 98.7757 29.0366 98.7535 29.1238L98.7442 29.1612C98.7257 29.2378 98.7049 29.3208 98.6735 29.4142C98.7099 29.3924 98.7464 29.3706 98.7828 29.3634C98.8193 29.3561 98.87 29.3126 98.87 29.3126L100.136 26.9091C100.281 26.655 100.427 26.4009 100.565 26.1467C100.711 25.8926 100.864 25.6385 101.017 25.3843C101.125 25.2028 101.242 25.0213 101.358 24.8398C101.482 24.6655 101.605 24.4767 101.722 24.2806C101.744 24.2453 101.767 24.209 101.79 24.1717L101.791 24.1714C101.829 24.109 101.871 24.0438 101.911 23.9757C101.977 23.8741 102.049 23.7724 102.122 23.6707C102.137 23.6199 102.173 23.5763 102.209 23.54C102.217 23.54 102.217 23.5327 102.217 23.5327C102.253 23.4383 102.326 23.373 102.428 23.3222C103.17 22.1749 104.072 21.1367 105.127 20.2144C105.129 20.2162 105.131 20.218 105.133 20.2198C105.136 20.2216 105.139 20.2235 105.141 20.2254C105.147 20.229 105.153 20.2326 105.156 20.2363C105.243 20.1491 105.323 20.0693 105.418 20.0112L105.433 19.9966C105.44 19.9821 105.447 19.9749 105.461 19.9603C105.658 19.8151 105.854 19.6699 106.037 19.5319C106.218 19.3867 106.4 19.2343 106.582 19.0818C106.633 19.0455 106.662 19.0019 106.684 18.9365C106.705 18.8712 106.728 18.8204 106.764 18.7695C106.815 18.7114 106.865 18.6606 106.917 18.617C106.956 18.5834 107 18.5498 107.048 18.5129L107.091 18.4791C107.113 18.4718 107.149 18.4646 107.178 18.4646C107.208 18.4646 107.229 18.4646 107.229 18.4791C107.295 18.588 107.375 18.6243 107.469 18.5953C107.564 18.5662 107.644 18.5662 107.717 18.588C107.812 18.6243 107.906 18.6606 107.993 18.7041C108.046 18.7327 108.105 18.7613 108.167 18.7919L108.2 18.8076C108.222 18.8188 108.246 18.8303 108.27 18.8421C108.328 18.8639 108.386 18.8929 108.438 18.9292C108.469 18.9567 108.507 18.9813 108.549 19.0085C108.573 19.0244 108.6 19.0412 108.626 19.0599C108.641 19.1616 108.743 19.2633 108.946 19.365C109.019 19.3867 109.07 19.4375 109.106 19.5174C109.143 19.5973 109.179 19.6699 109.23 19.7425C109.24 19.7642 109.251 19.7861 109.261 19.8078C109.282 19.8514 109.303 19.8949 109.317 19.9386C109.347 20.0039 109.354 20.0765 109.332 20.1636C109.31 20.258 109.31 20.3597 109.31 20.4614C109.31 20.563 109.31 20.6574 109.289 20.759C109.281 20.8026 109.259 20.8534 109.23 20.9043C109.201 20.9478 109.172 20.9987 109.15 21.0495C109.026 21.2165 108.91 21.3835 108.793 21.5505C108.809 21.5443 108.828 21.5421 108.846 21.5399C108.87 21.5369 108.893 21.5339 108.91 21.5215C108.976 21.4706 109.049 21.4052 109.106 21.3036C109.129 21.2818 109.15 21.2673 109.172 21.2528C109.186 21.2455 109.216 21.2238 109.237 21.202C109.362 21.1583 109.484 21.1163 109.602 21.075L109.604 21.0743L109.607 21.0736C109.743 21.0261 109.877 20.9797 110.009 20.9333C110.158 20.8789 110.314 20.8274 110.472 20.7752L110.473 20.7748C110.567 20.7434 110.663 20.7118 110.758 20.6792C110.839 20.6509 110.92 20.6271 110.999 20.604C111.062 20.5856 111.122 20.5677 111.18 20.5485C111.238 20.5292 111.299 20.5113 111.361 20.4931L111.362 20.4929C111.44 20.4699 111.521 20.4461 111.602 20.4178L111.602 20.4177C111.667 20.3814 111.733 20.3451 111.805 20.3016C111.878 20.258 111.885 20.1854 111.82 20.0765C112.017 19.9821 112.17 19.8442 112.278 19.6771C112.388 19.5029 112.511 19.3577 112.65 19.2197C112.751 19.1253 112.846 19.0236 112.934 18.9292C113.021 18.8348 113.115 18.7405 113.217 18.6388C113.282 18.588 113.355 18.5807 113.442 18.6025C113.53 18.6316 113.595 18.6751 113.639 18.7332C113.661 18.755 113.712 18.7841 113.814 18.8058C113.886 18.8204 113.966 18.8348 114.046 18.8348C114.133 18.8421 114.206 18.8494 114.279 18.8639C114.279 18.8712 114.265 18.8929 114.243 18.9148C114.301 18.9511 114.381 19.0092 114.469 19.0817C114.556 19.1471 114.643 19.1979 114.738 19.2487C114.825 19.2996 114.898 19.3867 114.934 19.5029C114.942 19.5247 114.956 19.5537 114.985 19.5755C115.102 19.6408 115.152 19.6917 115.145 19.757C115.137 19.8224 115.123 19.8877 115.102 19.9603C115.063 20.0253 115.034 20.0862 115.003 20.1491L115.002 20.1492C114.992 20.1704 114.982 20.1925 114.97 20.2144C114.934 20.2944 114.905 20.3815 114.883 20.4831C114.862 20.5267 114.89 20.5775 114.977 20.6283C115.167 20.7227 115.349 20.8244 115.53 20.9333C115.713 21.035 115.902 21.1366 116.106 21.2383C116.251 21.3181 116.374 21.398 116.462 21.4997C116.508 21.5495 116.554 21.5976 116.6 21.6448C116.647 21.6939 116.694 21.742 116.738 21.7901C116.767 21.8119 116.79 21.841 116.79 21.8773C116.795 21.9067 116.802 21.9329 116.812 21.9624C116.816 21.9766 116.821 21.9915 116.826 22.008C116.898 21.9861 116.935 21.9934 116.957 22.0443C116.971 22.0878 116.993 22.1535 117.015 22.2258C117.073 22.371 117.138 22.5162 117.211 22.6542C117.284 22.7921 117.342 22.9374 117.386 23.0825C117.43 23.2278 117.444 23.373 117.437 23.5183ZM89.296 27.628L89.2596 27.6643L89.2446 27.6353L89.0195 27.9693C89.136 27.9693 89.2446 27.9838 89.3761 28.0055C89.4997 28.0346 89.6162 28.0274 89.7248 27.9911C89.7905 27.9693 89.8563 27.9475 89.907 27.9402C89.9577 27.933 90.0235 27.9111 90.0885 27.8894C90.1407 27.88 90.1835 27.8736 90.2193 27.8683C90.2386 27.8654 90.255 27.8629 90.2707 27.8604C90.3072 27.8604 90.3579 27.8386 90.4086 27.8168C90.4522 27.795 90.4887 27.7804 90.5401 27.766C90.5837 27.7587 90.6344 27.7369 90.6852 27.7151C90.7145 27.7151 90.7652 27.6788 90.7652 27.6788L91.3476 27.294C91.4133 27.2577 91.4784 27.2214 91.5441 27.1924C91.6091 27.1633 91.6749 27.127 91.7406 27.0761C91.9221 26.9527 92.0822 26.822 92.228 26.684C92.3802 26.5461 92.5045 26.3864 92.6131 26.2194L92.6932 26.1467C92.721 26.1139 92.7496 26.081 92.7789 26.048C92.8332 25.9859 92.8882 25.9225 92.9404 25.8563C93.0204 25.7619 93.1005 25.6675 93.1734 25.5658C93.2098 25.5219 93.2448 25.478 93.2805 25.4343C93.3441 25.3556 93.4063 25.2775 93.4721 25.2028L93.4978 25.1709L93.5221 25.1414L93.5457 25.1119L93.5785 25.0714L93.5792 25.0705C93.6421 24.9919 93.705 24.9143 93.77 24.8398C93.7993 24.8179 93.8065 24.7889 93.8065 24.7526L93.8086 24.7472L93.8115 24.7381C93.8193 24.7184 93.8286 24.6942 93.8286 24.6655C93.8286 24.6292 93.8501 24.6001 93.8722 24.5784C94.0537 24.2879 94.2066 23.9902 94.3303 23.6853C94.4539 23.3803 94.5268 23.0608 94.5489 22.705C94.5632 22.5816 94.5632 22.4582 94.5489 22.3419C94.5346 22.2624 94.5268 22.1827 94.5189 22.1051C94.5146 22.0624 94.5103 22.0202 94.5046 21.9789L94.5025 21.9717C94.496 21.9508 94.4875 21.9242 94.461 21.8917C94.4324 21.8554 94.4103 21.841 94.381 21.841C94.3088 21.841 94.2502 21.8627 94.1995 21.9136C94.1816 21.9369 94.1452 21.9697 94.0902 22.0195L94.0466 22.0588C93.978 22.1338 93.923 22.1704 93.8979 22.1866L93.8937 22.1895C93.8429 22.2403 93.7922 22.2839 93.7486 22.3202C93.7043 22.3565 93.6536 22.3928 93.6028 22.4291C93.5299 22.4799 93.4499 22.538 93.392 22.5961C93.3263 22.6614 93.2463 22.7123 93.1591 22.7631C93.0569 22.8284 92.9626 22.9083 92.8897 23.0027C92.8168 23.0971 92.7367 23.1842 92.6496 23.2713C92.6131 23.3076 92.5624 23.344 92.5117 23.373C92.4681 23.402 92.4095 23.4311 92.3587 23.4529C92.308 23.5037 92.2787 23.54 92.2644 23.5618C92.1987 23.649 92.1551 23.7288 92.1115 23.8159C92.0679 23.9031 92.0164 23.9829 91.9586 24.0701C91.9007 24.1572 91.8349 24.2371 91.7478 24.317C91.727 24.3355 91.7077 24.3537 91.6885 24.3716L91.6577 24.4009L91.6277 24.4295C91.5877 24.4676 91.5484 24.5049 91.5077 24.5421C91.4212 24.6285 91.3447 24.7307 91.2704 24.8308L91.2311 24.8833C91.1439 25.0068 91.0125 25.0866 90.8381 25.1374C90.8452 25.181 90.8524 25.21 90.8603 25.2391C90.8745 25.2681 90.8745 25.2972 90.8603 25.319C90.7724 25.4279 90.6923 25.5368 90.6202 25.653C90.5473 25.7619 90.4672 25.8781 90.3801 25.987C90.3708 25.9958 90.3593 26.0019 90.3472 26.0086C90.3386 26.013 90.33 26.0176 90.3215 26.0233C90.3 26.0378 90.2779 26.0378 90.2636 26.0233C90.1907 26.0088 90.1543 26.0233 90.14 26.0523C90.1378 26.0612 90.135 26.0706 90.1314 26.0809C90.1242 26.1047 90.1157 26.1331 90.1107 26.1685C90.1178 26.2048 90.1107 26.2629 90.0885 26.3355C90.0764 26.3575 90.0664 26.3781 90.0571 26.3979C90.0442 26.424 90.0328 26.4488 90.0163 26.4735C89.987 26.5171 89.9649 26.5606 89.9434 26.6115L89.8484 26.6986C89.8355 26.7206 89.817 26.7399 89.7962 26.7615L89.7791 26.7794L89.7684 26.7912L89.7584 26.8025L89.7541 26.8075C89.7176 26.851 89.6883 26.8873 89.6669 26.9382C89.6083 27.0617 89.5576 27.1851 89.5211 27.3012C89.4847 27.4247 89.4125 27.5263 89.296 27.628ZM104.632 20.8751C104.638 20.8695 104.645 20.8638 104.651 20.859C104.66 20.8515 104.669 20.8462 104.669 20.8462C104.672 20.8428 104.675 20.8376 104.678 20.8333C104.681 20.8284 104.683 20.8244 104.683 20.8244L104.632 20.8751ZM109.943 21.0204H109.987C109.994 21.0204 110.002 21.0132 110.002 21.0059C109.99 21.0059 109.982 21.0095 109.972 21.0132C109.963 21.0168 109.954 21.0204 109.943 21.0204ZM116.075 24.9975C116.095 24.9172 116.116 24.8325 116.149 24.7599L116.171 24.7454C116.199 24.5223 116.196 24.3079 116.194 24.0559C116.194 23.9798 116.193 23.9001 116.193 23.8159C116.188 23.7336 116.176 23.6577 116.165 23.5819C116.159 23.544 116.154 23.5061 116.149 23.4674H116.134C116.127 23.4239 116.127 23.373 116.127 23.3295C116.062 22.8212 115.96 22.3419 115.771 21.8264C115.734 21.7466 115.676 21.6594 115.589 21.5795C115.516 21.5069 115.414 21.4343 115.29 21.3762C115.174 21.3181 115.036 21.2674 114.898 21.2238C114.752 21.1802 114.614 21.1584 114.483 21.1511C114.352 21.1439 114.243 21.1584 114.148 21.1947C114.112 21.2092 114.09 21.231 114.076 21.2674C113.966 21.4052 113.85 21.5359 113.741 21.6522C113.625 21.7755 113.523 21.9061 113.421 22.0368C113.343 22.1324 113.269 22.2338 113.195 22.3336C113.151 22.3931 113.108 22.452 113.064 22.5089C113.021 22.5659 112.977 22.6248 112.934 22.6843L112.933 22.6846C112.86 22.7844 112.785 22.8855 112.708 22.9809C112.642 23.039 112.591 23.1044 112.548 23.1697C112.504 23.2423 112.461 23.3076 112.41 23.3658C112.351 23.4747 112.286 23.5836 112.221 23.6853C112.148 23.7941 112.09 23.8958 112.031 24.0048C112.01 24.0415 111.988 24.0779 111.966 24.114C111.894 24.2346 111.824 24.3521 111.762 24.4694C111.713 24.5543 111.665 24.6415 111.615 24.731L111.615 24.7312V24.7319C111.575 24.8028 111.535 24.875 111.493 24.9486C111.462 24.9928 111.434 25.037 111.407 25.0795L111.406 25.0798L111.405 25.0808L111.385 25.1121C111.375 25.1282 111.365 25.1439 111.354 25.1593C111.311 25.2246 111.274 25.2972 111.238 25.3698C111.174 25.4924 111.121 25.615 111.067 25.7353C111.042 25.7931 111.016 25.8506 110.991 25.9071C110.958 25.9783 110.926 26.0495 110.896 26.1203L110.895 26.1206V26.1214L110.894 26.1222V26.123L110.894 26.1238C110.849 26.2249 110.805 26.325 110.758 26.4227C110.693 26.5461 110.649 26.6695 110.613 26.7857C110.576 26.9091 110.533 27.0398 110.474 27.1705C110.438 27.2359 110.416 27.3012 110.416 27.3884C110.409 27.4682 110.329 27.4973 110.176 27.4755C110.162 27.6207 110.169 27.766 110.205 27.9111C110.234 28.0564 110.162 28.1726 109.98 28.2742V28.325L109.979 28.3305C109.965 28.4667 109.95 28.6029 109.936 28.7462C109.925 28.8605 109.914 28.9625 109.903 29.0644L109.892 29.1673C109.885 29.1986 109.879 29.2321 109.873 29.2665C109.871 29.2788 109.869 29.2913 109.866 29.3039C109.863 29.3212 109.86 29.3387 109.856 29.3561C109.842 29.4287 109.842 29.4941 109.842 29.5521C109.856 29.6974 109.87 29.8426 109.892 29.9878C109.914 30.133 109.936 30.2783 109.965 30.4235C110.002 30.5542 110.089 30.6051 110.205 30.5687C110.328 30.5135 110.451 30.4687 110.57 30.4254L110.634 30.4017C110.773 30.3581 110.911 30.2928 111.041 30.2202C111.194 30.1258 111.354 30.0242 111.507 29.9152C111.667 29.8135 111.813 29.7119 111.958 29.6103C112.097 29.5159 112.228 29.4142 112.358 29.3053C112.424 29.2545 112.488 29.2036 112.551 29.1528C112.615 29.1019 112.679 29.0512 112.744 29.0003C112.802 28.935 112.861 28.8769 112.912 28.8261C112.962 28.7752 113.021 28.7099 113.079 28.6373C113.079 28.5937 113.101 28.5429 113.152 28.492C113.202 28.4485 113.261 28.4267 113.334 28.4412H113.538C113.515 28.4049 113.501 28.3686 113.494 28.3396C113.479 28.3105 113.465 28.2742 113.45 28.2379C113.479 28.2161 113.515 28.1871 113.559 28.1508C113.603 28.1145 113.654 28.0782 113.705 28.0418C113.741 28.0055 113.792 27.9693 113.858 27.9402C113.923 27.9111 113.952 27.8748 113.952 27.8386C113.938 27.7079 113.966 27.6498 114.039 27.6643C114.068 27.6739 114.1 27.6708 114.133 27.6676C114.15 27.6659 114.168 27.6643 114.185 27.6643C114.439 27.3023 114.716 26.9514 114.996 26.597L114.997 26.5958L115.116 26.4445C115.16 26.3732 115.208 26.3021 115.254 26.234C115.269 26.2118 115.283 26.1899 115.298 26.1685C115.422 25.9797 115.546 25.7909 115.662 25.5949C115.662 25.6385 115.64 25.7111 115.603 25.8127L116.069 25.0213L116.075 24.9975ZM72.1861 8.27738C72.6084 7.74732 72.8192 7.0938 72.8192 6.31687C72.8192 5.65611 72.6956 5.10427 72.4483 4.66135C72.2004 4.21843 71.8659 3.86263 71.4513 3.58671C71.0365 3.31079 70.5637 3.122 70.0398 3.01309C69.516 2.89691 68.9777 2.83883 68.4247 2.83883H64.0377V14.3258H66.7514V9.76587H67.6972L70.1999 14.3258H73.4523L70.4473 9.41007C71.1894 9.18497 71.7788 8.80016 72.2004 8.27011L72.1861 8.27738ZM69.8871 7.07927C69.7634 7.26076 69.6033 7.406 69.4069 7.50041C69.2105 7.59481 68.9922 7.6674 68.7521 7.70369C68.5121 7.74005 68.2792 7.7618 68.0464 7.7618H66.7223V5.08249H68.2064C68.4102 5.08249 68.6285 5.09701 68.854 5.13332C69.0795 5.16962 69.2759 5.22771 69.4578 5.31484C69.6397 5.40197 69.7852 5.53993 69.8943 5.70693C70.0107 5.87394 70.0689 6.09177 70.0689 6.36043C70.0689 6.65087 70.0107 6.89049 69.8871 7.07201V7.07927ZM79.8607 14.3258H77.0817V5.20592H73.8296V2.83883H83.1128V5.20592H79.8607V14.3258ZM87.3395 6.81787H87.3838L92.0179 14.3258H95.1756V2.83883H92.4759L92.5417 10.3322H92.4909L87.8783 2.83883H84.7063V14.3258H87.4053L87.3395 6.81787ZM100.551 11.9587H105.899V14.3258H97.8746V2.83883H105.608V5.17688H100.551V7.34796H105.331V9.57706H100.551V11.9587Z" fill="#FF4D4D"/>
</svg>
