<svg width="90" height="28" viewBox="0 0 90 28" fill="none" xmlns="http://www.w3.org/2000/svg">
<g clip-path="url(#clip0_734_235)">
<path fill-rule="evenodd" clip-rule="evenodd" d="M0 13.8484C0 6.19771 6.19628 0 13.8453 0C21.4887 0 27.6906 6.19771 27.6906 13.8484C27.6906 21.4992 21.4943 27.6969 13.8453 27.6969C6.19628 27.6969 0 21.4992 0 13.8484ZM21.8183 9.88617C21.8295 9.85264 21.8295 9.81351 21.8295 9.76879L21.7736 9.82471C21.7904 9.77998 21.8016 9.72966 21.8016 9.6626C21.8072 9.61793 21.8072 9.5788 21.7904 9.54527V9.51733C21.7624 9.42788 21.7401 9.33289 21.7234 9.24349C21.7122 9.15404 21.7289 9.05345 21.7792 8.94166C21.7782 8.93969 21.7773 8.93788 21.7763 8.93623C21.772 8.92833 21.769 8.92295 21.7736 8.91373C21.7122 8.76287 21.673 8.61755 21.6675 8.48903C21.6563 8.36605 21.634 8.25986 21.6116 8.15927C21.5892 8.05868 21.539 7.96368 21.4607 7.87988C21.4384 7.8519 21.4216 7.81837 21.4216 7.79043C21.4216 7.7625 21.4049 7.72337 21.4049 7.72337V7.69544C21.3937 7.66751 21.3881 7.63957 21.3825 7.61164C21.3812 7.60632 21.3799 7.60077 21.3785 7.59485C21.374 7.57575 21.3687 7.55341 21.3602 7.52779C21.3514 7.49486 21.3435 7.46363 21.3361 7.43449C21.3247 7.38944 21.3145 7.34932 21.3043 7.31541C21.2875 7.25954 21.2596 7.20362 21.2205 7.15335C21.1423 6.94657 21.0473 6.76213 20.9132 6.58893C20.8827 6.54953 20.8525 6.5104 20.8225 6.4716C20.7206 6.33973 20.6214 6.21115 20.5221 6.08592L20.4995 6.0609C20.3511 5.89654 20.2073 5.73723 20.0583 5.58296C19.9857 5.5103 19.9186 5.44326 19.8572 5.3706C19.8295 5.33792 19.8019 5.3041 19.7737 5.26966C19.7393 5.22755 19.7041 5.18451 19.6673 5.14148L19.6337 5.12471L19.5723 5.08558L19.3991 4.985C19.2147 4.84528 19.0526 4.76704 18.913 4.73909C18.8347 4.72233 18.7677 4.69439 18.7118 4.66086C18.6685 4.63054 18.6286 4.60694 18.5868 4.58224C18.5746 4.57507 18.5623 4.56781 18.5498 4.56026C18.4716 4.50997 18.3989 4.47084 18.3374 4.4429C18.276 4.41496 18.2089 4.40378 18.1307 4.41496C18.0525 4.42613 17.9855 4.41496 17.9296 4.38143C17.8737 4.34789 17.8346 4.30878 17.8179 4.26966C17.6502 4.09641 17.4435 4.02935 17.1976 4.06847C17.1586 4.06847 17.1194 4.06847 17.0803 4.05729C17.0412 4.04611 17.0077 4.04053 16.9798 4.04053C16.9574 4.02935 16.9406 4.02935 16.9239 4.02935C16.8959 4.02935 16.868 4.02376 16.84 4.01258C16.8308 4.01072 16.8214 4.00824 16.8121 4.00575C16.7935 4.00079 16.7749 3.99582 16.7562 3.99582C16.6501 3.96228 16.5607 3.93993 16.4769 3.93434C16.3931 3.92875 16.3205 3.94552 16.2534 3.99023C16.2199 4.02376 16.1807 4.04052 16.1361 4.03494C16.1256 4.03362 16.1157 4.03231 16.1064 4.03108C16.076 4.02703 16.0513 4.02376 16.0299 4.02376L15.9964 4.00699C15.9842 4.00577 15.9725 4.00482 15.9613 4.0039C15.921 4.00061 15.886 3.99775 15.8511 3.98464C15.8183 3.97232 15.7794 3.96604 15.7367 3.95914C15.7213 3.95665 15.7054 3.95407 15.6891 3.95111C15.4656 3.88405 15.2756 3.86728 15.1359 3.89522C15.0186 3.92317 14.9125 3.94552 14.8175 3.95111C14.7225 3.96229 14.6163 3.96788 14.5046 3.96788H14.3146C14.2587 3.97346 14.2029 3.97905 14.1526 3.99023C14.0017 4.01258 13.8564 4.02376 13.7224 4.02935C13.5882 4.03494 13.443 4.03494 13.2921 4.02935C13.2549 4.03308 13.2127 4.0368 13.1705 4.04053C13.1493 4.04239 13.1283 4.04425 13.1078 4.04611C13.0463 4.0517 12.9849 4.05729 12.9234 4.05729H12.8395C12.8116 4.06847 12.7837 4.06847 12.7725 4.06847C12.7613 4.06847 12.739 4.06847 12.7055 4.07965C12.6374 4.08488 12.5694 4.0803 12.4921 4.07511C12.4869 4.07476 12.4817 4.07441 12.4764 4.07406C12.3982 4.06847 12.32 4.06847 12.2418 4.07965C12.1313 4.0849 12.021 4.08027 11.8967 4.07505C11.8888 4.07472 11.8809 4.07439 11.873 4.07406C11.7389 4.06847 11.616 4.06847 11.5043 4.06847C11.4596 4.06847 11.4148 4.07406 11.3757 4.08523C11.36 4.0872 11.345 4.08985 11.3302 4.09246C11.3028 4.09729 11.2762 4.102 11.2472 4.102C11.2137 4.11318 11.1857 4.11877 11.1634 4.11877C11.1549 4.12089 11.1456 4.12221 11.1355 4.12364C11.119 4.12597 11.1003 4.12861 11.0795 4.13553C10.9991 4.15063 10.914 4.16119 10.8327 4.17131C10.8237 4.17243 10.8147 4.17354 10.8058 4.17465C10.7164 4.18583 10.627 4.197 10.532 4.21377C10.4873 4.21936 10.4426 4.22495 10.3924 4.23612C10.3873 4.23726 10.3822 4.23839 10.3773 4.2395C10.333 4.24945 10.2928 4.25848 10.2526 4.25848L10.2359 4.26407V4.29201L10.1409 4.38143L10.1297 4.3982C10.085 4.42613 10.0459 4.45408 10.018 4.48202C9.91745 4.50996 9.85039 4.53232 9.81126 4.54908C9.6604 4.57144 9.55427 4.62174 9.49281 4.69998C9.45368 4.74468 9.41455 4.77263 9.37548 4.77822C9.33635 4.7838 9.30282 4.78939 9.26929 4.80057L9.25255 4.78939C9.19668 4.80057 9.14076 4.80057 9.09049 4.80057H8.95083C8.73851 4.7838 8.55412 4.80615 8.39766 4.85086C8.20773 4.95146 8.05687 5.02411 7.94513 5.06324C7.90041 5.08 7.86688 5.09117 7.83895 5.09676C7.7889 5.10994 7.79724 5.11069 7.82995 5.11366C7.8666 5.11699 7.93399 5.1231 7.98421 5.15265L7.9954 5.20295H8.10154C8.1686 5.13588 8.26359 5.09676 8.38652 5.09117C8.50385 5.08559 8.61558 5.10794 8.71617 5.15265L8.66585 5.16383H8.81116C8.82379 5.16202 8.83641 5.1608 8.84881 5.1596C8.87493 5.15707 8.90018 5.15463 8.9229 5.14706C8.96757 5.14147 9.01229 5.14706 9.05142 5.15824C9.09609 5.16941 9.29722 5.12471 9.29722 5.12471L9.35868 5.11353C9.61573 5.11912 9.68274 5.21971 9.55981 5.23089C9.52458 5.23409 9.52612 5.23408 9.54873 5.23388C9.60492 5.23339 9.79145 5.23176 9.86713 5.2756L9.99006 5.39855L10.2526 5.42648L10.3197 5.49357C10.4594 5.49357 10.5097 5.64443 10.4538 5.65002C10.4298 5.65244 10.4038 5.66512 10.3766 5.6784C10.3403 5.69601 10.3021 5.71467 10.2638 5.71149C10.181 5.72532 10.1118 5.76368 10.0482 5.79896C9.98309 5.83507 9.92376 5.868 9.86153 5.868C9.81686 5.8736 9.78333 5.8736 9.7498 5.868H9.63807C9.5152 5.8624 9.38678 5.8624 9.25277 5.8624C9.11865 5.8624 8.98996 5.87914 8.85584 5.91267C8.85748 5.92266 8.85671 5.92815 8.85551 5.931C8.85765 5.93018 8.86127 5.92946 8.86703 5.92946C8.87625 5.92946 8.88838 5.92848 8.90259 5.92738C8.92273 5.92579 8.94699 5.92387 8.97317 5.92387C9.16875 5.89593 9.30841 5.97419 9.38662 6.14738C9.41455 6.09152 9.44248 6.06359 9.46487 6.04679C9.64921 6.01886 9.8392 6.00212 10.0236 5.99093C10.2136 5.98533 10.4035 5.99652 10.5935 6.02446C10.6443 6.02649 10.6937 6.02929 10.7419 6.03198C10.826 6.0367 10.9064 6.04125 10.9846 6.04125C11.1131 6.04679 11.236 6.03006 11.3701 5.99652C11.4148 5.99652 11.4595 5.99652 11.5042 6.01326C11.5489 6.03006 11.5992 6.04125 11.6551 6.04125C11.683 6.03565 11.7165 6.03006 11.7389 6.04125C11.7612 6.05239 11.7892 6.05239 11.8227 6.04125C11.9176 6.02446 11.9791 6.03006 12.0015 6.04125C12.0238 6.05239 12.0406 6.14184 12.0462 6.2983C12.0536 6.29709 12.0615 6.29556 12.07 6.29396C12.0997 6.28831 12.1355 6.28156 12.1747 6.28156H12.3312C12.5993 6.2871 12.8787 6.2927 13.1692 6.2927C13.4598 6.2983 13.767 6.30949 14.0911 6.33183C14.214 6.34023 14.3369 6.34999 14.4599 6.35976C14.5828 6.36953 14.7057 6.37935 14.8287 6.3877C15.08 6.40449 15.3259 6.43242 15.5718 6.46595L15.6723 6.48274C15.7226 6.48274 15.7785 6.48834 15.8288 6.49948C15.8447 6.50129 15.8607 6.5036 15.8769 6.50596C15.9116 6.51106 15.9471 6.51627 15.9852 6.51627C15.9983 6.51973 16.0112 6.52319 16.0239 6.52665C16.0931 6.5453 16.1577 6.5627 16.2143 6.57214C16.2813 6.58334 16.354 6.58893 16.421 6.58893C16.6277 6.57214 16.8345 6.58334 17.0468 6.6336C17.1814 6.66549 17.3139 6.69518 17.4425 6.72399C17.5168 6.74062 17.5898 6.75697 17.6614 6.77332C17.734 6.79012 17.8011 6.80685 17.8737 6.83479C17.9463 6.86277 18.0134 6.87951 18.0749 6.89071C18.181 6.91304 18.276 6.93538 18.3766 6.97451C18.4771 7.01363 18.5777 7.04716 18.6839 7.0807C18.7509 7.09189 18.818 7.11423 18.8906 7.14216C18.9632 7.17009 19.0359 7.19248 19.1141 7.20922C19.4493 7.29307 19.7399 7.43839 19.9913 7.65071C20.2483 7.85749 20.4886 8.07547 20.7232 8.29899C20.902 8.47224 20.9355 8.66788 20.8349 8.8914L20.7679 9.00873C20.7511 9.04785 20.7344 9.09818 20.7232 9.15964C20.6841 9.24349 20.6506 9.37202 20.6227 9.53967C20.5947 9.70732 20.5556 9.83025 20.5053 9.9141C20.1812 10.3277 19.8181 10.7468 19.427 11.1715C19.3879 11.2163 19.3487 11.2609 19.3097 11.3C19.2761 11.3392 19.2258 11.3783 19.1755 11.4174C19.047 11.5236 18.9521 11.6186 18.8962 11.7136C18.8012 11.8533 18.7006 11.9595 18.5889 12.0266C18.4771 12.0936 18.3654 12.1551 18.248 12.211C18.2369 12.2194 18.2257 12.2264 18.2145 12.2334C18.2034 12.2403 18.1922 12.2473 18.181 12.2557C18.1638 12.2686 18.1433 12.2749 18.1195 12.2822C18.1124 12.2844 18.1049 12.2866 18.0972 12.2892C18.0525 12.3172 17.9967 12.3507 17.9463 12.3787C17.8961 12.4066 17.8402 12.4457 17.7899 12.4848C17.7229 12.5575 17.6614 12.6078 17.6167 12.6357C17.5943 12.6618 17.572 12.6829 17.5497 12.704C17.5385 12.7146 17.5273 12.7251 17.5161 12.7363C17.5072 12.7437 17.4975 12.752 17.4872 12.7607C17.4585 12.785 17.4245 12.8138 17.3876 12.8425C17.3541 12.8481 17.3318 12.8648 17.3094 12.8872C17.2926 12.904 17.2647 12.9208 17.2312 12.9319C17.2088 12.9319 17.1865 12.9375 17.1753 12.9431C17.1642 12.9487 17.153 12.9487 17.1418 12.9431C17.1138 12.999 17.0747 13.0381 17.03 13.066C17.0077 13.08 16.9854 13.0954 16.963 13.1108C16.9406 13.1261 16.9183 13.1415 16.896 13.1555C16.8065 13.189 16.7506 13.2281 16.7171 13.284C16.7004 13.3567 16.6668 13.4014 16.6222 13.4237C16.5848 13.4424 16.5512 13.4533 16.5216 13.4629C16.5159 13.4648 16.5103 13.4666 16.5048 13.4684C16.4769 13.474 16.4489 13.4852 16.4155 13.502C16.421 13.4572 16.4322 13.4125 16.4489 13.3679C16.4657 13.3455 16.4825 13.3175 16.4937 13.2896C16.4937 13.1946 16.4993 13.094 16.5104 12.9934C16.5117 12.9823 16.5129 12.9711 16.5141 12.9598C16.5241 12.8693 16.5346 12.7743 16.5495 12.6749C16.554 12.4216 16.4524 12.3343 16.3938 12.284C16.3787 12.271 16.3664 12.2604 16.3595 12.2501C16.3316 12.1998 16.2869 12.1551 16.2311 12.116C16.2087 12.0936 16.1808 12.0713 16.1529 12.049C16.164 12.0434 16.1752 12.0378 16.1807 12.0378C16.1992 12.029 16.2178 12.0201 16.2366 12.0111C16.3259 11.9684 16.4191 11.9238 16.516 11.8869C16.583 11.8477 16.611 11.7863 16.5998 11.7024C16.6047 11.6388 16.6085 11.5773 16.6122 11.518C16.617 11.4418 16.6215 11.3692 16.6277 11.3C16.6389 11.1771 16.6333 11.0541 16.611 10.92C16.5886 10.7188 16.5495 10.5288 16.5104 10.3444C16.4713 10.16 16.4099 9.97557 16.3205 9.79118C16.3079 9.76324 16.2953 9.73493 16.2828 9.70667C16.2451 9.62177 16.2073 9.53687 16.1696 9.46142C16.1193 9.36082 16.0579 9.25463 15.9796 9.15404C15.8623 9.00878 15.7673 8.92493 15.7058 8.90813C15.6444 8.8914 15.5215 8.91373 15.3427 8.98079C15.3092 8.98079 15.2477 8.96965 15.1639 8.94726C14.9516 8.85227 14.7951 8.92493 14.6945 9.15964C14.6387 9.28257 14.5605 9.42229 14.4543 9.58994C14.4152 9.64581 14.3817 9.70167 14.3482 9.75754C14.3203 9.81346 14.2755 9.85264 14.2196 9.88617C14.1135 9.98116 14.0241 10.0762 13.9514 10.1712C13.8788 10.2662 13.8509 10.3891 13.8676 10.5456C13.8676 10.5847 13.8564 10.6071 13.8285 10.6238C13.8006 10.6406 13.7782 10.6518 13.7671 10.6574C13.7839 10.7859 13.8509 10.8977 13.957 10.9927C14.0632 11.0877 14.0911 11.2107 14.0352 11.3671C14.0297 11.3895 14.0408 11.4118 14.0688 11.4286C14.0898 11.4391 14.1085 11.4518 14.1265 11.4639C14.1373 11.4712 14.1477 11.4782 14.1582 11.4845C14.1818 11.4976 14.2041 11.5095 14.2252 11.5207C14.2491 11.5334 14.2715 11.5452 14.2923 11.5572C14.3313 11.5795 14.3649 11.613 14.3873 11.6521C14.391 11.6633 14.3947 11.6695 14.3984 11.6757C14.4003 11.6788 14.4021 11.6819 14.404 11.6857C14.3537 11.7024 14.309 11.7248 14.2699 11.7527C14.1861 11.8142 14.147 11.9148 14.1582 12.0545C14.2029 12.3004 14.214 12.5463 14.1861 12.7922C14.1638 13.0381 14.147 13.2784 14.1358 13.5243C14.1302 13.7758 14.1135 14.0217 14.0911 14.262C14.0797 14.3495 14.0735 14.4422 14.0671 14.5366C14.0641 14.5808 14.0612 14.6254 14.0576 14.6699C14.0464 14.6755 14.0185 14.6867 14.0185 14.6867L13.9682 14.6979C13.8063 14.7557 13.647 14.8162 13.4905 14.8757C13.4201 14.9025 13.3502 14.929 13.281 14.955C13.2607 14.9621 13.2404 14.9692 13.2199 14.9764C13.0149 15.0483 12.8015 15.1231 12.5881 15.1841C12.5851 15.1856 12.5825 15.1871 12.5801 15.1885C12.5735 15.1923 12.5684 15.1953 12.5602 15.1953C12.5658 15.1618 12.5658 15.1226 12.5658 15.0835C12.5658 15.0108 12.577 14.9438 12.6049 14.8767C12.6215 14.8311 12.6442 14.7824 12.6662 14.7353C12.6739 14.7188 12.6815 14.7026 12.6887 14.6867C12.7167 14.6085 12.7222 14.5247 12.7167 14.4241C12.7111 14.3234 12.7334 14.234 12.7949 14.1447C12.8284 14.0943 12.8451 14.0385 12.8563 13.9825C12.8675 13.9267 12.8787 13.8708 12.901 13.8093C12.9178 13.787 12.9345 13.759 12.9457 13.7311C12.9457 13.6305 12.9513 13.5299 12.9625 13.4293C12.9645 13.4113 12.9665 13.3929 12.9685 13.3743C12.9778 13.2887 12.9878 13.197 13.0016 13.1052C13.0016 13.0381 12.9625 12.9822 12.8787 12.9487C12.8772 12.9472 12.8749 12.9453 12.8723 12.9431C12.8646 12.9368 12.8534 12.9275 12.8451 12.9152C12.834 12.8984 12.834 12.8816 12.834 12.8648C12.8507 12.7866 12.8396 12.7251 12.8116 12.6749C12.7837 12.6245 12.739 12.5799 12.6831 12.5407C12.6552 12.5183 12.6258 12.4932 12.5965 12.4681C12.5672 12.4429 12.5379 12.4178 12.5099 12.3954C12.4705 12.356 12.4224 12.3296 12.3771 12.3048C12.371 12.3014 12.365 12.2981 12.3591 12.2948C12.3749 12.2835 12.3899 12.274 12.4043 12.2649C12.4254 12.2514 12.4453 12.2388 12.4652 12.2222C12.5825 12.1495 12.5658 12.0601 12.4205 11.9595C12.5434 11.9819 12.6161 11.9316 12.644 11.8198C12.6607 11.7192 12.6887 11.6018 12.7222 11.4845C12.7613 11.3615 12.7893 11.2386 12.8061 11.1157C12.8116 11.0821 12.8116 11.043 12.7949 11.0039L12.7923 10.9972C12.777 10.9563 12.7669 10.9295 12.7669 10.8977C12.8116 10.6574 12.7949 10.4394 12.7334 10.2382C12.739 10.2215 12.739 10.1991 12.7278 10.1712C12.7222 10.1488 12.7222 10.1209 12.739 10.093C12.7669 9.95883 12.7502 9.81351 12.6887 9.65146C12.6273 9.48935 12.5323 9.36642 12.415 9.28257L12.3591 9.27143C12.3032 9.26023 12.2529 9.25463 12.2026 9.25463C12.1524 9.24904 12.1076 9.2323 12.0685 9.19317C11.9456 9.12611 11.8171 9.11491 11.6886 9.16524C11.588 9.21551 11.4875 9.24349 11.3813 9.25463C11.2695 9.26583 11.1969 9.33849 11.1578 9.47821C11.141 9.50054 11.1243 9.51734 11.1019 9.52288C11.0795 9.52288 11.0572 9.53407 11.0349 9.55087C10.9343 9.67939 10.8282 9.75205 10.7164 9.77998L10.6996 9.79118C10.6773 9.80232 10.6717 9.81911 10.6773 9.83025C10.6525 9.96437 10.6188 10.0984 10.5842 10.2365C10.5798 10.2537 10.5755 10.2711 10.5712 10.2885C10.532 10.445 10.5152 10.5903 10.5264 10.73C10.5152 10.9145 10.5208 11.0821 10.5432 11.2498C10.5656 11.4174 10.5767 11.5851 10.5767 11.7639L10.6214 11.831C10.6661 11.8813 10.7164 11.9316 10.7723 11.9763C10.8002 12.0042 10.8282 12.0433 10.8561 12.0824C10.789 12.1048 10.7276 12.1272 10.6773 12.1663C10.5935 12.2278 10.5544 12.334 10.5656 12.4737C10.6158 12.7251 10.627 12.9766 10.5991 13.2281C10.5712 13.4796 10.5544 13.7311 10.5432 13.977C10.5376 14.234 10.5208 14.4856 10.4985 14.7314C10.4762 14.9717 10.4594 15.2288 10.4426 15.4859C10.4314 15.6145 10.4258 15.743 10.4258 15.8771C10.3606 15.8958 10.2961 15.9144 10.2321 15.9329C9.98923 16.003 9.75391 16.0711 9.51514 16.1285C9.20223 16.2012 8.9061 16.2627 8.62677 16.3186C8.34179 16.3689 8.06801 16.4248 7.81101 16.4806C7.58195 16.5254 7.3249 16.5533 7.04557 16.57C7.02318 16.57 7.00227 16.5728 6.98131 16.5756C6.96035 16.5784 6.93938 16.5812 6.91705 16.5812C6.89471 16.5812 6.87375 16.584 6.85279 16.5868C6.83182 16.5896 6.81091 16.5924 6.78852 16.5924C6.74385 16.598 6.68799 16.5924 6.60973 16.5812C6.59299 16.5868 6.5762 16.5812 6.55387 16.57H6.39187V16.3857C6.38627 16.3689 6.35834 16.3409 6.31921 16.3074C6.27454 16.2683 6.25215 16.2459 6.2466 16.2291C6.24869 16.2144 6.2516 16.2005 6.2544 16.187C6.25901 16.1648 6.26334 16.1439 6.26334 16.123C6.26696 16.105 6.26592 16.0822 6.26471 16.0564C6.26405 16.0422 6.26334 16.027 6.26334 16.0112C6.26389 16.0052 6.26444 15.9988 6.26504 15.9921C6.27031 15.9309 6.27783 15.8437 6.30801 15.743C6.31312 15.7311 6.31816 15.7194 6.32321 15.7078C6.35142 15.6426 6.37848 15.5803 6.39741 15.5138C6.4198 15.4356 6.44773 15.3629 6.4868 15.2847C6.52676 15.1683 6.65374 15.0044 6.77826 14.8436C6.86299 14.7342 6.94657 14.6263 7.00085 14.5358C7.14057 14.3179 7.26904 14.1223 7.39756 13.9602C7.63782 13.6528 7.88367 13.3734 8.14067 13.1163L8.93404 12.3228C8.92284 12.3004 8.9117 12.278 8.90056 12.2613C8.88937 12.239 8.88377 12.2278 8.87263 12.2222C8.78877 12.1719 8.72731 12.1551 8.68264 12.1719C8.63791 12.1886 8.60998 12.1998 8.60438 12.211C8.35299 12.3787 8.13507 12.3954 7.95627 12.2446C7.93394 12.2446 7.9116 12.2501 7.90041 12.2557C7.88921 12.2669 7.87248 12.2669 7.84454 12.2669C7.82221 12.2753 7.80124 12.2836 7.78028 12.292C7.75932 12.3004 7.73841 12.3088 7.71602 12.3172C7.67135 12.334 7.62662 12.3563 7.58195 12.3842C7.46462 12.4569 7.36403 12.5351 7.26344 12.6189C7.1685 12.7028 7.05671 12.7866 6.93938 12.8704C6.87792 12.9263 6.81091 12.9822 6.73826 13.0325C6.6712 13.0828 6.60419 13.1331 6.54827 13.1834C6.53153 13.1834 6.52034 13.189 6.52034 13.1946C6.52034 13.1946 6.5092 13.2057 6.4924 13.2057C6.48691 13.21 6.48132 13.2144 6.47567 13.2188C6.42984 13.2546 6.37952 13.2939 6.3248 13.3287C6.26334 13.3734 6.18514 13.3846 6.09574 13.3734C6.08455 13.3958 6.08455 13.4125 6.08455 13.4293C6.07335 13.4907 6.05662 13.541 6.02868 13.5746C6.00075 13.6081 5.97282 13.6361 5.94488 13.664L5.93369 13.6808C5.93133 13.6841 5.92902 13.6874 5.92672 13.6906C5.90191 13.7254 5.88106 13.7549 5.85549 13.7702C5.84616 13.7776 5.83683 13.7845 5.82755 13.7913C5.8089 13.805 5.79029 13.8186 5.77163 13.8373C5.68224 13.8931 5.64316 13.9602 5.6543 14.0385V14.1279C5.6543 14.167 5.63197 14.2005 5.5873 14.2285C5.58071 14.2389 5.57479 14.2488 5.56919 14.2581C5.55086 14.2886 5.53604 14.3132 5.51464 14.3346C5.51124 14.3414 5.50784 14.348 5.50449 14.3545C5.49132 14.38 5.47885 14.4041 5.46994 14.4352C5.39733 14.5358 5.34148 14.6252 5.28562 14.7146C5.25422 14.7704 5.22059 14.8263 5.1862 14.8835C5.16551 14.9179 5.14452 14.9528 5.12354 14.9885C5.12354 15.0124 5.11946 15.0362 5.11479 15.0636C5.11399 15.0683 5.11317 15.073 5.11236 15.0779V15.1897C5.10638 15.2166 5.10199 15.2452 5.0975 15.2745C5.0936 15.2998 5.08962 15.3258 5.08442 15.3518C5.07325 15.4021 5.04531 15.4579 5.0062 15.5027C4.9615 15.62 4.93357 15.7374 4.92239 15.8547C4.91122 15.9721 4.90004 16.1062 4.89445 16.2571C4.90004 16.2683 4.90004 16.2851 4.89445 16.2963V16.3353C4.89445 16.408 4.90004 16.4806 4.91122 16.5589C4.9168 16.6372 4.93356 16.7154 4.95592 16.7992C4.97826 16.9109 5.00061 17.0227 5.01737 17.1401C5.03414 17.2574 5.03414 17.3804 5.01737 17.509C5.02932 17.5472 5.04228 17.5854 5.0554 17.6241C5.07295 17.6758 5.09078 17.7284 5.10678 17.7828C5.13471 17.8778 5.16265 17.9672 5.19617 18.0566C5.21542 18.1048 5.23283 18.1548 5.2505 18.2055C5.26362 18.2431 5.27688 18.2812 5.29115 18.3193C5.3104 18.3674 5.32781 18.4174 5.34549 18.4682C5.35861 18.5058 5.37186 18.5439 5.38614 18.5819C5.51464 18.839 5.6599 19.029 5.8331 19.1408C5.88902 19.1687 6.20188 19.2023 6.26894 19.1855C6.28688 19.181 6.30368 19.1769 6.31926 19.1731C6.36174 19.1628 6.39527 19.1546 6.4198 19.1464C6.48126 19.1408 6.53713 19.1352 6.5874 19.1296C6.63766 19.1241 6.69359 19.1185 6.75499 19.1129C6.93412 19.0813 7.11324 19.0596 7.28764 19.0385L7.31936 19.0346C7.389 19.0262 7.46023 19.0185 7.53251 19.0108C7.65148 18.998 7.77315 18.985 7.89481 18.9676L8.46472 18.8614C8.62677 18.8446 8.78877 18.8278 8.96197 18.7999C9.13522 18.772 9.30282 18.7384 9.47601 18.6825C9.72187 18.6155 9.96772 18.554 10.2136 18.4981C10.2275 18.4953 10.2401 18.4925 10.2526 18.4897C10.2652 18.4869 10.2778 18.4841 10.2918 18.4813C10.2862 18.5205 10.2862 18.5596 10.2862 18.5987C10.2694 18.7552 10.2638 18.9061 10.2582 19.0625C10.247 19.1799 10.247 19.3029 10.247 19.4258C10.2415 19.5487 10.2247 20.1188 10.2303 20.2138C10.2322 20.2454 10.234 20.2765 10.2359 20.3075C10.2396 20.3696 10.2434 20.4318 10.247 20.4988C10.2415 20.6441 10.247 20.8062 10.275 20.9794V21.0018V21.0186C10.275 21.027 10.2778 21.0353 10.2806 21.0437C10.2834 21.0521 10.2862 21.0605 10.2862 21.0688L10.3532 21.6389C10.3812 21.8624 10.4147 22.086 10.4538 22.3095C10.4706 22.4436 10.5097 22.5778 10.5656 22.7119C10.5879 22.7622 10.6046 22.8069 10.6214 22.8515C10.6437 22.9409 10.6717 23.0305 10.7052 23.1198C10.7332 23.2148 10.7667 23.2875 10.8114 23.3378C10.8425 23.3767 10.9653 23.5802 11.0448 23.712C11.0797 23.7698 11.1063 23.8138 11.1131 23.824C11.1206 23.8352 11.1462 23.8559 11.177 23.8806C11.2382 23.9298 11.3198 23.9955 11.3198 24.0364C11.3198 24.1101 11.371 24.1299 11.4135 24.1465C11.4323 24.1537 11.4493 24.1603 11.4595 24.1705C11.5084 24.2137 11.5322 24.2317 11.5559 24.2496C11.5782 24.2665 11.6006 24.2835 11.6439 24.3214C11.845 24.5002 12.0741 24.584 12.3256 24.584C12.3394 24.5875 12.3877 24.5824 12.4291 24.578C12.4543 24.5753 12.477 24.5729 12.4876 24.5729C12.4713 24.55 12.3826 24.4587 12.3094 24.3832C12.2572 24.3294 12.2128 24.2836 12.2082 24.2767C12.1747 24.2041 12.1412 24.1314 12.1188 24.0532C12.1133 24.034 12.1089 24.0132 12.1043 23.9921C12.0904 23.9269 12.0759 23.8592 12.0294 23.8296C11.9982 23.8077 12.0124 23.721 12.031 23.6078C12.0456 23.5187 12.063 23.4132 12.063 23.3099C12.063 23.2708 12.0574 23.2316 12.0462 23.1981C12.0238 23.0416 12.0015 22.9019 11.9736 22.7566C11.9456 22.6113 11.9232 22.4716 11.9065 22.3319C11.8953 22.2089 11.8953 22.0915 11.9065 21.9742C11.9176 21.8568 11.9288 21.7395 11.9456 21.6277C11.9456 21.6038 11.9497 21.58 11.9544 21.5526C11.9551 21.548 11.956 21.5432 11.9568 21.5383C11.9576 21.5334 11.9584 21.5286 11.9592 21.5239C11.9639 21.4966 11.968 21.4727 11.968 21.4489C11.9847 21.3259 11.9791 21.1974 11.9624 21.0744C11.9456 20.9515 11.9568 20.8285 12.0126 20.7168C12.0182 20.7056 12.0182 20.6889 12.0126 20.6609V20.3591V20.0573C12.0161 19.9306 12.03 19.7954 12.0441 19.6584C12.053 19.5718 12.062 19.4844 12.0685 19.3979C12.0685 19.3364 12.0741 19.2693 12.0853 19.1967C12.0964 19.124 12.1076 19.0514 12.1244 18.9732C12.13 18.934 12.1412 18.9005 12.1579 18.8726C12.1747 18.8446 12.1691 18.7999 12.1468 18.744C12.1356 18.7272 12.1356 18.6993 12.1468 18.6658C12.1553 18.6402 12.1671 18.6178 12.1772 18.5987C12.1803 18.5928 12.1832 18.5873 12.1858 18.5819C12.2585 18.4423 12.2585 18.3417 12.2418 18.2578C12.2345 18.2253 12.2296 18.1719 12.2241 18.111C12.221 18.0776 12.2178 18.042 12.2138 18.0063C12.264 17.9938 12.3141 17.9824 12.3638 17.9711C12.4247 17.9572 12.4849 17.9435 12.5434 17.9281C12.7055 17.889 12.8563 17.8387 13.0072 17.7716C13.3176 17.6503 13.6154 17.529 13.9042 17.4114C13.9481 17.3935 13.9918 17.3758 14.0352 17.358C14.0297 17.4251 14.0297 17.4922 14.0297 17.5592C14.0297 17.6822 14.0185 17.7995 14.0073 17.9169C14.0073 17.9791 14.0101 18.0413 14.013 18.1027C14.0157 18.1628 14.0185 18.2221 14.0185 18.2802C14.0185 18.3975 14.0241 18.5205 14.0297 18.6434C14.0129 18.744 14.0073 18.8446 14.0129 18.934C14.0185 19.0231 14.024 19.1178 14.0296 19.2125L14.0297 19.2135C14.0241 19.3532 14.0297 19.5096 14.0576 19.6829V19.7052V19.722C14.0632 19.7388 14.0688 19.7555 14.0688 19.7723C14.08 19.8673 14.0911 19.9609 14.1023 20.0545C14.1135 20.1481 14.1246 20.2418 14.1358 20.3368C14.1638 20.5547 14.1917 20.7727 14.2308 20.9962C14.2475 21.1248 14.2811 21.2533 14.3369 21.3874C14.3593 21.4321 14.3761 21.4768 14.3928 21.5215C14.4152 21.6109 14.4431 21.7004 14.4767 21.7842C14.499 21.8736 14.5325 21.9463 14.5772 21.9965C14.6219 22.0469 14.6778 22.0971 14.7449 22.1531C14.7616 22.1531 14.7783 22.1698 14.7895 22.1977C14.8007 22.2257 14.8007 22.2481 14.8007 22.2648C14.7672 22.3095 14.7616 22.3431 14.7839 22.3766C14.7996 22.3962 14.8153 22.4185 14.8329 22.4436C14.8404 22.4543 14.8482 22.4655 14.8566 22.4772C14.946 22.5498 15.0354 22.6281 15.1248 22.7119L15.393 22.9466C15.5885 23.1198 15.8064 23.2037 16.0579 23.2037C16.0746 23.2093 16.1025 23.2037 16.1305 23.1981C16.1584 23.1869 16.1863 23.1869 16.2143 23.1869C16.1863 23.1534 16.1696 23.1254 16.1584 23.0975C16.1473 23.0751 16.1361 23.0528 16.1193 23.0305C16.106 23.0205 16.0947 23.0144 16.0842 23.0088C16.077 23.005 16.0702 23.0014 16.0634 22.9969C16.0467 22.9857 16.0299 22.9745 16.0075 22.9634C15.9993 22.951 15.9881 22.9417 15.9805 22.9355C15.9777 22.9332 15.9755 22.9313 15.974 22.9299C15.9726 22.9284 15.9703 22.9265 15.9676 22.9243C15.96 22.918 15.9487 22.9087 15.9405 22.8963C15.907 22.8237 15.8735 22.751 15.8511 22.6784C15.8288 22.6001 15.7952 22.5275 15.7617 22.4604C15.7561 22.4436 15.7561 22.4213 15.7673 22.4045C15.7785 22.3878 15.7897 22.371 15.8064 22.371C15.8958 22.3431 15.907 22.2872 15.8455 22.2145C15.8379 22.2031 15.8329 22.1892 15.827 22.1726C15.8242 22.1648 15.8212 22.1564 15.8176 22.1475C15.8064 22.1195 15.8064 22.0971 15.8064 22.0804C15.7952 22.0357 15.7897 21.9965 15.7897 21.9574C15.788 21.9446 15.7869 21.9326 15.7858 21.9214C15.7831 21.8934 15.7808 21.8696 15.7729 21.8457C15.7561 21.6948 15.7338 21.5551 15.7058 21.4153C15.6779 21.27 15.6556 21.1359 15.6388 20.9962C15.6276 20.8733 15.6276 20.7559 15.6388 20.6441C15.65 20.5323 15.6612 20.4206 15.6779 20.3088C15.6779 20.285 15.682 20.2611 15.6867 20.2337C15.6874 20.229 15.6883 20.2243 15.6891 20.2194C15.6899 20.2145 15.6907 20.2097 15.6915 20.2051C15.6962 20.1777 15.7003 20.1539 15.7003 20.13C15.717 20.0126 15.7114 19.8897 15.6947 19.7667C15.6779 19.6438 15.6947 19.5264 15.745 19.4146C15.7505 19.4035 15.7505 19.3867 15.745 19.3588V19.0625V18.7664C15.7468 18.6985 15.7481 18.63 15.7493 18.561C15.7518 18.4256 15.7543 18.2887 15.7617 18.1516L15.7636 18.1181C15.7741 17.9219 15.785 17.7207 15.8008 17.5145C15.8008 17.4531 15.8064 17.386 15.8176 17.319C15.8209 17.3009 15.8241 17.2818 15.8276 17.2619C15.8358 17.2142 15.8449 17.1618 15.8567 17.1066C15.8623 17.0675 15.8735 17.0395 15.8902 17.0116C15.907 16.9892 15.9014 16.9445 15.8791 16.8886C15.8679 16.8774 15.8679 16.8495 15.8791 16.816C15.8826 16.8053 15.8805 16.794 15.8774 16.7776C15.8708 16.7426 15.8598 16.6844 15.8902 16.5589C15.8958 16.5477 15.8958 16.531 15.8958 16.531H15.9014C16.0913 16.4471 16.2813 16.3577 16.4713 16.2571C16.5677 16.2089 16.6627 16.1607 16.7562 16.1132C16.847 16.0671 16.9364 16.0217 17.0244 15.9777C17.1418 15.9038 17.259 15.8367 17.3737 15.7711C17.4065 15.7523 17.4391 15.7336 17.4714 15.715C17.4727 15.7137 17.474 15.7121 17.4755 15.7103C17.48 15.7048 17.4852 15.6982 17.4938 15.6982C17.5049 15.6982 17.5105 15.6927 17.5161 15.6815C17.5329 15.6703 17.5497 15.6535 17.5608 15.6368C17.5659 15.6216 17.5801 15.611 17.5994 15.5966C17.6014 15.5951 17.6035 15.5937 17.6055 15.5921C17.6446 15.5473 17.6837 15.5027 17.7173 15.4691C17.7508 15.4356 17.7955 15.3965 17.8458 15.3573C17.9073 15.3071 17.9687 15.2624 18.0357 15.2176C18.1083 15.173 18.1753 15.1283 18.2424 15.0836C18.2896 15.0549 18.3353 15.0268 18.3798 14.9996C18.4564 14.9527 18.5294 14.908 18.6 14.8655C18.7118 14.7985 18.8124 14.7147 18.913 14.6197C19.1476 14.4073 19.3711 14.1949 19.5834 13.977C19.8013 13.759 20.0024 13.541 20.2036 13.3231C20.3154 13.2001 20.4327 13.0605 20.5388 12.9152C20.5994 12.8322 20.6618 12.7494 20.725 12.6654C20.7725 12.6023 20.8205 12.5385 20.8685 12.4737H20.8964C20.9914 12.334 21.0808 12.1886 21.1479 12.0322L21.349 11.5628C21.3602 11.5124 21.3769 11.4677 21.4049 11.4286C21.4272 11.3839 21.4496 11.3392 21.4607 11.2945C21.5836 11.043 21.6674 10.8139 21.7178 10.6126C21.768 10.4115 21.796 10.2103 21.8072 10.0035C21.8072 9.96437 21.8072 9.92524 21.8183 9.88617ZM85.5807 7.51665H84.8651V11.0207H82.7813V2.17958H86.1503C86.5751 2.17958 86.9883 2.22988 87.3905 2.31371C87.7928 2.39753 88.1561 2.54843 88.4744 2.7552C88.7932 2.96756 89.0501 3.24141 89.2399 3.58231C89.4298 3.92321 89.5253 4.34794 89.5253 4.8565C89.5253 5.45448 89.3629 5.95745 89.0391 6.36542C88.7148 6.77338 88.2681 7.06955 87.6924 7.24281L90 11.0263H87.5025L85.5807 7.51665ZM84.8431 3.91204H85.9829C86.1393 3.91204 86.3067 3.92321 86.4801 3.95115C86.653 3.9791 86.8039 4.02381 86.9438 4.09087C87.0832 4.15793 87.1952 4.26411 87.2792 4.39265C87.3626 4.52118 87.413 4.68884 87.413 4.89562C87.413 5.11916 87.3686 5.30358 87.2676 5.4433C87.1727 5.58302 87.0498 5.6948 86.8988 5.76741C86.7479 5.84007 86.5806 5.89599 86.3962 5.92392C86.2118 5.95185 86.0329 5.96865 85.854 5.96865H84.8371V3.90644L84.8431 3.91204ZM38.5133 11.026L42.2232 2.18494H44.2849L47.9557 11.026H45.5868L44.8995 9.2936H41.4801L40.832 11.026H38.5133ZM43.2233 4.54331L42.1003 7.57789H44.324L43.2233 4.54331ZM38.8148 4.91246C38.8148 4.4039 38.7254 3.97917 38.5466 3.63269C38.3678 3.28619 38.122 3.00676 37.8091 2.7944C37.4963 2.58203 37.1275 2.42555 36.7084 2.33055C36.2894 2.23555 35.8368 2.19084 35.3563 2.19084H32.1101V11.0319H34.2445V7.69555H35.306C35.7642 7.69555 36.2056 7.64528 36.6302 7.54469C37.0548 7.4441 37.4292 7.28759 37.7532 7.06966C38.0773 6.85169 38.3343 6.56665 38.5243 6.21461C38.7143 5.86251 38.8093 5.42661 38.8093 4.91246H38.8148ZM36.5576 5.44338C36.4738 5.57748 36.3564 5.68926 36.2112 5.77312C36.0659 5.85691 35.9039 5.91284 35.7195 5.94637C35.5351 5.9799 35.3451 5.99663 35.144 5.99663H34.2445V3.91211H35.1775C35.3675 3.91211 35.5519 3.92329 35.7307 3.95123C35.9095 3.97917 36.0659 4.02947 36.2112 4.10212C36.3508 4.18036 36.4626 4.28095 36.5464 4.41508C36.6302 4.5492 36.6749 4.71686 36.6749 4.92922C36.6749 5.136 36.6358 5.30925 36.552 5.44896L36.5576 5.44338ZM66.7794 16.8214C66.729 16.8717 66.6785 16.922 66.6176 16.9611L66.5835 16.9555C66.5221 16.9946 66.4721 17.0394 66.4332 17.1064C66.3959 17.1506 66.3569 17.1924 66.3185 17.2333L66.3179 17.2335L66.2894 17.2644L66.2779 17.2767L66.2598 17.2964C66.2038 17.3579 66.1478 17.4194 66.1034 17.4976C65.874 17.7938 65.6676 18.0844 65.4832 18.3638C65.4607 18.4197 65.4218 18.4756 65.3658 18.5259C65.3098 18.5818 65.2988 18.6377 65.3268 18.7159C65.3268 18.7215 65.3153 18.7383 65.2988 18.755C65.2709 18.8053 65.2429 18.8444 65.2149 18.8834C65.1869 18.9225 65.1534 18.9674 65.1145 19.0121C65.0695 19.068 65.036 19.1294 65.0305 19.1965C65.025 19.2636 64.9745 19.3195 64.8966 19.3642C64.8686 19.381 64.8516 19.4145 64.8516 19.4536C64.8516 19.4927 64.8406 19.5319 64.8236 19.5709C64.8071 19.6101 64.7846 19.6436 64.7621 19.6715C64.7402 19.7051 64.7232 19.733 64.7177 19.7722C64.6617 19.9566 64.5443 20.1354 64.3714 20.3031C64.2929 20.3757 64.2205 20.4484 64.1535 20.5266C64.086 20.6048 64.0581 20.7054 64.0696 20.8228C64.0696 20.8396 64.0641 20.8619 64.0526 20.8787C64.0361 20.8954 64.0361 20.9178 64.0361 20.9345L64.0328 20.9618C64.0284 20.9996 64.0246 21.0314 64.0246 21.0631V21.1749C63.9631 21.2466 63.9016 21.3138 63.8446 21.3761L63.8292 21.3928C63.8067 21.4878 63.7787 21.5828 63.7513 21.6779C63.7732 21.6946 63.7732 21.7169 63.7568 21.7449C63.7623 21.7617 63.7398 21.7673 63.7233 21.7673C63.6783 21.9182 63.6223 22.069 63.5609 22.22C63.5109 22.3429 63.4714 22.477 63.4324 22.6111C63.427 22.6167 63.427 22.6223 63.427 22.6279C63.416 22.667 63.399 22.7061 63.3825 22.7452C63.3787 22.7489 63.3798 22.7527 63.3809 22.7564L63.3814 22.7583C63.382 22.7595 63.3825 22.7608 63.3825 22.762C63.3754 22.7832 63.3671 22.8043 63.3589 22.8258C63.3479 22.8556 63.3359 22.8861 63.3265 22.9185C63.3265 22.9688 63.321 23.0135 63.304 23.0359C63.2991 23.0383 63.2942 23.0397 63.2898 23.0409C63.287 23.0418 63.2843 23.0425 63.2821 23.0434C63.2799 23.0443 63.2777 23.0455 63.276 23.047C63.2201 23.1811 63.1641 23.3153 63.1196 23.4494C63.1026 23.7065 63.0302 23.9691 62.9407 24.2206C62.9182 24.2968 62.8996 24.373 62.8815 24.4464L62.8683 24.5001C62.8403 24.6174 62.8068 24.718 62.7618 24.8242C62.7547 24.8466 62.7421 24.8639 62.73 24.8813L62.7295 24.8814C62.7234 24.8901 62.7174 24.8988 62.7119 24.9081L62.696 24.9607C62.6735 25.0365 62.6515 25.1103 62.6334 25.1874H62.6504C62.6389 25.2936 62.6279 25.3998 62.6115 25.5116C62.6049 25.5764 62.5972 25.636 62.5895 25.6943C62.5835 25.7416 62.5769 25.7882 62.5719 25.8357C62.561 25.8804 62.5555 25.9308 62.5555 25.9754C62.55 26.0202 62.55 26.0705 62.55 26.1151C62.55 26.2101 62.55 26.2996 62.561 26.389C62.5637 26.4308 62.5681 26.474 62.5719 26.5172C62.5763 26.5605 62.5807 26.6042 62.5835 26.6461C62.5835 26.6523 62.5829 26.6581 62.5824 26.6635L62.5813 26.671L62.5802 26.6776C62.5791 26.686 62.5774 26.6942 62.5774 26.702C62.6559 26.8975 62.7788 27.0987 62.9127 27.2273H62.9182C62.9687 27.2217 63.0192 27.2161 63.0752 27.2049C63.0971 27.4844 62.9797 27.652 62.7229 27.7079C62.6669 27.7079 62.6334 27.6967 62.6224 27.6799C62.55 27.6129 62.4715 27.5793 62.3876 27.5682C62.3041 27.557 62.2202 27.5402 62.1307 27.5123C62.1027 27.5067 62.0748 27.4844 62.0468 27.4508C62.0243 27.4173 61.9968 27.3894 61.9634 27.3726C61.6615 27.1826 61.4491 26.9646 61.3372 26.702C61.2258 26.4393 61.1528 26.1599 61.1248 25.8637C61.0968 25.696 61.0859 25.5283 61.0804 25.3495C61.0749 25.1707 61.0749 25.003 61.0804 24.8354C61.0804 24.7348 61.0913 24.6398 61.1084 24.5504C61.1248 24.4666 61.1418 24.3715 61.1528 24.2654C61.1671 24.1871 61.1808 24.1075 61.1951 24.0279L61.2082 23.951C61.2176 23.8971 61.2274 23.8434 61.2368 23.7903C61.2483 23.7354 61.2598 23.6797 61.2708 23.6238V23.6232C61.2911 23.5203 61.312 23.4166 61.3372 23.3153C61.3762 23.1532 61.4157 22.9968 61.4656 22.8514C61.5161 22.7061 61.5606 22.5553 61.6001 22.4043C61.695 22.1361 61.7845 21.8623 61.8739 21.5884C61.9628 21.3146 62.0583 21.0463 62.1587 20.7725C62.2701 20.4428 62.3931 20.1242 62.516 19.8057L62.5621 19.6873L62.5901 19.6132L62.6186 19.5397V19.5389L62.6202 19.5358C62.7086 19.3048 62.798 19.0718 62.8908 18.8389C62.9857 18.6265 63.0862 18.4141 63.1921 18.2129C63.2985 18.0117 63.399 17.7994 63.4994 17.587C63.5839 17.4315 63.6613 17.2791 63.7398 17.1251L63.7403 17.1243C63.7661 17.0739 63.7919 17.0232 63.8182 16.9723C63.8462 16.9175 63.8748 16.862 63.9033 16.8062C63.9593 16.6969 64.0158 16.5859 64.0751 16.4749C64.0323 16.514 63.9889 16.5519 63.9456 16.5898L63.945 16.5899C63.8583 16.6656 63.7716 16.7413 63.6898 16.827C63.5334 16.9852 63.3649 17.1358 63.197 17.2865C62.8897 17.5617 62.5813 17.8377 62.3431 18.1627C62.3316 18.1794 62.3151 18.1906 62.2981 18.2018C62.1851 18.3249 62.1017 18.4687 62.0188 18.6113C61.959 18.7147 61.8991 18.8176 61.8289 18.9115C61.7916 18.9618 61.7537 19.011 61.7159 19.0598C61.5902 19.2225 61.4667 19.3819 61.3762 19.5709C61.2982 19.7275 61.1918 19.856 61.0804 19.9845C61.0721 19.9957 61.065 20.0069 61.0579 20.018C61.0546 20.0232 61.0513 20.0283 61.048 20.0335C61.0441 20.0395 61.0403 20.0455 61.0354 20.0516C60.9015 20.2192 60.7731 20.3757 60.6391 20.5266L60.5854 20.5951L60.5848 20.5953C60.5009 20.7026 60.4142 20.813 60.3318 20.9234C60.2309 21.0575 60.1304 21.1917 60.0245 21.3202C59.9351 21.4487 59.8456 21.5772 59.7617 21.6946C59.6837 21.812 59.5882 21.9405 59.4823 22.0578C59.4154 22.1361 59.3649 22.2311 59.3314 22.3205C59.2979 22.4155 59.2645 22.5161 59.231 22.6167C59.192 22.7397 59.119 22.8514 59.0131 22.952C58.9067 23.0582 58.8117 23.1644 58.7283 23.2762C58.6163 23.4327 58.5099 23.5947 58.421 23.7568C58.3255 23.9189 58.3035 24.1089 58.348 24.3212V24.3771C58.2646 24.4274 58.1916 24.4777 58.1246 24.5336C58.0577 24.5895 57.9792 24.6453 57.9013 24.6901H57.8843C57.8733 24.6957 57.8618 24.6998 57.8508 24.7041C57.8398 24.7082 57.8283 24.7124 57.8173 24.718C57.8074 24.7229 57.7965 24.7268 57.786 24.7306C57.7723 24.7352 57.7597 24.7397 57.7504 24.7459C57.7279 24.7459 57.7169 24.7459 57.7114 24.7515C57.7114 24.7571 57.6719 24.7571 57.6719 24.7571V24.718C57.527 24.7013 57.4151 24.623 57.3366 24.4833C57.2866 24.3995 57.2137 24.3324 57.1132 24.2877C56.9459 24.1871 56.8229 24.0641 56.7445 23.9189C56.6665 23.7736 56.599 23.6226 56.5436 23.4662C56.3982 23.008 56.3647 22.5441 56.4487 22.069V22.0672C56.4821 21.8219 56.5156 21.5766 56.5491 21.3202C56.5524 21.2727 56.5617 21.2292 56.5716 21.1862C56.5776 21.1585 56.5837 21.1307 56.588 21.1022C56.6105 20.9681 56.6385 20.8396 56.6665 20.711C56.672 20.6887 56.6759 20.6649 56.6802 20.6412C56.6846 20.6174 56.6885 20.5936 56.6945 20.5713C56.7027 20.5378 56.7126 20.5043 56.722 20.4707C56.7318 20.4372 56.7417 20.4037 56.7499 20.3701C56.8954 19.7833 57.1077 19.2021 57.3591 18.6321V18.6209C57.4096 18.498 57.4595 18.3862 57.5155 18.2744C57.5879 18.1068 57.6719 17.9449 57.7559 17.783C57.7838 17.7271 57.8173 17.6708 57.8508 17.615C58.0297 17.2797 58.2196 16.9555 58.4149 16.6425C58.4374 16.6036 58.4594 16.5661 58.4819 16.5286L58.4824 16.528C58.5044 16.4903 58.5269 16.4525 58.5494 16.4134C58.7223 16.1116 58.9012 15.8155 59.0855 15.5192C59.2535 15.251 59.4209 14.9883 59.5998 14.7145L59.6733 14.6005L59.7139 14.5372L59.715 14.5355C59.85 14.3254 59.9855 14.1142 60.1249 13.9098C60.3093 13.6192 60.4937 13.3285 60.6781 13.0323C60.8625 12.7418 61.0469 12.4511 61.2313 12.1549C61.3372 11.9986 61.4376 11.8424 61.5381 11.6861L61.5386 11.6855C61.6335 11.5291 61.7285 11.3725 61.8124 11.2161C61.8624 11.1434 63.304 11.7246 63.36 11.842C63.4099 11.9594 63.4604 12.0711 63.5164 12.1885C63.5724 12.3059 63.5669 12.4288 63.5054 12.5573C63.4884 12.5741 63.4604 12.5964 63.4324 12.6132C63.399 12.63 63.371 12.6524 63.3545 12.6691C63.3375 12.6859 63.315 12.7082 63.304 12.725C63.2991 12.7327 63.2936 12.7416 63.2887 12.7506C63.2826 12.7611 63.2766 12.7718 63.2705 12.7809C63.2481 12.8479 63.2255 12.9094 63.2036 12.9709C63.1811 13.0323 63.1531 13.0883 63.1142 13.1441C63.0664 13.2083 63.0209 13.2738 62.9748 13.3394L62.9742 13.3397L62.9737 13.3404C62.9276 13.4057 62.882 13.4714 62.8348 13.5353C62.8145 13.5625 62.7948 13.5899 62.7745 13.6175C62.6993 13.7203 62.6224 13.8252 62.5385 13.9265C62.477 13.9992 62.421 14.0718 62.3656 14.1501C62.3041 14.2227 62.2482 14.2953 62.1922 14.3736C62.1867 14.3959 62.1697 14.4015 62.1472 14.3959C62.1307 14.3904 62.1137 14.4015 62.1027 14.4183C62.0583 14.4407 62.0078 14.4742 61.9518 14.5301C61.9354 14.5524 61.9184 14.5748 61.9129 14.6083C61.9074 14.6363 61.8904 14.6586 61.8739 14.6698C61.8009 14.6922 61.762 14.7201 61.7565 14.7704C61.751 14.8207 61.734 14.8654 61.706 14.9101C61.6895 14.9492 61.6615 14.9828 61.6281 15.0163C61.5946 15.0498 61.5606 15.0833 61.5331 15.1225C61.5216 15.1393 61.5161 15.1504 61.5051 15.1616C61.4936 15.1672 61.4936 15.1839 61.4936 15.2007C61.4826 15.3907 61.3877 15.5528 61.2088 15.6925C61.1029 15.7763 61.0244 15.8601 60.9799 15.944C60.9684 15.9773 60.9574 16.0091 60.9465 16.041V16.0418L60.9338 16.078L60.924 16.1063L60.9124 16.1396C60.8905 16.201 60.84 16.2514 60.756 16.2793C60.7676 16.2793 60.756 16.2905 60.7281 16.3184C60.7116 16.419 60.6726 16.514 60.5941 16.5979C60.5102 16.6761 60.4487 16.7711 60.3933 16.8605L60.3927 16.8606C60.3873 16.8662 60.3708 16.8829 60.3593 16.8996C60.3428 16.9164 60.3428 16.9276 60.3538 16.9276C60.4152 17.0058 60.4207 17.0561 60.3708 17.0896C60.3203 17.1232 60.2813 17.1511 60.2643 17.1679C60.1249 17.2405 60.03 17.3467 59.991 17.4753C59.9515 17.6038 59.8955 17.7268 59.8176 17.8385C59.7112 17.9894 59.6277 18.1347 59.5493 18.2856C59.4713 18.4365 59.3929 18.593 59.3149 18.7495C59.3034 18.7662 59.3034 18.7885 59.3034 18.8165C59.3034 18.8445 59.2924 18.8668 59.2754 18.8836C59.259 18.9171 59.242 18.9395 59.214 18.9618C59.192 18.9842 59.1695 19.0121 59.1525 19.0401C59.1415 19.0401 59.1305 19.0401 59.119 19.0345C59.108 19.0289 59.0971 19.0289 59.0855 19.0289C59.1135 19.0848 59.1306 19.1294 59.1306 19.1686C59.0466 19.2189 58.9796 19.2636 58.9401 19.3027C58.9066 19.3474 58.9291 19.4201 59.0241 19.5207C59.017 19.5207 59.0087 19.5217 58.9988 19.5229C58.9868 19.5245 58.973 19.5263 58.9571 19.5263C58.9346 19.5319 58.9127 19.5319 58.8902 19.5319C58.8902 19.543 58.8902 19.543 58.8847 19.543C58.8787 19.543 58.8787 19.543 58.8787 19.5542C58.8847 19.6045 58.8902 19.6492 58.9012 19.6939L58.9023 19.7019C58.9072 19.749 58.9121 19.7913 58.9067 19.8336C58.9012 19.8783 58.8902 19.9174 58.8622 19.951C58.8397 19.9845 58.8172 20.0236 58.8007 20.0684C58.7903 20.0922 58.7782 20.114 58.7662 20.135L58.7656 20.1362L58.7607 20.1451L58.7546 20.1557C58.7513 20.162 58.7481 20.1682 58.7448 20.1745C58.7283 20.2081 58.6833 20.2192 58.6054 20.2081C58.5829 20.2081 58.5604 20.2192 58.5494 20.2416C58.5324 20.2639 58.5159 20.2863 58.4989 20.3031L58.5269 20.331L58.5549 20.3589C58.6218 20.3254 58.6833 20.2919 58.6833 20.2919L58.7338 20.3031L58.7332 20.3033C58.6888 20.3759 58.6443 20.4484 58.6054 20.5266C58.5659 20.5992 58.5214 20.6831 58.4654 20.7893C58.4824 20.806 58.4764 20.8731 58.4545 20.9905C58.4391 21.0975 58.41 21.2092 58.3793 21.3256L58.3705 21.3593C58.337 21.4878 58.298 21.6108 58.2531 21.7225C58.2086 21.8399 58.1636 21.8958 58.1246 21.907C58.1191 21.9348 58.112 21.9627 58.1049 21.9905V21.9911C58.101 22.0079 58.0966 22.0246 58.0928 22.0414L58.0884 22.0604L58.0857 22.0746C58.0687 22.1305 58.0632 22.1864 58.0577 22.2423C58.0407 22.3373 58.0297 22.4267 58.0242 22.5161C58.0187 22.5608 58.0127 22.6068 58.0072 22.6528C58.0017 22.6988 57.9962 22.7453 57.9907 22.79C57.9847 22.8402 57.9737 22.8794 57.9627 22.9185C57.9512 22.9576 57.9402 23.0024 57.9348 23.047C57.9177 23.0973 57.9177 23.1476 57.9177 23.1979C57.9232 23.2482 57.9177 23.2985 57.9013 23.3433V23.3544C57.9402 23.2985 57.9792 23.2426 58.0072 23.1811C58.0352 23.1197 58.0802 23.0638 58.1246 23.0079C58.2086 22.885 58.298 22.7676 58.393 22.6503C58.4879 22.5385 58.5884 22.4211 58.6943 22.3094C58.7168 22.2926 58.7393 22.2758 58.7618 22.2702C58.7837 22.2646 58.7952 22.2479 58.7952 22.2311C58.8622 22.0243 58.9462 21.8343 59.0521 21.6555C59.158 21.4766 59.2924 21.3146 59.4598 21.1637C59.5608 21.0687 59.6557 20.9737 59.7452 20.8843C59.8401 20.7893 59.9071 20.6942 59.9515 20.5881C59.991 20.4595 60.0465 20.3478 60.1249 20.2472C60.2029 20.1522 60.2868 20.0516 60.3708 19.9622C60.4323 19.8839 60.5162 19.8224 60.6051 19.7666C60.6946 19.7107 60.7341 19.6157 60.7226 19.4871C60.8065 19.4871 60.8735 19.4703 60.907 19.4368C60.9404 19.4033 60.9739 19.3642 60.9964 19.3251C61.0189 19.286 61.0354 19.2356 61.0524 19.1854C61.0688 19.135 61.0913 19.0903 61.1193 19.0512C61.2477 18.8948 61.3871 18.7329 61.5271 18.571C61.639 18.4368 61.7565 18.3024 61.8739 18.1738C61.8854 18.1572 61.8969 18.1406 61.9085 18.124L61.909 18.1239C61.9518 18.0626 61.9941 18.0019 62.0468 17.9447C62.0501 17.9413 62.0539 17.9395 62.0566 17.9384C62.0583 17.938 62.0594 17.9377 62.0605 17.9374C62.0621 17.9371 62.0638 17.9369 62.0654 17.9367C62.0693 17.9362 62.0726 17.9358 62.0748 17.9335C62.3036 17.632 62.5846 17.3753 62.8666 17.1175C63.0181 16.9787 63.1707 16.8396 63.315 16.6929C63.7118 16.3016 64.131 15.944 64.5613 15.5919C64.5777 15.5705 64.5948 15.548 64.6118 15.525C64.6348 15.494 64.6584 15.4619 64.6842 15.4298C64.7676 15.3348 64.8741 15.2566 64.9915 15.1783C65.1644 15.061 65.3323 15.0777 65.5052 15.2175C65.5277 15.2343 65.5557 15.2454 65.5891 15.2454C65.7066 15.2622 65.807 15.3013 65.8855 15.3628C65.9634 15.4242 66.0364 15.4969 66.0979 15.5808C66.1478 15.6478 66.2093 15.6981 66.2877 15.7372C66.3657 15.7763 66.4387 15.821 66.5056 15.8657C66.5117 15.8702 66.5171 15.8747 66.5221 15.8789C66.5363 15.8903 66.5479 15.8993 66.5561 15.8993C66.5616 15.8993 66.578 15.9161 66.5896 15.9328C66.6395 15.9831 66.6845 16.0278 66.7235 16.0837C66.7471 16.1174 66.7729 16.1491 66.7965 16.1787C66.8124 16.1982 66.8278 16.2168 66.8409 16.2346C66.8519 16.2514 66.8629 16.2737 66.8629 16.3016C66.8689 16.3296 66.8744 16.352 66.8854 16.3687C66.8909 16.3855 66.8854 16.4022 66.8744 16.4022C66.8629 16.4022 66.8629 16.419 66.8744 16.4358C66.9024 16.5196 66.9079 16.5923 66.8854 16.6537C66.8629 16.7152 66.8294 16.7712 66.7794 16.8214ZM89.9654 18.1011C89.9599 18.2129 89.9599 18.3247 89.9709 18.4364L89.9429 18.4029C89.9429 18.4308 89.9484 18.4644 89.9599 18.4364L89.9605 18.4417C89.966 18.4729 89.9704 18.4994 89.9599 18.5258C89.9484 18.5752 89.9424 18.627 89.9358 18.6797C89.9331 18.7046 89.9298 18.7299 89.9265 18.755C89.9149 18.8332 89.8924 18.9059 89.859 18.9841C89.837 19.0568 89.809 19.1238 89.7756 19.1909C89.7421 19.258 89.7531 19.3306 89.8035 19.4144C89.865 19.5039 89.865 19.5821 89.809 19.6491C89.753 19.7106 89.7026 19.7777 89.6691 19.8559C89.6279 19.934 89.5939 20.012 89.5615 20.087L89.5407 20.1354C89.5324 20.1524 89.5248 20.1694 89.5171 20.1864C89.5072 20.2078 89.4979 20.2291 89.4885 20.2503L89.488 20.2515L89.4874 20.2519V20.2526L89.4869 20.2536C89.4622 20.3083 89.438 20.3627 89.4123 20.4148C89.3952 20.4315 89.3733 20.4539 89.3618 20.4707C89.3535 20.4791 89.3453 20.4888 89.3365 20.4986C89.3327 20.5032 89.3288 20.5077 89.325 20.5121C89.3206 20.5171 89.3162 20.5221 89.3118 20.5265C89.2602 20.5992 89.2158 20.6719 89.1724 20.742C89.1593 20.7636 89.1461 20.785 89.1329 20.806C89.0824 20.901 89.021 20.996 88.954 21.0854C88.9035 21.1451 88.8569 21.2048 88.8075 21.2677L88.7751 21.309C88.7137 21.3816 88.6522 21.4543 88.5962 21.5325C88.5743 21.5492 88.5682 21.566 88.5627 21.5996C88.5573 21.6331 88.5463 21.661 88.5293 21.7002C88.5238 21.7057 88.4793 21.7281 88.3954 21.7672C88.4124 21.7825 88.4288 21.7968 88.4442 21.8103C88.4804 21.8413 88.5117 21.8685 88.5348 21.8957C88.4288 22.0075 88.3224 22.1193 88.2219 22.2255L88.1994 22.2495L88.1632 22.2881C88.1352 22.318 88.1073 22.3484 88.0793 22.3789L88.0765 22.3817C88.0238 22.439 87.9701 22.4971 87.9146 22.5552C87.8806 22.5985 87.8455 22.6408 87.8104 22.6834C87.7588 22.7453 87.7072 22.8075 87.6578 22.8738C87.6079 22.94 87.5563 23.0023 87.5052 23.0641C87.4701 23.1066 87.435 23.1491 87.401 23.1923C87.367 23.2261 87.3329 23.2586 87.3 23.2903L87.2989 23.2911C87.2665 23.3218 87.2352 23.3523 87.2051 23.3823C87.1436 23.4438 87.0712 23.4997 86.9927 23.5556C86.962 23.5807 86.9329 23.6059 86.9032 23.631C86.8741 23.6561 86.8445 23.6814 86.8143 23.7064C86.7584 23.7568 86.6914 23.807 86.6239 23.8518C86.5125 23.9356 86.3951 24.0138 86.2776 24.0809C86.1602 24.1535 86.0543 24.2373 85.9538 24.3268C85.8474 24.4218 85.7245 24.4776 85.596 24.4888C85.4621 24.5 85.3447 24.5392 85.2327 24.6062C85.1883 24.6174 85.1433 24.623 85.0818 24.6174C85.0204 24.6118 84.9649 24.595 84.909 24.5783C84.7635 24.528 84.6406 24.4776 84.5287 24.4106C84.4732 24.377 84.4057 24.3547 84.3388 24.3491C84.2663 24.3435 84.2049 24.3156 84.1489 24.2597C84.071 24.1871 83.9815 24.1088 83.8976 24.0361C83.8592 24.003 83.8196 23.9698 83.7796 23.936C83.7318 23.896 83.6835 23.8551 83.6347 23.8126C83.5288 23.7232 83.4448 23.6058 83.3669 23.4773C83.3307 23.4187 83.2928 23.3614 83.2549 23.3041C83.2171 23.2468 83.1798 23.1895 83.143 23.1308C83.0706 23.0134 83.0036 22.8905 82.9366 22.762C82.9317 22.7494 82.9262 22.7367 82.9207 22.724C82.9026 22.6805 82.884 22.6363 82.8752 22.5887C82.8637 22.5273 82.8472 22.4715 82.8302 22.4157C82.8203 22.2945 82.8055 22.1823 82.7907 22.067L82.7857 22.0299C82.7687 21.9013 82.7632 21.7728 82.7742 21.6443L82.7753 21.6333V21.6324C82.7863 21.5075 82.7978 21.3773 82.8247 21.2419L82.8296 21.2174C82.8357 21.188 82.8412 21.1589 82.8466 21.1301C82.8653 21.0303 82.884 20.9334 82.9087 20.8395C82.9087 20.8228 82.9196 20.8004 82.9366 20.7892C82.9531 20.778 82.9646 20.7668 82.9646 20.7557C82.9756 20.711 82.9756 20.6718 82.9646 20.6439C82.9531 20.616 82.9531 20.588 82.9646 20.5601C83.0371 20.2862 83.1156 20.018 83.2105 19.7665C83.2385 19.6828 83.2665 19.5988 83.2999 19.5206C83.3164 19.4815 83.3345 19.4438 83.3526 19.406C83.3707 19.3683 83.3888 19.3306 83.4059 19.2915C83.4393 19.2188 83.4673 19.1406 83.4953 19.0623C83.5178 18.9841 83.5568 18.9115 83.6012 18.8332C83.6517 18.7103 83.7022 18.5929 83.7576 18.4812C83.8136 18.3694 83.8751 18.2576 83.9365 18.1458C84.0874 17.8384 84.2493 17.5423 84.4118 17.2517C84.4381 17.2049 84.465 17.1602 84.4902 17.1175C84.5078 17.0886 84.5243 17.0607 84.5402 17.0337L84.5534 17.0113L84.566 16.99L84.5896 16.9497L84.5901 16.9492L84.5912 16.9475C84.6159 16.9055 84.6423 16.8616 84.6686 16.8157C84.6851 16.799 84.6966 16.7767 84.7076 16.7487C84.7131 16.7207 84.713 16.704 84.7021 16.6928C84.6406 16.6257 84.5737 16.5922 84.5007 16.5922C84.4688 16.5958 84.4343 16.6039 84.3992 16.6122L84.3717 16.6187C84.3646 16.6203 84.3574 16.6219 84.3498 16.6234L84.3388 16.6257C84.2828 16.6425 84.2274 16.6593 84.1769 16.6761C84.1209 16.609 84.054 16.5754 83.9925 16.5699C83.931 16.5643 83.8361 16.5866 83.7132 16.6257C83.6237 16.6593 83.5118 16.6761 83.3779 16.6761C83.3493 16.6761 83.3202 16.6688 83.2917 16.6614C83.2703 16.656 83.2484 16.6505 83.227 16.6481C83.2215 16.6537 83.2171 16.6606 83.2132 16.6677C83.2088 16.6746 83.2045 16.6816 83.199 16.6872C83.1348 16.7794 83.0695 16.873 83.0036 16.9666C82.9378 17.0603 82.8724 17.1538 82.8082 17.2461C82.7803 17.2796 82.7577 17.3243 82.7523 17.3634C82.7407 17.4025 82.7298 17.4417 82.7127 17.4808C82.7051 17.5013 82.6974 17.5214 82.6897 17.5411C82.6699 17.5913 82.6507 17.6395 82.6348 17.6876C82.6123 17.7546 82.5564 17.8105 82.4784 17.8552C82.4334 17.8832 82.4115 17.9279 82.3999 17.9894C82.389 18.0508 82.372 18.1067 82.3445 18.1514C82.322 18.2241 82.294 18.2911 82.2551 18.3526C82.2155 18.4141 82.1766 18.4756 82.1431 18.5426C82.0987 18.6097 82.0707 18.6768 82.0592 18.7438C82.0482 18.8109 82.0312 18.8779 82.0032 18.945C81.9477 19.0456 81.9362 19.1574 81.9697 19.2747C82.0032 19.3865 81.9867 19.5038 81.9082 19.6156C81.8748 19.6715 81.8638 19.7497 81.8918 19.8392C81.9143 19.9342 81.9252 20.0292 81.9252 20.1186V20.208V20.3142C81.9757 20.3869 82.0202 20.4651 82.0646 20.5433C82.0965 20.6113 82.1354 20.6755 82.176 20.742C82.1854 20.7575 82.1952 20.7734 82.2046 20.7892C82.0312 20.901 81.8528 20.901 81.6624 20.7892C81.2382 20.5489 80.9309 20.2527 80.741 19.9006C80.5506 19.5485 80.4391 19.1685 80.3996 18.7606C80.3552 18.0955 80.4501 17.4529 80.7015 16.8157C80.741 16.7431 80.7684 16.6649 80.7854 16.581C80.8024 16.4972 80.8189 16.4134 80.8469 16.3296L80.7964 16.2904L80.7882 16.2968C80.7673 16.3125 80.7421 16.3317 80.713 16.3463C80.6735 16.3631 80.6455 16.3854 80.629 16.4022C80.5226 16.514 80.4221 16.6257 80.3272 16.7375C80.2323 16.8549 80.1318 16.9722 80.0254 17.0896C79.9809 17.1511 79.9359 17.2237 79.9024 17.2908C79.881 17.3282 79.8591 17.3673 79.836 17.4082C79.8179 17.4406 79.7993 17.4741 79.7795 17.5087C79.7515 17.5591 79.7241 17.5981 79.6901 17.6373C79.678 17.6519 79.6654 17.6674 79.6522 17.6833L79.6451 17.6925L79.6281 17.7134L79.6127 17.7319C79.6034 17.7431 79.594 17.7545 79.5842 17.7658C79.5002 17.8888 79.4107 18.0061 79.3213 18.1235C79.2324 18.2409 79.1484 18.3638 79.0754 18.4923C78.8801 18.7941 78.6902 19.0959 78.5058 19.3977C78.3285 19.6967 78.1458 20.0012 77.9631 20.3058L77.9625 20.3069L77.9581 20.3142C77.8072 20.588 77.6623 20.8619 77.5279 21.1413C77.394 21.4201 77.2606 21.6933 77.1267 21.9665L77.1256 21.9684C77.0082 22.1975 76.9023 22.4211 76.8073 22.6502C76.7124 22.8849 76.6059 23.1085 76.489 23.332C76.4385 23.4494 76.3716 23.55 76.3046 23.6506C76.2317 23.7512 76.1757 23.8518 76.1312 23.9523C76.0807 24.0809 76.0138 24.1815 75.9298 24.2709C75.8519 24.3547 75.774 24.4552 75.6955 24.5557C75.5671 24.7737 75.3712 24.8074 75.1034 24.6565C75.0359 24.6174 74.9634 24.5894 74.8965 24.5727C74.824 24.5503 74.7626 24.5112 74.7011 24.433C74.5612 24.2765 74.4492 24.1088 74.3713 23.93C74.2928 23.7512 74.2313 23.5667 74.1924 23.3823C74.1084 22.8961 74.0974 22.4155 74.1589 21.9405C74.1979 21.6219 74.2593 21.3145 74.3263 21.0072C74.2374 21.0854 74.1479 21.1637 74.047 21.2419C73.9893 21.2852 73.9339 21.3308 73.8796 21.3758L73.8346 21.4125L73.8126 21.4307L73.8022 21.4392L73.7901 21.4486L73.6617 21.566L73.3654 21.8622C73.3418 21.8861 73.3182 21.91 73.2946 21.9338C73.2249 22.0046 73.1557 22.0747 73.0806 22.1416L73.0712 22.1489C73.0531 22.1629 73.0372 22.1752 73.0136 22.1752C72.9856 22.1752 72.9631 22.192 72.9466 22.2087L72.9423 22.213L72.9373 22.218C72.9324 22.224 72.9269 22.2303 72.9214 22.2367C72.9132 22.2465 72.9044 22.2562 72.8962 22.2646C72.8791 22.2814 72.8457 22.3205 72.8457 22.3205L72.7118 22.449C72.7118 22.4378 72.6948 22.449 72.6673 22.477C72.5943 22.6279 72.4939 22.7452 72.36 22.8346C72.231 22.924 72.1026 23.0246 71.9852 23.1364C71.8683 23.2426 71.7454 23.3488 71.6164 23.4549C71.488 23.5667 71.3596 23.6729 71.2312 23.7735C71.2235 23.7775 71.2158 23.7807 71.2092 23.7838C71.1971 23.7894 71.1862 23.7942 71.1752 23.8014C71.167 23.807 71.1571 23.8113 71.1472 23.8154C71.1434 23.8171 71.1395 23.8188 71.1357 23.8206C71.1296 23.8233 71.1241 23.8261 71.1192 23.8294C71.0599 23.8543 70.9913 23.8924 70.9057 23.9399L70.9052 23.9402L70.8734 23.9579C70.7729 24.0138 70.6725 24.0753 70.566 24.1423C70.4601 24.2094 70.3597 24.2709 70.2587 24.3324C70.1583 24.3938 70.0804 24.4386 70.0299 24.4665C69.924 24.5447 69.8065 24.595 69.6836 24.6342C69.5552 24.6733 69.4262 24.7012 69.2923 24.718C69.1584 24.7347 69.0185 24.7459 68.8846 24.7459C68.7507 24.7459 68.6162 24.7012 68.4933 24.6174C68.4038 24.5615 68.3369 24.5671 68.2924 24.6453C68.2645 24.7124 68.2195 24.7459 68.1635 24.7459C68.108 24.7459 68.0406 24.7459 67.9791 24.7347C67.9121 24.7347 67.8562 24.7235 67.8062 24.7012C67.7557 24.6733 67.7223 24.6286 67.7058 24.5503C67.6992 24.5503 67.6943 24.5522 67.6904 24.5538C67.6877 24.555 67.6855 24.5559 67.6833 24.5559C67.6778 24.5615 67.6723 24.5615 67.6608 24.5615V24.623V24.7124C67.6531 24.7052 67.6449 24.6982 67.6372 24.6914L67.6235 24.6792L67.6229 24.6788L67.6224 24.6782L67.6218 24.6781C67.5818 24.6431 67.5466 24.6123 67.5214 24.5783C67.4879 24.5336 67.4429 24.4888 67.3985 24.4442C67.3985 24.433 67.3924 24.4274 67.3815 24.4162C67.3815 24.405 67.365 24.3882 67.365 24.3882V24.377L67.309 24.2933C67.2421 24.1256 67.1466 23.9971 67.0352 23.902C66.9847 23.8741 66.9512 23.835 66.9348 23.7958C66.9315 23.7896 66.9282 23.7834 66.9254 23.7771L66.9188 23.7633L66.9134 23.7512C66.8996 23.7214 66.8859 23.6915 66.8673 23.6617C66.8481 23.6394 66.8283 23.6157 66.8091 23.5919C66.7893 23.5681 66.7696 23.5444 66.7504 23.522C66.7054 23.4773 66.6664 23.427 66.6329 23.3823C66.594 23.3376 66.566 23.2929 66.549 23.2426C66.5325 23.1923 66.51 23.142 66.482 23.0861C66.426 22.952 66.3816 22.829 66.3421 22.7005C66.3031 22.5719 66.2866 22.4434 66.2976 22.3149C66.2993 22.2901 66.3004 22.2653 66.3015 22.2407L66.302 22.2269C66.3042 22.1673 66.307 22.1085 66.3141 22.0523C66.3256 21.974 66.3311 21.879 66.3311 21.7895C66.3421 21.784 66.3421 21.7672 66.3421 21.7505C66.3201 21.5884 66.3311 21.4431 66.3816 21.309C66.4315 21.1749 66.482 21.0407 66.521 20.9122C66.5265 20.8842 66.5599 20.8619 66.6104 20.8451C66.5045 20.7389 66.5265 20.6551 66.6829 20.6104C66.69 20.607 66.6906 20.6037 66.6911 20.6003L66.6917 20.5985V20.5974C66.6922 20.5961 66.6933 20.5949 66.6944 20.5936C66.6889 20.5321 66.6999 20.4763 66.7169 20.4204C66.7169 20.4092 66.7224 20.3924 66.7279 20.3813C66.7559 20.3142 66.7893 20.2471 66.8338 20.1801C66.8618 20.1427 66.8821 20.1014 66.9013 20.0628L66.9123 20.0404C66.9106 20.039 66.9095 20.0376 66.909 20.0363L66.9079 20.0345L66.9068 20.032L66.9062 20.0317C66.9051 20.029 66.9035 20.0263 66.9013 20.0236C66.8898 20.0124 66.9013 19.9844 66.9348 19.9454C66.9512 19.9286 66.9627 19.9174 66.9792 19.9062C66.9847 19.9062 66.9847 19.8951 66.9847 19.8951C66.9792 19.7497 67.0017 19.61 67.1411 19.5206C67.1746 19.4983 67.2026 19.4927 67.236 19.4927C67.236 19.4887 67.2377 19.4854 67.2388 19.4824C67.2415 19.4768 67.2437 19.4719 67.236 19.4648C67.2865 19.4144 67.3255 19.3697 67.359 19.3306C67.393 19.286 67.4265 19.2412 67.4654 19.1965C67.4819 19.1629 67.5044 19.1238 67.5269 19.0847C67.5494 19.0456 67.5713 19.0009 67.5884 18.9562C67.5993 18.9562 67.6048 18.9562 67.6109 18.9506C67.6163 18.945 67.6218 18.945 67.6328 18.945C67.6498 18.9394 67.6608 18.9338 67.6723 18.9282C67.7113 18.8611 67.7448 18.7885 67.7673 18.6991L67.7738 18.6775C67.7931 18.6153 67.8084 18.5642 67.8287 18.5091L67.8172 18.4979C67.8287 18.4867 67.8452 18.47 67.8562 18.4532C67.8605 18.4446 67.8644 18.436 67.8677 18.4271L67.8682 18.4266L67.8704 18.4203L67.8743 18.4109L67.8781 18.4033L67.882 18.3953L67.8852 18.389C67.8869 18.3862 67.888 18.3834 67.8902 18.3805C67.9017 18.3649 67.916 18.3575 67.9297 18.3506C67.9352 18.3477 67.9407 18.3448 67.9456 18.3415C67.9912 18.2821 68.0389 18.2228 68.0883 18.1608C68.1185 18.1234 68.1492 18.0851 68.1805 18.0452C68.175 18.0005 68.1975 17.9558 68.2529 17.9279C68.3144 17.8944 68.3649 17.8664 68.4154 17.8329C68.4291 17.8077 68.4434 17.7854 68.4571 17.763C68.4708 17.7406 68.4851 17.7183 68.4988 17.6932V17.6596C68.4823 17.6037 68.5103 17.5423 68.5882 17.464C68.6667 17.3913 68.7446 17.3411 68.8286 17.3243C68.8286 17.3187 68.8313 17.3131 68.8341 17.3075C68.8368 17.302 68.8396 17.2964 68.8396 17.2908C68.844 17.2747 68.8538 17.2673 68.8632 17.2602C68.8665 17.2575 68.8703 17.2548 68.873 17.2517C68.8676 17.207 68.8736 17.1678 68.9126 17.1399C68.9685 17.1008 69.0075 17.056 69.0355 17.0114C69.1079 16.8996 69.1919 16.799 69.2923 16.704C69.3927 16.609 69.4877 16.5084 69.5832 16.4078C69.6781 16.2904 69.784 16.1898 69.896 16.0893C70.0074 15.9887 70.1023 15.8769 70.1753 15.7595C70.2702 15.6198 70.3762 15.4968 70.4936 15.3907C70.611 15.2789 70.734 15.1783 70.8734 15.0721C70.8783 15.0685 70.8832 15.0646 70.8882 15.0607C70.9063 15.0463 70.9255 15.0306 70.9518 15.0218C70.9699 15.0146 70.9881 15.0049 71.0078 14.9945C71.0188 14.9889 71.0298 14.9829 71.0413 14.9771C71.0802 14.9604 71.1362 14.966 71.1362 14.966L71.5774 15.1336C71.5829 15.1336 71.589 15.135 71.5945 15.1364C71.5999 15.1378 71.6054 15.1392 71.6109 15.1392C71.6224 15.1448 71.6334 15.1447 71.6444 15.1447C71.7004 15.1615 71.7563 15.1783 71.7953 15.2007C71.8348 15.223 71.8793 15.2565 71.9127 15.3013C71.9462 15.3404 71.9852 15.3739 72.0302 15.4019C72.0746 15.4298 72.1196 15.4521 72.1641 15.4689C72.287 15.536 72.3765 15.6086 72.4379 15.6924C72.4994 15.7763 72.5609 15.8713 72.6223 15.9719C72.6223 15.9831 72.6278 15.9887 72.6393 15.9998C72.6673 16.0557 72.6838 16.1172 72.6948 16.1842C72.7063 16.2513 72.7288 16.3128 72.7677 16.3798C72.8292 16.486 72.8792 16.5866 72.9132 16.6761C72.9466 16.7711 72.9966 16.8661 73.0581 16.9555C73.1195 17.056 73.1365 17.1622 73.1031 17.2628C73.0696 17.3634 73.0806 17.4696 73.131 17.5702C73.131 17.5758 73.131 17.5926 73.1195 17.6037C73.1085 17.6205 73.1031 17.6373 73.0915 17.6541C73.1925 17.7099 73.226 17.7658 73.1865 17.8161C73.1475 17.8664 73.1195 17.9223 73.1031 17.9782C73.0976 18.0341 73.0915 18.0899 73.086 18.1402C73.0806 18.1905 73.0696 18.2464 73.0526 18.3023C73.0361 18.3526 73.0246 18.3973 73.0246 18.4364C73.0246 18.4756 72.9966 18.5147 72.9466 18.5538C72.9241 18.5706 72.9187 18.5929 72.9187 18.6153C72.9187 18.6376 72.9187 18.66 72.9071 18.6768C72.8627 18.7662 72.8122 18.8556 72.7562 18.9394C72.6783 19.0847 72.5888 19.2188 72.4939 19.3306L72.3265 19.5821L72.1586 19.8168C72.1081 19.895 72.0637 19.9565 72.0077 20.0124C71.9517 20.0683 71.9018 20.1298 71.8568 20.208C71.8178 20.2583 71.7898 20.3142 71.7618 20.3924C71.7454 20.4371 71.7229 20.4651 71.6894 20.4763C71.589 20.5265 71.5105 20.588 71.46 20.6663C71.4101 20.7445 71.3486 20.8172 71.2817 20.8954C71.2449 20.932 71.2021 20.9628 71.156 20.9962C71.1384 21.0086 71.1209 21.0215 71.1027 21.0351C71.0358 21.0854 70.9743 21.1301 70.9129 21.1748C70.8624 21.2083 70.8179 21.2475 70.7729 21.2866C70.7482 21.305 70.7241 21.3251 70.6983 21.346C70.6774 21.3631 70.656 21.3808 70.6335 21.3984C70.5776 21.4486 70.5161 21.4878 70.4491 21.5269C70.3816 21.566 70.3147 21.6108 70.2477 21.6554C70.2313 21.6554 70.2143 21.6554 70.2033 21.6666C70.0688 21.7728 69.9124 21.8455 69.7505 21.8846L69.7495 21.8849C69.5821 21.9295 69.4147 21.9741 69.2534 22.0187C69.1919 22.0355 69.1469 22.0467 69.1134 22.0467H69.097C68.9625 22.0746 68.7781 22.0914 68.5493 22.1025C68.3204 22.1137 68.136 22.1025 67.9961 22.0746L67.9791 22.0634L67.8902 22.1025C67.9176 22.1975 67.8787 22.2702 67.7673 22.3261C67.7502 22.3316 67.7338 22.3484 67.7338 22.3652C67.7338 22.382 67.7277 22.4043 67.7168 22.4211C67.6998 22.4378 67.6833 22.4602 67.6833 22.4714C67.6833 22.4881 67.6663 22.5049 67.6498 22.5217C67.5993 22.5664 67.5938 22.5999 67.6328 22.6111C67.6663 22.6279 67.6998 22.6446 67.7223 22.6614C67.7058 22.7117 67.6943 22.7508 67.6888 22.8011C67.6833 22.8514 67.6778 22.8961 67.6723 22.9408C67.6553 22.9744 67.6328 22.9967 67.6163 23.0079C67.5269 23.0973 67.5269 23.1923 67.6109 23.3041C67.6498 23.3543 67.6498 23.4047 67.6109 23.4605C67.5713 23.5276 67.5884 23.5835 67.6553 23.6282C67.6888 23.6338 67.7168 23.6729 67.7448 23.74L67.8007 23.8238C67.8172 23.8741 67.8287 23.9243 67.8397 23.9746C67.8452 24.0305 67.8732 24.0809 67.9066 24.1256C67.9791 24.215 68.0746 24.2653 68.1915 24.2821C68.4038 24.31 68.6442 24.2933 68.901 24.2318C69.1584 24.1703 69.3708 24.0865 69.5437 23.9859C69.6007 23.9539 69.6666 23.9129 69.7396 23.8673C69.7818 23.8411 69.8263 23.8132 69.8735 23.7847C69.9316 23.7491 69.9915 23.7112 70.0524 23.6726C70.1248 23.6263 70.1995 23.5789 70.2757 23.5332C70.4157 23.4494 70.5496 23.3599 70.6725 23.2705C70.8009 23.1811 70.9068 23.1085 70.9963 23.0526C71.2141 22.8905 71.4265 22.7285 71.6334 22.5608L72.2535 22.0578C72.4324 21.9125 72.5998 21.7616 72.7677 21.6108C72.9351 21.4598 73.1031 21.3034 73.2649 21.1469C73.372 21.0635 73.4768 20.9743 73.5783 20.8876L73.5788 20.8871L73.5794 20.8869L73.6057 20.8641C73.6376 20.8369 73.6694 20.81 73.7007 20.7836C73.8461 20.6607 73.9855 20.5321 74.1199 20.4036L74.1254 20.3988C74.1622 20.3674 74.194 20.3403 74.2204 20.303C74.2484 20.2695 74.2763 20.2304 74.3043 20.1912C74.3153 20.1745 74.3433 20.1466 74.3433 20.1466C74.3877 20.0906 74.4327 20.0348 74.4887 19.99C74.5612 19.8895 74.6391 19.7946 74.7176 19.6996L74.7346 19.6486C74.7571 19.5803 74.7801 19.5093 74.807 19.4424L74.8207 19.4053L74.8537 19.3168C74.9107 19.1616 74.9689 19.0038 75.0304 18.85C75.1143 18.6376 75.1983 18.4308 75.2877 18.2241L75.3234 18.1378C75.3964 17.9626 75.4727 17.7804 75.5446 17.5981C75.589 17.5087 75.634 17.4193 75.673 17.3355C75.712 17.2572 75.7454 17.1622 75.7679 17.0728C75.8069 16.9052 75.8744 16.7487 75.9693 16.6034C76.0643 16.4581 76.1422 16.3072 76.2037 16.1507C76.2596 15.9887 76.3266 15.8266 76.4106 15.6701C76.4945 15.5192 76.5724 15.3571 76.6394 15.2007C76.7009 14.9939 76.8578 14.8654 77.1091 14.8094C77.1371 14.8654 77.1706 14.9045 77.2096 14.9212C77.2485 14.9436 77.282 14.9492 77.3215 14.9436C77.3605 14.9436 77.4049 14.938 77.4499 14.9324C77.4944 14.9268 77.5334 14.9268 77.5674 14.938L77.5784 15.0665C77.6958 15.0274 77.7852 15.033 77.8577 15.0721C77.9301 15.1168 78.0086 15.1671 78.0865 15.2342C78.176 15.3069 78.2654 15.3795 78.3659 15.4577C78.4668 15.5304 78.5448 15.6254 78.6062 15.7372L78.6123 15.7456C78.6227 15.7612 78.6359 15.7807 78.6457 15.8042L78.649 15.8128L78.6523 15.821C78.6606 15.8413 78.6677 15.858 78.6677 15.8713C78.6397 16.0054 78.6177 16.1507 78.6117 16.3016C78.6062 16.4525 78.5448 16.5922 78.4273 16.7096C78.368 16.7766 78.3137 16.8435 78.2588 16.9105C78.2314 16.944 78.204 16.9778 78.176 17.0114C78.0926 17.112 78.0311 17.2293 77.9916 17.3579C77.9806 17.4025 77.9581 17.4417 77.9137 17.4696C77.8687 17.4975 77.8407 17.5367 77.8242 17.5814C77.7737 17.682 77.7177 17.7938 77.6733 17.9111C77.6288 18.0285 77.5784 18.1402 77.5224 18.2409C77.5185 18.2476 77.5141 18.2544 77.5103 18.2612L77.4955 18.2876C77.4724 18.3276 77.4499 18.3667 77.422 18.4029C77.383 18.4532 77.3435 18.4979 77.2935 18.537C77.1536 18.6208 77.0532 18.727 76.9972 18.8444C76.9357 18.9673 76.8852 19.0959 76.8463 19.2244C76.8183 19.3026 76.7848 19.3865 76.7459 19.4536C76.7009 19.5262 76.6229 19.5709 76.511 19.5877C76.584 19.6883 76.6004 19.7833 76.567 19.8727C76.5335 19.9621 76.483 20.0404 76.416 20.1186C76.3826 20.1689 76.3436 20.2192 76.3046 20.2695C76.2651 20.3198 76.2651 20.3869 76.2931 20.4707C76.3101 20.5042 76.2931 20.5433 76.2487 20.588C76.2037 20.6327 76.1757 20.6774 76.1592 20.7222C76.1268 20.7836 76.0928 20.8431 76.0577 20.9041C76.0319 20.9485 76.0061 20.9936 75.9803 21.0407C75.9188 21.1525 75.8744 21.2587 75.8519 21.3592C75.8409 21.4598 75.8129 21.5604 75.7624 21.661C75.718 21.7616 75.7235 21.8678 75.7849 21.9796C75.8069 22.0075 75.8014 22.0411 75.7624 22.0913C75.7235 22.1416 75.6955 22.1864 75.6785 22.231C75.6505 22.287 75.634 22.3484 75.617 22.4155L75.6099 22.4443C75.5956 22.5032 75.5797 22.5672 75.5555 22.639C75.5835 22.6222 75.6115 22.6055 75.6395 22.5999C75.6675 22.5943 75.7065 22.5608 75.7065 22.5608L76.6789 20.711C76.7903 20.5154 76.9023 20.3198 77.0082 20.1242C77.1201 19.9286 77.2376 19.733 77.355 19.5374C77.4384 19.3977 77.5279 19.258 77.6173 19.1182C77.7123 18.9841 77.8072 18.8388 77.8967 18.6879C77.9137 18.6607 77.9312 18.6328 77.9488 18.6041L77.9493 18.6038C77.979 18.5558 78.0108 18.5056 78.0421 18.4532C78.0926 18.375 78.148 18.2967 78.204 18.2185C78.2155 18.1793 78.2429 18.1458 78.2709 18.1179C78.277 18.1179 78.277 18.1123 78.277 18.1123C78.3044 18.0396 78.3604 17.9894 78.4388 17.9502C79.0085 17.0672 79.7016 16.2681 80.5116 15.5583C80.5132 15.5597 80.5149 15.5611 80.5165 15.5624C80.5187 15.5639 80.5209 15.5653 80.5226 15.5667C80.5269 15.5695 80.5313 15.5723 80.5341 15.5751C80.601 15.508 80.6625 15.4466 80.7349 15.4019L80.7465 15.3907C80.752 15.3795 80.7574 15.3739 80.7684 15.3627C80.9193 15.2509 81.0702 15.1392 81.2102 15.033C81.3496 14.9212 81.4895 14.8039 81.6289 14.6866C81.6684 14.6586 81.6904 14.6251 81.7074 14.5747C81.7238 14.5245 81.7409 14.4853 81.7688 14.4462C81.8078 14.4015 81.8468 14.3624 81.8863 14.3288C81.9165 14.303 81.9499 14.2771 81.9867 14.2487L82.0202 14.2227C82.0372 14.2171 82.0646 14.2115 82.0871 14.2115C82.1096 14.2115 82.1261 14.2115 82.1261 14.2227C82.1766 14.3065 82.2381 14.3344 82.3105 14.3121C82.3835 14.2898 82.4449 14.2898 82.5009 14.3065C82.5734 14.3344 82.6458 14.3624 82.7127 14.3959C82.7533 14.4179 82.7984 14.4399 82.8466 14.4634L82.8713 14.4755C82.8889 14.4841 82.907 14.493 82.9251 14.5021C82.9701 14.5189 83.0146 14.5412 83.0541 14.5691C83.0782 14.5903 83.1073 14.6092 83.1397 14.6301C83.1583 14.6423 83.1787 14.6553 83.199 14.6697C83.2105 14.748 83.2884 14.8262 83.4448 14.9045C83.5008 14.9212 83.5398 14.9604 83.5677 15.0218C83.5957 15.0833 83.6237 15.1392 83.6627 15.1951C83.6704 15.2118 83.6786 15.2286 83.6863 15.2453C83.7027 15.2789 83.7187 15.3124 83.7296 15.346C83.7521 15.3963 83.7576 15.4521 83.7412 15.5192C83.7242 15.5918 83.7241 15.6701 83.7241 15.7484C83.7241 15.8266 83.7241 15.8992 83.7077 15.9775C83.7022 16.011 83.6852 16.0501 83.6627 16.0893C83.6407 16.1228 83.6182 16.1619 83.6012 16.201C83.5063 16.3296 83.4168 16.4581 83.3274 16.5866C83.3395 16.5818 83.3537 16.5801 83.3674 16.5784C83.3861 16.5761 83.4042 16.5739 83.4168 16.5643C83.4673 16.5252 83.5233 16.4748 83.5677 16.3966C83.5848 16.3798 83.6012 16.3687 83.6182 16.3575C83.6292 16.3519 83.6517 16.3352 83.6682 16.3184C83.7642 16.2848 83.8575 16.2524 83.9486 16.2206L83.9502 16.2201L83.9519 16.2195C84.0567 16.183 84.1593 16.1473 84.2609 16.1116C84.3756 16.0697 84.4952 16.03 84.6165 15.9899L84.617 15.9896C84.6895 15.9655 84.763 15.9411 84.836 15.916C84.8985 15.8942 84.9605 15.8759 85.0209 15.8581C85.0692 15.844 85.1159 15.8302 85.1603 15.8154C85.2048 15.8006 85.2514 15.7868 85.2991 15.7728L85.2997 15.7727C85.3601 15.7549 85.4221 15.7366 85.4841 15.7148L85.4846 15.7147C85.5346 15.6868 85.5851 15.6589 85.6405 15.6254C85.6965 15.5918 85.702 15.536 85.652 15.4521C85.8029 15.3795 85.9204 15.2733 86.0038 15.1447C86.0877 15.0106 86.1827 14.8989 86.2892 14.7927C86.3671 14.72 86.4395 14.6418 86.507 14.5691C86.574 14.4965 86.6464 14.4239 86.7249 14.3456C86.7748 14.3065 86.8308 14.3009 86.8977 14.3177C86.9647 14.34 87.0152 14.3735 87.0487 14.4183C87.0657 14.435 87.1046 14.4574 87.1831 14.4741C87.2385 14.4853 87.3 14.4965 87.3615 14.4965C87.4284 14.5021 87.4844 14.5077 87.5404 14.5189C87.5404 14.5245 87.5294 14.5412 87.5124 14.558C87.5574 14.5859 87.6188 14.6307 87.6858 14.6865C87.7527 14.7368 87.8197 14.7759 87.8927 14.815C87.9596 14.8542 88.0156 14.9212 88.0431 15.0106C88.0491 15.0274 88.0601 15.0498 88.0826 15.0665C88.172 15.1168 88.211 15.1559 88.2055 15.2063C88.1994 15.2565 88.1885 15.3069 88.172 15.3627C88.1424 15.4127 88.1199 15.4596 88.0963 15.508L88.0957 15.5081C88.0881 15.5245 88.0798 15.5414 88.071 15.5583C88.0431 15.6198 88.0211 15.6869 88.0041 15.7651C87.9876 15.7986 88.0096 15.8378 88.0765 15.8769C88.222 15.9495 88.3619 16.0278 88.5013 16.1116C88.6412 16.1898 88.7867 16.268 88.9431 16.3463C89.0545 16.4078 89.1494 16.4693 89.2163 16.5475C89.252 16.5858 89.2877 16.6229 89.3228 16.6592C89.359 16.697 89.3947 16.734 89.4287 16.7711C89.4512 16.7878 89.4682 16.8102 89.4682 16.8381C89.4721 16.8608 89.4781 16.8809 89.4852 16.9036C89.4885 16.9146 89.4924 16.926 89.4962 16.9387C89.5517 16.9219 89.5796 16.9275 89.5966 16.9666C89.6076 17.0002 89.6246 17.0507 89.6411 17.1064C89.6861 17.2182 89.736 17.3299 89.792 17.4361C89.848 17.5423 89.8924 17.654 89.9265 17.7658C89.9599 17.8776 89.9709 17.9894 89.9654 18.1011ZM68.3539 21.2643L68.3259 21.2922L68.3144 21.2699L68.1415 21.5269C68.231 21.5269 68.3144 21.5381 68.4154 21.5548C68.5103 21.5772 68.5998 21.5716 68.6832 21.5437C68.7337 21.5269 68.7841 21.5102 68.8231 21.5046C68.8621 21.499 68.9126 21.4822 68.9625 21.4654C69.0026 21.4582 69.0355 21.4533 69.0629 21.4492C69.0777 21.447 69.0904 21.445 69.1024 21.4431C69.1304 21.4431 69.1694 21.4263 69.2084 21.4096C69.2418 21.3928 69.2698 21.3816 69.3093 21.3704C69.3428 21.3648 69.3818 21.3481 69.4207 21.3313C69.4432 21.3313 69.4822 21.3034 69.4822 21.3034L69.9295 21.0072C69.9799 20.9792 70.0299 20.9513 70.0804 20.929C70.1303 20.9066 70.1808 20.8786 70.2313 20.8395C70.3707 20.7445 70.4936 20.6439 70.6055 20.5377C70.7224 20.4315 70.8179 20.3086 70.9013 20.1801L70.9628 20.1242C70.9842 20.0989 71.0062 20.0736 71.0287 20.0482C71.0704 20.0004 71.1126 19.9516 71.1527 19.9006C71.2141 19.828 71.2756 19.7553 71.3316 19.6771C71.3596 19.6433 71.3865 19.6095 71.4139 19.5759C71.4627 19.5153 71.5105 19.4551 71.561 19.3977L71.5807 19.3731L71.5994 19.3504L71.6175 19.3277L71.6427 19.2965L71.6433 19.2958C71.6916 19.2354 71.7399 19.1756 71.7898 19.1182C71.8123 19.1015 71.8178 19.0791 71.8178 19.0512L71.8195 19.047L71.8216 19.04C71.8277 19.0248 71.8348 19.0062 71.8348 18.9841C71.8348 18.9562 71.8513 18.9338 71.8683 18.9171C72.0077 18.6935 72.1251 18.4644 72.2201 18.2297C72.315 17.995 72.371 17.749 72.388 17.4752C72.399 17.3802 72.399 17.2852 72.388 17.1958C72.377 17.1345 72.371 17.0732 72.3649 17.0135C72.3616 16.9806 72.3584 16.9481 72.354 16.9163L72.3523 16.9108C72.3474 16.8947 72.3408 16.8742 72.3205 16.8493C72.2985 16.8213 72.2815 16.8102 72.259 16.8102C72.2036 16.8102 72.1586 16.8269 72.1196 16.8661C72.1059 16.8841 72.0779 16.9093 72.0357 16.9476L72.0022 16.9778C71.9495 17.0356 71.9073 17.0637 71.8881 17.0762L71.8848 17.0784C71.8458 17.1176 71.8068 17.1511 71.7734 17.179C71.7393 17.207 71.7004 17.2349 71.6614 17.2628C71.6054 17.302 71.544 17.3467 71.4995 17.3914C71.449 17.4417 71.3876 17.4808 71.3206 17.5199C71.2421 17.5702 71.1697 17.6317 71.1137 17.7043C71.0577 17.777 70.9963 17.844 70.9293 17.9111C70.9013 17.939 70.8624 17.967 70.8234 17.9894C70.7899 18.0117 70.7449 18.0341 70.706 18.0508C70.667 18.0899 70.6445 18.1179 70.6335 18.1347C70.5831 18.2017 70.5496 18.2632 70.5161 18.3303C70.4826 18.3973 70.4431 18.4588 70.3987 18.5258C70.3542 18.5929 70.3037 18.6544 70.2368 18.7159C70.2209 18.7302 70.206 18.7441 70.1912 18.7579L70.1676 18.7805L70.1446 18.8025C70.1138 18.8318 70.0837 18.8605 70.0524 18.8891C69.986 18.9556 69.9273 19.0343 69.8702 19.1113L69.84 19.1518C69.773 19.2468 69.6721 19.3082 69.5382 19.3474C69.5437 19.3809 69.5491 19.4032 69.5552 19.4256C69.5662 19.448 69.5662 19.4703 69.5552 19.4871C69.4877 19.5709 69.4262 19.6547 69.3708 19.7441C69.3148 19.828 69.2534 19.9174 69.1864 20.0012C69.1793 20.008 69.1705 20.0127 69.1612 20.0179C69.1546 20.0212 69.148 20.0248 69.1414 20.0292C69.1249 20.0404 69.1079 20.0404 69.097 20.0292C69.041 20.018 69.013 20.0292 69.002 20.0515C69.0004 20.0583 68.9982 20.0656 68.9954 20.0735C68.9899 20.0918 68.9834 20.1137 68.9795 20.141C68.985 20.1689 68.9795 20.2136 68.9625 20.2695C68.9532 20.2864 68.9455 20.3022 68.9384 20.3175C68.9285 20.3376 68.9197 20.3566 68.9071 20.3757C68.8846 20.4092 68.8676 20.4427 68.8511 20.4819L68.7781 20.5489C68.7682 20.5659 68.754 20.5808 68.7381 20.5973L68.7249 20.6111L68.7167 20.6202L68.709 20.6289L68.7057 20.6327C68.6777 20.6663 68.6552 20.6942 68.6387 20.7333C68.5937 20.8284 68.5548 20.9234 68.5268 21.0128C68.4988 21.1077 68.4434 21.186 68.3539 21.2643ZM80.1318 16.0668C80.1362 16.0625 80.1412 16.0581 80.1461 16.0544C80.1532 16.0486 80.1598 16.0445 80.1598 16.0445C80.162 16.0419 80.1648 16.0379 80.167 16.0346C80.1692 16.0309 80.1708 16.0278 80.1708 16.0278L80.1318 16.0668ZM84.2104 16.1787H84.2438C84.2493 16.1787 84.2554 16.1731 84.2554 16.1675C84.2466 16.1675 84.24 16.1703 84.2329 16.1731C84.2257 16.1759 84.2186 16.1787 84.2104 16.1787ZM88.9195 19.2396C88.9348 19.1778 88.9507 19.1127 88.9765 19.0568L88.993 19.0456C89.0144 18.8739 89.0127 18.7089 89.0111 18.5149C89.0106 18.4564 89.01 18.395 89.01 18.3303C89.0062 18.2669 88.9974 18.2085 88.9886 18.1501C88.9842 18.121 88.9798 18.0918 88.9765 18.062H88.965C88.9595 18.0285 88.9595 17.9894 88.9595 17.9558C88.9096 17.5646 88.8311 17.1958 88.6857 16.799C88.6577 16.7375 88.6132 16.6705 88.5463 16.609C88.4903 16.5531 88.4118 16.4972 88.3169 16.4525C88.2274 16.4078 88.1215 16.3687 88.0156 16.3352C87.9037 16.3016 87.7972 16.2848 87.6968 16.2792C87.5963 16.2736 87.5124 16.2848 87.4399 16.3128C87.412 16.324 87.3949 16.3407 87.384 16.3687C87.3 16.4748 87.2105 16.5754 87.1271 16.6649C87.0377 16.7598 86.9592 16.8603 86.8813 16.9609C86.8215 17.0345 86.7644 17.1125 86.7079 17.1893C86.6739 17.2351 86.6409 17.2805 86.6074 17.3243C86.574 17.3681 86.5405 17.4135 86.507 17.4592L86.5065 17.4595C86.4505 17.5363 86.3929 17.6141 86.3336 17.6876C86.2831 17.7323 86.2441 17.7826 86.2107 17.8329C86.1772 17.8888 86.1437 17.939 86.1048 17.9838C86.0598 18.0676 86.0093 18.1514 85.9593 18.2297C85.9034 18.3135 85.8589 18.3917 85.8139 18.4756C85.7974 18.5038 85.7804 18.5319 85.764 18.5596C85.7085 18.6525 85.6548 18.7429 85.607 18.8332C85.5697 18.8986 85.5324 18.9657 85.4945 19.0345L85.494 19.0347V19.0352C85.4632 19.0898 85.4325 19.1454 85.4007 19.202C85.3765 19.2361 85.3551 19.27 85.3343 19.3028L85.3337 19.303L85.3332 19.3038L85.3178 19.3279C85.3101 19.3402 85.3024 19.3523 85.2942 19.3642C85.2607 19.4144 85.2327 19.4703 85.2048 19.5262C85.1559 19.6206 85.1148 19.7149 85.0736 19.8075C85.0544 19.852 85.0346 19.8963 85.0149 19.9398C84.9896 19.9945 84.9655 20.0494 84.9419 20.1038L84.9413 20.1041V20.1047L84.9408 20.1053V20.1059L84.9402 20.1065C84.9062 20.1844 84.8722 20.2614 84.836 20.3365C84.786 20.4315 84.7526 20.5265 84.7246 20.616C84.6966 20.711 84.6631 20.8116 84.6181 20.9122C84.5901 20.9625 84.5737 21.0128 84.5737 21.0798C84.5682 21.1413 84.5067 21.1637 84.3893 21.1469C84.3783 21.2587 84.3838 21.3704 84.4118 21.4822C84.4337 21.594 84.3783 21.6834 84.2384 21.7616V21.8007L84.2378 21.8049C84.2268 21.9097 84.2159 22.0146 84.2049 22.1249C84.1966 22.2128 84.1879 22.2914 84.1796 22.3698L84.1714 22.449C84.1654 22.4731 84.161 22.4988 84.1566 22.5254C84.1549 22.5348 84.1533 22.5445 84.1511 22.5541C84.1489 22.5674 84.1462 22.5809 84.1434 22.5943C84.1324 22.6502 84.1324 22.7005 84.1324 22.7452C84.1434 22.857 84.1544 22.9688 84.1714 23.0805C84.1879 23.1923 84.2049 23.3041 84.2274 23.4159C84.2554 23.5165 84.3223 23.5556 84.4118 23.5276C84.5062 23.4851 84.6005 23.4506 84.6916 23.4173L84.741 23.3991C84.8475 23.3655 84.9534 23.3153 85.0538 23.2593C85.1713 23.1867 85.2942 23.1085 85.4117 23.0246C85.5346 22.9464 85.6465 22.8682 85.7579 22.7899C85.8644 22.7173 85.9648 22.639 86.0652 22.5552C86.1157 22.5161 86.1646 22.477 86.2134 22.4378C86.2623 22.3987 86.3111 22.3596 86.3616 22.3205C86.406 22.2702 86.451 22.2255 86.49 22.1864C86.529 22.1472 86.574 22.0969 86.6184 22.0411C86.6184 22.0075 86.6354 21.9684 86.6744 21.9293C86.7134 21.8957 86.7584 21.879 86.8143 21.8901H86.9707C86.9537 21.8622 86.9427 21.8343 86.9373 21.8119C86.9257 21.7895 86.9148 21.7616 86.9032 21.7337C86.9257 21.7169 86.9537 21.6946 86.9872 21.6666C87.0207 21.6387 87.0602 21.6108 87.0992 21.5828C87.1271 21.5548 87.1661 21.5269 87.2166 21.5046C87.2665 21.4822 87.289 21.4542 87.289 21.4263C87.2781 21.3257 87.3 21.281 87.356 21.2922C87.3785 21.2996 87.4026 21.2972 87.4284 21.2947C87.441 21.2935 87.4548 21.2922 87.4679 21.2922C87.6633 21.0136 87.8757 20.7435 88.0908 20.4707L88.0913 20.4698L88.183 20.3533C88.2165 20.2985 88.2538 20.2437 88.2889 20.1913C88.3004 20.1743 88.3114 20.1574 88.3224 20.141C88.4179 19.9956 88.5128 19.8503 88.6023 19.6995C88.6023 19.733 88.5853 19.7889 88.5573 19.8671L88.9151 19.258L88.9195 19.2396ZM55.2139 6.37079C55.5382 5.96283 55.7001 5.45983 55.7001 4.86186C55.7001 4.3533 55.6052 3.92857 55.4153 3.58767C55.2249 3.24677 54.9681 2.97293 54.6496 2.76056C54.3311 2.5482 53.968 2.40289 53.5656 2.31906C53.1634 2.22965 52.7499 2.18494 52.3253 2.18494H48.9562V11.026H51.0402V7.51643H51.7666L53.6886 11.026H56.1863L53.8786 7.24259C54.4485 7.06934 54.9011 6.77316 55.2249 6.3652L55.2139 6.37079ZM53.4483 5.44866C53.3533 5.58834 53.2304 5.70013 53.0795 5.77279C52.9287 5.84545 52.7611 5.90131 52.5767 5.92924C52.3923 5.95723 52.2136 5.97397 52.0348 5.97397H51.0179V3.91181H52.1576C52.3141 3.91181 52.4817 3.92298 52.6549 3.95092C52.8281 3.97887 52.979 4.02358 53.1187 4.09064C53.2584 4.1577 53.3701 4.26388 53.4539 4.39242C53.5433 4.52095 53.588 4.68861 53.588 4.89539C53.588 5.11893 53.5433 5.30335 53.4483 5.44307V5.44866ZM61.1078 11.026H58.9736V4.00681H56.4761V2.18494H63.6053V4.00681H61.1078V11.026ZM66.8513 5.24747H66.8854L70.4442 11.026H72.8693V2.18494H70.796L70.8465 7.95232H70.8075L67.2651 2.18494H64.8291V11.026H66.9018L66.8513 5.24747ZM76.9977 9.20415H81.1043V11.026H74.942V2.18494H80.8809V3.98445H76.9977V5.65546H80.6685V7.37111H76.9977V9.20415Z" fill="#AFCECB"/>
</g>
<defs>
<clipPath id="clip0_734_235">
<rect width="90" height="27.9878" fill="white"/>
</clipPath>
</defs>
</svg>
