<svg width="160" height="21" viewBox="0 0 160 21" fill="none" xmlns="http://www.w3.org/2000/svg">
<g clip-path="url(#clip0_1024_1676)">
<path d="M36.6515 4.17212H41.6546L43.5713 13.3719H43.6139L45.4416 4.17212H50.4675L51.3448 19.0391H47.918L47.471 8.15786H47.4283L45.0418 19.0391H41.9957L39.5894 8.15786H39.5254L39.1005 19.0391H35.778L36.6515 4.17212Z" fill="#AFCECB"/>
<path d="M51.9349 13.2866C51.9349 9.66634 54.2773 7.36658 57.7483 7.36658C61.3472 7.36658 63.6256 9.83691 62.8382 14.3085H55.3823C55.7874 15.629 56.9586 16.2039 58.4915 16.2039C59.6627 16.2039 60.9405 15.8841 61.9412 15.1819V18.4397C60.8339 18.9507 59.4922 19.1639 58.2996 19.1639C54.2751 19.1639 51.9349 16.8215 51.9349 13.2866ZM59.8143 11.8595C59.662 10.7309 58.771 10.1347 57.663 10.1347C56.5131 10.1347 55.7257 10.7949 55.3846 11.8595H59.8143Z" fill="#AFCECB"/>
<path d="M63.8046 7.49451H66.6983V8.40832H66.741C67.2519 7.72296 68.0188 7.38637 68.9768 7.38637C69.2636 7.38551 69.5497 7.41461 69.8304 7.47318V10.8147C69.4267 10.6398 68.9925 10.5459 68.5526 10.5383C67.7218 10.5383 67.0829 10.9853 67.0829 12.0712V19.039H63.8046V7.49451Z" fill="#AFCECB"/>
<path d="M70.7678 7.49457H73.6616V8.43123H73.7042C74.4071 7.68571 75.2592 7.36511 76.3025 7.36511C77.5376 7.36511 78.5169 7.81212 79.1345 8.66425H79.1772C79.9014 7.7908 80.8807 7.36511 82.0709 7.36511C84.2854 7.36511 85.6911 8.79142 85.6911 11.1346V19.0391H82.4326V11.9448C82.4326 11.0082 81.9643 10.4546 81.1556 10.4546C80.3674 10.4546 79.8778 11.0082 79.8778 11.9448V19.0391H76.5979V11.9448C76.5979 11.0082 76.1296 10.4546 75.3201 10.4546C74.5106 10.4546 74.0431 11.0082 74.0431 11.9448V19.0391H70.7678V7.49457Z" fill="#AFCECB"/>
<path d="M86.445 15.3518C86.445 13.0094 87.9361 11.5831 90.0652 11.5831C90.8961 11.5831 91.6202 11.7956 92.2165 12.1794H92.2592V11.8382C92.2592 10.6883 91.4923 10.0281 90.1269 10.0281C89.1476 10.0281 88.2102 10.3693 87.5081 10.7523V7.94156C88.554 7.53636 89.6655 7.32702 90.7872 7.32397C93.8111 7.32397 95.5359 8.89954 95.5359 11.8169V19.039H92.4899V18.3537H92.4473C91.851 18.8647 91.0004 19.1418 90.0409 19.1418C87.9147 19.1426 86.445 17.6942 86.445 15.3518ZM91.0453 16.7545C91.8327 16.7545 92.3863 16.1796 92.3863 15.2848C92.3863 14.4121 91.8327 13.8379 91.0453 13.8379C90.2579 13.8379 89.6609 14.4129 89.6609 15.2848C89.6609 16.1567 90.2571 16.7545 91.0453 16.7545Z" fill="#AFCECB"/>
<path d="M98.0939 3.21411C99.2437 3.21411 99.9885 3.87434 99.9885 4.93893C99.9885 6.00352 99.2437 6.66375 98.0939 6.66375C96.9653 6.66375 96.1985 6.00352 96.1985 4.93893C96.1985 3.87434 96.944 3.21411 98.0939 3.21411ZM96.4536 7.49456H99.7334V19.039H96.4536V7.49456Z" fill="#AFCECB"/>
<path d="M100.468 13.2653C100.468 9.68619 102.64 7.36664 105.557 7.36664C106.624 7.36664 107.602 7.66439 108.368 8.218H108.411V3.7251H111.691V19.0391H108.667V18.0141H108.625C107.837 18.7809 106.687 19.1213 105.558 19.1213C102.575 19.1213 100.468 16.8002 100.468 13.2653ZM106.218 15.9907C107.538 15.9907 108.56 14.9901 108.56 13.244C108.56 11.4765 107.538 10.4759 106.218 10.4759C104.855 10.4759 103.875 11.5191 103.875 13.244C103.875 14.9688 104.855 15.993 106.218 15.993V15.9907Z" fill="#AFCECB"/>
<path d="M115.992 11.6044C115.992 7.00487 119.058 4.02356 123.467 4.02356C124.189 4.0298 124.91 4.10811 125.617 4.25734V8.00549C124.954 7.73547 124.246 7.59112 123.531 7.57981C121.358 7.57981 119.761 9.07008 119.761 11.6044C119.761 14.1387 121.36 15.629 123.531 15.629C124.246 15.6173 124.954 15.473 125.617 15.2033V18.9507C124.91 19.1001 124.189 19.1787 123.467 19.1852C119.058 19.1852 115.992 16.2039 115.992 11.6044Z" fill="#AFCECB"/>
<path d="M126.601 3.7251H129.881V8.28197H129.923C130.52 7.68571 131.328 7.36816 132.329 7.36816C134.438 7.36816 135.821 8.81503 135.821 11.1376V19.0391H132.564V11.9448C132.564 11.0082 132.053 10.4546 131.222 10.4546C130.391 10.4546 129.881 11.0082 129.881 11.9448V19.0391H126.601V3.7251Z" fill="#AFCECB"/>
<path d="M136.539 15.3518C136.539 13.0094 138.03 11.5831 140.159 11.5831C140.99 11.5831 141.713 11.7956 142.309 12.1794H142.352V11.8382C142.352 10.6883 141.586 10.0281 140.22 10.0281C139.24 10.0281 138.303 10.3693 137.6 10.7523V7.94156C138.646 7.53642 139.758 7.32708 140.88 7.32397C143.904 7.32397 145.629 8.89954 145.629 11.8169V19.039H142.583V18.3537H142.54C141.944 18.8647 141.093 19.1418 140.134 19.1418C138.009 19.1426 136.539 17.6942 136.539 15.3518ZM141.138 16.7576C141.926 16.7576 142.48 16.1826 142.48 15.2878C142.48 14.4152 141.926 13.841 141.138 13.841C140.35 13.841 139.754 14.4159 139.754 15.2878C139.754 16.1598 140.352 16.7545 141.139 16.7545L141.138 16.7576Z" fill="#AFCECB"/>
<path d="M146.861 7.49453H149.755V8.40834H149.797C150.308 7.72298 151.075 7.38639 152.033 7.38639C152.319 7.38514 152.605 7.41372 152.885 7.47168V10.8147C152.482 10.6398 152.047 10.5458 151.607 10.5383C150.777 10.5383 150.138 10.9853 150.138 12.0712V19.039H146.859L146.861 7.49453Z" fill="#AFCECB"/>
<path d="M154.612 15.693V10.3693H153.484V8.36727C154.783 7.94159 155.379 7.26004 155.549 5.74844L155.613 5.19482H157.891V7.49458H160V10.3693H157.891V15.1181C157.891 15.8034 158.233 16.0319 158.744 16.0319C159.142 16.0196 159.533 15.9255 159.893 15.7554V18.9066C159.257 19.0927 158.597 19.186 157.934 19.1838C155.741 19.1853 154.612 18.142 154.612 15.693Z" fill="#AFCECB"/>
<path d="M24.7445 0.317336C22.0702 0.202752 19.4291 0.944176 17.2051 2.43381C14.9811 3.92344 13.2903 6.08362 12.3784 8.60027C11.7511 6.86573 10.7488 5.29103 9.44275 3.98857C8.21193 2.75512 6.73762 1.79164 5.1138 1.15955C3.48998 0.527462 1.75228 0.240629 0.0114587 0.317336C-0.0652488 2.05815 0.221585 3.79586 0.853675 5.41968C1.48576 7.0435 2.44924 8.51781 3.6827 9.74863C4.24014 10.3063 4.84815 10.8111 5.4989 11.2564C6.40605 11.8795 7.1474 12.7146 7.65859 13.6892C8.16978 14.6638 8.43534 15.7484 8.43223 16.8489V20.7227H16.3238V16.8489C16.3208 15.7485 16.5865 14.6639 17.0977 13.6893C17.6088 12.7148 18.3501 11.8796 19.2571 11.2564C19.9081 10.8115 20.5162 10.3067 21.0733 9.74863C22.3069 8.51792 23.2705 7.04363 23.9026 5.41978C24.5347 3.79593 24.8214 2.05817 24.7445 0.317336Z" fill="#AFCECB"/>
<path d="M5.94739 16.8489C5.9511 16.153 5.78466 15.4667 5.46254 14.8498C5.14042 14.2329 4.67239 13.7041 4.09921 13.3094C3.32022 12.7776 2.59261 12.1741 1.92586 11.5069C1.20519 10.7852 0.559907 9.99192 0 9.1394L0 20.7227H5.94739V16.8489Z" fill="#AFCECB"/>
<path d="M18.8093 16.8489C18.8056 16.153 18.972 15.4667 19.2941 14.8498C19.6163 14.2329 20.0843 13.7041 20.6575 13.3094C21.4363 12.7774 22.1639 12.1739 22.8308 11.5069C23.5515 10.7852 24.1968 9.99192 24.7567 9.1394V20.7227H18.8093V16.8489Z" fill="#AFCECB"/>
</g>
<defs>
<clipPath id="clip0_1024_1676">
<rect width="160" height="20.4168" fill="white" transform="translate(0 0.305908)"/>
</clipPath>
</defs>
</svg>
