<svg width="154" height="34" viewBox="0 0 154 34" fill="none" xmlns="http://www.w3.org/2000/svg">
<path d="M40.9171 16.2026H38.1677L41.8793 2.73114H44.3682L45.8155 12.2574L50.2527 2.72513H52.7417L52.1989 16.1966H49.5251L49.867 8.46052L46.4338 16.2026H43.9726L42.9786 8.50863L40.9171 16.2026ZM56.4055 16.2026H53.5289L60.0456 2.73114H63.1826L65.3515 16.2026H62.5365L62.0534 13.1675H57.8588L56.4055 16.2026ZM61.7572 10.6316L61.1131 5.94866L58.9522 10.6316H61.7572ZM69.1665 16.2026L72.3989 11.8304L74.4148 16.2026H77.4107L74.3134 9.6513L79.6651 2.73114H76.4962L73.1782 7.19156L71.1286 2.73114H68.1128L71.23 9.34659L66.0095 16.2026H69.1665ZM81.5517 16.2026L83.6709 2.73114H80.9215L78.8043 16.2026H81.5517ZM87.9391 6.44381C88.0166 5.95667 88.1916 5.6259 88.458 5.45951C88.7244 5.29313 89.2034 5.18086 89.7899 5.18086C91.271 5.18086 92.5493 5.22697 93.585 5.31919L93.8633 5.34324L94.2072 3.098L93.9369 3.03586C93.2912 2.89328 92.6371 2.79218 91.9787 2.73315C91.2471 2.66299 90.5871 2.62891 90.0305 2.62891C88.6985 2.62891 87.627 2.89152 86.8497 3.41073C86.0724 3.92994 85.5416 4.85811 85.3448 6.12507L85.1698 7.19356C85.1345 7.44459 85.1166 7.69779 85.1161 7.95133C85.1161 8.8394 85.4044 9.55507 85.9769 10.0603C86.5495 10.5654 87.3268 10.816 88.3188 10.816H89.5295C90.1418 10.816 90.434 10.9223 90.5692 11.0165C90.6521 11.0781 90.717 11.161 90.7573 11.2566C90.7975 11.3521 90.8115 11.4568 90.7978 11.5598C90.8017 11.67 90.793 11.7803 90.772 11.8885L90.6805 12.506C90.603 12.9951 90.4122 13.3078 90.0981 13.4842C89.7462 13.6747 89.1796 13.7709 88.4142 13.7709C86.9411 13.7709 85.6509 13.7248 84.5834 13.6326L84.305 13.6085L83.9611 15.8518L84.2295 15.9159C84.8474 16.0533 85.4737 16.1491 86.1042 16.2026C86.8477 16.2728 87.631 16.3088 88.4321 16.3088C89.9032 16.3088 91.0344 16.0502 91.7958 15.543C92.5572 15.0359 93.0681 14.1578 93.2411 12.9851L93.4399 11.7823C93.4754 11.5373 93.494 11.2901 93.4955 11.0425C93.5126 10.6419 93.4398 10.2426 93.2825 9.87431C93.1251 9.50603 92.8874 9.17831 92.587 8.91558C92.0025 8.4104 91.1576 8.1538 90.0762 8.1538H88.8118C88.3228 8.1538 88.0942 8.05958 87.9888 7.9794C87.9411 7.94331 87.79 7.83305 87.79 7.4261C87.7912 7.30179 87.8066 7.17803 87.8357 7.05724L87.9391 6.44381ZM36.5912 18.4599L36.1936 20.8855H40.0483L38.2591 32.3222H40.9051L42.6943 20.8955H46.5471L46.9447 18.4699L36.5912 18.4599ZM51.4495 18.4599C50.613 18.4322 49.7918 18.6908 49.1195 19.1936C48.4893 19.6867 48.0878 20.4846 47.9267 21.5651L46.6962 29.2831C46.6597 29.5044 46.6404 29.7283 46.6385 29.9527C46.6385 30.8728 46.9407 31.5284 47.5391 31.9012C48.1534 32.2673 48.8575 32.4514 49.5708 32.4325C50.859 32.4204 52.6582 32.3403 54.9185 32.1959L55.0776 32.1859L55.4473 29.9146H50.4416C50.1603 29.9369 49.8792 29.8711 49.6364 29.7262C49.5529 29.6521 49.4885 29.5587 49.449 29.4538C49.4095 29.349 49.3961 29.236 49.4098 29.1248C49.4098 29.0947 49.4098 29.0085 49.4436 28.7719L49.7636 26.6029L55.1173 26.4746L55.4493 24.3155L50.1493 24.1692L50.4575 22.1906C50.4921 21.8279 50.6445 21.4868 50.8908 21.2203C51.1536 21.0121 51.4839 20.9099 51.8172 20.9336H56.8349L57.1789 18.6724L56.9602 18.6603C54.6621 18.526 52.8073 18.4599 51.4495 18.4599ZM68.0472 19.0352C66.6643 18.5761 65.2171 18.3446 63.7611 18.3496C62.0654 18.3496 60.7473 18.9109 59.8448 20.0195C58.9422 21.1281 58.3339 22.7759 57.992 24.9771C57.84 25.9049 57.7609 26.8433 57.7554 27.7836C57.7554 30.8688 59.2265 32.4345 62.129 32.4345C63.6975 32.4345 65.0195 32.2661 66.0592 31.9333L66.1765 31.8952L66.5304 29.7342L66.26 29.7743C65.7014 29.8585 65.1587 29.9186 64.6478 29.9547C64.1368 29.9908 63.4888 30.0088 62.7254 30.0088C61.8546 30.0088 61.2364 29.8384 60.8924 29.4996C60.5485 29.1608 60.3736 28.5935 60.3736 27.8017C60.3848 27.0255 60.4607 26.2517 60.6002 25.4883C60.7329 24.4857 60.9893 23.5038 61.3636 22.5654C61.6578 21.9019 62.0256 21.4348 62.459 21.1782C62.9707 20.8963 63.5481 20.7578 64.1309 20.7773C65.3159 20.7873 66.4963 20.9264 67.6516 21.1922L67.8504 21.2383L68.2023 19.0913L68.0472 19.0352ZM78.0906 18.4599L77.1662 24.2734H71.9616L72.884 18.4599H70.238L68.0512 32.3222H70.6952L71.5819 26.7091H76.7884L75.9018 32.3222H78.5478L80.7346 18.4599H78.0906ZM89.271 27.6232L84.9332 18.4599H82.83L80.6432 32.3222H83.2892L84.7344 23.1408L89.0722 32.3222H91.1775L93.3643 18.4599H90.7163L89.271 27.6232ZM104.851 20.1278C105.237 20.7873 105.431 21.7315 105.431 22.9102C105.418 23.9116 105.326 24.9104 105.157 25.8972C104.877 27.6513 104.471 29.0125 103.948 29.9407C103.494 30.816 102.758 31.5095 101.861 31.9072C101.028 32.2561 99.9148 32.4325 98.557 32.4325C97.7048 32.4558 96.8545 32.338 96.0402 32.0837C95.3568 31.849 94.782 31.3706 94.4239 30.7385C94.0442 30.095 93.8534 29.1929 93.8534 28.0543C93.8734 27.0467 93.9644 26.0418 94.1257 25.0472C94.3941 23.3152 94.7977 21.956 95.3185 21.0018C95.7835 20.1007 96.5267 19.3766 97.4357 18.939C98.2886 18.538 99.3999 18.3376 100.738 18.3376C101.582 18.3151 102.423 18.4427 103.223 18.7145C103.914 18.9761 104.491 19.477 104.851 20.1278ZM101.821 28.2728C102.174 27.3844 102.415 26.455 102.539 25.5063C102.686 24.6544 102.769 23.7927 102.789 22.9283C102.815 22.4605 102.728 21.9933 102.535 21.5671C102.379 21.2809 102.12 21.0658 101.811 20.9657C101.36 20.832 100.89 20.7711 100.42 20.7853C99.7945 20.7567 99.172 20.8834 98.6067 21.1541C98.1713 21.3927 97.8115 21.8418 97.5172 22.4913C97.223 23.1408 96.9606 24.1511 96.7618 25.4402C96.61 26.2736 96.5196 27.1172 96.4914 27.964C96.4672 28.4044 96.5519 28.8439 96.7379 29.243C96.8942 29.5218 97.1525 29.7276 97.4576 29.8164C97.9328 29.9464 98.4246 30.0045 98.9168 29.9888C99.5466 30.0155 100.173 29.8774 100.734 29.5878C101.225 29.2761 101.605 28.8158 101.821 28.2728ZM109.465 29.7161C109.386 29.6467 109.324 29.5586 109.287 29.4597C109.249 29.3608 109.236 29.254 109.248 29.1488C109.245 29.0249 109.256 28.9011 109.282 28.7799L110.892 18.4599H108.246L106.59 29.0125C106.554 29.2782 106.535 29.5461 106.535 29.8144C106.535 31.4482 107.485 32.3122 109.284 32.3122H114.467L114.835 29.8865H110.207C109.948 29.9079 109.689 29.8484 109.465 29.7161ZM127.377 20.1278C127.761 20.7873 127.955 21.7315 127.955 22.9102C127.943 23.9117 127.851 24.9105 127.681 25.8972C127.403 27.6513 126.995 29.0125 126.474 29.9407C126.021 30.8128 125.288 31.5045 124.395 31.9032C123.56 32.2521 122.449 32.4285 121.089 32.4285C120.237 32.4518 119.388 32.334 118.574 32.0797C117.891 31.8436 117.316 31.3657 116.956 30.7345C116.578 30.091 116.385 29.1889 116.385 28.0502C116.406 27.0426 116.498 26.0378 116.66 25.0432C116.928 23.3112 117.332 21.952 117.852 20.9978C118.318 20.0971 119.061 19.3732 119.97 18.935C120.824 18.534 121.936 18.3336 123.272 18.3336C124.116 18.311 124.957 18.4385 125.757 18.7104C126.446 18.975 127.02 19.4771 127.377 20.1278ZM124.347 28.2728C124.699 27.384 124.94 26.4548 125.065 25.5063C125.211 24.6543 125.294 23.7926 125.315 22.9283C125.341 22.4603 125.253 21.9931 125.059 21.5671C124.904 21.2807 124.645 21.0653 124.337 20.9657C123.886 20.8321 123.416 20.7712 122.946 20.7853C122.32 20.7566 121.697 20.8832 121.131 21.1541C120.695 21.3927 120.335 21.8418 120.041 22.4913C119.747 23.1408 119.489 24.1612 119.288 25.4502C119.14 26.2805 119.052 27.1208 119.027 27.964C119.003 28.4042 119.087 28.8437 119.272 29.243C119.429 29.5219 119.688 29.7277 119.993 29.8164C120.468 29.9462 120.959 30.0043 121.451 29.9888C122.081 30.0155 122.708 29.8774 123.27 29.5878C123.756 29.274 124.132 28.814 124.345 28.2728H124.347ZM137.961 18.4879C137.122 18.3749 136.275 18.3227 135.428 18.3316C133.735 18.3316 132.389 18.8949 131.424 20.0055C130.46 21.1161 129.82 22.7358 129.478 24.8688C129.304 25.9099 129.206 26.9626 129.186 28.0182C129.186 29.5297 129.468 30.6523 130.027 31.354C130.586 32.0556 131.54 32.4325 132.84 32.4325C133.528 32.4106 134.209 32.2877 134.862 32.0676C135.389 31.9122 135.904 31.7192 136.404 31.4903L136.565 32.3222H138.553L139.792 24.4518H139.569C139.013 24.4258 138.394 24.4138 137.732 24.4138C136.711 24.4069 135.689 24.4565 134.673 24.5621L134.52 24.5781L134.19 26.7312H136.885L136.46 29.4976C136.042 29.6187 135.618 29.7171 135.19 29.7923C134.672 29.8965 134.145 29.9535 133.617 29.9627C132.993 29.9627 132.538 29.7983 132.265 29.4756C131.993 29.1528 131.844 28.6075 131.844 27.8718C131.859 27.0564 131.937 26.2435 132.077 25.4402C132.198 24.4902 132.425 23.5569 132.752 22.6577C132.959 22.0763 133.334 21.5707 133.828 21.2063C134.279 20.8955 134.897 20.7392 135.661 20.7392C136.983 20.7257 138.303 20.8391 139.603 21.078L139.802 21.1181L140.132 18.9891L139.967 18.939C139.31 18.7388 138.638 18.588 137.959 18.4879H137.961ZM150.275 18.4599L146.396 25.0332L144.792 18.4599H141.909L144.629 28.0302L143.949 32.3222H146.595L147.257 28.0943L153.29 18.4719L150.275 18.4599Z" fill="#252727"/>
<path d="M2.35392 9.32365C2.32853 9.25479 2.32606 9.17982 2.34688 9.1095C2.36769 9.03918 2.41072 8.97713 2.46977 8.93226C3.77414 7.91071 5.50997 7.39211 7.63331 7.39211C13.3721 7.39211 20.5252 11.2024 22.5806 12.3687C22.6304 12.3985 22.6725 12.4392 22.7036 12.4876C22.7347 12.536 22.7538 12.5908 22.7597 12.6477C22.7655 12.7045 22.7577 12.762 22.7371 12.8154C22.7164 12.8689 22.6834 12.917 22.6405 12.9558C22.3969 13.1652 22.1452 13.3766 21.8895 13.582C21.7942 13.6584 21.675 13.7006 21.5519 13.7014C21.4591 13.7017 21.368 13.6774 21.2882 13.631C18.7986 12.2348 16.1812 11.0699 13.47 10.1515C10.9372 9.31387 8.64205 8.89116 6.64855 8.89116C5.34354 8.8696 4.04621 9.09073 2.82533 9.54283C2.78032 9.56054 2.73212 9.56908 2.68363 9.56796C2.63515 9.56683 2.58741 9.55606 2.54332 9.53629C2.49922 9.51652 2.45969 9.48817 2.42713 9.45296C2.39457 9.41775 2.36966 9.37642 2.35392 9.33148V9.32365ZM7.76715 21.9599L7.70323 21.907C6.65454 21.0812 4.19761 19.1536 3.33069 16.907C3.21424 16.6242 3.14088 16.3261 3.11297 16.0224C2.99511 14.2826 4.49324 13.4333 4.95666 13.2141C5.84755 12.7895 6.95416 12.5762 8.23456 12.5762C11.8001 12.5762 16.0068 14.2063 18.5237 15.6016C18.6062 15.6497 18.7004 15.6751 18.7964 15.6751C18.8923 15.6751 18.9865 15.6497 19.069 15.6016C19.5224 15.3218 19.9919 15.0146 20.4673 14.676C20.5184 14.6394 20.5594 14.5909 20.5866 14.5348C20.6138 14.4788 20.6263 14.417 20.6231 14.3551C20.6186 14.2929 20.5978 14.2328 20.5629 14.1808C20.5279 14.1287 20.4798 14.0863 20.4233 14.0576C17.3891 12.4098 11.5584 9.6446 6.61059 9.6446C4.64505 9.6446 3.0031 10.0927 1.7307 10.9753C1.22696 11.3163 0.809543 11.7657 0.510403 12.2891C0.211264 12.8125 0.0383338 13.396 0.00485357 13.995C-0.0302774 14.8767 0.12562 15.7558 0.462282 16.5743C1.79462 19.8405 5.38612 21.6624 7.53344 22.7368L7.61933 22.7799C7.70605 22.8257 7.80248 22.8512 7.90098 22.8542C7.96839 22.8581 8.03536 22.8413 8.09262 22.8063C8.14988 22.7712 8.1946 22.7196 8.22058 22.6585C8.24361 22.575 8.23944 22.4866 8.20864 22.4055C8.17784 22.3245 8.12195 22.2549 8.04879 22.2065L7.76715 21.9599ZM7.63331 6.6465H7.66328C9.70472 6.6465 12.0578 7.08682 14.6825 7.95768C17.6635 8.98281 20.5338 10.2938 23.2518 11.8716C23.3338 11.92 23.4277 11.9456 23.5234 11.946C23.5937 11.9464 23.6634 11.9329 23.7283 11.9064C23.7931 11.8798 23.8519 11.8407 23.901 11.7914C24.0748 11.6192 24.2326 11.4587 24.3844 11.2982C24.4221 11.2581 24.4502 11.2102 24.4668 11.1581C24.4833 11.106 24.4879 11.0509 24.4802 10.9969C24.4726 10.9424 24.4524 10.8903 24.4213 10.8446C24.3902 10.7988 24.3489 10.7606 24.3005 10.7327C21.7776 9.25711 15.2977 5.82261 9.6408 5.82261C8.9479 5.81976 8.25608 5.87673 7.57339 5.99287C7.489 6.00554 7.41271 6.04924 7.36006 6.11508C7.3074 6.18093 7.28234 6.26395 7.28998 6.34726C7.29762 6.43057 7.33738 6.50789 7.40117 6.56349C7.46495 6.61908 7.54797 6.64877 7.63331 6.6465Z" fill="url(#paint0_linear_1513_1494)"/>
<path d="M32.2281 6.12186C32.24 6.03826 32.282 5.9619 32.3461 5.90709C32.4102 5.85228 32.4921 5.82278 32.5764 5.82411C32.662 5.82285 32.7451 5.85304 32.81 5.90899C32.8749 5.96494 32.9171 6.04277 32.9286 6.12777C33.9676 12.9799 23.3179 19.6921 20.0278 21.587C19.9772 21.6164 19.9204 21.6332 19.862 21.6361C19.8036 21.6391 19.7454 21.6281 19.6921 21.604C19.6388 21.5799 19.5921 21.5434 19.5556 21.4976C19.5192 21.4518 19.4942 21.398 19.4827 21.3405C19.4178 21.025 19.3587 20.7017 19.3056 20.3803C19.2878 20.2756 19.3026 20.1679 19.348 20.0719C19.3934 19.9759 19.4672 19.8963 19.5595 19.8439C22.003 18.4186 24.3087 16.7682 26.4467 14.9143C29.8785 11.8934 31.8207 8.93568 32.2281 6.12186ZM18.4319 4.25649C18.4992 4.25533 18.5657 4.24266 18.6287 4.21903L18.9671 4.08692L19.0459 4.05734C20.0455 3.66297 22.3911 2.76184 24.5261 2.76184C24.87 2.76031 25.2135 2.78602 25.5533 2.83874C25.8581 2.88212 26.1546 2.9712 26.4329 3.10297C28.0072 3.8779 28.0072 5.58749 27.9698 6.09228C27.6628 10.4086 22.1038 14.7802 19.2072 16.4898C19.1257 16.5371 19.0586 16.6058 19.0132 16.6885C18.9677 16.7712 18.9457 16.8648 18.9494 16.9591C18.9691 17.4876 19.0085 18.0456 19.0675 18.6194C19.0759 18.7108 19.1181 18.7956 19.1858 18.8573C19.2536 18.919 19.342 18.953 19.4335 18.9526C19.5025 18.9531 19.5703 18.9354 19.6303 18.9014C23.3966 16.6318 32.0962 10.6867 31.5197 4.4734C31.472 3.87158 31.2877 3.28864 30.9807 2.76917C30.6738 2.24969 30.2523 1.80743 29.7487 1.4762C28.9978 1.00276 28.1555 0.693659 27.2771 0.569149C26.927 0.521076 26.5738 0.498013 26.2204 0.500134C23.1054 0.500134 20.1773 2.38719 18.426 3.51508L18.3473 3.56635C18.2606 3.60762 18.1897 3.67625 18.1456 3.76173C18.1016 3.84722 18.0867 3.94482 18.1033 4.03959C18.1279 4.10608 18.173 4.16297 18.2321 4.20198C18.2912 4.24098 18.3612 4.26008 18.4319 4.25649ZM32.659 11.5208C32.6013 11.5205 32.5446 11.5357 32.4948 11.5648C32.4449 11.5939 32.4038 11.6359 32.3757 11.6864C31.3701 13.4413 29.8175 15.2475 27.7592 17.0518C25.3992 19.0853 22.8436 20.8793 20.1301 22.4073C20.0288 22.464 19.9493 22.553 19.9044 22.6603C19.8594 22.7675 19.8516 22.8867 19.8822 22.9989C19.9471 23.2355 20.0101 23.4524 20.0789 23.6594C20.0954 23.712 20.1233 23.7603 20.1607 23.8007C20.1981 23.8411 20.244 23.8726 20.295 23.893C20.3461 23.9134 20.4011 23.9221 20.4559 23.9186C20.5108 23.915 20.5642 23.8992 20.6122 23.8724C23.6505 22.1746 30.9372 17.6177 32.9778 11.9605C32.9973 11.9114 33.004 11.8582 32.9975 11.8058C32.991 11.7534 32.9713 11.7035 32.9404 11.6608C32.9085 11.6161 32.8662 11.58 32.8171 11.5556C32.7681 11.5312 32.7138 11.5192 32.659 11.5208Z" fill="url(#paint1_linear_1513_1494)"/>
<path d="M29.7436 22.0353C29.8602 24.4473 30.0551 28.486 27.8206 31.3078C27.2625 32.0181 26.5591 32.6026 25.7569 33.0224C25.1969 33.3065 24.577 33.4538 23.9484 33.452C23.3447 33.4505 22.7484 33.3196 22.2001 33.0683C16.427 30.4265 15.6212 19.7611 15.5428 15.3007C15.5418 15.2507 15.5511 15.2009 15.5701 15.1545C15.5891 15.1081 15.6174 15.0661 15.6533 15.031C15.7077 14.9767 15.7772 14.94 15.8529 14.9257C15.9286 14.9114 16.0068 14.9203 16.0773 14.951C16.6139 15.1908 17.1283 15.4406 17.6025 15.6904C17.6875 15.7354 17.7588 15.8025 17.8086 15.8844C17.8585 15.9664 17.8852 16.0602 17.8858 16.156C17.916 19.5693 18.9348 26.6735 22.586 29.1295C23.149 29.5212 23.8161 29.7382 24.503 29.753C25.0405 29.7549 25.566 29.5946 26.0101 29.2934C26.2684 29.1157 26.4981 28.9001 26.6913 28.6539C28.2446 26.7594 28.7329 23.644 28.9399 22.3131L28.9539 22.2291L29.0102 21.8634C29.0624 21.5796 29.2413 21.4777 29.3779 21.4777C29.5467 21.4777 29.7235 21.6216 29.7416 21.9394L29.7436 22.0353ZM13.023 23.3862C12.4342 20.2803 12.1562 17.1242 12.1931 13.9638C12.1949 13.8446 12.1562 13.7282 12.0833 13.6335C12.0104 13.5389 11.9074 13.4715 11.7912 13.4422C11.55 13.3803 11.327 13.3263 11.11 13.2764C11.0819 13.2734 11.0536 13.2734 11.0256 13.2764C10.9269 13.2764 10.8323 13.3149 10.762 13.3837C10.6917 13.4525 10.6514 13.546 10.6498 13.6441C10.5996 17.1792 10.903 25.8882 14.8496 30.5484C14.8801 30.5865 14.9189 30.6173 14.9631 30.6384C15.0073 30.6595 15.0557 30.6704 15.1048 30.6703C15.1651 30.6701 15.2244 30.6542 15.2766 30.624C15.3288 30.5938 15.3721 30.5505 15.4022 30.4984C15.4318 30.4477 15.4474 30.3902 15.4474 30.3316C15.4474 30.2729 15.4318 30.2154 15.4022 30.1647C14.3673 28.3921 13.5675 26.11 13.023 23.3862ZM15.577 23.3222C15.0337 20.5011 14.7579 17.6355 14.7531 14.7632C14.7522 14.6556 14.7188 14.5508 14.6571 14.4624C14.5955 14.374 14.5085 14.3061 14.4075 14.2676C14.096 14.1517 13.7825 14.0418 13.4711 13.9378C13.4324 13.9241 13.3916 13.9173 13.3505 13.9179C13.2508 13.9184 13.1553 13.9579 13.0847 14.0278C13.014 14.0977 12.9738 14.1924 12.9727 14.2916C12.9727 18.1444 13.455 30.9121 20.0319 33.476C20.075 33.4919 20.1206 33.5 20.1666 33.5C20.2418 33.4992 20.315 33.4754 20.3761 33.4318C20.4373 33.3882 20.4834 33.3268 20.5082 33.2562C20.5335 33.1857 20.5357 33.109 20.5144 33.0371C20.4931 32.9653 20.4494 32.9021 20.3896 32.8565C18.1129 31.0719 16.4933 27.8645 15.577 23.3222Z" fill="url(#paint2_linear_1513_1494)"/>
<defs>
<linearGradient id="paint0_linear_1513_1494" x1="-0.0182399" y1="14.3381" x2="24.4831" y2="14.3381" gradientUnits="userSpaceOnUse">
<stop offset="0.2" stop-color="#FFFBCE"/>
<stop offset="0.4" stop-color="#E5CA80"/>
<stop offset="0.6" stop-color="#FAAA3C"/>
<stop offset="0.8" stop-color="#CB963E"/>
</linearGradient>
<linearGradient id="paint1_linear_1513_1494" x1="18.0856" y1="12.2089" x2="32.9994" y2="12.2089" gradientUnits="userSpaceOnUse">
<stop offset="0.2" stop-color="#FFFBCE"/>
<stop offset="0.4" stop-color="#E5CA80"/>
<stop offset="0.6" stop-color="#FAAA3C"/>
<stop offset="0.8" stop-color="#CB963E"/>
</linearGradient>
<linearGradient id="paint2_linear_1513_1494" x1="10.631" y1="23.3864" x2="29.806" y2="23.3864" gradientUnits="userSpaceOnUse">
<stop offset="0.2" stop-color="#FFFBCE"/>
<stop offset="0.4" stop-color="#E5CA80"/>
<stop offset="0.6" stop-color="#FAAA3C"/>
<stop offset="0.8" stop-color="#CB963E"/>
</linearGradient>
</defs>
</svg>
