<svg width="119" height="20" viewBox="0 0 119 20" fill="none" xmlns="http://www.w3.org/2000/svg">
<g clip-path="url(#clip0_734_206)">
<path d="M113.84 16.6854C113.84 15.2168 114.999 14.1055 116.42 14.1055C117.888 14.1055 118.999 15.2247 118.999 16.6854C118.999 18.146 117.88 19.2732 116.42 19.2732C114.999 19.2653 113.84 18.146 113.84 16.6854Z" fill="#AFCECB"/>
<path d="M44.9696 1.8008H42.6122V4.21401C42.6122 5.10309 42.1595 5.7937 41.1119 5.7937H40.1196V7.96873H42.4533V14.224C42.4533 17.0421 43.7393 19.0028 47.5258 19.0028H50.0105V16.6689H47.4859C45.8508 16.6689 44.9617 16.026 44.9617 14.2796V7.96873H50.0105V5.7937H44.9696V1.8008ZM31.9352 5.53175C28.0455 5.53175 24.9575 8.32595 24.9575 12.3982C24.9575 16.5023 28.0455 19.2647 31.9352 19.2647C35.8249 19.2647 38.913 16.5023 38.913 12.3982C38.913 8.31801 35.8328 5.53175 31.9352 5.53175ZM31.9352 16.9865C29.4426 16.9865 27.5375 15.1369 27.5375 12.3982C27.5375 9.69133 29.4426 7.78616 31.9352 7.78616C34.4277 7.78616 36.3329 9.69133 36.3329 12.3982C36.3409 15.1369 34.4357 16.9865 31.9352 16.9865ZM110.316 7.96873V5.7937H105.276V1.8008H102.918V4.21401C102.918 5.10309 102.458 5.7937 101.418 5.7937H100.418V7.96873H102.752V14.224C102.752 17.0421 104.037 19.0028 107.824 19.0028H110.316V16.6689H107.8C106.165 16.6689 105.276 16.026 105.276 14.2796V7.96873H110.316ZM10.8435 15.3988H10.6292L4.37392 0.483067H0V18.9948H2.54815V3.24554H2.78629L9.41466 19.0186H11.939L18.5435 3.21379H18.7579V18.9869H21.4409V0.483067H17.0432L10.8435 15.3988ZM59.5203 10.5725L64.3466 5.7937H61.2112L57.0752 9.92948L55.4084 11.7552H55.1147V0.483067H52.5901V18.9948H55.1147V14.8591L57.5041 12.4697H57.7421L62.0367 18.9869H64.9898L59.5124 10.8027V10.5725H59.5203ZM92.5112 4.66648V5.7937H89.9075V7.96873H92.5112V18.9948H95.0354V7.96873H99.2189V5.7937H95.0354V4.61884C95.0354 3.11853 95.9724 2.26121 97.8534 2.26121C98.5761 2.26121 99.4652 2.3406 100.029 2.53111V0.467191C99.2746 0.308429 98.4488 0.197295 97.5601 0.197295C94.4163 0.189356 92.5112 1.8008 92.5112 4.66648ZM87.3038 15.764V10.1914C87.3038 9.98502 87.2959 9.78656 87.2722 9.59605C87.1848 6.98442 85.3588 5.53966 82.0885 5.53966C79.8577 5.53966 77.8652 6.41288 76.7302 7.88938L76.9602 8.11164L78.2783 9.34999C79.0164 8.42917 79.985 7.88938 81.1516 7.72267C81.4058 7.69092 81.6596 7.66708 81.9296 7.66708C82.1597 7.66708 82.3744 7.67503 82.5728 7.69883C84.4222 7.86554 84.8429 8.73876 84.8429 9.48492C84.8429 9.59605 84.827 9.70718 84.8112 9.8104C84.7476 10.1517 84.597 10.4296 84.3269 10.6518C83.7873 11.0884 82.8187 11.2948 81.3343 11.3028C81.2947 11.3028 81.2627 11.3028 81.2232 11.3028C79.7865 11.3028 78.5637 11.6203 77.6667 12.2157C76.6349 12.9063 76.111 13.9382 76.111 15.2718C76.111 15.8751 76.2142 16.4229 76.4127 16.8992C76.6032 17.4072 76.9049 17.8359 77.3097 18.1772C78.1036 18.8916 79.2544 19.2886 80.6914 19.2886C84.089 19.2886 85.4962 17.4613 85.4962 17.4613L85.105 16.1133V16.5578C85.105 18.1296 86.0894 18.9154 87.5738 19.0107C87.677 19.0186 87.7723 19.0186 87.8834 19.0186C88.5104 19.0186 89.9075 19.0186 89.9075 19.0186V17.0341H88.5104C87.7561 17.0262 87.3038 16.7325 87.3038 15.764ZM84.8587 13.7239C84.8587 16.0895 82.8903 17.2564 80.9531 17.2564C80.7867 17.2564 80.6357 17.2484 80.4851 17.2326C79.6991 17.0976 79.1275 16.7166 78.8337 16.145C78.6989 15.8751 78.6274 15.5656 78.6274 15.2163C78.6274 14.0653 79.4291 13.327 80.8025 13.1762C80.9772 13.1603 81.1674 13.1444 81.358 13.1444C83.3584 13.1444 84.2 12.8348 84.6764 12.2871H84.8587V13.7239ZM69.6335 8.19102H69.4508V5.8175H66.9582V19.0186H69.4828V11.6044C69.4828 9.42938 70.6099 7.98462 73.5074 7.98462H74.9282V5.8175H73.9043C71.6734 5.8175 70.1098 6.57955 69.6335 8.19102Z" fill="#AFCECB"/>
</g>
<defs>
<clipPath id="clip0_734_206">
<rect width="119" height="19.5823" fill="white"/>
</clipPath>
</defs>
</svg>
