<svg width="127" height="32" viewBox="0 0 127 32" fill="none" xmlns="http://www.w3.org/2000/svg">
<path d="M1 24.0072L4.04341 2.0929H4.39626L13.0413 20.0599L21.6422 2.0929H21.995L25.0385 24.0072H22.9654L20.8482 8.35412L13.3059 24.0072H12.7766L5.14608 8.21801L3.07305 24.0072H1Z" fill="#00A8A8" stroke="#00A8A8" stroke-width="0.6"/>
<path d="M26.6411 7.9928H28.8352L34.3429 20.817L39.6714 7.9928H41.8655L32.3279 30.7499H30.1337L33.2234 23.3819L26.6411 7.9928Z" fill="#00A8A8" stroke="#00A8A8" stroke-width="0.6"/>
<path d="M44.2693 4.27071V2.0929H56.2885V4.22534H51.3901V24.0072H49.1677V4.27071H44.2693Z" fill="black" stroke="black" stroke-width="0.6"/>
<path d="M59.5372 2.0929H61.5391V11.3422C62.366 10.1976 63.2364 9.37335 64.1938 8.82388C65.1513 8.27441 66.1957 7.99968 67.3708 7.99968C68.5458 7.99968 69.5468 8.3202 70.4607 8.91546C71.3747 9.55651 72.0275 10.3807 72.4626 11.4339C72.8978 12.487 73.1154 14.1354 73.1154 16.3791V24.8043H71.1135V17.0201C71.1135 15.1428 71.0265 13.8607 70.8959 13.2654C70.6348 12.1665 70.1996 11.3881 69.5468 10.8386C68.894 10.2891 68.0236 10.0144 66.9792 10.0144C65.7606 10.0144 64.6726 10.4265 63.7151 11.2965C62.7577 12.1207 62.1049 13.1739 61.8002 14.4102C61.6261 15.2343 61.4956 16.6996 61.4956 18.8517V24.85H59.4937V2.0929H59.5372Z" fill="black" stroke="black" stroke-width="0.6"/>
<path d="M77.1218 8.40619H79.2025V10.7947C79.8223 9.83006 80.4863 9.14111 81.1507 8.68178C81.859 8.22246 82.5673 7.9928 83.3197 7.9928C83.8951 7.9928 84.4704 8.17652 85.1346 8.54398L84.0721 10.3354C83.6298 10.1516 83.2757 10.0597 83.0096 10.0597C82.3454 10.0597 81.6819 10.3354 81.0618 10.9324C80.442 11.5296 79.9551 12.4023 79.6009 13.6425C79.3353 14.5611 79.2025 16.4902 79.2025 19.2921V24.8499H77.1218V8.40619Z" fill="black" stroke="black" stroke-width="0.6"/>
<path fill-rule="evenodd" clip-rule="evenodd" d="M90.2734 1.76508C89.932 1.4373 89.5474 1.25 89.1195 1.25C88.65 1.25 88.2653 1.4373 88.0089 1.76508C87.7092 2.13969 87.5386 2.51429 87.5386 3.02936C87.5386 3.54444 87.7092 3.96587 88.0089 4.29365C88.3078 4.62143 88.6924 4.80873 89.1195 4.80873C89.5899 4.80873 89.9745 4.62143 90.2734 4.29365C90.573 3.91905 90.7437 3.49762 90.7437 3.02936C90.7437 2.51429 90.573 2.09286 90.2734 1.76508ZM90.1027 24.85V8.13334H88.1371V24.85H90.1027Z" fill="black" stroke="black" stroke-width="0.6"/>
<path d="M93.9487 7.9928H96.0521L101.204 20.2697L106.268 7.9928H108.372L101.375 24.8499H100.989L93.9487 7.9928Z" fill="black" stroke="black" stroke-width="0.6"/>
<path fill-rule="evenodd" clip-rule="evenodd" d="M125.479 19.813L123.785 18.8716C123.177 19.9543 122.612 20.7546 122.135 21.2253C121.614 21.6961 120.962 22.1197 120.224 22.4021C119.486 22.6846 118.704 22.8258 117.922 22.8258C116.272 22.8258 114.925 22.2138 113.796 20.9429C112.667 19.6718 112.103 18.0713 112.059 16.1413H126C126 13.8346 125.435 11.9516 124.306 10.3981C122.743 8.23273 120.615 7.15002 117.966 7.15002C115.36 7.15002 113.318 8.23273 111.798 10.3511C110.583 11.9987 109.974 13.9288 109.974 16.0471C109.974 18.3538 110.669 20.3779 112.103 22.1668C113.535 23.9556 115.534 24.85 118.052 24.85C119.225 24.85 120.224 24.6617 121.136 24.2851C122.048 23.9086 122.829 23.3437 123.568 22.6375C124.306 21.9314 124.914 20.9899 125.479 19.813ZM122.612 11.575C123.134 12.2812 123.525 13.1755 123.785 14.3524V14.3995H112.232C112.667 12.8461 113.275 11.6692 114.057 10.916C115.143 9.83326 116.446 9.31545 117.966 9.31545C118.877 9.31545 119.789 9.50375 120.615 9.92741C121.44 10.3511 122.091 10.8689 122.612 11.575Z" fill="black" stroke="black" stroke-width="0.6"/>
</svg>
