<svg width="110" height="31" viewBox="0 0 110 31" fill="none" xmlns="http://www.w3.org/2000/svg">
<path d="M15.7903 5.31271L16.0425 5.08559C14.5681 3.97719 12.7599 3.37134 10.8967 3.36133C8.66139 3.36625 6.5187 4.23069 4.93578 5.76631C3.35287 7.30193 2.45805 9.38427 2.44641 11.5593C2.42751 12.7052 2.65376 13.8425 3.11082 14.8989C3.56787 15.9553 4.24572 16.9075 5.10124 17.6954L7.29586 19.8613C7.14134 19.0191 7.0716 18.1643 7.08776 17.3087C7.15833 15.5029 7.79667 13.7618 8.91651 12.3201C11.0595 9.85075 13.3551 7.5106 15.7903 5.31271Z" fill="#AFCECB"/>
<path d="M21.2863 12.2715C21.4539 12.0892 21.6279 11.9129 21.7956 11.7367C23.3612 10.1262 24.5974 8.85588 24.5974 5.28239C24.5149 3.80489 23.9706 2.38768 23.038 1.22266L17.5587 6.49181C17.3848 6.66197 17.1176 6.91117 16.7821 7.22111C14.4528 9.3171 12.2557 11.5496 10.2032 13.9064C9.40697 14.9705 8.94114 16.2364 8.86133 17.5529C8.86133 19.7103 9.07872 21.5762 11.7873 24.1955L13.1478 25.5143C13.0801 25.0412 13.0469 24.5639 13.0486 24.0862C13.0486 19.7711 15.9311 17.1821 18.7205 14.6843C19.5778 13.9306 20.4723 13.1223 21.2863 12.2715Z" fill="#AFCECB"/>
<path d="M20.0661 15.7151C17.4807 18.1409 15.2782 20.1846 15.2782 23.599C15.249 25.5419 15.941 27.4251 17.2173 28.8752C19.9644 26.1523 24.5607 21.519 28.4929 17.4616C29.3037 16.6822 29.9461 15.7406 30.3799 14.6968C30.8134 13.653 31.029 12.5294 31.0125 11.397C31.0125 9.34113 29.8813 6.96982 27.9841 5.0655L27.4516 4.5319L26.853 3.92541L26.2843 3.36133C26.3792 3.83242 26.4275 4.31184 26.4281 4.79266C26.4281 9.17729 24.7702 10.9421 23.1723 12.6463L22.6935 13.1557C21.8257 14.0776 20.928 14.9084 20.0661 15.7151Z" fill="#AFCECB"/>
<path d="M39.8494 6.49827V20.1089H38.4219V6.49827H39.8494ZM43.9931 8.27782V20.0698H42.5851V6.49827H44.5406L51.5806 17.6449V6.49827H53.0082V20.0894H51.4828L43.9931 8.27782ZM54.5781 20.0894V6.32227H62.4199V7.73027H56.0057V12.7169H61.7159V14.0076H55.9861V20.0698L54.5781 20.0894ZM71.5415 18.7009V20.0698H63.9931V6.42004H65.4206V18.7009H71.5415ZM82.8307 14.9267C82.8307 15.409 82.7916 15.8719 82.7134 16.3152C82.6481 16.7584 82.5048 17.2343 82.2831 17.7427C82.0746 18.2512 81.7943 18.6879 81.4423 19.0529C81.1033 19.4179 80.6275 19.7244 80.0147 19.972C79.4019 20.2197 78.6915 20.3436 77.8832 20.3436C77.0488 20.3436 76.3121 20.2197 75.6734 19.972C75.0346 19.7113 74.5326 19.3919 74.1676 19.0138C73.8026 18.6357 73.5027 18.1991 73.268 17.7036C73.0464 17.1952 72.8965 16.7324 72.8183 16.3152C72.753 15.8979 72.7205 15.4808 72.7205 15.0636V6.47871H74.1872V15.2787C74.1872 16.3738 74.5262 17.2799 75.204 17.9969C75.8819 18.7009 76.7489 19.0529 77.8049 19.0529C78.8348 19.0529 79.6823 18.7075 80.3471 18.0165C81.025 17.3125 81.364 16.4325 81.364 15.3765V6.49827H82.8307V14.9267ZM84.3889 20.0503V6.47871H92.1916V7.80849H85.7773V12.5018H91.5658V13.9098H85.7578V18.6618H92.2307V20.0503H84.3889ZM94.1858 20.0503V6.40049H98.84C99.9872 6.40049 100.959 6.7916 101.754 7.57382C102.562 8.34301 102.966 9.28168 102.966 10.3898C102.966 11.0026 102.842 11.5566 102.595 12.052C102.347 12.5344 102.028 12.919 101.636 13.2058C101.258 13.4796 100.874 13.6947 100.483 13.8512C100.092 14.0076 99.707 14.0989 99.3289 14.1249L103.475 20.0698H101.695L98.0187 14.3987H95.6133V20.0894L94.1858 20.0503ZM98.6835 13.0885C99.544 13.0885 100.241 12.8408 100.776 12.3454C101.324 11.8369 101.597 11.1851 101.597 10.3898C101.597 9.62063 101.317 8.98182 100.756 8.47338C100.209 7.9519 99.531 7.69115 98.7226 7.69115H95.6329V13.0885H98.6835ZM106.079 6.49827V20.1089H104.651V6.49827H106.079Z" fill="#AFCECB"/>
</svg>
