<svg width="125" height="20" viewBox="0 0 125 20" fill="none" xmlns="http://www.w3.org/2000/svg">
<path d="M119.58 17.2728C119.58 15.7343 120.797 14.5701 122.29 14.5701C123.833 14.5701 125 15.7426 125 17.2728C125 18.8029 123.824 19.9838 122.29 19.9838C120.797 19.9754 119.58 18.8029 119.58 17.2728Z" fill="url(#paint0_linear_1513_1460)"/>
<path d="M47.2368 1.67986H44.7606V4.20793C44.7606 5.13932 44.2851 5.86281 43.1846 5.86281H42.1423V8.14136H44.5936V14.6944C44.5936 17.6466 45.9445 19.7006 49.9219 19.7006H52.5319V17.2557H49.88C48.1625 17.2557 47.2285 16.5821 47.2285 14.7526V8.14136H52.5319V5.86281H47.2368V1.67986ZM33.5453 5.58839C29.4595 5.58839 26.2158 8.51559 26.2158 12.7817C26.2158 17.0811 29.4595 19.975 33.5453 19.975C37.6311 19.975 40.8749 17.0811 40.8749 12.7817C40.8749 8.50727 37.6394 5.58839 33.5453 5.58839ZM33.5453 17.5883C30.927 17.5883 28.9258 15.6507 28.9258 12.7817C28.9258 9.94596 30.927 7.95011 33.5453 7.95011C36.1635 7.95011 38.1647 9.94596 38.1647 12.7817C38.1731 15.6507 36.1719 17.5883 33.5453 17.5883ZM115.878 8.14136V5.86281H110.584V1.67986H108.107V4.20793C108.107 5.13932 107.624 5.86281 106.531 5.86281H105.48V8.14136H107.932V14.6944C107.932 17.6466 109.283 19.7006 113.26 19.7006H115.878V17.2557H113.235C111.518 17.2557 110.584 16.5821 110.584 14.7526V8.14136H115.878ZM11.3902 15.9251H11.1651L4.59444 0.299405H0V19.6923H2.67662V3.19337H2.92677L9.88933 19.7172H12.5409L19.4784 3.1601H19.7036V19.684H22.5219V0.299405H17.9025L11.3902 15.9251ZM62.5212 10.869L67.5908 5.86281H64.2973L59.9528 10.1954L58.202 12.1081H57.8934V0.299405H55.2416V19.6923H57.8934V15.3597L60.4033 12.8565H60.6533L65.1644 19.684H68.2664L62.5129 11.1102V10.869H62.5212ZM97.1754 4.68193V5.86281H94.4404V8.14136H97.1754V19.6923H99.8269V8.14136H104.221V5.86281H99.8269V4.63203C99.8269 3.06031 100.811 2.16219 102.787 2.16219C103.546 2.16219 104.48 2.24535 105.072 2.44493V0.282773C104.28 0.116454 103.412 3.05807e-05 102.479 3.05807e-05C99.1766 -0.00828562 97.1754 1.67986 97.1754 4.68193ZM91.7055 16.3077V10.4699C91.7055 10.2536 91.6972 10.0457 91.6722 9.84615C91.5805 7.1102 89.6624 5.59668 86.2272 5.59668C83.8839 5.59668 81.7909 6.51146 80.5987 8.05824L80.8404 8.29108L82.2249 9.58838C83.0002 8.62373 84.0176 8.05824 85.2431 7.88359C85.5101 7.85034 85.7767 7.82536 86.0603 7.82536C86.302 7.82536 86.5275 7.83369 86.7359 7.85862C88.6786 8.03327 89.1204 8.94805 89.1204 9.72973C89.1204 9.84614 89.1038 9.96256 89.0872 10.0707C89.0204 10.4283 88.8621 10.7193 88.5785 10.9522C88.0117 11.4096 86.9943 11.6258 85.4349 11.6341C85.3934 11.6341 85.3598 11.6341 85.3182 11.6341C83.8091 11.6341 82.5247 11.9667 81.5825 12.5905C80.4986 13.3139 79.9484 14.395 79.9484 15.7921C79.9484 16.4241 80.0568 16.9979 80.2652 17.4969C80.4654 18.0291 80.7822 18.4781 81.2075 18.8357C82.0413 19.5842 83.2502 20 84.7597 20C88.3285 20 89.8067 18.0857 89.8067 18.0857L89.3958 16.6736V17.1393C89.3958 18.7858 90.4298 19.6091 91.9891 19.7089C92.0975 19.7172 92.1976 19.7172 92.3143 19.7172C92.9729 19.7172 94.4404 19.7172 94.4404 19.7172V17.6382H92.9729C92.1805 17.6299 91.7055 17.3222 91.7055 16.3077ZM89.137 14.1705C89.137 16.6486 87.0694 17.8711 85.0346 17.8711C84.8598 17.8711 84.7011 17.8628 84.5429 17.8461C83.7174 17.7048 83.1169 17.3056 82.8083 16.7069C82.6667 16.4241 82.5916 16.0998 82.5916 15.7339C82.5916 14.5281 83.4337 13.7547 84.8764 13.5967C85.0599 13.58 85.2597 13.5634 85.4598 13.5634C87.5611 13.5634 88.4452 13.2391 88.9456 12.6653H89.137V14.1705ZM73.1442 8.37424H72.9524V5.88774H70.3341V19.7172H72.986V11.9501C72.986 9.67154 74.1699 8.15801 77.2134 8.15801H78.7059V5.88774H77.6303C75.287 5.88774 73.6446 6.68607 73.1442 8.37424Z" fill="#1E2828"/>
<defs>
<linearGradient id="paint0_linear_1513_1460" x1="119.515" y1="14.5701" x2="126.044" y2="17.3925" gradientUnits="userSpaceOnUse">
<stop offset="0.24" stop-color="#213C3A"/>
<stop offset="0.89" stop-color="#60D7AD"/>
</linearGradient>
</defs>
</svg>
