<svg width="117" height="30" viewBox="0 0 117 30" fill="none" xmlns="http://www.w3.org/2000/svg">
<path d="M15.0659 4.7895L15.3507 4.55131C13.6861 3.38891 11.6448 2.75354 9.54126 2.74304C7.0177 2.7482 4.59869 3.65476 2.81164 5.26519C1.02459 6.87563 0.0143775 9.05942 0.00123452 11.3404C-0.0201013 12.5421 0.235324 13.7349 0.751333 14.8428C1.26732 15.9506 2.03258 16.9492 2.99844 17.7755L5.47608 20.0469C5.30163 19.1636 5.22289 18.2672 5.24114 17.3699C5.32081 15.4761 6.04147 13.6502 7.30573 12.1383C9.72511 9.54863 12.3167 7.09447 15.0659 4.7895Z" fill="#424343"/>
<path d="M21.2714 12.0871C21.4606 11.8959 21.6571 11.711 21.8465 11.5263C23.6139 9.83733 25.0096 8.50511 25.0096 4.75752C24.9164 3.20804 24.3019 1.72178 23.2491 0.5L17.0631 6.02587C16.8668 6.20432 16.5651 6.46566 16.1864 6.7907C13.5567 8.9888 11.0763 11.33 8.75901 13.8017C7.86015 14.9176 7.33424 16.2453 7.24414 17.6259C7.24414 19.8884 7.48956 21.8451 10.5475 24.5921L12.0834 25.9752C12.007 25.479 11.9695 24.9784 11.9714 24.4774C11.9714 19.9521 15.2257 17.237 18.3748 14.6175C19.3426 13.8271 20.3524 12.9794 21.2714 12.0871Z" fill="#424343"/>
<path d="M19.8951 15.6987C16.9762 18.2427 14.4898 20.386 14.4898 23.9667C14.4568 26.0043 15.238 27.9792 16.6789 29.5C19.7802 26.6444 24.9693 21.7853 29.4086 17.5303C30.3239 16.7129 31.0492 15.7254 31.5389 14.6308C32.0284 13.5361 32.2718 12.3578 32.2531 11.1702C32.2531 9.01418 30.9761 6.52734 28.8342 4.53024L28.233 3.97064L27.5572 3.33461L26.9152 2.74304C27.0223 3.23708 27.0768 3.73986 27.0775 4.24411C27.0775 8.84236 25.2058 10.6932 23.4018 12.4804L22.8613 13.0146C21.8816 13.9814 20.8681 14.8527 19.8951 15.6987Z" fill="#424343"/>
<path d="M42.2298 6.03211V20.3059H40.6182V6.03211H42.2298ZM46.9078 7.89836V20.2649H45.3182V6.03211H47.526L55.4739 17.7218V6.03211H57.0855V20.2854H55.3635L46.9078 7.89836ZM58.8579 20.2854V5.84753H67.711V7.32413H60.4696V12.5538H66.9162V13.9073H60.4475V20.2649L58.8579 20.2854ZM78.0089 18.8293V20.2649H69.487V5.95008H71.0987V18.8293H78.0089ZM90.754 14.8712C90.754 15.377 90.7098 15.8625 90.6215 16.3273C90.5479 16.7921 90.3861 17.2912 90.1358 17.8244C89.9004 18.3576 89.5839 18.8157 89.1865 19.1984C88.8037 19.5812 88.2666 19.9026 87.5748 20.1623C86.883 20.4221 86.081 20.552 85.1684 20.552C84.2265 20.552 83.3948 20.4221 82.6736 20.1623C81.9525 19.8888 81.3857 19.554 80.9737 19.1574C80.5616 18.7609 80.223 18.303 79.9581 17.7834C79.7078 17.2502 79.5386 16.7648 79.4503 16.3273C79.3767 15.8897 79.3399 15.4523 79.3399 15.0147V6.0116H80.9957V15.2403C80.9957 16.3888 81.3785 17.3391 82.1438 18.091C82.9091 18.8293 83.8879 19.1984 85.0801 19.1984C86.2428 19.1984 87.1995 18.8362 87.9501 18.1115C88.7154 17.3732 89.0982 16.4503 89.0982 15.3429V6.03211H90.754V14.8712ZM92.5131 20.2444V6.0116H101.322V7.40617H94.0806V12.3282H100.616V13.8048H94.0585V18.7883H101.366V20.2444H92.5131ZM103.573 20.2444V5.92957H108.828C110.123 5.92957 111.22 6.33973 112.117 7.16007C113.03 7.96673 113.486 8.95113 113.486 10.1133C113.486 10.7559 113.346 11.3369 113.067 11.8565C112.787 12.3623 112.426 12.7657 111.985 13.0665C111.558 13.3536 111.124 13.5792 110.682 13.7432C110.241 13.9073 109.807 14.003 109.38 14.0303L114.06 20.2649H112.051L107.901 14.3175H105.185V20.2854L103.573 20.2444ZM108.651 12.9434C109.623 12.9434 110.41 12.6836 111.013 12.1641C111.632 11.6309 111.941 10.9473 111.941 10.1133C111.941 9.3066 111.624 8.63666 110.991 8.10345C110.373 7.55657 109.608 7.28312 108.695 7.28312H105.207V12.9434H108.651ZM117 6.03211V20.3059H115.388V6.03211H117Z" fill="#424343"/>
</svg>
