<svg width="27" height="24" viewBox="0 0 27 24" fill="none" xmlns="http://www.w3.org/2000/svg">
<path opacity="0.911" fill-rule="evenodd" clip-rule="evenodd" d="M11.0879 0.00625764C11.2828 -0.0185432 11.454 0.0303761 11.6015 0.153008C11.6704 0.465947 11.6949 0.783912 11.6749 1.10689C12.1885 1.10689 12.7021 1.10689 13.2158 1.10689C13.2037 0.836742 13.2158 0.567696 13.2525 0.299759C13.3765 0.0273384 13.5845 -0.0582686 13.8762 0.0429453C13.9643 0.109167 14.0255 0.194774 14.0596 0.299759C14.0962 0.567696 14.1084 0.836742 14.0963 1.10689C14.6099 1.10689 15.1235 1.10689 15.6372 1.10689C15.625 0.787991 15.6372 0.470034 15.6738 0.153008C15.976 -0.0738756 16.2206 -0.0249635 16.4076 0.299759C16.4442 0.567696 16.4564 0.836742 16.4443 1.10689C17.2654 1.12542 17.779 1.52898 17.9852 2.31758C18.3276 2.34204 18.67 2.3665 19.0124 2.39096C19.2709 2.59594 19.2954 2.82829 19.0858 3.08802C18.7237 3.15755 18.3568 3.18202 17.9852 3.1614C17.9852 3.67502 17.9852 4.18865 17.9852 4.70228C18.3285 4.69011 18.6709 4.70234 19.0124 4.73897C19.3048 4.98703 19.3048 5.23161 19.0124 5.47272C18.6709 5.50934 18.3285 5.52159 17.9852 5.50941C17.9852 6.02304 17.9852 6.53666 17.9852 7.05029C18.3529 7.03811 18.7197 7.05036 19.0858 7.08698C19.3177 7.39515 19.2688 7.63971 18.9391 7.82073C18.622 7.85735 18.3041 7.8696 17.9852 7.85742C18.0993 8.8788 17.659 9.49024 16.6644 9.6918C16.6766 10.0107 16.6643 10.3286 16.6277 10.6457C16.4445 10.7908 16.2366 10.8275 16.004 10.7557C15.9581 10.7007 15.9214 10.6395 15.894 10.5723C15.8574 10.2798 15.8451 9.98633 15.8573 9.6918C15.3437 9.6918 14.83 9.6918 14.3164 9.6918C14.3286 10.0107 14.3163 10.3286 14.2797 10.6457C14.0352 10.8414 13.7905 10.8414 13.546 10.6457C13.5093 10.3286 13.4971 10.0107 13.5093 9.6918C12.9712 9.6918 12.4331 9.6918 11.895 9.6918C11.9072 10.0107 11.8949 10.3286 11.8583 10.6457C11.5896 10.8536 11.345 10.8291 11.1246 10.5723C11.088 10.2798 11.0757 9.98633 11.0879 9.6918C9.80221 9.75131 9.2152 9.13987 9.32688 7.85742C8.9104 7.8696 8.49459 7.85735 8.0795 7.82073C7.786 7.57617 7.786 7.33154 8.0795 7.08698C8.49459 7.05036 8.9104 7.03811 9.32688 7.05029C9.32688 6.53666 9.32688 6.02304 9.32688 5.50941C8.88597 5.52159 8.44572 5.50934 8.00613 5.47272C7.77925 5.17056 7.82819 4.92599 8.15288 4.73897C8.54345 4.70232 8.93476 4.6901 9.32688 4.70228C9.32688 4.18865 9.32688 3.67502 9.32688 3.1614C8.88597 3.17359 8.44572 3.16136 8.00613 3.12471C7.7915 2.85351 7.81594 2.60893 8.0795 2.39096C8.49459 2.35431 8.9104 2.34208 9.32688 2.35427C9.50871 1.53711 10.0223 1.12132 10.8678 1.10689C10.8556 0.787991 10.8678 0.470034 10.9045 0.153008C10.9775 0.111485 11.0386 0.0625659 11.0879 0.00625764ZM10.5009 1.98739C12.6045 1.97517 14.7079 1.98739 16.8112 2.02408C16.981 2.10548 17.0911 2.24 17.1414 2.42764C17.1903 4.40878 17.1903 6.38991 17.1414 8.37105C17.116 8.54333 17.0303 8.67783 16.8845 8.77461C14.7856 8.89509 12.6822 8.91953 10.5743 8.84799C10.4184 8.76566 10.2839 8.6556 10.1707 8.5178C10.1218 6.46329 10.1218 4.40878 10.1707 2.35427C10.2459 2.1938 10.356 2.07151 10.5009 1.98739Z" fill="url(#paint0_linear_1941_1146)"/>
<path opacity="0.848" fill-rule="evenodd" clip-rule="evenodd" d="M15.1946 3.30761C15.8293 3.22036 16.0494 3.47717 15.855 4.07805C15.5601 4.23658 15.2788 4.22435 15.0112 4.04136C14.8703 3.74303 14.9314 3.49844 15.1946 3.30761Z" fill="url(#paint1_linear_1941_1146)"/>
<path opacity="0.9" fill-rule="evenodd" clip-rule="evenodd" d="M12.4515 3.45475C12.6792 3.42936 12.887 3.47828 13.0752 3.6015C13.5924 4.58687 14.0693 5.58968 14.5061 6.60989C14.3644 7.0541 14.0953 7.15198 13.6989 6.90339C13.6104 6.71415 13.5126 6.53072 13.4054 6.35307C12.8924 6.31639 12.3788 6.30421 11.8645 6.31639C11.841 6.70894 11.6453 6.95358 11.2775 7.05014C10.8894 6.99115 10.7549 6.77102 10.874 6.38976C11.3342 5.49378 11.7744 4.58882 12.1947 3.67487C12.2787 3.59149 12.3644 3.51811 12.4515 3.45475ZM12.5983 4.70213C12.5118 4.99802 12.3895 5.2793 12.2314 5.54595C12.5249 5.59489 12.8184 5.59489 13.1119 5.54595C12.9687 5.29984 12.8464 5.04303 12.745 4.7755C12.7115 4.71699 12.6626 4.69252 12.5983 4.70213Z" fill="url(#paint2_linear_1941_1146)"/>
<path opacity="0.904" fill-rule="evenodd" clip-rule="evenodd" d="M3.16158 3.74809C4.48527 3.68425 5.78152 3.84323 7.05047 4.22503C7.55427 4.55855 7.52983 4.83982 6.9771 5.06885C5.83053 4.70653 4.65653 4.53532 3.45508 4.55522C3.44283 8.81107 3.45508 13.0668 3.49177 17.3225C6.2181 18.0195 8.77406 19.1078 11.1595 20.5877C11.8408 21.0448 12.4889 21.5462 13.1039 22.0919C13.1155 18.7649 13.1644 15.4385 13.2507 12.1129C13.5589 11.881 13.8034 11.9299 13.9844 12.2596C13.9708 15.6841 13.983 19.1083 14.0211 22.5322C16.8809 20.2525 20.0971 18.6627 23.67 17.7628C23.7189 13.5315 23.7189 9.30019 23.67 5.06885C22.6939 4.99961 21.7278 5.09747 20.7717 5.36235C20.5196 5.34269 20.3729 5.20819 20.3314 4.95879C20.3302 4.78964 20.4036 4.66736 20.5515 4.59191C21.6544 4.2645 22.7794 4.14221 23.9268 4.22503C24.2401 4.31825 24.4236 4.52614 24.4771 4.84872C24.5016 5.41129 24.5261 5.97379 24.5505 6.53636C25.1189 6.44002 25.6936 6.40333 26.2748 6.42629C26.6102 6.54171 26.8181 6.77409 26.8985 7.12336C26.9708 11.5781 26.9463 16.0295 26.8251 20.4777C26.7031 20.655 26.5442 20.7895 26.3482 20.8812C22.6008 21.0486 18.9809 21.8068 15.4886 23.1559C18.7171 23.1926 21.9456 23.2048 25.1742 23.1926C25.162 22.605 25.1742 22.018 25.2109 21.4316C25.3919 21.1018 25.6364 21.0529 25.9446 21.2848C26.0893 22.0176 26.0893 22.7514 25.9446 23.4861C25.8346 23.6939 25.6756 23.8529 25.4677 23.963C17.5431 24.0119 9.61861 24.0119 1.69407 23.963C1.4128 23.8774 1.22936 23.6939 1.14376 23.4127C1.09484 22.6056 1.09484 21.7984 1.14376 20.9913C1.35976 20.6628 1.60434 20.6383 1.87751 20.9179C1.91418 21.6757 1.92641 22.4339 1.9142 23.1926C5.50966 23.2048 9.10506 23.1926 12.7004 23.1559C8.93915 21.5035 5.00139 20.5985 0.886943 20.441C0.551551 20.3256 0.343649 20.0932 0.263252 19.7439C0.214333 15.3903 0.214333 11.0367 0.263252 6.68311C0.334492 6.36671 0.517931 6.13441 0.813567 5.98604C1.42525 5.9633 2.03671 5.97555 2.64795 6.02273C2.63577 5.45965 2.64795 4.89711 2.68464 4.3351C2.78039 4.08112 2.93932 3.88545 3.16158 3.74809ZM10.7926 21.4316C7.64599 20.4016 4.41747 19.8146 1.10707 19.6705C1.10707 15.3658 1.10707 11.0612 1.10707 6.75648C1.5994 6.78679 2.08857 6.83573 2.57458 6.90323C2.61229 10.5271 2.67341 14.147 2.75801 17.7628C2.90022 17.954 3.08365 18.0885 3.30833 18.1664C6.01096 18.8093 8.50573 19.8976 10.7926 21.4316ZM16.3691 21.8718C18.7334 20.3236 21.3016 19.2108 24.0736 18.5332C24.2081 18.4476 24.3181 18.3375 24.4037 18.203C24.5128 14.5875 24.5495 10.9677 24.5138 7.34349C25.0287 7.30203 25.5423 7.25309 26.0547 7.19674C26.0547 11.5014 26.0547 15.8061 26.0547 20.1108C22.7474 20.2733 19.5189 20.8603 16.3691 21.8718Z" fill="url(#paint3_linear_1941_1146)"/>
<path opacity="0.884" fill-rule="evenodd" clip-rule="evenodd" d="M15.2701 4.48256C15.5529 4.43453 15.7608 4.53237 15.8938 4.77607C15.9427 5.46088 15.9427 6.14576 15.8938 6.83058C15.6003 7.12408 15.3068 7.12408 15.0133 6.83058C14.9643 6.12126 14.9643 5.41201 15.0133 4.70269C15.0973 4.61931 15.1829 4.54593 15.2701 4.48256Z" fill="url(#paint4_linear_1941_1146)"/>
<path opacity="0.889" fill-rule="evenodd" clip-rule="evenodd" d="M5.50971 11.4523C7.96874 11.3662 10.1578 12.0755 12.0768 13.5802C12.2379 14.0798 12.0545 14.2878 11.5265 14.2039C9.77062 12.9012 7.78948 12.2408 5.58309 12.2228C5.32224 11.99 5.29773 11.7332 5.50971 11.4523Z" fill="url(#paint5_linear_1941_1146)"/>
<path opacity="0.89" fill-rule="evenodd" clip-rule="evenodd" d="M20.6257 11.4528C21.0178 11.4406 21.4091 11.4529 21.7997 11.4895C22.0932 11.734 22.0932 11.9787 21.7997 12.2232C19.9993 12.2392 18.3116 12.6794 16.7368 13.544C16.4225 13.7359 16.129 13.956 15.8563 14.2044C15.3472 14.3555 15.1393 14.1721 15.2326 13.6541C16.1992 12.7975 17.3121 12.1983 18.5712 11.8564C19.2586 11.6809 19.9434 11.5464 20.6257 11.4528Z" fill="url(#paint6_linear_1941_1146)"/>
<path opacity="0.89" fill-rule="evenodd" clip-rule="evenodd" d="M5.06879 15.4886C7.25259 15.4056 9.25823 15.9559 11.0856 17.1396C11.2896 17.2725 11.473 17.4315 11.6359 17.6165C11.8005 18.1129 11.617 18.3208 11.0856 18.2402C9.36029 16.9232 7.40367 16.2628 5.21554 16.2591C4.88667 16.0594 4.83773 15.8025 5.06879 15.4886Z" fill="url(#paint7_linear_1941_1146)"/>
<path opacity="0.891" fill-rule="evenodd" clip-rule="evenodd" d="M20.9183 15.488C21.3837 15.4758 21.8484 15.488 22.3125 15.5247C22.5308 15.8251 22.4819 16.0696 22.1657 16.2584C20.4801 16.2701 18.8904 16.6615 17.3963 17.4324C16.9903 17.6477 16.6234 17.9167 16.2957 18.2395C15.7549 18.3471 15.5593 18.1392 15.7087 17.6158C16.7275 16.7273 17.9015 16.128 19.2307 15.8182C19.8003 15.6909 20.3628 15.5809 20.9183 15.488Z" fill="url(#paint8_linear_1941_1146)"/>
<defs>
<linearGradient id="paint0_linear_1941_1146" x1="7.72314" y1="-4.21313e-07" x2="21.1928" y2="6.12961" gradientUnits="userSpaceOnUse">
<stop offset="0.11" stop-color="#60D7AD"/>
<stop offset="0.76" stop-color="#213C3A"/>
</linearGradient>
<linearGradient id="paint1_linear_1941_1146" x1="14.9257" y1="3.29102" x2="16.0762" y2="3.83689" gradientUnits="userSpaceOnUse">
<stop offset="0.11" stop-color="#60D7AD"/>
<stop offset="0.76" stop-color="#213C3A"/>
</linearGradient>
<linearGradient id="paint2_linear_1941_1146" x1="10.788" y1="3.44824" x2="15.1871" y2="5.38609" gradientUnits="userSpaceOnUse">
<stop offset="0.11" stop-color="#60D7AD"/>
<stop offset="0.76" stop-color="#213C3A"/>
</linearGradient>
<linearGradient id="paint3_linear_1941_1146" x1="-0.0934297" y1="3.73437" x2="28.7504" y2="20.1538" gradientUnits="userSpaceOnUse">
<stop offset="0.11" stop-color="#60D7AD"/>
<stop offset="0.76" stop-color="#213C3A"/>
</linearGradient>
<linearGradient id="paint4_linear_1941_1146" x1="14.9651" y1="4.4707" x2="16.295" y2="4.68306" gradientUnits="userSpaceOnUse">
<stop offset="0.11" stop-color="#60D7AD"/>
<stop offset="0.76" stop-color="#213C3A"/>
</linearGradient>
<linearGradient id="paint5_linear_1941_1146" x1="5.28614" y1="11.4453" x2="9.87625" y2="16.2758" gradientUnits="userSpaceOnUse">
<stop offset="0.11" stop-color="#60D7AD"/>
<stop offset="0.76" stop-color="#213C3A"/>
</linearGradient>
<linearGradient id="paint6_linear_1941_1146" x1="15.1294" y1="11.4482" x2="19.7713" y2="16.3103" gradientUnits="userSpaceOnUse">
<stop offset="0.11" stop-color="#60D7AD"/>
<stop offset="0.76" stop-color="#213C3A"/>
</linearGradient>
<linearGradient id="paint7_linear_1941_1146" x1="4.8447" y1="15.4805" x2="9.43468" y2="20.3125" gradientUnits="userSpaceOnUse">
<stop offset="0.11" stop-color="#60D7AD"/>
<stop offset="0.76" stop-color="#213C3A"/>
</linearGradient>
<linearGradient id="paint8_linear_1941_1146" x1="15.5789" y1="15.4834" x2="20.1804" y2="20.328" gradientUnits="userSpaceOnUse">
<stop offset="0.11" stop-color="#60D7AD"/>
<stop offset="0.76" stop-color="#213C3A"/>
</linearGradient>
</defs>
</svg>
