<svg width="29" height="24" viewBox="0 0 29 24" fill="none" xmlns="http://www.w3.org/2000/svg">
<path opacity="0.937" fill-rule="evenodd" clip-rule="evenodd" d="M9.9375 13.4072C10.6327 13.4072 11.3279 13.4072 12.0232 13.4072C12.0232 13.6999 12.0232 13.9927 12.0232 14.2854C11.6207 14.2854 11.2181 14.2854 10.8157 14.2854C10.8157 14.4867 10.8157 14.6879 10.8157 14.8891C11.1999 14.8891 11.5841 14.8891 11.9683 14.8891C11.9683 15.1818 11.9683 15.4746 11.9683 15.7673C11.5841 15.7673 11.1999 15.7673 10.8157 15.7673C10.8157 15.9502 10.8157 16.1332 10.8157 16.3162C11.2181 16.3162 11.6207 16.3162 12.0232 16.3162C12.0232 16.6089 12.0232 16.9016 12.0232 17.1943C11.3279 17.1943 10.6327 17.1943 9.9375 17.1943C9.9375 15.932 9.9375 14.6696 9.9375 13.4072Z" fill="url(#paint0_linear_1956_1182)"/>
<path opacity="0.936" fill-rule="evenodd" clip-rule="evenodd" d="M12.793 13.3989C13.2873 13.3898 13.7812 13.3989 14.2749 13.4264C15.1938 13.7549 15.459 14.3678 15.0707 15.265C14.9104 15.4622 14.7183 15.6177 14.4944 15.7316C14.7482 16.0769 15.0226 16.4062 15.3177 16.7195C15.1084 16.9246 14.8889 17.1167 14.6591 17.2958C14.3098 16.9557 13.9896 16.5898 13.6986 16.1981C13.6712 16.5269 13.662 16.8562 13.6711 17.186C13.3784 17.186 13.0857 17.186 12.793 17.186C12.793 15.9237 12.793 14.6613 12.793 13.3989ZM13.6711 14.2771C13.6711 14.4966 13.6711 14.7162 13.6711 14.9357C13.9888 15.0051 14.2266 14.9045 14.3847 14.6338C14.2562 14.3135 14.0184 14.1945 13.6711 14.2771Z" fill="url(#paint1_linear_1956_1182)"/>
<path opacity="0.942" fill-rule="evenodd" clip-rule="evenodd" d="M16.0859 13.3989C16.6566 13.377 17.2238 13.4044 17.7874 13.4812C18.5893 13.911 18.7996 14.5422 18.4186 15.3748C18.0451 15.8439 17.5603 16.0269 16.9641 15.9236C16.9641 16.3444 16.9641 16.7652 16.9641 17.186C16.6714 17.186 16.3786 17.186 16.0859 17.186C16.0859 15.9236 16.0859 14.6613 16.0859 13.3989ZM16.9641 14.2771C16.9641 14.5332 16.9641 14.7893 16.9641 15.0455C17.148 15.0545 17.3309 15.0453 17.513 15.018C17.8168 14.7525 17.7985 14.5147 17.4581 14.3045C17.2944 14.2772 17.1298 14.268 16.9641 14.2771Z" fill="url(#paint2_linear_1956_1182)"/>
<path opacity="0.929" fill-rule="evenodd" clip-rule="evenodd" d="M28.3241 10.8275V9.23577C28.0824 7.79475 27.4055 6.59643 26.2933 5.64077C24.8257 4.56934 23.1791 4.13026 21.3536 4.32351C21.0859 3.8336 20.7841 3.3671 20.448 2.92393C18.3707 0.529901 15.7636 -0.394005 12.6268 0.152205C11.8918 0.284106 11.2148 0.54939 10.596 0.948047C9.30622 1.5518 8.01778 2.87676 7.41267 3.93931C5.43889 4.30309 4.26799 5.47402 3.89999 7.45199C1.90347 7.77466 0.677689 8.91809 0.222656 10.8823V12.2545C0.304931 12.5821 0.405555 12.9114 0.524527 13.2424C1.23426 14.7385 2.4143 15.5709 4.06465 15.7397C5.27199 15.7672 6.47945 15.7763 7.6871 15.7672C7.67793 16.5723 7.6871 17.3773 7.71454 18.1821C7.90455 18.6468 8.24298 18.9304 8.72993 19.0329C10.4313 19.0603 12.1327 19.0695 13.8343 19.0603C13.8525 19.6104 13.8342 20.1592 13.7794 20.7069C13.1869 20.8785 12.8209 21.2627 12.6817 21.8595H6.80893C6.65239 21.2181 6.24986 20.8248 5.60145 20.6794C4.69258 20.5346 4.04309 20.8731 3.65301 21.6948C3.3701 23.0142 3.89151 23.7826 5.21725 24C6.05634 23.9568 6.58686 23.536 6.80893 22.7376H12.6817C12.9038 23.536 13.4343 23.9568 14.2734 24C15.1125 23.9568 15.643 23.536 15.8651 22.7376H19.2131V21.8595H15.8651C15.7258 21.2627 15.3599 20.8785 14.7673 20.7069C14.7125 20.1592 14.6942 19.6104 14.7125 19.0603C16.414 19.0695 18.1155 19.0603 19.8168 19.0329C20.3038 18.9304 20.6422 18.6468 20.8322 18.1821C20.8596 17.3773 20.8688 16.5723 20.8596 15.7672C21.7578 15.7852 22.6542 15.7577 23.549 15.6848C26.2064 15.104 27.7981 13.4849 28.3241 10.8275ZM10.8098 1.31967C10.7352 1.19869 10.6639 1.07481 10.596 0.948047C10.6421 1.02115 10.6898 1.10627 10.7391 1.19427C10.7623 1.23575 10.7859 1.27787 10.8098 1.31967ZM10.8098 1.31967C10.8817 1.44511 10.9568 1.56769 11.0351 1.66156C10.9569 1.55029 10.8818 1.43632 10.8098 1.31967ZM11.0351 1.66156C11.0567 1.69385 10.809 1.82116 10.594 1.93166C10.4436 2.00897 10.3092 2.07805 10.2942 2.10064C9.32917 2.80039 8.56993 3.67855 8.01641 4.73515C5.88037 4.96842 4.80093 6.15757 4.77816 8.30272C2.85008 8.24706 1.63345 9.14351 1.12827 10.9921C0.947091 12.8718 1.74293 14.125 3.51579 14.7518C3.71415 14.8036 3.9154 14.8403 4.11953 14.8615C5.30858 14.889 6.49778 14.8982 7.6871 14.889C7.67793 14.0838 7.6871 13.2788 7.71454 12.474C7.85176 12.0441 8.13535 11.7605 8.56527 11.6233L14.2734 11.5959C16.2342 11.5872 18.1918 11.6147 20.1461 11.6782C20.493 11.8421 20.7217 12.1073 20.8322 12.474C20.8596 13.2788 20.8688 14.0838 20.8596 14.889C21.5551 14.8982 22.2503 14.889 22.9453 14.8615C25.3976 14.5497 26.8887 13.1867 27.4185 10.7726C27.6164 8.2857 26.5827 6.53853 24.3174 5.53099C23.9262 5.39054 23.5237 5.29905 23.11 5.25657C22.3226 5.2474 21.5359 5.21996 20.7499 5.17424C19.4634 2.44411 17.3045 0.998788 14.2734 0.838275C13.1293 0.863567 12.05 1.13799 11.0351 1.66156ZM19.7619 12.5015C16.1029 12.474 12.4439 12.4649 8.78481 12.474C8.62811 12.5494 8.54578 12.6775 8.53783 12.8582C8.50122 14.4865 8.50122 16.1147 8.53783 17.743C8.55341 17.9417 8.65402 18.0789 8.8397 18.1547C12.4621 18.1913 16.0846 18.1913 19.707 18.1547C19.8051 18.1116 19.8874 18.0476 19.954 17.9626C20.0438 16.2638 20.0621 14.5623 20.0089 12.8582C20.0124 12.6789 19.93 12.56 19.7619 12.5015ZM5.9582 22.573C6.04948 21.85 5.72929 21.5024 4.9977 21.5301C4.87642 21.5769 4.76665 21.65 4.66839 21.7497C4.36408 22.1561 4.38238 22.5494 4.72328 22.9297C5.25243 23.223 5.66407 23.104 5.9582 22.573ZM15.0143 22.0241C14.8166 21.6256 14.4964 21.4609 14.0538 21.5301C13.8321 21.6378 13.6583 21.8024 13.5324 22.0241C13.4104 22.6401 13.6574 23.006 14.2734 23.1218C14.8894 23.006 15.1363 22.6401 15.0143 22.0241ZM24.9504 22.7373C25.0773 21.2817 24.4095 20.5865 22.9471 20.6517C22.3085 20.8145 21.906 21.217 21.7396 21.8591H19.2148V22.7373H21.7396C21.8576 23.2674 22.1686 23.6425 22.6726 23.8625C23.7817 24.1815 24.5409 23.8065 24.9504 22.7373ZM24.0722 22.0238C23.8745 21.6253 23.5543 21.4606 23.1117 21.5298C22.89 21.6375 22.7162 21.8021 22.5903 22.0238C22.4683 22.6398 22.7153 23.0056 23.3313 23.1215C23.9472 23.0056 24.1942 22.6398 24.0722 22.0238Z" fill="url(#paint3_linear_1956_1182)"/>
<defs>
<linearGradient id="paint0_linear_1956_1182" x1="9.91252" y1="13.4072" x2="12.7347" y2="14.0785" gradientUnits="userSpaceOnUse">
<stop offset="0.11" stop-color="#60D7AD"/>
<stop offset="0.76" stop-color="#213C3A"/>
</linearGradient>
<linearGradient id="paint1_linear_1956_1182" x1="12.7627" y1="13.3955" x2="16.1107" y2="14.3314" gradientUnits="userSpaceOnUse">
<stop offset="0.11" stop-color="#60D7AD"/>
<stop offset="0.76" stop-color="#213C3A"/>
</linearGradient>
<linearGradient id="paint2_linear_1956_1182" x1="16.0558" y1="13.3916" x2="19.3812" y2="14.3442" gradientUnits="userSpaceOnUse">
<stop offset="0.11" stop-color="#60D7AD"/>
<stop offset="0.76" stop-color="#213C3A"/>
</linearGradient>
<linearGradient id="paint3_linear_1956_1182" x1="-0.113975" y1="-9.36907e-07" x2="31.8814" y2="16.179" gradientUnits="userSpaceOnUse">
<stop offset="0.11" stop-color="#60D7AD"/>
<stop offset="0.76" stop-color="#213C3A"/>
</linearGradient>
</defs>
</svg>
