<svg width="34" height="24" viewBox="0 0 34 24" fill="none" xmlns="http://www.w3.org/2000/svg">
<path opacity="0.941" fill-rule="evenodd" clip-rule="evenodd" d="M33.3008 20.0975C33.3008 20.9431 33.3008 21.7886 33.3008 22.6341C33.0464 23.3111 32.5695 23.7555 31.8699 23.9675C21.7236 24.0108 11.5772 24.0108 1.43089 23.9675C0.731343 23.7555 0.254378 23.3111 0 22.6341C0 21.7886 0 20.9431 0 20.0975C0.0982289 20.0107 0.20663 19.9348 0.325203 19.8699C0.714848 19.8375 1.10509 19.8266 1.49593 19.8374C1.48509 14.3089 1.49593 7.28448 1.52845 1.7561C1.64186 0.86231 2.12966 0.28778 2.99187 0.0325219C12.0759 -0.0108406 21.1599 -0.0108406 30.2439 0.0325219C31.0761 0.279533 31.5639 0.832378 31.7073 1.69106C31.7398 7.24117 31.7507 14.2872 31.7398 19.8374C32.1523 19.8266 32.5642 19.8374 32.9756 19.8699C33.0942 19.9348 33.2026 20.0107 33.3008 20.0975ZM3.25203 1.04065C12.1626 1.02981 21.0732 1.04065 29.9837 1.07317C30.2917 1.14263 30.4977 1.32689 30.6016 1.62602C30.6341 7.19778 30.645 14.2656 30.6341 19.8374C27.0568 19.8265 23.4796 19.8374 19.9024 19.8699C19.7615 19.9241 19.6639 20.0216 19.6097 20.1626C19.5774 20.3565 19.5665 20.5517 19.5772 20.748C17.6043 20.748 15.6314 20.748 13.6585 20.748C13.6693 20.5517 13.6584 20.3565 13.626 20.1626C13.5718 20.0216 13.4743 19.9241 13.3333 19.8699C9.75616 19.8374 6.17892 19.8265 2.60162 19.8374C2.59078 14.2656 2.60162 7.19778 2.63414 1.62602C2.74959 1.32605 2.95556 1.13093 3.25203 1.04065ZM1.04065 20.878C4.89972 20.878 8.75882 20.878 12.6179 20.878C12.6071 21.0743 12.618 21.2694 12.6504 21.4634C12.7112 21.6326 12.8304 21.7302 13.0081 21.7561C15.4146 21.7995 17.8211 21.7995 20.2276 21.7561C20.4053 21.7302 20.5245 21.6326 20.5854 21.4634C20.6177 21.2694 20.6286 21.0743 20.6179 20.878C24.4986 20.878 28.3794 20.878 32.2601 20.878C32.2709 21.3772 32.2601 21.8758 32.2276 22.374C32.1237 22.6731 31.9177 22.8574 31.6097 22.9268C21.6369 22.9702 11.6639 22.9702 1.69106 22.9268C1.38307 22.8574 1.17711 22.6731 1.07317 22.374C1.04067 21.8758 1.02983 21.3772 1.04065 20.878Z" fill="url(#paint0_linear_1941_1143)"/>
<path opacity="0.874" fill-rule="evenodd" clip-rule="evenodd" d="M26.3417 21.2716C26.8609 21.2382 27.1102 21.4766 27.0896 21.9871C26.9696 22.4095 26.6986 22.5505 26.2766 22.4098C26.1605 22.3588 26.0629 22.283 25.9839 22.1822C25.8548 21.762 25.974 21.4585 26.3417 21.2716Z" fill="url(#paint1_linear_1941_1143)"/>
<path opacity="0.877" fill-rule="evenodd" clip-rule="evenodd" d="M28.8799 21.2715C29.4315 21.2919 29.6591 21.5737 29.5628 22.117C29.3744 22.4198 29.1034 22.5173 28.7498 22.4097C28.4526 22.2444 28.355 21.9951 28.4571 21.6617C28.5505 21.4704 28.6914 21.3403 28.8799 21.2715Z" fill="url(#paint2_linear_1941_1143)"/>
<path opacity="0.926" fill-rule="evenodd" clip-rule="evenodd" d="M16.0251 3.64258C16.3871 3.64388 16.734 3.71978 17.0657 3.87022C20.2961 5.06261 23.5264 6.25506 26.7568 7.44745C26.8192 7.53975 26.8734 7.63731 26.9194 7.74014C26.941 9.10599 26.9627 10.4718 26.9844 11.8377C27.7267 12.3353 27.9002 12.9857 27.5047 13.7889C26.7706 14.5689 26.0335 14.5689 25.2933 13.7889C25.0208 13.346 24.9992 12.8907 25.2283 12.4231C25.3601 12.1937 25.5443 12.0203 25.7811 11.9027C25.8678 10.8187 25.8678 9.73474 25.7811 8.6507C24.8131 9.02391 23.8375 9.37083 22.8543 9.69135C22.8652 10.9706 22.8543 12.2498 22.8218 13.5287C22.5904 14.3493 22.1026 14.9672 21.3584 15.3824C19.762 16.1717 18.071 16.5511 16.2852 16.5206C14.4995 16.5511 12.8084 16.1717 11.2121 15.3824C10.4364 14.9908 9.94864 14.3729 9.74864 13.5287C9.71612 12.2498 9.70526 10.9706 9.71612 9.69135C8.40028 9.2708 7.09947 8.80466 5.81368 8.29298C5.54203 7.97077 5.56371 7.66729 5.87872 7.38241C9.27976 6.16589 12.6619 4.91926 16.0251 3.64258ZM16.1551 4.74827C13.3723 5.79536 10.5756 6.82515 7.7649 7.8377C10.5953 8.90774 13.4354 9.95919 16.2852 10.9922C18.6242 10.1294 20.9657 9.27301 23.3096 8.42306C20.8559 8.42189 18.406 8.37851 15.96 8.29298C15.5749 7.87705 15.64 7.55184 16.1551 7.31737C18.4966 7.29571 20.8381 7.27399 23.1795 7.25233C20.847 6.38456 18.5055 5.54983 16.1551 4.74827ZM10.8218 10.1466C10.8109 11.2742 10.8218 12.4016 10.8543 13.5287C10.9893 13.7941 11.1735 14.0217 11.4072 14.2117C11.9633 14.5981 12.5704 14.88 13.2283 15.0572C15.4808 15.6518 17.7139 15.5868 19.9275 14.8621C20.6883 14.629 21.2845 14.1846 21.7161 13.5287C21.7703 12.4008 21.7594 11.2734 21.6836 10.1466C19.883 10.8248 18.0727 11.4752 16.2527 12.0979C14.4393 11.4536 12.629 10.8032 10.8218 10.1466ZM26.3015 12.8133C26.2311 12.8845 26.1878 12.9712 26.1714 13.0735C26.2606 13.3196 26.4016 13.363 26.5942 13.2035C26.6961 12.9163 26.5986 12.7862 26.3015 12.8133Z" fill="url(#paint3_linear_1941_1143)"/>
<defs>
<linearGradient id="paint0_linear_1941_1143" x1="-0.398915" y1="-9.36907e-07" x2="34.6324" y2="20.9916" gradientUnits="userSpaceOnUse">
<stop offset="0.11" stop-color="#60D7AD"/>
<stop offset="0.76" stop-color="#213C3A"/>
</linearGradient>
<linearGradient id="paint1_linear_1941_1143" x1="25.9197" y1="21.2686" x2="27.3275" y2="21.8578" gradientUnits="userSpaceOnUse">
<stop offset="0.11" stop-color="#60D7AD"/>
<stop offset="0.76" stop-color="#213C3A"/>
</linearGradient>
<linearGradient id="paint2_linear_1941_1143" x1="28.404" y1="21.2715" x2="29.8147" y2="21.8733" gradientUnits="userSpaceOnUse">
<stop offset="0.11" stop-color="#60D7AD"/>
<stop offset="0.76" stop-color="#213C3A"/>
</linearGradient>
<linearGradient id="paint3_linear_1941_1143" x1="5.36043" y1="3.64258" x2="25.753" y2="18.7443" gradientUnits="userSpaceOnUse">
<stop offset="0.11" stop-color="#60D7AD"/>
<stop offset="0.76" stop-color="#213C3A"/>
</linearGradient>
</defs>
</svg>
