<svg width="27" height="24" viewBox="0 0 27 24" fill="none" xmlns="http://www.w3.org/2000/svg">
<path opacity="0.94" fill-rule="evenodd" clip-rule="evenodd" d="M1.44221 0.00339297C7.41256 -0.00565473 13.3829 0.00339297 19.3531 0.0305307C19.7871 0.183484 20.0676 0.481999 20.1944 0.926074C20.2215 3.74834 20.2306 6.57066 20.2215 9.39303C21.8407 9.31271 23.4147 9.53887 24.9435 10.0715C25.4463 10.2638 25.8896 10.5442 26.2732 10.9127C26.5041 11.1759 26.6308 11.4834 26.6531 11.8354C26.6893 15.0739 26.6893 18.3123 26.6531 21.5507C26.6139 22 26.424 22.3708 26.0832 22.6634C25.1215 23.3279 24.0541 23.7259 22.881 23.8574C20.9045 24.1247 18.9506 24.0162 17.0192 23.5318C16.2837 23.3406 15.6414 22.9878 15.0925 22.4734C14.9806 22.3431 14.8901 22.1984 14.8211 22.0392C14.7416 20.9392 14.7144 19.8357 14.7397 18.7284C11.3895 18.7549 8.04253 18.7278 4.69874 18.647C4.59679 18.5632 4.51538 18.4637 4.4545 18.3485C4.41831 17.7152 4.41831 17.0821 4.4545 16.4488C4.49972 16.2589 4.61732 16.1413 4.80729 16.096C5.44052 16.078 6.07369 16.0598 6.70693 16.0418C7.62592 15.8193 8.1868 15.2495 8.38946 14.3321C6.07364 14.3412 3.75789 14.3321 1.44221 14.305C0.87877 14.1212 0.580256 13.7322 0.54667 13.138C0.510485 9.15786 0.510485 5.17763 0.54667 1.19745C0.591106 0.602105 0.88962 0.204087 1.44221 0.00339297ZM1.71359 0.817524C7.50298 0.808476 13.2924 0.817524 19.0817 0.844661C19.2653 0.919583 19.3648 1.05527 19.3802 1.25173C19.4074 3.98351 19.4164 6.71541 19.4074 9.44731C17.9841 9.50272 16.6634 9.89172 15.4453 10.6142C15.2263 10.815 15.0272 11.0321 14.8482 11.2655C10.3615 11.2927 5.87472 11.3017 1.38794 11.2927C1.37889 7.90947 1.38794 4.52627 1.41508 1.14318C1.47049 0.988486 1.56999 0.879935 1.71359 0.817524ZM20.0587 10.2072C21.6413 10.1449 23.1791 10.371 24.6721 10.8856C25.1342 11.0565 25.505 11.337 25.7847 11.7269C25.8259 11.9347 25.7716 12.1156 25.6219 12.2696C24.9871 12.7541 24.2725 13.0707 23.478 13.2194C21.4019 13.6553 19.3394 13.601 17.2906 13.0566C14.9749 12.2606 14.9749 11.4646 17.2906 10.6685C18.2065 10.4254 19.1292 10.2716 20.0587 10.2072ZM1.38794 12.1068C5.83852 12.1068 10.2891 12.1068 14.7397 12.1068C14.7397 12.5772 14.7397 13.0476 14.7397 13.518C10.3976 13.527 6.05557 13.518 1.71359 13.4908C1.55981 13.4456 1.4603 13.3461 1.41508 13.1923C1.38796 12.8309 1.37891 12.4691 1.38794 12.1068ZM15.5538 13.1923C16.7816 13.8748 18.1023 14.2457 19.5159 14.305C21.2709 14.453 22.9896 14.2721 24.6721 13.7622C25.0778 13.6363 25.4486 13.4463 25.7847 13.1923C25.8209 13.8617 25.8209 14.5311 25.7847 15.2005C25.7087 15.3851 25.5911 15.539 25.4319 15.6618C24.2855 16.2923 23.0553 16.636 21.7412 16.6931C20.0938 16.8305 18.4836 16.6495 16.9107 16.1503C16.4469 15.9955 16.0398 15.7513 15.6895 15.4176C15.6533 15.3452 15.6172 15.2728 15.5809 15.2005C15.5538 14.5313 15.5447 13.862 15.5538 13.1923ZM9.25787 14.3321C10.0358 14.3321 10.8138 14.3321 11.5917 14.3321C11.671 14.9958 11.9423 15.5657 12.4058 16.0418C11.0852 16.078 9.76442 16.078 8.44374 16.0418C8.90725 15.5657 9.17863 14.9958 9.25787 14.3321ZM12.4601 14.3321C13.22 14.3321 13.9798 14.3321 14.7397 14.3321C14.7397 14.911 14.7397 15.4899 14.7397 16.0689C13.5223 16.0809 12.7624 15.5019 12.4601 14.3321ZM15.5538 16.4488C16.5511 16.9924 17.6185 17.3271 18.7561 17.4529C20.7827 17.7175 22.7728 17.5547 24.7264 16.9644C25.0852 16.8212 25.429 16.6493 25.7576 16.4488C25.8209 17.1175 25.8299 17.7869 25.7847 18.457C25.5379 18.8295 25.2033 19.0918 24.7806 19.244C22.049 20.2209 19.3172 20.2209 16.585 19.244C16.1563 19.0711 15.8216 18.7907 15.5809 18.4027C15.5538 17.7517 15.5447 17.1004 15.5538 16.4488ZM5.29577 16.9373C8.44374 16.9373 11.5917 16.9373 14.7397 16.9373C14.7397 17.2449 14.7397 17.5524 14.7397 17.86C11.5917 17.86 8.44374 17.86 5.29577 17.86C5.29577 17.5524 5.29577 17.2449 5.29577 16.9373ZM15.5538 19.6511C16.6478 20.2598 17.8238 20.6126 19.0817 20.7094C21.0208 20.9263 22.9204 20.7454 24.7806 20.1667C25.1349 20.0303 25.4695 19.8584 25.7847 19.6511C25.8209 20.3205 25.8209 20.9899 25.7847 21.6593C25.7271 21.8255 25.6276 21.9611 25.4862 22.0663C24.7017 22.545 23.8514 22.8526 22.9353 22.989C20.8537 23.3452 18.8094 23.2005 16.8021 22.5548C16.418 22.3946 16.0652 22.1866 15.7438 21.9306C15.6657 21.8343 15.6114 21.7258 15.5809 21.605C15.5538 20.954 15.5447 20.3027 15.5538 19.6511Z" fill="url(#paint0_linear_1961_1271)"/>
<path opacity="0.92" fill-rule="evenodd" clip-rule="evenodd" d="M10.886 3.42269C11.252 3.32811 11.4691 3.4638 11.5373 3.82975C11.0469 5.60868 10.5674 7.39076 10.099 9.17588C10.0385 9.39927 9.89377 9.5259 9.66483 9.55581C9.31562 9.47293 9.189 9.25583 9.28491 8.9045C9.74565 7.22435 10.1979 5.54182 10.6418 3.85689C10.6827 3.68408 10.7641 3.53932 10.886 3.42269Z" fill="url(#paint1_linear_1961_1271)"/>
<path opacity="0.923" fill-rule="evenodd" clip-rule="evenodd" d="M8.4418 4.29132C8.85798 4.2822 9.02987 4.48122 8.95741 4.88834C8.47963 5.42046 7.98208 5.93608 7.46484 6.43519C7.94425 6.91461 8.42372 7.39408 8.90314 7.87349C9.06727 8.41478 8.8773 8.62282 8.33325 8.49766C7.70908 7.87349 7.08491 7.24932 6.46075 6.62516C6.42454 6.49853 6.42454 6.37185 6.46075 6.24523C7.11541 5.5815 7.77573 4.93019 8.4418 4.29132Z" fill="url(#paint2_linear_1961_1271)"/>
<path opacity="0.909" fill-rule="evenodd" clip-rule="evenodd" d="M12.1328 4.3457C12.2449 4.35585 12.3534 4.38299 12.4585 4.42712C13.0646 5.03321 13.6706 5.63925 14.2767 6.24534C14.2915 6.33224 14.3187 6.41365 14.3581 6.48958C14.3187 6.56551 14.2915 6.64692 14.2767 6.73382C13.6706 7.33991 13.0646 7.94595 12.4585 8.55204C11.9613 8.68822 11.7532 8.49826 11.8343 7.98215C12.3236 7.50192 12.803 7.01345 13.2726 6.51672C12.7833 6.01836 12.3039 5.51176 11.8343 4.99701C11.7277 4.67309 11.8272 4.45599 12.1328 4.3457Z" fill="url(#paint3_linear_1961_1271)"/>
<path opacity="0.874" fill-rule="evenodd" clip-rule="evenodd" d="M16.5301 14.3867C16.7544 14.4251 16.9534 14.5156 17.1272 14.6581C17.2737 15.19 17.0747 15.3981 16.5301 15.2823C16.1249 15.1104 16.0526 14.8481 16.313 14.4953C16.3959 14.4685 16.4682 14.4323 16.5301 14.3867Z" fill="url(#paint4_linear_1961_1271)"/>
<path opacity="0.867" fill-rule="evenodd" clip-rule="evenodd" d="M16.4764 17.6426C16.7049 17.6554 16.913 17.7278 17.1006 17.8597C17.2992 18.3774 17.1274 18.6036 16.585 18.5381C16.1979 18.4269 16.0803 18.1827 16.2322 17.8054C16.3087 17.7359 16.3901 17.6816 16.4764 17.6426Z" fill="url(#paint5_linear_1961_1271)"/>
<path opacity="0.867" fill-rule="evenodd" clip-rule="evenodd" d="M16.4222 20.8991C16.6753 20.8853 16.9014 20.9577 17.1007 21.1162C17.2993 21.6339 17.1274 21.8601 16.585 21.7947C16.0846 21.5639 16.0303 21.2654 16.4222 20.8991Z" fill="url(#paint6_linear_1961_1271)"/>
<defs>
<linearGradient id="paint0_linear_1961_1271" x1="0.206148" y1="-9.36907e-07" x2="30.8233" y2="14.4129" gradientUnits="userSpaceOnUse">
<stop offset="0.11" stop-color="#60D7AD"/>
<stop offset="0.76" stop-color="#213C3A"/>
</linearGradient>
<linearGradient id="paint1_linear_1961_1271" x1="9.22655" y1="3.39355" x2="12.4096" y2="3.90294" gradientUnits="userSpaceOnUse">
<stop offset="0.11" stop-color="#60D7AD"/>
<stop offset="0.76" stop-color="#213C3A"/>
</linearGradient>
<linearGradient id="paint2_linear_1961_1271" x1="6.40317" y1="4.29102" x2="9.8069" y2="5.17118" gradientUnits="userSpaceOnUse">
<stop offset="0.11" stop-color="#60D7AD"/>
<stop offset="0.76" stop-color="#213C3A"/>
</linearGradient>
<linearGradient id="paint3_linear_1961_1271" x1="11.7622" y1="4.3457" x2="15.1962" y2="5.24101" gradientUnits="userSpaceOnUse">
<stop offset="0.11" stop-color="#60D7AD"/>
<stop offset="0.76" stop-color="#213C3A"/>
</linearGradient>
<linearGradient id="paint4_linear_1961_1271" x1="16.148" y1="14.3867" x2="17.3328" y2="14.9464" gradientUnits="userSpaceOnUse">
<stop offset="0.11" stop-color="#60D7AD"/>
<stop offset="0.76" stop-color="#213C3A"/>
</linearGradient>
<linearGradient id="paint5_linear_1961_1271" x1="16.1558" y1="17.6426" x2="17.3302" y2="18.209" gradientUnits="userSpaceOnUse">
<stop offset="0.11" stop-color="#60D7AD"/>
<stop offset="0.76" stop-color="#213C3A"/>
</linearGradient>
<linearGradient id="paint6_linear_1961_1271" x1="16.1519" y1="20.8975" x2="17.3299" y2="21.4668" gradientUnits="userSpaceOnUse">
<stop offset="0.11" stop-color="#60D7AD"/>
<stop offset="0.76" stop-color="#213C3A"/>
</linearGradient>
</defs>
</svg>
