<svg width="25" height="24" viewBox="0 0 25 24" fill="none" xmlns="http://www.w3.org/2000/svg">
<path opacity="0.933" fill-rule="evenodd" clip-rule="evenodd" d="M20.6043 0.000158524C22.0786 -0.01229 22.7182 0.708429 22.5232 2.1623C22.3288 2.73506 21.9415 3.10442 21.3611 3.2704C21.0908 3.30644 20.8205 3.30644 20.5503 3.2704C20.3647 3.21251 20.1846 3.15845 20.0097 3.10824C18.8906 4.13732 17.7555 5.14634 16.6043 6.13525C17.0029 7.26394 16.6426 8.03869 15.5233 8.45955C14.167 8.55426 13.4643 7.91464 13.4152 6.54065C12.5029 6.07552 11.584 5.62504 10.6584 5.18931C10.0255 5.77557 9.33185 5.86563 8.57737 5.45958C7.4783 6.4686 6.37917 7.47756 5.2801 8.48658C5.35615 8.87598 5.3742 9.27241 5.33415 9.67576C5.02772 10.558 4.4061 10.9634 3.4693 10.892C2.30626 10.5391 1.88285 9.77333 2.19904 8.59469C2.61101 7.78394 3.26866 7.46864 4.172 7.64875C4.31772 7.6901 4.45286 7.75318 4.5774 7.83794C5.7035 6.81995 6.82965 5.8019 7.95575 4.78391C7.54997 3.42421 8.04548 2.62242 9.44223 2.37852C10.5788 2.55173 11.1464 3.21839 11.1449 4.3785C12.0657 4.80737 12.9756 5.25779 13.8746 5.72985C14.5018 5.15412 15.2045 5.04601 15.9827 5.40552C17.1172 4.41526 18.2523 3.42427 19.3881 2.43257C19.0461 1.24274 19.4515 0.431934 20.6043 0.000158524ZM20.7665 0.919071C21.2884 0.89146 21.5947 1.1347 21.6854 1.64879C21.5198 2.30815 21.1234 2.50634 20.4962 2.24339C20.1947 1.92697 20.1497 1.57562 20.3611 1.18934C20.4922 1.0838 20.6273 0.993719 20.7665 0.919071ZM9.4152 3.29743C10.0655 3.46297 10.2727 3.85937 10.0368 4.48661C9.64044 4.91904 9.24401 4.91904 8.84764 4.48661C8.58877 3.86937 8.77796 3.47299 9.4152 3.29743ZM14.9827 6.10822C15.7535 6.18476 15.9968 6.58114 15.7125 7.2974C15.2962 7.67351 14.8998 7.65545 14.5233 7.24335C14.2908 6.70605 14.444 6.32768 14.9827 6.10822ZM3.68551 8.48658C4.42313 8.64647 4.62134 9.0609 4.2801 9.72982C3.79644 10.1185 3.39103 10.0464 3.0639 9.5136C2.95059 8.97058 3.15779 8.62826 3.68551 8.48658Z" fill="url(#paint0_linear_1941_1149)"/>
<path opacity="0.942" fill-rule="evenodd" clip-rule="evenodd" d="M19.47 6.21628C20.4071 6.20725 21.344 6.21628 22.2808 6.2433C22.6778 6.38811 22.921 6.66735 23.0105 7.08113C23.0375 12.4144 23.0465 17.7477 23.0375 23.081C23.458 23.0577 23.8724 23.0847 24.2808 23.1621C24.4593 23.3672 24.4863 23.5925 24.3618 23.8378C24.313 23.9027 24.25 23.9478 24.1726 23.9729C16.2808 24.009 8.38898 24.009 0.497148 23.9729C0.311538 23.8903 0.221452 23.7461 0.226879 23.5405C0.221885 23.3884 0.275938 23.2623 0.38904 23.1621C0.797372 23.0847 1.21178 23.0577 1.63227 23.081C1.60678 21.2946 1.63381 19.5108 1.71335 17.7297C1.84849 17.4504 2.05569 17.2432 2.33497 17.1081C3.28992 17 4.24485 17 5.19981 17.1081C5.51046 17.2205 5.7357 17.4277 5.87549 17.7297C5.95505 19.5108 5.98208 21.2946 5.95657 23.081C6.42505 23.081 6.89348 23.081 7.36196 23.081C7.35293 19.1891 7.36196 15.2972 7.38899 11.4054C7.56374 10.9442 7.89709 10.701 8.38898 10.6757C9.238 10.627 10.0848 10.645 10.9295 10.7298C11.2861 10.8521 11.5113 11.0953 11.6052 11.4595C11.6322 15.3333 11.6412 19.2072 11.6322 23.081C12.1007 23.081 12.5691 23.081 13.0376 23.081C13.0286 20.2341 13.0376 17.3873 13.0646 14.5405C13.1523 14.2185 13.3415 13.9753 13.6322 13.8108C14.1419 13.7499 14.6554 13.7229 15.1727 13.7297C15.6322 13.7388 16.0916 13.7477 16.5511 13.7568C16.9152 13.8506 17.1585 14.0758 17.2808 14.4324C17.3078 17.3152 17.3169 20.1981 17.3078 23.081C17.7763 23.081 18.2447 23.081 18.7132 23.081C18.7042 17.7657 18.7132 12.4504 18.7403 7.13519C18.815 6.69152 19.0582 6.38519 19.47 6.21628ZM19.6862 7.13519C20.5011 7.10059 21.3029 7.13659 22.0916 7.2433C22.1186 12.5225 22.1276 17.8018 22.1186 23.081C21.2898 23.081 20.4609 23.081 19.6321 23.081C19.6144 17.7635 19.6324 12.4483 19.6862 7.13519ZM8.44303 11.5676C9.14595 11.5586 9.84864 11.5676 10.5511 11.5946C10.6006 11.6148 10.6457 11.6419 10.6863 11.6757C10.7133 15.4775 10.7223 19.2792 10.7133 23.081C9.90248 23.081 9.09168 23.081 8.28087 23.081C8.27185 19.2792 8.28087 15.4775 8.3079 11.6757C8.36168 11.6451 8.40671 11.609 8.44303 11.5676ZM14.0106 14.6486C14.7986 14.6311 15.5824 14.6492 16.3619 14.7027C16.3889 17.4954 16.3979 20.2882 16.3889 23.081C15.5781 23.081 14.7673 23.081 13.9565 23.081C13.9387 20.2663 13.9568 17.4555 14.0106 14.6486ZM2.71335 17.9459C3.43429 17.9369 4.15501 17.9459 4.87549 17.9729C4.93857 18 4.9836 18.045 5.01063 18.1081C5.03765 19.7656 5.04668 21.4233 5.03765 23.081C4.20885 23.081 3.38001 23.081 2.55119 23.081C2.54218 21.4052 2.55119 19.7296 2.57821 18.054C2.63198 18.0234 2.67702 17.9874 2.71335 17.9459Z" fill="url(#paint1_linear_1941_1149)"/>
<defs>
<linearGradient id="paint0_linear_1941_1149" x1="1.85257" y1="-4.25512e-07" x2="19.5045" y2="14.3091" gradientUnits="userSpaceOnUse">
<stop offset="0.11" stop-color="#60D7AD"/>
<stop offset="0.76" stop-color="#213C3A"/>
</linearGradient>
<linearGradient id="paint1_linear_1941_1149" x1="-0.0634765" y1="6.21289" x2="25.6621" y2="21.3359" gradientUnits="userSpaceOnUse">
<stop offset="0.11" stop-color="#60D7AD"/>
<stop offset="0.76" stop-color="#213C3A"/>
</linearGradient>
</defs>
</svg>
