<svg width="25" height="24" viewBox="0 0 25 24" fill="none" xmlns="http://www.w3.org/2000/svg">
<path opacity="0.933" fill-rule="evenodd" clip-rule="evenodd" d="M20.3817 0.000158525C21.856 -0.0122901 22.4956 0.708431 22.3006 2.16231C22.1062 2.73506 21.7189 3.10443 21.1384 3.27041C20.8682 3.30645 20.5979 3.30645 20.3276 3.27041C20.1421 3.21252 19.962 3.15846 19.7871 3.10825C18.668 4.13733 17.5329 5.14635 16.3817 6.13526C16.7803 7.26396 16.42 8.03871 15.3006 8.45957C13.9444 8.55428 13.2417 7.91466 13.1925 6.54067C12.2803 6.07553 11.3614 5.62505 10.4358 5.18932C9.80288 5.77559 9.10921 5.86564 8.35473 5.45959C7.25565 6.46861 6.15652 7.47758 5.05745 8.4866C5.1335 8.87601 5.15156 9.27244 5.1115 9.67579C4.80507 10.5581 4.18345 10.9635 3.24665 10.892C2.08361 10.5391 1.66019 9.77335 1.97638 8.59471C2.38835 7.78396 3.04601 7.46866 3.94935 7.64877C4.09507 7.69012 4.23021 7.7532 4.35475 7.83796C5.48085 6.81996 6.60701 5.80191 7.73311 4.78392C7.32733 3.42422 7.82284 2.62243 9.21959 2.37852C10.3562 2.55173 10.9237 3.2184 10.9223 4.37851C11.843 4.80738 12.7529 5.25781 13.652 5.72986C14.2791 5.15413 14.9818 5.04602 15.7601 5.40554C16.8946 4.41527 18.0297 3.42428 19.1655 2.43258C18.8235 1.24274 19.2289 0.431935 20.3817 0.000158525ZM20.5439 0.919073C21.0657 0.891462 21.3721 1.1347 21.4628 1.6488C21.2972 2.30815 20.9008 2.50635 20.2736 2.24339C19.9721 1.92698 19.9271 1.57563 20.1385 1.18934C20.2696 1.08381 20.4047 0.993721 20.5439 0.919073ZM9.19256 3.29744C9.84288 3.46298 10.0501 3.85938 9.81418 4.48662C9.4178 4.91905 9.02137 4.91905 8.625 4.48662C8.36613 3.86938 8.55532 3.473 9.19256 3.29744ZM14.7601 6.10824C15.5309 6.18478 15.7741 6.58115 15.4898 7.29742C15.0736 7.67352 14.6771 7.65547 14.3006 7.24336C14.0682 6.70607 14.2213 6.32769 14.7601 6.10824ZM3.46286 8.4866C4.20048 8.64649 4.39869 9.06092 4.05745 9.72984C3.57378 10.1185 3.16838 10.0464 2.84124 9.51362C2.72794 8.9706 2.93514 8.62828 3.46286 8.4866Z" fill="url(#paint0_linear_1959_1198)"/>
<path opacity="0.942" fill-rule="evenodd" clip-rule="evenodd" d="M19.2435 6.21432C20.1806 6.2053 21.1175 6.21432 22.0543 6.24135C22.4513 6.38616 22.6945 6.6654 22.784 7.07918C22.811 12.4125 22.82 17.7458 22.811 23.0791C23.2315 23.0558 23.6459 23.0828 24.0543 23.1602C24.2328 23.3653 24.2598 23.5906 24.1353 23.8359C24.0865 23.9008 24.0235 23.9459 23.9461 23.971C16.0543 24.007 8.16244 24.007 0.270586 23.971C0.0849759 23.8883 -0.00511015 23.7442 0.000316847 23.5386C-0.00467772 23.3865 0.0493761 23.2603 0.162478 23.1602C0.570811 23.0828 0.98522 23.0558 1.40572 23.0791C1.38022 21.2927 1.40725 19.5089 1.4868 17.7278C1.62193 17.4485 1.82913 17.2413 2.10841 17.1062C3.06337 16.9981 4.0183 16.9981 4.97326 17.1062C5.28391 17.2185 5.50915 17.4257 5.64894 17.7278C5.7285 19.5089 5.75553 21.2927 5.73002 23.0791C6.1985 23.0791 6.66693 23.0791 7.13542 23.0791C7.12639 19.1872 7.13542 15.2953 7.16244 11.4035C7.3372 10.9423 7.67055 10.6991 8.16244 10.6738C9.01146 10.6251 9.85827 10.6431 10.703 10.7278C11.0596 10.8501 11.2848 11.0934 11.3786 11.4575C11.4057 15.3314 11.4147 19.2052 11.4057 23.0791C11.8741 23.0791 12.3426 23.0791 12.8111 23.0791C12.802 20.2322 12.8111 17.3854 12.8381 14.5386C12.9258 14.2166 13.115 13.9734 13.4057 13.8089C13.9154 13.748 14.4289 13.7209 14.9462 13.7278C15.4056 13.7368 15.8651 13.7458 16.3246 13.7548C16.6887 13.8487 16.932 14.0739 17.0543 14.4305C17.0813 17.3133 17.0903 20.1962 17.0813 23.0791C17.5498 23.0791 18.0182 23.0791 18.4867 23.0791C18.4777 17.7638 18.4867 12.4485 18.5137 7.13324C18.5884 6.68956 18.8317 6.38324 19.2435 6.21432ZM19.4597 7.13324C20.2746 7.09864 21.0764 7.13464 21.8651 7.24135C21.8921 12.5206 21.9011 17.7998 21.8921 23.0791C21.0633 23.0791 20.2344 23.0791 19.4056 23.0791C19.3878 17.7616 19.4059 12.4463 19.4597 7.13324ZM8.21649 11.5656C8.91941 11.5566 9.62211 11.5656 10.3246 11.5927C10.3741 11.6129 10.4192 11.6399 10.4597 11.6738C10.4868 15.4755 10.4958 19.2773 10.4868 23.0791C9.67594 23.0791 8.86514 23.0791 8.05433 23.0791C8.0453 19.2773 8.05433 15.4755 8.08136 11.6738C8.13514 11.6432 8.18017 11.6071 8.21649 11.5656ZM13.784 14.6467C14.5721 14.6292 15.3559 14.6473 16.1354 14.7008C16.1624 17.4935 16.1714 20.2863 16.1624 23.0791C15.3516 23.0791 14.5408 23.0791 13.73 23.0791C13.7122 20.2644 13.7302 17.4536 13.784 14.6467ZM2.48679 17.944C3.20773 17.935 3.92846 17.944 4.64894 17.971C4.71202 17.998 4.75705 18.0431 4.78408 18.1062C4.8111 19.7637 4.82013 21.4214 4.8111 23.0791C3.9823 23.0791 3.15345 23.0791 2.32463 23.0791C2.31562 21.4033 2.32463 19.7277 2.35166 18.0521C2.40542 18.0215 2.45047 17.9855 2.48679 17.944Z" fill="url(#paint1_linear_1959_1198)"/>
<defs>
<linearGradient id="paint0_linear_1959_1198" x1="1.62991" y1="-4.25513e-07" x2="19.2819" y2="14.3091" gradientUnits="userSpaceOnUse">
<stop offset="0.11" stop-color="#60D7AD"/>
<stop offset="0.76" stop-color="#213C3A"/>
</linearGradient>
<linearGradient id="paint1_linear_1959_1198" x1="-0.29004" y1="6.21094" x2="25.4356" y2="21.334" gradientUnits="userSpaceOnUse">
<stop offset="0.11" stop-color="#60D7AD"/>
<stop offset="0.76" stop-color="#213C3A"/>
</linearGradient>
</defs>
</svg>
