<svg width="33" height="33" viewBox="0 0 33 33" fill="none" xmlns="http://www.w3.org/2000/svg">
<g clip-path="url(#clip0_710_83)">
<path d="M11.8854 3.56606C11.8541 3.57231 11.7416 3.59731 11.6354 3.62231C11.5041 3.65356 11.0229 4.09106 9.96037 5.14106C9.14162 5.95356 8.41662 6.71606 8.34787 6.82856C8.19162 7.06606 8.17912 7.50356 8.31037 7.75356C8.36662 7.85356 9.10412 8.62856 9.96037 9.47856C11.3041 10.8098 11.5416 11.0223 11.7479 11.0598C12.2541 11.1536 12.7979 10.7973 12.8854 10.3161C12.9729 9.87856 12.8416 9.69106 11.6291 8.46606L10.4854 7.30981L11.6291 6.15356C12.9541 4.82231 13.0354 4.69106 12.8166 4.17231C12.7541 4.01606 12.6229 3.82856 12.5354 3.76606C12.3791 3.64731 12.0104 3.53481 11.8854 3.56606Z" fill="url(#paint0_linear_710_83)"/>
<path d="M21.1729 3.59732C20.8604 3.65982 20.6479 3.84732 20.5166 4.17232C20.2979 4.69107 20.3791 4.82232 21.7041 6.15357L22.8479 7.30982L21.7041 8.46607C20.8604 9.32232 20.5416 9.68482 20.4791 9.85982C20.2666 10.5286 20.8729 11.1973 21.5854 11.0598C21.7916 11.0223 22.0291 10.8098 23.3729 9.47857C24.2291 8.62857 24.9666 7.85982 25.0166 7.76607C25.0666 7.67232 25.1041 7.45982 25.1041 7.29107C25.1041 6.87232 25.0166 6.77232 23.3166 5.07857C22.2979 4.07232 21.8291 3.65357 21.6979 3.62232C21.5916 3.59732 21.4854 3.57232 21.4479 3.56607C21.4166 3.55982 21.2916 3.57232 21.1729 3.59732Z" fill="url(#paint1_linear_710_83)"/>
<path d="M17.5541 3.72232C17.3791 3.83482 17.1291 4.29732 15.8604 6.83482C15.0416 8.47232 14.3541 9.89107 14.3291 9.99107C14.2729 10.2223 14.3916 10.5786 14.5916 10.7973C14.9041 11.1286 15.4666 11.1723 15.8229 10.8973C15.9291 10.8098 16.4791 9.77857 17.4916 7.75357C19.1041 4.53482 19.1229 4.48482 18.8916 4.04107C18.6666 3.60357 17.9916 3.44107 17.5541 3.72232Z" fill="url(#paint2_linear_710_83)"/>
<path d="M6.32288 14.5286C4.04788 15.0098 2.16663 16.5348 1.25413 18.6473C1.13538 18.9223 0.960382 19.4223 0.872882 19.7598C0.735382 20.2911 0.710382 20.5036 0.704132 21.3723C0.704132 21.9848 0.729132 22.5161 0.779132 22.7473C1.41038 25.6598 3.47913 27.7411 6.32288 28.3473C7.47288 28.5911 9.09163 28.4848 10.3229 28.0786C11.9541 27.5473 13.4041 26.5911 14.9291 25.0473C15.8604 24.1036 16.2916 23.5848 17.3104 22.1536C19.0229 19.7536 20.1354 18.5598 21.5791 17.5911C23.5291 16.2723 25.8041 15.9223 27.5979 16.6661C29.2229 17.3411 30.3916 18.8098 30.6979 20.5598C30.8541 21.4848 30.7979 22.2348 30.4854 23.1348C29.9479 24.7036 28.6916 25.8973 27.0416 26.4161C26.6229 26.5411 26.4604 26.5598 25.5104 26.5536C24.5416 26.5473 24.3979 26.5348 23.8916 26.3786C22.4604 25.9473 21.3854 25.2973 20.0666 24.0723C19.4229 23.4786 19.1854 23.3598 18.8041 23.4598C18.2979 23.5973 18.0666 23.9348 18.1166 24.4598C18.1541 24.8286 18.2166 24.9098 19.0041 25.6411C21.2166 27.6786 23.6666 28.6411 26.1916 28.4598C28.9854 28.2536 31.4479 26.3098 32.3104 23.6223C32.5854 22.7598 32.6354 22.4286 32.6291 21.3723C32.6229 20.5098 32.5979 20.2911 32.4666 19.7723C31.8479 17.4598 30.3479 15.7411 28.1916 14.8848C26.6354 14.2598 24.7354 14.2411 22.9791 14.8161C21.3041 15.3723 19.8666 16.3223 18.3229 17.9098C17.4604 18.7973 16.8791 19.5036 16.0041 20.7473C14.4416 22.9598 13.4854 24.0098 12.0979 25.0411C11.2166 25.6973 10.3854 26.1098 9.32288 26.4161C8.89163 26.5348 8.67913 26.5598 7.79163 26.5598C6.87913 26.5598 6.70413 26.5411 6.29163 26.4161C4.30413 25.7848 2.89163 24.1661 2.60413 22.1598C2.51663 21.5786 2.52913 21.1911 2.63538 20.5598C3.07288 18.0473 5.20413 16.2723 7.77288 16.2786C9.62913 16.2848 11.3041 17.0411 13.1479 18.7036C13.9416 19.4161 14.1166 19.5161 14.4979 19.4348C14.9416 19.3348 15.2291 18.9848 15.2291 18.5286C15.2291 18.1598 15.1229 18.0036 14.4916 17.3911C12.8791 15.8348 10.9979 14.8286 9.11038 14.5036C8.30413 14.3661 7.04788 14.3786 6.32288 14.5286Z" fill="url(#paint3_linear_710_83)"/>
</g>
<defs>
<linearGradient id="paint0_linear_710_83" x1="8.16422" y1="11.0749" x2="14.4145" y2="9.39032" gradientUnits="userSpaceOnUse">
<stop offset="0.11" stop-color="#60D7AD"/>
<stop offset="0.76" stop-color="#213C3A"/>
</linearGradient>
<linearGradient id="paint1_linear_710_83" x1="20.3673" y1="11.0779" x2="26.6075" y2="9.39907" gradientUnits="userSpaceOnUse">
<stop offset="0.11" stop-color="#60D7AD"/>
<stop offset="0.76" stop-color="#213C3A"/>
</linearGradient>
<linearGradient id="paint2_linear_710_83" x1="14.259" y1="11.0779" x2="20.4994" y2="9.39411" gradientUnits="userSpaceOnUse">
<stop offset="0.11" stop-color="#60D7AD"/>
<stop offset="0.76" stop-color="#213C3A"/>
</linearGradient>
<linearGradient id="paint3_linear_710_83" x1="0.321026" y1="28.4814" x2="23.6245" y2="5.66472" gradientUnits="userSpaceOnUse">
<stop offset="0.11" stop-color="#60D7AD"/>
<stop offset="0.76" stop-color="#213C3A"/>
</linearGradient>
<clipPath id="clip0_710_83">
<rect width="32" height="32" fill="white" transform="translate(0.666626 0.0285645)"/>
</clipPath>
</defs>
</svg>
