<svg width="25" height="24" viewBox="0 0 25 24" fill="none" xmlns="http://www.w3.org/2000/svg">
<path opacity="0.942" fill-rule="evenodd" clip-rule="evenodd" d="M5.50668 0.00302095C6.15194 -0.00503738 6.79705 0.00302579 7.44192 0.0272114C7.48222 0.0675288 7.52257 0.107847 7.56287 0.148164C7.68465 0.423795 7.8056 0.697956 7.92573 0.970641C8.29628 1.0954 8.65914 1.24054 9.0143 1.40607C9.26704 1.30792 9.51703 1.20309 9.76421 1.09159C9.88376 1.05742 9.99668 1.07355 10.1029 1.13997C10.5317 1.55265 10.943 1.98002 11.3366 2.42207C11.3689 2.50271 11.3689 2.58334 11.3366 2.66398C11.2317 2.91394 11.127 3.16391 11.0221 3.41388C11.1558 3.71024 11.2849 4.00858 11.4092 4.30893C12.99 4.26695 14.5544 4.40403 16.1021 4.72017C16.8279 4.87044 17.4891 5.16072 18.0857 5.59102C18.3193 5.79219 18.4725 6.04218 18.5454 6.34093C18.5695 8.25996 18.5776 10.1791 18.5695 12.0983C18.8925 12.0902 19.215 12.0983 19.5372 12.1225C19.5775 12.1628 19.6178 12.2031 19.6581 12.2434C19.7799 12.519 19.9008 12.7932 20.021 13.0659C20.3915 13.1907 20.7544 13.3358 21.1095 13.5013C21.3623 13.4031 21.6123 13.2984 21.8595 13.1868C21.979 13.1527 22.0919 13.1688 22.1981 13.2352C22.627 13.6479 23.0382 14.0753 23.4318 14.5173C23.4641 14.598 23.4641 14.6786 23.4318 14.7592C23.327 15.0092 23.2222 15.2591 23.1174 15.5091C23.2829 15.8643 23.428 16.2271 23.5528 16.5977C23.8255 16.7178 24.0996 16.8388 24.3753 16.9606C24.4156 17.0009 24.4559 17.0412 24.4962 17.0815C24.5285 17.7266 24.5285 18.3717 24.4962 19.0167C24.4559 19.057 24.4156 19.0974 24.3753 19.1377C24.0996 19.2595 23.8255 19.3804 23.5528 19.5006C23.428 19.8711 23.2829 20.234 23.1174 20.5891C23.2222 20.8391 23.327 21.0891 23.4318 21.339C23.466 21.4586 23.4499 21.5715 23.3835 21.6777C22.9708 22.1066 22.5434 22.5178 22.1014 22.9114C22.0207 22.9437 21.9401 22.9437 21.8595 22.9114C21.6123 22.7999 21.3623 22.6951 21.1095 22.5969C20.7544 22.7625 20.3915 22.9076 20.021 23.0324C19.9008 23.305 19.7799 23.5792 19.6581 23.8548C19.6178 23.8951 19.5775 23.9355 19.5372 23.9758C18.8921 24.0081 18.247 24.0081 17.6019 23.9758C17.5616 23.9355 17.5213 23.8951 17.481 23.8548C17.3592 23.5792 17.2382 23.305 17.1181 23.0324C16.7471 22.9073 16.3842 22.7622 16.0295 22.5969C15.7796 22.7018 15.5296 22.8066 15.2796 22.9114C15.1601 22.9456 15.0472 22.9295 14.941 22.863C14.5121 22.4503 14.1009 22.023 13.7073 21.5809C13.675 21.5003 13.675 21.4197 13.7073 21.339C13.8121 21.0891 13.9169 20.8391 14.0217 20.5891C13.888 20.2928 13.759 19.9944 13.6347 19.6941C12.8288 19.6538 12.0225 19.6296 11.2156 19.6215C9.842 19.563 8.53572 19.2405 7.29678 18.6539C6.8865 18.4374 6.62041 18.1067 6.49849 17.6621C6.4743 15.743 6.46622 13.8239 6.4743 11.9047C6.15136 11.9128 5.8288 11.9047 5.50668 11.8806C5.46638 11.8403 5.42603 11.7999 5.38573 11.7596C5.26395 11.484 5.143 11.2098 5.02287 10.9371C4.65231 10.8123 4.28946 10.6672 3.9343 10.5017C3.68433 10.6065 3.43436 10.7113 3.18439 10.8162C3.06483 10.8503 2.95194 10.8342 2.84573 10.7678C2.41687 10.3551 2.00563 9.92775 1.61201 9.48569C1.57975 9.40504 1.57975 9.32444 1.61201 9.24379C1.71684 8.9938 1.82166 8.74387 1.92649 8.49388C1.76096 8.13872 1.61582 7.77586 1.49106 7.40531C1.21837 7.28518 0.944212 7.16423 0.668581 7.04245C0.628263 7.00215 0.587945 6.9618 0.547628 6.9215C0.515374 6.27644 0.515374 5.63133 0.547628 4.98626C0.587945 4.94596 0.628263 4.90561 0.668581 4.86531C0.944212 4.74353 1.21837 4.62258 1.49106 4.50245C1.61582 4.1319 1.76096 3.76904 1.92649 3.41388C1.82166 3.16391 1.71684 2.91394 1.61201 2.66398C1.57784 2.54442 1.59396 2.43152 1.66039 2.32531C2.07307 1.89645 2.50043 1.48522 2.94249 1.09159C3.02312 1.05934 3.10376 1.05934 3.18439 1.09159C3.43436 1.19642 3.68433 1.30124 3.9343 1.40607C4.28898 1.24084 4.65184 1.0957 5.02287 0.970641C5.15688 0.63223 5.31814 0.309689 5.50668 0.00302095ZM5.99049 0.777117C6.31305 0.777117 6.63555 0.777117 6.95811 0.777117C7.02918 1.06279 7.13402 1.33695 7.27258 1.59959C7.79907 1.76986 8.30707 1.98758 8.79659 2.25274C8.92562 2.28499 9.0546 2.28499 9.18363 2.25274C9.39167 2.15141 9.60136 2.07078 9.81259 2.01083C10.031 2.2212 10.2407 2.43892 10.4415 2.66398C10.251 2.9628 10.1622 3.28533 10.1754 3.63159C10.4419 4.10848 10.6515 4.60841 10.8044 5.1314C11.0702 5.28714 11.3524 5.40006 11.6511 5.47007C11.6511 5.79263 11.6511 6.11514 11.6511 6.43769C11.3654 6.50876 11.0912 6.6136 10.8286 6.75217C10.6583 7.27865 10.4406 7.78665 10.1754 8.27617C10.1432 8.4052 10.1432 8.53418 10.1754 8.66322C10.2768 8.87125 10.3574 9.08094 10.4173 9.29217C10.207 9.51061 9.98927 9.72029 9.76421 9.92112C9.4654 9.73055 9.14285 9.64182 8.79659 9.65503C8.31969 9.92146 7.81977 10.1311 7.29678 10.284C7.14104 10.5498 7.02812 10.832 6.95811 11.1306C6.63555 11.1306 6.31305 11.1306 5.99049 11.1306C5.91942 10.845 5.81458 10.5708 5.67601 10.3082C5.14953 10.1379 4.64154 9.9202 4.15201 9.65503C4.02299 9.62276 3.89398 9.62276 3.76496 9.65503C3.55692 9.75634 3.34727 9.83699 3.13601 9.89693C2.91756 9.68657 2.7079 9.46886 2.50706 9.24379C2.69765 8.94499 2.78634 8.62243 2.77315 8.27617C2.50673 7.79928 2.29708 7.29936 2.1442 6.77636C1.87841 6.62062 1.59618 6.5077 1.29753 6.43769C1.29753 6.11514 1.29753 5.79263 1.29753 5.47007C1.5832 5.399 1.85736 5.29416 2.12001 5.1556C2.29028 4.62911 2.50799 4.12112 2.77315 3.63159C2.80541 3.50258 2.80541 3.37356 2.77315 3.24455C2.67183 3.0365 2.59119 2.82685 2.53125 2.61559C2.74162 2.39714 2.95933 2.18749 3.18439 1.98664C3.48321 2.17723 3.80575 2.26593 4.15201 2.25274C4.62889 1.98632 5.12882 1.77667 5.65182 1.62378C5.80756 1.35799 5.92048 1.07577 5.99049 0.777117ZM12.4252 5.1314C13.9881 5.10499 15.504 5.35493 16.973 5.88131C17.2453 5.99733 17.4792 6.16666 17.6745 6.38931C17.7319 6.46401 17.748 6.54466 17.7229 6.63122C17.5222 6.88096 17.2723 7.0664 16.973 7.1876C15.5464 7.71161 14.0707 7.9616 12.5461 7.9375C12.1356 7.90262 11.7243 7.88646 11.3124 7.88912C11.3548 7.70285 11.4194 7.52544 11.5059 7.35693C11.8316 7.26215 12.1299 7.11701 12.401 6.9215C12.4252 6.32501 12.4332 5.72833 12.4252 5.1314ZM17.6503 7.74398C17.7147 8.14588 17.747 8.56515 17.7471 9.00188C17.739 9.4212 17.731 9.84047 17.7229 10.2598C17.6342 10.413 17.5132 10.534 17.36 10.6226C16.325 11.1395 15.2284 11.4297 14.0701 11.4935C12.4264 11.6431 10.7976 11.5463 9.18363 11.2032C8.83834 11.1096 8.49967 10.9967 8.16763 10.8646C8.45381 10.753 8.73606 10.6321 9.0143 10.5017C9.26429 10.6065 9.51422 10.7113 9.76421 10.8162C9.88376 10.8503 9.99668 10.8342 10.1029 10.7678C10.5317 10.3551 10.943 9.92775 11.3366 9.48569C11.3689 9.40504 11.3689 9.32444 11.3366 9.24379C11.2414 9.05505 11.1769 8.86153 11.1431 8.66322C12.9987 8.84494 14.8291 8.69171 16.6343 8.2036C17.0003 8.10088 17.3389 7.94766 17.6503 7.74398ZM17.6503 11.3726C17.7443 11.593 17.7765 11.8349 17.7471 12.0983C17.6308 12.0931 17.5421 12.1415 17.481 12.2434C17.3708 12.4798 17.274 12.7218 17.1907 12.9691C17.1665 13.0256 17.1262 13.0659 17.0697 13.0901C16.7149 13.2071 16.3681 13.3441 16.0295 13.5013C15.7796 13.3965 15.5296 13.2917 15.2796 13.1868C15.1601 13.1527 15.0472 13.1688 14.941 13.2352C14.5458 13.6303 14.1508 14.0254 13.7556 14.4206C13.6617 14.6729 13.702 14.9068 13.8766 15.1221C12.2118 15.2978 10.5668 15.1849 8.94173 14.7834C8.52222 14.6623 8.11901 14.5011 7.7322 14.2996C7.56287 14.1948 7.42581 14.0577 7.32097 13.8884C7.29678 13.2273 7.2887 12.5662 7.29678 11.9047C7.48319 11.8639 7.61217 11.7509 7.68382 11.5661C8.97424 12.0644 10.3127 12.3305 11.6994 12.3644C13.4432 12.4642 15.1527 12.2706 16.8278 11.7838C17.1278 11.6872 17.402 11.5502 17.6503 11.3726ZM18.0857 12.8724C18.4083 12.8724 18.7308 12.8724 19.0534 12.8724C19.1244 13.1581 19.2293 13.4322 19.3678 13.6948C19.8943 13.8651 20.4023 14.0828 20.8918 14.348C21.0209 14.3803 21.1498 14.3803 21.2789 14.348C21.4869 14.2467 21.6966 14.166 21.9078 14.1061C22.1263 14.3164 22.336 14.5342 22.5368 14.7592C22.3462 15.058 22.2575 15.3806 22.2707 15.7268C22.5371 16.2037 22.7468 16.7037 22.8996 17.2267C23.1654 17.3824 23.4477 17.4953 23.7463 17.5653C23.7463 17.8879 23.7463 18.2104 23.7463 18.5329C23.4606 18.604 23.1865 18.7089 22.9238 18.8474C22.7536 19.3739 22.5359 19.8819 22.2707 20.3714C22.2384 20.5004 22.2384 20.6294 22.2707 20.7585C22.372 20.9665 22.4527 21.1762 22.5126 21.3874C22.3022 21.6059 22.0845 21.8155 21.8595 22.0164C21.5607 21.8258 21.2381 21.7371 20.8918 21.7503C20.4149 22.0167 19.915 22.2263 19.392 22.3792C19.2363 22.645 19.1234 22.9272 19.0534 23.2259C18.7308 23.2259 18.4083 23.2259 18.0857 23.2259C18.0147 22.9402 17.9098 22.6661 17.7713 22.4034C17.2448 22.2332 16.7368 22.0154 16.2473 21.7503C16.1182 21.718 15.9892 21.718 15.8602 21.7503C15.6522 21.8516 15.4425 21.9322 15.2313 21.9922C15.0128 21.7818 14.8031 21.5641 14.6023 21.339C14.7929 21.0402 14.8816 20.7177 14.8684 20.3714C14.602 19.8945 14.3923 19.3946 14.2394 18.8716C13.9736 18.7159 13.6914 18.6029 13.3928 18.5329C13.3727 18.2208 13.3968 17.9144 13.4654 17.6137C13.7217 17.485 13.9797 17.356 14.2394 17.2267C14.3923 16.7037 14.602 16.2037 14.8684 15.7268C14.9007 15.5978 14.9007 15.4688 14.8684 15.3398C14.7671 15.1318 14.6864 14.9221 14.6265 14.7108C14.8369 14.4924 15.0546 14.2827 15.2796 14.0819C15.5784 14.2725 15.901 14.3612 16.2473 14.348C16.7241 14.0815 17.2241 13.8719 17.7471 13.719C17.9028 13.4532 18.0157 13.171 18.0857 12.8724ZM7.29678 15.0011C8.05795 15.3973 8.86427 15.6634 9.71583 15.7994C11.0813 16.0023 12.4521 16.0668 13.8282 15.9929C13.7359 16.2135 13.6392 16.4312 13.5379 16.6461C13.2509 16.7413 12.9768 16.8622 12.7154 17.0089C12.409 17.025 12.1026 17.0412 11.7962 17.0573C11.6301 17.1313 11.5495 17.2603 11.5543 17.4444C11.5499 17.5805 11.5982 17.6934 11.6994 17.783C12.0014 17.8493 12.3078 17.8735 12.6187 17.8556C12.6187 18.1943 12.6187 18.5329 12.6187 18.8716C11.1476 18.8847 9.71229 18.667 8.31278 18.2185C7.90797 18.085 7.57739 17.8512 7.32097 17.5169C7.29678 16.6785 7.2887 15.8399 7.29678 15.0011Z" fill="url(#paint0_linear_1961_1270)"/>
<path opacity="0.939" fill-rule="evenodd" clip-rule="evenodd" d="M13.3448 2.0831C16.2316 2.07504 19.1183 2.0831 22.005 2.10729C22.0743 2.1298 22.1307 2.17012 22.1744 2.22825C22.2384 4.65939 22.2707 7.0946 22.2711 9.53377C22.3791 9.32051 22.5485 9.19148 22.7791 9.14673C23.0325 9.16627 23.1615 9.30334 23.1662 9.55796C23.1606 9.69014 23.1203 9.81109 23.0452 9.92082C22.7205 10.3847 22.3899 10.8443 22.0534 11.2997C21.844 11.3554 21.6585 11.3151 21.497 11.1787C21.1906 10.7272 20.8842 10.2756 20.5778 9.82406C20.4088 9.45245 20.5217 9.2267 20.9164 9.14673C21.149 9.18567 21.3103 9.3147 21.4003 9.53377C21.4244 7.32446 21.4325 5.11504 21.4244 2.90558C18.7473 2.91364 16.0702 2.90558 13.3932 2.88139C13.1009 2.74414 13.0283 2.52643 13.1755 2.22825C13.2309 2.17327 13.2873 2.12488 13.3448 2.0831Z" fill="url(#paint1_linear_1961_1270)"/>
<path opacity="0.914" fill-rule="evenodd" clip-rule="evenodd" d="M11.8433 9.72762C12.2952 9.71959 12.7467 9.72762 13.198 9.75181C13.4594 9.85259 13.5481 10.038 13.4641 10.3082C13.4238 10.413 13.3512 10.4856 13.2464 10.5259C12.7626 10.5582 12.2787 10.5582 11.7949 10.5259C11.5478 10.3631 11.4913 10.1453 11.6256 9.87276C11.7055 9.82927 11.7781 9.78089 11.8433 9.72762Z" fill="url(#paint2_linear_1961_1270)"/>
<path opacity="0.939" fill-rule="evenodd" clip-rule="evenodd" d="M2.94089 12.6793C3.15083 12.6477 3.33629 12.696 3.49727 12.8244C3.80368 13.276 4.1101 13.7276 4.41651 14.1791C4.58188 14.5456 4.46899 14.7713 4.07784 14.8564C3.84529 14.8175 3.68402 14.6885 3.59403 14.4694C3.56984 16.6787 3.56178 18.8881 3.56984 21.0976C6.24695 21.0895 8.92407 21.0976 11.6011 21.1218C11.8934 21.259 11.966 21.4768 11.8188 21.7749C11.7751 21.833 11.7187 21.8734 11.6495 21.8959C8.72648 21.9439 5.80751 21.9278 2.89251 21.8475C2.83438 21.8038 2.79406 21.7474 2.77155 21.6782C2.75543 19.2752 2.7393 16.8723 2.72317 14.4694C2.61513 14.6827 2.4458 14.8117 2.21517 14.8564C1.96181 14.8369 1.8328 14.6998 1.82812 14.4452C1.83368 14.313 1.874 14.1921 1.94908 14.0824C2.28014 13.6133 2.61075 13.1456 2.94089 12.6793Z" fill="url(#paint3_linear_1961_1270)"/>
<path opacity="0.918" fill-rule="evenodd" clip-rule="evenodd" d="M11.7467 13.4044C12.263 13.3963 12.7791 13.4044 13.2949 13.4286C13.5529 13.6705 13.5529 13.9124 13.2949 14.1543C12.7788 14.2511 12.2628 14.2511 11.7467 14.1543C11.4907 13.9044 11.4907 13.6544 11.7467 13.4044Z" fill="url(#paint4_linear_1961_1270)"/>
<path opacity="0.932" fill-rule="evenodd" clip-rule="evenodd" d="M17.989 14.8073C19.995 14.6523 21.261 15.5393 21.7869 17.4683C21.9762 19.1298 21.3231 20.3312 19.8275 21.0727C18.1659 21.6154 16.8193 21.188 15.7876 19.7906C14.9669 18.191 15.2008 16.7638 16.4892 15.5089C16.9437 15.1686 17.4436 14.9348 17.989 14.8073ZM18.5212 15.5814C17.0581 15.7544 16.2679 16.5768 16.1505 18.0489C16.2695 19.5387 17.0758 20.3612 18.5696 20.5163C20.0633 20.3612 20.8696 19.5387 20.9886 18.0489C20.8629 16.5362 20.0404 15.7138 18.5212 15.5814Z" fill="url(#paint5_linear_1961_1270)"/>
<path opacity="0.932" fill-rule="evenodd" clip-rule="evenodd" d="M5.79366 2.71262C7.79973 2.55754 9.06571 3.44453 9.59157 5.37358C9.78093 7.03508 9.12779 8.23652 7.63214 8.97796C5.97054 9.52065 4.62395 9.0933 3.59233 7.69586C2.77161 6.09629 3.00545 4.66905 4.29385 3.41415C4.74834 3.0739 5.24826 2.84006 5.79366 2.71262ZM6.32585 3.48672C4.86282 3.65964 4.0726 4.48211 3.95518 5.95415C4.07417 7.44399 4.88052 8.26647 6.37423 8.42158C7.86795 8.26647 8.67431 7.44399 8.79328 5.95415C8.66759 4.44153 7.84511 3.61905 6.32585 3.48672Z" fill="url(#paint6_linear_1961_1270)"/>
<defs>
<linearGradient id="paint0_linear_1961_1270" x1="0.235974" y1="-9.36907e-07" x2="29.1526" y2="12.4865" gradientUnits="userSpaceOnUse">
<stop offset="0.11" stop-color="#60D7AD"/>
<stop offset="0.76" stop-color="#213C3A"/>
</linearGradient>
<linearGradient id="paint1_linear_1961_1270" x1="12.981" y1="2.08008" x2="24.7649" y2="7.621" gradientUnits="userSpaceOnUse">
<stop offset="0.11" stop-color="#60D7AD"/>
<stop offset="0.76" stop-color="#213C3A"/>
</linearGradient>
<linearGradient id="paint2_linear_1961_1270" x1="11.5314" y1="9.72461" x2="12.8977" y2="11.1113" gradientUnits="userSpaceOnUse">
<stop offset="0.11" stop-color="#60D7AD"/>
<stop offset="0.76" stop-color="#213C3A"/>
</linearGradient>
<linearGradient id="paint3_linear_1961_1270" x1="1.70756" y1="12.6699" x2="13.4957" y2="18.2074" gradientUnits="userSpaceOnUse">
<stop offset="0.11" stop-color="#60D7AD"/>
<stop offset="0.76" stop-color="#213C3A"/>
</linearGradient>
<linearGradient id="paint4_linear_1961_1270" x1="11.5315" y1="13.4014" x2="12.8979" y2="14.7836" gradientUnits="userSpaceOnUse">
<stop offset="0.11" stop-color="#60D7AD"/>
<stop offset="0.76" stop-color="#213C3A"/>
</linearGradient>
<linearGradient id="paint5_linear_1961_1270" x1="15.2306" y1="14.79" x2="23.0752" y2="18.1778" gradientUnits="userSpaceOnUse">
<stop offset="0.11" stop-color="#60D7AD"/>
<stop offset="0.76" stop-color="#213C3A"/>
</linearGradient>
<linearGradient id="paint6_linear_1961_1270" x1="3.03529" y1="2.69531" x2="10.8799" y2="6.08304" gradientUnits="userSpaceOnUse">
<stop offset="0.11" stop-color="#60D7AD"/>
<stop offset="0.76" stop-color="#213C3A"/>
</linearGradient>
</defs>
</svg>
