<svg width="25" height="24" viewBox="0 0 25 24" fill="none" xmlns="http://www.w3.org/2000/svg">
<path opacity="0.938" fill-rule="evenodd" clip-rule="evenodd" d="M9.85156 0C10.0703 0 10.289 0 10.5078 0C10.8986 0.109508 11.1486 0.359508 11.2578 0.75C11.8674 0.742191 12.4768 0.750005 13.0859 0.773438C13.3512 0.820106 13.5309 0.968541 13.625 1.21875C13.694 3.13877 13.7174 5.06063 13.6953 6.98438C14.0469 6.98438 14.8438 6.98438 15.1953 6.98438C15.1953 7.24219 15.1953 7.54688 15.1953 7.75781C14.3516 7.75781 13.0259 7.75523 12.1953 7.75781C12.4372 7.95239 12.5779 8.20238 12.6172 8.50781C12.548 8.80289 12.4386 9.08414 12.2891 9.35156C12.4008 9.648 12.5258 9.93708 12.6641 10.2188C12.9893 10.2929 13.2784 10.4335 13.5312 10.6406C13.6133 10.7693 13.6602 10.91 13.6719 11.0625C13.7031 11.6875 13.7031 12.3125 13.6719 12.9375C13.6513 13.2211 13.5185 13.4321 13.2734 13.5703C13.0685 13.636 12.8654 13.7063 12.6641 13.7812C12.5258 14.0629 12.4008 14.352 12.2891 14.6484C12.4386 14.9159 12.548 15.1971 12.6172 15.4922C12.5779 15.7976 12.4372 16.0476 12.1953 16.2422C15.9766 16.2735 19.7578 16.2735 23.5391 16.2422C23.6873 16.1728 23.7733 16.0556 23.7969 15.8906C23.8281 13.2969 23.8281 10.7031 23.7969 8.10938C23.7733 7.94438 23.6873 7.82719 23.5391 7.75781C21.0391 7.7422 17.6953 7.77342 15.1953 7.75781C15.1953 7.3125 15.1953 7.28906 15.1953 6.98438C15.4918 6.96094 16.4918 6.97659 16.7891 6.98438C16.8047 5.3903 16.7891 3.79657 16.7422 2.20312C16.0122 1.7706 15.8482 1.17685 16.25 0.421875C16.4211 0.239482 16.6165 0.098857 16.8359 0C17.0703 0 17.3047 0 17.5391 0C18.3588 0.434636 18.5385 1.05964 18.0781 1.875C17.9407 2.02564 17.7766 2.13502 17.5859 2.20312C17.5391 3.79657 17.5235 5.3903 17.5391 6.98438C18.3359 6.98438 19.1328 6.98438 19.9297 6.98438C19.907 5.02842 19.9305 3.07528 20 1.125C20.1248 0.953391 20.2889 0.836203 20.4922 0.773438C21.1022 0.765595 21.7115 0.742158 22.3203 0.703125C22.4828 0.368595 22.7328 0.13422 23.0703 0C23.2891 0 23.5078 0 23.7266 0C24.1016 0.15625 24.3672 0.421875 24.5234 0.796875C24.5234 1.01563 24.5234 1.23437 24.5234 1.45312C24.1445 2.25951 23.5507 2.47044 22.7422 2.08594C22.5583 1.94099 22.4177 1.7613 22.3203 1.54688C21.7743 1.50005 21.2275 1.48443 20.6797 1.5C20.6797 3.32812 20.6797 5.15625 20.6797 6.98438C21.6954 6.97655 22.7111 6.98438 23.7266 7.00781C24.1102 7.14933 24.3758 7.40714 24.5234 7.78125C24.5234 10.5938 24.5234 13.4062 24.5234 16.2188C24.3758 16.5929 24.1102 16.8507 23.7266 16.9922C22.7111 17.0156 21.6954 17.0235 20.6797 17.0156C20.6797 18.8438 20.6797 20.6719 20.6797 22.5C21.2275 22.5156 21.7743 22.5 22.3203 22.4531C22.7235 21.7177 23.3016 21.538 24.0547 21.9141C24.2782 22.0818 24.4345 22.2928 24.5234 22.5469C24.5234 22.7656 24.5234 22.9844 24.5234 23.2031C24.3672 23.5781 24.1016 23.8438 23.7266 24C23.5078 24 23.2891 24 23.0703 24C22.7328 23.8658 22.4828 23.6314 22.3203 23.2969C21.7115 23.2578 21.1022 23.2344 20.4922 23.2266C20.2889 23.1638 20.1248 23.0466 20 22.875C19.9305 20.9247 19.907 18.9716 19.9297 17.0156C18.8828 17.0156 17.8359 17.0156 16.7891 17.0156C16.7735 18.6097 16.7891 20.2035 16.8359 21.7969C17.5803 22.2264 17.7444 22.8201 17.3281 23.5781C17.1735 23.7835 16.9782 23.9242 16.7422 24C16.5234 24 16.3047 24 16.0859 24C15.3606 23.6739 15.1184 23.1271 15.3594 22.3594C15.4888 22.0816 15.6997 21.8941 15.9922 21.7969C16.0391 20.2035 16.0547 18.6097 16.0391 17.0156C15.2578 17.0156 14.4766 17.0156 13.6953 17.0156C13.7174 18.9394 13.694 20.8612 13.625 22.7812C13.5309 23.0315 13.3512 23.1799 13.0859 23.2266C12.4768 23.25 11.8674 23.2578 11.2578 23.25C11.1351 23.6245 10.8851 23.8745 10.5078 24C10.289 24 10.0703 24 9.85156 24C9.05206 23.5935 8.85673 22.9842 9.26562 22.1719C9.76503 21.6563 10.3197 21.586 10.9297 21.9609C11.0939 22.1102 11.2033 22.2899 11.2578 22.5C11.8203 22.5 12.3828 22.5 12.9453 22.5C12.9453 20.6719 12.9453 18.8438 12.9453 17.0156C12.4295 17.0078 11.9138 17.0156 11.3984 17.0391C11.1887 17.3127 10.9152 17.4612 10.5781 17.4844C10.4922 17.4765 10.4062 17.4688 10.3203 17.4609C10.117 17.3749 9.91381 17.2889 9.71094 17.2031C9.44938 17.3216 9.18373 17.431 8.91406 17.5312C8.80559 17.7391 8.71967 17.9579 8.65625 18.1875C8.56756 18.3543 8.43477 18.4715 8.25781 18.5391C7.47655 18.5703 6.69533 18.5703 5.91406 18.5391C5.73711 18.4715 5.60431 18.3543 5.51562 18.1875C5.4522 17.9579 5.36628 17.7391 5.25781 17.5312C5.01764 17.4434 4.78326 17.3418 4.55469 17.2266C4.49219 17.1953 4.42969 17.1953 4.36719 17.2266C3.98322 17.5014 3.57697 17.5483 3.14844 17.3672C2.60631 16.8564 2.09849 16.3174 1.625 15.75C1.59375 15.5781 1.59375 15.4063 1.625 15.2344C1.71108 15.031 1.79701 14.8279 1.88281 14.625C1.76435 14.3634 1.65497 14.0978 1.55469 13.8281C1.34679 13.7197 1.12804 13.6337 0.898438 13.5703C0.730773 13.4731 0.605772 13.3403 0.523438 13.1719C0.523438 12.3906 0.523438 11.6094 0.523438 10.8281C0.605772 10.6597 0.730773 10.5269 0.898438 10.4297C1.12804 10.3663 1.34679 10.2803 1.55469 10.1719C1.65497 9.9022 1.76435 9.63656 1.88281 9.375C1.79701 9.17212 1.71108 8.96897 1.625 8.76562C1.57494 8.51869 1.60619 8.28431 1.71875 8.0625C2.21094 7.57031 2.70312 7.07812 3.19531 6.58594C3.61549 6.4552 4.00611 6.51769 4.36719 6.77344C4.42969 6.8047 4.49219 6.8047 4.55469 6.77344C4.78326 6.65817 5.01764 6.55664 5.25781 6.46875C5.36628 6.26086 5.4522 6.04209 5.51562 5.8125C5.60431 5.64572 5.73711 5.52853 5.91406 5.46094C6.69533 5.42967 7.47655 5.42967 8.25781 5.46094C8.43477 5.52853 8.56756 5.64572 8.65625 5.8125C8.71967 6.04209 8.80559 6.26086 8.91406 6.46875C9.18373 6.56902 9.44938 6.67842 9.71094 6.79688C9.91381 6.71109 10.117 6.62512 10.3203 6.53906C10.5433 6.50109 10.7621 6.51675 10.9766 6.58594C11.1311 6.69352 11.2717 6.81853 11.3984 6.96094C11.9138 6.98438 12.4295 6.9922 12.9453 6.98438C12.9453 5.15625 12.9453 3.32812 12.9453 1.5C12.3828 1.5 11.8203 1.5 11.2578 1.5C11.1618 1.86958 10.9274 2.11177 10.5547 2.22656C9.81856 2.38594 9.32638 2.11251 9.07812 1.40625C8.96923 0.728081 9.22705 0.259333 9.85156 0ZM10.0391 0.75C10.5279 0.743883 10.6763 0.96263 10.4844 1.40625C10.0371 1.63159 9.81837 1.49097 9.82812 0.984375C9.87617 0.881859 9.94648 0.803738 10.0391 0.75ZM17.0234 0.75C17.4775 0.72097 17.6415 0.924098 17.5156 1.35938C17.2449 1.61835 17.0105 1.58711 16.8125 1.26562C16.7551 1.03716 16.8254 0.86528 17.0234 0.75ZM23.2109 0.75C23.6402 0.702619 23.8198 0.890119 23.75 1.3125C23.4107 1.63481 23.1529 1.5723 22.9766 1.125C23.0174 0.975187 23.0955 0.850186 23.2109 0.75ZM6.19531 6.14062C6.78988 6.12506 7.38364 6.14067 7.97656 6.1875C8.05789 6.42366 8.14381 6.65803 8.23438 6.89062C8.30469 6.96094 8.375 7.03125 8.44531 7.10156C8.87356 7.27284 9.30322 7.43691 9.73438 7.59375C10.0349 7.50914 10.324 7.40761 10.6016 7.28906C11.0163 7.69598 11.4225 8.11003 11.8203 8.53125C11.6652 8.78667 11.5558 9.06009 11.4922 9.35156C11.649 9.78272 11.8131 10.2124 11.9844 10.6406C12.0547 10.7109 12.125 10.7812 12.1953 10.8516C12.4279 10.9421 12.6623 11.028 12.8984 11.1094C12.9609 11.7031 12.9609 12.2969 12.8984 12.8906C12.6623 12.972 12.4279 13.0579 12.1953 13.1484C12.125 13.2188 12.0547 13.2891 11.9844 13.3594C11.8131 13.7876 11.649 14.2173 11.4922 14.6484C11.5772 14.9497 11.6788 15.2387 11.7969 15.5156C11.39 15.9304 10.9759 16.3366 10.5547 16.7344C10.2986 16.5789 10.0251 16.4695 9.73438 16.4062C9.30322 16.5631 8.87356 16.7272 8.44531 16.8984C8.375 16.9688 8.30469 17.0391 8.23438 17.1094C8.14381 17.342 8.05789 17.5763 7.97656 17.8125C7.3828 17.875 6.78908 17.875 6.19531 17.8125C6.11398 17.5763 6.02806 17.342 5.9375 17.1094C5.86719 17.0391 5.79688 16.9688 5.72656 16.8984C5.29831 16.7272 4.86865 16.5631 4.4375 16.4062C4.13694 16.4909 3.84788 16.5924 3.57031 16.7109C3.15557 16.304 2.74933 15.89 2.35156 15.4688C2.51379 15.207 2.62316 14.9257 2.67969 14.625C2.51606 14.2038 2.35199 13.782 2.1875 13.3594C2.11719 13.2891 2.04688 13.2188 1.97656 13.1484C1.72436 13.0646 1.48217 12.963 1.25 12.8438C1.21875 12.2812 1.21875 11.7188 1.25 11.1562C1.48217 11.037 1.72436 10.9354 1.97656 10.8516C2.04688 10.7812 2.11719 10.7109 2.1875 10.6406C2.35878 10.2124 2.52284 9.78272 2.67969 9.35156C2.59509 9.051 2.49352 8.76192 2.375 8.48438C2.78192 8.06962 3.19598 7.66341 3.61719 7.26562C3.87948 7.42819 4.16073 7.53755 4.46094 7.59375C4.88168 7.43039 5.30356 7.26633 5.72656 7.10156C5.83011 7.01377 5.91603 6.91219 5.98438 6.79688C6.0597 6.57872 6.13002 6.36 6.19531 6.14062ZM10.1328 22.4531C10.4567 22.4768 10.6051 22.6487 10.5781 22.9688C10.4805 23.2221 10.3008 23.308 10.0391 23.2266C9.80305 23.0853 9.74834 22.89 9.875 22.6406C9.94531 22.5483 10.0312 22.4858 10.1328 22.4531ZM16.3672 22.4531C16.7605 22.5257 16.8777 22.7445 16.7188 23.1094C16.3723 23.3535 16.1301 23.2753 15.9922 22.875C16.022 22.6424 16.1471 22.5017 16.3672 22.4531ZM23.3516 22.4531C23.702 22.5144 23.8348 22.7175 23.75 23.0625C23.6115 23.2395 23.4318 23.2942 23.2109 23.2266C22.8973 22.9083 22.9442 22.6505 23.3516 22.4531Z" fill="url(#paint0_linear_1976_1051)"/>
<path opacity="0.934" fill-rule="evenodd" clip-rule="evenodd" d="M14.7266 10.0781C15.2424 10.0703 15.7581 10.0781 16.2734 10.1016C16.4949 10.2157 16.5652 10.3954 16.4844 10.6406C16.4297 10.6953 16.375 10.75 16.3203 10.8047C15.9613 10.8281 15.6019 10.8359 15.2422 10.8281C15.2422 11.0938 15.2422 11.3594 15.2422 11.625C15.5551 11.6172 15.8676 11.625 16.1797 11.6484C16.4011 11.7626 16.4714 11.9423 16.3906 12.1875C16.3337 12.2601 16.2634 12.3148 16.1797 12.3516C15.8676 12.375 15.5551 12.3828 15.2422 12.375C15.2422 12.6406 15.2422 12.9062 15.2422 13.1719C15.6019 13.1641 15.9613 13.1719 16.3203 13.1953C16.4974 13.3318 16.5521 13.5114 16.4844 13.7344C16.4275 13.807 16.3572 13.8616 16.2734 13.8984C15.7578 13.9297 15.2422 13.9297 14.7266 13.8984C14.6429 13.8616 14.5725 13.807 14.5156 13.7344C14.4844 12.5781 14.4844 11.4219 14.5156 10.2656C14.5811 10.192 14.6514 10.1295 14.7266 10.0781Z" fill="url(#paint1_linear_1976_1051)"/>
<path opacity="0.943" fill-rule="evenodd" clip-rule="evenodd" d="M17.4687 10.0775C17.9561 10.0588 18.4405 10.0822 18.9219 10.1478C19.584 10.4769 19.6484 10.8978 19.7488 11.7348C19.7488 12.0995 19.7488 12.543 19.5832 12.9614C19.517 13.1934 19.5499 13.072 19.4174 13.2928C19.318 13.4586 19.0859 13.6243 19.0859 13.6243C19.0859 13.6243 18.8086 13.9225 18.3567 13.9227C17.9047 13.9229 18.2105 13.9227 17.8926 13.9227C17.5611 13.9227 17.5 13.9227 17.3048 13.8275C17.2276 12.6441 17.2587 11.4566 17.3047 10.265C17.337 10.1783 17.3917 10.1158 17.4687 10.0775ZM17.7931 10.7072C17.7931 10.9885 17.7931 12.9453 17.7931 13.2265C17.9589 13.2928 18.6898 13.2928 18.9219 12.9614C19.4219 12.4614 19.1916 11.1606 18.9219 10.873C18.6521 10.5853 18.0321 10.692 17.7931 10.7072Z" fill="url(#paint2_linear_1976_1051)"/>
<path opacity="0.922" fill-rule="evenodd" clip-rule="evenodd" d="M20.75 10.0781C21.1878 10.0703 21.6253 10.0781 22.0625 10.1015C22.8741 10.3728 23.1787 10.9275 22.9766 11.7656C22.6119 12.4517 22.0416 12.7173 21.2656 12.5625C21.2734 12.969 21.2656 13.3753 21.2422 13.7812C21.0234 13.9687 20.8047 13.9687 20.5859 13.7812C20.5703 13.7188 20.5547 13.6562 20.5391 13.5937C20.5078 12.5312 20.5078 11.4688 20.5391 10.4062C20.5639 10.2616 20.6342 10.1523 20.75 10.0781ZM21.2656 10.8281C21.3041 11.1408 21.3197 11.4689 21.3125 11.8125C21.5684 11.8311 21.8184 11.8077 22.0625 11.7422C22.4032 11.3833 22.3563 11.0864 21.9219 10.8515C21.7037 10.8282 21.485 10.8203 21.2656 10.8281Z" fill="url(#paint3_linear_1976_1051)"/>
<path opacity="0.952" fill-rule="evenodd" clip-rule="evenodd" d="M6.78611 8.35834C7.50004 8.33413 8.20493 8.40101 8.90071 8.55898C9.26172 8.64349 9.57848 8.80847 9.85095 9.0539C9.90076 9.11778 9.93644 9.1891 9.95801 9.26792C9.97587 11.0871 9.97587 12.9062 9.95801 14.7254C9.89637 14.903 9.78486 15.0412 9.62342 15.14C9.06137 15.4298 8.46355 15.5904 7.83003 15.6216C7.02522 15.6864 6.23112 15.624 5.44775 15.4343C5.09857 15.3423 4.79075 15.1774 4.52428 14.9394C4.47447 14.8755 4.43879 14.8042 4.41721 14.7254C4.39072 12.8779 4.39963 11.032 4.44398 9.18766C4.5972 8.95462 4.80689 8.78964 5.07301 8.69274C5.63188 8.49986 6.2029 8.38841 6.78611 8.35834ZM7.16085 8.78638C6.76097 8.80138 6.35947 8.84151 5.95633 8.90676C5.62736 8.96583 5.31509 9.07284 5.01948 9.22779C4.87715 9.29338 4.837 9.39592 4.89902 9.53544C5.11254 9.6929 5.34898 9.80438 5.60835 9.86984C6.66118 10.1374 7.71404 10.1374 8.76688 9.86984C9.76569 9.57383 9.76569 9.27955 8.76688 8.98702C8.23825 8.86198 7.70291 8.7951 7.16085 8.78638ZM4.83211 10.0437C4.82764 10.4095 4.83211 10.7751 4.84549 11.1406C4.93366 11.2907 5.06303 11.3933 5.23361 11.4482C5.86534 11.6728 6.51667 11.7843 7.18761 11.7826C7.83728 11.7809 8.47078 11.6784 9.08808 11.475C9.27928 11.4177 9.4265 11.3063 9.52974 11.1406C9.54759 10.7749 9.54759 10.4093 9.52974 10.0437C9.43817 10.0962 9.34448 10.1452 9.24868 10.1909C8.37755 10.4703 7.48529 10.5684 6.57197 10.4851C5.95964 10.4583 5.37971 10.3111 4.83211 10.0437ZM4.83211 11.7559C4.82764 12.1216 4.83211 12.4872 4.84549 12.8527C4.93366 13.0028 5.06303 13.1054 5.23361 13.1604C5.86534 13.385 6.51667 13.4964 7.18761 13.4948C7.83728 13.4931 8.47078 13.3905 9.08808 13.1871C9.27928 13.1299 9.4265 13.0184 9.52974 12.8527C9.54759 12.4871 9.54759 12.1215 9.52974 11.7559C9.43817 11.8083 9.34448 11.8574 9.24868 11.903C8.37755 12.1824 7.48529 12.2805 6.57197 12.1973C5.95964 12.1704 5.37971 12.0233 4.83211 11.7559ZM4.83211 13.468C4.82764 13.8337 4.83211 14.1993 4.84549 14.5648C4.93366 14.715 5.06303 14.8175 5.23361 14.8725C5.86534 15.0971 6.51667 15.2086 7.18761 15.2069C7.83728 15.2052 8.47078 15.1027 9.08808 14.8992C9.27928 14.842 9.4265 14.7306 9.52974 14.5648C9.54759 14.1992 9.54759 13.8336 9.52974 13.468C9.43817 13.5205 9.34448 13.5695 9.24868 13.6151C8.37755 13.8945 7.48529 13.9926 6.57197 13.9094C5.95964 13.8825 5.37971 13.7354 4.83211 13.468Z" fill="url(#paint4_linear_1976_1051)"/>
<defs>
<linearGradient id="paint0_linear_1976_1051" x1="0.235938" y1="-9.36907e-07" x2="29.1551" y2="12.4891" gradientUnits="userSpaceOnUse">
<stop offset="0.11" stop-color="#60D7AD"/>
<stop offset="0.76" stop-color="#213C3A"/>
</linearGradient>
<linearGradient id="paint1_linear_1976_1051" x1="14.4679" y1="10.0752" x2="17.2203" y2="10.7008" gradientUnits="userSpaceOnUse">
<stop offset="0.11" stop-color="#60D7AD"/>
<stop offset="0.76" stop-color="#213C3A"/>
</linearGradient>
<linearGradient id="paint2_linear_1976_1051" x1="17.228" y1="10.0713" x2="20.5316" y2="10.994" gradientUnits="userSpaceOnUse">
<stop offset="0.11" stop-color="#60D7AD"/>
<stop offset="0.76" stop-color="#213C3A"/>
</linearGradient>
<linearGradient id="paint3_linear_1976_1051" x1="20.4854" y1="10.0752" x2="23.8229" y2="11.02" gradientUnits="userSpaceOnUse">
<stop offset="0.11" stop-color="#60D7AD"/>
<stop offset="0.76" stop-color="#213C3A"/>
</linearGradient>
<linearGradient id="paint4_linear_1976_1051" x1="4.33563" y1="8.35352" x2="11.5167" y2="10.7217" gradientUnits="userSpaceOnUse">
<stop offset="0.11" stop-color="#60D7AD"/>
<stop offset="0.76" stop-color="#213C3A"/>
</linearGradient>
</defs>
</svg>
