<svg width="32" height="24" viewBox="0 0 32 24" fill="none" xmlns="http://www.w3.org/2000/svg">
<path opacity="0.935" fill-rule="evenodd" clip-rule="evenodd" d="M26.1755 10.339C26.5452 9.95436 26.9927 9.77886 27.5181 9.8125C28.1882 10.0087 28.4688 10.4516 28.3599 11.1412C27.9396 13.1428 27.5308 15.1469 27.1332 17.1537C27.0348 17.4676 26.8661 17.7353 26.6272 17.9569C25.0583 18.776 23.4938 19.6066 21.934 20.4488C21.7974 20.5787 21.7021 20.7344 21.648 20.9159C21.5752 21.1799 21.4936 21.4415 21.4031 21.7005C21.6101 21.9355 21.6648 22.1996 21.5672 22.493C21.157 22.9188 20.7139 23.3087 20.2377 23.6625C20.0298 23.7722 19.8204 23.7724 19.6094 23.6631C18.5407 22.4333 17.4915 21.187 16.462 19.9241C16.4125 19.759 16.4174 19.5955 16.4768 19.4338C16.6931 19.1962 16.926 18.975 17.1757 18.77C17.4202 18.559 17.6779 18.3672 17.9489 18.1946C18.2125 18.1361 18.4485 18.1973 18.6569 18.3783C18.8688 17.7656 19.0718 17.1503 19.2661 16.5325C19.3684 16.3116 19.5203 16.1334 19.7217 15.9981C19.9292 15.8764 20.1471 15.7768 20.3755 15.6992C21.7297 15.1965 23.0839 14.6937 24.438 14.191C24.5385 14.1756 24.6395 14.1661 24.7409 14.1624C25.1002 13.1201 25.4539 12.0762 25.802 11.0307C25.897 10.7788 26.0215 10.5483 26.1755 10.339ZM26.6216 10.8689C26.8187 10.6622 27.0537 10.5231 27.3266 10.4515C27.5198 10.4598 27.6574 10.5535 27.7395 10.7328C27.3152 12.7034 26.9267 14.6821 26.574 16.6687C26.5295 16.9383 26.4265 17.1844 26.2648 17.4069C24.6709 18.2365 23.0868 19.0837 21.5127 19.9483C21.1941 20.2809 20.9875 20.6728 20.8927 21.1241C20.27 20.4242 19.667 19.7078 19.0836 18.9749C19.333 18.2304 19.588 17.4876 19.8486 16.7464C19.9266 16.5801 20.0542 16.4727 20.2313 16.4242C21.7114 15.8628 23.1967 15.3166 24.6874 14.7859C25.2031 14.824 25.4164 15.0972 25.3271 15.6056C25.2196 15.7967 25.0626 15.9289 24.856 16.0022C24.008 16.2829 23.1635 16.5745 22.3228 16.877C22.021 17.1088 22.0393 17.3198 22.3776 17.5099C23.3192 17.2147 24.2563 16.9037 25.189 16.577C25.9915 16.1876 26.216 15.5878 25.8625 14.7776C25.7546 14.6024 25.6119 14.4627 25.4342 14.3585C25.4193 14.3322 25.4126 14.3043 25.4141 14.2748C25.7969 13.1281 26.1994 11.9928 26.6216 10.8689ZM17.067 19.7166C17.4203 19.4192 17.7736 19.1218 18.1269 18.8244C19.0769 19.953 20.0269 21.0816 20.977 22.2102C20.6237 22.5076 20.2704 22.805 19.9171 23.1024C18.9671 21.9738 18.017 20.8452 17.067 19.7166Z" fill="url(#paint0_linear_1961_1269)"/>
<path opacity="0.935" fill-rule="evenodd" clip-rule="evenodd" d="M5.55884 10.339C5.18921 9.95436 4.7417 9.77886 4.21629 9.8125C3.54616 10.0087 3.26559 10.4516 3.37451 11.1412C3.79473 13.1428 4.20359 15.1469 4.60115 17.1537C4.69961 17.4676 4.8683 17.7353 5.10714 17.9569C6.67612 18.776 8.24055 19.6066 9.8004 20.4488C9.93701 20.5787 10.0323 20.7344 10.0863 20.9159C10.1591 21.1799 10.2408 21.4415 10.3313 21.7005C10.1242 21.9355 10.0695 22.1996 10.1672 22.493C10.5773 22.9188 11.0205 23.3087 11.4967 23.6625C11.7046 23.7722 11.914 23.7724 12.1249 23.6631C13.1937 22.4333 14.2429 21.187 15.2724 19.9241C15.3219 19.759 15.317 19.5955 15.2576 19.4338C15.0413 19.1962 14.8083 18.975 14.5587 18.77C14.3142 18.559 14.0565 18.3672 13.7855 18.1946C13.5219 18.1361 13.2859 18.1973 13.0775 18.3783C12.8656 17.7656 12.6625 17.1503 12.4683 16.5325C12.366 16.3116 12.2141 16.1334 12.0127 15.9981C11.8052 15.8764 11.5873 15.7768 11.3588 15.6992C10.0047 15.1965 8.6505 14.6937 7.29633 14.191C7.19585 14.1756 7.0949 14.1661 6.99344 14.1624C6.6342 13.1201 6.28049 12.0762 5.93235 11.0307C5.83733 10.7788 5.71283 10.5483 5.55884 10.339ZM5.11275 10.8689C4.91566 10.6622 4.68065 10.5231 4.40775 10.4515C4.21456 10.4598 4.07697 10.5535 3.99492 10.7328C4.41922 12.7034 4.8077 14.6821 5.16035 16.6687C5.20484 16.9383 5.30791 17.1844 5.46957 17.4069C7.06352 18.2365 8.64756 19.0837 10.2217 19.9483C10.5402 20.2809 10.7469 20.6728 10.8417 21.1241C11.4643 20.4242 12.0674 19.7078 12.6508 18.9749C12.4014 18.2304 12.1464 17.4876 11.8858 16.7464C11.8078 16.5801 11.6802 16.4727 11.5031 16.4242C10.023 15.8628 8.53763 15.3166 7.04701 14.7859C6.53124 14.824 6.318 15.0972 6.40731 15.6056C6.51476 15.7967 6.6718 15.9289 6.87837 16.0022C7.72641 16.2829 8.57083 16.5745 9.41162 16.877C9.71334 17.1088 9.69506 17.3198 9.35674 17.5099C8.41522 17.2147 7.47809 16.9037 6.54539 16.577C5.7429 16.1876 5.51838 15.5878 5.87188 14.7776C5.97973 14.6024 6.12248 14.4627 6.30017 14.3585C6.31504 14.3322 6.32176 14.3043 6.3203 14.2748C5.93752 13.1281 5.53502 11.9928 5.11275 10.8689ZM14.6673 19.7166C14.314 19.4192 13.9608 19.1218 13.6075 18.8244C12.6575 19.953 11.7074 21.0816 10.7574 22.2102C11.1107 22.5076 11.464 22.805 11.8173 23.1024C12.7673 21.9738 13.7173 20.8452 14.6673 19.7166Z" fill="url(#paint1_linear_1961_1269)"/>
<path opacity="0.934" fill-rule="evenodd" clip-rule="evenodd" d="M15.3211 0C15.7633 0 16.2055 0 16.6478 0C16.9421 0.0598638 17.1481 0.230723 17.2659 0.512577C17.3605 0.741321 17.4459 0.972484 17.5222 1.20606C18.2306 1.35676 18.8889 1.62812 19.4971 2.02015C19.8195 1.85138 20.1562 1.72073 20.5072 1.62818C20.7435 1.65091 20.9445 1.74639 21.1102 1.91462C21.3975 2.19191 21.6739 2.47835 21.9394 2.77394C22.0518 2.97598 22.082 3.18705 22.0298 3.40713C21.9158 3.66519 21.8103 3.92649 21.7132 4.19107C21.9151 4.57466 22.101 4.96663 22.271 5.36698C22.37 5.63243 22.4454 5.9038 22.4972 6.18107C22.8322 6.2844 23.1539 6.42008 23.462 6.58812C23.5956 6.71961 23.676 6.8754 23.7032 7.05546C23.7032 7.4977 23.7032 7.9399 23.7032 8.38213C23.6434 8.67647 23.4725 8.8825 23.1906 9.00024C22.9619 9.09489 22.7307 9.18031 22.4972 9.25653C22.3465 9.965 22.0751 10.6233 21.6831 11.2315C21.8557 11.5587 21.9864 11.9004 22.075 12.2566C22.0483 12.486 21.9528 12.682 21.7886 12.8446C21.5113 13.1319 21.2249 13.4083 20.9293 13.6737C20.7255 13.7865 20.5145 13.8167 20.2961 13.7642C20.038 13.6502 19.7767 13.5447 19.5122 13.4476C19.1286 13.6494 18.7366 13.8353 18.3362 14.0054C18.0708 14.1044 17.7994 14.1798 17.5222 14.2315C17.4188 14.5666 17.2831 14.8882 17.1151 15.1964C16.9836 15.3299 16.8278 15.4103 16.6478 15.4376C16.2055 15.4376 15.7633 15.4376 15.3211 15.4376C15.0268 15.3777 14.8207 15.2069 14.703 14.925C14.6083 14.6963 14.5229 14.4651 14.4467 14.2315C13.7383 14.0808 13.0799 13.8094 12.4718 13.4174C12.1446 13.5901 11.8029 13.7208 11.4466 13.8094C11.2172 13.7827 11.0212 13.6872 10.8587 13.523C10.5713 13.2457 10.2949 12.9593 10.0295 12.6637C9.91703 12.4616 9.88687 12.2505 9.93904 12.0305C10.0507 11.7619 10.1663 11.4956 10.2858 11.2315C9.89379 10.6233 9.62242 9.96497 9.47169 9.25653C9.13662 9.1532 8.815 9.01752 8.50684 8.84948C8.37328 8.71799 8.29288 8.5622 8.26562 8.38213C8.26562 7.9399 8.26562 7.4977 8.26562 7.05546C8.32549 6.76113 8.49635 6.5551 8.7782 6.43736C9.00695 6.34271 9.23811 6.25729 9.47169 6.18107C9.62238 5.4726 9.89375 4.8143 10.2858 4.20614C10.1283 3.87924 9.99761 3.54257 9.89381 3.19607C9.91653 2.95968 10.012 2.75867 10.1802 2.59303C10.4575 2.30567 10.744 2.02929 11.0396 1.76387C11.2433 1.65108 11.4544 1.62092 11.6728 1.67341C11.9413 1.7851 12.2076 1.90068 12.4718 2.02015C13.0799 1.62816 13.7383 1.3568 14.4467 1.20606C14.55 0.870991 14.6857 0.549373 14.8537 0.241212C14.9852 0.107656 15.141 0.0272523 15.3211 0ZM15.3814 0.542728C15.8158 0.529202 16.2479 0.544278 16.6779 0.587955C16.8252 0.909202 16.9609 1.23584 17.085 1.56788C17.1201 1.60306 17.1553 1.63823 17.1905 1.67341C17.9764 1.85033 18.71 2.15184 19.3916 2.57796C19.4848 2.59761 19.5753 2.58756 19.6629 2.54781C19.9142 2.43725 20.1655 2.3267 20.4167 2.21614C20.477 2.19604 20.5373 2.19604 20.5976 2.21614C20.9142 2.49253 21.2107 2.78902 21.4871 3.10561C21.5072 3.16591 21.5072 3.22622 21.4871 3.28652C21.3444 3.59189 21.2188 3.90345 21.1102 4.22122C21.2848 4.57046 21.4607 4.92224 21.6378 5.27652C21.8048 5.67697 21.9355 6.08905 22.0298 6.51274C22.065 6.54792 22.1002 6.58308 22.1353 6.61827C22.4481 6.74095 22.7597 6.8666 23.07 6.99516C23.1027 7.03029 23.1278 7.07048 23.1454 7.11577C23.174 7.55001 23.164 7.98217 23.1153 8.41228C22.794 8.55961 22.4674 8.69529 22.1353 8.81933C22.1002 8.85452 22.065 8.88967 22.0298 8.92486C21.8529 9.71073 21.5514 10.4444 21.1253 11.1259C21.1052 11.1862 21.1052 11.2465 21.1253 11.3068C21.2459 11.5882 21.3665 11.8697 21.4871 12.1511C21.5072 12.2114 21.5072 12.2717 21.4871 12.332C21.2107 12.6486 20.9142 12.9451 20.5976 13.2215C20.5373 13.2416 20.477 13.2416 20.4167 13.2215C20.1113 13.0788 19.7998 12.9531 19.482 12.8446C19.1328 13.0192 18.781 13.1951 18.4267 13.3722C18.0264 13.5392 17.6143 13.6698 17.1905 13.7642C17.1553 13.7994 17.1201 13.8345 17.085 13.8697C16.9623 14.1825 16.8366 14.4941 16.7081 14.8044C16.6729 14.8371 16.6327 14.8622 16.5875 14.8798C16.1532 14.9084 15.7211 14.8983 15.2909 14.8496C15.1436 14.5284 15.0079 14.2017 14.8839 13.8697C14.8487 13.8345 14.8135 13.7994 14.7784 13.7642C13.9925 13.5873 13.2588 13.2857 12.5773 12.8596C12.484 12.84 12.3936 12.8501 12.3059 12.8898C12.0547 13.0004 11.8034 13.1109 11.5521 13.2215C11.4918 13.2416 11.4315 13.2416 11.3712 13.2215C11.0546 12.9451 10.7582 12.6486 10.4818 12.332C10.4617 12.2717 10.4617 12.2114 10.4818 12.1511C10.6245 11.8457 10.7501 11.5341 10.8587 11.2164C10.684 10.8671 10.5081 10.5154 10.331 10.1611C10.164 9.76063 10.0334 9.34855 9.93904 8.92486C9.90386 8.88967 9.86868 8.85452 9.83351 8.81933C9.52073 8.69664 9.20917 8.571 8.89881 8.44244C8.86614 8.40731 8.84101 8.36712 8.82343 8.32183C8.79484 7.88759 8.80489 7.45543 8.85358 7.02531C9.17483 6.87799 9.50147 6.74231 9.83351 6.61827C9.86868 6.58308 9.90386 6.54792 9.93904 6.51274C10.116 5.72687 10.4175 4.99319 10.8436 4.31167C10.8632 4.21838 10.8532 4.12793 10.8134 4.04031C10.7029 3.78906 10.5923 3.53777 10.4818 3.28652C10.4617 3.22622 10.4617 3.16591 10.4818 3.10561C10.7582 2.78902 11.0546 2.49253 11.3712 2.21614C11.4315 2.19604 11.4918 2.19604 11.5521 2.21614C11.8575 2.35883 12.1691 2.48446 12.4868 2.59303C12.8361 2.41841 13.1879 2.24252 13.5421 2.06538C13.9425 1.89845 14.3545 1.76779 14.7784 1.67341C14.8135 1.63823 14.8487 1.60306 14.8839 1.56788C15.0087 1.24385 15.1393 0.922231 15.2759 0.603031C15.3151 0.585399 15.3503 0.565297 15.3814 0.542728Z" fill="url(#paint2_linear_1961_1269)"/>
<path opacity="0.934" fill-rule="evenodd" clip-rule="evenodd" d="M15.4935 2.38842C17.7224 2.29559 19.4279 3.18378 20.61 5.05299C21.4398 6.6195 21.5248 8.22577 20.8651 9.87188C19.9694 11.7354 18.4907 12.789 16.4289 13.0325C14.1823 13.1307 12.4768 12.2283 11.3124 10.3254C10.5106 8.77297 10.435 7.18557 11.0856 5.56322C11.9804 3.71008 13.4497 2.6518 15.4935 2.38842ZM15.5785 2.89866C15.2671 2.94124 14.9552 3.00266 14.6431 3.08291C13.2299 3.53246 12.2047 4.42537 11.5675 5.76165C10.8886 7.4359 11.0493 9.0233 12.0494 10.5238C13.1429 11.9515 14.5933 12.6176 16.4006 12.5223C18.3344 12.2717 19.6903 11.256 20.4683 9.47503C21.0443 7.85648 20.8553 6.33524 19.9014 4.91126C18.8148 3.49651 17.3739 2.82566 15.5785 2.89866Z" fill="url(#paint3_linear_1961_1269)"/>
<path opacity="0.943" fill-rule="evenodd" clip-rule="evenodd" d="M15.2691 4.52034C16.0575 4.48962 16.8414 4.53264 17.6208 4.6494C18.0413 4.71295 18.4237 4.8659 18.768 5.10828C18.8444 5.18482 18.897 5.27565 18.9258 5.38074C18.9449 6.92946 18.9449 8.47817 18.9258 10.0269C18.863 10.2146 18.7435 10.3532 18.5673 10.4428C17.9742 10.7029 17.3528 10.8463 16.7031 10.873C15.7527 10.95 14.8158 10.8735 13.8924 10.6435C13.5756 10.569 13.3126 10.4113 13.1037 10.1703C13.079 10.1248 13.0599 10.077 13.0464 10.0269C13.0416 9.25253 13.0368 8.47817 13.032 7.70381C13.0276 6.89906 13.0419 6.09602 13.0751 5.2947C13.2332 5.06448 13.4483 4.90674 13.7204 4.82148C14.2293 4.66328 14.7455 4.5629 15.2691 4.52034ZM15.2978 5.03658C14.8948 5.07722 14.4933 5.14892 14.0932 5.25168C13.8924 5.29952 13.7108 5.38556 13.5483 5.5098C13.6966 5.61356 13.8591 5.69002 14.0358 5.73924C15.3674 6.07152 16.6962 6.06194 18.0224 5.71056C18.1655 5.6678 18.2898 5.5961 18.3952 5.49546C18.2432 5.37649 18.0711 5.29524 17.879 5.25168C17.03 5.0535 16.1696 4.9818 15.2978 5.03658ZM13.5483 6.12642C13.5435 6.40381 13.5483 6.68106 13.5626 6.95814C13.5865 7.00116 13.62 7.03463 13.663 7.05852C13.8115 7.12715 13.9645 7.18451 14.1219 7.2306C15.4117 7.52921 16.6975 7.51487 17.9793 7.18758C18.1396 7.14094 18.283 7.06445 18.4095 6.95814C18.4239 6.68106 18.4286 6.40381 18.4239 6.12642C17.6334 6.38422 16.8207 6.50849 15.9861 6.49926C15.1514 6.50849 14.3388 6.38422 13.5483 6.12642ZM13.5483 7.5891C13.5435 7.87607 13.5483 8.16287 13.5626 8.44949C13.6464 8.51293 13.7372 8.5655 13.8351 8.60723C14.3384 8.7708 14.8547 8.86639 15.3838 8.89403C16.2576 8.95983 17.118 8.88336 17.965 8.66459C18.1367 8.62421 18.2848 8.54293 18.4095 8.42081C18.4334 8.14308 18.4286 7.86583 18.3952 7.5891C18.2836 7.64009 18.1689 7.68311 18.051 7.71815C17.3732 7.88642 16.6849 7.96767 15.9861 7.96193C15.1502 7.97911 14.3376 7.85484 13.5483 7.5891ZM13.5483 9.05177C13.5435 9.33875 13.5483 9.62554 13.5626 9.91217C13.6572 10.0001 13.7671 10.0623 13.8924 10.0986C14.3499 10.2432 14.8183 10.3292 15.2978 10.3567C16.1696 10.4258 17.03 10.3589 17.879 10.156C18.0726 10.1093 18.2494 10.028 18.4095 9.91217C18.4334 9.62489 18.4286 9.33809 18.3952 9.05177C18.2551 9.1128 18.1117 9.1654 17.965 9.20951C17.3145 9.3641 16.6549 9.4358 15.9861 9.42461C15.1494 9.44713 14.3368 9.32286 13.5483 9.05177Z" fill="url(#paint4_linear_1961_1269)"/>
<defs>
<linearGradient id="paint0_linear_1961_1269" x1="15.6065" y1="19.221" x2="30.7187" y2="20.7294" gradientUnits="userSpaceOnUse">
<stop offset="0.11" stop-color="#60D7AD"/>
<stop offset="0.76" stop-color="#213C3A"/>
</linearGradient>
<linearGradient id="paint1_linear_1961_1269" x1="16.1279" y1="19.221" x2="1.01568" y2="20.7294" gradientUnits="userSpaceOnUse">
<stop offset="0.11" stop-color="#60D7AD"/>
<stop offset="0.76" stop-color="#213C3A"/>
</linearGradient>
<linearGradient id="paint2_linear_1961_1269" x1="8.0807" y1="-6.0265e-07" x2="26.6825" y2="8.03342" gradientUnits="userSpaceOnUse">
<stop offset="0.11" stop-color="#60D7AD"/>
<stop offset="0.76" stop-color="#213C3A"/>
</linearGradient>
<linearGradient id="paint3_linear_1961_1269" x1="10.5208" y1="2.38184" x2="23.3608" y2="7.92543" gradientUnits="userSpaceOnUse">
<stop offset="0.11" stop-color="#60D7AD"/>
<stop offset="0.76" stop-color="#213C3A"/>
</linearGradient>
<linearGradient id="paint4_linear_1961_1269" x1="12.9605" y1="4.51074" x2="20.2468" y2="7.41997" gradientUnits="userSpaceOnUse">
<stop offset="0.11" stop-color="#60D7AD"/>
<stop offset="0.76" stop-color="#213C3A"/>
</linearGradient>
</defs>
</svg>
