<svg width="26" height="25" viewBox="0 0 26 25" fill="none" xmlns="http://www.w3.org/2000/svg">
<path opacity="0.926" fill-rule="evenodd" clip-rule="evenodd" d="M12.1861 8.33398C12.3996 8.33483 12.604 8.38394 12.7996 8.48127C14.7041 9.25276 16.6085 10.0243 18.513 10.7958C18.5498 10.8555 18.5818 10.9186 18.6089 10.9852C18.6216 11.8689 18.6345 12.7526 18.6472 13.6363C19.0849 13.9583 19.1871 14.3791 18.954 14.8988C18.5212 15.4034 18.0866 15.4034 17.6502 14.8988C17.4896 14.6122 17.4768 14.3176 17.6119 14.0151C17.6896 13.8667 17.7982 13.7544 17.9378 13.6784C17.989 12.977 17.989 12.2757 17.9378 11.5743C17.3671 11.8158 16.7919 12.0402 16.2123 12.2476C16.2187 13.0753 16.2123 13.9029 16.1931 14.7304C16.0567 15.2614 15.7692 15.6611 15.3304 15.9298C14.3892 16.4404 13.3923 16.6859 12.3395 16.6662C11.2867 16.6859 10.2897 16.4404 9.34856 15.9298C8.8913 15.6764 8.60371 15.2766 8.4858 14.7304C8.46662 13.9029 8.46022 13.0753 8.46662 12.2476C7.69087 11.9755 6.92397 11.6739 6.16593 11.3428C6.00577 11.1344 6.01855 10.938 6.20427 10.7537C8.20937 9.9666 10.2033 9.16001 12.1861 8.33398ZM12.2628 9.04938C10.6222 9.72686 8.97332 10.3931 7.31628 11.0483C8.98497 11.7406 10.6593 12.4209 12.3395 13.0893C13.7184 12.531 15.0989 11.9769 16.4807 11.427C15.0341 11.4263 13.5898 11.3982 12.1477 11.3428C11.9207 11.0737 11.959 10.8633 12.2628 10.7116C13.6432 10.6976 15.0236 10.6835 16.404 10.6695C15.0289 10.1081 13.6485 9.568 12.2628 9.04938ZM9.11849 12.5422C9.11209 13.2718 9.11849 14.0012 9.13766 14.7304C9.21723 14.9021 9.32586 15.0494 9.46359 15.1723C9.79148 15.4223 10.1494 15.6047 10.5373 15.7194C11.8652 16.1041 13.1818 16.062 14.4868 15.5931C14.9353 15.4423 15.2868 15.1548 15.5413 14.7304C15.5732 14.0006 15.5668 13.2712 15.5221 12.5422C14.4606 12.9809 13.3933 13.4018 12.3203 13.8046C11.2512 13.3878 10.1839 12.967 9.11849 12.5422ZM18.2446 14.2675C18.2031 14.3136 18.1776 14.3697 18.1679 14.4359C18.2205 14.5952 18.3036 14.6232 18.4171 14.52C18.4773 14.3342 18.4198 14.25 18.2446 14.2675Z" fill="url(#paint0_linear_1941_1157)"/>
<path opacity="0.935" fill-rule="evenodd" clip-rule="evenodd" d="M11.7012 0C12.3848 0 13.0684 0 13.752 0C14.4006 0.0704477 14.7994 0.428521 14.9482 1.07422C15.0179 1.48041 15.083 1.8873 15.1436 2.29492C16.2083 2.60353 17.2256 3.0267 18.1953 3.56445C18.56 3.32483 18.9181 3.07255 19.2695 2.80762C19.9262 2.46709 20.5122 2.56475 21.0273 3.10059C21.4098 3.48307 21.7923 3.86556 22.1748 4.24805C22.6048 4.68226 22.7188 5.18682 22.5166 5.76172C22.2205 6.17944 21.9356 6.60259 21.6621 7.03125C22.1981 7.9895 22.6132 8.99863 22.9072 10.0586C23.3188 10.1394 23.7338 10.2126 24.1523 10.2783C24.798 10.4272 25.1561 10.826 25.2266 11.4746C25.2266 12.1582 25.2266 12.8418 25.2266 13.5254C25.1561 14.174 24.798 14.5728 24.1523 14.7217C23.7461 14.7913 23.3393 14.8564 22.9316 14.917C22.623 15.9818 22.1999 16.9991 21.6621 17.9688C21.918 18.3659 22.1865 18.7565 22.4678 19.1406C22.7364 19.7429 22.6387 20.28 22.1748 20.752C21.776 21.1507 21.3773 21.5495 20.9785 21.9482C20.5834 22.3561 20.1114 22.4863 19.5625 22.3389C19.0981 22.037 18.6343 21.7359 18.1709 21.4355C17.2235 21.9784 16.2225 22.3934 15.168 22.6807C15.0768 23.0905 15.0036 23.5055 14.9482 23.9258C14.7994 24.5715 14.4006 24.9295 13.752 25C13.0684 25 12.3848 25 11.7012 25C11.0525 24.9295 10.6538 24.5715 10.5049 23.9258C10.4353 23.5196 10.3701 23.1127 10.3096 22.7051C9.24478 22.3965 8.22749 21.9733 7.25781 21.4355C6.86064 21.6914 6.47002 21.96 6.08594 22.2412C5.48301 22.5145 4.94588 22.4168 4.47461 21.9482C3.94241 21.4487 3.44599 20.9198 2.98535 20.3613C2.78408 19.9944 2.7678 19.6201 2.93652 19.2383C3.23984 18.8187 3.52468 18.3874 3.79102 17.9443C3.24819 16.9969 2.83315 15.9959 2.5459 14.9414C2.13611 14.85 1.72107 14.7768 1.30078 14.7217C0.677791 14.5791 0.319718 14.1966 0.226562 13.5742C0.226562 12.8744 0.226562 12.1745 0.226562 11.4746C0.266497 10.9049 0.559465 10.5224 1.10547 10.3271C1.57654 10.2405 2.04854 10.1591 2.52148 10.083C2.83009 9.01821 3.25327 8.00093 3.79102 7.03125C3.53518 6.63408 3.26663 6.24346 2.98535 5.85938C2.71673 5.25713 2.81439 4.72001 3.27832 4.24805C3.67708 3.84928 4.07584 3.45052 4.47461 3.05176C4.90882 2.62173 5.41338 2.5078 5.98828 2.70996C6.40601 3.00607 6.82915 3.2909 7.25781 3.56445C8.21606 3.02844 9.22519 2.6134 10.2852 2.31934C10.3672 1.90801 10.4405 1.49297 10.5049 1.07422C10.6538 0.428521 11.0525 0.0704477 11.7012 0ZM11.75 0.878906C12.469 0.857808 13.1852 0.882222 13.8984 0.952148C13.9955 1.01655 14.0524 1.10607 14.0693 1.2207C14.1565 1.77611 14.2542 2.3295 14.3623 2.88086C14.4006 2.96807 14.4576 3.04131 14.5332 3.10059C15.7662 3.35403 16.9055 3.82603 17.9512 4.5166C18.1538 4.61273 18.3491 4.59646 18.5371 4.46777C18.9968 4.10374 19.4769 3.77008 19.9775 3.4668C20.5253 3.86771 21.0298 4.32344 21.4912 4.83398C21.6015 4.96021 21.691 5.09854 21.7598 5.24902C21.4466 5.7416 21.1129 6.22173 20.7588 6.68945C20.6207 6.8751 20.6044 7.07041 20.71 7.27539C21.3963 8.3231 21.8684 9.4624 22.126 10.6934C22.1853 10.769 22.2585 10.8259 22.3457 10.8643C22.9493 10.973 23.5515 11.0869 24.1523 11.2061C24.2688 11.2982 24.3258 11.4203 24.3232 11.5723C24.3667 12.2741 24.3504 12.974 24.2744 13.6719C24.21 13.7689 24.1205 13.8259 24.0059 13.8428C23.4353 13.9352 22.8656 14.0328 22.2969 14.1357C22.2399 14.1927 22.183 14.2497 22.126 14.3066C21.8564 15.5879 21.3682 16.776 20.6611 17.8711C20.6249 18.0314 20.6574 18.1779 20.7588 18.3105C21.1083 18.7491 21.4338 19.2048 21.7354 19.6777C21.7607 19.7651 21.7445 19.8465 21.6865 19.9219C21.1778 20.5284 20.6082 21.0655 19.9775 21.5332C19.4445 21.2137 18.9318 20.8638 18.4395 20.4834C18.3595 20.4541 18.2782 20.4296 18.1953 20.4102C17.6188 20.7229 17.0329 21.024 16.4375 21.3135C15.818 21.558 15.1833 21.7533 14.5332 21.8994C14.4576 21.9587 14.4006 22.0319 14.3623 22.1191C14.2536 22.7227 14.1396 23.3249 14.0205 23.9258C13.9444 24.0365 13.8387 24.0935 13.7031 24.0967C12.9908 24.1719 12.2747 24.1556 11.5547 24.0479C11.514 24.0072 11.4733 23.9665 11.4326 23.9258C11.3135 23.3249 11.1996 22.7227 11.0908 22.1191C11.0525 22.0319 10.9956 21.9587 10.9199 21.8994C9.68721 21.646 8.5479 21.174 7.50195 20.4834C7.29697 20.3779 7.10166 20.3941 6.91602 20.5322C6.45635 20.8962 5.97622 21.2299 5.47559 21.5332C5.32461 21.4637 5.18623 21.3742 5.06055 21.2646C4.71061 20.9147 4.36068 20.5648 4.01074 20.2148C3.87461 20.0708 3.76882 19.9081 3.69336 19.7266C4.01753 19.2478 4.35119 18.7758 4.69434 18.3105C4.74954 18.2019 4.79023 18.088 4.81641 17.9688C4.50444 17.3937 4.20334 16.8078 3.91309 16.2109C3.66854 15.5913 3.47323 14.9565 3.32715 14.3066C3.26787 14.231 3.19463 14.1741 3.10742 14.1357C2.50386 14.027 1.90165 13.9131 1.30078 13.7939C1.18428 13.7018 1.12731 13.5797 1.12988 13.4277C1.0854 12.7256 1.10167 12.0257 1.17871 11.3281C1.24311 11.2311 1.33263 11.1741 1.44727 11.1572C2.00267 11.0701 2.55606 10.9724 3.10742 10.8643C3.19463 10.8259 3.26787 10.769 3.32715 10.6934C3.59668 9.41211 4.08497 8.22397 4.79199 7.12891C4.82827 6.9686 4.79571 6.82212 4.69434 6.68945C4.36881 6.23374 4.0433 5.77798 3.71777 5.32227C3.68522 5.27344 3.68522 5.22461 3.71777 5.17578C4.22481 4.52222 4.81075 3.95256 5.47559 3.4668C6.00864 3.78627 6.52134 4.13621 7.01367 4.5166C7.0936 4.54596 7.17495 4.57037 7.25781 4.58984C7.83281 4.27788 8.41875 3.97677 9.01562 3.68652C9.6353 3.44198 10.2701 3.24667 10.9199 3.10059C10.9956 3.04131 11.0525 2.96807 11.0908 2.88086C11.1996 2.27729 11.3135 1.67508 11.4326 1.07422C11.5201 0.970312 11.6259 0.90521 11.75 0.878906Z" fill="url(#paint1_linear_1941_1157)"/>
<path opacity="0.934" fill-rule="evenodd" clip-rule="evenodd" d="M11.9965 4.13527C15.5663 3.99496 18.2599 5.44352 20.0776 8.48097C21.4261 11.1907 21.4098 13.8925 20.0287 16.5864C18.1964 19.5659 15.519 20.9738 11.9965 20.8101C8.31566 20.3335 5.88241 18.3397 4.69671 14.8286C3.85211 11.341 4.75543 8.40324 7.40668 6.01515C8.75521 4.94445 10.2851 4.31784 11.9965 4.13527ZM12.0453 5.01418C9.98798 5.26559 8.28714 6.17707 6.94281 7.74855C5.12209 10.1531 4.78029 12.7572 5.91742 15.5611C7.08495 17.9808 8.9974 19.4213 11.6547 19.8823C14.4163 20.1938 16.7031 19.3068 18.5151 17.2212C20.4811 14.5774 20.7253 11.7779 19.2475 8.82277C17.6003 6.16369 15.1996 4.89416 12.0453 5.01418Z" fill="url(#paint2_linear_1941_1157)"/>
<defs>
<linearGradient id="paint0_linear_1941_1157" x1="5.89871" y1="8.33398" x2="18.6901" y2="16.9655" gradientUnits="userSpaceOnUse">
<stop offset="0.11" stop-color="#60D7AD"/>
<stop offset="0.76" stop-color="#213C3A"/>
</linearGradient>
<linearGradient id="paint1_linear_1941_1157" x1="-0.0729163" y1="-9.75945e-07" x2="30.0512" y2="13.0095" gradientUnits="userSpaceOnUse">
<stop offset="0.11" stop-color="#60D7AD"/>
<stop offset="0.76" stop-color="#213C3A"/>
</linearGradient>
<linearGradient id="paint2_linear_1941_1157" x1="4.19074" y1="4.12598" x2="24.3011" y2="12.8054" gradientUnits="userSpaceOnUse">
<stop offset="0.11" stop-color="#60D7AD"/>
<stop offset="0.76" stop-color="#213C3A"/>
</linearGradient>
</defs>
</svg>
