<svg width="25" height="24" viewBox="0 0 25 24" fill="none" xmlns="http://www.w3.org/2000/svg">
<path opacity="0.933" fill-rule="evenodd" clip-rule="evenodd" d="M11.8737 0C12.2174 0 12.5612 0 12.9049 0C13.8522 0.145493 14.6804 0.543933 15.3893 1.19531C16.7955 1.21094 18.2018 1.22657 19.608 1.24219C19.9561 1.31023 20.1983 1.50555 20.3346 1.82813C20.4043 6.29546 20.4277 10.7642 20.4049 15.2344C21.0299 15.2344 21.6549 15.2344 22.2799 15.2344C22.2799 11.6875 22.2799 8.14065 22.2799 4.59375C21.9358 4.60155 21.5921 4.59374 21.2487 4.57032C21.1073 4.49866 21.0448 4.38148 21.0612 4.21875C21.0433 4.08635 21.0902 3.98479 21.2018 3.91407C21.4715 3.86267 21.7449 3.83923 22.0221 3.84375C22.2993 3.83923 22.5727 3.86267 22.8424 3.91407C22.9487 3.98708 23.0034 4.08865 23.0065 4.21875C23.0528 8.08018 23.0372 11.9395 22.9596 15.7969C22.8866 15.9032 22.785 15.9579 22.6549 15.9609C15.8112 15.9922 8.96741 15.9922 2.12366 15.9609C1.99355 15.9579 1.89198 15.9032 1.81897 15.7969C1.74137 11.9395 1.72574 8.08018 1.77209 4.21875C1.77517 4.08865 1.82986 3.98708 1.93616 3.91407C2.20588 3.86267 2.47932 3.83923 2.75647 3.84375C3.03362 3.83923 3.30706 3.86267 3.57678 3.91407C3.73626 4.08839 3.7597 4.28371 3.64709 4.5C3.61192 4.52934 3.57285 4.55278 3.52991 4.57032C3.18651 4.59374 2.84276 4.60155 2.49866 4.59375C2.49866 8.14065 2.49866 11.6875 2.49866 15.2344C3.12365 15.2344 3.74866 15.2344 4.37366 15.2344C4.36585 14.4842 4.37366 12.6328 4.37366 11.8828C4.5846 11.8828 4.65491 11.8828 5.10022 11.8828C5.12366 12.6796 5.13149 14.4374 5.12366 15.2344C9.9674 15.2344 14.8112 15.2344 19.6549 15.2344C19.6627 10.8594 19.6549 6.48436 19.6315 2.10938C19.608 2.05469 19.569 2.01563 19.5143 1.99219C18.3424 1.96094 17.1705 1.96094 15.9987 1.99219C16.2988 2.45987 16.5019 2.96768 16.608 3.51563C16.4519 3.92645 16.2097 3.98894 15.8815 3.70313C15.5032 2.07486 14.4954 1.0983 12.858 0.773438C10.9994 0.665011 9.72599 1.4697 9.03772 3.1875C8.62208 4.80089 9.0674 6.12122 10.3737 7.14844C11.7172 7.99215 13.061 7.99215 14.4049 7.14844C15.2157 6.52782 15.7313 5.71529 15.9518 4.71094C16.2846 4.55227 16.5033 4.64602 16.608 4.99219C16.3033 6.53147 15.4283 7.6096 13.983 8.22657C12.0785 8.86566 10.4456 8.45162 9.0846 6.98438C8.05897 5.61736 7.85586 4.13297 8.47522 2.53125C8.55899 2.34016 8.66057 2.16047 8.77991 1.99219C7.59041 1.95358 6.40292 1.96139 5.21741 2.01563C5.18497 2.04025 5.16153 2.0715 5.1471 2.10938C5.13149 5.31249 5.11583 8.67971 5.10022 11.8828C4.79553 11.8828 4.84241 11.8828 4.63147 11.8828C4.49085 11.8828 4.46741 11.8828 4.37366 11.8828C4.37366 8.71876 4.36584 5.23439 4.39709 2.0625C4.44791 1.59358 4.70572 1.32014 5.17053 1.24219C6.57678 1.22657 7.98304 1.21094 9.38929 1.19531C10.0982 0.543933 10.9264 0.145493 11.8737 0Z" fill="url(#paint0_linear_1948_1303)"/>
<path opacity="0.974" fill-rule="evenodd" clip-rule="evenodd" d="M24.3906 3.51526C24.3906 8.39026 24.3906 13.2653 24.3906 18.1403C24.2117 18.6707 23.8523 19.0223 23.3125 19.195C20.9063 19.2184 18.4766 19.2262 16.0703 19.2184C16.0703 19.4059 16.0703 19.57 16.0703 19.7575C15.8594 19.7575 15.8741 19.7575 15.7188 19.7575C15.3672 19.7575 15.367 19.8043 15.3672 19.5934C15.3673 19.4762 15.3595 19.3443 15.3672 19.2184C13.3984 19.2184 11.4063 19.2184 9.43751 19.2184C9.44534 20.1873 9.43751 21.156 9.41407 22.1246C9.31479 22.4987 9.1976 22.8659 9.06251 23.2262C11.2812 23.2575 13.5 23.2575 15.7188 23.2262C15.4871 22.7032 15.3855 22.1564 15.3672 21.5856C15.3649 21.3403 15.3672 20.0387 15.3672 19.7575C15.6484 19.7575 15.7188 19.7575 16.0703 19.7575C16.0703 20.1559 16.1016 21.6403 16.1172 22.0309C16.235 22.4238 16.36 22.8144 16.4922 23.2028C16.6991 23.2404 16.91 23.2638 17.125 23.2731C17.3465 23.3872 17.4168 23.5669 17.336 23.8121C17.2715 23.8686 17.2168 23.9311 17.1719 23.9996C13.9844 23.9996 10.7969 23.9996 7.60938 23.9996C7.41907 23.8265 7.37997 23.6234 7.49219 23.3903C7.54708 23.325 7.6174 23.2859 7.70313 23.2731C7.90249 23.2637 8.09782 23.2403 8.28907 23.2028C8.4213 22.8144 8.54632 22.4238 8.66407 22.0309C8.68751 21.0935 8.69533 20.156 8.68751 19.2184C6.28122 19.2262 3.87495 19.2184 1.46875 19.195C0.928924 19.0223 0.56955 18.6707 0.390625 18.1403C0.390625 13.2653 0.390625 8.39026 0.390625 3.51526C0.553955 3.00041 0.897705 2.66448 1.42188 2.50744C2.09203 2.43544 2.7639 2.41982 3.4375 2.46057C3.62789 2.50234 3.72164 2.61953 3.71875 2.81213C3.73513 2.97485 3.67263 3.09204 3.53125 3.16369C2.87243 3.16703 2.21618 3.19827 1.5625 3.25744C1.28044 3.39847 1.132 3.62503 1.11719 3.93713C1.08594 8.54649 1.08594 13.1559 1.11719 17.7653C1.17188 18.195 1.41406 18.4371 1.84375 18.4918C8.87501 18.5231 15.9063 18.5231 22.9375 18.4918C23.3672 18.4371 23.6094 18.195 23.6641 17.7653C23.6953 13.1402 23.6953 8.51528 23.6641 3.89026C23.6273 3.6031 23.4789 3.39216 23.2188 3.25744C22.5651 3.19827 21.9088 3.16703 21.25 3.16369C21.1086 3.09204 21.0462 2.97485 21.0625 2.81213C21.0655 2.59818 21.1748 2.48099 21.3906 2.46057C22.0486 2.41999 22.7049 2.43562 23.3594 2.50744C23.8745 2.67221 24.2182 3.00815 24.3906 3.51526Z" fill="url(#paint1_linear_1948_1303)"/>
<path opacity="0.992" fill-rule="evenodd" clip-rule="evenodd" d="M7.26263 10.0576C10.6533 10.0498 14.0439 10.0576 17.4345 10.0811C17.6845 10.2998 17.6845 10.5185 17.4345 10.7373C14.0439 10.7686 10.6532 10.7686 7.26263 10.7373C7.12828 10.672 7.0658 10.5627 7.07513 10.4092C7.07185 10.2514 7.13433 10.1342 7.26263 10.0576Z" fill="url(#paint2_linear_1948_1303)"/>
<path opacity="0.933" fill-rule="evenodd" clip-rule="evenodd" d="M7.26173 12.2637C10.6368 12.2559 14.0118 12.2637 17.3867 12.2871C17.7102 12.5412 17.6946 12.7756 17.3399 12.9902C14.0117 13.0215 10.6836 13.0215 7.35548 12.9902C7.08515 12.8793 7.00701 12.684 7.1211 12.4043C7.18063 12.3674 7.22751 12.3205 7.26173 12.2637Z" fill="url(#paint3_linear_1948_1303)"/>
<path opacity="0.917" fill-rule="evenodd" clip-rule="evenodd" d="M12.2449 16.8568C12.6784 16.8172 12.8529 17.0032 12.7684 17.4149C12.616 17.657 12.4117 17.7109 12.1552 17.5765C11.9112 17.3056 11.9411 17.0657 12.2449 16.8568Z" fill="url(#paint4_linear_1948_1303)"/>
<path opacity="0.935" fill-rule="evenodd" clip-rule="evenodd" d="M11.6615 1.99483C12.1402 1.98778 12.6188 1.99484 13.0971 2.01603C13.2774 2.06987 13.383 2.18996 13.4138 2.3763C13.4349 2.64437 13.4419 2.91281 13.4349 3.18163C13.7167 3.17458 13.9983 3.18164 14.2794 3.20282C14.479 3.26197 14.5846 3.39619 14.5961 3.60548C14.6242 4.01521 14.6242 4.42493 14.5961 4.83466C14.5609 5.09605 14.4131 5.2444 14.1527 5.27971C13.9138 5.30086 13.6746 5.30793 13.4349 5.3009C13.4419 5.56971 13.4349 5.83813 13.4138 6.10622C13.3671 6.2519 13.2756 6.35786 13.1393 6.42411C12.6326 6.45238 12.1259 6.45238 11.6192 6.42411C11.4829 6.35786 11.3914 6.2519 11.3448 6.10622C11.3237 5.83813 11.3166 5.56971 11.3237 5.3009C10.4055 5.50214 10.0114 5.14187 10.1414 4.22007C10.1484 4.00108 10.1554 3.78209 10.1625 3.56309C10.1933 3.37676 10.2989 3.25666 10.4792 3.20282C10.7603 3.18164 11.0418 3.17458 11.3237 3.18163C11.3166 2.8987 11.3237 2.61613 11.3448 2.33392C11.4019 2.17073 11.5075 2.0577 11.6615 1.99483ZM11.9992 2.673C12.0063 2.99826 11.9992 3.32322 11.9781 3.64787C11.9585 3.70851 11.9233 3.75796 11.8726 3.79621C11.5243 3.8558 11.1724 3.87699 10.817 3.85979C10.817 4.11411 10.817 4.36842 10.817 4.62273C11.155 4.61569 11.4928 4.62273 11.8303 4.64392C11.8796 4.69339 11.9289 4.74281 11.9781 4.79227C11.9992 5.1169 12.0063 5.44187 11.9992 5.76714C12.2526 5.76714 12.5059 5.76714 12.7593 5.76714C12.7523 5.44187 12.7593 5.1169 12.7804 4.79227C12.7962 4.75345 12.8173 4.7181 12.8437 4.68631C13.2051 4.62523 13.571 4.60404 13.9416 4.62273C13.9416 4.36842 13.9416 4.11411 13.9416 3.85979C13.6316 3.86684 13.322 3.85978 13.0126 3.8386C12.9354 3.82701 12.8721 3.79169 12.8226 3.73264C12.7619 3.38409 12.7408 3.03087 12.7593 2.673C12.5059 2.673 12.2526 2.673 11.9992 2.673Z" fill="url(#paint5_linear_1948_1303)"/>
<defs>
<linearGradient id="paint0_linear_1948_1303" x1="1.4911" y1="-6.23996e-07" x2="24.3602" y2="13.1523" gradientUnits="userSpaceOnUse">
<stop offset="0.11" stop-color="#60D7AD"/>
<stop offset="0.76" stop-color="#213C3A"/>
</linearGradient>
<linearGradient id="paint1_linear_1948_1303" x1="0.103125" y1="2.43848" x2="27.9751" y2="15.8369" gradientUnits="userSpaceOnUse">
<stop offset="0.11" stop-color="#60D7AD"/>
<stop offset="0.76" stop-color="#213C3A"/>
</linearGradient>
<linearGradient id="paint2_linear_1948_1303" x1="6.94787" y1="10.0547" x2="7.30168" y2="12.3373" gradientUnits="userSpaceOnUse">
<stop offset="0.11" stop-color="#60D7AD"/>
<stop offset="0.76" stop-color="#213C3A"/>
</linearGradient>
<linearGradient id="paint3_linear_1948_1303" x1="6.94396" y1="12.2607" x2="7.34502" y2="14.6871" gradientUnits="userSpaceOnUse">
<stop offset="0.11" stop-color="#60D7AD"/>
<stop offset="0.76" stop-color="#213C3A"/>
</linearGradient>
<linearGradient id="paint4_linear_1948_1303" x1="11.9826" y1="16.8516" x2="12.9428" y2="17.2662" gradientUnits="userSpaceOnUse">
<stop offset="0.11" stop-color="#60D7AD"/>
<stop offset="0.76" stop-color="#213C3A"/>
</linearGradient>
<linearGradient id="paint5_linear_1948_1303" x1="10.0633" y1="1.99219" x2="15.4676" y2="4.3507" gradientUnits="userSpaceOnUse">
<stop offset="0.11" stop-color="#60D7AD"/>
<stop offset="0.76" stop-color="#213C3A"/>
</linearGradient>
</defs>
</svg>
