<svg width="24" height="24" viewBox="0 0 24 24" fill="none" xmlns="http://www.w3.org/2000/svg">
<path opacity="0.938" fill-rule="evenodd" clip-rule="evenodd" d="M9.32812 0C9.54689 0 9.76561 0 9.98438 0C10.3751 0.109508 10.6252 0.359508 10.7344 0.75C11.3439 0.742191 11.9533 0.750005 12.5625 0.773438C12.8278 0.820106 13.0075 0.968541 13.1016 1.21875C13.1706 3.13877 13.194 5.06063 13.1719 6.98438C13.5234 6.98438 14.3203 6.98438 14.6719 6.98438C14.6719 7.24219 14.6719 7.54688 14.6719 7.75781C13.8281 7.75781 12.5025 7.75523 11.6719 7.75781C11.9138 7.95239 12.0544 8.20238 12.0938 8.50781C12.0245 8.80289 11.9152 9.08414 11.7656 9.35156C11.8773 9.648 12.0023 9.93708 12.1406 10.2188C12.4659 10.2929 12.755 10.4335 13.0078 10.6406C13.0898 10.7693 13.1367 10.91 13.1484 11.0625C13.1797 11.6875 13.1797 12.3125 13.1484 12.9375C13.1279 13.2211 12.9951 13.4321 12.75 13.5703C12.5451 13.636 12.342 13.7063 12.1406 13.7812C12.0023 14.0629 11.8773 14.352 11.7656 14.6484C11.9152 14.9159 12.0245 15.1971 12.0938 15.4922C12.0544 15.7976 11.9138 16.0476 11.6719 16.2422C15.4531 16.2735 19.2344 16.2735 23.0156 16.2422C23.1639 16.1728 23.2498 16.0556 23.2734 15.8906C23.3047 13.2969 23.3047 10.7031 23.2734 8.10938C23.2498 7.94438 23.1639 7.82719 23.0156 7.75781C20.5156 7.7422 17.1719 7.77342 14.6719 7.75781C14.6719 7.3125 14.6719 7.28906 14.6719 6.98438C14.9684 6.96094 15.9683 6.97659 16.2656 6.98438C16.2812 5.3903 16.2656 3.79657 16.2188 2.20312C15.4888 1.7706 15.3247 1.17685 15.7266 0.421875C15.8977 0.239482 16.093 0.098857 16.3125 0C16.5469 0 16.7812 0 17.0156 0C17.8354 0.434636 18.015 1.05964 17.5547 1.875C17.4172 2.02564 17.2532 2.13502 17.0625 2.20312C17.0156 3.79657 17 5.3903 17.0156 6.98438C17.8125 6.98438 18.6094 6.98438 19.4062 6.98438C19.3836 5.02842 19.407 3.07528 19.4766 1.125C19.6014 0.953391 19.7655 0.836203 19.9688 0.773438C20.5787 0.765595 21.1881 0.742158 21.7969 0.703125C21.9593 0.368595 22.2093 0.13422 22.5469 0C22.7656 0 22.9844 0 23.2031 0C23.5781 0.15625 23.8438 0.421875 24 0.796875C24 1.01563 24 1.23437 24 1.45312C23.6211 2.25951 23.0273 2.47044 22.2188 2.08594C22.0349 1.94099 21.8942 1.7613 21.7969 1.54688C21.2509 1.50005 20.704 1.48443 20.1562 1.5C20.1562 3.32812 20.1562 5.15625 20.1562 6.98438C21.172 6.97655 22.1876 6.98438 23.2031 7.00781C23.5868 7.14933 23.8524 7.40714 24 7.78125C24 10.5938 24 13.4062 24 16.2188C23.8524 16.5929 23.5868 16.8507 23.2031 16.9922C22.1876 17.0156 21.172 17.0235 20.1562 17.0156C20.1562 18.8438 20.1562 20.6719 20.1562 22.5C20.704 22.5156 21.2509 22.5 21.7969 22.4531C22.2 21.7177 22.7782 21.538 23.5312 21.9141C23.7548 22.0818 23.9111 22.2928 24 22.5469C24 22.7656 24 22.9844 24 23.2031C23.8438 23.5781 23.5781 23.8438 23.2031 24C22.9844 24 22.7656 24 22.5469 24C22.2093 23.8658 21.9593 23.6314 21.7969 23.2969C21.1881 23.2578 20.5787 23.2344 19.9688 23.2266C19.7655 23.1638 19.6014 23.0466 19.4766 22.875C19.407 20.9247 19.3836 18.9716 19.4062 17.0156C18.3594 17.0156 17.3125 17.0156 16.2656 17.0156C16.25 18.6097 16.2656 20.2035 16.3125 21.7969C17.0569 22.2264 17.2209 22.8201 16.8047 23.5781C16.65 23.7835 16.4547 23.9242 16.2188 24C16 24 15.7813 24 15.5625 24C14.8372 23.6739 14.595 23.1271 14.8359 22.3594C14.9654 22.0816 15.1763 21.8941 15.4688 21.7969C15.5156 20.2035 15.5312 18.6097 15.5156 17.0156C14.7344 17.0156 13.9531 17.0156 13.1719 17.0156C13.194 18.9394 13.1706 20.8612 13.1016 22.7812C13.0075 23.0315 12.8278 23.1799 12.5625 23.2266C11.9533 23.25 11.3439 23.2578 10.7344 23.25C10.6117 23.6245 10.3617 23.8745 9.98438 24C9.76561 24 9.54689 24 9.32812 24C8.52863 23.5935 8.3333 22.9842 8.74219 22.1719C9.24159 21.6563 9.79631 21.586 10.4062 21.9609C10.5705 22.1102 10.6799 22.2899 10.7344 22.5C11.2969 22.5 11.8594 22.5 12.4219 22.5C12.4219 20.6719 12.4219 18.8438 12.4219 17.0156C11.906 17.0078 11.3904 17.0156 10.875 17.0391C10.6652 17.3127 10.3918 17.4612 10.0547 17.4844C9.96877 17.4765 9.8828 17.4688 9.79688 17.4609C9.59353 17.3749 9.39038 17.2889 9.1875 17.2031C8.92594 17.3216 8.6603 17.431 8.39062 17.5312C8.28216 17.7391 8.19623 17.9579 8.13281 18.1875C8.04412 18.3543 7.91133 18.4715 7.73438 18.5391C6.95311 18.5703 6.17189 18.5703 5.39062 18.5391C5.21367 18.4715 5.08087 18.3543 4.99219 18.1875C4.92877 17.9579 4.84284 17.7391 4.73438 17.5312C4.4942 17.4434 4.25983 17.3418 4.03125 17.2266C3.96875 17.1953 3.90625 17.1953 3.84375 17.2266C3.45978 17.5014 3.05353 17.5483 2.625 17.3672C2.08287 16.8564 1.57506 16.3174 1.10156 15.75C1.07031 15.5781 1.07031 15.4063 1.10156 15.2344C1.18764 15.031 1.27357 14.8279 1.35938 14.625C1.24091 14.3634 1.13153 14.0978 1.03125 13.8281C0.82335 13.7197 0.604598 13.6337 0.375 13.5703C0.207335 13.4731 0.082335 13.3403 0 13.1719C0 12.3906 0 11.6094 0 10.8281C0.082335 10.6597 0.207335 10.5269 0.375 10.4297C0.604598 10.3663 0.82335 10.2803 1.03125 10.1719C1.13153 9.9022 1.24091 9.63656 1.35938 9.375C1.27357 9.17212 1.18764 8.96897 1.10156 8.76562C1.0515 8.51869 1.08275 8.28431 1.19531 8.0625C1.6875 7.57031 2.17969 7.07812 2.67188 6.58594C3.09205 6.4552 3.48268 6.51769 3.84375 6.77344C3.90625 6.8047 3.96875 6.8047 4.03125 6.77344C4.25983 6.65817 4.4942 6.55664 4.73438 6.46875C4.84284 6.26086 4.92877 6.04209 4.99219 5.8125C5.08087 5.64572 5.21367 5.52853 5.39062 5.46094C6.17189 5.42967 6.95311 5.42967 7.73438 5.46094C7.91133 5.52853 8.04412 5.64572 8.13281 5.8125C8.19623 6.04209 8.28216 6.26086 8.39062 6.46875C8.6603 6.56902 8.92594 6.67842 9.1875 6.79688C9.39038 6.71109 9.59353 6.62512 9.79688 6.53906C10.0199 6.50109 10.2386 6.51675 10.4531 6.58594C10.6077 6.69352 10.7483 6.81853 10.875 6.96094C11.3904 6.98438 11.906 6.9922 12.4219 6.98438C12.4219 5.15625 12.4219 3.32812 12.4219 1.5C11.8594 1.5 11.2969 1.5 10.7344 1.5C10.6383 1.86958 10.404 2.11177 10.0312 2.22656C9.29513 2.38594 8.80294 2.11251 8.55469 1.40625C8.4458 0.728081 8.70361 0.259333 9.32812 0ZM9.51562 0.75C10.0044 0.743883 10.1528 0.96263 9.96094 1.40625C9.51366 1.63159 9.29494 1.49097 9.30469 0.984375C9.35273 0.881859 9.42305 0.803738 9.51562 0.75ZM16.5 0.75C16.954 0.72097 17.1181 0.924098 16.9922 1.35938C16.7215 1.61835 16.4871 1.58711 16.2891 1.26562C16.2317 1.03716 16.302 0.86528 16.5 0.75ZM22.6875 0.75C23.1167 0.702619 23.2964 0.890119 23.2266 1.3125C22.8872 1.63481 22.6294 1.5723 22.4531 1.125C22.494 0.975187 22.5721 0.850186 22.6875 0.75ZM5.67188 6.14062C6.26644 6.12506 6.8602 6.14067 7.45312 6.1875C7.53445 6.42366 7.62038 6.65803 7.71094 6.89062C7.78125 6.96094 7.85156 7.03125 7.92188 7.10156C8.35013 7.27284 8.77978 7.43691 9.21094 7.59375C9.5115 7.50914 9.80058 7.40761 10.0781 7.28906C10.4929 7.69598 10.8991 8.11003 11.2969 8.53125C11.1418 8.78667 11.0324 9.06009 10.9688 9.35156C11.1256 9.78272 11.2897 10.2124 11.4609 10.6406C11.5312 10.7109 11.6016 10.7812 11.6719 10.8516C11.9045 10.9421 12.1388 11.028 12.375 11.1094C12.4375 11.7031 12.4375 12.2969 12.375 12.8906C12.1388 12.972 11.9045 13.0579 11.6719 13.1484C11.6016 13.2188 11.5312 13.2891 11.4609 13.3594C11.2897 13.7876 11.1256 14.2173 10.9688 14.6484C11.0538 14.9497 11.1554 15.2387 11.2734 15.5156C10.8665 15.9304 10.4525 16.3366 10.0312 16.7344C9.77517 16.5789 9.5017 16.4695 9.21094 16.4062C8.77978 16.5631 8.35013 16.7272 7.92188 16.8984C7.85156 16.9688 7.78125 17.0391 7.71094 17.1094C7.62038 17.342 7.53445 17.5763 7.45312 17.8125C6.85936 17.875 6.26564 17.875 5.67188 17.8125C5.59055 17.5763 5.50462 17.342 5.41406 17.1094C5.34375 17.0391 5.27344 16.9688 5.20312 16.8984C4.77488 16.7272 4.34521 16.5631 3.91406 16.4062C3.6135 16.4909 3.32445 16.5924 3.04688 16.7109C2.63213 16.304 2.22589 15.89 1.82812 15.4688C1.99035 15.207 2.09972 14.9257 2.15625 14.625C1.99262 14.2038 1.82856 13.782 1.66406 13.3594C1.59375 13.2891 1.52344 13.2188 1.45312 13.1484C1.20092 13.0646 0.958734 12.963 0.726562 12.8438C0.695311 12.2812 0.695311 11.7188 0.726562 11.1562C0.958734 11.037 1.20092 10.9354 1.45312 10.8516C1.52344 10.7812 1.59375 10.7109 1.66406 10.6406C1.83534 10.2124 1.99941 9.78272 2.15625 9.35156C2.07165 9.051 1.97009 8.76192 1.85156 8.48438C2.25848 8.06962 2.67254 7.66341 3.09375 7.26562C3.35604 7.42819 3.63729 7.53755 3.9375 7.59375C4.35824 7.43039 4.78013 7.26633 5.20312 7.10156C5.30667 7.01377 5.39259 6.91219 5.46094 6.79688C5.53627 6.57872 5.60658 6.36 5.67188 6.14062ZM9.60938 22.4531C9.93328 22.4768 10.0817 22.6487 10.0547 22.9688C9.95705 23.2221 9.77738 23.308 9.51562 23.2266C9.27961 23.0853 9.22491 22.89 9.35156 22.6406C9.42188 22.5483 9.5078 22.4858 9.60938 22.4531ZM15.8438 22.4531C16.237 22.5257 16.3542 22.7445 16.1953 23.1094C15.8489 23.3535 15.6067 23.2753 15.4688 22.875C15.4986 22.6424 15.6236 22.5017 15.8438 22.4531ZM22.8281 22.4531C23.1785 22.5144 23.3114 22.7175 23.2266 23.0625C23.088 23.2395 22.9084 23.2942 22.6875 23.2266C22.3739 22.9083 22.4208 22.6505 22.8281 22.4531Z" fill="url(#paint0_linear_1956_1179)"/>
<path opacity="0.934" fill-rule="evenodd" clip-rule="evenodd" d="M14.2031 10.0781C14.719 10.0703 15.2346 10.0781 15.75 10.1016C15.9714 10.2157 16.0418 10.3954 15.9609 10.6406C15.9062 10.6953 15.8516 10.75 15.7969 10.8047C15.4379 10.8281 15.0785 10.8359 14.7188 10.8281C14.7188 11.0938 14.7188 11.3594 14.7188 11.625C15.0317 11.6172 15.3442 11.625 15.6563 11.6484C15.8777 11.7626 15.948 11.9423 15.8672 12.1875C15.8103 12.2601 15.74 12.3148 15.6563 12.3516C15.3442 12.375 15.0317 12.3828 14.7188 12.375C14.7188 12.6406 14.7188 12.9062 14.7188 13.1719C15.0785 13.1641 15.4379 13.1719 15.7969 13.1953C15.9739 13.3318 16.0286 13.5114 15.9609 13.7344C15.904 13.807 15.8337 13.8616 15.75 13.8984C15.2344 13.9297 14.7188 13.9297 14.2031 13.8984C14.1194 13.8616 14.0491 13.807 13.9922 13.7344C13.9609 12.5781 13.9609 11.4219 13.9922 10.2656C14.0577 10.192 14.128 10.1295 14.2031 10.0781Z" fill="url(#paint1_linear_1956_1179)"/>
<path opacity="0.926" fill-rule="evenodd" clip-rule="evenodd" d="M5.93407 8.29708C9.11719 8.10905 10.3365 9.71411 10.2629 12.646C9.67987 14.8551 8.23685 15.8668 5.93407 15.6812C3.71204 15.1015 2.6944 13.6669 2.88108 11.3776C3.24689 9.70025 4.26459 8.67336 5.93407 8.29708ZM6.11634 8.99673C5.10938 9.09342 3.58923 10.195 3.58923 11.5588C3.44531 13.8044 4.79736 14.5751 6.11634 14.9816C7.49903 15.116 9.09375 14.4606 9.5548 12.5586C9.62862 10.7142 8.71875 8.74685 6.11634 8.99673Z" fill="url(#paint2_linear_1956_1179)"/>
<path opacity="0.943" fill-rule="evenodd" clip-rule="evenodd" d="M16.9476 10.0775C17.435 10.0588 17.9194 10.0822 18.4007 10.1478C19.0629 10.4769 19.2894 11.0003 19.0804 11.7181C18.9046 12.0424 18.6468 12.2767 18.307 12.4213C18.5717 12.7407 18.8451 13.0532 19.1273 13.3588C19.1867 13.8307 18.9915 13.9948 18.5414 13.851C18.1953 13.4481 17.8438 13.0497 17.4867 12.6556C17.4839 13.0511 17.4526 13.4417 17.3929 13.8275C17.2054 13.9525 17.0179 13.9525 16.8304 13.8275C16.7532 12.6441 16.7376 11.4566 16.7835 10.265C16.8159 10.1783 16.8705 10.1158 16.9476 10.0775ZM17.5101 10.8275C17.5101 11.1088 17.5101 11.39 17.5101 11.6713C17.7138 11.679 17.9169 11.6712 18.1195 11.6478C18.4517 11.4355 18.483 11.1855 18.2132 10.8978C17.9835 10.8357 17.7491 10.8123 17.5101 10.8275Z" fill="url(#paint3_linear_1956_1179)"/>
<path opacity="0.922" fill-rule="evenodd" clip-rule="evenodd" d="M20.2266 10.0781C20.6643 10.0703 21.1019 10.0781 21.5391 10.1015C22.3506 10.3728 22.6553 10.9275 22.4531 11.7656C22.0884 12.4517 21.5181 12.7173 20.7422 12.5625C20.75 12.969 20.7422 13.3753 20.7188 13.7812C20.5 13.9687 20.2813 13.9687 20.0625 13.7812C20.0469 13.7188 20.0312 13.6562 20.0156 13.5937C19.9844 12.5312 19.9844 11.4688 20.0156 10.4062C20.0405 10.2616 20.1108 10.1523 20.2266 10.0781ZM20.7422 10.8281C20.7807 11.1408 20.7963 11.4689 20.7891 11.8125C21.045 11.8311 21.2949 11.8077 21.5391 11.7422C21.8798 11.3833 21.8329 11.0864 21.3984 10.8515C21.1802 10.8282 20.9615 10.8203 20.7422 10.8281Z" fill="url(#paint4_linear_1956_1179)"/>
<defs>
<linearGradient id="paint0_linear_1956_1179" x1="-0.2875" y1="-9.36907e-07" x2="28.6316" y2="12.4891" gradientUnits="userSpaceOnUse">
<stop offset="0.11" stop-color="#60D7AD"/>
<stop offset="0.76" stop-color="#213C3A"/>
</linearGradient>
<linearGradient id="paint1_linear_1956_1179" x1="13.9445" y1="10.0752" x2="16.6969" y2="10.7008" gradientUnits="userSpaceOnUse">
<stop offset="0.11" stop-color="#60D7AD"/>
<stop offset="0.76" stop-color="#213C3A"/>
</linearGradient>
<linearGradient id="paint2_linear_1956_1179" x1="2.77065" y1="8.28223" x2="11.7007" y2="12.1316" gradientUnits="userSpaceOnUse">
<stop offset="0.11" stop-color="#60D7AD"/>
<stop offset="0.76" stop-color="#213C3A"/>
</linearGradient>
<linearGradient id="paint3_linear_1956_1179" x1="16.7291" y1="10.0713" x2="19.926" y2="10.9312" gradientUnits="userSpaceOnUse">
<stop offset="0.11" stop-color="#60D7AD"/>
<stop offset="0.76" stop-color="#213C3A"/>
</linearGradient>
<linearGradient id="paint4_linear_1956_1179" x1="19.962" y1="10.0752" x2="23.2994" y2="11.02" gradientUnits="userSpaceOnUse">
<stop offset="0.11" stop-color="#60D7AD"/>
<stop offset="0.76" stop-color="#213C3A"/>
</linearGradient>
</defs>
</svg>
