<svg width="33" height="25" viewBox="0 0 33 25" fill="none" xmlns="http://www.w3.org/2000/svg">
<path opacity="0.935" fill-rule="evenodd" clip-rule="evenodd" d="M27.0934 11.2321C27.4659 10.8444 27.9169 10.6676 28.4465 10.7015C29.1219 10.8992 29.4046 11.3456 29.2949 12.0406C28.8713 14.0579 28.4593 16.0778 28.0586 18.1003C27.9594 18.4167 27.7893 18.6865 27.5486 18.9098C25.9673 19.7353 24.3906 20.5725 22.8185 21.4213C22.6808 21.5522 22.5848 21.7091 22.5303 21.892C22.457 22.1581 22.3747 22.4217 22.2835 22.6828C22.4921 22.9196 22.5473 23.1859 22.4488 23.4816C22.0355 23.9107 21.5888 24.3036 21.1089 24.6602C20.8994 24.7708 20.6883 24.771 20.4757 24.6609C19.3985 23.4214 18.3412 22.1652 17.3036 20.8925C17.2536 20.726 17.2586 20.5613 17.3185 20.3983C17.5365 20.1589 17.7712 19.9359 18.0228 19.7293C18.2693 19.5167 18.529 19.3234 18.8021 19.1494C19.0678 19.0904 19.3056 19.1521 19.5157 19.3346C19.7292 18.717 19.9339 18.0969 20.1297 17.4742C20.2328 17.2515 20.3858 17.072 20.5888 16.9356C20.7979 16.813 21.0176 16.7126 21.2478 16.6344C22.6126 16.1277 23.9774 15.621 25.3422 15.1143C25.4435 15.0989 25.5453 15.0893 25.6475 15.0855C26.0096 14.035 26.3661 12.9829 26.7169 11.9292C26.8127 11.6753 26.9382 11.443 27.0934 11.2321ZM27.543 11.7662C27.7416 11.5579 27.9785 11.4177 28.2535 11.3455C28.4482 11.3538 28.5869 11.4483 28.6696 11.629C28.2419 13.6151 27.8504 15.6092 27.495 17.6115C27.4502 17.8832 27.3463 18.1312 27.1833 18.3554C25.5769 19.1916 23.9804 20.0454 22.3939 20.9169C22.0729 21.252 21.8646 21.647 21.7691 22.1019C21.1415 21.3965 20.5337 20.6745 19.9457 19.9358C20.1971 19.1855 20.4541 18.4368 20.7167 17.6898C20.7953 17.5222 20.9239 17.414 21.1025 17.3651C22.5942 16.7992 24.0912 16.2488 25.5935 15.7139C26.1133 15.7523 26.3283 16.0276 26.2382 16.5401C26.13 16.7326 25.9717 16.8659 25.7635 16.9397C24.9088 17.2226 24.0577 17.5165 23.2103 17.8214C22.9063 18.0551 22.9247 18.2677 23.2656 18.4593C24.2146 18.1618 25.1591 17.8484 26.0991 17.5191C26.9079 17.1266 27.1342 16.5221 26.7779 15.7056C26.6692 15.529 26.5253 15.3882 26.3462 15.2831C26.3312 15.2566 26.3245 15.2285 26.3259 15.1988C26.7117 14.0431 27.1174 12.8988 27.543 11.7662ZM17.9133 20.6833C18.2694 20.3836 18.6255 20.0839 18.9816 19.7842C19.939 20.9216 20.8965 22.059 21.854 23.1965C21.4979 23.4962 21.1418 23.7959 20.7858 24.0957C19.8283 22.9582 18.8708 21.8208 17.9133 20.6833Z" fill="url(#paint0_linear_1956_1194)"/>
<path opacity="0.935" fill-rule="evenodd" clip-rule="evenodd" d="M6.31288 11.2321C5.94034 10.8444 5.48931 10.6676 4.95978 10.7015C4.28439 10.8992 4.00161 11.3456 4.11139 12.0406C4.53491 14.0579 4.94698 16.0778 5.34766 18.1003C5.4469 18.4167 5.61691 18.6865 5.85763 18.9098C7.43893 19.7353 9.01564 20.5725 10.5877 21.4213C10.7254 21.5522 10.8215 21.7091 10.8759 21.892C10.9493 22.1581 11.0316 22.4217 11.1228 22.6828C10.9141 22.9196 10.859 23.1859 10.9574 23.4816C11.3708 23.9107 11.8174 24.3036 12.2974 24.6602C12.5069 24.7708 12.718 24.771 12.9305 24.6609C14.0077 23.4214 15.0651 22.1652 16.1027 20.8925C16.1526 20.726 16.1476 20.5613 16.0878 20.3983C15.8698 20.1589 15.635 19.9359 15.3834 19.7293C15.137 19.5167 14.8772 19.3234 14.6041 19.1494C14.3385 19.0904 14.1006 19.1521 13.8906 19.3346C13.677 18.717 13.4724 18.0969 13.2766 17.4742C13.1735 17.2515 13.0204 17.072 12.8174 16.9356C12.6083 16.813 12.3886 16.7126 12.1584 16.6344C10.7936 16.1277 9.42881 15.621 8.06401 15.1143C7.96273 15.0989 7.861 15.0893 7.75874 15.0855C7.39667 14.035 7.04019 12.9829 6.68932 11.9292C6.59355 11.6753 6.46808 11.443 6.31288 11.2321ZM5.86328 11.7662C5.66465 11.5579 5.42779 11.4177 5.15274 11.3455C4.95804 11.3538 4.81936 11.4483 4.73667 11.629C5.1643 13.6151 5.55583 15.6092 5.91125 17.6115C5.95609 17.8832 6.05997 18.1312 6.2229 18.3554C7.82937 19.1916 9.42585 20.0454 11.0124 20.9169C11.3334 21.252 11.5417 21.647 11.6372 22.1019C12.2647 21.3965 12.8725 20.6745 13.4605 19.9358C13.2091 19.1855 12.9521 18.4368 12.6895 17.6898C12.6109 17.5222 12.4823 17.414 12.3038 17.3651C10.8121 16.7992 9.31506 16.2488 7.81273 15.7139C7.29291 15.7523 7.07799 16.0276 7.16801 16.5401C7.2763 16.7326 7.43457 16.8659 7.64277 16.9397C8.49747 17.2226 9.34852 17.5165 10.1959 17.8214C10.5 18.0551 10.4816 18.2677 10.1406 18.4593C9.19169 18.1618 8.24719 17.8484 7.30717 17.5191C6.49838 17.1266 6.2721 16.5221 6.62837 15.7056C6.73707 15.529 6.88094 15.3882 7.06003 15.2831C7.07501 15.2566 7.08179 15.2285 7.08031 15.1988C6.69453 14.0431 6.28887 12.8988 5.86328 11.7662ZM15.4929 20.6833C15.1368 20.3836 14.7808 20.0839 14.4247 19.7842C13.4672 20.9216 12.5097 22.059 11.5523 23.1965C11.9084 23.4962 12.2644 23.7959 12.6205 24.0957C13.578 22.9582 14.5354 21.8208 15.4929 20.6833Z" fill="url(#paint1_linear_1956_1194)"/>
<path opacity="0.927" fill-rule="evenodd" clip-rule="evenodd" d="M16.0526 0.00495137C16.6673 -0.0104248 17.2804 0.0100114 17.8918 0.06626C18.1586 0.169491 18.3425 0.353417 18.4436 0.618037C18.5187 1.16426 18.6004 1.70923 18.6888 2.25293C19.0257 2.42492 19.0734 2.64972 18.8319 2.92733C18.4306 2.97654 18.1649 2.80626 18.0349 2.41642C17.9634 1.91283 17.8953 1.40873 17.8305 0.904144C17.8194 0.829392 17.7853 0.768084 17.7283 0.720218C17.1289 0.638473 16.5294 0.638473 15.9299 0.720218C15.873 0.768084 15.8389 0.829392 15.8278 0.904144C15.763 1.40873 15.6949 1.91283 15.6234 2.41642C15.5663 2.59185 15.4642 2.7349 15.3169 2.84558C14.4746 3.13079 13.7253 3.56678 13.0689 4.1535C12.8466 4.25041 12.6149 4.27763 12.374 4.23524C11.9108 4.04449 11.4476 3.85378 10.9844 3.66303C10.8696 3.62543 10.781 3.65947 10.7187 3.76521C10.4052 4.22184 10.1396 4.70548 9.9217 5.21618C9.92755 5.3041 9.96842 5.37223 10.0443 5.42054C10.3713 5.66578 10.6983 5.91101 11.0253 6.15625C11.3124 6.33543 11.4487 6.59428 11.434 6.93282C11.3783 7.34678 11.3374 7.76229 11.3114 8.17943C11.3637 8.68347 11.3978 9.18755 11.4135 9.69171C11.3802 9.84028 11.3052 9.9629 11.1887 10.0596C10.8146 10.3624 10.4332 10.6553 10.0443 10.9383C9.96842 10.9866 9.92755 11.0548 9.9217 11.1427C10.1481 11.7047 10.4478 12.2224 10.8209 12.6958C10.9195 12.7156 11.0149 12.702 11.107 12.655C11.5246 12.4666 11.947 12.2894 12.374 12.1236C12.582 12.0899 12.7864 12.1035 12.9871 12.1645C13.6807 12.7499 14.4573 13.1995 15.3169 13.5133C15.4642 13.624 15.5663 13.767 15.6234 13.9424C15.6949 14.446 15.763 14.9501 15.8278 15.4547C15.8389 15.5295 15.873 15.5908 15.9299 15.6386C16.5294 15.7204 17.1289 15.7204 17.7283 15.6386C17.7853 15.5908 17.8194 15.5295 17.8305 15.4547C17.8953 14.9501 17.9634 14.446 18.0349 13.9424C18.0919 13.767 18.1941 13.624 18.3414 13.5133C19.1394 13.2508 19.8479 12.8421 20.4668 12.2871C20.7136 12.1164 20.9861 12.0619 21.2842 12.1236C21.7113 12.2894 22.1336 12.4666 22.5513 12.655C22.6434 12.702 22.7388 12.7156 22.8374 12.6958C23.2159 12.2184 23.5156 11.6938 23.7366 11.1222C23.7072 11.0312 23.6527 10.9563 23.5731 10.8974C23.1741 10.628 22.7927 10.3351 22.4287 10.0187C22.2755 9.85205 22.2073 9.65447 22.2243 9.42604C22.2787 9.012 22.3195 8.59645 22.3469 8.17943C22.2946 7.67535 22.2605 7.17127 22.2447 6.66715C22.2781 6.51858 22.353 6.39596 22.4695 6.2993C22.8909 5.98013 23.3065 5.65315 23.7161 5.31836C23.7359 5.21974 23.7223 5.12438 23.6753 5.03226C23.461 4.58981 23.2157 4.16748 22.9396 3.76521C22.8939 3.69883 22.8326 3.65796 22.7556 3.64259C22.2607 3.82873 21.7703 4.02626 21.2842 4.23524C21.0762 4.269 20.8719 4.25535 20.6711 4.19437C20.3216 3.91292 19.9605 3.64725 19.588 3.39736C19.4761 3.04202 19.6055 2.8717 19.9763 2.88646C20.3392 3.1153 20.6934 3.35375 21.039 3.60172C21.5429 3.40431 22.047 3.20673 22.5513 3.00907C22.9047 2.94065 23.1976 3.04283 23.43 3.31562C23.8164 3.82922 24.1298 4.38782 24.3701 4.99138C24.4233 5.25387 24.3824 5.4991 24.2475 5.72709C23.8827 6.06477 23.4944 6.37132 23.0826 6.64672C22.9614 6.72613 22.8933 6.83514 22.8782 6.97369C22.9407 7.36656 22.9816 7.76167 23.0009 8.15899C22.9667 8.61681 22.9326 9.07323 22.8987 9.52822C23.2622 9.83595 23.6369 10.1288 24.0227 10.407C24.3403 10.654 24.4561 10.9742 24.3701 11.3675C24.1298 11.971 23.8164 12.5296 23.43 13.0432C23.1976 13.316 22.9047 13.4182 22.5513 13.3498C22.047 13.1521 21.5429 12.9546 21.039 12.7571C20.9802 12.7661 20.9257 12.7865 20.8755 12.8184C20.2567 13.3734 19.5482 13.7821 18.7501 14.0446C18.6887 14.1056 18.6546 14.1805 18.648 14.2694C18.5895 14.8049 18.5078 15.3363 18.4027 15.8634C18.2217 16.1618 17.956 16.3185 17.6057 16.3335C16.9912 16.3693 16.3781 16.3557 15.7665 16.2926C15.4997 16.1894 15.3158 16.0054 15.2147 15.7408C15.1396 15.1946 15.0578 14.6497 14.9694 14.1059C14.1333 13.7937 13.3772 13.3509 12.701 12.7776C12.6024 12.7578 12.507 12.7714 12.4149 12.8184C11.9822 13.0036 11.5463 13.1807 11.107 13.3498C10.8594 13.3973 10.6279 13.3564 10.4122 13.2272C9.93876 12.6709 9.5641 12.051 9.28818 11.3675C9.235 11.105 9.27587 10.8598 9.41079 10.6318C9.77558 10.2941 10.1639 9.98754 10.5757 9.71214C10.6968 9.63273 10.7649 9.52372 10.78 9.38517C10.7162 8.98556 10.6753 8.58366 10.6574 8.17943C10.6917 7.72844 10.7257 7.27885 10.7596 6.83064C10.31 6.46279 9.86039 6.09494 9.41079 5.72709C9.27587 5.4991 9.235 5.25387 9.28818 4.99138C9.52847 4.38782 9.84182 3.82922 10.2282 3.31562C10.4607 3.04283 10.7536 2.94065 11.107 3.00907C11.6113 3.20673 12.1154 3.40431 12.6193 3.60172C12.6781 3.59277 12.7325 3.57233 12.7828 3.54041C13.4016 2.98545 14.1101 2.57672 14.9081 2.31424C14.9696 2.2533 15.0037 2.17838 15.0103 2.08944C15.0687 1.55393 15.1505 1.02259 15.2555 0.49542C15.4449 0.200129 15.7106 0.0366397 16.0526 0.00495137Z" fill="url(#paint2_linear_1956_1194)"/>
<path opacity="0.94" fill-rule="evenodd" clip-rule="evenodd" d="M12.9057 6.13635C13.4917 6.12952 14.0775 6.13635 14.6632 6.15679C14.9453 6.37831 14.9316 6.58268 14.6223 6.76987C14.2138 6.79031 13.8051 6.79709 13.3962 6.79031C13.3962 7.15816 13.3962 7.52601 13.3962 7.89386C13.7915 7.88708 14.1866 7.89386 14.5815 7.9143C14.6986 7.97123 14.7531 8.06659 14.7449 8.20041C14.7531 8.33422 14.6986 8.42958 14.5815 8.48651C14.1866 8.50695 13.7915 8.51373 13.3962 8.50695C13.3962 8.8748 13.3962 9.24265 13.3962 9.6105C13.8051 9.60372 14.2138 9.6105 14.6223 9.63094C14.8488 9.73729 14.9102 9.9076 14.8063 10.1418C14.7693 10.1909 14.7217 10.225 14.6632 10.244C14.0774 10.2713 13.4915 10.2713 12.9057 10.244C12.858 10.1963 12.8103 10.1487 12.7626 10.101C12.7354 8.83393 12.7354 7.56688 12.7626 6.29984C12.8189 6.25059 12.8665 6.1961 12.9057 6.13635Z" fill="url(#paint3_linear_1956_1194)"/>
<path opacity="0.939" fill-rule="evenodd" clip-rule="evenodd" d="M15.5953 6.12072C16.0723 6.1139 16.5492 6.12072 17.0258 6.14116C17.805 6.4119 18.0979 6.95007 17.9046 7.75562C17.7206 8.21196 17.3868 8.49128 16.9032 8.5935C17.2322 8.97202 17.566 9.34666 17.9046 9.71749C18.0542 10.1336 17.9111 10.3039 17.4754 10.2284C17.019 9.71749 16.5626 9.20659 16.1062 8.69569C16.0926 9.14528 16.0789 9.59488 16.0653 10.0445C15.9658 10.2376 15.8091 10.2989 15.5953 10.2284C15.5579 10.2131 15.5238 10.1927 15.4931 10.1671C15.4256 8.8763 15.412 7.58199 15.4522 6.28421C15.4804 6.2086 15.5281 6.15408 15.5953 6.12072ZM16.0858 6.73381C16.0858 7.12892 16.0858 7.524 16.0858 7.91911C16.345 7.92589 16.6038 7.91911 16.8623 7.89867C16.9955 7.84918 17.1113 7.77426 17.2098 7.67388C17.4041 7.27888 17.3019 6.98599 16.9032 6.79512C16.6333 6.74305 16.3608 6.72261 16.0858 6.73381Z" fill="url(#paint4_linear_1956_1194)"/>
<path opacity="0.939" fill-rule="evenodd" clip-rule="evenodd" d="M18.7494 6.12122C19.2969 6.10385 19.8418 6.12429 20.3843 6.18253C21.2344 6.63486 21.4456 7.29561 21.0179 8.16484C20.8027 8.46689 20.5098 8.65081 20.1391 8.71662C19.8397 8.73705 19.54 8.74384 19.2399 8.73705C19.2467 9.18685 19.2399 9.63645 19.2195 10.0858C19.157 10.2091 19.0548 10.2636 18.9129 10.2493C18.7626 10.256 18.6605 10.1879 18.6064 10.045C18.5791 8.80519 18.5791 7.56536 18.6064 6.32558C18.6471 6.25107 18.6948 6.18294 18.7494 6.12122ZM19.2399 6.73431C19.2399 7.1839 19.2399 7.6335 19.2399 8.0831C19.5568 8.09928 19.8702 8.07884 20.18 8.02179C20.7087 7.64327 20.7223 7.24815 20.2208 6.83649C19.9014 6.74591 19.5744 6.71183 19.2399 6.73431Z" fill="url(#paint5_linear_1956_1194)"/>
<defs>
<linearGradient id="paint0_linear_1956_1194" x1="16.4413" y1="20.1839" x2="31.6722" y2="21.7041" gradientUnits="userSpaceOnUse">
<stop offset="0.11" stop-color="#60D7AD"/>
<stop offset="0.76" stop-color="#213C3A"/>
</linearGradient>
<linearGradient id="paint1_linear_1956_1194" x1="16.9649" y1="20.1839" x2="1.73404" y2="21.7041" gradientUnits="userSpaceOnUse">
<stop offset="0.11" stop-color="#60D7AD"/>
<stop offset="0.76" stop-color="#213C3A"/>
</linearGradient>
<linearGradient id="paint2_linear_1956_1194" x1="9.08436" y1="-6.38382e-07" x2="27.7394" y2="7.45491" gradientUnits="userSpaceOnUse">
<stop offset="0.11" stop-color="#60D7AD"/>
<stop offset="0.76" stop-color="#213C3A"/>
</linearGradient>
<linearGradient id="paint3_linear_1956_1194" x1="12.7168" y1="6.13379" x2="15.6092" y2="6.77575" gradientUnits="userSpaceOnUse">
<stop offset="0.11" stop-color="#60D7AD"/>
<stop offset="0.76" stop-color="#213C3A"/>
</linearGradient>
<linearGradient id="paint4_linear_1956_1194" x1="15.3993" y1="6.11816" x2="18.7838" y2="7.01259" gradientUnits="userSpaceOnUse">
<stop offset="0.11" stop-color="#60D7AD"/>
<stop offset="0.76" stop-color="#213C3A"/>
</linearGradient>
<linearGradient id="paint5_linear_1956_1194" x1="18.5542" y1="6.11523" x2="22.0698" y2="7.08671" gradientUnits="userSpaceOnUse">
<stop offset="0.11" stop-color="#60D7AD"/>
<stop offset="0.76" stop-color="#213C3A"/>
</linearGradient>
</defs>
</svg>
