<svg width="33" height="24" viewBox="0 0 33 24" fill="none" xmlns="http://www.w3.org/2000/svg">
<path opacity="0.943" fill-rule="evenodd" clip-rule="evenodd" d="M32.7345 7.36508C32.7345 10.8995 32.7345 14.4338 32.7345 17.9682C32.0612 21.3399 30.0295 23.3399 26.6392 23.9682C22.8297 24.0106 19.0202 24.0106 15.2107 23.9682C14.975 23.8087 14.901 23.5865 14.9885 23.3016C15.018 23.2107 15.0709 23.1367 15.1472 23.0793C18.6816 23.0582 22.2159 23.037 25.7504 23.0159C28.2884 22.8886 30.1191 21.6927 31.2424 19.4286C31.5418 18.7177 31.7111 17.977 31.7503 17.2063C31.7927 14.0741 31.7927 10.9418 31.7503 7.80952C31.7183 7.58603 31.602 7.4273 31.4011 7.33333C31.1693 7.30165 30.9365 7.29111 30.7027 7.30158C30.7133 10.6879 30.7027 14.0742 30.671 17.4603C30.2935 19.8484 28.9284 21.3193 26.5757 21.873C23.2122 21.946 19.8471 21.9777 16.4805 21.9682C13.1139 21.9777 9.74884 21.946 6.38529 21.873C4.03263 21.3193 2.66755 19.8484 2.29005 17.4603C2.25831 14.0742 2.24772 10.6879 2.25831 7.30158C2.02455 7.29111 1.79174 7.30165 1.55989 7.33333C1.34511 7.42095 1.22871 7.57968 1.21069 7.80952C1.2001 9.37568 1.18953 10.9418 1.17894 12.5079C1.17151 14.3082 1.20325 16.1071 1.27418 17.9048C1.76042 20.3283 3.16782 21.9473 5.4964 22.7619C6.05644 22.9223 6.62789 23.0069 7.21068 23.0159C9.28478 23.037 11.3588 23.0582 13.4329 23.0793C13.7715 23.3757 13.7715 23.6719 13.4329 23.9682C11.0626 24.0106 8.69214 24.0106 6.3218 23.9682C2.93159 23.3399 0.899845 21.3399 0.226562 17.9682C0.226562 14.4338 0.226562 10.8995 0.226562 7.36508C0.641313 6.49079 1.33972 6.13104 2.3218 6.28571C2.73567 3.78717 4.19599 2.33746 6.70275 1.93651C8.69208 1.90476 10.6815 1.89418 12.671 1.90476C12.6605 1.54436 12.6711 1.18457 12.7027 0.825398C12.7939 0.420928 13.0373 0.156382 13.4329 0.0317476C15.4646 -0.0105825 17.4964 -0.0105825 19.5281 0.0317476C19.8389 0.138795 20.0611 0.339849 20.1948 0.634922C20.2822 1.05247 20.314 1.47575 20.29 1.90476C22.2796 1.89418 24.269 1.90476 26.2583 1.93651C28.765 2.33746 30.2253 3.78717 30.6392 6.28571C31.6213 6.13104 32.3197 6.49079 32.7345 7.36508ZM13.8139 0.952382C15.5918 0.941804 17.3695 0.952382 19.1472 0.984128C19.2683 1.27101 19.3106 1.57789 19.2742 1.90476C17.4118 1.90476 15.5493 1.90476 13.6869 1.90476C13.6535 1.56781 13.6958 1.25035 13.8139 0.952382ZM6.70275 2.92063C13.2213 2.91003 19.7398 2.92063 26.2583 2.95238C28.0192 3.27701 29.1303 4.30343 29.5916 6.03174C29.6942 7.82844 29.7154 9.62742 29.6551 11.4286C29.3127 13.2736 28.2228 14.3847 26.3853 14.7619C24.3112 14.8042 22.2371 14.8042 20.1631 14.7619C20.0467 14.7301 19.9726 14.6561 19.9408 14.5397C19.5417 12.2356 18.1766 11.1669 15.8456 11.3333C14.1848 11.7667 13.2431 12.8354 13.0202 14.5397C12.9885 14.6561 12.9144 14.7301 12.798 14.7619C10.7239 14.8042 8.64986 14.8042 6.57576 14.7619C4.73827 14.3847 3.64832 13.2736 3.30593 11.4286C3.2636 9.75663 3.2636 8.08463 3.30593 6.41269C3.65881 4.48317 4.79109 3.31917 6.70275 2.92063ZM14.6392 4.82539C15.8667 4.82539 17.0943 4.82539 18.3218 4.82539C18.3218 5.14285 18.3218 5.46031 18.3218 5.77777C17.0943 5.77777 15.8667 5.77777 14.6392 5.77777C14.6392 5.46031 14.6392 5.14285 14.6392 4.82539ZM16.417 12.254C17.5104 12.3188 18.2829 12.8479 18.7345 13.8413C18.8208 14.2989 18.9478 14.7434 19.1154 15.1746C19.315 15.4919 19.6007 15.6929 19.9726 15.7778C22.2604 15.8387 24.5461 15.8176 26.8297 15.7143C27.9803 15.4621 28.9222 14.8801 29.6551 13.9682C29.6975 15.1111 29.6975 16.254 29.6551 17.3968C29.2778 19.4037 28.082 20.5783 26.0678 20.9206C19.6763 20.963 13.2848 20.963 6.89322 20.9206C4.87898 20.5783 3.68322 19.4037 3.30593 17.3968C3.2636 16.254 3.2636 15.1111 3.30593 13.9682C4.03889 14.8801 4.98069 15.4621 6.13132 15.7143C8.41494 15.8176 10.7006 15.8387 12.9885 15.7778C13.3603 15.6929 13.646 15.4919 13.8456 15.1746C14.0062 14.7412 14.1332 14.2968 14.2266 13.8413C14.6507 12.8837 15.3809 12.3546 16.417 12.254Z" fill="url(#paint0_linear_1941_1145)"/>
<path opacity="0.924" fill-rule="evenodd" clip-rule="evenodd" d="M8.3286 4.67458C8.977 4.63912 9.60731 4.72792 10.2195 4.94096C10.5898 5.12601 10.6686 5.40222 10.4558 5.76971C10.3456 5.82802 10.2274 5.85762 10.1013 5.8585C8.4537 5.29638 7.14385 5.73046 6.17182 7.16082C5.48617 8.67446 5.77177 9.96689 7.02862 11.0382C8.64586 11.973 10.0542 11.7263 11.2536 10.2982C11.8877 9.21037 11.9172 8.10541 11.3422 6.98323C11.5289 6.45372 11.8341 6.37481 12.2581 6.74645C12.9767 8.32444 12.8191 9.80434 11.7854 11.1862C10.6542 12.3793 9.28527 12.7838 7.67861 12.3997C5.46901 11.5348 4.57281 9.92658 4.99002 7.57519C5.53107 5.93747 6.64395 4.97056 8.3286 4.67458Z" fill="url(#paint1_linear_1941_1145)"/>
<path opacity="0.925" fill-rule="evenodd" clip-rule="evenodd" d="M23.871 4.67025C25.9913 4.60316 27.3977 5.57202 28.0902 7.5767C28.4998 9.74882 27.7228 11.3207 25.7593 12.2923C23.7164 12.9194 22.0937 12.3559 20.8911 10.6018C20.0148 8.75885 20.2804 7.10793 21.6877 5.64895C22.3342 5.12603 23.062 4.79979 23.871 4.67025ZM23.93 5.61929C23.5196 5.70109 23.1262 5.84938 22.7499 6.06416C21.3683 7.0874 21.0044 8.40218 21.6582 10.0086C22.5523 11.4222 23.8013 11.8868 25.4053 11.4025C26.6965 10.7746 27.3161 9.73654 27.2641 8.28848C26.8779 6.4869 25.7666 5.59717 23.93 5.61929Z" fill="url(#paint2_linear_1941_1145)"/>
<defs>
<linearGradient id="paint0_linear_1941_1145" x1="-0.162855" y1="-9.36907e-07" x2="34.4649" y2="20.2558" gradientUnits="userSpaceOnUse">
<stop offset="0.11" stop-color="#60D7AD"/>
<stop offset="0.76" stop-color="#213C3A"/>
</linearGradient>
<linearGradient id="paint1_linear_1941_1145" x1="4.79707" y1="4.66699" x2="14.2311" y2="8.70834" gradientUnits="userSpaceOnUse">
<stop offset="0.11" stop-color="#60D7AD"/>
<stop offset="0.76" stop-color="#213C3A"/>
</linearGradient>
<linearGradient id="paint2_linear_1941_1145" x1="20.2932" y1="4.66699" x2="29.7272" y2="8.70834" gradientUnits="userSpaceOnUse">
<stop offset="0.11" stop-color="#60D7AD"/>
<stop offset="0.76" stop-color="#213C3A"/>
</linearGradient>
</defs>
</svg>
