<svg width="25" height="24" viewBox="0 0 25 24" fill="none" xmlns="http://www.w3.org/2000/svg">
<path opacity="0.926" fill-rule="evenodd" clip-rule="evenodd" d="M12.3956 0.00300625C12.9525 -0.0222012 13.4679 0.111115 13.942 0.402956C14.7419 1.0251 15.5418 1.64724 16.3417 2.26939C17.9238 2.28716 19.5058 2.30494 21.0878 2.32271C21.6392 2.39396 22.0213 2.68726 22.2343 3.2026C22.2951 4.51503 22.3395 5.83043 22.3676 7.14877C23.1286 7.72289 23.8663 8.32729 24.5807 8.96188C24.794 9.24643 24.9184 9.56639 24.954 9.92176C24.9896 13.9746 24.9896 18.0274 24.954 22.0802C24.743 23.1623 24.0942 23.7933 23.0076 23.9733C16.1107 24.0089 9.21373 24.0089 2.31684 23.9733C1.23024 23.7933 0.581433 23.1623 0.370415 22.0802C0.334862 18.0274 0.334862 13.9746 0.370415 9.92176C0.428183 9.5041 0.588163 9.13082 0.850354 8.8019C1.51158 8.22053 2.19594 7.66946 2.90343 7.14877C2.94786 5.94045 2.97452 4.73169 2.98342 3.52256C3.09896 2.83821 3.49891 2.43826 4.18327 2.32271C5.80082 2.30494 7.41844 2.28716 9.03599 2.26939C9.76481 1.68279 10.4936 1.0962 11.2224 0.509609C11.5869 0.264771 11.978 0.0959066 12.3956 0.00300625ZM12.6622 0.856232C12.9443 0.905885 13.2109 1.00365 13.4621 1.14953C13.942 1.52282 14.422 1.8961 14.9019 2.26939C13.4088 2.30494 11.9156 2.30494 10.4225 2.26939C10.9808 1.80363 11.5674 1.37702 12.1823 0.989549C12.3491 0.94469 12.509 0.900248 12.6622 0.856232ZM4.18327 3.2026C9.83594 3.19371 15.4886 3.2026 21.1411 3.22927C21.2745 3.29148 21.3722 3.38925 21.4344 3.52256C21.47 6.04667 21.47 8.57084 21.4344 11.0949C18.8481 13.0769 16.2617 15.0589 13.6754 17.0409C13.4325 17.2246 13.1659 17.3668 12.8755 17.4675C12.6749 17.5068 12.4794 17.4891 12.2889 17.4141C11.7728 17.1028 11.275 16.7651 10.7958 16.4009C8.49862 14.6258 6.19672 12.8572 3.88997 11.0949C3.85442 8.57084 3.85442 6.04667 3.88997 3.52256C3.96248 3.38804 4.06024 3.28139 4.18327 3.2026ZM2.90343 8.26863C2.9653 8.95265 2.97419 9.6459 2.93009 10.3484C2.48002 10.021 2.04451 9.67438 1.62359 9.3085C2.06372 8.97366 2.49033 8.62704 2.90343 8.26863ZM22.3676 8.26863C22.8104 8.61478 23.2548 8.9614 23.7008 9.3085C23.2807 9.67539 22.8452 10.022 22.3943 10.3484C22.3676 9.65534 22.3587 8.96209 22.3676 8.26863ZM1.19698 10.1351C3.85214 12.1589 6.50068 14.1942 9.14264 16.241C6.5602 18.2474 3.97384 20.2472 1.38362 22.2402C1.33321 22.2186 1.29765 22.183 1.27697 22.1336C1.25919 22.0269 1.24141 21.9202 1.22364 21.8136C1.19698 17.9208 1.18809 14.028 1.19698 10.1351ZM24.0741 10.1351C24.1363 14.019 24.1451 17.9118 24.1008 21.8136C24.0705 21.9559 24.0439 22.098 24.0208 22.2402C23.88 22.216 23.7556 22.1538 23.6475 22.0536C21.1589 20.116 18.6704 18.1785 16.1818 16.241C18.8224 14.213 21.4532 12.1776 24.0741 10.1351ZM9.83589 16.8009C10.3921 17.2307 10.9609 17.6484 11.5423 18.0541C12.2712 18.5163 12.9999 18.5163 13.7287 18.0541C14.303 17.6558 14.8629 17.2381 15.4085 16.8009C18.0558 18.8349 20.6955 20.879 23.3275 22.9335C23.2522 23.0031 23.1633 23.0476 23.0609 23.0668C16.0721 23.1198 9.08633 23.102 2.10353 23.0134C1.97249 22.9519 1.97249 22.8808 2.10353 22.8001C4.70395 20.8251 7.28139 18.8254 9.83589 16.8009Z" fill="url(#paint0_linear_2025_1090)"/>
<path opacity="0.935" fill-rule="evenodd" clip-rule="evenodd" d="M5.62431 5.81584C6.31777 5.80693 7.01101 5.81584 7.70405 5.8425C8.17556 6.02984 8.37996 6.37646 8.3173 6.88237C8.18745 7.13429 7.983 7.21428 7.70405 7.12234C7.54791 7.02006 7.45906 6.87784 7.43741 6.69573C7.17969 6.68682 6.9219 6.67797 6.66418 6.66907C6.38421 6.67067 6.11758 6.70618 5.86428 6.77572C5.82871 7.62895 5.82871 8.48217 5.86428 9.3354C6.40202 9.38798 6.9442 9.40574 7.49074 9.38872C7.49074 9.12209 7.49074 8.85546 7.49074 8.58882C7.27669 8.59768 7.06338 8.58877 6.85082 8.56216C6.58707 8.33286 6.56931 8.08398 6.79749 7.81559C7.25968 7.70894 7.7218 7.70894 8.18399 7.81559C8.24803 7.86374 8.29251 7.92592 8.3173 8.00223C8.35287 8.5355 8.35287 9.06876 8.3173 9.60203C8.19796 9.95239 7.95799 10.1746 7.59739 10.2686C6.99304 10.3042 6.38864 10.3042 5.78429 10.2686C5.37261 10.1947 5.11488 9.95473 5.01105 9.5487C4.97548 8.5355 4.97548 7.52229 5.01105 6.50909C5.11781 6.18715 5.32221 5.95609 5.62431 5.81584Z" fill="url(#paint1_linear_2025_1090)"/>
<path opacity="0.945" fill-rule="evenodd" clip-rule="evenodd" d="M7.58018 11.6049C10.8494 11.596 14.1184 11.6049 17.387 11.6314C18.013 11.7608 18.2118 11.9644 17.9833 12.2423C17.9171 12.3397 17.7624 12.4017 17.5195 12.4282C14.1623 12.4636 10.8049 12.4636 7.44766 12.4282C6.71533 12.1285 6.75959 11.854 7.58018 11.6049Z" fill="url(#paint2_linear_2025_1090)"/>
<path opacity="0.945" fill-rule="evenodd" clip-rule="evenodd" d="M8.84418 13.2045C11.2218 13.1956 13.5992 13.2045 15.9764 13.2311C16.4317 13.3604 16.5763 13.5641 16.4101 13.8419C16.3619 13.9393 16.2494 14.0013 16.0728 14.0278C13.6311 14.0633 11.1894 14.0633 8.7478 14.0278C8.2152 13.7281 8.24739 13.4536 8.84418 13.2045Z" fill="url(#paint3_linear_2025_1090)"/>
<path opacity="0.93" fill-rule="evenodd" clip-rule="evenodd" d="M17.7301 5.76015C18.2281 5.7513 18.7259 5.76015 19.2233 5.78682C19.7896 5.89086 20.1539 6.21972 20.3165 6.77336C20.4431 7.49764 20.1854 8.03091 19.5432 8.37316C19.8595 8.83705 20.1261 9.32584 20.3431 9.83964C20.3315 10.1262 20.1804 10.2772 19.8899 10.2929C19.8031 10.2863 19.7231 10.2596 19.6499 10.2129C19.27 9.69337 18.9234 9.15125 18.61 8.58646C18.5146 8.49426 18.3991 8.45869 18.2634 8.47981C18.2873 9.01868 18.2607 9.55194 18.1834 10.0796C17.9109 10.3668 17.662 10.349 17.4368 10.0263C17.4013 8.71088 17.4013 7.39552 17.4368 6.08011C17.5094 5.94557 17.6071 5.83892 17.7301 5.76015ZM18.2634 6.66671C18.2634 6.98667 18.2634 7.30663 18.2634 7.62659C18.5875 7.6428 18.9074 7.61613 19.2233 7.5466C19.5334 7.2189 19.4979 6.93451 19.1166 6.69337C18.8328 6.66676 18.5484 6.65785 18.2634 6.66671Z" fill="url(#paint4_linear_2025_1090)"/>
<path opacity="0.941" fill-rule="evenodd" clip-rule="evenodd" d="M9.51665 5.8137C12.0506 5.42362 13.0726 6.49015 12.5829 9.0133C12.3625 9.71369 11.8914 10.1314 11.1698 10.2665C10.6365 10.302 10.1032 10.302 9.56997 10.2665C9.4189 10.2221 9.3211 10.1243 9.27668 9.97318C9.24111 8.67558 9.24111 7.37793 9.27668 6.08033C9.33134 5.96371 9.41133 5.87481 9.51665 5.8137ZM10.1032 6.66693C10.1032 7.57348 10.1032 8.48003 10.1032 9.38658C10.4592 9.39544 10.8147 9.38658 11.1698 9.35992C11.4565 9.27694 11.6431 9.0903 11.7297 8.79999C11.7653 8.30229 11.7653 7.80454 11.7297 7.30685C11.632 6.99579 11.4275 6.79134 11.1164 6.69359C10.7792 6.66693 10.4414 6.65807 10.1032 6.66693Z" fill="url(#paint5_linear_2025_1090)"/>
<path opacity="0.925" fill-rule="evenodd" clip-rule="evenodd" d="M13.7823 5.81379C14.4085 5.79054 15.0306 5.8172 15.6487 5.89378C16.4825 6.36481 16.687 7.03139 16.262 7.89353C15.7651 8.42924 15.1519 8.62479 14.4222 8.48012C14.4461 9.01898 14.4195 9.55225 14.3422 10.0799C14.0012 10.3957 13.7345 10.3423 13.5423 9.91994C13.5067 8.67567 13.5067 7.43134 13.5423 6.18707C13.5706 6.02256 13.6506 5.89815 13.7823 5.81379ZM14.4222 6.66701C14.4222 6.98697 14.4222 7.30693 14.4222 7.62689C14.7295 7.64561 15.0316 7.61895 15.3287 7.5469C15.4051 7.52211 15.4672 7.47763 15.5154 7.41359C15.6683 7.09576 15.5883 6.85579 15.2754 6.69368C14.9916 6.66707 14.7072 6.65816 14.4222 6.66701Z" fill="url(#paint6_linear_2025_1090)"/>
<defs>
<linearGradient id="paint0_linear_2025_1090" x1="0.0486207" y1="-9.36907e-07" x2="29.4864" y2="13.0505" gradientUnits="userSpaceOnUse">
<stop offset="0.11" stop-color="#60D7AD"/>
<stop offset="0.76" stop-color="#213C3A"/>
</linearGradient>
<linearGradient id="paint1_linear_2025_1090" x1="4.94413" y1="5.8125" x2="9.2919" y2="7.21969" gradientUnits="userSpaceOnUse">
<stop offset="0.11" stop-color="#60D7AD"/>
<stop offset="0.76" stop-color="#213C3A"/>
</linearGradient>
<linearGradient id="paint2_linear_2025_1090" x1="6.79618" y1="11.6016" x2="7.28163" y2="14.3401" gradientUnits="userSpaceOnUse">
<stop offset="0.11" stop-color="#60D7AD"/>
<stop offset="0.76" stop-color="#213C3A"/>
</linearGradient>
<linearGradient id="paint3_linear_2025_1090" x1="8.27399" y1="13.2012" x2="8.92387" y2="15.8674" gradientUnits="userSpaceOnUse">
<stop offset="0.11" stop-color="#60D7AD"/>
<stop offset="0.76" stop-color="#213C3A"/>
</linearGradient>
<linearGradient id="paint4_linear_2025_1090" x1="17.375" y1="5.75684" x2="21.2702" y2="6.84625" gradientUnits="userSpaceOnUse">
<stop offset="0.11" stop-color="#60D7AD"/>
<stop offset="0.76" stop-color="#213C3A"/>
</linearGradient>
<linearGradient id="paint5_linear_2025_1090" x1="9.20865" y1="5.73535" x2="13.6669" y2="7.19353" gradientUnits="userSpaceOnUse">
<stop offset="0.11" stop-color="#60D7AD"/>
<stop offset="0.76" stop-color="#213C3A"/>
</linearGradient>
<linearGradient id="paint6_linear_2025_1090" x1="13.4801" y1="5.80566" x2="17.3948" y2="6.92404" gradientUnits="userSpaceOnUse">
<stop offset="0.11" stop-color="#60D7AD"/>
<stop offset="0.76" stop-color="#213C3A"/>
</linearGradient>
</defs>
</svg>
