<svg width="30" height="23" viewBox="0 0 30 23" fill="none" xmlns="http://www.w3.org/2000/svg">
<path opacity="0.936" fill-rule="evenodd" clip-rule="evenodd" d="M8.04929 0.00442671C9.74205 -0.0295915 10.4706 0.788779 10.2349 2.45953C9.99008 3.04373 9.57092 3.44295 8.97744 3.65714C8.9475 6.13213 8.9375 8.60717 8.9475 11.0823C9.12822 11.0725 9.30786 11.0825 9.48642 11.1123C9.57211 11.1401 9.64193 11.1901 9.69601 11.262C9.7499 13.2368 10.5783 14.7837 12.1811 15.9027C13.6311 16.7371 15.148 16.8768 16.732 16.3219C18.4044 15.6034 19.4523 14.3559 19.8757 12.5793C19.9225 12.1373 19.9824 11.6981 20.0553 11.262C20.1094 11.1901 20.1792 11.1401 20.2649 11.1123C20.4435 11.0825 20.6231 11.0725 20.8039 11.0823C20.8139 8.60717 20.8039 6.13213 20.7739 3.65714C19.6149 3.15528 19.2156 2.29701 19.5763 1.08228C20.1026 0.147841 20.891 -0.181503 21.9416 0.0942476C22.9471 0.578502 23.3163 1.36693 23.0494 2.45953C22.9381 2.73187 22.7884 2.98139 22.6003 3.20804C22.3657 3.38031 22.1161 3.53002 21.8518 3.65714C21.8218 6.13213 21.8118 8.60717 21.8218 11.0823C22.3608 11.0823 22.8997 11.0823 23.4386 11.0823C23.4286 9.08622 23.4386 7.09022 23.4685 5.09428C23.544 4.91895 23.6738 4.80919 23.8578 4.76493C24.616 4.73499 25.3745 4.72499 26.1332 4.73499C26.4958 3.72583 27.2144 3.29672 28.2889 3.44756C29.4217 3.80349 29.8909 4.57194 29.6961 5.75296C29.3456 6.76147 28.637 7.21058 27.5704 7.10028C26.8284 6.93722 26.3295 6.49806 26.0733 5.7829C25.5348 5.75296 24.9959 5.74302 24.4566 5.75296C24.4566 7.52944 24.4566 9.30586 24.4566 11.0823C24.9759 11.0724 25.4949 11.0823 26.0135 11.1123C26.0992 11.1401 26.169 11.1901 26.223 11.262C26.3187 11.9163 26.3387 12.575 26.2829 13.238C26.2359 13.345 26.1661 13.4348 26.0733 13.5075C25.4889 13.7018 24.93 13.9413 24.3967 14.2261C24.1851 15.0385 23.8658 15.807 23.4386 16.5315C23.6739 17.0479 23.9035 17.5669 24.1272 18.0884C24.1724 18.2562 24.1525 18.4159 24.0673 18.5674C23.3171 19.3377 22.5487 20.0862 21.7619 20.8129C21.5567 20.8549 21.357 20.835 21.1631 20.753C20.7095 20.5511 20.2604 20.3415 19.8158 20.1243C19.0754 20.5692 18.287 20.9086 17.4505 21.1423C17.2196 21.746 16.9601 22.3349 16.6721 22.9087C16.079 22.9772 15.4802 23.0071 14.8757 22.9986C14.2712 23.0071 13.6724 22.9772 13.0793 22.9087C12.7913 22.3349 12.5318 21.746 12.3008 21.1423C11.4644 20.9086 10.676 20.5692 9.93553 20.1243C9.49097 20.3415 9.04187 20.5511 8.58821 20.753C8.39432 20.835 8.19468 20.8549 7.98941 20.8129C7.2027 20.0862 6.43425 19.3377 5.68401 18.5674C5.59886 18.4159 5.57892 18.2562 5.62413 18.0884C5.84784 17.5669 6.07742 17.0479 6.31275 16.5315C5.88796 15.7439 5.52871 14.9355 5.2349 14.1063C4.71594 13.9067 4.19697 13.7071 3.67801 13.5075C3.58526 13.4348 3.5154 13.345 3.46843 13.238C3.41132 12.5735 3.43128 11.9148 3.52831 11.262C3.58235 11.1901 3.65221 11.1401 3.73789 11.1123C4.25647 11.0823 4.77543 11.0724 5.29478 11.0823C5.29478 9.30586 5.29478 7.52944 5.29478 5.75296C4.75549 5.74302 4.21656 5.75296 3.67801 5.7829C3.09266 7.04938 2.15454 7.40866 0.86362 6.86075C0.0287055 6.23153 -0.200836 5.42314 0.174993 4.43559C0.764679 3.48181 1.59303 3.19241 2.66004 3.56732C3.14707 3.82427 3.46643 4.21349 3.61813 4.73499C4.37688 4.72499 5.13536 4.73499 5.89359 4.76493C6.0776 4.80919 6.20736 4.91895 6.28281 5.09428C6.31275 7.09022 6.32275 9.08622 6.31275 11.0823C6.85168 11.0823 7.3906 11.0823 7.92953 11.0823C7.93953 8.60717 7.92953 6.13213 7.89959 3.65714C6.75653 3.14349 6.37724 2.28522 6.76186 1.08228C7.02557 0.517471 7.45468 0.158188 8.04929 0.00442671ZM8.22893 1.0224C9.13942 1.04404 9.44882 1.48316 9.15708 2.33977C8.56139 2.86923 8.06234 2.78941 7.66007 2.10025C7.58246 1.59669 7.77204 1.23741 8.22893 1.0224ZM21.0434 1.0224C21.9565 1.04623 22.2658 1.48535 21.9715 2.33977C21.5124 2.81881 21.0534 2.81881 20.5943 2.33977C20.3327 1.75723 20.4824 1.31811 21.0434 1.0224ZM1.64207 4.43559C2.20365 4.3717 2.55295 4.61122 2.68998 5.15416C2.65664 5.81518 2.30733 6.12458 1.64207 6.08231C0.98877 5.73931 0.869009 5.26027 1.28278 4.64517C1.39847 4.55781 1.51823 4.48799 1.64207 4.43559ZM27.6901 4.43559C28.1567 4.37493 28.4861 4.55457 28.6782 4.97452C28.814 5.51134 28.6243 5.88057 28.1093 6.08231C27.5071 6.12003 27.1478 5.84063 27.0314 5.24398C27.0928 4.83433 27.3123 4.56487 27.6901 4.43559ZM4.45646 12.1003C5.89359 12.1003 7.33072 12.1003 8.76786 12.1003C9.10001 14.6179 10.4373 16.3645 12.7799 17.3399C15.4714 18.1617 17.7568 17.5329 19.6362 15.4536C20.3992 14.4659 20.8483 13.3481 20.9835 12.1003C22.4206 12.1003 23.8578 12.1003 25.2949 12.1003C25.3122 12.3162 25.2923 12.5258 25.235 12.7291C24.756 12.9087 24.2769 13.0883 23.7979 13.268C23.6681 13.3179 23.5783 13.4077 23.5284 13.5374C23.4008 13.9803 23.2611 14.4194 23.1093 14.8548C22.8496 15.4038 22.6001 15.9527 22.3608 16.5015C22.5461 17.0523 22.7657 17.5912 23.0194 18.1183C22.543 18.6547 22.044 19.1737 21.5224 19.6752C21.4426 19.7151 21.3627 19.7151 21.2829 19.6752C20.8308 19.4591 20.3717 19.2595 19.9056 19.0764C19.8058 19.0365 19.7061 19.0365 19.6062 19.0764C18.7071 19.6157 17.749 20.0149 16.732 20.274C16.4528 20.8027 16.2133 21.3516 16.0134 21.9207C15.2549 22.0005 14.4965 22.0005 13.7379 21.9207C13.5517 21.4883 13.382 21.0491 13.229 20.6033C13.1815 20.4784 13.1117 20.3686 13.0194 20.274C12.0024 20.0149 11.0443 19.6157 10.1451 19.0764C10.0453 19.0365 9.94553 19.0365 9.84571 19.0764C9.37966 19.2595 8.92055 19.4591 8.46845 19.6752C8.38863 19.7151 8.30875 19.7151 8.22893 19.6752C7.70737 19.1737 7.20839 18.6547 6.73192 18.1183C6.98563 17.5912 7.20521 17.0523 7.3906 16.5015C7.15126 15.9527 6.9018 15.4038 6.6421 14.8548C6.4903 14.4194 6.3506 13.9803 6.22293 13.5374C6.17305 13.4077 6.08323 13.3179 5.95347 13.268C5.47442 13.0883 4.99538 12.9087 4.51634 12.7291C4.4591 12.5258 4.43914 12.3162 4.45646 12.1003Z" fill="url(#paint0_linear_1948_1304)"/>
<path opacity="0.94" fill-rule="evenodd" clip-rule="evenodd" d="M13.6152 6.27185C14.4993 6.24388 15.3775 6.27382 16.25 6.36167C16.3933 6.47856 16.4832 6.62826 16.5194 6.81077C16.5494 7.34934 16.5593 7.88826 16.5494 8.42755C17.0687 8.41761 17.5877 8.42755 18.1063 8.45749C18.4485 8.5003 18.6581 8.68995 18.735 9.02635C18.7903 9.82816 18.7704 10.6265 18.6751 11.4216C18.5853 11.5114 18.4955 11.6012 18.4057 11.691C17.7917 11.7764 17.1729 11.8064 16.5494 11.7809C16.5749 12.4043 16.5449 13.0231 16.4596 13.6372C16.3421 13.7949 16.1924 13.9048 16.0105 13.9665C15.2519 14.0064 14.4935 14.0064 13.735 13.9665C13.553 13.9048 13.4033 13.7949 13.2859 13.6372C13.2005 13.0231 13.1706 12.4043 13.1961 11.7809C12.5726 11.8064 11.9538 11.7764 11.3398 11.691C11.1549 11.5667 11.0451 11.3971 11.0104 11.1821C10.9705 10.4635 10.9705 9.74492 11.0104 9.02635C11.0874 8.68995 11.297 8.5003 11.6392 8.45749C12.1577 8.42755 12.6767 8.41761 13.1961 8.42755C13.1861 7.88826 13.1961 7.34934 13.226 6.81077C13.2783 6.56975 13.408 6.39011 13.6152 6.27185ZM14.214 7.28982C14.224 7.92886 14.214 8.56761 14.1841 9.206C14.1142 9.27588 14.0444 9.3457 13.9745 9.41558C13.3161 9.44552 12.6574 9.45552 11.9985 9.44552C11.9985 9.88462 11.9985 10.3238 11.9985 10.7629C12.6375 10.7529 13.2762 10.7629 13.9146 10.7928C14.0003 10.8207 14.0701 10.8706 14.1242 10.9425C14.2114 11.6151 14.2413 12.2937 14.214 12.9785C14.6531 12.9785 15.0923 12.9785 15.5314 12.9785C15.5214 12.3394 15.5314 11.7007 15.5613 11.0623C15.5892 10.9766 15.6391 10.9068 15.7111 10.8527C16.3836 10.7655 17.0622 10.7356 17.747 10.7629C17.747 10.3238 17.747 9.88462 17.747 9.44552C17.088 9.45552 16.4293 9.44552 15.7709 9.41558C15.701 9.3457 15.6312 9.27588 15.5613 9.206C15.5314 8.56761 15.5214 7.92886 15.5314 7.28982C15.0923 7.28982 14.6531 7.28982 14.214 7.28982Z" fill="url(#paint1_linear_1948_1304)"/>
<defs>
<linearGradient id="paint0_linear_1948_1304" x1="-0.356248" y1="-8.97869e-07" x2="32.0553" y2="18.0986" gradientUnits="userSpaceOnUse">
<stop offset="0.11" stop-color="#60D7AD"/>
<stop offset="0.76" stop-color="#213C3A"/>
</linearGradient>
<linearGradient id="paint1_linear_1948_1304" x1="10.8872" y1="6.26172" x2="20.2487" y2="10.3309" gradientUnits="userSpaceOnUse">
<stop offset="0.11" stop-color="#60D7AD"/>
<stop offset="0.76" stop-color="#213C3A"/>
</linearGradient>
</defs>
</svg>
