<svg width="20" height="24" viewBox="0 0 20 24" fill="none" xmlns="http://www.w3.org/2000/svg">
<path opacity="0.922" fill-rule="evenodd" clip-rule="evenodd" d="M12.9089 0C13.2243 0 13.5397 0 13.8551 0C16.5668 0.353093 18.3518 1.8298 19.2099 4.43011C19.8136 7.29437 18.9176 9.55243 16.5218 11.2043C14.6045 12.2631 12.6475 12.3419 10.6508 11.4409C9.91347 11.6377 9.17515 11.8313 8.43575 12.0215C8.06495 12.0639 7.92874 11.899 8.02715 11.5269C8.1964 10.9116 8.36126 10.2951 8.52177 9.67742C7.19326 7.69277 6.99971 5.59957 7.94113 3.39785C9.00633 1.40613 10.6622 0.273512 12.9089 0ZM12.9089 0.645161C15.3435 0.57514 17.1285 1.6074 18.2637 3.74194C19.1548 5.90727 18.8538 7.88576 17.3605 9.67742C15.825 11.2262 13.9971 11.7351 11.8766 11.2043C11.4747 11.0714 11.0804 10.9208 10.6938 10.7527C10.06 10.9183 9.42917 11.0903 8.80134 11.2688C8.92736 10.7035 9.06358 10.1372 9.20994 9.56989C9.12809 9.34211 9.00624 9.13424 8.84435 8.94624C7.75859 7.07114 7.72994 5.17867 8.75833 3.26882C9.73029 1.7468 11.1138 0.872245 12.9089 0.645161Z" fill="url(#paint0_linear_1948_1305)"/>
<path opacity="0.931" fill-rule="evenodd" clip-rule="evenodd" d="M12.6523 23.9997C9.38344 23.9997 6.11463 23.9997 2.84581 23.9997C1.71045 23.7857 1.01511 23.1119 0.759788 21.9782C0.731112 16.2864 0.731112 8.61617 0.759788 2.92443C1.00281 1.90723 1.62646 1.2549 2.63076 0.967437C4.52198 0.897368 6.41445 0.883033 8.30818 0.924426C8.53136 1.04973 8.58155 1.22894 8.45871 1.46206C8.42645 1.48898 8.39058 1.51048 8.35119 1.52658C6.55906 1.54091 4.76697 1.55525 2.97484 1.56959C2.0419 1.73549 1.51144 2.28746 1.38344 3.2255C3.18995 3.21833 4.99639 3.2255 6.8028 3.24701C7.07071 3.4264 7.08504 3.62711 6.84581 3.84916C5.02508 3.87066 3.20429 3.87783 1.38344 3.87066C1.38344 8.7452 1.38344 15.5983 1.38344 20.4728C5.62719 20.4728 9.87088 20.4728 14.1146 20.4728C14.0939 18.7784 14.1154 15.1082 14.1791 13.4191C14.3856 13.2363 14.572 13.2506 14.7383 13.4621C14.767 15.6413 14.767 19.799 14.7383 21.9782C14.483 23.1119 13.7876 23.7857 12.6523 23.9997ZM1.38344 21.118C5.62719 21.118 9.87088 21.118 14.1146 21.118C14.2249 22.3038 13.7088 23.0421 12.5662 23.333C9.35476 23.3617 6.14331 23.3617 2.93183 23.333C1.7893 23.0421 1.27317 22.3038 1.38344 21.118Z" fill="url(#paint1_linear_1948_1305)"/>
<path opacity="0.919" fill-rule="evenodd" clip-rule="evenodd" d="M4.84568 7.59931C5.41738 7.54464 5.79729 7.78834 5.98547 8.33049C6.20831 8.95673 6.38753 9.59471 6.5231 10.2445C6.48207 10.7996 6.23833 11.2441 5.79192 11.5778C6.4299 12.8466 7.38332 13.8 8.65213 14.438C8.98013 13.9981 9.41738 13.7543 9.96396 13.7068C10.7497 13.8612 11.5095 14.0978 12.2435 14.4165C12.6382 14.7695 12.7314 15.1925 12.5231 15.6853C11.8405 17.0482 10.758 17.5572 9.27579 17.2122C6.90065 16.4708 5.08706 15.0299 3.83493 12.8896C3.32783 12.0206 3.00523 11.0887 2.86719 10.0939C3.00175 8.84155 3.66125 8.01002 4.84568 7.59931ZM4.9317 8.24447C5.12043 8.22051 5.25665 8.29221 5.34031 8.45952C5.54134 9.05548 5.72056 9.65763 5.87794 10.266C5.85407 10.4188 5.80392 10.5622 5.7274 10.6961C5.51089 10.8982 5.3102 11.1132 5.12525 11.3412C5.09656 11.4416 5.09656 11.542 5.12525 11.6423C5.82061 13.2552 6.97471 14.4093 8.58762 15.1047C8.72241 15.1387 8.85145 15.1243 8.97471 15.0617C9.16108 14.8753 9.34749 14.6889 9.53385 14.5025C9.66775 14.426 9.8111 14.3759 9.96396 14.352C10.6252 14.5127 11.2703 14.7206 11.8994 14.9757C11.9518 15.0375 11.9805 15.1092 11.9855 15.1907C11.6877 16.0852 11.0712 16.5941 10.136 16.7176C7.29046 16.0652 5.24745 14.4164 4.00697 11.7714C3.76809 11.2339 3.60323 10.6748 3.51235 10.0939C3.64689 9.21428 4.12 8.5978 4.9317 8.24447Z" fill="url(#paint2_linear_1948_1305)"/>
<path opacity="0.9" fill-rule="evenodd" clip-rule="evenodd" d="M7.1055 21.8738C7.53587 21.8666 7.96597 21.8738 8.39582 21.8953C8.51475 22.0241 8.55058 22.1746 8.50335 22.3469C8.44662 22.4324 8.36778 22.4825 8.26679 22.4974C7.87643 22.5367 7.48933 22.5224 7.1055 22.4544C6.93879 22.264 6.93879 22.0705 7.1055 21.8738Z" fill="url(#paint3_linear_1948_1305)"/>
<path opacity="0.932" fill-rule="evenodd" clip-rule="evenodd" d="M12.2641 2.52373C13.0556 2.50392 13.8441 2.52542 14.6297 2.58824C14.6813 2.62706 14.7172 2.67724 14.7372 2.73878C14.7587 3.39812 14.7659 4.05762 14.7587 4.71727C15.451 4.69706 16.1392 4.71856 16.8232 4.78179C16.8501 4.81405 16.8717 4.84992 16.8877 4.88932C16.9164 5.67783 16.9164 6.46639 16.8877 7.25491C16.8375 7.3051 16.7874 7.35525 16.7372 7.40545C16.0778 7.42695 15.4184 7.43413 14.7587 7.42695C14.7789 8.10493 14.7574 8.77874 14.6942 9.44846C14.6584 9.48428 14.6225 9.52016 14.5867 9.55598C13.7838 9.58467 12.9809 9.58467 12.1781 9.55598C12.1422 9.52016 12.1064 9.48428 12.0705 9.44846C12.0074 8.77874 11.9858 8.10493 12.006 7.42695C11.328 7.44712 10.6542 7.42562 9.98451 7.36244C9.93286 7.3236 9.89698 7.27345 9.87698 7.2119C9.8483 6.4377 9.8483 5.66351 9.87698 4.88932C9.89307 4.84992 9.91458 4.81405 9.9415 4.78179C10.6255 4.71856 11.3137 4.69706 12.006 4.71727C11.9988 4.07195 12.006 3.42679 12.0275 2.78179C12.0588 2.64455 12.1377 2.55853 12.2641 2.52373ZM12.6512 3.16889C12.6584 3.84287 12.6512 4.51672 12.6297 5.19039C12.5729 5.27586 12.4941 5.32605 12.3931 5.34093C11.7624 5.36244 11.1316 5.36962 10.5006 5.36244C10.5006 5.83555 10.5006 6.30867 10.5006 6.78179C11.1603 6.77461 11.8198 6.78179 12.4791 6.8033C12.5221 6.83912 12.5652 6.87499 12.6082 6.91082C12.6505 7.58261 12.6649 8.25641 12.6512 8.93233C13.1386 8.93233 13.6261 8.93233 14.1135 8.93233C14.1064 8.27267 14.1135 7.61319 14.135 6.95383C14.1709 6.91801 14.2067 6.88213 14.2426 6.84631C14.9123 6.78312 15.5861 6.76162 16.2641 6.78179C16.2641 6.30867 16.2641 5.83555 16.2641 5.36244C15.6474 5.36962 15.0309 5.36244 14.4146 5.34093C14.321 5.33392 14.2422 5.29809 14.1781 5.2334C14.1148 4.54936 14.0933 3.86117 14.1135 3.16889C13.6261 3.16889 13.1386 3.16889 12.6512 3.16889Z" fill="url(#paint4_linear_1948_1305)"/>
<defs>
<linearGradient id="paint0_linear_1948_1305" x1="7.21128" y1="-4.70884e-07" x2="21.7248" y2="6.25457" gradientUnits="userSpaceOnUse">
<stop offset="0.11" stop-color="#60D7AD"/>
<stop offset="0.76" stop-color="#213C3A"/>
</linearGradient>
<linearGradient id="paint1_linear_1948_1305" x1="0.570315" y1="0.901366" x2="19.3277" y2="5.81875" gradientUnits="userSpaceOnUse">
<stop offset="0.11" stop-color="#60D7AD"/>
<stop offset="0.76" stop-color="#213C3A"/>
</linearGradient>
<linearGradient id="paint2_linear_1948_1305" x1="2.75023" y1="7.5918" x2="14.5005" y2="12.6866" gradientUnits="userSpaceOnUse">
<stop offset="0.11" stop-color="#60D7AD"/>
<stop offset="0.76" stop-color="#213C3A"/>
</linearGradient>
<linearGradient id="paint3_linear_1948_1305" x1="6.96198" y1="21.8711" x2="8.03403" y2="22.9737" gradientUnits="userSpaceOnUse">
<stop offset="0.11" stop-color="#60D7AD"/>
<stop offset="0.76" stop-color="#213C3A"/>
</linearGradient>
<linearGradient id="paint4_linear_1948_1305" x1="9.77097" y1="2.5166" x2="18.2732" y2="6.18471" gradientUnits="userSpaceOnUse">
<stop offset="0.11" stop-color="#60D7AD"/>
<stop offset="0.76" stop-color="#213C3A"/>
</linearGradient>
</defs>
</svg>
