<svg width="19" height="24" viewBox="0 0 19 24" fill="none" xmlns="http://www.w3.org/2000/svg">
<path opacity="0.958" fill-rule="evenodd" clip-rule="evenodd" d="M3.55365 0.00295226C7.45869 -0.00492047 11.3637 0.00295226 15.2687 0.0265714C16.0887 0.248225 16.5847 0.775718 16.7567 1.60905C16.7804 4.56928 16.7882 7.52952 16.7804 10.4898C16.5127 10.4898 16.245 10.4898 15.9773 10.4898C15.9773 8.28538 15.9773 6.08096 15.9773 3.87649C11.5999 3.87649 7.2225 3.87649 2.84507 3.87649C2.84507 6.08096 2.84507 8.28538 2.84507 10.4898C2.57737 10.4898 2.30972 10.4898 2.04202 10.4898C2.03413 7.51379 2.04202 4.53778 2.06564 1.56181C2.2664 0.754943 2.76241 0.235323 3.55365 0.00295226ZM3.7426 0.806003C7.52171 0.798128 11.3008 0.806003 15.0798 0.829622C15.5702 0.97359 15.8615 1.29638 15.9537 1.79801C15.9773 2.22286 15.9852 2.648 15.9773 3.07344C11.5999 3.07344 7.2225 3.07344 2.84507 3.07344C2.82603 2.56653 2.84965 2.06265 2.91593 1.56181C3.08141 1.18354 3.35695 0.9316 3.7426 0.806003Z" fill="url(#paint0_linear_1948_1306)"/>
<path opacity="0.879" fill-rule="evenodd" clip-rule="evenodd" d="M7.97266 1.58496C8.93322 1.58496 9.89362 1.58496 10.8542 1.58496C10.8542 1.86839 10.8542 2.15182 10.8542 2.43525C9.89362 2.43525 8.93322 2.43525 7.97266 2.43525C7.97266 2.15182 7.97266 1.86839 7.97266 1.58496Z" fill="url(#paint1_linear_1948_1306)"/>
<path opacity="0.937" fill-rule="evenodd" clip-rule="evenodd" d="M6.67331 6.94667C7.75653 6.8562 8.66984 7.2026 9.41313 7.98591C10.3878 6.99041 11.5372 6.71482 12.8615 7.15924C14.2768 7.85544 14.9303 8.99704 14.8219 10.584C14.7923 10.7893 14.7372 10.9861 14.6566 11.1745C15.8847 11.1981 17.1129 11.206 18.3412 11.1981C18.3412 11.4658 18.3412 11.7335 18.3412 12.0012C16.9869 11.9933 15.6328 12.0012 14.2787 12.0248C14.064 12.4151 13.8199 12.7851 13.5465 13.1349C12.3009 14.6088 10.9232 15.9472 9.41313 17.1501C7.79215 15.8677 6.33565 14.4191 5.04359 12.8042C4.86055 12.5564 4.69521 12.2966 4.54759 12.0248C3.16205 12.0012 1.77637 11.9933 0.390625 12.0012C0.390625 11.7335 0.390625 11.4658 0.390625 11.1981C1.65041 11.206 2.91008 11.1981 4.16969 11.1745C3.73816 9.65058 4.14753 8.40666 5.39788 7.44267C5.79667 7.19552 6.22181 7.03018 6.67331 6.94667ZM7.00398 7.74972C7.71482 7.75808 8.3053 8.02578 8.77542 8.55277C8.98865 8.88514 9.20122 9.2158 9.41313 9.54477C9.65291 9.05737 9.96785 8.62433 10.3579 8.24572C11.5128 7.51324 12.5599 7.64707 13.4992 8.64724C14.0639 9.44278 14.1663 10.2931 13.8063 11.1981C13.3022 11.1902 12.7983 11.1981 12.2947 11.2217C12.0184 11.5059 11.735 11.7814 11.4444 12.0484C11.1644 11.5354 10.8731 11.0316 10.5705 10.5368C10.1441 11.0182 9.7268 11.5063 9.31866 12.0012C8.7638 10.97 8.19694 9.94658 7.61808 8.93067C7.07508 9.67094 6.53972 10.4189 6.01198 11.1745C5.68169 11.1981 5.35102 11.206 5.01997 11.1981C4.54202 9.89471 4.87269 8.84758 6.01198 8.05677C6.32838 7.88746 6.65905 7.7851 7.00398 7.74972ZM7.5236 10.4895C8.0693 11.5019 8.62827 12.5097 9.20056 13.5128C9.60997 13.0089 10.0193 12.5051 10.4288 12.0012C10.6931 12.483 10.9686 12.9554 11.2554 13.4183C11.735 12.9624 12.2074 12.4978 12.6726 12.0248C12.8791 11.9857 13.0838 11.9936 13.2867 12.0484C12.1751 13.5773 10.8761 14.9315 9.38951 16.1109C7.93278 14.9142 6.64951 13.56 5.5396 12.0484C5.85335 12.0091 6.16829 11.9855 6.48436 11.9775C6.82278 11.4742 7.16917 10.9782 7.5236 10.4895Z" fill="url(#paint2_linear_1948_1306)"/>
<path opacity="0.959" fill-rule="evenodd" clip-rule="evenodd" d="M2.04202 12.7568C2.30972 12.7568 2.57737 12.7568 2.84507 12.7568C2.84507 15.2132 2.84507 17.6696 2.84507 20.126C7.2225 20.126 11.5999 20.126 15.9773 20.126C15.9773 17.6696 15.9773 15.2132 15.9773 12.7568C16.245 12.7568 16.5127 12.7568 16.7804 12.7568C16.7882 15.9691 16.7804 19.1813 16.7567 22.3934C16.5847 23.2268 16.0887 23.7543 15.2687 23.9759C11.3637 24.0074 7.45869 24.0074 3.55365 23.9759C2.75367 23.7586 2.25766 23.2468 2.06564 22.4407C2.04202 19.2127 2.03413 15.9848 2.04202 12.7568ZM2.84507 20.9291C7.2225 20.9291 11.5999 20.9291 15.9773 20.9291C15.9852 21.3545 15.9773 21.7796 15.9537 22.2045C15.8842 22.6504 15.6402 22.9575 15.2215 23.1256C13.2875 23.1803 11.3507 23.204 9.41119 23.1965C7.47168 23.204 5.53491 23.1803 3.60088 23.1256C3.27811 22.9918 3.04976 22.7635 2.91593 22.4407C2.84965 21.9399 2.82603 21.436 2.84507 20.9291Z" fill="url(#paint3_linear_1948_1306)"/>
<path opacity="0.879" fill-rule="evenodd" clip-rule="evenodd" d="M8.96484 21.6621C9.27976 21.6621 9.5947 21.6621 9.90961 21.6621C9.90961 21.9455 9.90961 22.229 9.90961 22.5124C9.5947 22.5124 9.27976 22.5124 8.96484 22.5124C8.96484 22.229 8.96484 21.9455 8.96484 21.6621Z" fill="url(#paint4_linear_1948_1306)"/>
<defs>
<linearGradient id="paint0_linear_1948_1306" x1="1.86244" y1="-4.095e-07" x2="17.2664" y2="9.35045" gradientUnits="userSpaceOnUse">
<stop offset="0.11" stop-color="#60D7AD"/>
<stop offset="0.76" stop-color="#213C3A"/>
</linearGradient>
<linearGradient id="paint1_linear_1948_1306" x1="7.93814" y1="1.58496" x2="9.24934" y2="3.50395" gradientUnits="userSpaceOnUse">
<stop offset="0.11" stop-color="#60D7AD"/>
<stop offset="0.76" stop-color="#213C3A"/>
</linearGradient>
<linearGradient id="paint2_linear_1948_1306" x1="0.175593" y1="6.93262" x2="16.4634" y2="19.2904" gradientUnits="userSpaceOnUse">
<stop offset="0.11" stop-color="#60D7AD"/>
<stop offset="0.76" stop-color="#213C3A"/>
</linearGradient>
<linearGradient id="paint3_linear_1948_1306" x1="1.86244" y1="12.7568" x2="17.8227" y2="21.7962" gradientUnits="userSpaceOnUse">
<stop offset="0.11" stop-color="#60D7AD"/>
<stop offset="0.76" stop-color="#213C3A"/>
</linearGradient>
<linearGradient id="paint4_linear_1948_1306" x1="8.95353" y1="21.6621" x2="10.0515" y2="22.1889" gradientUnits="userSpaceOnUse">
<stop offset="0.11" stop-color="#60D7AD"/>
<stop offset="0.76" stop-color="#213C3A"/>
</linearGradient>
</defs>
</svg>
