<svg width="21" height="24" viewBox="0 0 21 24" fill="none" xmlns="http://www.w3.org/2000/svg">
<path opacity="0.948" fill-rule="evenodd" clip-rule="evenodd" d="M9.70312 0C10.0156 0 10.3281 0 10.6406 0C11.9436 0.480659 12.4358 1.40253 12.1172 2.76562C11.9442 3.21352 11.6551 3.56508 11.25 3.82031C11.0168 3.95793 10.7668 4.04387 10.5 4.07812C10.5078 6.59381 10.5 10.0938 10.4766 12.6094C10.3368 12.8061 10.1572 12.8451 9.9375 12.7266C9.90816 12.6914 9.88472 12.6523 9.86719 12.6094C9.84375 10.0938 9.83592 6.59381 9.84375 4.07812C8.74552 3.84341 8.16741 3.16372 8.10938 2.03906C8.17823 0.994055 8.70952 0.314367 9.70312 0ZM10.0312 0.65625C11.0843 0.732544 11.5765 1.29504 11.5078 2.34375C11.1445 3.29837 10.4804 3.60306 9.51562 3.25781C8.75719 2.71406 8.60873 2.03437 9.07031 1.21875C9.32784 0.914536 9.64814 0.727036 10.0312 0.65625Z" fill="url(#paint0_linear_2025_1091)"/>
<path opacity="0.922" fill-rule="evenodd" clip-rule="evenodd" d="M0.187807 1.92157C1.78303 1.90045 3.37676 1.92389 4.96906 1.99188C5.91274 2.1865 6.65496 2.67868 7.19562 3.46845C7.78554 4.41377 8.36365 5.36688 8.92999 6.32782C8.99262 6.79676 8.80512 6.93738 8.36749 6.7497C7.75812 5.74971 7.14874 4.74968 6.53937 3.7497C6.05131 3.13452 5.41849 2.76733 4.64093 2.64813C3.31292 2.6247 1.98477 2.61689 0.656557 2.6247C0.647435 2.83166 0.670872 3.03479 0.726869 3.23407C0.783775 3.30667 0.854088 3.36136 0.937807 3.39813C1.96906 3.41376 3.00031 3.42939 4.03156 3.44501C4.20556 3.56281 4.26021 3.72687 4.19562 3.9372C4.15657 3.97626 4.11748 4.01532 4.07843 4.05438C3.34676 4.12174 2.61238 4.14518 1.87531 4.1247C1.86756 4.29728 1.87537 4.46915 1.89874 4.64032C1.92566 4.7337 1.98035 4.80401 2.06281 4.85126C3.09406 4.86687 4.12531 4.88252 5.15656 4.89813C5.41713 4.96648 5.50306 5.13054 5.41437 5.39032C5.39093 5.47624 5.33623 5.53095 5.25031 5.55438C4.50045 5.57782 3.75045 5.58565 3.00031 5.57782C2.99281 5.81529 3.01624 6.04967 3.07062 6.28095C3.10967 6.35126 3.16437 6.40596 3.23468 6.44501C4.31693 6.44595 5.39506 6.47721 6.46906 6.53876C6.67413 6.77881 6.64292 6.98196 6.37531 7.14813C5.29718 7.1794 4.21906 7.1794 3.14093 7.14813C2.78329 7.07187 2.5411 6.86093 2.41437 6.51532C2.3498 6.20707 2.32637 5.89456 2.34406 5.57782C1.71653 5.63004 1.33372 5.34879 1.19562 4.73407C1.17223 4.53154 1.16441 4.32842 1.17218 4.1247C0.653238 4.15073 0.286052 3.93198 0.0706191 3.46845C-0.00375741 3.01884 -0.0193855 2.56571 0.0237442 2.10907C0.0560738 2.02234 0.110763 1.95984 0.187807 1.92157Z" fill="url(#paint1_linear_2025_1091)"/>
<path opacity="0.922" fill-rule="evenodd" clip-rule="evenodd" d="M15.7031 1.92149C17.2229 1.89874 18.7385 1.92218 20.25 1.9918C20.2793 2.02698 20.3028 2.06605 20.3203 2.10899C20.3516 2.51524 20.3516 2.92149 20.3203 3.32774C20.1387 3.87572 19.7558 4.14134 19.1719 4.12462C19.2508 4.63053 19.1101 5.06024 18.75 5.41368C18.5207 5.55707 18.2707 5.61173 18 5.57774C18.0526 6.00829 17.9823 6.41455 17.7891 6.79649C17.6284 6.97312 17.433 7.0903 17.2031 7.14805C16.125 7.17932 15.0469 7.17932 13.9688 7.14805C13.7011 6.98188 13.6699 6.77873 13.875 6.53868C14.949 6.47713 16.0271 6.44587 17.1094 6.44493C17.1797 6.40588 17.2344 6.35118 17.2734 6.28087C17.3278 6.04959 17.3512 5.81521 17.3438 5.57774C16.5936 5.58557 15.8436 5.57774 15.0938 5.5543C14.9198 5.43651 14.8651 5.27245 14.9297 5.06212C14.9915 4.96898 15.0774 4.91427 15.1875 4.89805C16.2188 4.88245 17.25 4.86679 18.2812 4.85118C18.3637 4.80393 18.4184 4.73362 18.4453 4.64024C18.4687 4.46907 18.4765 4.2972 18.4688 4.12462C17.7317 4.1451 16.9973 4.12166 16.2656 4.0543C16.1069 3.89619 16.0835 3.7165 16.1953 3.51524C16.2305 3.48591 16.2696 3.46247 16.3125 3.44493C17.3438 3.42931 18.375 3.41368 19.4062 3.39805C19.49 3.36128 19.5603 3.30659 19.6172 3.23399C19.6732 3.03471 19.6966 2.83158 19.6875 2.62462C18.3593 2.61681 17.0311 2.62462 15.7031 2.64805C14.9244 2.76777 14.2916 3.13495 13.8047 3.74962C13.1953 4.7496 12.5859 5.74963 11.9766 6.74962C11.6537 6.92788 11.4428 6.84196 11.3438 6.4918C11.9847 5.35087 12.6644 4.23369 13.3828 3.14024C14.0128 2.45421 14.7863 2.04796 15.7031 1.92149Z" fill="url(#paint2_linear_2025_1091)"/>
<path opacity="0.918" fill-rule="evenodd" clip-rule="evenodd" d="M5.90494 7.73449C6.71091 7.65822 7.49218 7.7598 8.24869 8.03918C8.4324 8.11137 8.59646 8.21294 8.74088 8.34387C8.84752 8.65137 8.74594 8.82326 8.43619 8.85949C8.15166 8.77216 7.87041 8.67058 7.59244 8.5548C6.66048 8.28269 5.76985 8.37644 4.92057 8.83605C4.44662 9.20388 4.42318 9.60232 4.85026 10.0314C5.39166 10.5408 6.00887 10.9392 6.70182 11.2267C7.26432 11.4454 8.88159 12.3439 9.44409 12.5626C9.63314 13.0267 9.47686 13.2142 8.97534 13.1251C7.82597 12.779 5.70868 11.5837 4.73307 10.8986C4.34991 10.6097 4.07649 10.2425 3.91276 9.79699C3.76571 9.08327 4.00791 8.54421 4.63932 8.1798C5.04544 7.96901 5.46732 7.82055 5.90494 7.73449Z" fill="url(#paint3_linear_2025_1091)"/>
<path opacity="0.929" fill-rule="evenodd" clip-rule="evenodd" d="M13.1732 7.73397C13.9111 7.6727 14.6299 7.75863 15.3294 7.99178C15.7851 8.18219 16.1367 8.48688 16.3841 8.90584C16.5611 9.36545 16.5142 9.80298 16.2435 10.2183C15.6654 10.918 14.9544 11.4415 14.1107 11.7887C12.9436 12.2953 11.7405 12.6937 10.5013 12.984C10.5091 13.8903 10.5013 16.0622 10.4779 16.9683C10.2748 17.2183 10.0716 17.2183 9.86849 16.9683C9.84505 16.1247 9.83723 14.0154 9.84505 13.1715C9.04607 13.2889 8.35077 13.617 7.75912 14.1558C7.52957 14.5345 7.56084 14.8938 7.85287 15.234C8.18741 15.5844 9.61702 16.5375 10.0325 16.7809C10.126 17.1874 9.89395 17.2577 9.4723 17.1793C8.78887 16.824 7.2944 15.7381 6.96224 15.0465C6.8016 14.341 7.01254 13.7707 7.59505 13.3355C7.89398 13.1392 8.20649 12.9673 8.53255 12.8199C9.5909 12.5084 10.6534 12.2116 11.7201 11.9293C12.8843 11.597 13.9781 11.1126 15.0013 10.4762C15.4126 10.2216 15.6782 9.86219 15.7982 9.39803C15.6314 8.93477 15.3033 8.65352 14.8138 8.55428C13.8716 8.29788 12.9653 8.39163 12.0951 8.83553C11.681 8.92145 11.5169 8.75739 11.6029 8.34334C11.7889 8.18388 11.9998 8.06669 12.2357 7.99178C12.547 7.87839 12.8595 7.79247 13.1732 7.73397Z" fill="url(#paint4_linear_2025_1091)"/>
<path opacity="0.926" fill-rule="evenodd" clip-rule="evenodd" d="M10.267 12.6562C10.7978 12.7545 12.9462 13.4107 13.2436 13.875C13.5832 14.6302 13.4582 15.3021 12.8686 15.8906C12.1845 16.5023 11.3955 16.9241 10.5014 17.1562C10.5092 18.0314 10.5014 20.1251 10.4779 21C10.2748 21.25 10.0717 21.25 9.86857 21C9.84513 20.2189 9.8373 18.2189 9.84513 17.4375C9.37769 17.5853 8.94016 17.7962 8.53263 18.0703C7.95822 18.5523 7.91913 19.0758 8.41544 19.6406C8.66988 19.8952 9.6074 20.7233 9.91547 20.9062C10.0496 21.3172 9.73711 21.286 9.30609 21.2344C8.71767 20.9116 7.78015 20.0522 7.47794 19.4531C7.27479 18.828 7.38419 18.2655 7.80607 17.7656C8.20779 17.3886 8.66871 17.0996 9.18888 16.8984C10.0393 16.6254 10.8675 16.2973 11.6733 15.9141C12.1563 15.6499 12.5078 15.2671 12.7279 14.7656C12.7755 14.5166 12.713 14.2978 12.5404 14.1094C12.3196 13.9041 10.3509 13.3416 10.103 13.1719C10.0403 12.9549 10.095 12.783 10.267 12.6562Z" fill="url(#paint5_linear_2025_1091)"/>
<path opacity="0.932" fill-rule="evenodd" clip-rule="evenodd" d="M10.3588 24C10.2338 24 10.1088 24 9.9838 24C9.95465 23.9472 9.9156 23.9003 9.86662 23.8594C9.85879 23.1245 9.83535 22.3901 9.7963 21.6562C9.23643 21.8845 8.67393 22.1032 8.1088 22.3125C7.81762 22.2622 7.71604 22.0903 7.80412 21.7969C7.9468 21.6666 8.11087 21.5651 8.2963 21.4922C9.20601 21.1629 10.0966 20.7879 10.9682 20.3672C11.3442 20.1632 11.6801 19.9054 11.976 19.5938C12.3232 19.1889 12.3511 18.8203 12.0933 18.375C11.8565 18.1691 10.2158 17.5207 9.9838 17.3203C9.89357 17.0317 9.99515 16.8599 10.2885 16.8047C10.6949 16.9524 12.4137 17.6008 12.6791 17.9531C13.0816 18.5755 13.0816 19.2005 12.6791 19.8281C12.1028 20.5385 11.3841 21.0541 10.5229 21.375C10.5073 22.2031 10.4916 23.0312 10.476 23.8594C10.427 23.9003 10.388 23.9472 10.3588 24Z" fill="url(#paint6_linear_2025_1091)"/>
<path opacity="0.902" fill-rule="evenodd" clip-rule="evenodd" d="M10.1285 20.7704C10.5324 20.8837 12.0166 21.6535 12.3271 21.9432C12.4073 22.1279 12.3801 22.2979 12.2456 22.4529C12.1096 22.5132 11.9748 22.5093 11.8411 22.4411C11.611 22.2685 10.2461 21.5394 10.0003 21.3901C9.86128 21.146 9.90401 20.9394 10.1285 20.7704Z" fill="url(#paint7_linear_2025_1091)"/>
<defs>
<linearGradient id="paint0_linear_2025_1091" x1="8.06024" y1="-4.99428e-07" x2="13.8141" y2="0.796685" gradientUnits="userSpaceOnUse">
<stop offset="0.11" stop-color="#60D7AD"/>
<stop offset="0.76" stop-color="#213C3A"/>
</linearGradient>
<linearGradient id="paint1_linear_2025_1091" x1="-0.107115" y1="1.91406" x2="8.19698" y2="8.01337" gradientUnits="userSpaceOnUse">
<stop offset="0.11" stop-color="#60D7AD"/>
<stop offset="0.76" stop-color="#213C3A"/>
</linearGradient>
<linearGradient id="paint2_linear_2025_1091" x1="11.2359" y1="1.91309" x2="19.557" y2="8.06365" gradientUnits="userSpaceOnUse">
<stop offset="0.11" stop-color="#60D7AD"/>
<stop offset="0.76" stop-color="#213C3A"/>
</linearGradient>
<linearGradient id="paint3_linear_2025_1091" x1="3.8034" y1="7.70996" x2="10.5274" y2="10.7281" gradientUnits="userSpaceOnUse">
<stop offset="0.11" stop-color="#60D7AD"/>
<stop offset="0.76" stop-color="#213C3A"/>
</linearGradient>
<linearGradient id="paint4_linear_2025_1091" x1="6.79541" y1="7.71484" x2="18.3046" y2="12.7304" gradientUnits="userSpaceOnUse">
<stop offset="0.11" stop-color="#60D7AD"/>
<stop offset="0.76" stop-color="#213C3A"/>
</linearGradient>
<linearGradient id="paint5_linear_2025_1091" x1="7.30642" y1="12.6562" x2="15.2273" y2="15.0609" gradientUnits="userSpaceOnUse">
<stop offset="0.11" stop-color="#60D7AD"/>
<stop offset="0.76" stop-color="#213C3A"/>
</linearGradient>
<linearGradient id="paint6_linear_2025_1091" x1="7.71106" y1="16.8047" x2="14.4936" y2="18.9246" gradientUnits="userSpaceOnUse">
<stop offset="0.11" stop-color="#60D7AD"/>
<stop offset="0.76" stop-color="#213C3A"/>
</linearGradient>
<linearGradient id="paint7_linear_2025_1091" x1="9.96142" y1="20.7358" x2="11.6836" y2="22.9873" gradientUnits="userSpaceOnUse">
<stop offset="0.11" stop-color="#60D7AD"/>
<stop offset="0.76" stop-color="#213C3A"/>
</linearGradient>
</defs>
</svg>
