<svg width="27" height="24" viewBox="0 0 27 24" fill="none" xmlns="http://www.w3.org/2000/svg">
<path opacity="0.947" fill-rule="evenodd" clip-rule="evenodd" d="M2.64775 0.00336351C7.84883 -0.00560563 13.0499 0.00336351 18.2509 0.0302656C19.552 0.237314 20.35 0.981608 20.6452 2.26314C20.6721 4.84568 20.6811 7.42827 20.6721 10.0109C21.9291 10.2964 23.1846 10.5923 24.4384 10.8987C25.2715 11.2466 25.5853 11.8653 25.38 12.7549C25.1405 13.1917 24.8087 13.5414 24.3846 13.8041C24.8974 14.2989 25.3906 14.81 25.8642 15.3375C26.1425 15.9329 26.1067 16.5068 25.7566 17.0593C25.5145 17.3014 25.2724 17.5435 25.0302 17.7856C24.3409 18.2065 23.6772 18.1706 23.0395 17.678C22.618 17.2566 22.1965 16.8351 21.7751 16.4136C21.6063 16.6703 21.418 16.9124 21.2102 17.14C21.0442 17.2454 20.8738 17.344 20.699 17.4359C20.6811 18.8707 20.6631 20.3054 20.6452 21.7402C20.3567 22.9971 19.5766 23.7414 18.3047 23.9731C13.0678 24.009 7.83086 24.009 2.59394 23.9731C1.34624 23.7476 0.566084 23.0213 0.253466 21.794C0.217595 15.2658 0.217595 8.73754 0.253466 2.20933C0.58209 0.956815 1.38019 0.221496 2.64775 0.00336351ZM2.70155 0.918033C7.8668 0.909064 13.032 0.918033 18.1971 0.944935C18.984 1.12195 19.4951 1.59722 19.7305 2.37074C19.7574 2.89054 19.7664 3.41065 19.7574 3.93106C13.5341 3.93106 7.31079 3.93106 1.08743 3.93106C1.07848 3.53609 1.08745 3.14153 1.11433 2.74737C1.20745 1.75143 1.73653 1.14164 2.70155 0.918033ZM1.08743 4.84573C7.31079 4.84573 13.5341 4.84573 19.7574 4.84573C19.7664 6.4958 19.7574 8.14581 19.7305 9.79571C19.0561 9.55257 18.4642 9.67815 17.955 10.1723C17.7432 10.4401 17.6446 10.745 17.6591 11.087C17.6957 11.4486 17.7495 11.8073 17.8205 12.1631C14.6817 12.1577 11.5432 12.1487 8.40479 12.1362C8.1002 12.2341 7.98361 12.4403 8.05506 12.7549C8.09988 12.8715 8.18058 12.9522 8.29718 12.9971C11.5611 13.0442 14.8253 13.0711 18.0895 13.0778C18.342 14.2489 18.6199 15.4147 18.9235 16.575C19.0833 16.9411 19.3434 17.2101 19.7036 17.3821C19.7664 18.7986 19.7754 20.2154 19.7305 21.6326C19.4951 22.4061 18.984 22.8814 18.1971 23.0584C13.0319 23.0943 7.86674 23.0943 2.70155 23.0584C1.73087 22.8484 1.2018 22.2476 1.11433 21.256C1.08743 15.7859 1.07846 10.3158 1.08743 4.84573ZM18.8428 10.6028C20.6495 10.9378 22.4429 11.3413 24.2232 11.8134C24.5187 11.9824 24.5994 12.2245 24.4653 12.5397C24.1604 12.7908 23.8555 13.0419 23.5506 13.293C23.3713 13.6337 23.3713 13.9745 23.5506 14.3153C24.0528 14.8174 24.555 15.3196 25.0572 15.8218C25.1664 16.002 25.1843 16.1813 25.111 16.3598C24.8688 16.6019 24.6267 16.844 24.3846 17.0862C24.1873 17.1938 23.9901 17.1938 23.7928 17.0862C23.2513 16.5087 22.6774 15.9706 22.071 15.472C21.7876 15.4146 21.5186 15.4505 21.264 15.5796C21.0129 15.8846 20.7618 16.1894 20.5107 16.4943C20.2552 16.6166 20.031 16.5717 19.8382 16.3598C19.409 14.6791 18.9965 12.9932 18.6007 11.3022C18.5294 11.0147 18.6101 10.7816 18.8428 10.6028Z" fill="url(#paint0_linear_1941_1144)"/>
<path opacity="0.92" fill-rule="evenodd" clip-rule="evenodd" d="M6.57523 5.70626C7.06506 5.64912 7.27135 5.86433 7.19398 6.35191C6.65594 7.24866 6.1179 8.14536 5.57985 9.04211C5.12613 9.59721 4.5791 9.71375 3.93883 9.39184C3.50338 8.94155 3.09985 8.4663 2.72824 7.96603C2.56685 7.57143 2.69239 7.32033 3.10487 7.21277C3.22973 7.23478 3.34631 7.27965 3.45459 7.34728C3.744 7.73774 4.03992 8.1233 4.34236 8.50407C4.50377 8.71929 4.66519 8.71929 4.8266 8.50407C5.37115 7.53893 5.95406 6.60629 6.57523 5.70626Z" fill="url(#paint1_linear_1941_1144)"/>
<path opacity="0.935" fill-rule="evenodd" clip-rule="evenodd" d="M8.29883 6.62153C11.5989 6.61255 14.8989 6.62153 18.1988 6.64844C18.5705 6.96007 18.5525 7.24706 18.145 7.5093C14.9167 7.54519 11.6885 7.54519 8.46024 7.5093C8.06382 7.40686 7.94722 7.16474 8.11052 6.78295C8.17212 6.72183 8.23491 6.66802 8.29883 6.62153Z" fill="url(#paint2_linear_1941_1144)"/>
<path opacity="0.934" fill-rule="evenodd" clip-rule="evenodd" d="M8.29682 8.66548C11.0409 8.65649 13.7849 8.66548 16.5288 8.69238C16.753 8.74538 16.8606 8.88887 16.8517 9.12281C16.8571 9.32749 16.7674 9.47098 16.5826 9.55325C13.8386 9.58913 11.0946 9.58913 8.35062 9.55325C7.93832 9.27707 7.92041 8.98115 8.29682 8.66548Z" fill="url(#paint3_linear_1941_1144)"/>
<path opacity="0.934" fill-rule="evenodd" clip-rule="evenodd" d="M8.29837 14.2075C11.0604 14.1985 13.8223 14.2075 16.5842 14.2344C16.8591 14.4155 16.9219 14.6576 16.7725 14.9607C16.7239 15.0253 16.6612 15.0702 16.5842 15.0952C13.8581 15.1311 11.1321 15.1311 8.40598 15.0952C8.04765 14.9613 7.94902 14.7191 8.11006 14.3689C8.17166 14.3078 8.23445 14.254 8.29837 14.2075Z" fill="url(#paint4_linear_1941_1144)"/>
<path opacity="0.941" fill-rule="evenodd" clip-rule="evenodd" d="M8.3528 17.651C11.6355 17.629 14.9175 17.6559 18.1989 17.7317C18.4572 17.8969 18.5199 18.1211 18.3873 18.4042C18.3387 18.4689 18.2759 18.5137 18.1989 18.5387C14.899 18.5746 11.599 18.5746 8.299 18.5387C7.93012 18.2213 7.94803 17.9254 8.3528 17.651Z" fill="url(#paint5_linear_1941_1144)"/>
<path opacity="0.945" fill-rule="evenodd" clip-rule="evenodd" d="M8.45895 19.6953C11.1669 19.7341 13.875 19.761 16.5834 19.776C16.8583 19.9571 16.921 20.1992 16.7717 20.5024C16.6953 20.554 16.6146 20.5988 16.5296 20.6369C13.7853 20.6706 11.0413 20.6526 8.29754 20.5831C7.96142 20.3402 7.94351 20.0712 8.24373 19.776C8.32756 19.7647 8.39928 19.7378 8.45895 19.6953Z" fill="url(#paint6_linear_1941_1144)"/>
<path opacity="0.935" fill-rule="evenodd" clip-rule="evenodd" d="M3.73132 11.5717C4.48479 11.5627 5.23805 11.5717 5.99109 11.5986C6.50826 11.7391 6.8221 12.0709 6.93266 12.594C6.96855 13.2755 6.96855 13.957 6.93266 14.6386C6.79181 15.2278 6.42411 15.5776 5.82968 15.6877C3.24213 16.1668 2.24676 15.1176 2.84355 12.5402C2.98448 12.0677 3.28041 11.7449 3.73132 11.5717ZM3.94654 12.4864C3.89501 12.5651 3.83224 12.6368 3.75822 12.7016C3.70668 13.3524 3.72462 13.9981 3.81203 14.6386C3.87504 14.7135 3.95574 14.7584 4.05415 14.7731C4.61012 14.809 5.16612 14.809 5.72207 14.7731C5.8533 14.7314 5.95198 14.6507 6.018 14.531C6.06949 13.898 6.05152 13.2703 5.96419 12.6478C5.91937 12.603 5.8745 12.5581 5.82968 12.5133C5.20222 12.4864 4.57451 12.4774 3.94654 12.4864Z" fill="url(#paint7_linear_1941_1144)"/>
<path opacity="0.935" fill-rule="evenodd" clip-rule="evenodd" d="M4.0001 17.0589C4.68443 17.0375 5.36597 17.0644 6.04465 17.1396C6.52964 17.3018 6.82557 17.6336 6.93242 18.135C6.96831 18.8165 6.96831 19.498 6.93242 20.1795C6.78559 20.7927 6.39998 21.1424 5.77563 21.2287C5.18379 21.2646 4.59194 21.2646 4.0001 21.2287C3.39815 21.1467 3.01256 20.815 2.84331 20.2333C2.80744 19.5159 2.80744 18.7985 2.84331 18.0812C3.02168 17.4989 3.40728 17.1581 4.0001 17.0589ZM4.0539 17.9735C3.92934 18.0319 3.8307 18.1216 3.75798 18.2426C3.70644 18.8934 3.72438 19.539 3.81178 20.1795C3.88815 20.2312 3.96886 20.276 4.0539 20.314C4.64966 20.3641 5.24152 20.3461 5.82944 20.2602C5.91278 20.1949 5.97551 20.1142 6.01775 20.0181C6.06913 19.4031 6.05122 18.7933 5.96395 18.1888C5.89863 18.1054 5.81792 18.0427 5.72183 18.0004C5.16614 17.9735 4.61017 17.9646 4.0539 17.9735Z" fill="url(#paint8_linear_1941_1144)"/>
<defs>
<linearGradient id="paint0_linear_1941_1144" x1="-0.08277" y1="-9.36907e-07" x2="30.2801" y2="14.1084" gradientUnits="userSpaceOnUse">
<stop offset="0.11" stop-color="#60D7AD"/>
<stop offset="0.76" stop-color="#213C3A"/>
</linearGradient>
<linearGradient id="paint1_linear_1941_1144" x1="2.60566" y1="5.69727" x2="7.77822" y2="8.32218" gradientUnits="userSpaceOnUse">
<stop offset="0.11" stop-color="#60D7AD"/>
<stop offset="0.76" stop-color="#213C3A"/>
</linearGradient>
<linearGradient id="paint2_linear_1941_1144" x1="7.91417" y1="6.61816" x2="8.50914" y2="9.53609" gradientUnits="userSpaceOnUse">
<stop offset="0.11" stop-color="#60D7AD"/>
<stop offset="0.76" stop-color="#213C3A"/>
</linearGradient>
<linearGradient id="paint3_linear_1941_1144" x1="7.92163" y1="8.66211" x2="8.61359" y2="11.5347" gradientUnits="userSpaceOnUse">
<stop offset="0.11" stop-color="#60D7AD"/>
<stop offset="0.76" stop-color="#213C3A"/>
</linearGradient>
<linearGradient id="paint4_linear_1941_1144" x1="7.92955" y1="14.2041" x2="8.62211" y2="17.0764" gradientUnits="userSpaceOnUse">
<stop offset="0.11" stop-color="#60D7AD"/>
<stop offset="0.76" stop-color="#213C3A"/>
</linearGradient>
<linearGradient id="paint5_linear_1941_1144" x1="7.91034" y1="17.6436" x2="8.51068" y2="20.5732" gradientUnits="userSpaceOnUse">
<stop offset="0.11" stop-color="#60D7AD"/>
<stop offset="0.76" stop-color="#213C3A"/>
</linearGradient>
<linearGradient id="paint6_linear_1941_1144" x1="7.9256" y1="19.6953" x2="8.67592" y2="22.6782" gradientUnits="userSpaceOnUse">
<stop offset="0.11" stop-color="#60D7AD"/>
<stop offset="0.76" stop-color="#213C3A"/>
</linearGradient>
<linearGradient id="paint7_linear_1941_1144" x1="2.62446" y1="11.5684" x2="7.76639" y2="13.8161" gradientUnits="userSpaceOnUse">
<stop offset="0.11" stop-color="#60D7AD"/>
<stop offset="0.76" stop-color="#213C3A"/>
</linearGradient>
<linearGradient id="paint8_linear_1941_1144" x1="2.76678" y1="17.0518" x2="7.78154" y2="19.1861" gradientUnits="userSpaceOnUse">
<stop offset="0.11" stop-color="#60D7AD"/>
<stop offset="0.76" stop-color="#213C3A"/>
</linearGradient>
</defs>
</svg>
