<svg width="33" height="32" viewBox="0 0 33 32" fill="none" xmlns="http://www.w3.org/2000/svg">
<path d="M29.6667 14.0007L29.0341 8.94016C28.786 6.95534 28.662 5.9629 28.1948 5.21505C27.7833 4.55614 27.1888 4.03133 26.484 3.7047C25.684 3.33398 24.6839 3.33398 22.6835 3.33398H9.98313C7.98285 3.33398 6.98272 3.33398 6.18269 3.7047C5.47784 4.03133 4.88333 4.55614 4.47181 5.21505C4.00472 5.9629 3.88067 6.95533 3.63256 8.94016L3 14.0007M7.66667 19.334H25M7.66667 19.334C5.08933 19.334 3 17.2447 3 14.6673C3 12.09 5.08933 10.0007 7.66667 10.0007H25C27.5773 10.0007 29.6667 12.09 29.6667 14.6673C29.6667 17.2447 27.5773 19.334 25 19.334M7.66667 19.334C5.08933 19.334 3 21.4233 3 24.0007C3 26.578 5.08933 28.6673 7.66667 28.6673H25C27.5773 28.6673 29.6667 26.578 29.6667 24.0007C29.6667 21.4233 27.5773 19.334 25 19.334M8.33333 14.6673H8.34667M8.33333 24.0007H8.34667M16.3333 14.6673H24.3333M16.3333 24.0007H24.3333" stroke="url(#paint0_linear_666_1088)" stroke-width="2" stroke-linecap="round" stroke-linejoin="round"/>
<defs>
<linearGradient id="paint0_linear_666_1088" x1="2.68" y1="3.33398" x2="34.2757" y2="17.6971" gradientUnits="userSpaceOnUse">
<stop offset="0.11" stop-color="#60D7AD"/>
<stop offset="0.76" stop-color="#213C3A"/>
</linearGradient>
</defs>
</svg>
