<svg width="33" height="32" viewBox="0 0 33 32" fill="none" xmlns="http://www.w3.org/2000/svg">
<path d="M16.6654 23.3327H16.6787M11.5987 29.3327H21.732C23.2255 29.3327 23.9723 29.3327 24.5427 29.042C25.0444 28.7864 25.4524 28.3784 25.708 27.8767C25.9987 27.3063 25.9987 26.5595 25.9987 25.066V6.93268C25.9987 5.4392 25.9987 4.69247 25.708 4.12204C25.4524 3.62027 25.0444 3.21232 24.5427 2.95667C23.9723 2.66602 23.2255 2.66602 21.732 2.66602H11.5987C10.1052 2.66602 9.35848 2.66602 8.78806 2.95667C8.28628 3.21232 7.87834 3.62027 7.62268 4.12204C7.33203 4.69247 7.33203 5.43922 7.33203 6.93268V25.066C7.33203 26.5595 7.33203 27.3063 7.62268 27.8767C7.87834 28.3784 8.28628 28.7864 8.78806 29.042C9.35848 29.3327 10.1052 29.3327 11.5987 29.3327ZM17.332 23.3327C17.332 23.7008 17.0335 23.9993 16.6654 23.9993C16.2972 23.9993 15.9987 23.7008 15.9987 23.3327C15.9987 22.9645 16.2972 22.666 16.6654 22.666C17.0335 22.666 17.332 22.9645 17.332 23.3327Z" stroke="url(#paint0_linear_666_1095)" stroke-width="2" stroke-linecap="round" stroke-linejoin="round"/>
<defs>
<linearGradient id="paint0_linear_666_1095" x1="7.10803" y1="2.66602" x2="31.5609" y2="10.0582" gradientUnits="userSpaceOnUse">
<stop offset="0.11" stop-color="#60D7AD"/>
<stop offset="0.76" stop-color="#213C3A"/>
</linearGradient>
</defs>
</svg>
