<svg width="23" height="24" viewBox="0 0 23 24" fill="none" xmlns="http://www.w3.org/2000/svg">
<path opacity="0.936" fill-rule="evenodd" clip-rule="evenodd" d="M10.4167 0.0036318C13.825 -0.00605276 17.2333 0.0036318 20.6415 0.0326797C21.6952 0.331158 22.3246 1.01863 22.5296 2.09508C22.5684 8.69865 22.5684 15.3022 22.5296 21.9057C22.3115 23.034 21.6434 23.7215 20.5253 23.9681C17.0955 24.0251 13.6679 24.0057 10.2424 23.91C9.29966 23.5871 8.72834 22.9383 8.52855 21.9638C8.4898 20.4921 8.4898 19.0203 8.52855 17.5485C8.78272 17.265 9.05385 17.2456 9.34189 17.4905C9.42439 17.871 9.45344 18.2582 9.42904 18.6524C13.4957 18.6524 17.5624 18.6524 21.6291 18.6524C21.6291 13.5206 21.6291 8.38877 21.6291 3.25699C17.5624 3.25699 13.4957 3.25699 9.42904 3.25699C9.45344 3.6511 9.42439 4.03841 9.34189 4.41891C9.09016 4.65129 8.83838 4.65129 8.58665 4.41891C8.52088 4.00841 8.49184 3.59206 8.4995 3.16985C8.27886 1.56632 8.91791 0.510918 10.4167 0.0036318ZM10.5329 0.933164C13.8637 0.923479 17.1946 0.933164 20.5253 0.962212C21.1349 1.19413 21.5028 1.62985 21.6291 2.26937C17.5626 2.32746 13.4959 2.34683 9.42904 2.32746C9.52118 1.63764 9.8891 1.17288 10.5329 0.933164ZM9.42904 19.5819C13.4957 19.5819 17.5624 19.5819 21.6291 19.5819C21.6388 20.318 21.6291 21.0539 21.6001 21.7895C21.4608 22.4517 21.0639 22.868 20.4091 23.0386C17.1364 23.0773 13.8637 23.0773 10.591 23.0386C9.99408 22.8485 9.61645 22.4515 9.45808 21.8476C9.42904 21.0926 9.41933 20.3374 9.42904 19.5819Z" fill="url(#paint0_linear_1941_1147)"/>
<path opacity="0.933" fill-rule="evenodd" clip-rule="evenodd" d="M9.25466 4.82581C9.41076 4.81628 9.56571 4.82598 9.71943 4.85485C12.5468 5.90058 15.3741 6.9463 18.2014 7.99203C18.5058 8.05436 18.6801 8.23829 18.7243 8.54394C18.6987 8.70161 18.6212 8.82744 18.4919 8.92156C17.5873 9.25294 16.6869 9.59181 15.7904 9.93823C15.7711 11.3519 15.7517 12.7656 15.7323 14.1792C15.5349 14.8607 15.138 15.3933 14.5414 15.7769C13.2964 16.461 11.9602 16.8289 10.5328 16.8807C8.99933 16.993 7.48884 16.8574 6.0013 16.474C5.00095 16.2312 4.17793 15.718 3.53223 14.9345C3.40333 14.7154 3.3065 14.483 3.24175 14.2373C3.22239 12.8043 3.20302 11.3713 3.18365 9.93823C2.816 9.77371 2.43838 9.63817 2.05079 9.53156C2.05079 10.2675 2.05079 11.0033 2.05079 11.7392C2.5007 11.8893 2.78149 12.1991 2.89318 12.6687C3.00273 13.2094 2.85749 13.6645 2.45746 14.034C2.85648 15.055 2.98236 16.1104 2.83508 17.2002C2.79635 17.2776 2.75762 17.3551 2.71889 17.4326C1.97996 17.7312 1.2344 17.7409 0.482201 17.4616C0.412405 17.4092 0.363988 17.3414 0.336962 17.2583C0.180377 16.1677 0.286883 15.1025 0.656489 14.063C0.502256 13.8714 0.37638 13.6583 0.278866 13.424C0.144026 12.8659 0.269902 12.3817 0.656489 11.9716C0.780947 11.8319 0.935871 11.7544 1.12125 11.7392C1.12125 10.8678 1.12125 9.99633 1.12125 9.12489C0.82643 9.07906 0.565 8.96286 0.336962 8.77632C0.232105 8.52691 0.280516 8.30417 0.482201 8.10822C3.42334 7.04094 6.34749 5.94682 9.25466 4.82581ZM9.31276 5.81343C9.49326 5.80478 9.66755 5.83383 9.83562 5.90058C12.1788 6.77201 14.522 7.64345 16.8652 8.51489C14.522 9.38632 12.1788 10.2578 9.83562 11.1292C9.66679 11.2058 9.49251 11.2252 9.31276 11.1873C7.69055 10.5755 6.06387 9.97524 4.43271 9.38632C6.07944 9.23458 7.72546 9.07964 9.37085 8.92156C9.6801 8.64769 9.6801 8.37662 9.37085 8.10822C7.04359 8.20855 4.71975 8.37313 2.39936 8.60203C2.29485 8.59756 2.19802 8.56851 2.10888 8.51489C4.52267 7.62986 6.92398 6.72937 9.31276 5.81343ZM4.14223 10.2868C5.91613 10.9491 7.69775 11.5882 9.48704 12.204C11.2601 11.6 13.0223 10.961 14.7738 10.2868C14.7931 10.9065 14.8125 11.5262 14.8319 12.1459C14.8397 12.8276 14.8106 13.5054 14.7447 14.1792C14.5357 14.6083 14.2162 14.9278 13.7861 15.1378C12.7369 15.6227 11.633 15.8939 10.4747 15.9511C8.8452 16.0865 7.25721 15.8928 5.71082 15.3702C5.17396 15.1618 4.71885 14.8423 4.34557 14.4116C4.27147 14.2828 4.21338 14.1472 4.17128 14.0049C4.14223 12.7657 4.13256 11.5263 4.14223 10.2868ZM1.46983 12.5525C1.92527 12.592 2.0705 12.8244 1.90555 13.2497C1.54025 13.5086 1.27882 13.4214 1.12125 12.9883C1.1856 12.7984 1.30179 12.6532 1.46983 12.5525ZM1.52793 14.3535C1.68369 14.5968 1.7902 14.8679 1.84745 15.1669C1.95394 15.6883 1.98299 16.2111 1.9346 16.7354C1.68285 16.7354 1.4311 16.7354 1.17935 16.7354C1.16561 15.9215 1.2818 15.1275 1.52793 14.3535Z" fill="url(#paint1_linear_1941_1147)"/>
<path opacity="0.936" fill-rule="evenodd" clip-rule="evenodd" d="M15.3203 20.5666C15.9986 20.5435 16.2859 20.8592 16.1823 21.5136C15.9979 21.8904 15.6972 22.0285 15.2802 21.928C14.8627 21.7438 14.7224 21.4348 14.8593 21.0007C14.957 20.7926 15.1107 20.6479 15.3203 20.5666Z" fill="url(#paint2_linear_1941_1147)"/>
<defs>
<linearGradient id="paint0_linear_1941_1147" x1="8.28811" y1="-9.36907e-07" x2="27.2296" y2="4.8064" gradientUnits="userSpaceOnUse">
<stop offset="0.11" stop-color="#60D7AD"/>
<stop offset="0.76" stop-color="#213C3A"/>
</linearGradient>
<linearGradient id="paint1_linear_1941_1147" x1="0.00497567" y1="4.82227" x2="19.0725" y2="16.6836" gradientUnits="userSpaceOnUse">
<stop offset="0.11" stop-color="#60D7AD"/>
<stop offset="0.76" stop-color="#213C3A"/>
</linearGradient>
<linearGradient id="paint2_linear_1941_1147" x1="14.7919" y1="20.5654" x2="16.472" y2="21.291" gradientUnits="userSpaceOnUse">
<stop offset="0.11" stop-color="#60D7AD"/>
<stop offset="0.76" stop-color="#213C3A"/>
</linearGradient>
</defs>
</svg>
