<svg width="24" height="24" viewBox="0 0 24 24" fill="none" xmlns="http://www.w3.org/2000/svg">
<path opacity="0.951" fill-rule="evenodd" clip-rule="evenodd" d="M5.36638 0.00316485C9.77091 -0.00527454 14.1754 0.00316485 18.5798 0.028478C18.622 0.0706648 18.6642 0.112857 18.7064 0.155043C18.7317 1.48809 18.7402 2.82125 18.7317 4.15451C20.1156 4.14606 21.4994 4.15451 22.883 4.17983C23.379 4.2707 23.725 4.54915 23.9209 5.01516C24.0047 10.1266 24.0216 15.2399 23.9715 20.3549C23.8727 20.8925 23.5605 21.2384 23.0349 21.3927C20.7568 21.418 18.4786 21.4265 16.2004 21.418C16.2004 22.0762 16.2004 22.7343 16.2004 23.3925C16.7238 23.3841 17.2469 23.3925 17.7698 23.4178C17.9723 23.6034 17.9723 23.789 17.7698 23.9747C13.8884 24.0084 10.0071 24.0084 6.12577 23.9747C6.02563 23.8483 6.00032 23.7048 6.04983 23.5443C6.07515 23.4853 6.11732 23.4431 6.1764 23.4178C6.68236 23.3925 7.18862 23.3841 7.69519 23.3925C7.69519 22.7343 7.69519 22.0762 7.69519 21.418C5.53507 21.4265 3.37502 21.418 1.21503 21.3927C0.620881 21.3616 0.224311 21.0662 0.0253144 20.5068C-0.00843812 15.3598 -0.00843812 10.2128 0.0253144 5.06579C0.15188 4.6017 0.447198 4.30639 0.911273 4.17983C2.34402 4.10694 3.77843 4.08162 5.2145 4.10389C5.20605 2.80437 5.2145 1.50497 5.23981 0.20567C5.27333 0.130545 5.31555 0.0630455 5.36638 0.00316485ZM5.87264 0.560053C9.95651 0.560053 14.0403 0.560053 18.1242 0.560053C18.1242 5.3864 18.1242 10.2128 18.1242 15.0391C14.0403 15.0391 9.95651 15.0391 5.87264 15.0391C5.87264 10.2128 5.87264 5.3864 5.87264 0.560053ZM1.21503 4.7114C2.56506 4.7114 3.91509 4.7114 5.26513 4.7114C5.26513 8.15398 5.26513 11.5966 5.26513 15.0391C4.85976 15.0307 4.45475 15.0391 4.0501 15.0645C3.9018 15.2701 3.91868 15.4557 4.10072 15.6213C9.38271 15.6551 14.6647 15.6551 19.9467 15.6213C20.123 15.4494 20.1398 15.2637 19.9974 15.0645C19.5927 15.0391 19.1877 15.0307 18.7823 15.0391C18.7823 11.5966 18.7823 8.15398 18.7823 4.7114C20.1156 4.70295 21.4488 4.7114 22.7818 4.73672C23.0482 4.78395 23.2423 4.92737 23.364 5.16704C23.4392 8.9959 23.4645 12.8266 23.4399 16.6592C15.8122 16.6592 8.18459 16.6592 0.55689 16.6592C0.54845 12.9297 0.55689 9.20023 0.582203 5.4708C0.623564 5.0673 0.834503 4.81417 1.21503 4.7114ZM0.55689 17.2667C8.16768 17.2667 15.7785 17.2667 23.3893 17.2667C23.3978 18.2625 23.3893 19.2581 23.364 20.2536C23.3081 20.4919 23.1646 20.6522 22.9337 20.7346C19.2739 20.7933 15.612 20.8186 11.9478 20.8105C8.35333 20.8021 4.75886 20.7937 1.1644 20.7852C0.811215 20.6957 0.61715 20.4679 0.582203 20.1018C0.556895 19.1569 0.548455 18.2119 0.55689 17.2667ZM11.1884 18.6842C11.7287 18.6758 12.2687 18.6842 12.8084 18.7095C13.0382 18.7938 13.1141 18.9541 13.0363 19.1905C12.9748 19.2689 12.8989 19.3279 12.8084 19.3677C12.2684 19.4015 11.7284 19.4015 11.1884 19.3677C10.9438 19.2599 10.8763 19.0827 10.9859 18.8361C11.0568 18.7844 11.1244 18.7338 11.1884 18.6842ZM8.35333 21.418C10.8002 21.418 13.2472 21.418 15.6941 21.418C15.652 22.0921 15.6351 22.7672 15.6435 23.4431C13.2134 23.4431 10.7834 23.4431 8.35333 23.4431C8.35333 22.7681 8.35333 22.093 8.35333 21.418Z" fill="url(#paint0_linear_1948_1313)"/>
<path opacity="0.901" fill-rule="evenodd" clip-rule="evenodd" d="M8.96181 1.31951C10.6093 1.23811 11.6809 1.98063 12.1766 3.54706C12.4081 5.01603 11.8766 6.10449 10.5818 6.81245C9.19535 7.32535 8.02254 7.02999 7.06333 5.92649C6.30864 4.80836 6.29178 3.6777 7.0127 2.53454C7.5098 1.87716 8.15949 1.47215 8.96181 1.31951ZM9.01244 1.92702C7.83988 2.21429 7.1986 2.96524 7.08864 4.17989C7.25049 5.55677 8.01834 6.32462 9.39213 6.48338C10.741 6.299 11.4919 5.53115 11.645 4.17989C11.4448 2.6381 10.5673 1.88715 9.01244 1.92702Z" fill="url(#paint1_linear_1948_1313)"/>
<path opacity="0.895" fill-rule="evenodd" clip-rule="evenodd" d="M13.243 3.11937C14.4919 3.11094 15.7407 3.11937 16.9894 3.14469C17.1814 3.24861 17.2404 3.40893 17.1666 3.62564C17.1244 3.66782 17.0822 3.71001 17.04 3.7522C15.7575 3.78595 14.4749 3.78595 13.1924 3.7522C13.0682 3.70449 13.0176 3.61167 13.0405 3.47376C13.0252 3.30445 13.0927 3.18633 13.243 3.11937Z" fill="url(#paint2_linear_1948_1313)"/>
<path opacity="0.896" fill-rule="evenodd" clip-rule="evenodd" d="M13.1925 4.69262C14.4751 4.68418 15.7577 4.69262 17.0401 4.71793C17.1843 4.8475 17.2265 5.00781 17.1666 5.19888C17.1209 5.25968 17.0619 5.3019 16.9894 5.32544C15.7406 5.35921 14.4919 5.35921 13.2431 5.32544C13.0511 5.22151 12.9921 5.06123 13.0659 4.84449C13.1188 4.80028 13.161 4.74965 13.1925 4.69262Z" fill="url(#paint3_linear_1948_1313)"/>
<path opacity="0.914" fill-rule="evenodd" clip-rule="evenodd" d="M8.33292 8.23264C8.53073 8.22424 8.72832 8.23264 8.92568 8.25796C9.00435 8.36766 9.02786 8.51114 8.99624 8.68828C8.98213 8.74736 8.95862 8.78953 8.92568 8.81484C8.72809 8.84861 8.5305 8.84861 8.33292 8.81484C8.25882 8.62084 8.25882 8.42679 8.33292 8.23264Z" fill="url(#paint4_linear_1948_1313)"/>
<path opacity="0.963" fill-rule="evenodd" clip-rule="evenodd" d="M9.74987 8.25512C11.9966 8.24667 14.2434 8.25512 16.4901 8.28044C16.668 8.46841 16.668 8.65406 16.4901 8.83733C14.2284 8.87109 11.9669 8.87109 9.70523 8.83733C9.57975 8.62753 9.59462 8.43343 9.74987 8.25512Z" fill="url(#paint5_linear_1948_1313)"/>
<path opacity="0.92" fill-rule="evenodd" clip-rule="evenodd" d="M8.36274 9.85276C8.55131 9.84436 8.73965 9.85276 8.92773 9.87807C9.02957 10.0459 9.039 10.2315 8.95598 10.435C8.74883 10.4687 8.54165 10.4687 8.3345 10.435C8.25509 10.2252 8.26449 10.0311 8.36274 9.85276Z" fill="url(#paint6_linear_1948_1313)"/>
<path opacity="0.963" fill-rule="evenodd" clip-rule="evenodd" d="M9.74987 9.87524C11.9818 9.86679 14.2136 9.87524 16.4454 9.90055C16.6476 10.0435 16.6773 10.2291 16.5347 10.4574C14.2582 10.4912 11.9817 10.4912 9.70523 10.4574C9.57975 10.2476 9.59462 10.0535 9.74987 9.87524Z" fill="url(#paint7_linear_1948_1313)"/>
<path opacity="0.924" fill-rule="evenodd" clip-rule="evenodd" d="M8.36217 11.5237C8.55073 11.5153 8.73907 11.5237 8.92715 11.549C9.03978 11.7369 9.03978 11.9226 8.92715 12.1059C8.72941 12.1396 8.53166 12.1396 8.33392 12.1059C8.27731 11.962 8.26318 11.8017 8.29154 11.6249C8.31965 11.5963 8.34318 11.5625 8.36217 11.5237Z" fill="url(#paint8_linear_1948_1313)"/>
<path opacity="0.969" fill-rule="evenodd" clip-rule="evenodd" d="M9.74987 11.5461C11.9966 11.5377 14.2434 11.5461 16.4901 11.5715C16.668 11.7594 16.668 11.9451 16.4901 12.1283C14.2284 12.1621 11.9669 12.1621 9.70523 12.1283C9.57975 11.9185 9.59462 11.7244 9.74987 11.5461Z" fill="url(#paint9_linear_1948_1313)"/>
<path opacity="0.876" fill-rule="evenodd" clip-rule="evenodd" d="M8.36274 13.1438C8.55131 13.1354 8.73965 13.1438 8.92773 13.1691C9.02957 13.3369 9.039 13.5226 8.95598 13.726C8.74883 13.8272 8.54165 13.8272 8.3345 13.726C8.25509 13.5162 8.26449 13.3221 8.36274 13.1438Z" fill="url(#paint10_linear_1948_1313)"/>
<path opacity="0.898" fill-rule="evenodd" clip-rule="evenodd" d="M9.75167 13.1663C11.9836 13.1578 14.2154 13.1663 16.4472 13.1916C16.6165 13.2955 16.6686 13.4558 16.6035 13.6725C16.5512 13.743 16.4843 13.7853 16.4026 13.7991C14.2154 13.8329 12.0282 13.8329 9.84095 13.7991C9.63035 13.7257 9.56339 13.5654 9.64008 13.3181C9.68673 13.2739 9.72391 13.2233 9.75167 13.1663Z" fill="url(#paint11_linear_1948_1313)"/>
<path opacity="0.932" fill-rule="evenodd" clip-rule="evenodd" d="M9.18943 3.11959C9.57462 3.11019 9.12109 3.1204 9.50341 3.15021C9.52855 3.16863 9.54601 3.19245 9.55574 3.22166C9.56621 3.53458 9.5697 3.64344 9.56621 3.95651C9.90313 3.94692 10.0287 3.95712 10.3616 3.98713C10.3747 4.00244 10.3852 4.01946 10.393 4.03816C10.407 4.41239 10.407 3.97013 10.393 4.34435C10.3686 4.36817 10.3442 4.39197 10.3198 4.41579C9.99887 4.426 9.88724 4.42941 9.56621 4.426C9.57603 4.74777 9.56556 4.86342 9.53481 5.18127C9.51737 5.19827 9.49992 5.2153 9.48248 5.2323C9.09175 5.24592 9.53831 5.24592 9.14757 5.2323C9.13013 5.2153 9.11268 5.19827 9.09524 5.18127C9.06449 4.86342 9.05403 4.74777 9.06384 4.426C8.73389 4.43557 8.61529 4.42537 8.28936 4.39538C8.26422 4.37695 8.24677 4.35315 8.23703 4.32394C8.22307 3.95651 8.22307 4.40559 8.23703 4.03816C8.24486 4.01946 8.25533 4.00244 8.26843 3.98713C8.60133 3.95712 8.72692 3.94692 9.06384 3.95651C9.06035 3.65025 9.06384 3.54818 9.07431 3.24207C9.08953 3.17693 9.12792 3.13611 9.18943 3.11959Z" fill="url(#paint12_linear_1948_1313)"/>
<defs>
<linearGradient id="paint0_linear_1948_1313" x1="-0.287495" y1="-9.36907e-07" x2="28.6313" y2="12.4888" gradientUnits="userSpaceOnUse">
<stop offset="0.11" stop-color="#60D7AD"/>
<stop offset="0.76" stop-color="#213C3A"/>
</linearGradient>
<linearGradient id="paint1_linear_1948_1313" x1="6.41556" y1="1.31348" x2="13.3373" y2="4.30366" gradientUnits="userSpaceOnUse">
<stop offset="0.11" stop-color="#60D7AD"/>
<stop offset="0.76" stop-color="#213C3A"/>
</linearGradient>
<linearGradient id="paint2_linear_1948_1313" x1="12.9853" y1="3.11621" x2="13.6947" y2="5.04448" gradientUnits="userSpaceOnUse">
<stop offset="0.11" stop-color="#60D7AD"/>
<stop offset="0.76" stop-color="#213C3A"/>
</linearGradient>
<linearGradient id="paint3_linear_1948_1313" x1="12.9853" y1="4.68945" x2="13.6954" y2="6.61727" gradientUnits="userSpaceOnUse">
<stop offset="0.11" stop-color="#60D7AD"/>
<stop offset="0.76" stop-color="#213C3A"/>
</linearGradient>
<linearGradient id="paint4_linear_1948_1313" x1="8.26857" y1="8.22949" x2="9.09426" y2="8.65721" gradientUnits="userSpaceOnUse">
<stop offset="0.11" stop-color="#60D7AD"/>
<stop offset="0.76" stop-color="#213C3A"/>
</linearGradient>
<linearGradient id="paint5_linear_1948_1313" x1="9.53721" y1="8.25195" x2="9.92949" y2="10.1945" gradientUnits="userSpaceOnUse">
<stop offset="0.11" stop-color="#60D7AD"/>
<stop offset="0.76" stop-color="#213C3A"/>
</linearGradient>
<linearGradient id="paint6_linear_1948_1313" x1="8.2725" y1="9.84961" x2="9.09698" y2="10.2756" gradientUnits="userSpaceOnUse">
<stop offset="0.11" stop-color="#60D7AD"/>
<stop offset="0.76" stop-color="#213C3A"/>
</linearGradient>
<linearGradient id="paint7_linear_1948_1313" x1="9.53721" y1="9.87207" x2="9.92951" y2="11.8146" gradientUnits="userSpaceOnUse">
<stop offset="0.11" stop-color="#60D7AD"/>
<stop offset="0.76" stop-color="#213C3A"/>
</linearGradient>
<linearGradient id="paint8_linear_1948_1313" x1="8.26855" y1="11.5205" x2="9.09539" y2="11.9499" gradientUnits="userSpaceOnUse">
<stop offset="0.11" stop-color="#60D7AD"/>
<stop offset="0.76" stop-color="#213C3A"/>
</linearGradient>
<linearGradient id="paint9_linear_1948_1313" x1="9.53721" y1="11.543" x2="9.92949" y2="13.4855" gradientUnits="userSpaceOnUse">
<stop offset="0.11" stop-color="#60D7AD"/>
<stop offset="0.76" stop-color="#213C3A"/>
</linearGradient>
<linearGradient id="paint10_linear_1948_1313" x1="8.2725" y1="13.1406" x2="9.12337" y2="13.5466" gradientUnits="userSpaceOnUse">
<stop offset="0.11" stop-color="#60D7AD"/>
<stop offset="0.76" stop-color="#213C3A"/>
</linearGradient>
<linearGradient id="paint11_linear_1948_1313" x1="9.52527" y1="13.1631" x2="9.98108" y2="15.253" gradientUnits="userSpaceOnUse">
<stop offset="0.11" stop-color="#60D7AD"/>
<stop offset="0.76" stop-color="#213C3A"/>
</linearGradient>
<linearGradient id="paint12_linear_1948_1313" x1="8.20048" y1="3.11621" x2="10.8039" y2="4.26729" gradientUnits="userSpaceOnUse">
<stop offset="0.11" stop-color="#60D7AD"/>
<stop offset="0.76" stop-color="#213C3A"/>
</linearGradient>
</defs>
</svg>
