<svg width="25" height="24" viewBox="0 0 25 24" fill="none" xmlns="http://www.w3.org/2000/svg">
<path opacity="0.956" fill-rule="evenodd" clip-rule="evenodd" d="M5.94922 0C10.1992 0 14.4492 0 18.6992 0C19.3847 0.208987 19.83 0.662114 20.0352 1.35938C20.0664 3.10937 20.0664 4.85939 20.0352 6.60938C19.7536 6.88266 19.5192 6.85139 19.332 6.51562C19.3164 4.84373 19.3008 3.17188 19.2852 1.5C19.1723 1.15269 18.9457 0.910505 18.6055 0.773438C16.521 0.719484 14.435 0.696047 12.3477 0.703125C10.292 0.703617 8.23728 0.719241 6.18359 0.75C6.19142 1.89073 6.18359 3.03135 6.16016 4.17188C6.03237 4.65908 5.72769 4.97939 5.24609 5.13281C4.07144 5.12564 2.90737 5.16473 1.75391 5.25C1.72265 10.9531 1.72265 16.6562 1.75391 22.3594C1.85136 22.9255 2.1873 23.2302 2.76172 23.2734C7.94923 23.3047 13.1367 23.3047 18.3242 23.2734C18.8118 23.2233 19.1321 22.9655 19.2852 22.5C19.2908 22.1838 19.3221 21.8713 19.3789 21.5625C19.6148 21.3619 19.8336 21.3775 20.0352 21.6094C20.223 22.4454 19.9964 23.1407 19.3555 23.6953C19.1503 23.8371 18.9315 23.9387 18.6992 24C13.2461 24 7.79295 24 2.33984 24C1.57065 23.7695 1.12534 23.2539 1.00391 22.4531C0.972656 16.6875 0.972656 10.9219 1.00391 5.15625C1.05912 4.7647 1.21537 4.42095 1.47266 4.125C2.78004 2.78632 4.11597 1.48162 5.48047 0.210938C5.63952 0.134999 5.79575 0.0646862 5.94922 0ZM5.38672 1.3125C5.4412 2.21073 5.44902 3.11698 5.41016 4.03125C5.37782 4.15763 5.30751 4.25918 5.19922 4.33594C4.23465 4.41295 3.2659 4.42858 2.29297 4.38281C3.33084 3.37057 4.36209 2.34714 5.38672 1.3125Z" fill="url(#paint0_linear_2025_1092)"/>
<path opacity="0.933" fill-rule="evenodd" clip-rule="evenodd" d="M8.90038 2.39063C11.4161 2.38281 13.9317 2.39063 16.4473 2.41406C16.8042 2.50533 17.0151 2.73189 17.0801 3.09375C17.0801 3.5625 17.0801 4.03125 17.0801 4.5C16.9987 4.8158 16.8034 5.02673 16.4941 5.13281C14.7129 5.16408 12.0644 5.16408 10.2831 5.13281C10.2831 4.94531 10.2831 4.85156 10.2831 4.59375C10.2831 4.5 10.2831 4.52344 10.2831 4.42969C11.9941 4.42969 14.6424 4.42969 16.33 4.42969C16.33 4.03125 16.33 3.58594 16.33 3.16406C13.9081 3.13281 11.4394 3.13281 9.01749 3.16406C9.01749 3.58594 9.01749 4.00781 9.01749 4.42969C9.29874 4.42969 10.0018 4.42969 10.2831 4.42969C10.2831 4.75781 10.2831 4.75781 10.2831 5.01562C10.2831 5.06269 10.2831 5.08594 10.2831 5.13281C9.93149 5.13281 9.15812 5.13281 8.80663 5.13281C8.57722 5.05378 8.41316 4.90533 8.31444 4.6875C8.26274 4.39426 8.26281 4.09739 8.26764 3.79687C8.2638 3.48145 8.26372 3.16896 8.31444 2.85938C8.44977 2.62191 8.64509 2.46566 8.90038 2.39063Z" fill="url(#paint1_linear_2025_1092)"/>
<path opacity="0.929" fill-rule="evenodd" clip-rule="evenodd" d="M19.4481 7.68705C19.7377 7.66862 20.0189 7.70767 20.2918 7.80423C20.6022 7.99005 20.8834 8.20881 21.1356 8.46048C21.5258 8.45012 21.9164 8.45012 22.3075 8.46048C22.7567 8.58156 23.077 8.85498 23.2684 9.2808C23.3351 9.58248 23.4133 9.87934 23.5028 10.1714C23.7407 10.3647 23.9986 10.5288 24.2762 10.6636C24.709 11.0869 24.8574 11.5947 24.7215 12.187C24.5755 12.427 24.4739 12.6848 24.4168 12.9605C24.5525 13.2873 24.6697 13.6232 24.7684 13.9683C24.8011 14.3857 24.6917 14.7607 24.4403 15.0933C24.136 15.3236 23.8235 15.5424 23.5028 15.7495C23.4133 16.0416 23.3351 16.3385 23.2684 16.6402C23.0567 17.094 22.7051 17.3752 22.2137 17.4839C22.1747 18.6086 22.1512 19.7336 22.1434 20.8589C21.9351 21.3662 21.568 21.5303 21.0418 21.3511C20.5887 21.0777 20.1356 20.8042 19.6825 20.5308C19.2136 20.8435 18.7292 21.1325 18.2293 21.398C17.7727 21.4861 17.4523 21.322 17.2684 20.9058C17.2606 19.7649 17.2371 18.6242 17.1981 17.4839C16.685 17.3695 16.3179 17.0726 16.0965 16.5933C16.0614 16.2841 15.9833 15.9872 15.8621 15.7027C15.6533 15.5397 15.4268 15.4068 15.1825 15.3042C14.7192 14.9166 14.5395 14.4244 14.6434 13.8277C14.7552 13.5341 14.8724 13.245 14.995 12.9605C14.8967 12.6625 14.7795 12.3735 14.6434 12.0933C14.536 11.4932 14.7157 11.0011 15.1825 10.6167C15.4247 10.51 15.6513 10.3772 15.8621 10.2183C15.9833 9.93381 16.0614 9.63691 16.0965 9.32767C16.2858 8.86951 16.6218 8.58044 17.1043 8.46048C17.4952 8.45383 17.8858 8.45383 18.2762 8.46048C18.495 8.27298 18.7137 8.08548 18.9325 7.89798C19.1039 7.81258 19.2758 7.74226 19.4481 7.68705ZM19.5418 8.43705C19.7276 8.41778 19.8995 8.45683 20.0575 8.55423C20.5465 9.17561 21.1794 9.38655 21.9559 9.18705C22.233 9.19272 22.4361 9.31773 22.5653 9.56205C22.5801 10.3978 22.9786 10.9525 23.7606 11.2261C24.0046 11.4576 24.0749 11.731 23.9715 12.0464C23.5652 12.6558 23.5652 13.2652 23.9715 13.8745C24.0734 14.1633 24.0187 14.4211 23.8075 14.648C23.0522 14.9028 22.6538 15.4262 22.6121 16.2183C22.5462 16.4561 22.3978 16.6202 22.1668 16.7105C21.8901 16.7353 21.6167 16.7119 21.3465 16.6402C20.8045 16.6819 20.3748 16.9241 20.0575 17.3667C19.8459 17.4958 19.6271 17.5114 19.4012 17.4136C19.2137 17.2417 19.0262 17.0699 18.8387 16.898C18.3917 16.6522 17.9229 16.5975 17.4325 16.7339C17.1868 16.7165 16.9915 16.6071 16.8465 16.4058C16.7977 15.9887 16.6727 15.598 16.4715 15.2339C16.2422 14.9902 15.9688 14.8105 15.6512 14.6949C15.3705 14.4583 15.3002 14.1692 15.4403 13.8277C15.7463 13.3913 15.8088 12.9225 15.6278 12.4214C15.1696 11.7355 15.3336 11.259 16.12 10.9917C16.3332 10.8566 16.4973 10.6769 16.6121 10.4527C16.7083 10.1436 16.7864 9.83106 16.8465 9.51517C16.9537 9.37633 17.0865 9.27475 17.245 9.21048C17.5104 9.19909 17.776 9.20692 18.0418 9.23392C18.3314 9.25459 18.597 9.18428 18.8387 9.02298C19.042 8.77975 19.2764 8.58442 19.5418 8.43705ZM17.995 17.3902C18.124 17.4146 18.249 17.4537 18.37 17.5074C19.2134 18.4518 20.0728 18.4675 20.9481 17.5542C21.0936 17.4667 21.2499 17.412 21.4168 17.3902C21.4247 18.484 21.4168 19.5778 21.3934 20.6714C20.9793 20.4136 20.5652 20.1558 20.1512 19.898C19.8153 19.7325 19.4872 19.7481 19.1668 19.9449C18.7801 20.1812 18.3972 20.4234 18.0184 20.6714C17.995 19.5778 17.9871 18.484 17.995 17.3902Z" fill="url(#paint2_linear_2025_1092)"/>
<path opacity="0.931" fill-rule="evenodd" clip-rule="evenodd" d="M3.88787 8.48438C6.98167 8.47655 10.0754 8.48438 13.1691 8.50782C13.3941 8.65177 13.4487 8.8471 13.3332 9.09376C13.2909 9.15005 13.2362 9.18915 13.1691 9.21094C10.0754 9.24221 6.98162 9.24221 3.88787 9.21094C3.66645 9.0968 3.59613 8.91708 3.67694 8.67188C3.74241 8.59829 3.81272 8.53576 3.88787 8.48438Z" fill="url(#paint3_linear_2025_1092)"/>
<path opacity="0.932" fill-rule="evenodd" clip-rule="evenodd" d="M3.83835 10.9688C6.94776 10.9609 10.0572 10.9688 13.1665 10.9922C13.4127 11.1369 13.4595 11.3322 13.3071 11.5781C13.2525 11.6289 13.19 11.668 13.1196 11.6953C10.0571 11.7266 6.99459 11.7266 3.9321 11.6953C3.67872 11.6025 3.59278 11.4228 3.67429 11.1563C3.73877 11.0998 3.79346 11.0373 3.83835 10.9688Z" fill="url(#paint4_linear_2025_1092)"/>
<path opacity="0.933" fill-rule="evenodd" clip-rule="evenodd" d="M3.97936 13.4063C7.01068 13.3984 10.0419 13.4063 13.0731 13.4297C13.4444 13.5987 13.4913 13.8331 13.2137 14.1328C10.0887 14.1641 6.96376 14.1641 3.83874 14.1328C3.66476 14.015 3.61007 13.851 3.67468 13.6406C3.74795 13.5224 3.84951 13.4442 3.97936 13.4063Z" fill="url(#paint5_linear_2025_1092)"/>
<path opacity="0.932" fill-rule="evenodd" clip-rule="evenodd" d="M3.8877 15.8906C6.96588 15.8828 10.044 15.8906 13.1221 15.9141C13.3819 16.036 13.4522 16.2314 13.333 16.5C13.2907 16.5563 13.236 16.5954 13.1689 16.6172C10.0752 16.6485 6.98144 16.6485 3.8877 16.6172C3.64444 16.4806 3.58975 16.2853 3.72363 16.0313C3.77731 15.978 3.83199 15.9311 3.8877 15.8906Z" fill="url(#paint6_linear_2025_1092)"/>
<path opacity="0.928" fill-rule="evenodd" clip-rule="evenodd" d="M3.93206 19.5C5.49463 19.4922 7.05712 19.5 8.61955 19.5234C8.95532 19.7107 8.98659 19.945 8.7133 20.2266C7.08829 20.2578 5.46331 20.2578 3.83831 20.2266C3.63894 20.0663 3.59988 19.8709 3.72112 19.6406C3.78715 19.5806 3.85746 19.5337 3.93206 19.5Z" fill="url(#paint7_linear_2025_1092)"/>
<path opacity="0.925" fill-rule="evenodd" clip-rule="evenodd" d="M19.362 9.98438C21.339 9.99277 22.4484 10.9771 22.6901 12.9375C22.5177 14.7661 21.5177 15.7661 19.6901 15.9375C18.3521 15.857 17.4224 15.2008 16.901 13.9688C16.4678 12.3135 16.9913 11.0713 18.4714 10.2422C18.7675 10.1332 19.0643 10.0473 19.362 9.98438ZM19.4089 10.7344C17.8835 11.1677 17.2898 12.1599 17.6276 13.7109C18.0084 14.6282 18.6958 15.1204 19.6901 15.1875C21.0364 15.0522 21.7864 14.31 21.9401 12.9609C21.7476 11.4794 20.9038 10.7372 19.4089 10.7344Z" fill="url(#paint8_linear_2025_1092)"/>
<defs>
<linearGradient id="paint0_linear_2025_1092" x1="0.751445" y1="-9.36907e-07" x2="25.1925" y2="8.40833" gradientUnits="userSpaceOnUse">
<stop offset="0.11" stop-color="#60D7AD"/>
<stop offset="0.76" stop-color="#213C3A"/>
</linearGradient>
<linearGradient id="paint1_linear_2025_1092" x1="8.16004" y1="2.3877" x2="12.5199" y2="8.38222" gradientUnits="userSpaceOnUse">
<stop offset="0.11" stop-color="#60D7AD"/>
<stop offset="0.76" stop-color="#213C3A"/>
</linearGradient>
<linearGradient id="paint2_linear_2025_1092" x1="14.4916" y1="7.68262" x2="27.6736" y2="11.8929" gradientUnits="userSpaceOnUse">
<stop offset="0.11" stop-color="#60D7AD"/>
<stop offset="0.76" stop-color="#213C3A"/>
</linearGradient>
<linearGradient id="paint3_linear_2025_1092" x1="3.52776" y1="8.48145" x2="3.95979" y2="10.8968" gradientUnits="userSpaceOnUse">
<stop offset="0.11" stop-color="#60D7AD"/>
<stop offset="0.76" stop-color="#213C3A"/>
</linearGradient>
<linearGradient id="paint4_linear_2025_1092" x1="3.52773" y1="10.9658" x2="3.95966" y2="13.3812" gradientUnits="userSpaceOnUse">
<stop offset="0.11" stop-color="#60D7AD"/>
<stop offset="0.76" stop-color="#213C3A"/>
</linearGradient>
<linearGradient id="paint5_linear_2025_1092" x1="3.53172" y1="13.4033" x2="3.96392" y2="15.8186" gradientUnits="userSpaceOnUse">
<stop offset="0.11" stop-color="#60D7AD"/>
<stop offset="0.76" stop-color="#213C3A"/>
</linearGradient>
<linearGradient id="paint6_linear_2025_1092" x1="3.5357" y1="15.8877" x2="3.96817" y2="18.3029" gradientUnits="userSpaceOnUse">
<stop offset="0.11" stop-color="#60D7AD"/>
<stop offset="0.76" stop-color="#213C3A"/>
</linearGradient>
<linearGradient id="paint7_linear_2025_1092" x1="3.58951" y1="19.4971" x2="4.33566" y2="21.7417" gradientUnits="userSpaceOnUse">
<stop offset="0.11" stop-color="#60D7AD"/>
<stop offset="0.76" stop-color="#213C3A"/>
</linearGradient>
<linearGradient id="paint8_linear_2025_1092" x1="16.6828" y1="9.98437" x2="23.8421" y2="13.0674" gradientUnits="userSpaceOnUse">
<stop offset="0.11" stop-color="#60D7AD"/>
<stop offset="0.76" stop-color="#213C3A"/>
</linearGradient>
</defs>
</svg>
