<svg width="13" height="12" viewBox="0 0 13 12" fill="none" xmlns="http://www.w3.org/2000/svg">
<path opacity="0.976" fill-rule="evenodd" clip-rule="evenodd" d="M12.6255 0C12.8052 0.0260903 12.8623 0.122624 12.7967 0.2896C11.0535 1.81442 9.51769 3.51693 8.1894 5.39709C6.74516 7.45058 5.49462 9.62698 4.43776 11.9262C4.35683 12.0148 4.26906 12.0236 4.17449 11.9526C3.65205 10.811 3.06846 9.70528 2.42373 8.63534C1.89586 7.791 1.2684 7.02314 0.541331 6.3317C0.370204 6.19567 0.199077 6.05966 0.0279499 5.92363C-0.0370073 5.77272 0.0112585 5.67618 0.17275 5.63403C1.64934 5.87427 2.91744 6.51491 3.97704 7.55592C4.08867 7.68274 4.19397 7.81437 4.29296 7.95083C5.42569 5.99232 6.85176 4.26788 8.57114 2.77752C9.8339 1.7208 11.1854 0.794959 12.6255 0Z" fill="url(#paint0_linear_1238_295)"/>
<defs>
<linearGradient id="paint0_linear_1238_295" x1="-0.153876" y1="-7.68179e-08" x2="14.9603" y2="6.97487" gradientUnits="userSpaceOnUse">
<stop offset="0.11" stop-color="#60D7AD"/>
<stop offset="0.76" stop-color="#213C3A"/>
</linearGradient>
</defs>
</svg>
