<svg width="33" height="32" viewBox="0 0 33 32" fill="none" xmlns="http://www.w3.org/2000/svg">
<path d="M17.6667 7.9998L9.00243 9.73264C8.51844 9.82944 8.27644 9.87784 8.07936 9.99553C7.90515 10.0996 7.75696 10.242 7.64613 10.412C7.52076 10.6043 7.46285 10.8442 7.34704 11.324L3 29.3331M3 29.3331L21.0092 24.9861C21.4889 24.8703 21.7288 24.8124 21.9211 24.6871C22.0911 24.5761 22.2336 24.428 22.3376 24.2537C22.4553 24.0567 22.5037 23.8147 22.6005 23.3307L24.3333 14.6664M3 29.3331L13.1147 19.2184M28.1581 10.4913L21.8419 4.17496C21.3139 3.64693 21.0497 3.38292 20.7453 3.28401C20.4776 3.197 20.1891 3.197 19.9213 3.28401C19.6169 3.38292 19.3528 3.64693 18.8248 4.17496L17.8419 5.15797C17.3139 5.686 17.0497 5.95 16.9509 6.25444C16.8639 6.52224 16.8639 6.81069 16.9509 7.07849C17.0497 7.38292 17.3139 7.64693 17.8419 8.17496L24.1581 14.4913C24.6861 15.0193 24.9503 15.2833 25.2547 15.3823C25.5224 15.4692 25.8109 15.4692 26.0787 15.3823C26.3831 15.2833 26.6472 15.0193 27.1752 14.4913L28.1581 13.5083C28.6861 12.9803 28.9503 12.7163 29.0491 12.4118C29.1361 12.144 29.1361 11.8556 29.0491 11.5878C28.9503 11.2833 28.6861 11.0193 28.1581 10.4913ZM15 14.6664C16.4728 14.6664 17.6667 15.8604 17.6667 17.3331C17.6667 18.8059 16.4728 19.9997 15 19.9997C13.5272 19.9997 12.3333 18.8059 12.3333 17.3331C12.3333 15.8604 13.5272 14.6664 15 14.6664Z" stroke="url(#paint0_linear_666_1058)" stroke-width="2" stroke-linecap="round" stroke-linejoin="round"/>
<defs>
<linearGradient id="paint0_linear_666_1058" x1="2.68663" y1="3.21875" x2="34.1533" y2="16.808" gradientUnits="userSpaceOnUse">
<stop offset="0.11" stop-color="#60D7AD"/>
<stop offset="0.76" stop-color="#213C3A"/>
</linearGradient>
</defs>
</svg>
