<svg width="27" height="24" viewBox="0 0 27 24" fill="none" xmlns="http://www.w3.org/2000/svg">
<path opacity="0.995" fill-rule="evenodd" clip-rule="evenodd" d="M1.73735 0.00360604C9.45919 -0.00600982 17.181 0.00360604 24.9028 0.0324478C25.6897 0.215114 26.1828 0.666967 26.3821 1.38801C26.4241 8.46389 26.4241 15.5397 26.3821 22.6156C26.1828 23.3366 25.6897 23.7885 24.9028 23.9711C17.181 24.0096 9.45919 24.0096 1.73735 23.9711C0.950484 23.7885 0.457381 23.3366 0.258039 22.6156C0.21607 15.5397 0.21607 8.46389 0.258039 1.38801C0.468857 0.666119 0.961966 0.204651 1.73735 0.00360604ZM2.24095 0.926544C9.62708 0.916928 17.0131 0.926544 24.3992 0.955385C24.9763 1.02268 25.3015 1.32071 25.3749 1.84948C25.4169 8.61767 25.4169 15.3859 25.3749 22.1541C25.3015 22.6829 24.9763 22.9809 24.3992 23.0482C17.0131 23.0867 9.62702 23.0867 2.24095 23.0482C1.66391 22.9809 1.33868 22.6829 1.26523 22.1541C1.22326 15.3859 1.22326 8.61767 1.26523 1.84948C1.34996 1.32008 1.67519 1.01244 2.24095 0.926544Z" fill="url(#paint0_linear_1941_1148)"/>
<path opacity="0.948" fill-rule="evenodd" clip-rule="evenodd" d="M12.9058 5.93593C14.5449 5.83872 15.3027 6.60609 15.1792 8.23809C14.8135 9.32805 14.0557 9.77892 12.9058 9.59061C11.8159 9.22485 11.365 8.46704 11.5533 7.31723C11.7461 6.59694 12.1969 6.13651 12.9058 5.93593ZM13.0785 6.91435C12.9124 6.99372 12.7685 7.10882 12.6469 7.25967C12.4065 7.72482 12.4736 8.13731 12.8483 8.49708C13.3134 8.73749 13.7259 8.67038 14.0857 8.29564C14.4079 7.36079 14.0722 6.90036 13.0785 6.91435Z" fill="url(#paint1_linear_1941_1148)"/>
<path opacity="0.948" fill-rule="evenodd" clip-rule="evenodd" d="M8.75271 6.83634C10.3954 6.73891 11.1549 7.50799 11.0312 9.14364C10.6646 10.236 9.90509 10.6879 8.75271 10.4992C7.66032 10.1326 7.20844 9.3731 7.39717 8.22072C7.59035 7.49882 8.04218 7.03736 8.75271 6.83634ZM8.92576 7.81694C8.75928 7.89649 8.61508 8.01185 8.49314 8.16304C8.2522 8.62923 8.31946 9.04263 8.69503 9.40321C9.16122 9.64415 9.57463 9.57689 9.9352 9.20132C10.2581 8.26438 9.92164 7.80292 8.92576 7.81694Z" fill="url(#paint2_linear_1941_1148)"/>
<path opacity="0.948" fill-rule="evenodd" clip-rule="evenodd" d="M17.0504 6.85683C18.6894 6.75962 19.4472 7.52699 19.3238 9.15899C18.958 10.2489 18.2002 10.6998 17.0504 10.5115C15.9604 10.1458 15.5095 9.38794 15.6979 8.23813C15.8906 7.51784 16.3414 7.05741 17.0504 6.85683ZM17.223 7.83525C17.0569 7.91461 16.9131 8.02972 16.7914 8.18057C16.551 8.64572 16.6181 9.05821 16.9928 9.41798C17.458 9.65838 17.8705 9.59128 18.2302 9.21654C18.5524 8.28169 18.2167 7.82126 17.223 7.83525Z" fill="url(#paint3_linear_1941_1148)"/>
<path opacity="0.978" fill-rule="evenodd" clip-rule="evenodd" d="M12.3274 10.528C13.0391 10.5184 13.7505 10.528 14.4616 10.5569C15.3172 10.7972 15.8652 11.3452 16.1056 12.2008C16.1344 13.1812 16.1441 14.1618 16.1344 15.1426C17.2112 15.1426 18.2879 15.1426 19.3646 15.1426C19.3826 14.5248 19.3538 13.9095 19.2781 13.2968C19.1147 12.9026 18.8359 12.6238 18.4417 12.4604C18.0596 12.4001 17.675 12.3617 17.2881 12.345C17.1823 12.3162 17.115 12.2489 17.0862 12.1431C17.0326 11.9272 17.0614 11.7253 17.1727 11.5375C18.3126 11.2125 19.2451 11.5105 19.9703 12.4315C20.0983 12.6491 20.1944 12.8798 20.2587 13.1237C20.3147 14.0712 20.2954 15.0134 20.201 15.9502C20.1578 15.9863 20.1097 16.0151 20.0568 16.0367C17.5957 16.0752 15.1346 16.0752 12.6735 16.0367C12.4995 15.9485 12.4226 15.8043 12.4428 15.6041C12.4226 15.4039 12.4995 15.2597 12.6735 15.1715C13.5193 15.1426 14.3653 15.133 15.2115 15.1426C15.2337 14.2175 15.2049 13.2945 15.125 12.3739C14.7658 11.6509 14.1793 11.3433 13.3657 11.4509C12.552 11.3433 11.9656 11.6509 11.6064 12.3739C11.5345 13.5256 11.4961 14.6793 11.491 15.8348C11.4622 15.9405 11.3948 16.0079 11.2891 16.0367C9.75089 16.0752 8.21273 16.0752 6.67452 16.0367C6.62168 16.0151 6.57357 15.9863 6.53031 15.9502C6.43594 15.0134 6.41668 14.0712 6.47263 13.1237C6.71299 12.2681 7.26097 11.7201 8.11658 11.4798C8.55883 11.4413 9.00102 11.4413 9.44327 11.4798C9.61724 11.568 9.69413 11.7122 9.674 11.9124C9.67954 12.0523 9.64112 12.1773 9.55864 12.2873C9.13952 12.3559 8.71653 12.4136 8.28962 12.4604C7.72278 12.681 7.42479 13.0944 7.39555 13.7006C7.36671 14.1809 7.35713 14.6615 7.36671 15.1426C8.44346 15.1426 9.52016 15.1426 10.5969 15.1426C10.5873 14.1618 10.5969 13.1812 10.6258 12.2008C10.8828 11.3189 11.45 10.7612 12.3274 10.528Z" fill="url(#paint4_linear_1941_1148)"/>
<path opacity="0.981" fill-rule="evenodd" clip-rule="evenodd" d="M12.6554 18.8239C13.099 18.8143 13.5426 18.8239 13.986 18.8527C14.0368 18.8815 14.0692 18.9486 14.0831 19.0541C14.1015 19.2076 14.1015 19.3611 14.0831 19.5146C14.0692 19.6201 14.0368 19.6872 13.986 19.716C13.5425 19.7544 13.0989 19.7544 12.6554 19.716C12.5718 19.628 12.5348 19.4841 12.5445 19.2843C12.5384 19.0791 12.5754 18.9257 12.6554 18.8239Z" fill="url(#paint5_linear_1941_1148)"/>
<path fill-rule="evenodd" clip-rule="evenodd" d="M2.52734 2.33105C9.7024 2.33105 16.8775 2.33105 24.0525 2.33105C24.0525 8.7771 24.0525 15.2231 24.0525 21.6692C16.8775 21.6692 9.7024 21.6692 2.52734 21.6692C2.52734 15.2231 2.52734 8.7771 2.52734 2.33105ZM3.55235 3.25192C3.55235 9.08403 3.55235 14.9162 3.55235 20.7483C10.0441 20.7483 16.5358 20.7483 23.0275 20.7483C23.0275 14.9162 23.0275 9.08403 23.0275 3.25192C16.5358 3.25192 10.0441 3.25192 3.55235 3.25192Z" fill="url(#paint6_linear_1941_1148)"/>
<defs>
<linearGradient id="paint0_linear_1941_1148" x1="-0.0871361" y1="-9.36907e-07" x2="30.5496" y2="14.4366" gradientUnits="userSpaceOnUse">
<stop offset="0.11" stop-color="#60D7AD"/>
<stop offset="0.76" stop-color="#213C3A"/>
</linearGradient>
<linearGradient id="paint1_linear_1941_1148" x1="11.4676" y1="5.92773" x2="15.9115" y2="7.83445" gradientUnits="userSpaceOnUse">
<stop offset="0.11" stop-color="#60D7AD"/>
<stop offset="0.76" stop-color="#213C3A"/>
</linearGradient>
<linearGradient id="paint2_linear_1941_1148" x1="7.31128" y1="6.82812" x2="11.7651" y2="8.73909" gradientUnits="userSpaceOnUse">
<stop offset="0.11" stop-color="#60D7AD"/>
<stop offset="0.76" stop-color="#213C3A"/>
</linearGradient>
<linearGradient id="paint3_linear_1941_1148" x1="15.6122" y1="6.84863" x2="20.056" y2="8.75534" gradientUnits="userSpaceOnUse">
<stop offset="0.11" stop-color="#60D7AD"/>
<stop offset="0.76" stop-color="#213C3A"/>
</linearGradient>
<linearGradient id="paint4_linear_1941_1148" x1="6.27551" y1="10.5244" x2="15.4209" y2="20.3953" gradientUnits="userSpaceOnUse">
<stop offset="0.11" stop-color="#60D7AD"/>
<stop offset="0.76" stop-color="#213C3A"/>
</linearGradient>
<linearGradient id="paint5_linear_1941_1148" x1="12.5244" y1="18.8203" x2="13.9793" y2="19.8765" gradientUnits="userSpaceOnUse">
<stop offset="0.11" stop-color="#60D7AD"/>
<stop offset="0.76" stop-color="#213C3A"/>
</linearGradient>
<linearGradient id="paint6_linear_1941_1148" x1="2.26949" y1="2.33105" x2="27.2675" y2="14.3477" gradientUnits="userSpaceOnUse">
<stop offset="0.11" stop-color="#60D7AD"/>
<stop offset="0.76" stop-color="#213C3A"/>
</linearGradient>
</defs>
</svg>
