<svg width="23" height="28" viewBox="0 0 23 28" fill="none" xmlns="http://www.w3.org/2000/svg">
<g clip-path="url(#clip0_1734_1067)">
<path opacity="0.996" fill-rule="evenodd" clip-rule="evenodd" d="M1.23047 -0.0273438C7.75649 -0.0273438 14.2826 -0.0273438 20.8086 -0.0273438C21.4274 0.181402 21.8376 0.600671 22.0391 1.23047C22.0755 9.72524 22.0755 18.2201 22.0391 26.7148C21.8376 27.3446 21.4274 27.7639 20.8086 27.9727C14.2826 27.9727 7.75649 27.9727 1.23047 27.9727C0.610679 27.7539 0.191406 27.3346 -0.0273438 26.7148C-0.0273438 18.2201 -0.0273438 9.72524 -0.0273438 1.23047C0.191406 0.610679 0.610679 0.191406 1.23047 -0.0273438ZM1.66797 1.06641C7.90234 1.05729 14.1367 1.06641 20.3711 1.09375C20.7084 1.13932 20.8998 1.33073 20.9453 1.66797C20.9818 9.87109 20.9818 18.0742 20.9453 26.2773C20.8998 26.6146 20.7084 26.806 20.3711 26.8516C14.1367 26.888 7.90234 26.888 1.66797 26.8516C1.33073 26.806 1.13932 26.6146 1.09375 26.2773C1.05729 18.0742 1.05729 9.87109 1.09375 1.66797C1.14918 1.33011 1.34058 1.1296 1.66797 1.06641Z" fill="url(#paint0_linear_1734_1067)"/>
<path opacity="0.979" fill-rule="evenodd" clip-rule="evenodd" d="M10.1996 4.23779C11.5852 4.22868 12.9706 4.23779 14.3559 4.26514C14.6909 4.50526 14.7546 4.80604 14.5473 5.16748C14.4979 5.23318 14.4341 5.27876 14.3559 5.3042C12.9705 5.34066 11.585 5.34066 10.1996 5.3042C9.93848 5.10431 9.85645 4.83999 9.95352 4.51123C10.0282 4.40942 10.1103 4.31828 10.1996 4.23779Z" fill="url(#paint1_linear_1734_1067)"/>
<path opacity="0.969" fill-rule="evenodd" clip-rule="evenodd" d="M16.3804 4.23779C17.201 4.22868 18.0213 4.2378 18.8414 4.26513C19.1025 4.46502 19.1845 4.72934 19.0875 5.0581C19.0237 5.15836 18.9416 5.24039 18.8414 5.3042C18.0211 5.34066 17.2008 5.34066 16.3804 5.3042C16.05 5.09922 15.968 4.81667 16.1343 4.45654C16.2107 4.37066 16.2928 4.29775 16.3804 4.23779Z" fill="url(#paint2_linear_1734_1067)"/>
<path opacity="0.915" fill-rule="evenodd" clip-rule="evenodd" d="M6.91912 5.33203C7.43673 5.41974 7.62814 5.7114 7.49333 6.20703C6.66389 7.10938 5.79802 7.97524 4.89568 8.80469C4.63952 8.86495 4.40254 8.82853 4.18474 8.69531C3.75465 8.28352 3.34449 7.85509 2.95427 7.41016C2.85401 6.78125 3.11833 6.51695 3.74724 6.61719C4.03715 6.85234 4.31059 7.10752 4.56755 7.38281C4.60401 7.41929 4.64047 7.41929 4.67693 7.38281C5.29672 6.76304 5.91653 6.14321 6.5363 5.52344C6.65733 5.43505 6.78497 5.37125 6.91912 5.33203Z" fill="url(#paint3_linear_1734_1067)"/>
<path opacity="0.99" fill-rule="evenodd" clip-rule="evenodd" d="M10.1996 7.7378C13.0799 7.72867 15.9601 7.7378 18.8402 7.76514C19.1014 7.96503 19.1834 8.22933 19.0863 8.55811C19.0225 8.65836 18.9405 8.74039 18.8402 8.80421C15.96 8.84068 13.0798 8.84068 10.1996 8.80421C9.93848 8.60432 9.85645 8.34002 9.95352 8.01124C10.0282 7.90941 10.1103 7.8183 10.1996 7.7378Z" fill="url(#paint4_linear_1734_1067)"/>
<path opacity="0.921" fill-rule="evenodd" clip-rule="evenodd" d="M3.19867 11.6755C3.45539 11.6424 3.69237 11.688 3.90961 11.8122C4.33878 12.2505 4.77628 12.6789 5.22211 13.0973C5.70604 12.6225 6.19823 12.1576 6.69867 11.7028C7.34579 11.5843 7.61015 11.8486 7.49164 12.4958C7.03681 12.9962 6.57196 13.4884 6.09711 13.9723C6.57196 14.4563 7.03681 14.9484 7.49164 15.4489C7.61015 16.096 7.34579 16.3604 6.69867 16.2419C6.19823 15.787 5.70604 15.3222 5.22211 14.8473C4.73819 15.3222 4.246 15.787 3.74555 16.2419C3.09841 16.3604 2.83409 16.096 2.95258 15.4489C3.40742 14.9484 3.87226 14.4563 4.34711 13.9723C3.87226 13.4884 3.40742 12.9962 2.95258 12.4958C2.8571 12.159 2.93913 11.8856 3.19867 11.6755Z" fill="url(#paint5_linear_1734_1067)"/>
<path opacity="0.979" fill-rule="evenodd" clip-rule="evenodd" d="M10.1996 11.6753C11.5852 11.6662 12.9706 11.6753 14.3559 11.7026C14.6909 11.9428 14.7546 12.2436 14.5473 12.605C14.4979 12.6707 14.4341 12.7163 14.3559 12.7417C12.9705 12.7782 11.585 12.7782 10.1996 12.7417C9.93848 12.5418 9.85645 12.2775 9.95352 11.9487C10.0282 11.8469 10.1103 11.7558 10.1996 11.6753Z" fill="url(#paint6_linear_1734_1067)"/>
<path opacity="0.969" fill-rule="evenodd" clip-rule="evenodd" d="M16.3804 11.6753C17.201 11.6662 18.0213 11.6753 18.8414 11.7026C19.1025 11.9025 19.1845 12.1668 19.0875 12.4956C19.0237 12.5959 18.9416 12.6779 18.8414 12.7417C18.0211 12.7782 17.2008 12.7782 16.3804 12.7417C16.05 12.5367 15.968 12.2542 16.1343 11.8941C16.2107 11.8082 16.2928 11.7352 16.3804 11.6753Z" fill="url(#paint7_linear_1734_1067)"/>
<path opacity="0.99" fill-rule="evenodd" clip-rule="evenodd" d="M10.1996 15.1753C13.0799 15.1662 15.9601 15.1753 18.8402 15.2026C19.1014 15.4025 19.1834 15.6668 19.0863 15.9956C19.0225 16.0959 18.9405 16.1779 18.8402 16.2417C15.96 16.2782 13.0798 16.2782 10.1996 16.2417C9.93848 16.0418 9.85645 15.7775 9.95352 15.4487C10.0282 15.3469 10.1103 15.2558 10.1996 15.1753Z" fill="url(#paint8_linear_1734_1067)"/>
<path opacity="0.921" fill-rule="evenodd" clip-rule="evenodd" d="M3.19867 19.113C3.45539 19.0799 3.69237 19.1255 3.90961 19.2497C4.33878 19.688 4.77628 20.1164 5.22211 20.5348C5.70604 20.06 6.19823 19.5951 6.69867 19.1403C7.34579 19.0218 7.61015 19.2861 7.49164 19.9333C7.03681 20.4337 6.57196 20.9259 6.09711 21.4098C6.57196 21.8938 7.03681 22.3859 7.49164 22.8864C7.61015 23.5335 7.34579 23.7979 6.69867 23.6794C6.19823 23.2245 5.70604 22.7597 5.22211 22.2848C4.73819 22.7597 4.246 23.2245 3.74555 23.6794C3.09841 23.7979 2.83409 23.5335 2.95258 22.8864C3.40742 22.3859 3.87226 21.8938 4.34711 21.4098C3.87226 20.9259 3.40742 20.4337 2.95258 19.9333C2.8571 19.5965 2.93913 19.3231 3.19867 19.113Z" fill="url(#paint9_linear_1734_1067)"/>
<path opacity="0.979" fill-rule="evenodd" clip-rule="evenodd" d="M10.1996 19.1128C11.5852 19.1037 12.9706 19.1128 14.3559 19.1401C14.6909 19.3803 14.7546 19.6811 14.5473 20.0425C14.4979 20.1082 14.4341 20.1538 14.3559 20.1792C12.9705 20.2157 11.585 20.2157 10.1996 20.1792C9.93848 19.9793 9.85645 19.715 9.95352 19.3862C10.0282 19.2844 10.1103 19.1933 10.1996 19.1128Z" fill="url(#paint10_linear_1734_1067)"/>
<path opacity="0.969" fill-rule="evenodd" clip-rule="evenodd" d="M16.3804 19.1128C17.201 19.1037 18.0213 19.1128 18.8414 19.1401C19.1025 19.34 19.1845 19.6043 19.0875 19.9331C19.0237 20.0334 18.9416 20.1154 18.8414 20.1792C18.0211 20.2157 17.2008 20.2157 16.3804 20.1792C16.05 19.9742 15.968 19.6917 16.1343 19.3316C16.2107 19.2457 16.2928 19.1727 16.3804 19.1128Z" fill="url(#paint11_linear_1734_1067)"/>
<path opacity="0.99" fill-rule="evenodd" clip-rule="evenodd" d="M10.1996 22.6128C13.0799 22.6037 15.9601 22.6128 18.8402 22.6401C19.1014 22.84 19.1834 23.1043 19.0863 23.4331C19.0225 23.5334 18.9405 23.6154 18.8402 23.6792C15.96 23.7157 13.0798 23.7157 10.1996 23.6792C9.93848 23.4793 9.85645 23.215 9.95352 22.8862C10.0282 22.7844 10.1103 22.6933 10.1996 22.6128Z" fill="url(#paint12_linear_1734_1067)"/>
</g>
<defs>
<linearGradient id="paint0_linear_1734_1067" x1="-0.292008" y1="-0.0273448" x2="28.009" y2="9.61672" gradientUnits="userSpaceOnUse">
<stop offset="0.11" stop-color="#60D7AD"/>
<stop offset="0.76" stop-color="#213C3A"/>
</linearGradient>
<linearGradient id="paint1_linear_1734_1067" x1="9.85714" y1="4.23437" x2="11.3673" y2="7.05922" gradientUnits="userSpaceOnUse">
<stop offset="0.11" stop-color="#60D7AD"/>
<stop offset="0.76" stop-color="#213C3A"/>
</linearGradient>
<linearGradient id="paint2_linear_1734_1067" x1="16.0139" y1="4.23437" x2="17.7973" y2="6.39372" gradientUnits="userSpaceOnUse">
<stop offset="0.11" stop-color="#60D7AD"/>
<stop offset="0.76" stop-color="#213C3A"/>
</linearGradient>
<linearGradient id="paint3_linear_1734_1067" x1="2.87847" y1="5.33203" x2="7.85402" y2="8.15638" gradientUnits="userSpaceOnUse">
<stop offset="0.11" stop-color="#60D7AD"/>
<stop offset="0.76" stop-color="#213C3A"/>
</linearGradient>
<linearGradient id="paint4_linear_1734_1067" x1="9.80371" y1="7.73437" x2="10.7347" y2="11.1099" gradientUnits="userSpaceOnUse">
<stop offset="0.11" stop-color="#60D7AD"/>
<stop offset="0.76" stop-color="#213C3A"/>
</linearGradient>
<linearGradient id="paint5_linear_1734_1067" x1="2.8589" y1="11.665" x2="8.40758" y2="14.0617" gradientUnits="userSpaceOnUse">
<stop offset="0.11" stop-color="#60D7AD"/>
<stop offset="0.76" stop-color="#213C3A"/>
</linearGradient>
<linearGradient id="paint6_linear_1734_1067" x1="9.85714" y1="11.6719" x2="11.3674" y2="14.4968" gradientUnits="userSpaceOnUse">
<stop offset="0.11" stop-color="#60D7AD"/>
<stop offset="0.76" stop-color="#213C3A"/>
</linearGradient>
<linearGradient id="paint7_linear_1734_1067" x1="16.0139" y1="11.6719" x2="17.7973" y2="13.8312" gradientUnits="userSpaceOnUse">
<stop offset="0.11" stop-color="#60D7AD"/>
<stop offset="0.76" stop-color="#213C3A"/>
</linearGradient>
<linearGradient id="paint8_linear_1734_1067" x1="9.80371" y1="15.1719" x2="10.7347" y2="18.5474" gradientUnits="userSpaceOnUse">
<stop offset="0.11" stop-color="#60D7AD"/>
<stop offset="0.76" stop-color="#213C3A"/>
</linearGradient>
<linearGradient id="paint9_linear_1734_1067" x1="2.8589" y1="19.1025" x2="8.40758" y2="21.4992" gradientUnits="userSpaceOnUse">
<stop offset="0.11" stop-color="#60D7AD"/>
<stop offset="0.76" stop-color="#213C3A"/>
</linearGradient>
<linearGradient id="paint10_linear_1734_1067" x1="9.85714" y1="19.1094" x2="11.3674" y2="21.9343" gradientUnits="userSpaceOnUse">
<stop offset="0.11" stop-color="#60D7AD"/>
<stop offset="0.76" stop-color="#213C3A"/>
</linearGradient>
<linearGradient id="paint11_linear_1734_1067" x1="16.0139" y1="19.1094" x2="17.7973" y2="21.2687" gradientUnits="userSpaceOnUse">
<stop offset="0.11" stop-color="#60D7AD"/>
<stop offset="0.76" stop-color="#213C3A"/>
</linearGradient>
<linearGradient id="paint12_linear_1734_1067" x1="9.80371" y1="22.6094" x2="10.7347" y2="25.9849" gradientUnits="userSpaceOnUse">
<stop offset="0.11" stop-color="#60D7AD"/>
<stop offset="0.76" stop-color="#213C3A"/>
</linearGradient>
<clipPath id="clip0_1734_1067">
<rect width="22.0938" height="28" fill="white"/>
</clipPath>
</defs>
</svg>
