<svg width="29" height="23" viewBox="0 0 29 23" fill="none" xmlns="http://www.w3.org/2000/svg">
<path opacity="0.946" fill-rule="evenodd" clip-rule="evenodd" d="M1.59231 0.00371423C4.56075 -0.00619013 7.52914 0.00371423 10.4974 0.0334214C11.4565 0.286865 11.9972 0.910715 12.1192 1.90497C12.1291 5.92548 12.1586 9.94587 12.2077 13.9661C13.105 13.3468 13.6456 12.4952 13.8295 11.4113C13.7695 9.29284 14.6639 7.74807 16.5128 6.77694C16.5619 5.07407 16.5914 3.37084 16.6013 1.66731C16.7838 0.794738 17.3047 0.250105 18.1641 0.0334214C21.1325 -0.00619013 24.1009 -0.00619013 27.0692 0.0334214C27.9047 0.241371 28.4256 0.766196 28.6321 1.6079C28.6714 8.20289 28.6714 14.7979 28.6321 21.3929C28.4195 22.2605 27.8789 22.7854 27.0103 22.9673C24.0812 23.007 21.1522 23.007 18.2231 22.9673C17.3679 22.7396 16.8273 22.195 16.6013 21.3334C16.5619 17.1547 16.5619 12.9758 16.6013 8.79703C16.7449 8.51636 16.971 8.42724 17.2795 8.52967C17.3708 8.6018 17.4396 8.69092 17.4859 8.79703C17.5154 12.1638 17.5252 15.5306 17.5154 18.8975C20.9163 18.8975 24.3171 18.8975 27.7179 18.8975C27.7278 13.1738 27.7179 7.45029 27.6885 1.72673C27.5607 1.36034 27.315 1.11278 26.9513 0.98405C24.0812 0.944439 21.2111 0.944439 18.341 0.98405C17.9381 1.11278 17.6727 1.38015 17.5449 1.78614C17.4957 3.35112 17.5055 4.91567 17.5744 6.47987C18.4152 6.38463 19.2604 6.33514 20.1103 6.33134C19.9998 6.20009 19.872 6.09118 19.7269 6.00456C19.4574 5.41303 19.6441 5.14567 20.2872 5.20247C20.7885 5.66786 21.2897 6.13331 21.791 6.5987C21.8304 6.77694 21.8304 6.95519 21.791 7.13343C21.3094 7.53941 20.8278 7.94545 20.3462 8.35142C19.9517 8.50923 19.6962 8.38048 19.5795 7.96523C19.635 7.68129 19.7922 7.47334 20.0513 7.34138C19.2826 7.29224 18.5159 7.31209 17.7513 7.40079C16.111 7.80558 15.138 8.84534 14.8321 10.52C14.8729 12.7073 13.9195 14.262 11.9718 15.1841C11.3417 15.4046 10.693 15.5135 10.0256 15.5108C9.74799 16.3895 9.1484 16.8648 8.22692 16.9368C7.08123 16.8223 6.462 16.1886 6.36923 15.0355C6.5169 13.6889 7.26387 13.0651 8.61026 13.164C9.38288 13.3245 9.85468 13.7899 10.0256 14.5602C10.4231 14.5595 10.8162 14.5199 11.2051 14.4414C11.215 10.2823 11.2051 6.12333 11.1756 1.96439C11.1058 1.47797 10.8404 1.15119 10.3795 0.98405C7.44699 0.925474 4.51792 0.945276 1.59231 1.04346C1.24868 1.23112 1.04227 1.51829 0.973078 1.90497C0.943591 7.56912 0.93376 13.2333 0.943591 18.8975C4.3641 18.8975 7.78462 18.8975 11.2051 18.8975C11.1953 18.0852 11.2051 17.2733 11.2346 16.4615C11.4338 16.209 11.6795 16.1595 11.9718 16.3129C12.0284 16.3972 12.0775 16.4864 12.1192 16.5803C12.1586 18.0854 12.1586 19.5906 12.1192 21.0958C12.0088 22.0022 11.5272 22.6062 10.6744 22.9079C7.66932 23.0058 4.66165 23.0257 1.65128 22.9673C0.745408 22.728 0.204808 22.1438 0.0294887 21.2146C-0.00982955 14.7385 -0.00982955 8.2623 0.0294887 1.78614C0.209644 0.882131 0.730588 0.287988 1.59231 0.00371423ZM8.02051 14.0849C9.00043 14.1504 9.32479 14.6455 8.99359 15.5703C8.51808 16.0872 8.02665 16.107 7.51923 15.6297C7.15082 14.9311 7.31789 14.4162 8.02051 14.0849ZM0.943591 19.8481C4.3641 19.8481 7.78462 19.8481 11.2051 19.8481C11.2401 20.3925 11.191 20.9272 11.0577 21.4523C10.9267 21.6833 10.7399 21.8516 10.4974 21.9573C9.02668 22.0258 7.55232 22.0555 6.07436 22.0464C4.59643 22.0555 3.12207 22.0258 1.65128 21.9573C1.36624 21.8285 1.15983 21.6206 1.03205 21.3334C0.951264 20.8424 0.921777 20.3473 0.943591 19.8481ZM17.5154 19.8481C20.9163 19.8481 24.3171 19.8481 27.7179 19.8481C27.7277 20.304 27.7179 20.7596 27.6885 21.2146C27.5719 21.5387 27.3655 21.7862 27.0692 21.9573C25.5886 22.0258 24.1044 22.0555 22.6167 22.0464C21.1914 22.0365 19.7663 22.0266 18.341 22.0167C18.0006 21.8916 17.7549 21.6639 17.6038 21.3334C17.5209 20.8433 17.4914 20.3482 17.5154 19.8481Z" fill="url(#paint0_linear_1734_1128)"/>
<path opacity="0.919" fill-rule="evenodd" clip-rule="evenodd" d="M5.30597 20.5027C5.81745 20.4929 6.32858 20.5027 6.8393 20.5324C7.06205 20.7054 7.13087 20.9331 7.04571 21.2157C6.97412 21.3077 6.88566 21.377 6.78033 21.4236C6.30853 21.4633 5.83674 21.4633 5.36494 21.4236C4.91453 21.1414 4.89488 20.8344 5.30597 20.5027Z" fill="url(#paint1_linear_1734_1128)"/>
<path opacity="0.916" fill-rule="evenodd" clip-rule="evenodd" d="M21.8784 20.5027C22.3703 20.4929 22.8617 20.5027 23.3528 20.5324C23.61 20.6647 23.6985 20.8726 23.6182 21.1563C23.5691 21.285 23.4806 21.3741 23.3528 21.4236C22.8176 21.4779 22.2868 21.4581 21.7605 21.3642C21.4988 21.0299 21.5381 20.7428 21.8784 20.5027Z" fill="url(#paint2_linear_1734_1128)"/>
<defs>
<linearGradient id="paint0_linear_1734_1128" x1="-0.343341" y1="-8.97869e-07" x2="31.4313" y2="17.1001" gradientUnits="userSpaceOnUse">
<stop offset="0.11" stop-color="#60D7AD"/>
<stop offset="0.76" stop-color="#213C3A"/>
</linearGradient>
<linearGradient id="paint1_linear_1734_1128" x1="4.98693" y1="20.499" x2="6.56321" y2="21.9751" gradientUnits="userSpaceOnUse">
<stop offset="0.11" stop-color="#60D7AD"/>
<stop offset="0.76" stop-color="#213C3A"/>
</linearGradient>
<linearGradient id="paint2_linear_1734_1128" x1="21.5652" y1="20.499" x2="23.141" y2="21.9657" gradientUnits="userSpaceOnUse">
<stop offset="0.11" stop-color="#60D7AD"/>
<stop offset="0.76" stop-color="#213C3A"/>
</linearGradient>
</defs>
</svg>
