<svg width="28" height="28" viewBox="0 0 28 28" fill="none" xmlns="http://www.w3.org/2000/svg">
<g clip-path="url(#clip0_1734_1098)">
<path opacity="0.908" fill-rule="evenodd" clip-rule="evenodd" d="M12.9876 19.7144C13.6441 19.7052 14.3003 19.7144 14.9563 19.7417C15.1948 19.8634 15.2768 20.0548 15.2024 20.3159C15.1568 20.4344 15.0748 20.5165 14.9563 20.562C14.3001 20.5985 13.6438 20.5985 12.9876 20.562C12.7122 20.3972 12.6484 20.1694 12.7961 19.8784C12.8588 19.8163 12.9226 19.7616 12.9876 19.7144Z" fill="url(#paint0_linear_1734_1098)"/>
<path opacity="0.926" fill-rule="evenodd" clip-rule="evenodd" d="M11.6485 6.89108C11.8958 6.88261 12.0689 6.99198 12.168 7.21921C12.1862 8.16711 12.2045 9.11506 12.2227 10.063C12.5371 10.5705 12.9654 10.689 13.5078 10.4184C13.6286 10.316 13.7289 10.1975 13.8086 10.063C13.8268 9.11506 13.8451 8.16711 13.8633 7.21921C14.0542 6.86155 14.3094 6.80686 14.6289 7.05514C14.7187 8.1075 14.7369 9.16482 14.6836 10.227C14.4688 10.8425 14.0404 11.2345 13.3985 11.4028C12.6116 11.5419 11.9826 11.2958 11.5117 10.6645C11.4263 10.5302 11.3716 10.3843 11.3477 10.227C11.3112 9.20617 11.3112 8.18537 11.3477 7.16452C11.4082 7.02162 11.5085 6.93046 11.6485 6.89108Z" fill="url(#paint1_linear_1734_1098)"/>
<path opacity="0.924" fill-rule="evenodd" clip-rule="evenodd" d="M16.1328 6.891C16.3823 6.88339 16.5555 6.99277 16.6524 7.21912C16.6888 8.53162 16.6888 9.84412 16.6524 11.1566C16.5192 11.415 16.3095 11.497 16.0235 11.4027C15.9596 11.3389 15.8959 11.2751 15.832 11.2113C15.7956 9.86233 15.7956 8.51341 15.832 7.16443C15.8926 7.02153 15.9928 6.93037 16.1328 6.891Z" fill="url(#paint2_linear_1734_1098)"/>
<path d="M20.3984 9.1875C20.3984 12.7213 17.5338 15.5859 14 15.5859C10.4662 15.5859 7.60156 12.7213 7.60156 9.1875C7.60156 5.65374 10.4662 2.78906 14 2.78906C17.5338 2.78906 20.3984 5.65374 20.3984 9.1875ZM8.54941 9.1875C8.54941 12.1978 10.9897 14.6381 14 14.6381C17.0103 14.6381 19.4506 12.1978 19.4506 9.1875C19.4506 6.17722 17.0103 3.73691 14 3.73691C10.9897 3.73691 8.54941 6.17722 8.54941 9.1875Z" fill="url(#paint3_linear_1734_1098)"/>
<path fill-rule="evenodd" clip-rule="evenodd" d="M26.4961 -0.0273438H1.44922C0.696155 0.233497 0.20397 0.743914 -0.0273438 1.50391V21.1914C0.211534 22.0225 0.758406 22.5238 1.61328 22.6953C4.60281 22.7227 7.59237 22.7318 10.582 22.7227V27.1523C9.99841 27.1432 9.41505 27.1523 8.83203 27.1797C8.78194 27.2001 8.73633 27.2275 8.69531 27.2617C8.55679 27.5433 8.60234 27.7803 8.83203 27.9727H19.1133C19.263 27.8833 19.3359 27.7466 19.332 27.5625C19.3429 27.3835 19.27 27.2559 19.1133 27.1797C18.5303 27.1523 17.9469 27.1432 17.3633 27.1523C17.3724 26.6416 17.3633 26.1312 17.3359 25.6211V25.2902C17.3662 25.013 17.3781 24.5807 17.3633 23.9258C17.3586 23.7198 17.3609 23.5184 17.3633 23.3181C17.3655 23.1197 17.3678 22.9224 17.3633 22.7227C20.3529 22.7318 23.3425 22.7227 26.332 22.6953C27.1869 22.5238 27.7338 22.0225 27.9727 21.1914V1.50391C27.7413 0.743914 27.2491 0.233497 26.4961 -0.0273438ZM16.4877 22.75C16.4879 22.7409 16.4881 22.7318 16.4883 22.7227H11.457V27.1523H16.4609V22.75H16.4877ZM26.0039 0.820312C17.9831 0.792969 9.96226 0.783852 1.94141 0.792969C1.42495 0.847197 1.06949 1.12063 0.875 1.61328C0.847656 6.93618 0.83854 12.2591 0.847656 17.582H27.0977C27.1068 12.2591 27.0977 6.93618 27.0703 1.61328C26.886 1.11913 26.5305 0.854798 26.0039 0.820312ZM27.0977 18.457H0.847656C0.838545 19.314 0.847662 20.1708 0.875 21.0273C0.998479 21.4588 1.28103 21.7231 1.72266 21.8203C9.8893 21.8568 18.056 21.8568 26.2227 21.8203C26.6643 21.7231 26.9468 21.4588 27.0703 21.0273C27.0977 20.1708 27.1068 19.314 27.0977 18.457Z" fill="url(#paint4_linear_1734_1098)"/>
</g>
<defs>
<linearGradient id="paint0_linear_1734_1098" x1="12.6887" y1="19.7109" x2="14.1112" y2="21.4664" gradientUnits="userSpaceOnUse">
<stop offset="0.11" stop-color="#60D7AD"/>
<stop offset="0.76" stop-color="#213C3A"/>
</linearGradient>
<linearGradient id="paint1_linear_1734_1098" x1="11.2797" y1="6.89062" x2="15.6749" y2="8.30617" gradientUnits="userSpaceOnUse">
<stop offset="0.11" stop-color="#60D7AD"/>
<stop offset="0.76" stop-color="#213C3A"/>
</linearGradient>
<linearGradient id="paint2_linear_1734_1098" x1="15.7942" y1="6.89062" x2="17.0367" y2="6.99382" gradientUnits="userSpaceOnUse">
<stop offset="0.11" stop-color="#60D7AD"/>
<stop offset="0.76" stop-color="#213C3A"/>
</linearGradient>
<linearGradient id="paint3_linear_1734_1098" x1="7.44827" y1="2.78906" x2="22.868" y2="9.4483" gradientUnits="userSpaceOnUse">
<stop offset="0.11" stop-color="#60D7AD"/>
<stop offset="0.76" stop-color="#213C3A"/>
</linearGradient>
<linearGradient id="paint4_linear_1734_1098" x1="-0.36276" y1="-0.0273448" x2="33.3762" y2="14.5433" gradientUnits="userSpaceOnUse">
<stop offset="0.11" stop-color="#60D7AD"/>
<stop offset="0.76" stop-color="#213C3A"/>
</linearGradient>
<clipPath id="clip0_1734_1098">
<rect width="28" height="28" fill="white"/>
</clipPath>
</defs>
</svg>
