<svg width="28" height="28" viewBox="0 0 28 28" fill="none" xmlns="http://www.w3.org/2000/svg">
<g clip-path="url(#clip0_1734_1054)">
<path opacity="0.909" fill-rule="evenodd" clip-rule="evenodd" d="M3.08793 1.99658C3.61689 1.98747 4.14554 1.99659 4.67387 2.02392C4.9322 2.1571 5.01423 2.36673 4.91996 2.65283C4.85357 2.73753 4.77154 2.80133 4.67387 2.84423C4.16345 2.88069 3.65303 2.88069 3.14262 2.84423C2.72673 2.58689 2.70851 2.30434 3.08793 1.99658Z" fill="url(#paint0_linear_1734_1054)"/>
<path opacity="0.927" fill-rule="evenodd" clip-rule="evenodd" d="M6.47974 1.99658C8.0111 1.98747 9.54235 1.99658 11.0735 2.02392C11.3573 2.18324 11.4211 2.41111 11.2649 2.70752C11.2155 2.77322 11.1518 2.8188 11.0735 2.84424C9.54224 2.8807 8.01099 2.8807 6.47974 2.84424C6.20439 2.67945 6.14057 2.45159 6.28834 2.16064C6.35095 2.0985 6.41477 2.04381 6.47974 1.99658Z" fill="url(#paint1_linear_1734_1054)"/>
<path opacity="0.926" fill-rule="evenodd" clip-rule="evenodd" d="M3.08927 3.96533C4.63885 3.95622 6.18835 3.96533 7.7377 3.99267C8.1151 4.28909 8.09684 4.56252 7.68302 4.81299C6.16998 4.84945 4.65698 4.84945 3.14395 4.81299C2.72628 4.55318 2.70806 4.27063 3.08927 3.96533Z" fill="url(#paint2_linear_1734_1054)"/>
<path opacity="0.906" fill-rule="evenodd" clip-rule="evenodd" d="M9.48752 3.96533C10.0347 3.95622 10.5816 3.96534 11.1281 3.99267C11.3311 4.13496 11.3949 4.32637 11.3195 4.56689C11.274 4.68538 11.192 4.76741 11.0735 4.81298C10.5631 4.84944 10.0526 4.84944 9.54221 4.81298C9.12478 4.55605 9.10656 4.2735 9.48752 3.96533Z" fill="url(#paint3_linear_1734_1054)"/>
<path fill-rule="evenodd" clip-rule="evenodd" d="M12.2777 -0.0273438H2.1605C1.65853 0.174038 1.33952 0.538622 1.20347 1.06641C1.16701 2.63412 1.16701 4.20182 1.20347 5.76953C1.31569 6.37394 1.67116 6.74767 2.26987 6.89062C3.50946 6.9271 4.74904 6.9271 5.98862 6.89062C6.06688 6.8652 6.13065 6.81959 6.18003 6.75391C6.34125 6.43125 6.25922 6.20337 5.93394 6.07031L2.43394 6.01562C2.24253 5.97007 2.12404 5.85156 2.07847 5.66016C2.04201 4.18359 2.04201 2.70703 2.07847 1.23047C2.15342 0.973569 2.3266 0.83685 2.598 0.820312C5.69698 0.783852 8.7959 0.783852 11.8949 0.820312C12.1649 0.835204 12.3381 0.971923 12.4144 1.23047C12.4677 2.74688 12.4495 4.25989 12.3597 5.76953C12.2753 5.87223 12.1751 5.95427 12.0589 6.01562L7.57456 6.07031C7.47689 6.11324 7.39486 6.17701 7.32847 6.26172C7.2495 6.52181 7.31332 6.73143 7.51987 6.89062C9.12534 6.9353 10.7295 6.92623 12.3324 6.86328C12.8212 7.26086 13.2769 7.69836 13.6996 8.17578C12.9461 9.20232 12.6454 10.3508 12.7972 11.6211C11.1841 12.5369 9.57995 13.4666 7.98472 14.4102C7.19372 13.5087 6.20027 12.9892 5.00425 12.8516C3.12836 12.7458 1.69737 13.4841 0.711281 15.0664C-0.188352 16.886 -0.0242889 18.5995 1.20347 20.207C2.55452 21.6044 4.1678 22.0328 6.04331 21.4922C8.19926 20.574 9.17455 18.9425 8.96909 16.5977C8.87618 16.0827 8.73038 15.5905 8.53159 15.1211C10.0455 14.2457 11.5585 13.3707 13.0707 12.4961C13.5876 13.5599 14.3897 14.3255 15.4769 14.793C15.5134 16.2331 15.5134 17.6732 15.4769 19.1133C15.1461 18.618 14.7542 18.1715 14.3011 17.7734C13.5669 17.271 12.7831 17.1799 11.9496 17.5C11.3922 17.8592 11.2008 18.3605 11.3753 19.0039C12.6925 21.0003 14.0233 22.9873 15.3675 24.9648C15.7449 25.7215 15.9272 26.5236 15.9144 27.3711C16.0433 27.6366 16.2347 27.8371 16.4886 27.9727H23.6527C23.9296 27.8322 24.121 27.6135 24.2269 27.3164C24.2333 26.4578 24.2698 25.601 24.3363 24.7461C24.5035 24.3205 24.6858 23.9012 24.8832 23.4883C24.9465 23.2533 25.0012 23.0163 25.0472 22.7773C25.0837 22.1031 25.0837 21.4288 25.0473 20.7546V19.2762C25.0837 18.2193 25.0837 17.1624 25.0472 16.1055C24.6382 15.1088 23.9182 14.7807 22.8871 15.1211C22.4246 14.1402 21.6772 13.8303 20.6449 14.1914C20.5941 13.9439 20.4847 13.7252 20.3167 13.5352C20.8402 12.8585 21.1501 12.0929 21.2464 11.2383C21.9765 11.2201 22.7057 11.2383 23.4339 11.293C23.5981 11.9043 23.9627 12.3509 24.5277 12.6328C25.7787 13.0363 26.6811 12.6444 27.2347 11.457C27.5108 10.3049 27.1188 9.47548 26.0589 8.96875C24.7581 8.6438 23.8831 9.10864 23.4339 10.3633C22.7057 10.4179 21.9765 10.4362 21.2464 10.418C21.1549 9.56873 20.8451 8.81223 20.3167 8.14844C21.2381 7.21798 22.1678 6.29743 23.1058 5.38672C24.3408 6.3752 25.5986 6.40254 26.8792 5.46875C27.9985 4.24599 28.0988 2.94261 27.18 1.55859C26.0332 0.434064 24.7662 0.279116 23.3792 1.09375C22.2286 2.07228 21.9551 3.25718 22.5589 4.64844L19.6878 7.51953C19.5012 7.37609 19.3098 7.23937 19.1136 7.10938C17.4418 6.30416 15.8558 6.44088 14.3558 7.51953C13.9183 7.11851 13.499 6.69922 13.098 6.26172C13.2084 6.09558 13.2722 5.9133 13.2894 5.71484C13.3259 4.18359 13.3259 2.65234 13.2894 1.12109C13.1723 0.539428 12.8351 0.156616 12.2777 -0.0273438ZM24.2543 18.8641C24.2014 18.0019 24.1741 17.137 24.1722 16.2695C23.7712 15.6862 23.3701 15.6862 22.9691 16.2695C22.9662 17.2932 22.9298 18.314 22.8597 19.332C22.6045 19.6237 22.3493 19.6237 22.0941 19.332L22.0394 15.5586C21.8919 14.9972 21.5547 14.8241 21.0277 15.0391C20.925 15.1234 20.843 15.2237 20.7816 15.3398L20.7269 18.6758C20.472 19.0874 20.1986 19.1057 19.9066 18.7305L19.8519 14.5742C19.6759 14.0531 19.3386 13.8981 18.8402 14.1094C18.7139 14.1989 18.6318 14.3174 18.5941 14.4648L18.5394 18.1289C18.3426 18.4681 18.0874 18.5228 17.7738 18.293C17.7014 15.7819 17.665 13.2663 17.6644 10.7461C17.499 10.2761 17.18 10.1211 16.7074 10.2812C16.5633 10.3885 16.463 10.5252 16.4066 10.6914L16.3519 19.2227C16.3529 19.603 16.2162 19.922 15.9417 20.1797C15.4703 20.3263 15.0966 20.1895 14.8207 19.7695C14.4885 19.1822 14.042 18.6991 13.4808 18.3203C13.0965 18.1414 12.7137 18.1414 12.3324 18.3203C12.2573 18.3882 12.2027 18.4703 12.1683 18.5664C13.4439 20.5339 14.7473 22.4844 16.0785 24.418C16.5544 25.228 16.7732 26.103 16.7347 27.043C16.7757 27.0772 16.8213 27.1045 16.8714 27.125C19.0248 27.1702 21.1758 27.1611 23.3246 27.0977C23.3598 26.2764 23.4054 25.456 23.4613 24.6367C23.6645 24.0661 23.8832 23.501 24.1175 22.9414C24.1847 22.2695 24.2212 21.5951 24.2269 20.918C24.2354 20.8914 24.2446 20.8661 24.2543 20.8423V18.8641ZM26.8519 3.91016C27.0449 2.32841 26.343 1.5081 24.7464 1.44922C23.9787 1.64239 23.4592 2.11635 23.1878 2.87109C23.0044 4.00804 23.451 4.78278 24.5277 5.19531C25.6553 5.39736 26.43 4.96897 26.8519 3.91016ZM20.3441 10.3086C19.8643 8.3627 18.6156 7.41475 16.598 7.46484C15.0678 7.76437 14.1108 8.67584 13.7269 10.1992C13.5202 11.7908 14.1035 12.994 15.4769 13.8086L15.5316 10.5273C15.6766 9.85786 16.0867 9.46591 16.7621 9.35156C17.7585 9.26193 18.3509 9.70851 18.5394 10.6914L18.5941 13.2617C18.8931 13.1581 19.1939 13.1034 19.4964 13.0977C20.2103 12.303 20.4928 11.3733 20.3441 10.3086ZM26.4144 11.1289C26.4944 10.2697 26.1024 9.79573 25.2386 9.70703C25.0554 9.77102 24.873 9.85305 24.6917 9.95312C24.1084 10.5365 24.1084 11.1198 24.6917 11.7031C25.4618 12.1027 26.036 11.9113 26.4144 11.1289ZM8.09409 16.6523C7.57451 14.6739 6.28935 13.6895 4.23862 13.6992C3.6799 13.7854 3.15126 13.9768 2.65269 14.2734C1.08252 15.4666 0.654138 16.9887 1.36753 18.8398C2.21945 20.3823 3.52284 21.0295 5.27769 20.7812C7.34012 20.1764 8.27888 18.8001 8.09409 16.6523Z" fill="url(#paint4_linear_1734_1054)"/>
</g>
<defs>
<linearGradient id="paint0_linear_1734_1054" x1="2.79075" y1="1.99316" x2="4.24284" y2="3.52189" gradientUnits="userSpaceOnUse">
<stop offset="0.11" stop-color="#60D7AD"/>
<stop offset="0.76" stop-color="#213C3A"/>
</linearGradient>
<linearGradient id="paint1_linear_1734_1054" x1="6.1494" y1="1.99316" x2="7.14477" y2="4.50708" gradientUnits="userSpaceOnUse">
<stop offset="0.11" stop-color="#60D7AD"/>
<stop offset="0.76" stop-color="#213C3A"/>
</linearGradient>
<linearGradient id="paint2_linear_1734_1054" x1="2.75422" y1="3.96191" x2="3.74198" y2="6.48292" gradientUnits="userSpaceOnUse">
<stop offset="0.11" stop-color="#60D7AD"/>
<stop offset="0.76" stop-color="#213C3A"/>
</linearGradient>
<linearGradient id="paint3_linear_1734_1054" x1="9.18926" y1="3.96191" x2="10.6416" y2="5.48654" gradientUnits="userSpaceOnUse">
<stop offset="0.11" stop-color="#60D7AD"/>
<stop offset="0.76" stop-color="#213C3A"/>
</linearGradient>
<linearGradient id="paint4_linear_1734_1054" x1="-0.190726" y1="-0.0273448" x2="33.2661" y2="14.2463" gradientUnits="userSpaceOnUse">
<stop offset="0.11" stop-color="#60D7AD"/>
<stop offset="0.76" stop-color="#213C3A"/>
</linearGradient>
<clipPath id="clip0_1734_1054">
<rect width="28" height="28" fill="white"/>
</clipPath>
</defs>
</svg>
