<svg width="31" height="22" viewBox="0 0 31 22" fill="none" xmlns="http://www.w3.org/2000/svg">
<path opacity="0.936" fill-rule="evenodd" clip-rule="evenodd" d="M30.4432 0.297297C30.4432 3.82521 30.4432 7.35317 30.4432 10.8811C29.5827 11.4206 28.7106 11.9458 27.827 12.4568C27.5731 12.5167 27.3352 12.487 27.1135 12.3676C26.5784 12.6748 26.0432 12.982 25.5081 13.2892C25.9305 14.6048 25.4944 15.4967 24.2 15.9649C24.4739 16.864 24.236 17.5973 23.4865 18.1649C22.9783 18.4677 22.4431 18.5371 21.8811 18.373C21.7123 19.5526 21.0385 20.2066 19.8595 20.3351C19.5587 20.3021 19.2712 20.2229 18.9973 20.0973C18.9183 21.2862 18.284 21.9205 17.0946 22C16.8823 21.9974 16.6742 21.9677 16.4703 21.9108C15.9913 21.6862 15.5255 21.4385 15.073 21.1676C14.5032 21.6151 13.859 21.7835 13.1405 21.673C12.28 21.4268 11.7746 20.8619 11.6243 19.9784C10.4966 20.4283 9.62452 20.131 9.00811 19.0865C8.89145 18.7799 8.84192 18.4628 8.85946 18.1351C7.30477 18.1559 6.56153 17.383 6.62973 15.8162C5.35295 15.4626 4.80791 14.6302 4.99459 13.3189C4.43964 13.0018 3.88468 12.6847 3.32973 12.3676C3.0847 12.501 2.82704 12.5208 2.55676 12.427C1.78378 11.9811 1.01081 11.5351 0.237838 11.0892C0.144472 11.0061 0.0651921 10.9169 0 10.8216C0 7.31351 0 3.80541 0 0.297297C0.176957 0.0606665 0.414795 -0.0285227 0.713513 0.0297297C1.66486 0.564865 2.61622 1.1 3.56757 1.63514C3.87135 1.83528 3.94072 2.10284 3.77568 2.43784C3.65543 2.5143 3.52661 2.57376 3.38919 2.61622C2.56256 2.18615 1.74995 1.73028 0.951351 1.24865C0.881986 4.2809 0.872074 7.31334 0.921622 10.3459C1.53603 10.7027 2.15045 11.0595 2.76486 11.4162C4.09789 9.16651 5.41591 6.90705 6.71892 4.63784C6.09174 4.24969 5.4674 3.85327 4.84595 3.44865C4.69677 2.90394 4.90488 2.67597 5.47027 2.76486C6.10452 3.12162 6.73872 3.47838 7.37297 3.83514C7.49837 3.90298 7.60736 3.99217 7.7 4.1027C7.74757 4.3029 7.8169 4.49121 7.90811 4.66757C8.46304 4.98466 9.01804 5.30182 9.57297 5.61892C9.99406 6.15608 10.549 6.39391 11.2378 6.33243C12.1694 5.7973 13.1009 5.26216 14.0324 4.72703C14.8168 4.39637 15.6095 4.37657 16.4108 4.66757C17.2535 5.15835 18.1057 5.63402 18.9676 6.09459C19.491 6.29854 20.0063 6.27874 20.5135 6.03514C20.6102 5.87888 20.7291 5.74016 20.8703 5.61892C21.4697 5.29451 22.0543 4.94768 22.6243 4.57838C22.5983 4.22739 22.747 3.97968 23.0703 3.83514C25.1315 2.64595 27.1928 1.45676 29.2541 0.267568C29.4598 0.144778 29.6778 0.0555886 29.9081 0C30.1354 0.0241346 30.3137 0.12323 30.4432 0.297297ZM29.4324 1.24865C29.5117 2.74453 29.5513 4.26075 29.5513 5.7973C29.5414 7.31351 29.5315 8.82973 29.5216 10.3459C28.9072 10.7027 28.2928 11.0595 27.6784 11.4162C27.397 10.9957 27.1394 10.5596 26.9054 10.1081C26.6478 9.87027 26.3901 9.87027 26.1324 10.1081C26.0775 10.1993 26.0478 10.2984 26.0432 10.4054C26.1662 10.8 26.3446 11.1667 26.5784 11.5054C26.1294 11.8147 25.6637 12.1021 25.1811 12.3676C24.0093 10.3311 22.8301 8.29965 21.6432 6.27297C22.1285 6.02045 22.6042 5.75288 23.0703 5.47027C23.7461 6.59227 24.4101 7.722 25.0622 8.85946C25.2833 9.06174 25.5311 9.09147 25.8054 8.94865C25.918 8.77521 25.9477 8.5869 25.8946 8.38378C25.1637 7.13008 24.4402 5.8715 23.7243 4.60811C25.6406 3.50169 27.5433 2.38189 29.4324 1.24865ZM23.6649 11.7135C22.2212 10.8924 20.7744 10.0699 19.3243 9.24595C18.7218 9.26973 18.5632 9.54723 18.8486 10.0784C20.6721 11.1288 22.4955 12.1793 24.3189 13.2297C24.808 13.7175 24.8476 14.2329 24.4378 14.7757C24.1689 14.9643 23.8716 15.0238 23.5459 14.9541C22.4186 14.3507 21.3087 13.7165 20.2162 13.0514C19.6443 12.87 19.3966 13.0781 19.473 13.6757C19.5424 13.7451 19.6117 13.8144 19.6811 13.8838C20.8206 14.5228 21.9503 15.1768 23.0703 15.8459C23.5336 16.4873 23.4346 17.0225 22.773 17.4514C22.3658 17.553 21.9892 17.4737 21.6432 17.2135C20.6522 16.6387 19.6613 16.064 18.6703 15.4892C18.152 15.4328 17.9439 15.6607 18.0459 16.173C18.8239 16.6959 19.6266 17.1815 20.4541 17.6297C21.0079 18.1483 21.0079 18.6637 20.4541 19.1757C19.9804 19.44 19.5246 19.4003 19.0865 19.0568C18.4818 18.685 17.8674 18.3283 17.2432 17.9865C16.6909 17.89 16.4828 18.118 16.6189 18.6703C16.9208 18.9155 17.2478 19.1236 17.6 19.2946C18.0678 19.7234 18.1372 20.209 17.8081 20.7514C17.4625 21.046 17.076 21.1154 16.6486 20.9595C16.3316 20.7613 16.0144 20.563 15.6973 20.3649C16.032 19.543 15.8932 18.8096 15.2811 18.1649C14.721 17.708 14.0966 17.5792 13.4081 17.7784C13.1707 16.5544 12.4274 15.9598 11.1784 15.9946C11.2273 15.0121 10.7912 14.3482 9.87027 14.0027C10.2305 13.1219 10.072 12.3489 9.39459 11.6838C8.51721 11.0897 7.64518 11.0996 6.77838 11.7135C7.68484 10.1025 8.60646 8.49705 9.54324 6.8973C9.76503 7.01758 9.99293 7.12657 10.227 7.22432C9.74106 8.21224 9.91944 9.06454 10.7622 9.78108C11.349 10.1335 11.9634 10.193 12.6054 9.95946C13.6184 9.39358 14.6292 8.82872 15.6378 8.26486C16.1311 8.53142 16.6266 8.79899 17.1243 9.06757C17.4989 9.16794 17.717 9.02916 17.7784 8.65135C17.7838 8.48403 17.7244 8.34531 17.6 8.23514C17.1243 7.95764 16.6486 7.6802 16.173 7.4027C15.6919 7.21303 15.2361 7.27249 14.8054 7.58108C13.9111 8.12734 12.9994 8.64267 12.0703 9.12703C11.4089 9.1699 11.0125 8.86267 10.8811 8.20541C10.9128 7.91411 11.0317 7.66635 11.2378 7.46216C12.3803 6.76203 13.5497 6.10797 14.7459 5.5C15.1875 5.37763 15.6236 5.39743 16.0541 5.55946C16.9383 6.07087 17.8302 6.56641 18.7297 7.04595C19.4748 7.27701 20.1983 7.22742 20.9 6.8973C21.8368 8.49705 22.7584 10.1025 23.6649 11.7135ZM7.31351 5.47027C7.80578 5.73635 8.30131 6.00392 8.8 6.27297C7.61319 8.29965 6.43393 10.3311 5.26216 12.3676C4.77958 12.1021 4.31382 11.8147 3.86486 11.5054C5.02293 9.49621 6.17249 7.48452 7.31351 5.47027ZM8.02703 12.1892C8.68072 12.1989 9.03748 12.526 9.0973 13.1703C9.07643 13.5295 8.91785 13.807 8.62162 14.0027C8.16575 14.2603 7.70993 14.518 7.25405 14.7757C6.661 14.9677 6.23492 14.7794 5.97568 14.2108C5.85684 13.7143 6.00546 13.3278 6.42162 13.0514C6.95432 12.7435 7.48945 12.4561 8.02703 12.1892ZM9.03784 14.8649C9.88942 14.8542 10.2759 15.2704 10.1973 16.1135C9.97474 16.5175 9.64771 16.8049 9.21622 16.9757C8.36963 17.4245 7.81464 17.1867 7.55135 16.2622C7.5969 15.953 7.73562 15.6953 7.96757 15.4892C8.33437 15.2892 8.69113 15.0811 9.03784 14.8649ZM11.1784 16.9459C12.1027 16.914 12.4892 17.35 12.3378 18.2541C11.9262 18.7625 11.4009 19.0994 10.7622 19.2649C10.079 19.1279 9.77186 18.7117 9.84054 18.0162C9.93972 17.7878 10.0884 17.5995 10.2865 17.4514C10.5875 17.2812 10.8848 17.1128 11.1784 16.9459ZM13.8541 18.6108C14.7602 18.7342 15.0674 19.2297 14.7757 20.0973C14.3855 20.5455 13.8999 20.7536 13.3189 20.7216C12.7372 20.4799 12.5291 20.0537 12.6946 19.4432C12.9963 19.0404 13.3828 18.7629 13.8541 18.6108Z" fill="url(#paint0_linear_1742_1155)"/>
<defs>
<linearGradient id="paint0_linear_1742_1155" x1="-0.364684" y1="-8.58831e-07" x2="31.7063" y2="19.1658" gradientUnits="userSpaceOnUse">
<stop offset="0.11" stop-color="#60D7AD"/>
<stop offset="0.76" stop-color="#213C3A"/>
</linearGradient>
</defs>
</svg>
