<svg width="40" height="40" viewBox="0 0 40 40" fill="none" xmlns="http://www.w3.org/2000/svg">
<rect y="-0.00732422" width="40" height="40" rx="20" fill="#D7E0E5" fill-opacity="0.2"/>
<g clip-path="url(#clip0_990_1464)">
<path d="M20 9.99268C14.477 9.99268 10 14.4697 10 19.9927C10 24.9837 13.657 29.1207 18.438 29.8717V22.8827H15.898V19.9927H18.438V17.7897C18.438 15.2837 19.93 13.8997 22.215 13.8997C23.309 13.8997 24.453 14.0947 24.453 14.0947V16.5547H23.193C21.95 16.5547 21.563 17.3257 21.563 18.1167V19.9927H24.336L23.893 22.8827H21.563V29.8717C26.343 29.1217 30 24.9827 30 19.9927C30 14.4697 25.523 9.99268 20 9.99268Z" fill="white"/>
</g>
<defs>
<clipPath id="clip0_990_1464">
<rect width="24" height="24" fill="white" transform="translate(8 7.99268)"/>
</clipPath>
</defs>
</svg>
