<svg width="21" height="20" viewBox="0 0 21 20" fill="none" xmlns="http://www.w3.org/2000/svg">
<path opacity="0.939" fill-rule="evenodd" clip-rule="evenodd" d="M9.82955 0.00256473C9.94242 -0.00432856 10.0545 0.00267395 10.1656 0.023568C10.2426 0.0445714 10.2916 0.0935805 10.3126 0.170591C10.3336 0.632454 10.3406 1.09453 10.3336 1.55681C13.6524 1.81869 16.0818 3.41494 17.6218 6.34557C18.1124 7.39779 18.3854 8.50395 18.4409 9.66409C18.9032 9.65707 19.3653 9.66409 19.8271 9.68509C20.1057 9.89324 20.1057 10.1033 19.8271 10.3152C19.3653 10.3362 18.9032 10.3432 18.4409 10.3362C18.1952 13.6236 16.6269 16.039 13.7362 17.5823C12.6607 18.0997 11.5265 18.3868 10.3336 18.4435C10.3406 18.9058 10.3336 19.3678 10.3126 19.8297C10.2484 19.9564 10.1434 20.0124 9.99758 19.9977C9.84312 20.0046 9.7381 19.9346 9.68253 19.7877C9.66152 19.3399 9.65451 18.8918 9.66152 18.4435C6.21122 18.1585 3.73985 16.4642 2.24735 13.3607C1.84426 12.3924 1.61323 11.3842 1.55424 10.3362C1.09196 10.3432 0.629888 10.3362 0.168025 10.3152C-0.0560085 10.1052 -0.0560085 9.89513 0.168025 9.68509C0.629888 9.66409 1.09196 9.65707 1.55424 9.66409C1.83686 6.21228 3.53112 3.7409 6.63705 2.24992C7.60559 1.84676 8.61375 1.61572 9.66152 1.55681C9.65451 1.10852 9.66152 0.660452 9.68253 0.212598C9.72441 0.136016 9.77343 0.0660073 9.82955 0.00256473ZM9.57751 2.22892C9.66072 2.77324 9.68874 3.33333 9.66152 3.90918C7.25648 4.10955 5.5132 5.28574 4.4317 7.43774C4.10514 8.14433 3.9301 8.88646 3.90662 9.66409C3.34653 9.66409 2.78644 9.66409 2.22635 9.66409C2.48472 6.59017 3.98294 4.3568 6.72106 2.96403C7.63487 2.54938 8.58699 2.30434 9.57751 2.22892ZM10.3336 2.22892C13.4813 2.50981 15.7426 4.06406 17.1177 6.89165C17.4934 7.77833 17.7104 8.70247 17.7688 9.66409C17.2087 9.66409 16.6486 9.66409 16.0885 9.66409C15.8861 7.25757 14.71 5.5143 12.56 4.43426C11.8534 4.1077 11.1113 3.93266 10.3336 3.90918C10.3336 3.34909 10.3336 2.789 10.3336 2.22892ZM9.32547 4.58129C9.4375 4.58129 9.54949 4.58129 9.66152 4.58129C9.65455 4.98758 9.66152 5.39365 9.68253 5.79948C9.89441 6.07882 10.1044 6.07882 10.3126 5.79948C10.3336 5.39365 10.3406 4.98758 10.3336 4.58129C12.355 4.7759 13.8602 5.75604 14.8493 7.52175C15.1895 8.19613 15.3785 8.91024 15.4164 9.66409C15.0101 9.65712 14.6041 9.66409 14.1982 9.68509C13.9874 9.84144 13.9525 10.0305 14.0932 10.2522C14.1247 10.2785 14.1598 10.2995 14.1982 10.3152C14.6041 10.3362 15.0101 10.3432 15.4164 10.3362C15.3341 11.6345 14.851 12.7546 13.9672 13.6967C13.5073 12.4597 12.6601 11.6055 11.4258 11.1343C12.3724 10.2587 12.5614 9.23655 11.9929 8.06784C11.3479 7.13869 10.4728 6.79567 9.36748 7.03867C8.16378 7.47819 7.61068 8.33933 7.70821 9.62208C7.81042 10.2327 8.09749 10.7368 8.56935 11.1343C7.33503 11.6055 6.48788 12.4597 6.02795 13.6967C5.14346 12.7535 4.66038 11.6333 4.57872 10.3362C4.98501 10.3432 5.39109 10.3362 5.79691 10.3152C5.9985 10.1862 6.04748 10.0111 5.94394 9.79011C5.906 9.73966 5.85702 9.70463 5.79691 9.68509C5.39109 9.66409 4.98501 9.65712 4.57872 9.66409C4.81862 7.31693 6.03681 5.71366 8.2333 4.85433C8.59804 4.74385 8.96207 4.65282 9.32547 4.58129ZM9.95557 7.60576C10.9702 7.7033 11.5303 8.2564 11.6358 9.26503C11.5956 10.0755 11.1896 10.6076 10.4176 10.8613C9.46216 11.0122 8.79707 10.6411 8.42233 9.7481C8.25531 8.5402 8.7664 7.82609 9.95557 7.60576ZM2.22635 10.3362C2.78644 10.3362 3.34653 10.3362 3.90662 10.3362C4.10589 12.7036 5.25406 14.4329 7.35116 15.524C8.08405 15.8648 8.8542 16.0538 9.66152 16.0911C9.67551 16.6519 9.66148 17.212 9.61952 17.7714C6.40156 17.4577 4.12623 15.8335 2.79344 12.8986C2.47834 12.0723 2.28931 11.2181 2.22635 10.3362ZM16.1305 10.3362C16.6766 10.3362 17.2227 10.3362 17.7688 10.3362C17.4879 13.4839 15.9337 15.7452 13.1061 17.1203C12.2192 17.496 11.2951 17.713 10.3336 17.7714C10.3336 17.2113 10.3336 16.6512 10.3336 16.0911C12.3512 15.9403 13.9405 15.0442 15.1014 13.4027C15.7081 12.4692 16.0512 11.447 16.1305 10.3362ZM9.57751 11.5964C11.0698 11.5059 12.2249 12.08 13.0431 13.3187C13.1969 13.5844 13.3159 13.8644 13.4001 14.1588C13.3843 14.2379 13.3423 14.3009 13.2741 14.3478C12.4032 14.9999 11.4231 15.357 10.3336 15.419C10.3406 15.0127 10.3336 14.6066 10.3126 14.2008C10.1044 13.9215 9.89441 13.9215 9.68253 14.2008C9.66152 14.6066 9.65455 15.0127 9.66152 15.419C8.55536 15.342 7.56119 14.971 6.67905 14.3058C6.63394 14.2748 6.60592 14.2328 6.59504 14.1798C7.07879 12.7225 8.07296 11.8614 9.57751 11.5964Z" fill="url(#paint0_linear_1830_2975)"/>
<defs>
<linearGradient id="paint0_linear_1830_2975" x1="-0.240015" y1="-7.80756e-07" x2="23.889" y2="10.4393" gradientUnits="userSpaceOnUse">
<stop offset="0.11" stop-color="#60D7AD"/>
<stop offset="0.76" stop-color="#213C3A"/>
</linearGradient>
</defs>
</svg>
