<svg width="24" height="24" viewBox="0 0 24 24" fill="none" xmlns="http://www.w3.org/2000/svg">
<path opacity="0.968" fill-rule="evenodd" clip-rule="evenodd" d="M1.03125 0C5.39062 0 9.75 0 14.1094 0C15.7328 1.58435 17.3343 3.19373 18.9141 4.82812C18.9297 6.65625 18.9453 8.48438 18.9609 10.3125C20.6325 12.2153 21.0543 14.3716 20.2266 16.7812C20.1158 17.0418 19.9986 17.2996 19.875 17.5547C21.1309 18.8575 22.4043 20.1465 23.6953 21.4219C23.7952 21.575 23.8811 21.7313 23.9531 21.8906C23.9531 22.25 23.9531 22.6094 23.9531 22.9688C23.7085 23.479 23.3179 23.8227 22.7812 24C22.5313 24 22.2812 24 22.0312 24C21.8194 23.9253 21.6163 23.8237 21.4219 23.6953C20.6016 22.875 19.7812 22.0547 18.9609 21.2344C18.9584 21.8626 18.9271 22.4876 18.8672 23.1094C18.6775 23.5511 18.3571 23.848 17.9062 24C12.2812 24 6.65625 24 1.03125 24C0.516408 23.8367 0.180473 23.4929 0.0234375 22.9688C-0.0078125 15.6562 -0.0078125 8.34375 0.0234375 1.03125C0.180473 0.50708 0.516408 0.16333 1.03125 0ZM1.40625 0.9375C5.40623 0.9375 9.40627 0.9375 13.4062 0.9375C13.3984 2.1251 13.4062 3.3126 13.4297 4.5C13.5781 5.02345 13.914 5.35936 14.4375 5.50781C15.6093 5.53125 16.7812 5.53908 17.9531 5.53125C17.9687 6.82852 17.9531 8.12536 17.9062 9.42188C16.3341 8.43272 14.6466 8.17491 12.8438 8.64844C10.3594 9.48361 8.89847 11.1945 8.46094 13.7812C8.42967 14.2813 8.42967 14.7812 8.46094 15.2812C8.49933 15.661 8.5853 16.0282 8.71875 16.3828C6.75 16.3984 4.78125 16.4141 2.8125 16.4297C2.54959 16.5833 2.46365 16.8098 2.55469 17.1094C2.65198 17.2541 2.78479 17.34 2.95312 17.3672C4.99552 17.4061 7.03458 17.3983 9.07031 17.3438C10.7133 20.0589 13.0961 21.0824 16.2188 20.4141C16.6566 20.2811 17.0785 20.1092 17.4844 19.8984C17.5312 19.8672 17.5781 19.8672 17.625 19.8984C17.7266 20 17.8281 20.1015 17.9297 20.2031C17.961 21.0625 17.961 21.9219 17.9297 22.7812C17.8335 22.9244 17.7007 23.0103 17.5312 23.0391C12.0917 23.0856 6.65423 23.07 1.21875 22.9922C1.07564 22.896 0.989695 22.7632 0.960938 22.5938C0.929686 15.5312 0.929686 8.46877 0.960938 1.40625C1.00848 1.14789 1.15692 0.991641 1.40625 0.9375ZM14.3438 1.6875C15.3187 2.63898 16.2874 3.59992 17.25 4.57031C16.4375 4.60156 15.625 4.60156 14.8125 4.57031C14.5547 4.53125 14.4062 4.38281 14.3672 4.125C14.3438 3.31265 14.3359 2.50015 14.3438 1.6875ZM13.875 9.42188C16.5816 9.29377 18.4331 10.4813 19.4297 12.9844C20.046 15.5273 19.2726 17.5194 17.1094 18.9609C15.6595 19.7404 14.1595 19.8498 12.6094 19.2891C10.3397 18.2044 9.285 16.3997 9.44531 13.875C9.93028 11.3978 11.4068 9.91345 13.875 9.42188ZM19.2188 18.4219C20.4804 19.6132 21.7226 20.8319 22.9453 22.0781C23.1393 22.6125 22.9596 22.925 22.4062 23.0156C22.2907 23.0167 22.1813 22.9932 22.0781 22.9453C20.8672 21.7344 19.6562 20.5234 18.4453 19.3125C18.414 19.2812 18.414 19.25 18.4453 19.2188C18.7441 18.9903 19.002 18.7247 19.2188 18.4219Z" fill="url(#paint0_linear_1743_1200)"/>
<path opacity="0.948" fill-rule="evenodd" clip-rule="evenodd" d="M2.95309 3.375C5.98441 3.36719 9.01562 3.375 12.0468 3.39844C12.4653 3.51022 12.5825 3.76803 12.3984 4.17188C12.3415 4.24448 12.2712 4.29916 12.1875 4.33594C9.06245 4.36719 5.93748 4.36719 2.81247 4.33594C2.54956 4.18233 2.46361 3.95577 2.55466 3.65625C2.65825 3.51245 2.79106 3.4187 2.95309 3.375Z" fill="url(#paint1_linear_1743_1200)"/>
<path opacity="0.947" fill-rule="evenodd" clip-rule="evenodd" d="M2.77614 6.65626C5.24495 6.64843 7.71367 6.65626 10.1824 6.67969C10.384 6.7704 10.4778 6.92663 10.4636 7.14844C10.456 7.42182 10.3154 7.57805 10.0418 7.61719C7.6824 7.64846 5.323 7.64846 2.96364 7.61719C2.61361 7.55035 2.46517 7.33941 2.51832 6.98438C2.56364 6.83808 2.64958 6.72873 2.77614 6.65626Z" fill="url(#paint2_linear_1743_1200)"/>
<path opacity="0.944" fill-rule="evenodd" clip-rule="evenodd" d="M2.8607 9.89063C4.45452 9.8828 6.04829 9.89063 7.64195 9.91407C7.98465 10.0905 8.07062 10.3483 7.89976 10.6875C7.82574 10.7597 7.73978 10.8144 7.64195 10.8516C6.06381 10.8828 4.4857 10.8828 2.90757 10.8516C2.56956 10.7462 2.45237 10.5196 2.55601 10.1719C2.62602 10.04 2.72759 9.94623 2.8607 9.89063Z" fill="url(#paint3_linear_1743_1200)"/>
<path opacity="0.93" fill-rule="evenodd" clip-rule="evenodd" d="M15.2682 10.9012C16.4636 10.8548 17.237 11.4016 17.5885 12.5418C17.6198 12.7762 17.6198 13.0105 17.5885 13.2449C17.4172 13.4687 17.1906 13.5391 16.9088 13.4558C16.8229 13.4011 16.7526 13.3308 16.6979 13.2449C16.6588 12.3308 16.1823 11.8543 15.2682 11.8152C15.0444 11.6439 14.9741 11.4173 15.0573 11.1355C15.1213 11.0483 15.1916 10.9702 15.2682 10.9012Z" fill="url(#paint4_linear_1743_1200)"/>
<path opacity="0.942" fill-rule="evenodd" clip-rule="evenodd" d="M2.95309 13.125C4.4063 13.1172 5.85944 13.125 7.31247 13.1484C7.66994 13.2729 7.78712 13.5151 7.66403 13.875C7.5917 13.963 7.50578 14.0334 7.40622 14.0859C5.87495 14.1172 4.34372 14.1172 2.81247 14.0859C2.54956 13.9323 2.46361 13.7058 2.55466 13.4063C2.65825 13.2624 2.79106 13.1687 2.95309 13.125Z" fill="url(#paint5_linear_1743_1200)"/>
<path opacity="0.942" fill-rule="evenodd" clip-rule="evenodd" d="M3.00979 19.6406C5.05315 19.6328 7.09635 19.6406 9.1395 19.6641C9.58091 19.792 9.72688 20.0186 9.57734 20.3438C9.49307 20.4788 9.34717 20.5647 9.1395 20.6016C7.11872 20.6328 5.09793 20.6328 3.07715 20.6016C2.59142 20.4962 2.42303 20.2696 2.57195 19.9219C2.67256 19.79 2.81851 19.6962 3.00979 19.6406Z" fill="url(#paint6_linear_1743_1200)"/>
<defs>
<linearGradient id="paint0_linear_1743_1200" x1="-0.286938" y1="-9.36907e-07" x2="28.5934" y2="12.448" gradientUnits="userSpaceOnUse">
<stop offset="0.11" stop-color="#60D7AD"/>
<stop offset="0.76" stop-color="#213C3A"/>
</linearGradient>
<linearGradient id="paint1_linear_1743_1200" x1="2.40018" y1="3.37207" x2="3.11265" y2="6.4771" gradientUnits="userSpaceOnUse">
<stop offset="0.11" stop-color="#60D7AD"/>
<stop offset="0.76" stop-color="#213C3A"/>
</linearGradient>
<linearGradient id="paint2_linear_1743_1200" x1="2.41249" y1="6.65332" x2="3.27998" y2="9.67265" gradientUnits="userSpaceOnUse">
<stop offset="0.11" stop-color="#60D7AD"/>
<stop offset="0.76" stop-color="#213C3A"/>
</linearGradient>
<linearGradient id="paint3_linear_1743_1200" x1="2.45406" y1="9.8877" x2="3.61769" y2="12.6695" gradientUnits="userSpaceOnUse">
<stop offset="0.11" stop-color="#60D7AD"/>
<stop offset="0.76" stop-color="#213C3A"/>
</linearGradient>
<linearGradient id="paint4_linear_1743_1200" x1="14.9924" y1="10.8984" x2="18.1125" y2="12.2445" gradientUnits="userSpaceOnUse">
<stop offset="0.11" stop-color="#60D7AD"/>
<stop offset="0.76" stop-color="#213C3A"/>
</linearGradient>
<linearGradient id="paint5_linear_1743_1200" x1="2.45734" y1="13.1221" x2="3.66288" y2="15.8598" gradientUnits="userSpaceOnUse">
<stop offset="0.11" stop-color="#60D7AD"/>
<stop offset="0.76" stop-color="#213C3A"/>
</linearGradient>
<linearGradient id="paint6_linear_1743_1200" x1="2.4343" y1="19.6377" x2="3.38632" y2="22.6003" gradientUnits="userSpaceOnUse">
<stop offset="0.11" stop-color="#60D7AD"/>
<stop offset="0.76" stop-color="#213C3A"/>
</linearGradient>
</defs>
</svg>
